M48
; DRILL file {KiCad 7.0.10-1.fc39} date Mon 08 Jan 2024 03:06:33 PM EST
; FORMAT={-:-/ absolute / metric / decimal}
; #@! TF.CreationDate,2024-01-08T15:06:33-05:00
; #@! TF.GenerationSoftware,Kicad,Pcbnew,7.0.10-1.fc39
; #@! TF.FileFunction,Plated,1,2,PTH
FMAT,2
METRIC
; #@! TA.AperFunction,Plated,PTH,ViaDrill
T1C0.400
; #@! TA.AperFunction,Plated,PTH,ComponentDrill
T2C0.800
; #@! TA.AperFunction,Plated,PTH,ComponentDrill
T3C1.000
; #@! TA.AperFunction,Plated,PTH,ComponentDrill
T4C1.020
; #@! TA.AperFunction,Plated,PTH,ComponentDrill
T5C1.040
; #@! TA.AperFunction,Plated,PTH,ComponentDrill
T6C1.300
; #@! TA.AperFunction,Plated,PTH,ComponentDrill
T7C1.520
; #@! TA.AperFunction,Plated,PTH,ComponentDrill
T8C4.300
; #@! TA.AperFunction,Plated,PTH,ComponentDrill
T9C5.300
; #@! TA.AperFunction,Plated,PTH,ComponentDrill
T10C6.400
%
G90
G05
T1
X48.133Y-34.798
X52.578Y-106.045
X70.993Y-78.232
X76.073Y-34.798
X80.01Y-97.155
X82.931Y-80.01
X90.932Y-31.369
X95.631Y-111.633
X103.378Y-93.218
X106.553Y-85.344
X107.569Y-100.457
X111.379Y-120.396
X115.189Y-115.062
X116.459Y-113.665
X118.618Y-90.805
X125.222Y-63.627
X126.873Y-91.186
X127.254Y-122.428
X131.318Y-128.778
X131.826Y-110.363
X135.509Y-122.809
X135.636Y-104.013
X136.525Y-111.633
X142.875Y-120.523
X148.971Y-75.565
X161.671Y-76.581
T2
X105.537Y-158.75
X105.577Y-152.4
X108.037Y-158.75
X108.077Y-152.4
X113.411Y-95.377
X113.411Y-97.917
X113.411Y-100.457
X113.411Y-102.997
X113.411Y-105.537
X113.411Y-108.077
X113.411Y-110.617
X115.483Y-131.318
X115.523Y-125.222
X117.983Y-131.318
X118.023Y-125.222
X121.031Y-95.377
X121.031Y-97.917
X121.031Y-100.457
X121.031Y-102.997
X121.031Y-105.537
X121.031Y-108.077
X121.031Y-110.617
T3
X27.386Y-89.433
X27.416Y-81.763
X29.926Y-89.433
X29.956Y-81.763
X32.466Y-89.433
X32.496Y-81.763
X36.887Y-54.742
X36.887Y-57.282
X39.243Y-138.938
X41.783Y-138.938
X44.323Y-138.938
X51.259Y-119.759
X51.259Y-122.299
X51.259Y-124.839
X56.261Y-138.938
X58.801Y-138.938
X60.96Y-97.409
X60.96Y-99.949
X61.341Y-138.938
X65.983Y-97.277
X65.983Y-99.817
X71.509Y-119.789
X71.509Y-122.329
X71.509Y-124.869
X72.898Y-138.938
X75.438Y-138.938
X77.978Y-138.938
X89.535Y-138.811
X92.075Y-138.811
X94.615Y-138.811
X124.841Y-85.344
X124.841Y-87.884
X124.841Y-131.318
X124.841Y-133.858
X127.381Y-85.344
X127.381Y-87.884
X127.381Y-131.318
X127.381Y-133.858
X129.921Y-85.344
X129.921Y-87.884
X129.921Y-131.318
X129.921Y-133.858
X132.461Y-85.344
X132.461Y-87.884
X132.461Y-131.318
X132.461Y-133.858
X135.001Y-85.344
X135.001Y-87.884
X135.001Y-131.318
X135.001Y-133.858
X137.541Y-85.344
X137.541Y-87.884
X137.541Y-131.318
X137.541Y-133.858
X140.081Y-85.344
X140.081Y-87.884
X140.081Y-131.318
X140.081Y-133.858
X142.621Y-85.344
X142.621Y-87.884
X142.621Y-131.318
X142.621Y-133.858
X145.161Y-85.344
X145.161Y-87.884
X145.161Y-131.318
X145.161Y-133.858
X147.701Y-85.344
X147.701Y-87.884
X147.701Y-131.318
X147.701Y-133.858
X150.241Y-85.344
X150.241Y-87.884
X150.241Y-131.318
X150.241Y-133.858
X152.781Y-85.344
X152.781Y-87.884
X152.781Y-131.318
X152.781Y-133.858
X155.321Y-85.344
X155.321Y-87.884
X155.321Y-131.318
X155.321Y-133.858
X157.861Y-85.344
X157.861Y-87.884
X157.861Y-131.318
X157.861Y-133.858
X160.401Y-85.344
X160.401Y-87.884
X160.401Y-131.318
X160.401Y-133.858
X162.941Y-85.344
X162.941Y-87.884
X162.941Y-131.318
X162.941Y-133.858
X163.011Y-54.224
X163.011Y-56.764
X165.481Y-85.344
X165.481Y-87.884
X165.481Y-131.318
X165.481Y-133.858
X168.021Y-85.344
X168.021Y-87.884
X168.021Y-131.318
X168.021Y-133.858
X170.561Y-85.344
X170.561Y-87.884
X170.561Y-131.318
X170.561Y-133.858
X173.101Y-85.344
X173.101Y-87.884
X173.101Y-131.318
X173.101Y-133.858
X175.641Y-85.344
X175.641Y-87.884
X175.641Y-131.318
X175.641Y-133.858
X178.181Y-85.344
X178.181Y-87.884
X178.181Y-131.318
X178.181Y-133.858
T4
X136.017Y-100.457
X136.017Y-125.857
X138.557Y-100.457
X138.557Y-125.857
X141.097Y-100.457
X141.097Y-125.857
X143.637Y-100.457
X143.637Y-125.857
X146.177Y-100.457
X146.177Y-125.857
X148.717Y-100.457
X148.717Y-125.857
X151.257Y-100.457
X151.257Y-125.857
X153.797Y-100.457
X153.797Y-125.857
X156.337Y-100.457
X156.337Y-125.857
X158.877Y-100.457
X158.877Y-125.857
X161.417Y-100.457
X161.417Y-125.857
X163.957Y-100.457
X163.957Y-125.857
X166.497Y-100.457
X166.497Y-125.857
X169.037Y-100.457
X169.037Y-125.857
X171.577Y-100.457
X171.577Y-125.857
T5
X127.381Y-94.742
X127.381Y-117.602
X129.921Y-94.742
X129.921Y-117.602
X132.461Y-94.742
X132.461Y-117.602
X135.001Y-94.742
X135.001Y-117.602
X137.541Y-94.742
X137.541Y-117.602
X140.081Y-94.742
X140.081Y-117.602
X142.621Y-94.742
X142.621Y-117.602
X145.161Y-94.742
X145.161Y-117.602
X147.701Y-94.742
X147.701Y-117.602
X150.241Y-94.742
X150.241Y-117.602
X152.781Y-94.742
X152.781Y-117.602
X155.321Y-94.742
X155.321Y-117.602
X157.861Y-94.742
X157.861Y-117.602
X160.401Y-94.742
X160.401Y-117.602
X162.941Y-94.742
X162.941Y-117.602
X165.481Y-94.742
X165.481Y-117.602
X168.021Y-94.742
X168.021Y-117.602
X170.561Y-94.742
X170.561Y-117.602
X173.101Y-94.742
X173.101Y-117.602
T7
X36.068Y-146.431
X41.148Y-146.431
X46.228Y-146.431
X53.086Y-146.431
X58.166Y-146.431
X63.246Y-146.431
X69.723Y-146.431
X74.803Y-146.431
X79.883Y-146.431
X86.36Y-146.431
X91.44Y-146.431
X96.52Y-146.431
T8
X30.0Y-30.0
X30.0Y-170.0
X30.48Y-100.33
X83.82Y-172.72
X101.6Y-30.48
X127.0Y-172.72
X170.0Y-30.0
X170.0Y-170.0
T9
X101.0Y-100.0
T10
X40.0Y-40.0
X40.0Y-160.0
X160.0Y-40.0
X160.0Y-160.0
T3
X102.042Y-167.0G85X104.042Y-167.0
G05
X102.042Y-173.0G85X104.042Y-173.0
G05
X107.742Y-171.0G85X107.742Y-169.0
G05
T6
X116.06Y-162.435G85X116.06Y-161.235
G05
X116.06Y-175.935G85X116.06Y-174.735
G05
X120.06Y-162.435G85X120.06Y-161.235
G05
X120.06Y-175.935G85X120.06Y-174.735
G05
M30
