G04 #@! TF.GenerationSoftware,KiCad,Pcbnew,7.0.10-1.fc39*
G04 #@! TF.CreationDate,2024-01-08T15:06:23-05:00*
G04 #@! TF.ProjectId,SYSMATT-WS2812-MATRIX-CARRIER,5359534d-4154-4542-9d57-53323831322d,rev?*
G04 #@! TF.SameCoordinates,Original*
G04 #@! TF.FileFunction,Soldermask,Bot*
G04 #@! TF.FilePolarity,Negative*
%FSLAX46Y46*%
G04 Gerber Fmt 4.6, Leading zero omitted, Abs format (unit mm)*
G04 Created by KiCad (PCBNEW 7.0.10-1.fc39) date 2024-01-08 15:06:23*
%MOMM*%
%LPD*%
G01*
G04 APERTURE LIST*
G04 Aperture macros list*
%AMRoundRect*
0 Rectangle with rounded corners*
0 $1 Rounding radius*
0 $2 $3 $4 $5 $6 $7 $8 $9 X,Y pos of 4 corners*
0 Add a 4 corners polygon primitive as box body*
4,1,4,$2,$3,$4,$5,$6,$7,$8,$9,$2,$3,0*
0 Add four circle primitives for the rounded corners*
1,1,$1+$1,$2,$3*
1,1,$1+$1,$4,$5*
1,1,$1+$1,$6,$7*
1,1,$1+$1,$8,$9*
0 Add four rect primitives between the rounded corners*
20,1,$1+$1,$2,$3,$4,$5,0*
20,1,$1+$1,$4,$5,$6,$7,0*
20,1,$1+$1,$6,$7,$8,$9,0*
20,1,$1+$1,$8,$9,$2,$3,0*%
G04 Aperture macros list end*
%ADD10C,1.600000*%
%ADD11C,12.800000*%
%ADD12C,8.600000*%
%ADD13R,1.700000X1.700000*%
%ADD14O,1.700000X1.700000*%
%ADD15R,1.600000X1.600000*%
%ADD16R,3.000000X3.000000*%
%ADD17C,3.000000*%
%ADD18R,3.500000X3.500000*%
%ADD19RoundRect,0.750000X1.000000X-0.750000X1.000000X0.750000X-1.000000X0.750000X-1.000000X-0.750000X0*%
%ADD20RoundRect,0.875000X0.875000X-0.875000X0.875000X0.875000X-0.875000X0.875000X-0.875000X-0.875000X0*%
%ADD21R,2.400000X1.600000*%
%ADD22O,2.400000X1.600000*%
%ADD23RoundRect,0.625000X0.625000X-1.125000X0.625000X1.125000X-0.625000X1.125000X-0.625000X-1.125000X0*%
%ADD24O,2.500000X3.500000*%
%ADD25C,10.600000*%
%ADD26RoundRect,0.102000X1.000000X-1.000000X1.000000X1.000000X-1.000000X1.000000X-1.000000X-1.000000X0*%
%ADD27C,2.204000*%
%ADD28RoundRect,0.102000X-0.780000X0.780000X-0.780000X-0.780000X0.780000X-0.780000X0.780000X0.780000X0*%
%ADD29C,1.764000*%
G04 APERTURE END LIST*
D10*
X108077000Y-152400000D03*
X105577000Y-152400000D03*
D11*
X160000000Y-40000000D03*
D12*
X101600000Y-30480000D03*
D13*
X163011000Y-54224000D03*
D14*
X163011000Y-56764000D03*
D13*
X124841000Y-85344000D03*
D14*
X124841000Y-87884000D03*
X127381000Y-85344000D03*
X127381000Y-87884000D03*
X129921000Y-85344000D03*
X129921000Y-87884000D03*
X132461000Y-85344000D03*
X132461000Y-87884000D03*
X135001000Y-85344000D03*
X135001000Y-87884000D03*
X137541000Y-85344000D03*
X137541000Y-87884000D03*
X140081000Y-85344000D03*
X140081000Y-87884000D03*
X142621000Y-85344000D03*
X142621000Y-87884000D03*
X145161000Y-85344000D03*
X145161000Y-87884000D03*
X147701000Y-85344000D03*
X147701000Y-87884000D03*
X150241000Y-85344000D03*
X150241000Y-87884000D03*
X152781000Y-85344000D03*
X152781000Y-87884000D03*
X155321000Y-85344000D03*
X155321000Y-87884000D03*
X157861000Y-85344000D03*
X157861000Y-87884000D03*
X160401000Y-85344000D03*
X160401000Y-87884000D03*
X162941000Y-85344000D03*
X162941000Y-87884000D03*
X165481000Y-85344000D03*
X165481000Y-87884000D03*
X168021000Y-85344000D03*
X168021000Y-87884000D03*
X170561000Y-85344000D03*
X170561000Y-87884000D03*
X173101000Y-85344000D03*
X173101000Y-87884000D03*
X175641000Y-85344000D03*
X175641000Y-87884000D03*
X178181000Y-85344000D03*
X178181000Y-87884000D03*
D13*
X27386409Y-89433000D03*
D14*
X29926409Y-89433000D03*
X32466409Y-89433000D03*
D13*
X89535000Y-138811000D03*
D14*
X92075000Y-138811000D03*
X94615000Y-138811000D03*
D15*
X117983000Y-131318000D03*
D10*
X115483000Y-131318000D03*
D16*
X36068000Y-146431000D03*
D17*
X41148000Y-146431000D03*
X46228000Y-146431000D03*
D18*
X103042500Y-167000000D03*
D19*
X103042500Y-173000000D03*
D20*
X107742500Y-170000000D03*
D13*
X27416409Y-81763000D03*
D14*
X29956409Y-81763000D03*
X32496409Y-81763000D03*
D13*
X60960000Y-99949000D03*
D14*
X60960000Y-97409000D03*
D13*
X51259000Y-124839000D03*
D14*
X51259000Y-122299000D03*
X51259000Y-119759000D03*
D21*
X113411000Y-95377000D03*
D22*
X113411000Y-97917000D03*
X113411000Y-100457000D03*
X113411000Y-102997000D03*
X113411000Y-105537000D03*
X113411000Y-108077000D03*
X113411000Y-110617000D03*
X121031000Y-110617000D03*
X121031000Y-108077000D03*
X121031000Y-105537000D03*
X121031000Y-102997000D03*
X121031000Y-100457000D03*
X121031000Y-97917000D03*
X121031000Y-95377000D03*
D15*
X108037000Y-158750000D03*
D10*
X105537000Y-158750000D03*
D11*
X40000000Y-40000000D03*
D12*
X170000000Y-170000000D03*
D23*
X116060000Y-175335000D03*
X120060000Y-175335000D03*
D24*
X116060000Y-161835000D03*
X120060000Y-161835000D03*
D12*
X83820000Y-172720000D03*
D13*
X65983000Y-97277000D03*
D14*
X65983000Y-99817000D03*
D13*
X36887000Y-57282000D03*
D14*
X36887000Y-54742000D03*
D16*
X86360000Y-146431000D03*
D17*
X91440000Y-146431000D03*
X96520000Y-146431000D03*
D12*
X127000000Y-172720000D03*
D13*
X56261000Y-138938000D03*
D14*
X58801000Y-138938000D03*
X61341000Y-138938000D03*
D12*
X170000000Y-30000000D03*
D25*
X101000000Y-100000000D03*
D17*
X128056999Y-125437000D03*
X175006999Y-125437000D03*
X128056999Y-100927000D03*
X175006999Y-100927000D03*
D26*
X136016999Y-125857000D03*
D27*
X138556999Y-125857000D03*
X141096999Y-125857000D03*
X143636999Y-125857000D03*
X146176999Y-125857000D03*
X148716999Y-125857000D03*
X151256999Y-125857000D03*
X153796999Y-125857000D03*
X156336999Y-125857000D03*
X158876999Y-125857000D03*
X161416999Y-125857000D03*
X163956999Y-125857000D03*
X166496999Y-125857000D03*
X169036999Y-125857000D03*
X171576999Y-125857000D03*
X171576999Y-100457000D03*
X169036999Y-100457000D03*
X166496999Y-100457000D03*
X163956999Y-100457000D03*
X161416999Y-100457000D03*
X158876999Y-100457000D03*
X156336999Y-100457000D03*
X153796999Y-100457000D03*
X151256999Y-100457000D03*
X148716999Y-100457000D03*
X146176999Y-100457000D03*
X143636999Y-100457000D03*
X141096999Y-100457000D03*
X138556999Y-100457000D03*
X136016999Y-100457000D03*
D16*
X69723000Y-146431000D03*
D17*
X74803000Y-146431000D03*
X79883000Y-146431000D03*
D13*
X39243000Y-138938000D03*
D14*
X41783000Y-138938000D03*
X44323000Y-138938000D03*
D11*
X160000000Y-160000000D03*
D10*
X118023000Y-125222000D03*
X115523000Y-125222000D03*
D13*
X124841000Y-131318000D03*
D14*
X124841000Y-133858000D03*
X127381000Y-131318000D03*
X127381000Y-133858000D03*
X129921000Y-131318000D03*
X129921000Y-133858000D03*
X132461000Y-131318000D03*
X132461000Y-133858000D03*
X135001000Y-131318000D03*
X135001000Y-133858000D03*
X137541000Y-131318000D03*
X137541000Y-133858000D03*
X140081000Y-131318000D03*
X140081000Y-133858000D03*
X142621000Y-131318000D03*
X142621000Y-133858000D03*
X145161000Y-131318000D03*
X145161000Y-133858000D03*
X147701000Y-131318000D03*
X147701000Y-133858000D03*
X150241000Y-131318000D03*
X150241000Y-133858000D03*
X152781000Y-131318000D03*
X152781000Y-133858000D03*
X155321000Y-131318000D03*
X155321000Y-133858000D03*
X157861000Y-131318000D03*
X157861000Y-133858000D03*
X160401000Y-131318000D03*
X160401000Y-133858000D03*
X162941000Y-131318000D03*
X162941000Y-133858000D03*
X165481000Y-131318000D03*
X165481000Y-133858000D03*
X168021000Y-131318000D03*
X168021000Y-133858000D03*
X170561000Y-131318000D03*
X170561000Y-133858000D03*
X173101000Y-131318000D03*
X173101000Y-133858000D03*
X175641000Y-131318000D03*
X175641000Y-133858000D03*
X178181000Y-131318000D03*
X178181000Y-133858000D03*
D12*
X30000000Y-170000000D03*
D13*
X72898000Y-138938000D03*
D14*
X75438000Y-138938000D03*
X77978000Y-138938000D03*
D12*
X30000000Y-30000000D03*
D28*
X173100999Y-94742000D03*
D29*
X170560999Y-94742000D03*
X168020999Y-94742000D03*
X165480999Y-94742000D03*
X162940999Y-94742000D03*
X160400999Y-94742000D03*
X157860999Y-94742000D03*
X155320999Y-94742000D03*
X152780999Y-94742000D03*
X150240999Y-94742000D03*
X147700999Y-94742000D03*
X145160999Y-94742000D03*
X142620999Y-94742000D03*
X140080999Y-94742000D03*
X137540999Y-94742000D03*
X135000999Y-94742000D03*
X132460999Y-94742000D03*
X129920999Y-94742000D03*
X127380999Y-94742000D03*
X173100999Y-117602000D03*
X170560999Y-117602000D03*
X168020999Y-117602000D03*
X165480999Y-117602000D03*
X162940999Y-117602000D03*
X160400999Y-117602000D03*
X157860999Y-117602000D03*
X155320999Y-117602000D03*
X152780999Y-117602000D03*
X150240999Y-117602000D03*
X147700999Y-117602000D03*
X145160999Y-117602000D03*
X142620999Y-117602000D03*
X140080999Y-117602000D03*
X137540999Y-117602000D03*
X135000999Y-117602000D03*
X132460999Y-117602000D03*
X129920999Y-117602000D03*
X127380999Y-117602000D03*
D12*
X30480000Y-100330000D03*
D13*
X71509000Y-119789000D03*
D14*
X71509000Y-122329000D03*
X71509000Y-124869000D03*
D11*
X40000000Y-160000000D03*
D16*
X53086000Y-146431000D03*
D17*
X58166000Y-146431000D03*
X63246000Y-146431000D03*
M02*
