G04 #@! TF.GenerationSoftware,KiCad,Pcbnew,7.0.9-1.fc39*
G04 #@! TF.CreationDate,2023-12-18T12:22:01-05:00*
G04 #@! TF.ProjectId,SYSMATT-WS2812-MATRIX-CARRIER-BLANK,5359534d-4154-4542-9d57-53323831322d,rev?*
G04 #@! TF.SameCoordinates,Original*
G04 #@! TF.FileFunction,Copper,L2,Bot*
G04 #@! TF.FilePolarity,Positive*
%FSLAX46Y46*%
G04 Gerber Fmt 4.6, Leading zero omitted, Abs format (unit mm)*
G04 Created by KiCad (PCBNEW 7.0.9-1.fc39) date 2023-12-18 12:22:01*
%MOMM*%
%LPD*%
G01*
G04 APERTURE LIST*
G04 APERTURE END LIST*
G04 #@! TA.AperFunction,NonConductor*
G36*
X180002695Y-19000735D02*
G01*
X180045519Y-19004482D01*
X180171771Y-19016918D01*
X180191685Y-19020541D01*
X180258349Y-19038403D01*
X180351570Y-19066682D01*
X180367971Y-19072958D01*
X180435411Y-19104406D01*
X180438375Y-19105888D01*
X180475969Y-19125982D01*
X180522327Y-19150762D01*
X180528667Y-19154657D01*
X180594828Y-19200983D01*
X180598600Y-19203844D01*
X180670808Y-19263103D01*
X180675309Y-19267182D01*
X180732815Y-19324688D01*
X180736895Y-19329190D01*
X180796154Y-19401398D01*
X180799015Y-19405170D01*
X180845341Y-19471331D01*
X180849236Y-19477671D01*
X180894101Y-19561605D01*
X180895614Y-19564631D01*
X180927040Y-19632027D01*
X180933319Y-19648435D01*
X180961601Y-19741669D01*
X180979454Y-19808299D01*
X180983082Y-19828238D01*
X180995523Y-19954554D01*
X180999264Y-19997302D01*
X180999500Y-20002710D01*
X180999500Y-179997289D01*
X180999264Y-180002697D01*
X180995523Y-180045445D01*
X180983082Y-180171760D01*
X180979454Y-180191699D01*
X180961601Y-180258330D01*
X180933318Y-180351563D01*
X180927040Y-180367971D01*
X180895614Y-180435367D01*
X180894101Y-180438393D01*
X180849236Y-180522327D01*
X180845341Y-180528667D01*
X180799015Y-180594828D01*
X180796154Y-180598600D01*
X180736895Y-180670808D01*
X180732806Y-180675320D01*
X180675320Y-180732806D01*
X180670808Y-180736895D01*
X180598600Y-180796154D01*
X180594828Y-180799015D01*
X180528667Y-180845341D01*
X180522327Y-180849236D01*
X180438393Y-180894101D01*
X180435367Y-180895614D01*
X180367971Y-180927040D01*
X180351563Y-180933318D01*
X180258330Y-180961601D01*
X180191699Y-180979454D01*
X180171760Y-180983082D01*
X180045445Y-180995523D01*
X180004789Y-180999080D01*
X180002696Y-180999264D01*
X179997290Y-180999500D01*
X20002710Y-180999500D01*
X19997303Y-180999264D01*
X19995015Y-180999063D01*
X19954554Y-180995523D01*
X19828238Y-180983082D01*
X19808299Y-180979454D01*
X19741669Y-180961601D01*
X19648435Y-180933319D01*
X19632027Y-180927040D01*
X19583433Y-180904381D01*
X19564618Y-180895607D01*
X19561605Y-180894101D01*
X19477671Y-180849236D01*
X19471331Y-180845341D01*
X19405170Y-180799015D01*
X19401398Y-180796154D01*
X19329190Y-180736895D01*
X19324688Y-180732815D01*
X19267182Y-180675309D01*
X19263103Y-180670808D01*
X19203844Y-180598600D01*
X19200983Y-180594828D01*
X19154657Y-180528667D01*
X19150762Y-180522327D01*
X19125982Y-180475969D01*
X19105888Y-180438375D01*
X19104406Y-180435411D01*
X19072958Y-180367971D01*
X19066682Y-180351570D01*
X19038398Y-180258330D01*
X19020541Y-180191685D01*
X19016918Y-180171771D01*
X19004482Y-180045519D01*
X19000735Y-180002695D01*
X19000500Y-179997293D01*
X19000500Y-20002705D01*
X19000618Y-20000000D01*
X20000000Y-20000000D01*
X20000000Y-180000000D01*
X180000000Y-180000000D01*
X180000000Y-20000000D01*
X20000000Y-20000000D01*
X19000618Y-20000000D01*
X19000736Y-19997299D01*
X19004476Y-19954554D01*
X19016918Y-19828223D01*
X19020542Y-19808309D01*
X19038402Y-19741653D01*
X19066683Y-19648424D01*
X19072953Y-19632037D01*
X19104420Y-19564558D01*
X19105872Y-19561653D01*
X19150764Y-19477666D01*
X19154657Y-19471331D01*
X19187837Y-19423945D01*
X19200994Y-19405155D01*
X19203827Y-19401420D01*
X19263122Y-19329168D01*
X19267162Y-19324710D01*
X19324710Y-19267162D01*
X19329168Y-19263122D01*
X19401420Y-19203827D01*
X19405155Y-19200994D01*
X19471334Y-19154654D01*
X19477666Y-19150764D01*
X19561653Y-19105872D01*
X19564558Y-19104420D01*
X19632037Y-19072953D01*
X19648424Y-19066683D01*
X19741653Y-19038402D01*
X19808309Y-19020542D01*
X19828223Y-19016918D01*
X19954542Y-19004477D01*
X19997305Y-19000735D01*
X20002706Y-19000500D01*
X179997293Y-19000500D01*
X180002695Y-19000735D01*
G37*
G04 #@! TD.AperFunction*
M02*
