G04 #@! TF.GenerationSoftware,KiCad,Pcbnew,7.0.10-1.fc39*
G04 #@! TF.CreationDate,2024-01-09T17:01:27-05:00*
G04 #@! TF.ProjectId,SYSMATT-WS2812-MATRIX-CARRIER-32X8-SPACER-PLATE,5359534d-4154-4542-9d57-53323831322d,rev?*
G04 #@! TF.SameCoordinates,Original*
G04 #@! TF.FileFunction,Profile,NP*
%FSLAX46Y46*%
G04 Gerber Fmt 4.6, Leading zero omitted, Abs format (unit mm)*
G04 Created by KiCad (PCBNEW 7.0.10-1.fc39) date 2024-01-09 17:01:27*
%MOMM*%
%LPD*%
G01*
G04 APERTURE LIST*
G04 #@! TA.AperFunction,Profile*
%ADD10C,0.100000*%
G04 #@! TD*
G04 APERTURE END LIST*
D10*
X216217500Y41910000D02*
X267843000Y41910000D01*
X267843000Y30099000D01*
X216217500Y30099000D01*
X216217500Y41910000D01*
X216185750Y64135000D02*
X267684250Y64135000D01*
X267684250Y54229000D01*
X216185750Y54229000D01*
X216185750Y64135000D01*
X213296500Y27686000D02*
X270129000Y27686000D01*
X270129000Y21844000D01*
X213296500Y21844000D01*
X213296500Y27686000D01*
X213169500Y73787000D02*
X270002000Y73787000D01*
X270002000Y67945000D01*
X213169500Y67945000D01*
X213169500Y73787000D01*
X201739500Y63881000D02*
X213106000Y63881000D01*
X213106000Y44831000D01*
X201739500Y44831000D01*
X201739500Y63881000D01*
X75692000Y37846000D02*
X141605000Y37846000D01*
X141605000Y25527000D01*
X75692000Y25527000D01*
X75692000Y37846000D01*
X328168000Y81534000D02*
G75*
G03*
X317110318Y81534000I-5528841J0D01*
G01*
X317110318Y81534000D02*
G75*
G03*
X328168000Y81534000I5528841J0D01*
G01*
X11000000Y90000000D02*
G75*
G03*
X10000000Y89000000I0J-1000000D01*
G01*
X101147605Y79487183D02*
G75*
G03*
X86304395Y79487183I-7421605J0D01*
G01*
X86304395Y79487183D02*
G75*
G03*
X101147605Y79487183I7421605J0D01*
G01*
X327981841Y17466841D02*
G75*
G03*
X316924159Y17466841I-5528841J0D01*
G01*
X316924159Y17466841D02*
G75*
G03*
X327981841Y17466841I5528841J0D01*
G01*
X11000000Y9000000D02*
X330000000Y9000000D01*
X10000000Y10000000D02*
G75*
G03*
X11000000Y9000000I1000000J0D01*
G01*
X331000000Y10000000D02*
X331000000Y89000000D01*
X24003000Y17399000D02*
G75*
G03*
X12945318Y17399000I-5528841J0D01*
G01*
X12945318Y17399000D02*
G75*
G03*
X24003000Y17399000I5528841J0D01*
G01*
X164733817Y20880554D02*
G75*
G03*
X152258183Y20880554I-6237817J0D01*
G01*
X152258183Y20880554D02*
G75*
G03*
X164733817Y20880554I6237817J0D01*
G01*
X65500000Y70000000D02*
G75*
G03*
X35500000Y70000000I-15000000J0D01*
G01*
X35500000Y70000000D02*
G75*
G03*
X65500000Y70000000I15000000J0D01*
G01*
X99441000Y52451000D02*
G75*
G03*
X86965366Y52451000I-6237817J0D01*
G01*
X86965366Y52451000D02*
G75*
G03*
X99441000Y52451000I6237817J0D01*
G01*
X209706559Y25908000D02*
G75*
G03*
X204313441Y25908000I-2696559J0D01*
G01*
X204313441Y25908000D02*
G75*
G03*
X209706559Y25908000I2696559J0D01*
G01*
X305500000Y70000000D02*
G75*
G03*
X275500000Y70000000I-15000000J0D01*
G01*
X275500000Y70000000D02*
G75*
G03*
X305500000Y70000000I15000000J0D01*
G01*
X175947554Y28575000D02*
G75*
G03*
X168222446Y28575000I-3862554J0D01*
G01*
X168222446Y28575000D02*
G75*
G03*
X175947554Y28575000I3862554J0D01*
G01*
X163527172Y31623000D02*
G75*
G03*
X158290828Y31623000I-2618172J0D01*
G01*
X158290828Y31623000D02*
G75*
G03*
X163527172Y31623000I2618172J0D01*
G01*
X175947554Y15113000D02*
G75*
G03*
X168222446Y15113000I-3862554J0D01*
G01*
X168222446Y15113000D02*
G75*
G03*
X175947554Y15113000I3862554J0D01*
G01*
X331000000Y89000000D02*
G75*
G03*
X330000000Y90000000I-1000000J0D01*
G01*
X314631554Y42238446D02*
G75*
G03*
X306906446Y42238446I-3862554J0D01*
G01*
X306906446Y42238446D02*
G75*
G03*
X314631554Y42238446I3862554J0D01*
G01*
X119253000Y52197000D02*
G75*
G03*
X106777366Y52197000I-6237817J0D01*
G01*
X106777366Y52197000D02*
G75*
G03*
X119253000Y52197000I6237817J0D01*
G01*
X196723000Y57404000D02*
G75*
G03*
X185665318Y57404000I-5528841J0D01*
G01*
X185665318Y57404000D02*
G75*
G03*
X196723000Y57404000I5528841J0D01*
G01*
X23948606Y81407000D02*
G75*
G03*
X12890924Y81407000I-5528841J0D01*
G01*
X12890924Y81407000D02*
G75*
G03*
X23948606Y81407000I5528841J0D01*
G01*
X209706559Y32258000D02*
G75*
G03*
X204313441Y32258000I-2696559J0D01*
G01*
X204313441Y32258000D02*
G75*
G03*
X209706559Y32258000I2696559J0D01*
G01*
X330000000Y9000000D02*
G75*
G03*
X331000000Y10000000I0J1000000D01*
G01*
X330000000Y90000000D02*
X11000000Y90000000D01*
X98933001Y15113000D02*
G75*
G03*
X89726013Y15113000I-4603494J0D01*
G01*
X89726013Y15113000D02*
G75*
G03*
X98933001Y15113000I4603494J0D01*
G01*
X10000000Y89000000D02*
X10000000Y10000000D01*
X163478559Y38129558D02*
G75*
G03*
X158085441Y38129558I-2696559J0D01*
G01*
X158085441Y38129558D02*
G75*
G03*
X163478559Y38129558I2696559J0D01*
G01*
X185000000Y70000000D02*
G75*
G03*
X155000000Y70000000I-15000000J0D01*
G01*
X155000000Y70000000D02*
G75*
G03*
X185000000Y70000000I15000000J0D01*
G01*
X32719727Y42672000D02*
G75*
G03*
X25446273Y42672000I-3636727J0D01*
G01*
X25446273Y42672000D02*
G75*
G03*
X32719727Y42672000I3636727J0D01*
G01*
M02*
