G04 #@! TF.GenerationSoftware,KiCad,Pcbnew,7.0.9-1.fc39*
G04 #@! TF.CreationDate,2023-12-18T12:14:33-05:00*
G04 #@! TF.ProjectId,SYSMATT-WS2812-MATRIX-CARRIER-SPACER-PLATE,5359534d-4154-4542-9d57-53323831322d,rev?*
G04 #@! TF.SameCoordinates,Original*
G04 #@! TF.FileFunction,Legend,Bot*
G04 #@! TF.FilePolarity,Positive*
%FSLAX46Y46*%
G04 Gerber Fmt 4.6, Leading zero omitted, Abs format (unit mm)*
G04 Created by KiCad (PCBNEW 7.0.9-1.fc39) date 2023-12-18 12:14:33*
%MOMM*%
%LPD*%
G01*
G04 APERTURE LIST*
%ADD10C,0.150000*%
%ADD11C,1.000000*%
%ADD12C,12.800000*%
%ADD13C,8.600000*%
%ADD14C,10.600000*%
G04 APERTURE END LIST*
D10*
G36*
X138301750Y-124416761D02*
G01*
X138394231Y-124422740D01*
X138485223Y-124432612D01*
X138574621Y-124446302D01*
X138662322Y-124463735D01*
X138748220Y-124484835D01*
X138832211Y-124509527D01*
X138914190Y-124537736D01*
X138994052Y-124569385D01*
X139071693Y-124604401D01*
X139147008Y-124642706D01*
X139219892Y-124684227D01*
X139290241Y-124728887D01*
X139357950Y-124776611D01*
X139422915Y-124827324D01*
X139485031Y-124880950D01*
X139544193Y-124937414D01*
X139600296Y-124996641D01*
X139653236Y-125058555D01*
X139702909Y-125123080D01*
X139749209Y-125190141D01*
X139792032Y-125259664D01*
X139831273Y-125331572D01*
X139866828Y-125405790D01*
X139898592Y-125482243D01*
X139926460Y-125560855D01*
X139950328Y-125641551D01*
X139970091Y-125724255D01*
X139985645Y-125808892D01*
X139996884Y-125895388D01*
X140003704Y-125983665D01*
X140006001Y-126073649D01*
X140001905Y-126186244D01*
X139989792Y-126295852D01*
X139969921Y-126402305D01*
X139942551Y-126505432D01*
X139907943Y-126605065D01*
X139866356Y-126701034D01*
X139818050Y-126793168D01*
X139763285Y-126881299D01*
X139702320Y-126965257D01*
X139635415Y-127044872D01*
X139562830Y-127119975D01*
X139484825Y-127190396D01*
X139401659Y-127255966D01*
X139313592Y-127316514D01*
X139220885Y-127371872D01*
X139123796Y-127421870D01*
X139193142Y-127441883D01*
X139261016Y-127463997D01*
X139327368Y-127488198D01*
X139392152Y-127514474D01*
X139455319Y-127542813D01*
X139516822Y-127573203D01*
X139576613Y-127605631D01*
X139634645Y-127640085D01*
X139690869Y-127676553D01*
X139745238Y-127715022D01*
X139797703Y-127755480D01*
X139848218Y-127797914D01*
X139896734Y-127842313D01*
X139943204Y-127888663D01*
X139987580Y-127936953D01*
X140029815Y-127987170D01*
X140069859Y-128039302D01*
X140107666Y-128093336D01*
X140143188Y-128149260D01*
X140176377Y-128207063D01*
X140207186Y-128266730D01*
X140235566Y-128328251D01*
X140261470Y-128391613D01*
X140284850Y-128456803D01*
X140305658Y-128523809D01*
X140323847Y-128592619D01*
X140339369Y-128663220D01*
X140352175Y-128735600D01*
X140362219Y-128809747D01*
X140369452Y-128885649D01*
X140373827Y-128963292D01*
X140375296Y-129042665D01*
X140372851Y-129147760D01*
X140365577Y-129250860D01*
X140353564Y-129351878D01*
X140336902Y-129450726D01*
X140315684Y-129547316D01*
X140289998Y-129641559D01*
X140259937Y-129733368D01*
X140225590Y-129822655D01*
X140187049Y-129909331D01*
X140144404Y-129993309D01*
X140097746Y-130074501D01*
X140047165Y-130152818D01*
X139992753Y-130228172D01*
X139934599Y-130300477D01*
X139872795Y-130369643D01*
X139807431Y-130435582D01*
X139738599Y-130498207D01*
X139666388Y-130557430D01*
X139590889Y-130613162D01*
X139512193Y-130665315D01*
X139430392Y-130713803D01*
X139345574Y-130758535D01*
X139257832Y-130799425D01*
X139167256Y-130836385D01*
X139073936Y-130869326D01*
X138977963Y-130898160D01*
X138879429Y-130922800D01*
X138778423Y-130943157D01*
X138675036Y-130959144D01*
X138569360Y-130970672D01*
X138461484Y-130977653D01*
X138351500Y-130980000D01*
X136209002Y-130980000D01*
X136130442Y-130974252D01*
X136059182Y-130957377D01*
X135996198Y-130929922D01*
X135942472Y-130892438D01*
X135898980Y-130845475D01*
X135866703Y-130789582D01*
X135846619Y-130725308D01*
X135839706Y-130653203D01*
X135839706Y-127791165D01*
X136494766Y-127791165D01*
X136494766Y-130351318D01*
X138351500Y-130351318D01*
X138426365Y-130349848D01*
X138499795Y-130345461D01*
X138571728Y-130338194D01*
X138642101Y-130328086D01*
X138710854Y-130315173D01*
X138777924Y-130299493D01*
X138843250Y-130281082D01*
X138906771Y-130259979D01*
X138968423Y-130236221D01*
X139028147Y-130209844D01*
X139085879Y-130180887D01*
X139141559Y-130149386D01*
X139195124Y-130115379D01*
X139246513Y-130078903D01*
X139295664Y-130039995D01*
X139342515Y-129998693D01*
X139387005Y-129955034D01*
X139429072Y-129909055D01*
X139468655Y-129860794D01*
X139505690Y-129810287D01*
X139540118Y-129757573D01*
X139571876Y-129702688D01*
X139600902Y-129645670D01*
X139627134Y-129586556D01*
X139650512Y-129525383D01*
X139670973Y-129462189D01*
X139688455Y-129397011D01*
X139702897Y-129329886D01*
X139714238Y-129260852D01*
X139722414Y-129189945D01*
X139727365Y-129117204D01*
X139729030Y-129042665D01*
X139727365Y-128971900D01*
X139722414Y-128902789D01*
X139714238Y-128835369D01*
X139702897Y-128769681D01*
X139688455Y-128705762D01*
X139670973Y-128643653D01*
X139650512Y-128583391D01*
X139627134Y-128525015D01*
X139600902Y-128468566D01*
X139571876Y-128414080D01*
X139540118Y-128361598D01*
X139505690Y-128311159D01*
X139468655Y-128262800D01*
X139429072Y-128216562D01*
X139387005Y-128172483D01*
X139342515Y-128130601D01*
X139295664Y-128090957D01*
X139246513Y-128053588D01*
X139195124Y-128018534D01*
X139141559Y-127985833D01*
X139085879Y-127955525D01*
X139028147Y-127927648D01*
X138968423Y-127902242D01*
X138906771Y-127879344D01*
X138843250Y-127858995D01*
X138777924Y-127841233D01*
X138710854Y-127826096D01*
X138642101Y-127813625D01*
X138571728Y-127803857D01*
X138499795Y-127796832D01*
X138426365Y-127792588D01*
X138351500Y-127791165D01*
X136494766Y-127791165D01*
X135839706Y-127791165D01*
X135839706Y-125044898D01*
X136494766Y-125044898D01*
X136494766Y-127162484D01*
X138207885Y-127162484D01*
X138270391Y-127161298D01*
X138331752Y-127157758D01*
X138391912Y-127151887D01*
X138450816Y-127143708D01*
X138564638Y-127120521D01*
X138672778Y-127088387D01*
X138774796Y-127047494D01*
X138870252Y-126998032D01*
X138958705Y-126940189D01*
X139039715Y-126874155D01*
X139112843Y-126800118D01*
X139177648Y-126718267D01*
X139233691Y-126628791D01*
X139280531Y-126531879D01*
X139317728Y-126427720D01*
X139344842Y-126316503D01*
X139354481Y-126258306D01*
X139361433Y-126198416D01*
X139365645Y-126136856D01*
X139367062Y-126073649D01*
X139365645Y-126011388D01*
X139361433Y-125951006D01*
X139344842Y-125835902D01*
X139317728Y-125728388D01*
X139280531Y-125628517D01*
X139233691Y-125536339D01*
X139177648Y-125451906D01*
X139112843Y-125375270D01*
X139039715Y-125306482D01*
X138958705Y-125245594D01*
X138870252Y-125192658D01*
X138774796Y-125147724D01*
X138672778Y-125110844D01*
X138564638Y-125082070D01*
X138450816Y-125061453D01*
X138391912Y-125054220D01*
X138331752Y-125049046D01*
X138270391Y-125045936D01*
X138207885Y-125044898D01*
X136494766Y-125044898D01*
X135839706Y-125044898D01*
X135839706Y-124743014D01*
X135845814Y-124673371D01*
X135863566Y-124610116D01*
X135892102Y-124554142D01*
X135930565Y-124506343D01*
X135978095Y-124467611D01*
X136033834Y-124438840D01*
X136096923Y-124420923D01*
X136166503Y-124414752D01*
X138207885Y-124414752D01*
X138301750Y-124416761D01*
G37*
G36*
X144719803Y-124360287D02*
G01*
X144896302Y-124372634D01*
X145069456Y-124393006D01*
X145239099Y-124421232D01*
X145405067Y-124457143D01*
X145567192Y-124500570D01*
X145725310Y-124551342D01*
X145879255Y-124609291D01*
X146028862Y-124674247D01*
X146173965Y-124746040D01*
X146314398Y-124824500D01*
X146449996Y-124909458D01*
X146580594Y-125000745D01*
X146706025Y-125098190D01*
X146826125Y-125201625D01*
X146940727Y-125310879D01*
X147049666Y-125425783D01*
X147152777Y-125546168D01*
X147249894Y-125671863D01*
X147340851Y-125802700D01*
X147425483Y-125938508D01*
X147503625Y-126079119D01*
X147575110Y-126224362D01*
X147639773Y-126374068D01*
X147697449Y-126528067D01*
X147747972Y-126686190D01*
X147791176Y-126848267D01*
X147826896Y-127014129D01*
X147854967Y-127183606D01*
X147875222Y-127356528D01*
X147887497Y-127532726D01*
X147891625Y-127712030D01*
X147887497Y-127891996D01*
X147875222Y-128068806D01*
X147854967Y-128242292D01*
X147826896Y-128412287D01*
X147791176Y-128578623D01*
X147747972Y-128741132D01*
X147697449Y-128899647D01*
X147639773Y-129054000D01*
X147575110Y-129204023D01*
X147503625Y-129349548D01*
X147425483Y-129490408D01*
X147340851Y-129626435D01*
X147249894Y-129757462D01*
X147152777Y-129883320D01*
X147049666Y-130003842D01*
X146940727Y-130118860D01*
X146826125Y-130228207D01*
X146706025Y-130331715D01*
X146580594Y-130429215D01*
X146449996Y-130520541D01*
X146314398Y-130605525D01*
X146173965Y-130683999D01*
X146028862Y-130755795D01*
X145879255Y-130820746D01*
X145725310Y-130878683D01*
X145567192Y-130929439D01*
X145405067Y-130972847D01*
X145239099Y-131008739D01*
X145069456Y-131036947D01*
X144896302Y-131057303D01*
X144719803Y-131069639D01*
X144540125Y-131073789D01*
X144359802Y-131069639D01*
X144182740Y-131057303D01*
X144009101Y-131036947D01*
X143839047Y-131008739D01*
X143672738Y-130972847D01*
X143510337Y-130929439D01*
X143352005Y-130878683D01*
X143197904Y-130820746D01*
X143048194Y-130755795D01*
X142903039Y-130683999D01*
X142762598Y-130605525D01*
X142627034Y-130520541D01*
X142496508Y-130429215D01*
X142371182Y-130331715D01*
X142251217Y-130228207D01*
X142136775Y-130118860D01*
X142028018Y-130003842D01*
X141925106Y-129883320D01*
X141828202Y-129757462D01*
X141737467Y-129626435D01*
X141653062Y-129490408D01*
X141575150Y-129349548D01*
X141503891Y-129204023D01*
X141439447Y-129054000D01*
X141381980Y-128899647D01*
X141331651Y-128741132D01*
X141288621Y-128578623D01*
X141253053Y-128412287D01*
X141225108Y-128242292D01*
X141204947Y-128068806D01*
X141192732Y-127891996D01*
X141188625Y-127712030D01*
X141827564Y-127712030D01*
X141830912Y-127857077D01*
X141840865Y-127999762D01*
X141857288Y-128139937D01*
X141880046Y-128277456D01*
X141909003Y-128412171D01*
X141944025Y-128543936D01*
X141984976Y-128672603D01*
X142031721Y-128798025D01*
X142084124Y-128920056D01*
X142142051Y-129038548D01*
X142205365Y-129153354D01*
X142273933Y-129264327D01*
X142347618Y-129371320D01*
X142426286Y-129474187D01*
X142509801Y-129572779D01*
X142598028Y-129666950D01*
X142690832Y-129756553D01*
X142788077Y-129841441D01*
X142889628Y-129921467D01*
X142995350Y-129996483D01*
X143105108Y-130066343D01*
X143218767Y-130130900D01*
X143336190Y-130190007D01*
X143457244Y-130243516D01*
X143581792Y-130291280D01*
X143709700Y-130333153D01*
X143840833Y-130368988D01*
X143975054Y-130398637D01*
X144112229Y-130421953D01*
X144252223Y-130438789D01*
X144394900Y-130448999D01*
X144540125Y-130452435D01*
X144684685Y-130448999D01*
X144826738Y-130438789D01*
X144966147Y-130421953D01*
X145102778Y-130398637D01*
X145236492Y-130368988D01*
X145367153Y-130333153D01*
X145494624Y-130291280D01*
X145618770Y-130243516D01*
X145739453Y-130190007D01*
X145856537Y-130130900D01*
X145969886Y-130066343D01*
X146079362Y-129996483D01*
X146184829Y-129921467D01*
X146286150Y-129841441D01*
X146383190Y-129756553D01*
X146475811Y-129666950D01*
X146563876Y-129572779D01*
X146647250Y-129474187D01*
X146725796Y-129371320D01*
X146799376Y-129264327D01*
X146867855Y-129153354D01*
X146931096Y-129038548D01*
X146988962Y-128920056D01*
X147041317Y-128798025D01*
X147088024Y-128672603D01*
X147128946Y-128543936D01*
X147163948Y-128412171D01*
X147192892Y-128277456D01*
X147215641Y-128139937D01*
X147232060Y-127999762D01*
X147242011Y-127857077D01*
X147245359Y-127712030D01*
X147242011Y-127567645D01*
X147232060Y-127425572D01*
X147215641Y-127285960D01*
X147192892Y-127148960D01*
X147163948Y-127014719D01*
X147128946Y-126883386D01*
X147088024Y-126755111D01*
X147041317Y-126630042D01*
X146988962Y-126508328D01*
X146931096Y-126390119D01*
X146867855Y-126275562D01*
X146799376Y-126164808D01*
X146725796Y-126058005D01*
X146647250Y-125955301D01*
X146563876Y-125856846D01*
X146475811Y-125762789D01*
X146383190Y-125673279D01*
X146286150Y-125588464D01*
X146184829Y-125508493D01*
X146079362Y-125433516D01*
X145969886Y-125363682D01*
X145856537Y-125299138D01*
X145739453Y-125240035D01*
X145618770Y-125186521D01*
X145494624Y-125138745D01*
X145367153Y-125096856D01*
X145236492Y-125061003D01*
X145102778Y-125031334D01*
X144966147Y-125008000D01*
X144826738Y-124991148D01*
X144684685Y-124980927D01*
X144540125Y-124977487D01*
X144394900Y-124980927D01*
X144252223Y-124991148D01*
X144112229Y-125008000D01*
X143975054Y-125031334D01*
X143840833Y-125061003D01*
X143709700Y-125096856D01*
X143581792Y-125138745D01*
X143457244Y-125186521D01*
X143336190Y-125240035D01*
X143218767Y-125299138D01*
X143105108Y-125363682D01*
X142995350Y-125433516D01*
X142889628Y-125508493D01*
X142788077Y-125588464D01*
X142690832Y-125673279D01*
X142598028Y-125762789D01*
X142509801Y-125856846D01*
X142426286Y-125955301D01*
X142347618Y-126058005D01*
X142273933Y-126164808D01*
X142205365Y-126275562D01*
X142142051Y-126390119D01*
X142084124Y-126508328D01*
X142031721Y-126630042D01*
X141984976Y-126755111D01*
X141944025Y-126883386D01*
X141909003Y-127014719D01*
X141880046Y-127148960D01*
X141857288Y-127285960D01*
X141840865Y-127425572D01*
X141830912Y-127567645D01*
X141827564Y-127712030D01*
X141188625Y-127712030D01*
X141192732Y-127532726D01*
X141204947Y-127356528D01*
X141225108Y-127183606D01*
X141253053Y-127014129D01*
X141288621Y-126848267D01*
X141331651Y-126686190D01*
X141381980Y-126528067D01*
X141439447Y-126374068D01*
X141503891Y-126224362D01*
X141575150Y-126079119D01*
X141653062Y-125938508D01*
X141737467Y-125802700D01*
X141828202Y-125671863D01*
X141925106Y-125546168D01*
X142028018Y-125425783D01*
X142136775Y-125310879D01*
X142251217Y-125201625D01*
X142371182Y-125098190D01*
X142496508Y-125000745D01*
X142627034Y-124909458D01*
X142762598Y-124824500D01*
X142903039Y-124746040D01*
X143048194Y-124674247D01*
X143197904Y-124609291D01*
X143352005Y-124551342D01*
X143510337Y-124500570D01*
X143672738Y-124457143D01*
X143839047Y-124421232D01*
X144009101Y-124393006D01*
X144182740Y-124372634D01*
X144359802Y-124360287D01*
X144540125Y-124356133D01*
X144719803Y-124360287D01*
G37*
G36*
X152969434Y-124414752D02*
G01*
X148323935Y-124414752D01*
X148259990Y-124420513D01*
X148201730Y-124437214D01*
X148138232Y-124472140D01*
X148086695Y-124521079D01*
X148048830Y-124582322D01*
X148029531Y-124639024D01*
X148020953Y-124701630D01*
X148020586Y-124718101D01*
X148026347Y-124779144D01*
X148048830Y-124848353D01*
X148086695Y-124907896D01*
X148138232Y-124955859D01*
X148201730Y-124990333D01*
X148259990Y-125006914D01*
X148323935Y-125012658D01*
X150314026Y-125012658D01*
X150314026Y-130653203D01*
X150320918Y-130720259D01*
X150340587Y-130782163D01*
X150371522Y-130837747D01*
X150412212Y-130885844D01*
X150461144Y-130925285D01*
X150516809Y-130954904D01*
X150577694Y-130973531D01*
X150642288Y-130980000D01*
X150709407Y-130973531D01*
X150771478Y-130954904D01*
X150827297Y-130925285D01*
X150875662Y-130885844D01*
X150915373Y-130837747D01*
X150945226Y-130782163D01*
X150964019Y-130720259D01*
X150970551Y-130653203D01*
X150970551Y-125012658D01*
X152969434Y-125012658D01*
X153032895Y-125006914D01*
X153090792Y-124990333D01*
X153153979Y-124955859D01*
X153205331Y-124907896D01*
X153243106Y-124848353D01*
X153265560Y-124779144D01*
X153271318Y-124718101D01*
X153265560Y-124654157D01*
X153248879Y-124595896D01*
X153214028Y-124532398D01*
X153165252Y-124480862D01*
X153104293Y-124442996D01*
X153047926Y-124423697D01*
X152985772Y-124415119D01*
X152969434Y-124414752D01*
G37*
G36*
X158467829Y-124414752D02*
G01*
X153822330Y-124414752D01*
X153758385Y-124420513D01*
X153700125Y-124437214D01*
X153636627Y-124472140D01*
X153585090Y-124521079D01*
X153547225Y-124582322D01*
X153527926Y-124639024D01*
X153519348Y-124701630D01*
X153518981Y-124718101D01*
X153524742Y-124779144D01*
X153547225Y-124848353D01*
X153585090Y-124907896D01*
X153636627Y-124955859D01*
X153700125Y-124990333D01*
X153758385Y-125006914D01*
X153822330Y-125012658D01*
X155812421Y-125012658D01*
X155812421Y-130653203D01*
X155819313Y-130720259D01*
X155838982Y-130782163D01*
X155869917Y-130837747D01*
X155910607Y-130885844D01*
X155959539Y-130925285D01*
X156015204Y-130954904D01*
X156076089Y-130973531D01*
X156140683Y-130980000D01*
X156207802Y-130973531D01*
X156269873Y-130954904D01*
X156325692Y-130925285D01*
X156374057Y-130885844D01*
X156413768Y-130837747D01*
X156443621Y-130782163D01*
X156462414Y-130720259D01*
X156468946Y-130653203D01*
X156468946Y-125012658D01*
X158467829Y-125012658D01*
X158531290Y-125006914D01*
X158589187Y-124990333D01*
X158652374Y-124955859D01*
X158703726Y-124907896D01*
X158741501Y-124848353D01*
X158763955Y-124779144D01*
X158769713Y-124718101D01*
X158763955Y-124654157D01*
X158747274Y-124595896D01*
X158712423Y-124532398D01*
X158663647Y-124480862D01*
X158602688Y-124442996D01*
X158546321Y-124423697D01*
X158484167Y-124415119D01*
X158467829Y-124414752D01*
G37*
G36*
X162522176Y-124360287D02*
G01*
X162698675Y-124372634D01*
X162871829Y-124393006D01*
X163041472Y-124421232D01*
X163207439Y-124457143D01*
X163369565Y-124500570D01*
X163527683Y-124551342D01*
X163681628Y-124609291D01*
X163831235Y-124674247D01*
X163976338Y-124746040D01*
X164116771Y-124824500D01*
X164252369Y-124909458D01*
X164382967Y-125000745D01*
X164508398Y-125098190D01*
X164628497Y-125201625D01*
X164743100Y-125310879D01*
X164852039Y-125425783D01*
X164955150Y-125546168D01*
X165052267Y-125671863D01*
X165143224Y-125802700D01*
X165227856Y-125938508D01*
X165305997Y-126079119D01*
X165377482Y-126224362D01*
X165442146Y-126374068D01*
X165499821Y-126528067D01*
X165550344Y-126686190D01*
X165593549Y-126848267D01*
X165629269Y-127014129D01*
X165657340Y-127183606D01*
X165677595Y-127356528D01*
X165689870Y-127532726D01*
X165693998Y-127712030D01*
X165689870Y-127891996D01*
X165677595Y-128068806D01*
X165657340Y-128242292D01*
X165629269Y-128412287D01*
X165593549Y-128578623D01*
X165550344Y-128741132D01*
X165499821Y-128899647D01*
X165442146Y-129054000D01*
X165377482Y-129204023D01*
X165305997Y-129349548D01*
X165227856Y-129490408D01*
X165143224Y-129626435D01*
X165052267Y-129757462D01*
X164955150Y-129883320D01*
X164852039Y-130003842D01*
X164743100Y-130118860D01*
X164628497Y-130228207D01*
X164508398Y-130331715D01*
X164382967Y-130429215D01*
X164252369Y-130520541D01*
X164116771Y-130605525D01*
X163976338Y-130683999D01*
X163831235Y-130755795D01*
X163681628Y-130820746D01*
X163527683Y-130878683D01*
X163369565Y-130929439D01*
X163207439Y-130972847D01*
X163041472Y-131008739D01*
X162871829Y-131036947D01*
X162698675Y-131057303D01*
X162522176Y-131069639D01*
X162342498Y-131073789D01*
X162162175Y-131069639D01*
X161985113Y-131057303D01*
X161811474Y-131036947D01*
X161641420Y-131008739D01*
X161475111Y-130972847D01*
X161312710Y-130929439D01*
X161154378Y-130878683D01*
X161000276Y-130820746D01*
X160850567Y-130755795D01*
X160705411Y-130683999D01*
X160564970Y-130605525D01*
X160429407Y-130520541D01*
X160298881Y-130429215D01*
X160173555Y-130331715D01*
X160053590Y-130228207D01*
X159939148Y-130118860D01*
X159830391Y-130003842D01*
X159727479Y-129883320D01*
X159630575Y-129757462D01*
X159539840Y-129626435D01*
X159455435Y-129490408D01*
X159377522Y-129349548D01*
X159306263Y-129204023D01*
X159241820Y-129054000D01*
X159184352Y-128899647D01*
X159134023Y-128741132D01*
X159090994Y-128578623D01*
X159055426Y-128412287D01*
X159027481Y-128242292D01*
X159007320Y-128068806D01*
X158995105Y-127891996D01*
X158990997Y-127712030D01*
X159629937Y-127712030D01*
X159633284Y-127857077D01*
X159643237Y-127999762D01*
X159659661Y-128139937D01*
X159682418Y-128277456D01*
X159711376Y-128412171D01*
X159746398Y-128543936D01*
X159787348Y-128672603D01*
X159834093Y-128798025D01*
X159886497Y-128920056D01*
X159944423Y-129038548D01*
X160007738Y-129153354D01*
X160076306Y-129264327D01*
X160149991Y-129371320D01*
X160228659Y-129474187D01*
X160312174Y-129572779D01*
X160400401Y-129666950D01*
X160493204Y-129756553D01*
X160590449Y-129841441D01*
X160692001Y-129921467D01*
X160797723Y-129996483D01*
X160907481Y-130066343D01*
X161021139Y-130130900D01*
X161138563Y-130190007D01*
X161259617Y-130243516D01*
X161384165Y-130291280D01*
X161512073Y-130333153D01*
X161643205Y-130368988D01*
X161777427Y-130398637D01*
X161914602Y-130421953D01*
X162054596Y-130438789D01*
X162197273Y-130448999D01*
X162342498Y-130452435D01*
X162487057Y-130448999D01*
X162629110Y-130438789D01*
X162768520Y-130421953D01*
X162905150Y-130398637D01*
X163038864Y-130368988D01*
X163169525Y-130333153D01*
X163296997Y-130291280D01*
X163421143Y-130243516D01*
X163541826Y-130190007D01*
X163658910Y-130130900D01*
X163772258Y-130066343D01*
X163881734Y-129996483D01*
X163987201Y-129921467D01*
X164088523Y-129841441D01*
X164185562Y-129756553D01*
X164278183Y-129666950D01*
X164366249Y-129572779D01*
X164449623Y-129474187D01*
X164528168Y-129371320D01*
X164601749Y-129264327D01*
X164670228Y-129153354D01*
X164733469Y-129038548D01*
X164791335Y-128920056D01*
X164843690Y-128798025D01*
X164890396Y-128672603D01*
X164931319Y-128543936D01*
X164966320Y-128412171D01*
X164995264Y-128277456D01*
X165018014Y-128139937D01*
X165034433Y-127999762D01*
X165044384Y-127857077D01*
X165047732Y-127712030D01*
X165044384Y-127567645D01*
X165034433Y-127425572D01*
X165018014Y-127285960D01*
X164995264Y-127148960D01*
X164966320Y-127014719D01*
X164931319Y-126883386D01*
X164890396Y-126755111D01*
X164843690Y-126630042D01*
X164791335Y-126508328D01*
X164733469Y-126390119D01*
X164670228Y-126275562D01*
X164601749Y-126164808D01*
X164528168Y-126058005D01*
X164449623Y-125955301D01*
X164366249Y-125856846D01*
X164278183Y-125762789D01*
X164185562Y-125673279D01*
X164088523Y-125588464D01*
X163987201Y-125508493D01*
X163881734Y-125433516D01*
X163772258Y-125363682D01*
X163658910Y-125299138D01*
X163541826Y-125240035D01*
X163421143Y-125186521D01*
X163296997Y-125138745D01*
X163169525Y-125096856D01*
X163038864Y-125061003D01*
X162905150Y-125031334D01*
X162768520Y-125008000D01*
X162629110Y-124991148D01*
X162487057Y-124980927D01*
X162342498Y-124977487D01*
X162197273Y-124980927D01*
X162054596Y-124991148D01*
X161914602Y-125008000D01*
X161777427Y-125031334D01*
X161643205Y-125061003D01*
X161512073Y-125096856D01*
X161384165Y-125138745D01*
X161259617Y-125186521D01*
X161138563Y-125240035D01*
X161021139Y-125299138D01*
X160907481Y-125363682D01*
X160797723Y-125433516D01*
X160692001Y-125508493D01*
X160590449Y-125588464D01*
X160493204Y-125673279D01*
X160400401Y-125762789D01*
X160312174Y-125856846D01*
X160228659Y-125955301D01*
X160149991Y-126058005D01*
X160076306Y-126164808D01*
X160007738Y-126275562D01*
X159944423Y-126390119D01*
X159886497Y-126508328D01*
X159834093Y-126630042D01*
X159787348Y-126755111D01*
X159746398Y-126883386D01*
X159711376Y-127014719D01*
X159682418Y-127148960D01*
X159659661Y-127285960D01*
X159643237Y-127425572D01*
X159633284Y-127567645D01*
X159629937Y-127712030D01*
X158990997Y-127712030D01*
X158995105Y-127532726D01*
X159007320Y-127356528D01*
X159027481Y-127183606D01*
X159055426Y-127014129D01*
X159090994Y-126848267D01*
X159134023Y-126686190D01*
X159184352Y-126528067D01*
X159241820Y-126374068D01*
X159306263Y-126224362D01*
X159377522Y-126079119D01*
X159455435Y-125938508D01*
X159539840Y-125802700D01*
X159630575Y-125671863D01*
X159727479Y-125546168D01*
X159830391Y-125425783D01*
X159939148Y-125310879D01*
X160053590Y-125201625D01*
X160173555Y-125098190D01*
X160298881Y-125000745D01*
X160429407Y-124909458D01*
X160564970Y-124824500D01*
X160705411Y-124746040D01*
X160850567Y-124674247D01*
X161000276Y-124609291D01*
X161154378Y-124551342D01*
X161312710Y-124500570D01*
X161475111Y-124457143D01*
X161641420Y-124421232D01*
X161811474Y-124393006D01*
X161985113Y-124372634D01*
X162162175Y-124360287D01*
X162342498Y-124356133D01*
X162522176Y-124360287D01*
G37*
G36*
X173283600Y-124414752D02*
G01*
X173215394Y-124421011D01*
X173152791Y-124439481D01*
X173096138Y-124469698D01*
X173045784Y-124511197D01*
X173002076Y-124563516D01*
X172989043Y-124583279D01*
X170351221Y-129929267D01*
X167663572Y-124583279D01*
X167622910Y-124527457D01*
X167576298Y-124482300D01*
X167523039Y-124448271D01*
X167462438Y-124425834D01*
X167393801Y-124415453D01*
X167369016Y-124414752D01*
X167301959Y-124421283D01*
X167240055Y-124440077D01*
X167184471Y-124469930D01*
X167136374Y-124509640D01*
X167096933Y-124558006D01*
X167067315Y-124613825D01*
X167048687Y-124675895D01*
X167042219Y-124743014D01*
X167042219Y-130653203D01*
X167048687Y-130720259D01*
X167067315Y-130782163D01*
X167096933Y-130837747D01*
X167136374Y-130885844D01*
X167184471Y-130925285D01*
X167240055Y-130954904D01*
X167301959Y-130973531D01*
X167369016Y-130980000D01*
X167436135Y-130973531D01*
X167498205Y-130954904D01*
X167554024Y-130925285D01*
X167602390Y-130885844D01*
X167642100Y-130837747D01*
X167671953Y-130782163D01*
X167690746Y-130720259D01*
X167697278Y-130653203D01*
X167697278Y-125971067D01*
X170024424Y-130628290D01*
X170055008Y-130685965D01*
X170091784Y-130733947D01*
X170144042Y-130778682D01*
X170205109Y-130809353D01*
X170262686Y-130824126D01*
X170326308Y-130829057D01*
X170393703Y-130823735D01*
X170454335Y-130807496D01*
X170508553Y-130779936D01*
X170556705Y-130740649D01*
X170599138Y-130689229D01*
X170612072Y-130669323D01*
X172948011Y-125894863D01*
X172948011Y-130653203D01*
X172954857Y-130720259D01*
X172974480Y-130782163D01*
X173005507Y-130837747D01*
X173046563Y-130885844D01*
X173096274Y-130925285D01*
X173153266Y-130954904D01*
X173216166Y-130973531D01*
X173283600Y-130980000D01*
X173347817Y-130973531D01*
X173407706Y-130954904D01*
X173461962Y-130925285D01*
X173509281Y-130885844D01*
X173548356Y-130837747D01*
X173577882Y-130782163D01*
X173596556Y-130720259D01*
X173603070Y-130653203D01*
X173603070Y-124743014D01*
X173596916Y-124675895D01*
X173579119Y-124613825D01*
X173550674Y-124558006D01*
X173512578Y-124509640D01*
X173465826Y-124469930D01*
X173411416Y-124440077D01*
X173350342Y-124421283D01*
X173283600Y-124414752D01*
G37*
D11*
G36*
X77808702Y-171398328D02*
G01*
X77867398Y-171399595D01*
X77925738Y-171401706D01*
X77983723Y-171404661D01*
X78041353Y-171408460D01*
X78098627Y-171413104D01*
X78155546Y-171418593D01*
X78212109Y-171424925D01*
X78268317Y-171432102D01*
X78324170Y-171440124D01*
X78379667Y-171448989D01*
X78434809Y-171458700D01*
X78489595Y-171469254D01*
X78544027Y-171480653D01*
X78598102Y-171492896D01*
X78651823Y-171505983D01*
X78705188Y-171519915D01*
X78758197Y-171534692D01*
X78810851Y-171550312D01*
X78863150Y-171566777D01*
X78915093Y-171584086D01*
X78966681Y-171602240D01*
X79017914Y-171621238D01*
X79068791Y-171641080D01*
X79119313Y-171661767D01*
X79169479Y-171683298D01*
X79219290Y-171705673D01*
X79268746Y-171728893D01*
X79317846Y-171752957D01*
X79366591Y-171777866D01*
X79414980Y-171803619D01*
X79463014Y-171830216D01*
X79510547Y-171857580D01*
X79557434Y-171885633D01*
X79603674Y-171914376D01*
X79649268Y-171943808D01*
X79694216Y-171973929D01*
X79738517Y-172004740D01*
X79782172Y-172036240D01*
X79825181Y-172068429D01*
X79867543Y-172101308D01*
X79909258Y-172134875D01*
X79950328Y-172169133D01*
X79990750Y-172204079D01*
X80030527Y-172239715D01*
X80069657Y-172276040D01*
X80108141Y-172313055D01*
X80145978Y-172350758D01*
X80183169Y-172389152D01*
X80219714Y-172428234D01*
X80255612Y-172468006D01*
X80290864Y-172508467D01*
X80325469Y-172549617D01*
X80359428Y-172591457D01*
X80392741Y-172633986D01*
X80425407Y-172677204D01*
X80457427Y-172721112D01*
X80488801Y-172765709D01*
X80519528Y-172810995D01*
X80549609Y-172856971D01*
X80579043Y-172903636D01*
X80607831Y-172950990D01*
X80635973Y-172999034D01*
X80663468Y-173047766D01*
X80690215Y-173096950D01*
X80716114Y-173146499D01*
X80741163Y-173196412D01*
X80765363Y-173246691D01*
X80788714Y-173297334D01*
X80811216Y-173348343D01*
X80832868Y-173399716D01*
X80853672Y-173451454D01*
X80873626Y-173503557D01*
X80892732Y-173556025D01*
X80910988Y-173608858D01*
X80928395Y-173662056D01*
X80944953Y-173715619D01*
X80960662Y-173769547D01*
X80975521Y-173823840D01*
X80989532Y-173878497D01*
X81002693Y-173933520D01*
X81015006Y-173988908D01*
X81026469Y-174044660D01*
X81037083Y-174100777D01*
X81046848Y-174157260D01*
X81055764Y-174214107D01*
X81063830Y-174271319D01*
X81071048Y-174328896D01*
X81077416Y-174386839D01*
X81082936Y-174445146D01*
X81087606Y-174503818D01*
X81091427Y-174562854D01*
X81094399Y-174622256D01*
X81096522Y-174682023D01*
X81097795Y-174742155D01*
X81098220Y-174802651D01*
X81097884Y-174852393D01*
X81096875Y-174901784D01*
X81092839Y-174999515D01*
X81086113Y-175095843D01*
X81076696Y-175190768D01*
X81064589Y-175284291D01*
X81049791Y-175376412D01*
X81032303Y-175467130D01*
X81012124Y-175556446D01*
X80989255Y-175644359D01*
X80963696Y-175730870D01*
X80935446Y-175815978D01*
X80904505Y-175899683D01*
X80870874Y-175981986D01*
X80834552Y-176062887D01*
X80795540Y-176142385D01*
X80753838Y-176220481D01*
X80709578Y-176296735D01*
X80663201Y-176370709D01*
X80614705Y-176442403D01*
X80564091Y-176511817D01*
X80511360Y-176578950D01*
X80456510Y-176643803D01*
X80399542Y-176706376D01*
X80340457Y-176766669D01*
X80279253Y-176824682D01*
X80215931Y-176880414D01*
X80150491Y-176933866D01*
X80082933Y-176985037D01*
X80013257Y-177033929D01*
X79941463Y-177080540D01*
X79867551Y-177124871D01*
X79791521Y-177166922D01*
X79752787Y-177187058D01*
X79674180Y-177225412D01*
X79594057Y-177261208D01*
X79512417Y-177294448D01*
X79429260Y-177325131D01*
X79344586Y-177353257D01*
X79258395Y-177378827D01*
X79170687Y-177401839D01*
X79081462Y-177422294D01*
X78990720Y-177440193D01*
X78898461Y-177455534D01*
X78804685Y-177468319D01*
X78709393Y-177478546D01*
X78612583Y-177486217D01*
X78563609Y-177489094D01*
X78514256Y-177491331D01*
X78464524Y-177492929D01*
X78414412Y-177493888D01*
X78363921Y-177494207D01*
X78291526Y-177493664D01*
X78219360Y-177492032D01*
X78147423Y-177489313D01*
X78075715Y-177485506D01*
X78004236Y-177480612D01*
X77932985Y-177474630D01*
X77861964Y-177467560D01*
X77791172Y-177459403D01*
X77720609Y-177450158D01*
X77650274Y-177439825D01*
X77580169Y-177428405D01*
X77510293Y-177415897D01*
X77440645Y-177402302D01*
X77371227Y-177387618D01*
X77302037Y-177371848D01*
X77233077Y-177354989D01*
X77163983Y-177336866D01*
X77094698Y-177317303D01*
X77025222Y-177296299D01*
X76955556Y-177273855D01*
X76885699Y-177249969D01*
X76815651Y-177224643D01*
X76745412Y-177197877D01*
X76674982Y-177169670D01*
X76604362Y-177140022D01*
X76533550Y-177108933D01*
X76462548Y-177076404D01*
X76391355Y-177042435D01*
X76319971Y-177007024D01*
X76248397Y-176970173D01*
X76176631Y-176931881D01*
X76104675Y-176892149D01*
X76317166Y-176478157D01*
X76380513Y-176510239D01*
X76443853Y-176541303D01*
X76507186Y-176571348D01*
X76570511Y-176600374D01*
X76633829Y-176628382D01*
X76697140Y-176655372D01*
X76760444Y-176681343D01*
X76823741Y-176706295D01*
X76887031Y-176730229D01*
X76950313Y-176753145D01*
X77013589Y-176775042D01*
X77076857Y-176795921D01*
X77140118Y-176815781D01*
X77203372Y-176834623D01*
X77266619Y-176852446D01*
X77329858Y-176869251D01*
X77393091Y-176885037D01*
X77456316Y-176899805D01*
X77519534Y-176913555D01*
X77582745Y-176926286D01*
X77645949Y-176937998D01*
X77709145Y-176948692D01*
X77772335Y-176958368D01*
X77835517Y-176967025D01*
X77898692Y-176974663D01*
X77961860Y-176981283D01*
X78025021Y-176986885D01*
X78088175Y-176991468D01*
X78151322Y-176995033D01*
X78214461Y-176997579D01*
X78277593Y-176999106D01*
X78340718Y-176999616D01*
X78423246Y-176998604D01*
X78504437Y-176995570D01*
X78584293Y-176990514D01*
X78662814Y-176983435D01*
X78739998Y-176974333D01*
X78815847Y-176963208D01*
X78890360Y-176950061D01*
X78963538Y-176934891D01*
X79035379Y-176917699D01*
X79105885Y-176898484D01*
X79175056Y-176877246D01*
X79242890Y-176853986D01*
X79309389Y-176828703D01*
X79374552Y-176801397D01*
X79438380Y-176772069D01*
X79500872Y-176740718D01*
X79561832Y-176707392D01*
X79621066Y-176672139D01*
X79678573Y-176634959D01*
X79734353Y-176595852D01*
X79788406Y-176554817D01*
X79840732Y-176511855D01*
X79891331Y-176466966D01*
X79940204Y-176420150D01*
X79987349Y-176371406D01*
X80032768Y-176320735D01*
X80076460Y-176268137D01*
X80118425Y-176213612D01*
X80158663Y-176157159D01*
X80197174Y-176098779D01*
X80233958Y-176038472D01*
X80269016Y-175976238D01*
X80301993Y-175912406D01*
X80332843Y-175847305D01*
X80361565Y-175780935D01*
X80388160Y-175713295D01*
X80412627Y-175644388D01*
X80434967Y-175574211D01*
X80455179Y-175502765D01*
X80473264Y-175430050D01*
X80489221Y-175356066D01*
X80503050Y-175280814D01*
X80514752Y-175204292D01*
X80524326Y-175126502D01*
X80531772Y-175047443D01*
X80537091Y-174967114D01*
X80540283Y-174885517D01*
X80541346Y-174802651D01*
X80540996Y-174750146D01*
X80539944Y-174697961D01*
X80538191Y-174646095D01*
X80535736Y-174594549D01*
X80532581Y-174543322D01*
X80528724Y-174492415D01*
X80524166Y-174441828D01*
X80518907Y-174391560D01*
X80512946Y-174341612D01*
X80506284Y-174291983D01*
X80498921Y-174242674D01*
X80490857Y-174193685D01*
X80482091Y-174145015D01*
X80472624Y-174096665D01*
X80462456Y-174048635D01*
X80451587Y-174000924D01*
X80427745Y-173906461D01*
X80401098Y-173813277D01*
X80371645Y-173721371D01*
X80339388Y-173630744D01*
X80304326Y-173541395D01*
X80266459Y-173453324D01*
X80225786Y-173366532D01*
X80182309Y-173281018D01*
X80136380Y-173197394D01*
X80088352Y-173116269D01*
X80038225Y-173037644D01*
X79985999Y-172961518D01*
X79931674Y-172887892D01*
X79875250Y-172816766D01*
X79816727Y-172748140D01*
X79756106Y-172682013D01*
X79693385Y-172618386D01*
X79628565Y-172557258D01*
X79561646Y-172498630D01*
X79492629Y-172442502D01*
X79421512Y-172388874D01*
X79348296Y-172337745D01*
X79272982Y-172289116D01*
X79195568Y-172242986D01*
X79116189Y-172199361D01*
X79035284Y-172158551D01*
X78952852Y-172120555D01*
X78868893Y-172085373D01*
X78783408Y-172053006D01*
X78696397Y-172023454D01*
X78607859Y-171996716D01*
X78517794Y-171972793D01*
X78426203Y-171951684D01*
X78333086Y-171933389D01*
X78238442Y-171917910D01*
X78142271Y-171905244D01*
X78093613Y-171899967D01*
X78044574Y-171895393D01*
X77995153Y-171891523D01*
X77945350Y-171888357D01*
X77895166Y-171885894D01*
X77844600Y-171884135D01*
X77793652Y-171883080D01*
X77742323Y-171882728D01*
X77660979Y-171883716D01*
X77580894Y-171886678D01*
X77502068Y-171891615D01*
X77424502Y-171898528D01*
X77348195Y-171907415D01*
X77273148Y-171918277D01*
X77199360Y-171931114D01*
X77126831Y-171945926D01*
X77055562Y-171962713D01*
X76985552Y-171981475D01*
X76916802Y-172002211D01*
X76849310Y-172024923D01*
X76783079Y-172049610D01*
X76718106Y-172076271D01*
X76654393Y-172104908D01*
X76591939Y-172135519D01*
X76531022Y-172167948D01*
X76471917Y-172202037D01*
X76414625Y-172237787D01*
X76359146Y-172275196D01*
X76305479Y-172314265D01*
X76253625Y-172354994D01*
X76203584Y-172397384D01*
X76155355Y-172441434D01*
X76108940Y-172487143D01*
X76064337Y-172534513D01*
X76021547Y-172583543D01*
X75980569Y-172634233D01*
X75941404Y-172686583D01*
X75904052Y-172740593D01*
X75868513Y-172796263D01*
X75834787Y-172853593D01*
X75802992Y-172912298D01*
X75773249Y-172972089D01*
X75745557Y-173032969D01*
X75719916Y-173094936D01*
X75696327Y-173157991D01*
X75674789Y-173222133D01*
X75655302Y-173287363D01*
X75637866Y-173353681D01*
X75622481Y-173421086D01*
X75609148Y-173489579D01*
X75597866Y-173559159D01*
X75588636Y-173629828D01*
X75581456Y-173701584D01*
X75576328Y-173774427D01*
X75573251Y-173848358D01*
X75572226Y-173923377D01*
X75572798Y-173983660D01*
X75574515Y-174043304D01*
X75577378Y-174102309D01*
X75581385Y-174160674D01*
X75586537Y-174218400D01*
X75592834Y-174275487D01*
X75600275Y-174331935D01*
X75608862Y-174387744D01*
X75618594Y-174442913D01*
X75629470Y-174497443D01*
X75641491Y-174551334D01*
X75654658Y-174604586D01*
X75668969Y-174657198D01*
X75684425Y-174709171D01*
X75701026Y-174760505D01*
X75718771Y-174811200D01*
X75727958Y-174836229D01*
X75746953Y-174885335D01*
X75766779Y-174933172D01*
X75787435Y-174979740D01*
X75808921Y-175025040D01*
X75831236Y-175069070D01*
X75866266Y-175132737D01*
X75903164Y-175193548D01*
X75941929Y-175251505D01*
X75982562Y-175306606D01*
X76025062Y-175358852D01*
X76069430Y-175408244D01*
X76115666Y-175454780D01*
X76147055Y-175483912D01*
X76194496Y-175524087D01*
X76242367Y-175560033D01*
X76290667Y-175591750D01*
X76339396Y-175619238D01*
X76388555Y-175642497D01*
X76438143Y-175661527D01*
X76488160Y-175676329D01*
X76538607Y-175686901D01*
X76589483Y-175693244D01*
X76640788Y-175695359D01*
X76692308Y-175690856D01*
X76740622Y-175677346D01*
X76785731Y-175654830D01*
X76827634Y-175623307D01*
X76862896Y-175580488D01*
X76885486Y-175532879D01*
X76898710Y-175484536D01*
X76906266Y-175429238D01*
X76908234Y-175377843D01*
X76907738Y-175347132D01*
X76905133Y-175295805D01*
X76900296Y-175238167D01*
X76893226Y-175174218D01*
X76883924Y-175103957D01*
X76876482Y-175053611D01*
X76868048Y-175000459D01*
X76858622Y-174944503D01*
X76848204Y-174885742D01*
X76836793Y-174824175D01*
X76824390Y-174759804D01*
X76810995Y-174692628D01*
X76796607Y-174622646D01*
X76781228Y-174549860D01*
X76639241Y-173933147D01*
X77272156Y-173933147D01*
X77272961Y-173973329D01*
X77276539Y-174030812D01*
X77282979Y-174092760D01*
X77289687Y-174142151D01*
X77298005Y-174194054D01*
X77307934Y-174248468D01*
X77319472Y-174305394D01*
X77332620Y-174364832D01*
X77347379Y-174426781D01*
X77363747Y-174491242D01*
X77375348Y-174534757D01*
X77393896Y-174598921D01*
X77413817Y-174661754D01*
X77435112Y-174723256D01*
X77457780Y-174783427D01*
X77481823Y-174842267D01*
X77507240Y-174899776D01*
X77534030Y-174955954D01*
X77562194Y-175010802D01*
X77591732Y-175064318D01*
X77622644Y-175116503D01*
X77643892Y-175150196D01*
X77676442Y-175198858D01*
X77709808Y-175245265D01*
X77743991Y-175289418D01*
X77778988Y-175331318D01*
X77814802Y-175370963D01*
X77851431Y-175408354D01*
X77888876Y-175443492D01*
X77927137Y-175476375D01*
X77966213Y-175507004D01*
X78006106Y-175535380D01*
X78059744Y-175569440D01*
X78113801Y-175598959D01*
X78168279Y-175623937D01*
X78223176Y-175644373D01*
X78278494Y-175660268D01*
X78334231Y-175671622D01*
X78390387Y-175678434D01*
X78446964Y-175680704D01*
X78489172Y-175679817D01*
X78549908Y-175675159D01*
X78607554Y-175666508D01*
X78662108Y-175653864D01*
X78713570Y-175637227D01*
X78761942Y-175616598D01*
X78807222Y-175591975D01*
X78849411Y-175563360D01*
X78888509Y-175530753D01*
X78924516Y-175494152D01*
X78957431Y-175453558D01*
X78977543Y-175424364D01*
X79005278Y-175378139D01*
X79030094Y-175328995D01*
X79051990Y-175276931D01*
X79070966Y-175221948D01*
X79087023Y-175164045D01*
X79100161Y-175103223D01*
X79110379Y-175039481D01*
X79117678Y-174972820D01*
X79122057Y-174903239D01*
X79123517Y-174830739D01*
X79122963Y-174778623D01*
X79121303Y-174726688D01*
X79118536Y-174674934D01*
X79114663Y-174623362D01*
X79109683Y-174571971D01*
X79103596Y-174520761D01*
X79096402Y-174469732D01*
X79088101Y-174418885D01*
X79078694Y-174368219D01*
X79068180Y-174317734D01*
X79056560Y-174267430D01*
X79043832Y-174217308D01*
X79029998Y-174167367D01*
X79015058Y-174117607D01*
X78999010Y-174068029D01*
X78981856Y-174018632D01*
X78963552Y-173969874D01*
X78944361Y-173922518D01*
X78924282Y-173876565D01*
X78903316Y-173832015D01*
X78870204Y-173767819D01*
X78835095Y-173706778D01*
X78797990Y-173648894D01*
X78758889Y-173594164D01*
X78717791Y-173542591D01*
X78674697Y-173494173D01*
X78629606Y-173448910D01*
X78582519Y-173406803D01*
X78550204Y-173380628D01*
X78500767Y-173344532D01*
X78450170Y-173312236D01*
X78398413Y-173283739D01*
X78345498Y-173259041D01*
X78291424Y-173238143D01*
X78236190Y-173221045D01*
X78179797Y-173207747D01*
X78122245Y-173198248D01*
X78063534Y-173192548D01*
X78003663Y-173190648D01*
X77963826Y-173191459D01*
X77905805Y-173195717D01*
X77849866Y-173203624D01*
X77796010Y-173215180D01*
X77744236Y-173230386D01*
X77694544Y-173249241D01*
X77646935Y-173271745D01*
X77601408Y-173297898D01*
X77557963Y-173327701D01*
X77516600Y-173361153D01*
X77477320Y-173398255D01*
X77452476Y-173424530D01*
X77418215Y-173465732D01*
X77387561Y-173509080D01*
X77360513Y-173554575D01*
X77337071Y-173602217D01*
X77317236Y-173652005D01*
X77301007Y-173703940D01*
X77288385Y-173758022D01*
X77279369Y-173814250D01*
X77273959Y-173872625D01*
X77272156Y-173933147D01*
X76639241Y-173933147D01*
X76379448Y-172804745D01*
X76915561Y-172804745D01*
X77048674Y-173323761D01*
X77069434Y-173323761D01*
X77100742Y-173251447D01*
X77135437Y-173183798D01*
X77173519Y-173120815D01*
X77214988Y-173062497D01*
X77259843Y-173008845D01*
X77308086Y-172959858D01*
X77359716Y-172915537D01*
X77414733Y-172875881D01*
X77473136Y-172840890D01*
X77534927Y-172810565D01*
X77600104Y-172784905D01*
X77668669Y-172763910D01*
X77740620Y-172747581D01*
X77815959Y-172735918D01*
X77894684Y-172728920D01*
X77976796Y-172726587D01*
X78037337Y-172727684D01*
X78097143Y-172730976D01*
X78156215Y-172736462D01*
X78214552Y-172744142D01*
X78272154Y-172754017D01*
X78329021Y-172766086D01*
X78385154Y-172780349D01*
X78440553Y-172796807D01*
X78495216Y-172815459D01*
X78549145Y-172836306D01*
X78602340Y-172859346D01*
X78654799Y-172884582D01*
X78706524Y-172912011D01*
X78757515Y-172941635D01*
X78807771Y-172973454D01*
X78857292Y-173007466D01*
X78905778Y-173043406D01*
X78952928Y-173081006D01*
X78998743Y-173120266D01*
X79043222Y-173161187D01*
X79086365Y-173203767D01*
X79128172Y-173248007D01*
X79168644Y-173293908D01*
X79207780Y-173341468D01*
X79245581Y-173390689D01*
X79282045Y-173441570D01*
X79317174Y-173494111D01*
X79350968Y-173548312D01*
X79383425Y-173604173D01*
X79414547Y-173661694D01*
X79444333Y-173720875D01*
X79472784Y-173781716D01*
X79499550Y-173843659D01*
X79524590Y-173906146D01*
X79547903Y-173969177D01*
X79569489Y-174032752D01*
X79589348Y-174096871D01*
X79607480Y-174161533D01*
X79623885Y-174226739D01*
X79638564Y-174292489D01*
X79651515Y-174358783D01*
X79662740Y-174425620D01*
X79672238Y-174493002D01*
X79680009Y-174560927D01*
X79686053Y-174629396D01*
X79690370Y-174698409D01*
X79692960Y-174767966D01*
X79693824Y-174838066D01*
X79692664Y-174915447D01*
X79689187Y-174990661D01*
X79683391Y-175063710D01*
X79675276Y-175134593D01*
X79664844Y-175203310D01*
X79652092Y-175269861D01*
X79637023Y-175334247D01*
X79619635Y-175396467D01*
X79599928Y-175456521D01*
X79577904Y-175514409D01*
X79553561Y-175570132D01*
X79526899Y-175623689D01*
X79497919Y-175675080D01*
X79466621Y-175724305D01*
X79433004Y-175771365D01*
X79397069Y-175816259D01*
X79358882Y-175858553D01*
X79318815Y-175898119D01*
X79276870Y-175934955D01*
X79233044Y-175969064D01*
X79187339Y-176000443D01*
X79139755Y-176029094D01*
X79090291Y-176055016D01*
X79038948Y-176078210D01*
X78985725Y-176098674D01*
X78930622Y-176116411D01*
X78873640Y-176131418D01*
X78814778Y-176143697D01*
X78754037Y-176153247D01*
X78691417Y-176160069D01*
X78626917Y-176164162D01*
X78560537Y-176165526D01*
X78516330Y-176164630D01*
X78450252Y-176159921D01*
X78384453Y-176151177D01*
X78318933Y-176138397D01*
X78253692Y-176121582D01*
X78188731Y-176100730D01*
X78124048Y-176075843D01*
X78059645Y-176046921D01*
X77995520Y-176013962D01*
X77952926Y-175989748D01*
X77910455Y-175963740D01*
X77868108Y-175935938D01*
X77826473Y-175906581D01*
X77786134Y-175876213D01*
X77747094Y-175844834D01*
X77709351Y-175812443D01*
X77672905Y-175779041D01*
X77637757Y-175744627D01*
X77603906Y-175709202D01*
X77571353Y-175672766D01*
X77524957Y-175616216D01*
X77481480Y-175557390D01*
X77454117Y-175516909D01*
X77428051Y-175475416D01*
X77403284Y-175432912D01*
X77379813Y-175389397D01*
X77357641Y-175344870D01*
X77336880Y-175344870D01*
X77340590Y-175364319D01*
X77348700Y-175418282D01*
X77353667Y-175468003D01*
X77356647Y-175520062D01*
X77357641Y-175574459D01*
X77357475Y-175591742D01*
X77354988Y-175642160D01*
X77347032Y-175706045D01*
X77333770Y-175766113D01*
X77315204Y-175822365D01*
X77291333Y-175874801D01*
X77262157Y-175923421D01*
X77227677Y-175968224D01*
X77187892Y-176009211D01*
X77177140Y-176018828D01*
X77131268Y-176054243D01*
X77080816Y-176084774D01*
X77025785Y-176110419D01*
X76966175Y-176131180D01*
X76918462Y-176143545D01*
X76868172Y-176153162D01*
X76815307Y-176160031D01*
X76759866Y-176164153D01*
X76701849Y-176165526D01*
X76646222Y-176164386D01*
X76591081Y-176160966D01*
X76536427Y-176155265D01*
X76482259Y-176147284D01*
X76428578Y-176137023D01*
X76375384Y-176124482D01*
X76322676Y-176109661D01*
X76270455Y-176092559D01*
X76218720Y-176073177D01*
X76167472Y-176051515D01*
X76116711Y-176027572D01*
X76066436Y-176001349D01*
X76016647Y-175972846D01*
X75967346Y-175942063D01*
X75918530Y-175909000D01*
X75870202Y-175873656D01*
X75822770Y-175836290D01*
X75776645Y-175797159D01*
X75731828Y-175756262D01*
X75688317Y-175713601D01*
X75646114Y-175669174D01*
X75605217Y-175622983D01*
X75565628Y-175575026D01*
X75527346Y-175525305D01*
X75490371Y-175473818D01*
X75454703Y-175420567D01*
X75420342Y-175365550D01*
X75387288Y-175308768D01*
X75355541Y-175250222D01*
X75325101Y-175189910D01*
X75295969Y-175127833D01*
X75268143Y-175063991D01*
X75241672Y-174998685D01*
X75216910Y-174932520D01*
X75193854Y-174865496D01*
X75172507Y-174797614D01*
X75152867Y-174728873D01*
X75134935Y-174659273D01*
X75118711Y-174588815D01*
X75104195Y-174517498D01*
X75091387Y-174445322D01*
X75080286Y-174372288D01*
X75070893Y-174298395D01*
X75063208Y-174223643D01*
X75057231Y-174148033D01*
X75052961Y-174071564D01*
X75050400Y-173994236D01*
X75049546Y-173916050D01*
X75050801Y-173822727D01*
X75054564Y-173730826D01*
X75060837Y-173640346D01*
X75069620Y-173551288D01*
X75080911Y-173463652D01*
X75094712Y-173377437D01*
X75111022Y-173292644D01*
X75129841Y-173209272D01*
X75151169Y-173127322D01*
X75175007Y-173046793D01*
X75201353Y-172967686D01*
X75230209Y-172890001D01*
X75261574Y-172813737D01*
X75295449Y-172738895D01*
X75331832Y-172665474D01*
X75370725Y-172593475D01*
X75412008Y-172523193D01*
X75455561Y-172454924D01*
X75501386Y-172388669D01*
X75549480Y-172324426D01*
X75599846Y-172262197D01*
X75652482Y-172201980D01*
X75707389Y-172143777D01*
X75764567Y-172087587D01*
X75824015Y-172033410D01*
X75885734Y-171981246D01*
X75949724Y-171931095D01*
X76015984Y-171882957D01*
X76084515Y-171836832D01*
X76155317Y-171792721D01*
X76228390Y-171750622D01*
X76303733Y-171710537D01*
X76380937Y-171672679D01*
X76459896Y-171637264D01*
X76540610Y-171604291D01*
X76623080Y-171573761D01*
X76707306Y-171545673D01*
X76793287Y-171520027D01*
X76881024Y-171496824D01*
X76970516Y-171476064D01*
X77061764Y-171457745D01*
X77154767Y-171441870D01*
X77249525Y-171428436D01*
X77346039Y-171417445D01*
X77394955Y-171412866D01*
X77444309Y-171408897D01*
X77494102Y-171405539D01*
X77544334Y-171402791D01*
X77595005Y-171400654D01*
X77646115Y-171399127D01*
X77697663Y-171398211D01*
X77749651Y-171397906D01*
X77808702Y-171398328D01*
G37*
G36*
X70258722Y-175009036D02*
G01*
X70260783Y-175096878D01*
X70266966Y-175182105D01*
X70277270Y-175264719D01*
X70291695Y-175344718D01*
X70310242Y-175422103D01*
X70332911Y-175496873D01*
X70359702Y-175569030D01*
X70390614Y-175638572D01*
X70425647Y-175705501D01*
X70464802Y-175769815D01*
X70508079Y-175831515D01*
X70555478Y-175890601D01*
X70606997Y-175947072D01*
X70662639Y-176000930D01*
X70722402Y-176052173D01*
X70786287Y-176100802D01*
X70854012Y-176146497D01*
X70925601Y-176189245D01*
X71001054Y-176229044D01*
X71080371Y-176265895D01*
X71163552Y-176299798D01*
X71250596Y-176330753D01*
X71341505Y-176358760D01*
X71436278Y-176383818D01*
X71485114Y-176395242D01*
X71534915Y-176405929D01*
X71585683Y-176415879D01*
X71637416Y-176425092D01*
X71690116Y-176433567D01*
X71743781Y-176441306D01*
X71798412Y-176448308D01*
X71854010Y-176454573D01*
X71910573Y-176460100D01*
X71968103Y-176464891D01*
X72026598Y-176468944D01*
X72086060Y-176472261D01*
X72146487Y-176474841D01*
X72207881Y-176476683D01*
X72270240Y-176477789D01*
X72333565Y-176478157D01*
X72391333Y-176477836D01*
X72448317Y-176476874D01*
X72504515Y-176475270D01*
X72559929Y-176473024D01*
X72614558Y-176470137D01*
X72668402Y-176466608D01*
X72721462Y-176462438D01*
X72773737Y-176457626D01*
X72825227Y-176452172D01*
X72875932Y-176446076D01*
X72925853Y-176439340D01*
X72974989Y-176431961D01*
X73023340Y-176423941D01*
X73117689Y-176405976D01*
X73208898Y-176385444D01*
X73296969Y-176362346D01*
X73381900Y-176336681D01*
X73463693Y-176308450D01*
X73542347Y-176277653D01*
X73617862Y-176244289D01*
X73690238Y-176208358D01*
X73759475Y-176169861D01*
X73792916Y-176149651D01*
X73857541Y-176107266D01*
X73919217Y-176062238D01*
X73977945Y-176014568D01*
X74033725Y-175964255D01*
X74086556Y-175911299D01*
X74136440Y-175855700D01*
X74183376Y-175797459D01*
X74227363Y-175736575D01*
X74268403Y-175673048D01*
X74306494Y-175606878D01*
X74341638Y-175538066D01*
X74373833Y-175466610D01*
X74403080Y-175392512D01*
X74429379Y-175315771D01*
X74452730Y-175236387D01*
X74473133Y-175154361D01*
X73493719Y-174993161D01*
X73473290Y-175062766D01*
X73449555Y-175128701D01*
X73422514Y-175190965D01*
X73392167Y-175249558D01*
X73358515Y-175304481D01*
X73321556Y-175355733D01*
X73281292Y-175403313D01*
X73237722Y-175447223D01*
X73190846Y-175487463D01*
X73140664Y-175524031D01*
X73105373Y-175546371D01*
X73049370Y-175577143D01*
X72989439Y-175604889D01*
X72925579Y-175629608D01*
X72857791Y-175651300D01*
X72810416Y-175664080D01*
X72761296Y-175675514D01*
X72710429Y-175685603D01*
X72657817Y-175694348D01*
X72603459Y-175701746D01*
X72547354Y-175707800D01*
X72489504Y-175712508D01*
X72429908Y-175715871D01*
X72368566Y-175717889D01*
X72305478Y-175718562D01*
X72240187Y-175717926D01*
X72176969Y-175716019D01*
X72115823Y-175712841D01*
X72056751Y-175708392D01*
X71999751Y-175702671D01*
X71944823Y-175695679D01*
X71891969Y-175687415D01*
X71841187Y-175677880D01*
X71792478Y-175667074D01*
X71701278Y-175641648D01*
X71618369Y-175611137D01*
X71543751Y-175575540D01*
X71477424Y-175534859D01*
X71419388Y-175489092D01*
X71369642Y-175438240D01*
X71328188Y-175382302D01*
X71295024Y-175321280D01*
X71270151Y-175255172D01*
X71253570Y-175183979D01*
X71245279Y-175107701D01*
X71244242Y-175067655D01*
X71246150Y-175016898D01*
X71253902Y-174956672D01*
X71267617Y-174900024D01*
X71287295Y-174846954D01*
X71312936Y-174797461D01*
X71344539Y-174751546D01*
X71366364Y-174725715D01*
X71406942Y-174684839D01*
X71452350Y-174646169D01*
X71492154Y-174616822D01*
X71535049Y-174588886D01*
X71581035Y-174562363D01*
X71630113Y-174537252D01*
X71682281Y-174513553D01*
X71709525Y-174502233D01*
X71771158Y-174479068D01*
X71825748Y-174460943D01*
X71887507Y-174442174D01*
X71956437Y-174422761D01*
X72006373Y-174409461D01*
X72059496Y-174395875D01*
X72115805Y-174382003D01*
X72175301Y-174367844D01*
X72237984Y-174353399D01*
X72303853Y-174338669D01*
X72372909Y-174323651D01*
X72445152Y-174308348D01*
X72520581Y-174292759D01*
X72559490Y-174284856D01*
X72625984Y-174269028D01*
X72689912Y-174253601D01*
X72751273Y-174238574D01*
X72810068Y-174223948D01*
X72866296Y-174209723D01*
X72919958Y-174195899D01*
X72971054Y-174182475D01*
X73019583Y-174169452D01*
X73087564Y-174150668D01*
X73149771Y-174132787D01*
X73206203Y-174115807D01*
X73256861Y-174099728D01*
X73315422Y-174079692D01*
X73367915Y-174059733D01*
X73419149Y-174038934D01*
X73469123Y-174017296D01*
X73517838Y-173994818D01*
X73565294Y-173971501D01*
X73611490Y-173947343D01*
X73656427Y-173922347D01*
X73700104Y-173896510D01*
X73742064Y-173869586D01*
X73782460Y-173841327D01*
X73830754Y-173804124D01*
X73876603Y-173764834D01*
X73920007Y-173723457D01*
X73960967Y-173679993D01*
X73991974Y-173643719D01*
X74028092Y-173595908D01*
X74061646Y-173545592D01*
X74086642Y-173503537D01*
X74109998Y-173459879D01*
X74131713Y-173414617D01*
X74151786Y-173367753D01*
X74170219Y-173319286D01*
X74178820Y-173294452D01*
X74194562Y-173243466D01*
X74208206Y-173190648D01*
X74219750Y-173135999D01*
X74229195Y-173079518D01*
X74236542Y-173021205D01*
X74241789Y-172961060D01*
X74244937Y-172899084D01*
X74245987Y-172835275D01*
X74244064Y-172754198D01*
X74238297Y-172675525D01*
X74228685Y-172599256D01*
X74215228Y-172525392D01*
X74197925Y-172453932D01*
X74176778Y-172384876D01*
X74151786Y-172318224D01*
X74122950Y-172253977D01*
X74090268Y-172192134D01*
X74053741Y-172132695D01*
X74013369Y-172075661D01*
X73969153Y-172021031D01*
X73921091Y-171968805D01*
X73869185Y-171918983D01*
X73813434Y-171871565D01*
X73753838Y-171826552D01*
X73690416Y-171784110D01*
X73623492Y-171744406D01*
X73553067Y-171707441D01*
X73479141Y-171673213D01*
X73401713Y-171641724D01*
X73320784Y-171612973D01*
X73236353Y-171586960D01*
X73148421Y-171563686D01*
X73056987Y-171543149D01*
X72962052Y-171525351D01*
X72913271Y-171517479D01*
X72863615Y-171510291D01*
X72813084Y-171503788D01*
X72761677Y-171497969D01*
X72709395Y-171492835D01*
X72656238Y-171488386D01*
X72602205Y-171484621D01*
X72547297Y-171481540D01*
X72491514Y-171479144D01*
X72434855Y-171477433D01*
X72377320Y-171476406D01*
X72318911Y-171476064D01*
X72263172Y-171476336D01*
X72208305Y-171477151D01*
X72154312Y-171478511D01*
X72101191Y-171480414D01*
X72048944Y-171482861D01*
X71997569Y-171485852D01*
X71947068Y-171489387D01*
X71897439Y-171493466D01*
X71848684Y-171498088D01*
X71753792Y-171508965D01*
X71662391Y-171522017D01*
X71574483Y-171537244D01*
X71490067Y-171554646D01*
X71409142Y-171574224D01*
X71331709Y-171595976D01*
X71257769Y-171619905D01*
X71187320Y-171646008D01*
X71120363Y-171674287D01*
X71056898Y-171704741D01*
X70996925Y-171737370D01*
X70968248Y-171754501D01*
X70913021Y-171790574D01*
X70860304Y-171829491D01*
X70810096Y-171871251D01*
X70762397Y-171915853D01*
X70717207Y-171963300D01*
X70674527Y-172013589D01*
X70634356Y-172066721D01*
X70596693Y-172122697D01*
X70561541Y-172181515D01*
X70528897Y-172243177D01*
X70498763Y-172307682D01*
X70471137Y-172375030D01*
X70446021Y-172445221D01*
X70423415Y-172518256D01*
X70403317Y-172594133D01*
X70385729Y-172672854D01*
X71368806Y-172804745D01*
X71384377Y-172749060D01*
X71402695Y-172696038D01*
X71423761Y-172645677D01*
X71447575Y-172597978D01*
X71474136Y-172552941D01*
X71503445Y-172510566D01*
X71535502Y-172470852D01*
X71570307Y-172433801D01*
X71607859Y-172399411D01*
X71648159Y-172367684D01*
X71676552Y-172348011D01*
X71721611Y-172320512D01*
X71770233Y-172295718D01*
X71822418Y-172273629D01*
X71878167Y-172254244D01*
X71937479Y-172237565D01*
X72000355Y-172223590D01*
X72066795Y-172212320D01*
X72136797Y-172203755D01*
X72210364Y-172197894D01*
X72261387Y-172195490D01*
X72313995Y-172194288D01*
X72340893Y-172194138D01*
X72397468Y-172194707D01*
X72452247Y-172196413D01*
X72505231Y-172199257D01*
X72556418Y-172203240D01*
X72605809Y-172208359D01*
X72699203Y-172222012D01*
X72785414Y-172240216D01*
X72864439Y-172262971D01*
X72936281Y-172290276D01*
X73000939Y-172322133D01*
X73058412Y-172358540D01*
X73108701Y-172399498D01*
X73151806Y-172445008D01*
X73187727Y-172495068D01*
X73216464Y-172549679D01*
X73238017Y-172608841D01*
X73252385Y-172672554D01*
X73259569Y-172740818D01*
X73260467Y-172776657D01*
X73258082Y-172834140D01*
X73250926Y-172888283D01*
X73239000Y-172939088D01*
X73222304Y-172986553D01*
X73200837Y-173030679D01*
X73168781Y-173079222D01*
X73162770Y-173086845D01*
X73129944Y-173123762D01*
X73092526Y-173158949D01*
X73050517Y-173192408D01*
X73003917Y-173224136D01*
X72952725Y-173254136D01*
X72908465Y-173276891D01*
X72873342Y-173293230D01*
X72818941Y-173314964D01*
X72770051Y-173332141D01*
X72714227Y-173350069D01*
X72651469Y-173368749D01*
X72581777Y-173388180D01*
X72531464Y-173401551D01*
X72478069Y-173415257D01*
X72421593Y-173429296D01*
X72362035Y-173443669D01*
X72299395Y-173458376D01*
X72233674Y-173473417D01*
X72164871Y-173488792D01*
X72092986Y-173504501D01*
X72007372Y-173523033D01*
X71924859Y-173541385D01*
X71845447Y-173559555D01*
X71769135Y-173577544D01*
X71695925Y-173595352D01*
X71625815Y-173612979D01*
X71558805Y-173630424D01*
X71494897Y-173647688D01*
X71434089Y-173664771D01*
X71376382Y-173681672D01*
X71321775Y-173698392D01*
X71270269Y-173714931D01*
X71221865Y-173731289D01*
X71155071Y-173755485D01*
X71095254Y-173779274D01*
X71040031Y-173803223D01*
X70987019Y-173827903D01*
X70936218Y-173853312D01*
X70887629Y-173879451D01*
X70841250Y-173906321D01*
X70797082Y-173933920D01*
X70755126Y-173962248D01*
X70715380Y-173991307D01*
X70665826Y-174031187D01*
X70620202Y-174072365D01*
X70577536Y-174115222D01*
X70537465Y-174160140D01*
X70499989Y-174207119D01*
X70465108Y-174256158D01*
X70432822Y-174307258D01*
X70403131Y-174360419D01*
X70376035Y-174415641D01*
X70351535Y-174472923D01*
X70329782Y-174532057D01*
X70310929Y-174593442D01*
X70298693Y-174640958D01*
X70288089Y-174689741D01*
X70279116Y-174739791D01*
X70271774Y-174791107D01*
X70266064Y-174843690D01*
X70261985Y-174897539D01*
X70259538Y-174952654D01*
X70258722Y-175009036D01*
G37*
G36*
X67156838Y-174367899D02*
G01*
X67156838Y-176400000D01*
X68166782Y-176400000D01*
X68166782Y-174367899D01*
X69891137Y-171476064D01*
X68828681Y-171476064D01*
X67668527Y-173586322D01*
X66493719Y-171476064D01*
X65432484Y-171476064D01*
X67156838Y-174367899D01*
G37*
G36*
X60928646Y-175009036D02*
G01*
X60930706Y-175096878D01*
X60936889Y-175182105D01*
X60947193Y-175264719D01*
X60961618Y-175344718D01*
X60980166Y-175422103D01*
X61002834Y-175496873D01*
X61029625Y-175569030D01*
X61060537Y-175638572D01*
X61095570Y-175705501D01*
X61134726Y-175769815D01*
X61178002Y-175831515D01*
X61225401Y-175890601D01*
X61276921Y-175947072D01*
X61332562Y-176000930D01*
X61392325Y-176052173D01*
X61456210Y-176100802D01*
X61523935Y-176146497D01*
X61595524Y-176189245D01*
X61670977Y-176229044D01*
X61750294Y-176265895D01*
X61833475Y-176299798D01*
X61920520Y-176330753D01*
X62011429Y-176358760D01*
X62106202Y-176383818D01*
X62155037Y-176395242D01*
X62204838Y-176405929D01*
X62255606Y-176415879D01*
X62307339Y-176425092D01*
X62360039Y-176433567D01*
X62413704Y-176441306D01*
X62468336Y-176448308D01*
X62523933Y-176454573D01*
X62580497Y-176460100D01*
X62638026Y-176464891D01*
X62696521Y-176468944D01*
X62755983Y-176472261D01*
X62816410Y-176474841D01*
X62877804Y-176476683D01*
X62940163Y-176477789D01*
X63003489Y-176478157D01*
X63061257Y-176477836D01*
X63118240Y-176476874D01*
X63174438Y-176475270D01*
X63229852Y-176473024D01*
X63284481Y-176470137D01*
X63338326Y-176466608D01*
X63391385Y-176462438D01*
X63443660Y-176457626D01*
X63495150Y-176452172D01*
X63545856Y-176446076D01*
X63595776Y-176439340D01*
X63644912Y-176431961D01*
X63693264Y-176423941D01*
X63787612Y-176405976D01*
X63878821Y-176385444D01*
X63966892Y-176362346D01*
X64051824Y-176336681D01*
X64133616Y-176308450D01*
X64212270Y-176277653D01*
X64287785Y-176244289D01*
X64360161Y-176208358D01*
X64429398Y-176169861D01*
X64462840Y-176149651D01*
X64527464Y-176107266D01*
X64589140Y-176062238D01*
X64647868Y-176014568D01*
X64703648Y-175964255D01*
X64756480Y-175911299D01*
X64806363Y-175855700D01*
X64853299Y-175797459D01*
X64897287Y-175736575D01*
X64938326Y-175673048D01*
X64976418Y-175606878D01*
X65011561Y-175538066D01*
X65043756Y-175466610D01*
X65073003Y-175392512D01*
X65099302Y-175315771D01*
X65122653Y-175236387D01*
X65143056Y-175154361D01*
X64163642Y-174993161D01*
X64143213Y-175062766D01*
X64119478Y-175128701D01*
X64092437Y-175190965D01*
X64062091Y-175249558D01*
X64028438Y-175304481D01*
X63991480Y-175355733D01*
X63951215Y-175403313D01*
X63907645Y-175447223D01*
X63860769Y-175487463D01*
X63810587Y-175524031D01*
X63775296Y-175546371D01*
X63719293Y-175577143D01*
X63659362Y-175604889D01*
X63595502Y-175629608D01*
X63527714Y-175651300D01*
X63480339Y-175664080D01*
X63431219Y-175675514D01*
X63380353Y-175685603D01*
X63327740Y-175694348D01*
X63273382Y-175701746D01*
X63217278Y-175707800D01*
X63159427Y-175712508D01*
X63099831Y-175715871D01*
X63038489Y-175717889D01*
X62975401Y-175718562D01*
X62910110Y-175717926D01*
X62846892Y-175716019D01*
X62785746Y-175712841D01*
X62726674Y-175708392D01*
X62669674Y-175702671D01*
X62614747Y-175695679D01*
X62561892Y-175687415D01*
X62511110Y-175677880D01*
X62462401Y-175667074D01*
X62371201Y-175641648D01*
X62288292Y-175611137D01*
X62213674Y-175575540D01*
X62147347Y-175534859D01*
X62089311Y-175489092D01*
X62039565Y-175438240D01*
X61998111Y-175382302D01*
X61964947Y-175321280D01*
X61940075Y-175255172D01*
X61923493Y-175183979D01*
X61915202Y-175107701D01*
X61914166Y-175067655D01*
X61916074Y-175016898D01*
X61923826Y-174956672D01*
X61937540Y-174900024D01*
X61957218Y-174846954D01*
X61982859Y-174797461D01*
X62014463Y-174751546D01*
X62036287Y-174725715D01*
X62076865Y-174684839D01*
X62122273Y-174646169D01*
X62162077Y-174616822D01*
X62204972Y-174588886D01*
X62250958Y-174562363D01*
X62300036Y-174537252D01*
X62352205Y-174513553D01*
X62379448Y-174502233D01*
X62441081Y-174479068D01*
X62495671Y-174460943D01*
X62557431Y-174442174D01*
X62626360Y-174422761D01*
X62676296Y-174409461D01*
X62729419Y-174395875D01*
X62785729Y-174382003D01*
X62845225Y-174367844D01*
X62907907Y-174353399D01*
X62973776Y-174338669D01*
X63042832Y-174323651D01*
X63115075Y-174308348D01*
X63190504Y-174292759D01*
X63229413Y-174284856D01*
X63295907Y-174269028D01*
X63359835Y-174253601D01*
X63421196Y-174238574D01*
X63479991Y-174223948D01*
X63536220Y-174209723D01*
X63589881Y-174195899D01*
X63640977Y-174182475D01*
X63689506Y-174169452D01*
X63757487Y-174150668D01*
X63819694Y-174132787D01*
X63876126Y-174115807D01*
X63926784Y-174099728D01*
X63985345Y-174079692D01*
X64037838Y-174059733D01*
X64089072Y-174038934D01*
X64139046Y-174017296D01*
X64187761Y-173994818D01*
X64235217Y-173971501D01*
X64281413Y-173947343D01*
X64326350Y-173922347D01*
X64370027Y-173896510D01*
X64411988Y-173869586D01*
X64452383Y-173841327D01*
X64500677Y-173804124D01*
X64546526Y-173764834D01*
X64589931Y-173723457D01*
X64630890Y-173679993D01*
X64661898Y-173643719D01*
X64698015Y-173595908D01*
X64731569Y-173545592D01*
X64756566Y-173503537D01*
X64779921Y-173459879D01*
X64801636Y-173414617D01*
X64821710Y-173367753D01*
X64840142Y-173319286D01*
X64848743Y-173294452D01*
X64864486Y-173243466D01*
X64878129Y-173190648D01*
X64889673Y-173135999D01*
X64899118Y-173079518D01*
X64906465Y-173021205D01*
X64911712Y-172961060D01*
X64914861Y-172899084D01*
X64915910Y-172835275D01*
X64913988Y-172754198D01*
X64908220Y-172675525D01*
X64898608Y-172599256D01*
X64885151Y-172525392D01*
X64867849Y-172453932D01*
X64846702Y-172384876D01*
X64821710Y-172318224D01*
X64792873Y-172253977D01*
X64760191Y-172192134D01*
X64723664Y-172132695D01*
X64683293Y-172075661D01*
X64639076Y-172021031D01*
X64591015Y-171968805D01*
X64539108Y-171918983D01*
X64483357Y-171871565D01*
X64423761Y-171826552D01*
X64360339Y-171784110D01*
X64293415Y-171744406D01*
X64222990Y-171707441D01*
X64149064Y-171673213D01*
X64071636Y-171641724D01*
X63990707Y-171612973D01*
X63906276Y-171586960D01*
X63818344Y-171563686D01*
X63726910Y-171543149D01*
X63631975Y-171525351D01*
X63583195Y-171517479D01*
X63533539Y-171510291D01*
X63483007Y-171503788D01*
X63431601Y-171497969D01*
X63379319Y-171492835D01*
X63326161Y-171488386D01*
X63272128Y-171484621D01*
X63217220Y-171481540D01*
X63161437Y-171479144D01*
X63104778Y-171477433D01*
X63047244Y-171476406D01*
X62988834Y-171476064D01*
X62933095Y-171476336D01*
X62878228Y-171477151D01*
X62824235Y-171478511D01*
X62771115Y-171480414D01*
X62718867Y-171482861D01*
X62667493Y-171485852D01*
X62616991Y-171489387D01*
X62567363Y-171493466D01*
X62518607Y-171498088D01*
X62423715Y-171508965D01*
X62332315Y-171522017D01*
X62244406Y-171537244D01*
X62159990Y-171554646D01*
X62079065Y-171574224D01*
X62001633Y-171595976D01*
X61927692Y-171619905D01*
X61857243Y-171646008D01*
X61790286Y-171674287D01*
X61726821Y-171704741D01*
X61666848Y-171737370D01*
X61638171Y-171754501D01*
X61582945Y-171790574D01*
X61530227Y-171829491D01*
X61480019Y-171871251D01*
X61432320Y-171915853D01*
X61387131Y-171963300D01*
X61344450Y-172013589D01*
X61304279Y-172066721D01*
X61266617Y-172122697D01*
X61231464Y-172181515D01*
X61198820Y-172243177D01*
X61168686Y-172307682D01*
X61141061Y-172375030D01*
X61115945Y-172445221D01*
X61093338Y-172518256D01*
X61073240Y-172594133D01*
X61055652Y-172672854D01*
X62038729Y-172804745D01*
X62054300Y-172749060D01*
X62072618Y-172696038D01*
X62093684Y-172645677D01*
X62117498Y-172597978D01*
X62144059Y-172552941D01*
X62173368Y-172510566D01*
X62205425Y-172470852D01*
X62240230Y-172433801D01*
X62277782Y-172399411D01*
X62318082Y-172367684D01*
X62346475Y-172348011D01*
X62391534Y-172320512D01*
X62440156Y-172295718D01*
X62492341Y-172273629D01*
X62548090Y-172254244D01*
X62607403Y-172237565D01*
X62670278Y-172223590D01*
X62736718Y-172212320D01*
X62806721Y-172203755D01*
X62880287Y-172197894D01*
X62931311Y-172195490D01*
X62983918Y-172194288D01*
X63010816Y-172194138D01*
X63067391Y-172194707D01*
X63122171Y-172196413D01*
X63175154Y-172199257D01*
X63226341Y-172203240D01*
X63275732Y-172208359D01*
X63369127Y-172222012D01*
X63455337Y-172240216D01*
X63534363Y-172262971D01*
X63606204Y-172290276D01*
X63670862Y-172322133D01*
X63728335Y-172358540D01*
X63778625Y-172399498D01*
X63821730Y-172445008D01*
X63857651Y-172495068D01*
X63886387Y-172549679D01*
X63907940Y-172608841D01*
X63922308Y-172672554D01*
X63929492Y-172740818D01*
X63930390Y-172776657D01*
X63928005Y-172834140D01*
X63920850Y-172888283D01*
X63908924Y-172939088D01*
X63892227Y-172986553D01*
X63870761Y-173030679D01*
X63838704Y-173079222D01*
X63832693Y-173086845D01*
X63799867Y-173123762D01*
X63762449Y-173158949D01*
X63720440Y-173192408D01*
X63673840Y-173224136D01*
X63622648Y-173254136D01*
X63578388Y-173276891D01*
X63543265Y-173293230D01*
X63488864Y-173314964D01*
X63439974Y-173332141D01*
X63384150Y-173350069D01*
X63321392Y-173368749D01*
X63251700Y-173388180D01*
X63201387Y-173401551D01*
X63147993Y-173415257D01*
X63091516Y-173429296D01*
X63031958Y-173443669D01*
X62969319Y-173458376D01*
X62903597Y-173473417D01*
X62834794Y-173488792D01*
X62762909Y-173504501D01*
X62677296Y-173523033D01*
X62594783Y-173541385D01*
X62515370Y-173559555D01*
X62439059Y-173577544D01*
X62365848Y-173595352D01*
X62295738Y-173612979D01*
X62228728Y-173630424D01*
X62164820Y-173647688D01*
X62104012Y-173664771D01*
X62046305Y-173681672D01*
X61991698Y-173698392D01*
X61940193Y-173714931D01*
X61891788Y-173731289D01*
X61824994Y-173755485D01*
X61765177Y-173779274D01*
X61709954Y-173803223D01*
X61656943Y-173827903D01*
X61606142Y-173853312D01*
X61557552Y-173879451D01*
X61511173Y-173906321D01*
X61467006Y-173933920D01*
X61425049Y-173962248D01*
X61385303Y-173991307D01*
X61335749Y-174031187D01*
X61290125Y-174072365D01*
X61247459Y-174115222D01*
X61207388Y-174160140D01*
X61169912Y-174207119D01*
X61135031Y-174256158D01*
X61102745Y-174307258D01*
X61073054Y-174360419D01*
X61045959Y-174415641D01*
X61021458Y-174472923D01*
X60999705Y-174532057D01*
X60980853Y-174593442D01*
X60968617Y-174640958D01*
X60958012Y-174689741D01*
X60949039Y-174739791D01*
X60941697Y-174791107D01*
X60935987Y-174843690D01*
X60931909Y-174897539D01*
X60929461Y-174952654D01*
X60928646Y-175009036D01*
G37*
G36*
X56191556Y-176400000D02*
G01*
X56191556Y-173462979D01*
X56191479Y-173412986D01*
X56191250Y-173363145D01*
X56190869Y-173313457D01*
X56190334Y-173263921D01*
X56188431Y-173203271D01*
X56186065Y-173137173D01*
X56183714Y-173074125D01*
X56180870Y-172999528D01*
X56178700Y-172943381D01*
X56176310Y-172882101D01*
X56173700Y-172815688D01*
X56170871Y-172744142D01*
X56167823Y-172667463D01*
X56164555Y-172585651D01*
X56161068Y-172498707D01*
X56157362Y-172406629D01*
X56172502Y-172463935D01*
X56187391Y-172520145D01*
X56202030Y-172575257D01*
X56216419Y-172629272D01*
X56230557Y-172682189D01*
X56244445Y-172734010D01*
X56258082Y-172784733D01*
X56271469Y-172834359D01*
X56284605Y-172882888D01*
X56297491Y-172930320D01*
X56322512Y-173021892D01*
X56346531Y-173109075D01*
X56369548Y-173191870D01*
X56391563Y-173270275D01*
X56412576Y-173344293D01*
X56432588Y-173413921D01*
X56451598Y-173479160D01*
X56469606Y-173540011D01*
X56486612Y-173596473D01*
X56502617Y-173648547D01*
X56517620Y-173696231D01*
X57390788Y-176400000D01*
X58111304Y-176400000D01*
X58984473Y-173696231D01*
X59352058Y-172406629D01*
X59349504Y-172455944D01*
X59344638Y-172551418D01*
X59340096Y-172642685D01*
X59335879Y-172729744D01*
X59331987Y-172812596D01*
X59328419Y-172891240D01*
X59325175Y-172965677D01*
X59322255Y-173035906D01*
X59319660Y-173101928D01*
X59317389Y-173163742D01*
X59315443Y-173221349D01*
X59313821Y-173274749D01*
X59312524Y-173323941D01*
X59311186Y-173389840D01*
X59310577Y-173446272D01*
X59310537Y-173462979D01*
X59310537Y-176400000D01*
X60210572Y-176400000D01*
X60210572Y-171554221D01*
X58853803Y-171554221D01*
X57987962Y-174264096D01*
X57912247Y-174525436D01*
X57747383Y-175175122D01*
X57531228Y-174398429D01*
X56640963Y-171554221D01*
X55291521Y-171554221D01*
X55291521Y-176400000D01*
X56191556Y-176400000D01*
G37*
G36*
X54678471Y-176400000D02*
G01*
X53664863Y-176400000D01*
X53234996Y-175129937D01*
X51390963Y-175129937D01*
X50961095Y-176400000D01*
X49958478Y-176400000D01*
X50695934Y-174367899D01*
X51618108Y-174367899D01*
X53009071Y-174367899D01*
X52975666Y-174271501D01*
X52943226Y-174177852D01*
X52911752Y-174086954D01*
X52881245Y-173998806D01*
X52851703Y-173913408D01*
X52823127Y-173830760D01*
X52795518Y-173750863D01*
X52768874Y-173673715D01*
X52743196Y-173599318D01*
X52718484Y-173527670D01*
X52694739Y-173458773D01*
X52671959Y-173392626D01*
X52650145Y-173329229D01*
X52629298Y-173268582D01*
X52609416Y-173210685D01*
X52590500Y-173155539D01*
X52572550Y-173103142D01*
X52555567Y-173053496D01*
X52524497Y-172962453D01*
X52497292Y-172882411D01*
X52473951Y-172813370D01*
X52454473Y-172755329D01*
X52438860Y-172708288D01*
X52419225Y-172647208D01*
X52410195Y-172618189D01*
X52395717Y-172571111D01*
X52379287Y-172516743D01*
X52363889Y-172464694D01*
X52349520Y-172414963D01*
X52336182Y-172367550D01*
X52315422Y-172293056D01*
X52243370Y-172527529D01*
X52095603Y-172990369D01*
X51618108Y-174367899D01*
X50695934Y-174367899D01*
X51717027Y-171554221D01*
X52912595Y-171554221D01*
X54678471Y-176400000D01*
G37*
G36*
X47665038Y-172337020D02*
G01*
X47665038Y-176400000D01*
X48678646Y-176400000D01*
X48678646Y-172337020D01*
X50240579Y-172337020D01*
X50240579Y-171554221D01*
X46098220Y-171554221D01*
X46098220Y-172337020D01*
X47665038Y-172337020D01*
G37*
G36*
X43390788Y-172337020D02*
G01*
X43390788Y-176400000D01*
X44404396Y-176400000D01*
X44404396Y-172337020D01*
X45966329Y-172337020D01*
X45966329Y-171554221D01*
X41823970Y-171554221D01*
X41823970Y-172337020D01*
X43390788Y-172337020D01*
G37*
%LPC*%
D12*
X160000000Y-40000000D03*
X40000000Y-40000000D03*
D13*
X170000000Y-170000000D03*
X170000000Y-30000000D03*
D14*
X101000000Y-100000000D03*
D12*
X160000000Y-160000000D03*
D13*
X30000000Y-170000000D03*
X30000000Y-30000000D03*
D12*
X40000000Y-160000000D03*
%LPD*%
M02*
