G04 #@! TF.GenerationSoftware,KiCad,Pcbnew,7.0.9-1.fc39*
G04 #@! TF.CreationDate,2023-12-18T12:14:33-05:00*
G04 #@! TF.ProjectId,SYSMATT-WS2812-MATRIX-CARRIER-SPACER-PLATE,5359534d-4154-4542-9d57-53323831322d,rev?*
G04 #@! TF.SameCoordinates,Original*
G04 #@! TF.FileFunction,Copper,L2,Bot*
G04 #@! TF.FilePolarity,Positive*
%FSLAX46Y46*%
G04 Gerber Fmt 4.6, Leading zero omitted, Abs format (unit mm)*
G04 Created by KiCad (PCBNEW 7.0.9-1.fc39) date 2023-12-18 12:14:33*
%MOMM*%
%LPD*%
G01*
G04 APERTURE LIST*
G04 #@! TA.AperFunction,ComponentPad*
%ADD10C,12.800000*%
G04 #@! TD*
G04 #@! TA.AperFunction,ComponentPad*
%ADD11C,8.600000*%
G04 #@! TD*
G04 #@! TA.AperFunction,ComponentPad*
%ADD12C,10.600000*%
G04 #@! TD*
G04 APERTURE END LIST*
D10*
X160000000Y-40000000D03*
X40000000Y-40000000D03*
D11*
X170000000Y-170000000D03*
X170000000Y-30000000D03*
D12*
X101000000Y-100000000D03*
D10*
X160000000Y-160000000D03*
D11*
X30000000Y-170000000D03*
X30000000Y-30000000D03*
D10*
X40000000Y-160000000D03*
G04 #@! TA.AperFunction,Conductor*
G36*
X179943039Y-20019685D02*
G01*
X179988794Y-20072489D01*
X180000000Y-20124000D01*
X180000000Y-179876000D01*
X179980315Y-179943039D01*
X179927511Y-179988794D01*
X179876000Y-180000000D01*
X20124000Y-180000000D01*
X20056961Y-179980315D01*
X20011206Y-179927511D01*
X20000000Y-179876000D01*
X20000000Y-22000000D01*
X23000000Y-22000000D01*
X23000000Y-177000000D01*
X96948638Y-177000000D01*
X97015677Y-177019685D01*
X97036319Y-177036319D01*
X99000000Y-179000000D01*
X109000000Y-179000000D01*
X110963681Y-177036319D01*
X111025004Y-177002834D01*
X111051362Y-177000000D01*
X177000000Y-177000000D01*
X177000000Y-22000000D01*
X23000000Y-22000000D01*
X20000000Y-22000000D01*
X20000000Y-20124000D01*
X20019685Y-20056961D01*
X20072489Y-20011206D01*
X20124000Y-20000000D01*
X179876000Y-20000000D01*
X179943039Y-20019685D01*
G37*
G04 #@! TD.AperFunction*
M02*
