M48
; DRILL file {KiCad 7.0.9-1.fc39} date Fri 29 Dec 2023 09:38:14 AM EST
; FORMAT={-:-/ absolute / inch / decimal}
; #@! TF.CreationDate,2023-12-29T09:38:14-05:00
; #@! TF.GenerationSoftware,Kicad,Pcbnew,7.0.9-1.fc39
; #@! TF.FileFunction,Plated,1,2,PTH
FMAT,2
INCH
; #@! TA.AperFunction,Plated,PTH,ViaDrill
T1C0.0157
; #@! TA.AperFunction,Plated,PTH,ComponentDrill
T2C0.0394
; #@! TA.AperFunction,Plated,PTH,ComponentDrill
T3C0.1693
; #@! TA.AperFunction,Plated,PTH,ComponentDrill
T4C0.2087
; #@! TA.AperFunction,Plated,PTH,ComponentDrill
T5C0.2520
%
G90
G05
T1
X2.7559Y-2.7953
X5.9055Y-2.874
T2
X2.2616Y-3.6467
X2.3616Y-3.6467
X2.4616Y-3.6467
X3.5581Y-5.8049
X3.5581Y-5.9049
X3.5581Y-6.0049
X3.9266Y-4.4341
X4.0266Y-4.4341
X4.3553Y-5.8061
X4.3553Y-5.9061
X4.3553Y-6.0061
X4.3701Y-5.4331
X4.3701Y-5.5331
X5.4112Y-3.6467
X5.5112Y-3.6467
X5.6112Y-3.6467
T3
X1.1811Y-1.1811
X1.1811Y-6.6929
X1.2Y-3.95
X3.3Y-6.8
X4.0Y-1.2
X5.0Y-6.8
X6.6929Y-1.1811
X6.6929Y-6.6929
X6.7Y-3.95
T4
X3.9764Y-3.937
T5
X1.5748Y-1.5748
X1.5748Y-6.2992
X6.2992Y-1.5748
X6.2992Y-6.2992
T2
G00X4.0174Y-6.5748
M15
G01X4.0962Y-6.5748
M16
G05
G00X4.0174Y-6.811
M15
G01X4.0962Y-6.811
M16
G05
G00X4.2418Y-6.7323
M15
G01X4.2418Y-6.6535
M16
G05
T0
M30
