G04 #@! TF.GenerationSoftware,KiCad,Pcbnew,7.0.9-1.fc39*
G04 #@! TF.CreationDate,2023-12-29T09:38:10-05:00*
G04 #@! TF.ProjectId,SYSMATT-WS2812-MATRIX-CARRIER,5359534d-4154-4542-9d57-53323831322d,rev?*
G04 #@! TF.SameCoordinates,Original*
G04 #@! TF.FileFunction,Soldermask,Top*
G04 #@! TF.FilePolarity,Negative*
%FSLAX46Y46*%
G04 Gerber Fmt 4.6, Leading zero omitted, Abs format (unit mm)*
G04 Created by KiCad (PCBNEW 7.0.9-1.fc39) date 2023-12-29 09:38:10*
%MOMM*%
%LPD*%
G01*
G04 APERTURE LIST*
G04 Aperture macros list*
%AMRoundRect*
0 Rectangle with rounded corners*
0 $1 Rounding radius*
0 $2 $3 $4 $5 $6 $7 $8 $9 X,Y pos of 4 corners*
0 Add a 4 corners polygon primitive as box body*
4,1,4,$2,$3,$4,$5,$6,$7,$8,$9,$2,$3,0*
0 Add four circle primitives for the rounded corners*
1,1,$1+$1,$2,$3*
1,1,$1+$1,$4,$5*
1,1,$1+$1,$6,$7*
1,1,$1+$1,$8,$9*
0 Add four rect primitives between the rounded corners*
20,1,$1+$1,$2,$3,$4,$5,0*
20,1,$1+$1,$4,$5,$6,$7,0*
20,1,$1+$1,$6,$7,$8,$9,0*
20,1,$1+$1,$8,$9,$2,$3,0*%
G04 Aperture macros list end*
%ADD10C,8.600000*%
%ADD11C,12.800000*%
%ADD12R,3.000000X3.000000*%
%ADD13R,3.500000X3.500000*%
%ADD14RoundRect,0.750000X1.000000X-0.750000X1.000000X0.750000X-1.000000X0.750000X-1.000000X-0.750000X0*%
%ADD15RoundRect,0.875000X0.875000X-0.875000X0.875000X0.875000X-0.875000X0.875000X-0.875000X-0.875000X0*%
%ADD16R,1.700000X1.700000*%
%ADD17O,1.700000X1.700000*%
%ADD18O,1.500000X2.000000*%
%ADD19C,2.000000*%
%ADD20R,2.000000X3.000000*%
%ADD21C,10.600000*%
G04 APERTURE END LIST*
D10*
X127000000Y-172720000D03*
X83820000Y-172720000D03*
X101600000Y-30480000D03*
X30480000Y-100330000D03*
X170180000Y-100330000D03*
D11*
X160000000Y-40000000D03*
D12*
X55000000Y-73000000D03*
X135000000Y-73000000D03*
D13*
X103042500Y-167000000D03*
D14*
X103042500Y-173000000D03*
D15*
X107742500Y-170000000D03*
D16*
X111000000Y-138000000D03*
D17*
X111000000Y-140540000D03*
D16*
X142525000Y-92625000D03*
D17*
X139985000Y-92625000D03*
X137445000Y-92625000D03*
D12*
X103000000Y-73000000D03*
D16*
X90375000Y-152525000D03*
D17*
X90375000Y-149985000D03*
X90375000Y-147445000D03*
D16*
X62525000Y-92625000D03*
D17*
X59985000Y-92625000D03*
X57445000Y-92625000D03*
D11*
X40000000Y-40000000D03*
D10*
X170000000Y-170000000D03*
D18*
X175400000Y-143000000D03*
D19*
X171000000Y-143000000D03*
D20*
X175500000Y-148500000D03*
X169500000Y-148500000D03*
X169500000Y-137500000D03*
X175500000Y-137500000D03*
D16*
X102275000Y-112625000D03*
D17*
X99735000Y-112625000D03*
D10*
X170000000Y-30000000D03*
D21*
X101000000Y-100000000D03*
D12*
X65000000Y-73000000D03*
D11*
X160000000Y-160000000D03*
D12*
X97000000Y-73000000D03*
D10*
X30000000Y-170000000D03*
D12*
X60000000Y-73000000D03*
X140000000Y-73000000D03*
D10*
X30000000Y-30000000D03*
D12*
X145000000Y-73000000D03*
D16*
X110625000Y-147475000D03*
D17*
X110625000Y-150015000D03*
X110625000Y-152555000D03*
D11*
X40000000Y-160000000D03*
M02*
