G04 #@! TF.GenerationSoftware,KiCad,Pcbnew,7.0.9-1.fc39*
G04 #@! TF.CreationDate,2023-12-29T09:38:10-05:00*
G04 #@! TF.ProjectId,SYSMATT-WS2812-MATRIX-CARRIER,5359534d-4154-4542-9d57-53323831322d,rev?*
G04 #@! TF.SameCoordinates,Original*
G04 #@! TF.FileFunction,Copper,L1,Top*
G04 #@! TF.FilePolarity,Positive*
%FSLAX46Y46*%
G04 Gerber Fmt 4.6, Leading zero omitted, Abs format (unit mm)*
G04 Created by KiCad (PCBNEW 7.0.9-1.fc39) date 2023-12-29 09:38:10*
%MOMM*%
%LPD*%
G01*
G04 APERTURE LIST*
G04 Aperture macros list*
%AMRoundRect*
0 Rectangle with rounded corners*
0 $1 Rounding radius*
0 $2 $3 $4 $5 $6 $7 $8 $9 X,Y pos of 4 corners*
0 Add a 4 corners polygon primitive as box body*
4,1,4,$2,$3,$4,$5,$6,$7,$8,$9,$2,$3,0*
0 Add four circle primitives for the rounded corners*
1,1,$1+$1,$2,$3*
1,1,$1+$1,$4,$5*
1,1,$1+$1,$6,$7*
1,1,$1+$1,$8,$9*
0 Add four rect primitives between the rounded corners*
20,1,$1+$1,$2,$3,$4,$5,0*
20,1,$1+$1,$4,$5,$6,$7,0*
20,1,$1+$1,$6,$7,$8,$9,0*
20,1,$1+$1,$8,$9,$2,$3,0*%
G04 Aperture macros list end*
G04 #@! TA.AperFunction,ComponentPad*
%ADD10C,8.600000*%
G04 #@! TD*
G04 #@! TA.AperFunction,ComponentPad*
%ADD11C,12.800000*%
G04 #@! TD*
G04 #@! TA.AperFunction,SMDPad,CuDef*
%ADD12R,3.000000X3.000000*%
G04 #@! TD*
G04 #@! TA.AperFunction,ComponentPad*
%ADD13R,3.500000X3.500000*%
G04 #@! TD*
G04 #@! TA.AperFunction,ComponentPad*
%ADD14RoundRect,0.750000X1.000000X-0.750000X1.000000X0.750000X-1.000000X0.750000X-1.000000X-0.750000X0*%
G04 #@! TD*
G04 #@! TA.AperFunction,ComponentPad*
%ADD15RoundRect,0.875000X0.875000X-0.875000X0.875000X0.875000X-0.875000X0.875000X-0.875000X-0.875000X0*%
G04 #@! TD*
G04 #@! TA.AperFunction,ComponentPad*
%ADD16R,1.700000X1.700000*%
G04 #@! TD*
G04 #@! TA.AperFunction,ComponentPad*
%ADD17O,1.700000X1.700000*%
G04 #@! TD*
G04 #@! TA.AperFunction,SMDPad,CuDef*
%ADD18R,2.000000X3.000000*%
G04 #@! TD*
G04 #@! TA.AperFunction,ComponentPad*
%ADD19C,10.600000*%
G04 #@! TD*
G04 #@! TA.AperFunction,ViaPad*
%ADD20C,0.800000*%
G04 #@! TD*
G04 #@! TA.AperFunction,Conductor*
%ADD21C,2.500000*%
G04 #@! TD*
G04 #@! TA.AperFunction,Conductor*
%ADD22C,3.000000*%
G04 #@! TD*
G04 #@! TA.AperFunction,Conductor*
%ADD23C,0.400000*%
G04 #@! TD*
G04 APERTURE END LIST*
D10*
X127000000Y-172720000D03*
X83820000Y-172720000D03*
X101600000Y-30480000D03*
X30480000Y-100330000D03*
X170180000Y-100330000D03*
D11*
X160000000Y-40000000D03*
D12*
X55000000Y-73000000D03*
X135000000Y-73000000D03*
D13*
X103042500Y-167000000D03*
D14*
X103042500Y-173000000D03*
D15*
X107742500Y-170000000D03*
D16*
X111000000Y-138000000D03*
D17*
X111000000Y-140540000D03*
D16*
X142525000Y-92625000D03*
D17*
X139985000Y-92625000D03*
X137445000Y-92625000D03*
D12*
X103000000Y-73000000D03*
D16*
X90375000Y-152525000D03*
D17*
X90375000Y-149985000D03*
X90375000Y-147445000D03*
D16*
X62525000Y-92625000D03*
D17*
X59985000Y-92625000D03*
X57445000Y-92625000D03*
D11*
X40000000Y-40000000D03*
D10*
X170000000Y-170000000D03*
D18*
X175500000Y-148500000D03*
X169500000Y-148500000D03*
X169500000Y-137500000D03*
X175500000Y-137500000D03*
D16*
X102275000Y-112625000D03*
D17*
X99735000Y-112625000D03*
D10*
X170000000Y-30000000D03*
D19*
X101000000Y-100000000D03*
D12*
X65000000Y-73000000D03*
D11*
X160000000Y-160000000D03*
D12*
X97000000Y-73000000D03*
D10*
X30000000Y-170000000D03*
D12*
X60000000Y-73000000D03*
X140000000Y-73000000D03*
D10*
X30000000Y-30000000D03*
D12*
X145000000Y-73000000D03*
D16*
X110625000Y-147475000D03*
D17*
X110625000Y-150015000D03*
X110625000Y-152555000D03*
D11*
X40000000Y-160000000D03*
D20*
X70000000Y-71000000D03*
X150000000Y-73000000D03*
D21*
X121920000Y-165100000D02*
X143510000Y-165100000D01*
X107742500Y-170000000D02*
X117020000Y-170000000D01*
X117020000Y-170000000D02*
X121920000Y-165100000D01*
X143510000Y-165100000D02*
X154360000Y-175950000D01*
X154360000Y-175950000D02*
X177550000Y-175950000D01*
X177550000Y-175950000D02*
X177800000Y-176200000D01*
X90375000Y-147445000D02*
X88555000Y-147445000D01*
D22*
X85000000Y-37000000D02*
X118000000Y-37000000D01*
X119505310Y-68494690D02*
X115505310Y-68494690D01*
X121000000Y-67000000D02*
X119505310Y-68494690D01*
X139000000Y-22000000D02*
X121000000Y-40000000D01*
D21*
X90375000Y-147445000D02*
X68445000Y-147445000D01*
X84000000Y-152000000D02*
X84000000Y-162000000D01*
X23000000Y-23000000D02*
X23000000Y-44000000D01*
D22*
X121000000Y-40000000D02*
X121000000Y-67000000D01*
D21*
X68445000Y-147445000D02*
X57445000Y-136445000D01*
D22*
X60000000Y-73000000D02*
X60000000Y-74800000D01*
X175500000Y-137500000D02*
X169500000Y-137500000D01*
D21*
X27000000Y-50000000D02*
X42000000Y-50000000D01*
D22*
X118000000Y-37000000D02*
X121000000Y-40000000D01*
X169500000Y-137500000D02*
X122500000Y-137500000D01*
D21*
X99335000Y-111320227D02*
X99335000Y-112625000D01*
D22*
X170768125Y-22000000D02*
X139000000Y-22000000D01*
X115505310Y-68494690D02*
X111000000Y-73000000D01*
D21*
X57445000Y-136445000D02*
X57445000Y-92625000D01*
D22*
X175500000Y-137500000D02*
X178900000Y-140900000D01*
X80000000Y-67000000D02*
X80000000Y-42000000D01*
X62200000Y-77000000D02*
X70000000Y-77000000D01*
D21*
X32000000Y-23000000D02*
X23000000Y-23000000D01*
D22*
X140000000Y-76000000D02*
X142000000Y-78000000D01*
D21*
X42000000Y-77180000D02*
X42000000Y-50000000D01*
X23000000Y-44000000D02*
X22000000Y-45000000D01*
X57000000Y-35000000D02*
X55000000Y-33000000D01*
X49000000Y-33000000D02*
X40000000Y-24000000D01*
D22*
X178900000Y-140900000D02*
X178900000Y-175100000D01*
D21*
X129000000Y-101070000D02*
X129000000Y-106000000D01*
D22*
X176200000Y-57800000D02*
X176200000Y-27431875D01*
D21*
X95000000Y-173000000D02*
X103042500Y-173000000D01*
X128050000Y-106950000D02*
X103705227Y-106950000D01*
X84000000Y-162000000D02*
X95000000Y-173000000D01*
D22*
X111000000Y-73000000D02*
X103000000Y-73000000D01*
D21*
X83000000Y-35000000D02*
X85000000Y-37000000D01*
D22*
X176200000Y-27431875D02*
X170768125Y-22000000D01*
D21*
X22000000Y-45000000D02*
X27000000Y-50000000D01*
D22*
X118810000Y-150190000D02*
X116000000Y-153000000D01*
D21*
X129000000Y-106000000D02*
X129000000Y-131000000D01*
X57000000Y-35000000D02*
X83000000Y-35000000D01*
D22*
X70000000Y-77000000D02*
X80000000Y-67000000D01*
D21*
X55000000Y-33000000D02*
X49000000Y-33000000D01*
X40000000Y-24000000D02*
X33000000Y-24000000D01*
X137445000Y-92625000D02*
X129000000Y-101070000D01*
X129000000Y-131000000D02*
X122500000Y-137500000D01*
X88555000Y-147445000D02*
X84000000Y-152000000D01*
D22*
X142000000Y-78000000D02*
X156000000Y-78000000D01*
X178900000Y-175100000D02*
X177800000Y-176200000D01*
X115765000Y-152765000D02*
X110625000Y-152765000D01*
X80000000Y-42000000D02*
X85000000Y-37000000D01*
D21*
X129000000Y-106000000D02*
X128050000Y-106950000D01*
X104742500Y-173000000D02*
X107742500Y-170000000D01*
X103705227Y-106950000D02*
X99335000Y-111320227D01*
D22*
X118810000Y-141190000D02*
X118810000Y-150190000D01*
D21*
X57445000Y-92625000D02*
X42000000Y-77180000D01*
D22*
X140000000Y-73000000D02*
X140000000Y-76000000D01*
D21*
X103042500Y-173000000D02*
X104742500Y-173000000D01*
D22*
X122500000Y-137500000D02*
X118810000Y-141190000D01*
D21*
X33000000Y-24000000D02*
X32000000Y-23000000D01*
D22*
X60000000Y-74800000D02*
X62200000Y-77000000D01*
X116000000Y-153000000D02*
X115765000Y-152765000D01*
X156000000Y-78000000D02*
X176200000Y-57800000D01*
X118810000Y-141190000D02*
X111000000Y-141190000D01*
D23*
X65000000Y-73000000D02*
X68000000Y-73000000D01*
X68000000Y-73000000D02*
X70000000Y-71000000D01*
X150000000Y-73000000D02*
X145000000Y-73000000D01*
D22*
X55000000Y-79000000D02*
X59000000Y-83000000D01*
X100265000Y-147265000D02*
X110625000Y-147265000D01*
X100265000Y-147265000D02*
X100265000Y-148735000D01*
X91000000Y-138000000D02*
X91210000Y-137790000D01*
X108000000Y-137790000D02*
X111000000Y-137790000D01*
X103042500Y-162042500D02*
X103042500Y-167000000D01*
X142735000Y-85735000D02*
X142735000Y-92625000D01*
X90000000Y-154000000D02*
X90000000Y-152900000D01*
X169500000Y-148500000D02*
X175500000Y-148500000D01*
X135000000Y-78000000D02*
X142735000Y-85735000D01*
X67000000Y-132000000D02*
X73000000Y-138000000D01*
X90165000Y-152735000D02*
X90375000Y-152735000D01*
X135000000Y-73000000D02*
X115808326Y-73000000D01*
X55000000Y-73000000D02*
X55000000Y-79000000D01*
X97000000Y-73000000D02*
X83000000Y-73000000D01*
X105625000Y-112625000D02*
X102485000Y-112625000D01*
X144000000Y-159000000D02*
X154500000Y-148500000D01*
X90000000Y-152900000D02*
X90165000Y-152735000D01*
X108000000Y-137790000D02*
X111000000Y-134790000D01*
X67000000Y-89000000D02*
X67000000Y-132000000D01*
X63375000Y-92625000D02*
X62735000Y-92625000D01*
X67000000Y-89000000D02*
X63375000Y-92625000D01*
X91000000Y-138000000D02*
X100265000Y-147265000D01*
X154500000Y-148500000D02*
X169500000Y-148500000D01*
X135000000Y-73000000D02*
X135000000Y-78000000D01*
X91210000Y-137790000D02*
X108000000Y-137790000D01*
X115808326Y-73000000D02*
X106808326Y-82000000D01*
X95000000Y-154000000D02*
X103042500Y-162042500D01*
X111000000Y-134790000D02*
X111000000Y-118000000D01*
X106808326Y-82000000D02*
X100000000Y-82000000D01*
X111042500Y-159000000D02*
X144000000Y-159000000D01*
X111000000Y-118000000D02*
X105625000Y-112625000D01*
X64000000Y-83000000D02*
X67000000Y-86000000D01*
X95000000Y-154000000D02*
X90000000Y-154000000D01*
X67000000Y-86000000D02*
X67000000Y-89000000D01*
X73000000Y-138000000D02*
X91000000Y-138000000D01*
X103042500Y-167000000D02*
X111042500Y-159000000D01*
X97000000Y-79000000D02*
X97000000Y-73000000D01*
X59000000Y-83000000D02*
X64000000Y-83000000D01*
X100000000Y-82000000D02*
X97000000Y-79000000D01*
X100265000Y-148735000D02*
X95000000Y-154000000D01*
X83000000Y-73000000D02*
X67000000Y-89000000D01*
G04 #@! TA.AperFunction,Conductor*
G36*
X75468543Y-77489685D02*
G01*
X75514298Y-77542489D01*
X75524242Y-77611647D01*
X75495217Y-77675203D01*
X75489185Y-77681681D01*
X68587681Y-84583184D01*
X68526358Y-84616669D01*
X68456666Y-84611685D01*
X68412319Y-84583184D01*
X67653500Y-83824365D01*
X65364046Y-81534912D01*
X65338724Y-81509590D01*
X65313404Y-81484269D01*
X65313393Y-81484259D01*
X65257825Y-81442661D01*
X65254378Y-81439884D01*
X65201923Y-81394430D01*
X65201918Y-81394427D01*
X65201917Y-81394426D01*
X65143499Y-81356883D01*
X65139875Y-81354366D01*
X65084315Y-81312774D01*
X65084310Y-81312771D01*
X65084309Y-81312770D01*
X65023396Y-81279509D01*
X65019589Y-81277250D01*
X64961192Y-81239720D01*
X64961182Y-81239715D01*
X64923929Y-81222703D01*
X64898034Y-81210877D01*
X64894104Y-81208910D01*
X64833161Y-81175633D01*
X64768117Y-81151372D01*
X64764029Y-81149678D01*
X64700891Y-81120845D01*
X64634292Y-81101289D01*
X64630092Y-81099891D01*
X64565047Y-81075631D01*
X64565050Y-81075631D01*
X64497205Y-81060873D01*
X64492915Y-81059778D01*
X64426331Y-81040227D01*
X64426318Y-81040224D01*
X64357616Y-81030346D01*
X64353272Y-81029562D01*
X64324415Y-81023285D01*
X64285431Y-81014804D01*
X64216184Y-81009850D01*
X64211784Y-81009377D01*
X64143082Y-80999500D01*
X64143079Y-80999500D01*
X64071448Y-80999500D01*
X59879996Y-80999500D01*
X59812957Y-80979815D01*
X59792315Y-80963181D01*
X57036819Y-78207685D01*
X57003334Y-78146362D01*
X57000500Y-78120004D01*
X57000500Y-77594000D01*
X57020185Y-77526961D01*
X57072989Y-77481206D01*
X57124500Y-77470000D01*
X75401504Y-77470000D01*
X75468543Y-77489685D01*
G37*
G04 #@! TD.AperFunction*
G04 #@! TA.AperFunction,Conductor*
G36*
X179943039Y-20019685D02*
G01*
X179988794Y-20072489D01*
X180000000Y-20124000D01*
X180000000Y-179876000D01*
X179980315Y-179943039D01*
X179927511Y-179988794D01*
X179876000Y-180000000D01*
X20124000Y-180000000D01*
X20056961Y-179980315D01*
X20011206Y-179927511D01*
X20000000Y-179876000D01*
X20000000Y-170000003D01*
X25194661Y-170000003D01*
X25214005Y-170430737D01*
X25214006Y-170430746D01*
X25271885Y-170858027D01*
X25367830Y-171278391D01*
X25501073Y-171688472D01*
X25501076Y-171688480D01*
X25670533Y-172084947D01*
X25670537Y-172084955D01*
X25724808Y-172185806D01*
X25874863Y-172464655D01*
X25874867Y-172464661D01*
X25874867Y-172464662D01*
X26112394Y-172824501D01*
X26112404Y-172824514D01*
X26381225Y-173161607D01*
X26381235Y-173161618D01*
X26381236Y-173161619D01*
X26679210Y-173473274D01*
X27003920Y-173756965D01*
X27003930Y-173756972D01*
X27003931Y-173756973D01*
X27336222Y-173998397D01*
X27352753Y-174010407D01*
X27722900Y-174231560D01*
X27722903Y-174231561D01*
X27722904Y-174231562D01*
X27722906Y-174231563D01*
X28111372Y-174418639D01*
X28111386Y-174418645D01*
X28515055Y-174570144D01*
X28515059Y-174570145D01*
X28515069Y-174570149D01*
X28930711Y-174684859D01*
X29354964Y-174761850D01*
X29784409Y-174800500D01*
X29784416Y-174800500D01*
X30215584Y-174800500D01*
X30215591Y-174800500D01*
X30645036Y-174761850D01*
X31069289Y-174684859D01*
X31484931Y-174570149D01*
X31888619Y-174418643D01*
X32277100Y-174231560D01*
X32647247Y-174010407D01*
X32996080Y-173756965D01*
X33320790Y-173473274D01*
X33618764Y-173161619D01*
X33627435Y-173150747D01*
X33887595Y-172824514D01*
X33887601Y-172824507D01*
X33956583Y-172720003D01*
X79014661Y-172720003D01*
X79034005Y-173150737D01*
X79034006Y-173150746D01*
X79091885Y-173578027D01*
X79187830Y-173998391D01*
X79321073Y-174408472D01*
X79321076Y-174408480D01*
X79490533Y-174804947D01*
X79490537Y-174804955D01*
X79510241Y-174841571D01*
X79694863Y-175184655D01*
X79694867Y-175184661D01*
X79694867Y-175184662D01*
X79932394Y-175544501D01*
X79932404Y-175544514D01*
X80201225Y-175881607D01*
X80201235Y-175881618D01*
X80201236Y-175881619D01*
X80499210Y-176193274D01*
X80823920Y-176476965D01*
X81172753Y-176730407D01*
X81542900Y-176951560D01*
X81542903Y-176951561D01*
X81542904Y-176951562D01*
X81542906Y-176951563D01*
X81931372Y-177138639D01*
X81931386Y-177138645D01*
X82335055Y-177290144D01*
X82335059Y-177290145D01*
X82335069Y-177290149D01*
X82750711Y-177404859D01*
X83174964Y-177481850D01*
X83604409Y-177520500D01*
X83604416Y-177520500D01*
X84035584Y-177520500D01*
X84035591Y-177520500D01*
X84465036Y-177481850D01*
X84889289Y-177404859D01*
X85304931Y-177290149D01*
X85708619Y-177138643D01*
X86097100Y-176951560D01*
X86467247Y-176730407D01*
X86816080Y-176476965D01*
X87140790Y-176193274D01*
X87438764Y-175881619D01*
X87707601Y-175544507D01*
X87945137Y-175184655D01*
X88149461Y-174804958D01*
X88151367Y-174800500D01*
X88256582Y-174554335D01*
X88318926Y-174408475D01*
X88452168Y-173998397D01*
X88548115Y-173578026D01*
X88605994Y-173150747D01*
X88623992Y-172750000D01*
X100792500Y-172750000D01*
X101608814Y-172750000D01*
X101583007Y-172790156D01*
X101542500Y-172928111D01*
X101542500Y-173071889D01*
X101583007Y-173209844D01*
X101608814Y-173250000D01*
X100792501Y-173250000D01*
X100792501Y-173814192D01*
X100802900Y-173946332D01*
X100857877Y-174164519D01*
X100950928Y-174369374D01*
X100950931Y-174369380D01*
X101079059Y-174554323D01*
X101079069Y-174554335D01*
X101238164Y-174713430D01*
X101238176Y-174713440D01*
X101423119Y-174841568D01*
X101423125Y-174841571D01*
X101627980Y-174934622D01*
X101846167Y-174989599D01*
X101978307Y-175000000D01*
X102792499Y-174999999D01*
X102792500Y-174999998D01*
X102792500Y-173500000D01*
X103292500Y-173500000D01*
X103292500Y-174999999D01*
X104106692Y-174999999D01*
X104238832Y-174989599D01*
X104457019Y-174934622D01*
X104661874Y-174841571D01*
X104661880Y-174841568D01*
X104846823Y-174713440D01*
X104846835Y-174713430D01*
X105005930Y-174554335D01*
X105005940Y-174554323D01*
X105134068Y-174369380D01*
X105134071Y-174369374D01*
X105227122Y-174164519D01*
X105282099Y-173946332D01*
X105292500Y-173814194D01*
X105292500Y-173250000D01*
X104476186Y-173250000D01*
X104501993Y-173209844D01*
X104542500Y-173071889D01*
X104542500Y-172928111D01*
X104501993Y-172790156D01*
X104476186Y-172750000D01*
X105292499Y-172750000D01*
X105292499Y-172720003D01*
X122194661Y-172720003D01*
X122214005Y-173150737D01*
X122214006Y-173150746D01*
X122271885Y-173578027D01*
X122367830Y-173998391D01*
X122501073Y-174408472D01*
X122501076Y-174408480D01*
X122670533Y-174804947D01*
X122670537Y-174804955D01*
X122690241Y-174841571D01*
X122874863Y-175184655D01*
X122874867Y-175184661D01*
X122874867Y-175184662D01*
X123112394Y-175544501D01*
X123112404Y-175544514D01*
X123381225Y-175881607D01*
X123381235Y-175881618D01*
X123381236Y-175881619D01*
X123679210Y-176193274D01*
X124003920Y-176476965D01*
X124352753Y-176730407D01*
X124722900Y-176951560D01*
X124722903Y-176951561D01*
X124722904Y-176951562D01*
X124722906Y-176951563D01*
X125111372Y-177138639D01*
X125111386Y-177138645D01*
X125515055Y-177290144D01*
X125515059Y-177290145D01*
X125515069Y-177290149D01*
X125930711Y-177404859D01*
X126354964Y-177481850D01*
X126784409Y-177520500D01*
X126784416Y-177520500D01*
X127215584Y-177520500D01*
X127215591Y-177520500D01*
X127645036Y-177481850D01*
X128069289Y-177404859D01*
X128484931Y-177290149D01*
X128888619Y-177138643D01*
X129277100Y-176951560D01*
X129647247Y-176730407D01*
X129996080Y-176476965D01*
X130320790Y-176193274D01*
X130618764Y-175881619D01*
X130887601Y-175544507D01*
X131125137Y-175184655D01*
X131329461Y-174804958D01*
X131331367Y-174800500D01*
X131436582Y-174554335D01*
X131498926Y-174408475D01*
X131632168Y-173998397D01*
X131728115Y-173578026D01*
X131785994Y-173150747D01*
X131805339Y-172720000D01*
X131785994Y-172289253D01*
X131728115Y-171861974D01*
X131632168Y-171441603D01*
X131498926Y-171031525D01*
X131424769Y-170858026D01*
X131329466Y-170635052D01*
X131329462Y-170635044D01*
X131329461Y-170635042D01*
X131125137Y-170255345D01*
X131121609Y-170250000D01*
X130956588Y-170000003D01*
X165194661Y-170000003D01*
X165214005Y-170430737D01*
X165214006Y-170430746D01*
X165271885Y-170858027D01*
X165367830Y-171278391D01*
X165501073Y-171688472D01*
X165501076Y-171688480D01*
X165670533Y-172084947D01*
X165670537Y-172084955D01*
X165724808Y-172185806D01*
X165874863Y-172464655D01*
X165874867Y-172464661D01*
X165874867Y-172464662D01*
X166112394Y-172824501D01*
X166112404Y-172824514D01*
X166381225Y-173161607D01*
X166381235Y-173161618D01*
X166381236Y-173161619D01*
X166679210Y-173473274D01*
X167003920Y-173756965D01*
X167003930Y-173756972D01*
X167003931Y-173756973D01*
X167336222Y-173998397D01*
X167352753Y-174010407D01*
X167722900Y-174231560D01*
X167722903Y-174231561D01*
X167722904Y-174231562D01*
X167722906Y-174231563D01*
X168111372Y-174418639D01*
X168111386Y-174418645D01*
X168515055Y-174570144D01*
X168515059Y-174570145D01*
X168515069Y-174570149D01*
X168930711Y-174684859D01*
X169354964Y-174761850D01*
X169784409Y-174800500D01*
X169784416Y-174800500D01*
X170215584Y-174800500D01*
X170215591Y-174800500D01*
X170645036Y-174761850D01*
X171069289Y-174684859D01*
X171484931Y-174570149D01*
X171888619Y-174418643D01*
X172277100Y-174231560D01*
X172647247Y-174010407D01*
X172996080Y-173756965D01*
X173320790Y-173473274D01*
X173618764Y-173161619D01*
X173627435Y-173150747D01*
X173887595Y-172824514D01*
X173887601Y-172824507D01*
X174125137Y-172464655D01*
X174329461Y-172084958D01*
X174342836Y-172053667D01*
X174424769Y-171861974D01*
X174498926Y-171688475D01*
X174632168Y-171278397D01*
X174728115Y-170858026D01*
X174785994Y-170430747D01*
X174805339Y-170000000D01*
X174785994Y-169569253D01*
X174728115Y-169141974D01*
X174632168Y-168721603D01*
X174498926Y-168311525D01*
X174429823Y-168149851D01*
X174329466Y-167915052D01*
X174329462Y-167915044D01*
X174242151Y-167752794D01*
X174125137Y-167535345D01*
X174125132Y-167535337D01*
X173887605Y-167175498D01*
X173887595Y-167175485D01*
X173618774Y-166838392D01*
X173618762Y-166838379D01*
X173320794Y-166526730D01*
X173320793Y-166526729D01*
X173320790Y-166526726D01*
X172996080Y-166243035D01*
X172996068Y-166243026D01*
X172647256Y-165989599D01*
X172647251Y-165989596D01*
X172647247Y-165989593D01*
X172277100Y-165768440D01*
X172277095Y-165768437D01*
X172277093Y-165768436D01*
X171888627Y-165581360D01*
X171888613Y-165581354D01*
X171484944Y-165429855D01*
X171484919Y-165429847D01*
X171069295Y-165315142D01*
X170645043Y-165238151D01*
X170645040Y-165238150D01*
X170645036Y-165238150D01*
X170215591Y-165199500D01*
X169784409Y-165199500D01*
X169354964Y-165238150D01*
X169354960Y-165238150D01*
X169354956Y-165238151D01*
X168930704Y-165315142D01*
X168515080Y-165429847D01*
X168515055Y-165429855D01*
X168111386Y-165581354D01*
X168111372Y-165581360D01*
X167722906Y-165768436D01*
X167722904Y-165768437D01*
X167352743Y-165989599D01*
X167003931Y-166243026D01*
X167003914Y-166243039D01*
X166679210Y-166526726D01*
X166679205Y-166526730D01*
X166381237Y-166838379D01*
X166381225Y-166838392D01*
X166112404Y-167175485D01*
X166112394Y-167175498D01*
X165874867Y-167535337D01*
X165874867Y-167535338D01*
X165670537Y-167915044D01*
X165670533Y-167915052D01*
X165501076Y-168311519D01*
X165501073Y-168311527D01*
X165367830Y-168721608D01*
X165271885Y-169141972D01*
X165214006Y-169569253D01*
X165214005Y-169569262D01*
X165194661Y-169999996D01*
X165194661Y-170000003D01*
X130956588Y-170000003D01*
X130887605Y-169895498D01*
X130887595Y-169895485D01*
X130618774Y-169558392D01*
X130618762Y-169558379D01*
X130320794Y-169246730D01*
X130320793Y-169246729D01*
X130320790Y-169246726D01*
X130030837Y-168993401D01*
X129996085Y-168963039D01*
X129996068Y-168963026D01*
X129647256Y-168709599D01*
X129647251Y-168709596D01*
X129647247Y-168709593D01*
X129277100Y-168488440D01*
X129277095Y-168488437D01*
X129277093Y-168488436D01*
X128888627Y-168301360D01*
X128888613Y-168301354D01*
X128484944Y-168149855D01*
X128484919Y-168149847D01*
X128069295Y-168035142D01*
X127645043Y-167958151D01*
X127645040Y-167958150D01*
X127645036Y-167958150D01*
X127215591Y-167919500D01*
X126784409Y-167919500D01*
X126354964Y-167958150D01*
X126354960Y-167958150D01*
X126354956Y-167958151D01*
X125930704Y-168035142D01*
X125515080Y-168149847D01*
X125515055Y-168149855D01*
X125111386Y-168301354D01*
X125111372Y-168301360D01*
X124722906Y-168488436D01*
X124722904Y-168488437D01*
X124352743Y-168709599D01*
X124003931Y-168963026D01*
X124003914Y-168963039D01*
X123679210Y-169246726D01*
X123679205Y-169246730D01*
X123381237Y-169558379D01*
X123381225Y-169558392D01*
X123112404Y-169895485D01*
X123112394Y-169895498D01*
X122874867Y-170255337D01*
X122874867Y-170255338D01*
X122670537Y-170635044D01*
X122670533Y-170635052D01*
X122501076Y-171031519D01*
X122501073Y-171031527D01*
X122367830Y-171441608D01*
X122271885Y-171861972D01*
X122214006Y-172289253D01*
X122214005Y-172289262D01*
X122194661Y-172719996D01*
X122194661Y-172720003D01*
X105292499Y-172720003D01*
X105292499Y-172185808D01*
X105282099Y-172053667D01*
X105227122Y-171835480D01*
X105134071Y-171630625D01*
X105134068Y-171630619D01*
X105005940Y-171445676D01*
X105005930Y-171445664D01*
X104846835Y-171286569D01*
X104846823Y-171286559D01*
X104661880Y-171158431D01*
X104661874Y-171158428D01*
X104457019Y-171065377D01*
X104238832Y-171010400D01*
X104106694Y-171000000D01*
X103292500Y-171000000D01*
X103292500Y-172500000D01*
X102792500Y-172500000D01*
X102792500Y-171000000D01*
X102792499Y-171000000D01*
X101978308Y-171000001D01*
X101846167Y-171010400D01*
X101627980Y-171065377D01*
X101423125Y-171158428D01*
X101423119Y-171158431D01*
X101238176Y-171286559D01*
X101238164Y-171286569D01*
X101079069Y-171445664D01*
X101079059Y-171445676D01*
X100950931Y-171630619D01*
X100950928Y-171630625D01*
X100857877Y-171835480D01*
X100802900Y-172053667D01*
X100792500Y-172185806D01*
X100792500Y-172750000D01*
X88623992Y-172750000D01*
X88625339Y-172720000D01*
X88605994Y-172289253D01*
X88548115Y-171861974D01*
X88452168Y-171441603D01*
X88318926Y-171031525D01*
X88244769Y-170858026D01*
X88149466Y-170635052D01*
X88149462Y-170635044D01*
X88149461Y-170635042D01*
X87945137Y-170255345D01*
X87941609Y-170250000D01*
X87707605Y-169895498D01*
X87707595Y-169895485D01*
X87438774Y-169558392D01*
X87438762Y-169558379D01*
X87140794Y-169246730D01*
X87140793Y-169246729D01*
X87140790Y-169246726D01*
X86850837Y-168993401D01*
X86816085Y-168963039D01*
X86816068Y-168963026D01*
X86467256Y-168709599D01*
X86467251Y-168709596D01*
X86467247Y-168709593D01*
X86097100Y-168488440D01*
X86097095Y-168488437D01*
X86097093Y-168488436D01*
X85708627Y-168301360D01*
X85708613Y-168301354D01*
X85304944Y-168149855D01*
X85304919Y-168149847D01*
X84889295Y-168035142D01*
X84465043Y-167958151D01*
X84465040Y-167958150D01*
X84465036Y-167958150D01*
X84035591Y-167919500D01*
X83604409Y-167919500D01*
X83174964Y-167958150D01*
X83174960Y-167958150D01*
X83174956Y-167958151D01*
X82750704Y-168035142D01*
X82335080Y-168149847D01*
X82335055Y-168149855D01*
X81931386Y-168301354D01*
X81931372Y-168301360D01*
X81542906Y-168488436D01*
X81542904Y-168488437D01*
X81172743Y-168709599D01*
X80823931Y-168963026D01*
X80823914Y-168963039D01*
X80499210Y-169246726D01*
X80499205Y-169246730D01*
X80201237Y-169558379D01*
X80201225Y-169558392D01*
X79932404Y-169895485D01*
X79932394Y-169895498D01*
X79694867Y-170255337D01*
X79694867Y-170255338D01*
X79490537Y-170635044D01*
X79490533Y-170635052D01*
X79321076Y-171031519D01*
X79321073Y-171031527D01*
X79187830Y-171441608D01*
X79091885Y-171861972D01*
X79034006Y-172289253D01*
X79034005Y-172289262D01*
X79014661Y-172719996D01*
X79014661Y-172720003D01*
X33956583Y-172720003D01*
X34125137Y-172464655D01*
X34329461Y-172084958D01*
X34342836Y-172053667D01*
X34424769Y-171861974D01*
X34498926Y-171688475D01*
X34632168Y-171278397D01*
X34728115Y-170858026D01*
X34785994Y-170430747D01*
X34805339Y-170000000D01*
X34785994Y-169569253D01*
X34728115Y-169141974D01*
X34632168Y-168721603D01*
X34498926Y-168311525D01*
X34429823Y-168149851D01*
X34329466Y-167915052D01*
X34329462Y-167915044D01*
X34242151Y-167752794D01*
X34125137Y-167535345D01*
X34125132Y-167535337D01*
X33887605Y-167175498D01*
X33887595Y-167175485D01*
X33618774Y-166838392D01*
X33618762Y-166838379D01*
X33320794Y-166526730D01*
X33320793Y-166526729D01*
X33320790Y-166526726D01*
X32996080Y-166243035D01*
X32996068Y-166243026D01*
X32647256Y-165989599D01*
X32647251Y-165989596D01*
X32647247Y-165989593D01*
X32277100Y-165768440D01*
X32277095Y-165768437D01*
X32277093Y-165768436D01*
X31888627Y-165581360D01*
X31888613Y-165581354D01*
X31484944Y-165429855D01*
X31484919Y-165429847D01*
X31069295Y-165315142D01*
X30645043Y-165238151D01*
X30645040Y-165238150D01*
X30645036Y-165238150D01*
X30215591Y-165199500D01*
X29784409Y-165199500D01*
X29354964Y-165238150D01*
X29354960Y-165238150D01*
X29354956Y-165238151D01*
X28930704Y-165315142D01*
X28515080Y-165429847D01*
X28515055Y-165429855D01*
X28111386Y-165581354D01*
X28111372Y-165581360D01*
X27722906Y-165768436D01*
X27722904Y-165768437D01*
X27352743Y-165989599D01*
X27003931Y-166243026D01*
X27003914Y-166243039D01*
X26679210Y-166526726D01*
X26679205Y-166526730D01*
X26381237Y-166838379D01*
X26381225Y-166838392D01*
X26112404Y-167175485D01*
X26112394Y-167175498D01*
X25874867Y-167535337D01*
X25874867Y-167535338D01*
X25670537Y-167915044D01*
X25670533Y-167915052D01*
X25501076Y-168311519D01*
X25501073Y-168311527D01*
X25367830Y-168721608D01*
X25271885Y-169141972D01*
X25214006Y-169569253D01*
X25214005Y-169569262D01*
X25194661Y-169999996D01*
X25194661Y-170000003D01*
X20000000Y-170000003D01*
X20000000Y-160000000D01*
X33094671Y-160000000D01*
X33113979Y-160516031D01*
X33171797Y-161029176D01*
X33171796Y-161029176D01*
X33267802Y-161536579D01*
X33267802Y-161536580D01*
X33401455Y-162035381D01*
X33572011Y-162522800D01*
X33778514Y-162996110D01*
X33778517Y-162996115D01*
X34019807Y-163452660D01*
X34128511Y-163625661D01*
X34294549Y-163889910D01*
X34601196Y-164305402D01*
X34938036Y-164696817D01*
X35303183Y-165061964D01*
X35694598Y-165398804D01*
X36110088Y-165705449D01*
X36110093Y-165705453D01*
X36547339Y-165980193D01*
X36547338Y-165980192D01*
X36792477Y-166109751D01*
X37003890Y-166221486D01*
X37477200Y-166427989D01*
X37477205Y-166427990D01*
X37477208Y-166427992D01*
X37570382Y-166460595D01*
X37964619Y-166598545D01*
X38463420Y-166732198D01*
X38786552Y-166793337D01*
X38970824Y-166828204D01*
X38970824Y-166828203D01*
X39061253Y-166838392D01*
X39483969Y-166886021D01*
X40000000Y-166905329D01*
X40516031Y-166886021D01*
X40938747Y-166838392D01*
X41029176Y-166828203D01*
X41029176Y-166828204D01*
X41213447Y-166793337D01*
X41536580Y-166732198D01*
X42035381Y-166598545D01*
X42429617Y-166460595D01*
X42522792Y-166427992D01*
X42522794Y-166427990D01*
X42522800Y-166427989D01*
X42996110Y-166221486D01*
X43207521Y-166109751D01*
X43452661Y-165980192D01*
X43452660Y-165980193D01*
X43789663Y-165768440D01*
X43889910Y-165705451D01*
X44058056Y-165581354D01*
X44305399Y-165398806D01*
X44305402Y-165398804D01*
X44696817Y-165061964D01*
X45061964Y-164696817D01*
X45398804Y-164305402D01*
X45705451Y-163889910D01*
X45980190Y-163452665D01*
X45980192Y-163452662D01*
X45980193Y-163452661D01*
X46221483Y-162996115D01*
X46221486Y-162996110D01*
X46427989Y-162522800D01*
X46598545Y-162035381D01*
X46732198Y-161536580D01*
X46732198Y-161536579D01*
X46828204Y-161029176D01*
X46828203Y-161029176D01*
X46886021Y-160516031D01*
X46905329Y-160000000D01*
X46886021Y-159483969D01*
X46828203Y-158970824D01*
X46828204Y-158970824D01*
X46732198Y-158463421D01*
X46732198Y-158463420D01*
X46598545Y-157964619D01*
X46427989Y-157477200D01*
X46221486Y-157003890D01*
X46109751Y-156792478D01*
X45980192Y-156547339D01*
X45980193Y-156547340D01*
X45871488Y-156374338D01*
X45705451Y-156110090D01*
X45398804Y-155694598D01*
X45070752Y-155313395D01*
X45061966Y-155303185D01*
X44696815Y-154938034D01*
X44569980Y-154828884D01*
X44305402Y-154601196D01*
X43889910Y-154294549D01*
X43875394Y-154285428D01*
X43452661Y-154019807D01*
X43452662Y-154019808D01*
X43090554Y-153828429D01*
X42996110Y-153778514D01*
X42522800Y-153572011D01*
X42522794Y-153572009D01*
X42522792Y-153572008D01*
X42429617Y-153539405D01*
X42035381Y-153401455D01*
X41536580Y-153267802D01*
X41213447Y-153206662D01*
X41029176Y-153171796D01*
X40913745Y-153158791D01*
X40516031Y-153113979D01*
X40000000Y-153094671D01*
X39483969Y-153113979D01*
X39086254Y-153158791D01*
X38970824Y-153171796D01*
X38786552Y-153206662D01*
X38463420Y-153267802D01*
X37964619Y-153401455D01*
X37570382Y-153539405D01*
X37477208Y-153572008D01*
X37477205Y-153572009D01*
X37477200Y-153572011D01*
X37003890Y-153778514D01*
X36909446Y-153828429D01*
X36547338Y-154019808D01*
X36547339Y-154019807D01*
X36124606Y-154285428D01*
X36110090Y-154294549D01*
X35694598Y-154601196D01*
X35430019Y-154828884D01*
X35303185Y-154938034D01*
X34938034Y-155303185D01*
X34929248Y-155313395D01*
X34601196Y-155694598D01*
X34294549Y-156110090D01*
X34128511Y-156374338D01*
X34019807Y-156547340D01*
X34019808Y-156547339D01*
X33890248Y-156792478D01*
X33778514Y-157003890D01*
X33572011Y-157477200D01*
X33401455Y-157964619D01*
X33267802Y-158463420D01*
X33267802Y-158463421D01*
X33171796Y-158970824D01*
X33171797Y-158970824D01*
X33113979Y-159483969D01*
X33094671Y-160000000D01*
X20000000Y-160000000D01*
X20000000Y-100330003D01*
X25674661Y-100330003D01*
X25694005Y-100760737D01*
X25694006Y-100760746D01*
X25751885Y-101188027D01*
X25847830Y-101608391D01*
X25981073Y-102018472D01*
X25981076Y-102018480D01*
X26150533Y-102414947D01*
X26150537Y-102414955D01*
X26150539Y-102414958D01*
X26354863Y-102794655D01*
X26354867Y-102794661D01*
X26354867Y-102794662D01*
X26592394Y-103154501D01*
X26592404Y-103154514D01*
X26861225Y-103491607D01*
X26861235Y-103491618D01*
X26861236Y-103491619D01*
X27159210Y-103803274D01*
X27483920Y-104086965D01*
X27483930Y-104086972D01*
X27483931Y-104086973D01*
X27737515Y-104271213D01*
X27832753Y-104340407D01*
X28202900Y-104561560D01*
X28202903Y-104561561D01*
X28202904Y-104561562D01*
X28202906Y-104561563D01*
X28591372Y-104748639D01*
X28591386Y-104748645D01*
X28995055Y-104900144D01*
X28995059Y-104900145D01*
X28995069Y-104900149D01*
X29410711Y-105014859D01*
X29834964Y-105091850D01*
X30264409Y-105130500D01*
X30264416Y-105130500D01*
X30695584Y-105130500D01*
X30695591Y-105130500D01*
X31125036Y-105091850D01*
X31549289Y-105014859D01*
X31964931Y-104900149D01*
X32368619Y-104748643D01*
X32757100Y-104561560D01*
X33127247Y-104340407D01*
X33476080Y-104086965D01*
X33800790Y-103803274D01*
X34098764Y-103491619D01*
X34367601Y-103154507D01*
X34605137Y-102794655D01*
X34809461Y-102414958D01*
X34978926Y-102018475D01*
X35112168Y-101608397D01*
X35208115Y-101188026D01*
X35265994Y-100760747D01*
X35285339Y-100330000D01*
X35265994Y-99899253D01*
X35208115Y-99471974D01*
X35112168Y-99051603D01*
X34978926Y-98641525D01*
X34915376Y-98492843D01*
X34809466Y-98245052D01*
X34809462Y-98245044D01*
X34809461Y-98245042D01*
X34605137Y-97865345D01*
X34474854Y-97667974D01*
X34367605Y-97505498D01*
X34367595Y-97505485D01*
X34098774Y-97168392D01*
X34098762Y-97168379D01*
X33800794Y-96856730D01*
X33800793Y-96856729D01*
X33800790Y-96856726D01*
X33476080Y-96573035D01*
X33285008Y-96434213D01*
X33127256Y-96319599D01*
X33127251Y-96319596D01*
X33127247Y-96319593D01*
X32757100Y-96098440D01*
X32757095Y-96098437D01*
X32757093Y-96098436D01*
X32368627Y-95911360D01*
X32368613Y-95911354D01*
X31964944Y-95759855D01*
X31964919Y-95759847D01*
X31549295Y-95645142D01*
X31125043Y-95568151D01*
X31125040Y-95568150D01*
X31125036Y-95568150D01*
X30695591Y-95529500D01*
X30264409Y-95529500D01*
X29834964Y-95568150D01*
X29834960Y-95568150D01*
X29834956Y-95568151D01*
X29410704Y-95645142D01*
X28995080Y-95759847D01*
X28995055Y-95759855D01*
X28591386Y-95911354D01*
X28591372Y-95911360D01*
X28202906Y-96098436D01*
X28202904Y-96098437D01*
X27832743Y-96319599D01*
X27483931Y-96573026D01*
X27483914Y-96573039D01*
X27159210Y-96856726D01*
X27159205Y-96856730D01*
X26861237Y-97168379D01*
X26861225Y-97168392D01*
X26592404Y-97505485D01*
X26592394Y-97505498D01*
X26354867Y-97865337D01*
X26354867Y-97865338D01*
X26150537Y-98245044D01*
X26150533Y-98245052D01*
X25981076Y-98641519D01*
X25981073Y-98641527D01*
X25847830Y-99051608D01*
X25751885Y-99471972D01*
X25694006Y-99899253D01*
X25694005Y-99899262D01*
X25674661Y-100329996D01*
X25674661Y-100330003D01*
X20000000Y-100330003D01*
X20000000Y-55000000D01*
X44108173Y-55000000D01*
X44127928Y-55792142D01*
X44187143Y-56582315D01*
X44282952Y-57346847D01*
X44285674Y-57368569D01*
X44418085Y-58119512D01*
X44423268Y-58148904D01*
X44591149Y-58884440D01*
X44599591Y-58921424D01*
X44599590Y-58921424D01*
X44800849Y-59636738D01*
X44814202Y-59684198D01*
X45066567Y-60435325D01*
X45179316Y-60722604D01*
X45356061Y-61172945D01*
X45356061Y-61172946D01*
X45650798Y-61826146D01*
X45681959Y-61895205D01*
X45796178Y-62117997D01*
X46043450Y-62600321D01*
X46043455Y-62600329D01*
X46439649Y-63286558D01*
X46439650Y-63286559D01*
X46439649Y-63286559D01*
X46496799Y-63375044D01*
X46869556Y-63952185D01*
X46869561Y-63952193D01*
X46869565Y-63952198D01*
X47332109Y-64595557D01*
X47332110Y-64595557D01*
X47579591Y-64905889D01*
X47826162Y-65215079D01*
X48350470Y-65809192D01*
X48370198Y-65829418D01*
X48402917Y-65891153D01*
X48397065Y-65960777D01*
X48354500Y-66016185D01*
X48288737Y-66039785D01*
X48281432Y-66040000D01*
X44450000Y-66040000D01*
X44450000Y-77470000D01*
X52875500Y-77470000D01*
X52942539Y-77489685D01*
X52988294Y-77542489D01*
X52999500Y-77594000D01*
X52999500Y-79143082D01*
X53009377Y-79211784D01*
X53009850Y-79216184D01*
X53014804Y-79285430D01*
X53014804Y-79285433D01*
X53029560Y-79353259D01*
X53030346Y-79357616D01*
X53040224Y-79426318D01*
X53040227Y-79426331D01*
X53059778Y-79492915D01*
X53060873Y-79497205D01*
X53075631Y-79565048D01*
X53099891Y-79630092D01*
X53101289Y-79634292D01*
X53120845Y-79700891D01*
X53149678Y-79764029D01*
X53151372Y-79768117D01*
X53175633Y-79833161D01*
X53208910Y-79894104D01*
X53210883Y-79898046D01*
X53239715Y-79961182D01*
X53239720Y-79961192D01*
X53277250Y-80019589D01*
X53279509Y-80023396D01*
X53312770Y-80084309D01*
X53312771Y-80084310D01*
X53312774Y-80084315D01*
X53354366Y-80139875D01*
X53356883Y-80143499D01*
X53394426Y-80201917D01*
X53394427Y-80201918D01*
X53394430Y-80201923D01*
X53439884Y-80254378D01*
X53442661Y-80257825D01*
X53484259Y-80313393D01*
X53484269Y-80313404D01*
X53509590Y-80338724D01*
X53534912Y-80364046D01*
X56484261Y-83313395D01*
X57484261Y-84313395D01*
X57686594Y-84515729D01*
X57686600Y-84515734D01*
X57686605Y-84515739D01*
X57742186Y-84557346D01*
X57745611Y-84560107D01*
X57798082Y-84605573D01*
X57856482Y-84643104D01*
X57860107Y-84645621D01*
X57915682Y-84687224D01*
X57915690Y-84687229D01*
X57976603Y-84720490D01*
X57980405Y-84722745D01*
X58038813Y-84760282D01*
X58101976Y-84789127D01*
X58105885Y-84791083D01*
X58166839Y-84824367D01*
X58231900Y-84848632D01*
X58235945Y-84850308D01*
X58299111Y-84879156D01*
X58299115Y-84879157D01*
X58299117Y-84879158D01*
X58313985Y-84883523D01*
X58365721Y-84898714D01*
X58369887Y-84900100D01*
X58434954Y-84924369D01*
X58434957Y-84924369D01*
X58434961Y-84924371D01*
X58469199Y-84931818D01*
X58502805Y-84939129D01*
X58507069Y-84940217D01*
X58573677Y-84959775D01*
X58642392Y-84969654D01*
X58646710Y-84970433D01*
X58714572Y-84985196D01*
X58783826Y-84990148D01*
X58788187Y-84990617D01*
X58856921Y-85000500D01*
X58928552Y-85000500D01*
X63120004Y-85000500D01*
X63187043Y-85020185D01*
X63207685Y-85036819D01*
X64963181Y-86792315D01*
X64996666Y-86853638D01*
X64999500Y-86879996D01*
X64999500Y-88120003D01*
X64979815Y-88187042D01*
X64963181Y-88207684D01*
X62570042Y-90600822D01*
X62508719Y-90634307D01*
X62491210Y-90636825D01*
X62449569Y-90639804D01*
X62449563Y-90639805D01*
X62169962Y-90700628D01*
X61901833Y-90800635D01*
X61650690Y-90937770D01*
X61650682Y-90937775D01*
X61421612Y-91109254D01*
X61421594Y-91109270D01*
X61219270Y-91311594D01*
X61219254Y-91311612D01*
X61047775Y-91540682D01*
X61047767Y-91540695D01*
X61043037Y-91549357D01*
X60993629Y-91598759D01*
X60925355Y-91613606D01*
X60860876Y-91589552D01*
X60860836Y-91589610D01*
X60860613Y-91589454D01*
X60859892Y-91589185D01*
X60857346Y-91587166D01*
X60662834Y-91450967D01*
X60662830Y-91450965D01*
X60558978Y-91402538D01*
X60448663Y-91351097D01*
X60448659Y-91351096D01*
X60448655Y-91351094D01*
X60220413Y-91289938D01*
X60220403Y-91289936D01*
X59985001Y-91269341D01*
X59984999Y-91269341D01*
X59749596Y-91289936D01*
X59749586Y-91289938D01*
X59521344Y-91351094D01*
X59521335Y-91351098D01*
X59307171Y-91450964D01*
X59307169Y-91450965D01*
X59113597Y-91586505D01*
X58946508Y-91753594D01*
X58816269Y-91939595D01*
X58761692Y-91983219D01*
X58692193Y-91990412D01*
X58629839Y-91958890D01*
X58613119Y-91939594D01*
X58483113Y-91753926D01*
X58483108Y-91753920D01*
X58316082Y-91586894D01*
X58122578Y-91451399D01*
X57908492Y-91351570D01*
X57908486Y-91351567D01*
X57695000Y-91294364D01*
X57695000Y-92189498D01*
X57587315Y-92140320D01*
X57480763Y-92125000D01*
X57409237Y-92125000D01*
X57302685Y-92140320D01*
X57195000Y-92189498D01*
X57195000Y-91294364D01*
X57194999Y-91294364D01*
X56981513Y-91351567D01*
X56981507Y-91351570D01*
X56767422Y-91451399D01*
X56767420Y-91451400D01*
X56573926Y-91586886D01*
X56573920Y-91586891D01*
X56406891Y-91753920D01*
X56406886Y-91753926D01*
X56271400Y-91947420D01*
X56271399Y-91947422D01*
X56171570Y-92161507D01*
X56171567Y-92161513D01*
X56114364Y-92374999D01*
X56114364Y-92375000D01*
X57011314Y-92375000D01*
X56985507Y-92415156D01*
X56945000Y-92553111D01*
X56945000Y-92696889D01*
X56985507Y-92834844D01*
X57011314Y-92875000D01*
X56114364Y-92875000D01*
X56171567Y-93088486D01*
X56171570Y-93088492D01*
X56271399Y-93302578D01*
X56406894Y-93496082D01*
X56573917Y-93663105D01*
X56767421Y-93798600D01*
X56981507Y-93898429D01*
X56981516Y-93898433D01*
X57195000Y-93955634D01*
X57195000Y-93060501D01*
X57302685Y-93109680D01*
X57409237Y-93125000D01*
X57480763Y-93125000D01*
X57587315Y-93109680D01*
X57695000Y-93060501D01*
X57695000Y-93955633D01*
X57908483Y-93898433D01*
X57908492Y-93898429D01*
X58122578Y-93798600D01*
X58316082Y-93663105D01*
X58483105Y-93496082D01*
X58613119Y-93310405D01*
X58667696Y-93266781D01*
X58737195Y-93259588D01*
X58799549Y-93291110D01*
X58816269Y-93310405D01*
X58946505Y-93496401D01*
X59113599Y-93663495D01*
X59158123Y-93694671D01*
X59307165Y-93799032D01*
X59307167Y-93799033D01*
X59307170Y-93799035D01*
X59521337Y-93898903D01*
X59749592Y-93960063D01*
X59937918Y-93976539D01*
X59984999Y-93980659D01*
X59985000Y-93980659D01*
X59985001Y-93980659D01*
X60024234Y-93977226D01*
X60220408Y-93960063D01*
X60448663Y-93898903D01*
X60662830Y-93799035D01*
X60856401Y-93663495D01*
X60856405Y-93663490D01*
X60860835Y-93660389D01*
X60861871Y-93661869D01*
X60918479Y-93637077D01*
X60987474Y-93648098D01*
X61039557Y-93694671D01*
X61043041Y-93700648D01*
X61047770Y-93709309D01*
X61047775Y-93709317D01*
X61219254Y-93938387D01*
X61219270Y-93938405D01*
X61421594Y-94140729D01*
X61421612Y-94140745D01*
X61650682Y-94312224D01*
X61650690Y-94312229D01*
X61901833Y-94449364D01*
X61901832Y-94449364D01*
X61901836Y-94449365D01*
X61901839Y-94449367D01*
X62169954Y-94549369D01*
X62169960Y-94549370D01*
X62169962Y-94549371D01*
X62449566Y-94610195D01*
X62449568Y-94610195D01*
X62449572Y-94610196D01*
X62663552Y-94625500D01*
X63518076Y-94625500D01*
X63518079Y-94625500D01*
X63586804Y-94615618D01*
X63591177Y-94615148D01*
X63660428Y-94610196D01*
X63728297Y-94595431D01*
X63732604Y-94594654D01*
X63801322Y-94584775D01*
X63867911Y-94565222D01*
X63872195Y-94564127D01*
X63940046Y-94549369D01*
X64005106Y-94525102D01*
X64009272Y-94523715D01*
X64075888Y-94504156D01*
X64139057Y-94475306D01*
X64143083Y-94473639D01*
X64208161Y-94449367D01*
X64269093Y-94416094D01*
X64273036Y-94414121D01*
X64336187Y-94385282D01*
X64394615Y-94347731D01*
X64398380Y-94345498D01*
X64459315Y-94312226D01*
X64514882Y-94270627D01*
X64518509Y-94268109D01*
X64576917Y-94230574D01*
X64629388Y-94185106D01*
X64632823Y-94182339D01*
X64688395Y-94140739D01*
X64787820Y-94041313D01*
X64849141Y-94007830D01*
X64918833Y-94012814D01*
X64974767Y-94054685D01*
X64999184Y-94120149D01*
X64999500Y-94128996D01*
X64999500Y-132143082D01*
X65009377Y-132211784D01*
X65009850Y-132216184D01*
X65014804Y-132285430D01*
X65014804Y-132285433D01*
X65029560Y-132353259D01*
X65030346Y-132357616D01*
X65040224Y-132426318D01*
X65040227Y-132426331D01*
X65059778Y-132492915D01*
X65060873Y-132497205D01*
X65075631Y-132565048D01*
X65099891Y-132630092D01*
X65101289Y-132634292D01*
X65120845Y-132700891D01*
X65149678Y-132764029D01*
X65151372Y-132768117D01*
X65175633Y-132833161D01*
X65208910Y-132894104D01*
X65210883Y-132898046D01*
X65239715Y-132961182D01*
X65239720Y-132961192D01*
X65277250Y-133019589D01*
X65279509Y-133023396D01*
X65312770Y-133084309D01*
X65312771Y-133084310D01*
X65312774Y-133084315D01*
X65354366Y-133139875D01*
X65356883Y-133143499D01*
X65394426Y-133201917D01*
X65394427Y-133201918D01*
X65394430Y-133201923D01*
X65439884Y-133254378D01*
X65442661Y-133257825D01*
X65484259Y-133313393D01*
X65484269Y-133313404D01*
X65509590Y-133338724D01*
X65534912Y-133364046D01*
X68548547Y-136377681D01*
X71484261Y-139313395D01*
X71686594Y-139515729D01*
X71686600Y-139515734D01*
X71686605Y-139515739D01*
X71742186Y-139557346D01*
X71745611Y-139560107D01*
X71798082Y-139605573D01*
X71856482Y-139643104D01*
X71860107Y-139645621D01*
X71915682Y-139687224D01*
X71915690Y-139687229D01*
X71976603Y-139720490D01*
X71980405Y-139722745D01*
X72038813Y-139760282D01*
X72101976Y-139789127D01*
X72105885Y-139791083D01*
X72166839Y-139824367D01*
X72231900Y-139848632D01*
X72235945Y-139850308D01*
X72299111Y-139879156D01*
X72299115Y-139879157D01*
X72299117Y-139879158D01*
X72313985Y-139883523D01*
X72365721Y-139898714D01*
X72369887Y-139900100D01*
X72434954Y-139924369D01*
X72434957Y-139924369D01*
X72434961Y-139924371D01*
X72469199Y-139931818D01*
X72502805Y-139939129D01*
X72507069Y-139940217D01*
X72573677Y-139959775D01*
X72642392Y-139969654D01*
X72646710Y-139970433D01*
X72714572Y-139985196D01*
X72783826Y-139990148D01*
X72788187Y-139990617D01*
X72856921Y-140000500D01*
X72928552Y-140000500D01*
X90120004Y-140000500D01*
X90187043Y-140020185D01*
X90207685Y-140036819D01*
X98083184Y-147912319D01*
X98116669Y-147973642D01*
X98111685Y-148043334D01*
X98083184Y-148087681D01*
X94207685Y-151963181D01*
X94146362Y-151996666D01*
X94120004Y-151999500D01*
X92321887Y-151999500D01*
X92254848Y-151979815D01*
X92209093Y-151927011D01*
X92205705Y-151918832D01*
X92199367Y-151901839D01*
X92186034Y-151877422D01*
X92062229Y-151650690D01*
X92062224Y-151650682D01*
X91890745Y-151421612D01*
X91890729Y-151421594D01*
X91688405Y-151219270D01*
X91688387Y-151219254D01*
X91459317Y-151047775D01*
X91459309Y-151047770D01*
X91450648Y-151043041D01*
X91401243Y-150993636D01*
X91386391Y-150925363D01*
X91410444Y-150860873D01*
X91410389Y-150860835D01*
X91410538Y-150860621D01*
X91410808Y-150859899D01*
X91412827Y-150857352D01*
X91413488Y-150856407D01*
X91413495Y-150856401D01*
X91549035Y-150662830D01*
X91648903Y-150448663D01*
X91710063Y-150220408D01*
X91730659Y-149985000D01*
X91710063Y-149749592D01*
X91661449Y-149568161D01*
X91648905Y-149521344D01*
X91648904Y-149521343D01*
X91648903Y-149521337D01*
X91549035Y-149307171D01*
X91537173Y-149290229D01*
X91413494Y-149113597D01*
X91246402Y-148946506D01*
X91246401Y-148946505D01*
X91060405Y-148816269D01*
X91016781Y-148761692D01*
X91009588Y-148692193D01*
X91041110Y-148629839D01*
X91060405Y-148613119D01*
X91246082Y-148483105D01*
X91413105Y-148316082D01*
X91548600Y-148122578D01*
X91648429Y-147908492D01*
X91648432Y-147908486D01*
X91705636Y-147695000D01*
X90808686Y-147695000D01*
X90834493Y-147654844D01*
X90875000Y-147516889D01*
X90875000Y-147373111D01*
X90834493Y-147235156D01*
X90808686Y-147195000D01*
X91705636Y-147195000D01*
X91705635Y-147194999D01*
X91648432Y-146981513D01*
X91648429Y-146981507D01*
X91548600Y-146767422D01*
X91548599Y-146767420D01*
X91413113Y-146573926D01*
X91413108Y-146573920D01*
X91246082Y-146406894D01*
X91052578Y-146271399D01*
X90838492Y-146171570D01*
X90838486Y-146171567D01*
X90625000Y-146114364D01*
X90625000Y-147009498D01*
X90517315Y-146960320D01*
X90410763Y-146945000D01*
X90339237Y-146945000D01*
X90232685Y-146960320D01*
X90125000Y-147009498D01*
X90125000Y-146114364D01*
X90124999Y-146114364D01*
X89911513Y-146171567D01*
X89911507Y-146171570D01*
X89697422Y-146271399D01*
X89697420Y-146271400D01*
X89503926Y-146406886D01*
X89503920Y-146406891D01*
X89336891Y-146573920D01*
X89336886Y-146573926D01*
X89201400Y-146767420D01*
X89201399Y-146767422D01*
X89101570Y-146981507D01*
X89101567Y-146981513D01*
X89044364Y-147194999D01*
X89044364Y-147195000D01*
X89941314Y-147195000D01*
X89915507Y-147235156D01*
X89875000Y-147373111D01*
X89875000Y-147516889D01*
X89915507Y-147654844D01*
X89941314Y-147695000D01*
X89044364Y-147695000D01*
X89101567Y-147908486D01*
X89101570Y-147908492D01*
X89201399Y-148122578D01*
X89336894Y-148316082D01*
X89503917Y-148483105D01*
X89689595Y-148613119D01*
X89733219Y-148667696D01*
X89740412Y-148737195D01*
X89708890Y-148799549D01*
X89689595Y-148816269D01*
X89503594Y-148946508D01*
X89336505Y-149113597D01*
X89200965Y-149307169D01*
X89200964Y-149307171D01*
X89101098Y-149521335D01*
X89101094Y-149521344D01*
X89039938Y-149749586D01*
X89039936Y-149749596D01*
X89019341Y-149984999D01*
X89019341Y-149985000D01*
X89039936Y-150220403D01*
X89039938Y-150220413D01*
X89101094Y-150448655D01*
X89101096Y-150448659D01*
X89101097Y-150448663D01*
X89125269Y-150500499D01*
X89200965Y-150662830D01*
X89200967Y-150662834D01*
X89281679Y-150778102D01*
X89304006Y-150844308D01*
X89286996Y-150912075D01*
X89236048Y-150959888D01*
X89231621Y-150962017D01*
X89203813Y-150974717D01*
X89145408Y-151012251D01*
X89141603Y-151014509D01*
X89080685Y-151047773D01*
X89025122Y-151089366D01*
X89021488Y-151091889D01*
X88963088Y-151129421D01*
X88963080Y-151129427D01*
X88910616Y-151174887D01*
X88907170Y-151177664D01*
X88851608Y-151219258D01*
X88851593Y-151219271D01*
X88817834Y-151253031D01*
X88800954Y-151269912D01*
X88738564Y-151332302D01*
X88686605Y-151384261D01*
X88484271Y-151586593D01*
X88484258Y-151586608D01*
X88442664Y-151642170D01*
X88439887Y-151645616D01*
X88394434Y-151698072D01*
X88394420Y-151698091D01*
X88356896Y-151756478D01*
X88354373Y-151760113D01*
X88312777Y-151815680D01*
X88279507Y-151876605D01*
X88277250Y-151880410D01*
X88239720Y-151938809D01*
X88210882Y-152001953D01*
X88208901Y-152005911D01*
X88175634Y-152066836D01*
X88175629Y-152066846D01*
X88151373Y-152131879D01*
X88149680Y-152135967D01*
X88120842Y-152199115D01*
X88120841Y-152199119D01*
X88101286Y-152265715D01*
X88099888Y-152269914D01*
X88075632Y-152334947D01*
X88075631Y-152334952D01*
X88060871Y-152402798D01*
X88059777Y-152407086D01*
X88040226Y-152473674D01*
X88040224Y-152473683D01*
X88030344Y-152542386D01*
X88029559Y-152546740D01*
X88014804Y-152614570D01*
X88014803Y-152614574D01*
X88009850Y-152683815D01*
X88009377Y-152688213D01*
X87999500Y-152756915D01*
X87999500Y-153926338D01*
X87999342Y-153930762D01*
X87994390Y-153999998D01*
X87994390Y-154000002D01*
X87999062Y-154065336D01*
X87999063Y-154065343D01*
X88014804Y-154285433D01*
X88075628Y-154565037D01*
X88075630Y-154565043D01*
X88075631Y-154565046D01*
X88175633Y-154833161D01*
X88175635Y-154833166D01*
X88312770Y-155084309D01*
X88312775Y-155084317D01*
X88484254Y-155313387D01*
X88484270Y-155313405D01*
X88686594Y-155515729D01*
X88686612Y-155515745D01*
X88915682Y-155687224D01*
X88915690Y-155687229D01*
X89166833Y-155824364D01*
X89166832Y-155824364D01*
X89166836Y-155824365D01*
X89166839Y-155824367D01*
X89434954Y-155924369D01*
X89434960Y-155924370D01*
X89434962Y-155924371D01*
X89714566Y-155985195D01*
X89714568Y-155985195D01*
X89714572Y-155985196D01*
X89968220Y-156003337D01*
X89999999Y-156005610D01*
X90000000Y-156005610D01*
X90000001Y-156005610D01*
X90037535Y-156002925D01*
X90069239Y-156000657D01*
X90073662Y-156000500D01*
X94120004Y-156000500D01*
X94187043Y-156020185D01*
X94207685Y-156036819D01*
X101005681Y-162834815D01*
X101039166Y-162896138D01*
X101042000Y-162922496D01*
X101042000Y-164750249D01*
X101022315Y-164817288D01*
X100992312Y-164849515D01*
X100934957Y-164892451D01*
X100934951Y-164892457D01*
X100848706Y-165007664D01*
X100848702Y-165007671D01*
X100798408Y-165142517D01*
X100792001Y-165202116D01*
X100792000Y-165202135D01*
X100792000Y-168797870D01*
X100792001Y-168797876D01*
X100798408Y-168857483D01*
X100848702Y-168992328D01*
X100848706Y-168992335D01*
X100934952Y-169107544D01*
X100934955Y-169107547D01*
X101050164Y-169193793D01*
X101050171Y-169193797D01*
X101185017Y-169244091D01*
X101185016Y-169244091D01*
X101191944Y-169244835D01*
X101244627Y-169250500D01*
X104840372Y-169250499D01*
X104899983Y-169244091D01*
X105034831Y-169193796D01*
X105150046Y-169107546D01*
X105236296Y-168992331D01*
X105254512Y-168943491D01*
X105296380Y-168887560D01*
X105361844Y-168863141D01*
X105430117Y-168877991D01*
X105479524Y-168927396D01*
X105494518Y-168993401D01*
X105492500Y-169031407D01*
X105492500Y-169750000D01*
X107242500Y-169750000D01*
X107242500Y-170250000D01*
X105492501Y-170250000D01*
X105492501Y-170968591D01*
X105495294Y-171021190D01*
X105539737Y-171250987D01*
X105622379Y-171469975D01*
X105740839Y-171671841D01*
X105740844Y-171671848D01*
X105891711Y-171850786D01*
X105891713Y-171850788D01*
X106070651Y-172001655D01*
X106070658Y-172001660D01*
X106272524Y-172120120D01*
X106491512Y-172202762D01*
X106721308Y-172247205D01*
X106773908Y-172249999D01*
X107492499Y-172249999D01*
X107492500Y-172249998D01*
X107492500Y-171433686D01*
X107532656Y-171459493D01*
X107670611Y-171500000D01*
X107814389Y-171500000D01*
X107952344Y-171459493D01*
X107992500Y-171433686D01*
X107992500Y-172249999D01*
X108711091Y-172249999D01*
X108763690Y-172247205D01*
X108993487Y-172202762D01*
X109212475Y-172120120D01*
X109414341Y-172001660D01*
X109414348Y-172001655D01*
X109593286Y-171850788D01*
X109593288Y-171850786D01*
X109744155Y-171671848D01*
X109744160Y-171671841D01*
X109862620Y-171469975D01*
X109945262Y-171250987D01*
X109989705Y-171021191D01*
X109989705Y-171021190D01*
X109992500Y-170968591D01*
X109992500Y-170250000D01*
X108242500Y-170250000D01*
X108242500Y-169750000D01*
X109992499Y-169750000D01*
X109992499Y-169031409D01*
X109989705Y-168978809D01*
X109945262Y-168749012D01*
X109862620Y-168530024D01*
X109744160Y-168328158D01*
X109744155Y-168328151D01*
X109593288Y-168149213D01*
X109593286Y-168149211D01*
X109414348Y-167998344D01*
X109414341Y-167998339D01*
X109212475Y-167879879D01*
X108993487Y-167797237D01*
X108763691Y-167752794D01*
X108711091Y-167750000D01*
X107992500Y-167750000D01*
X107992500Y-168566313D01*
X107952344Y-168540507D01*
X107814389Y-168500000D01*
X107670611Y-168500000D01*
X107532656Y-168540507D01*
X107492500Y-168566313D01*
X107492500Y-167750000D01*
X107492499Y-167750000D01*
X106773909Y-167750001D01*
X106721309Y-167752794D01*
X106491512Y-167797237D01*
X106272524Y-167879879D01*
X106070658Y-167998339D01*
X106070651Y-167998344D01*
X105891713Y-168149211D01*
X105891711Y-168149213D01*
X105740844Y-168328151D01*
X105740839Y-168328158D01*
X105622379Y-168530024D01*
X105539736Y-168749014D01*
X105538741Y-168754161D01*
X105506679Y-168816240D01*
X105446144Y-168851130D01*
X105376356Y-168847754D01*
X105319472Y-168807184D01*
X105293552Y-168742300D01*
X105292999Y-168730623D01*
X105292999Y-167629994D01*
X105312684Y-167562956D01*
X105329313Y-167542319D01*
X111834815Y-161036819D01*
X111896138Y-161003334D01*
X111922496Y-161000500D01*
X144143076Y-161000500D01*
X144143079Y-161000500D01*
X144211804Y-160990618D01*
X144216177Y-160990148D01*
X144285428Y-160985196D01*
X144353297Y-160970431D01*
X144357604Y-160969654D01*
X144426322Y-160959775D01*
X144492911Y-160940222D01*
X144497195Y-160939127D01*
X144565046Y-160924369D01*
X144630106Y-160900102D01*
X144634272Y-160898715D01*
X144700888Y-160879156D01*
X144764057Y-160850306D01*
X144768083Y-160848639D01*
X144833161Y-160824367D01*
X144894093Y-160791094D01*
X144898036Y-160789121D01*
X144903896Y-160786445D01*
X144961187Y-160760282D01*
X145019615Y-160722731D01*
X145023380Y-160720498D01*
X145084315Y-160687226D01*
X145139882Y-160645627D01*
X145143509Y-160643109D01*
X145201917Y-160605574D01*
X145254388Y-160560106D01*
X145257823Y-160557339D01*
X145312998Y-160516036D01*
X145313395Y-160515739D01*
X145515739Y-160313395D01*
X145829134Y-160000000D01*
X153094671Y-160000000D01*
X153113979Y-160516031D01*
X153171797Y-161029176D01*
X153171796Y-161029176D01*
X153267802Y-161536579D01*
X153267802Y-161536580D01*
X153401455Y-162035381D01*
X153572011Y-162522800D01*
X153778514Y-162996110D01*
X153778517Y-162996115D01*
X154019807Y-163452660D01*
X154128511Y-163625661D01*
X154294549Y-163889910D01*
X154601196Y-164305402D01*
X154938036Y-164696817D01*
X155303183Y-165061964D01*
X155694598Y-165398804D01*
X156110088Y-165705449D01*
X156110093Y-165705453D01*
X156547339Y-165980193D01*
X156547338Y-165980192D01*
X156792477Y-166109751D01*
X157003890Y-166221486D01*
X157477200Y-166427989D01*
X157477205Y-166427990D01*
X157477208Y-166427992D01*
X157570382Y-166460595D01*
X157964619Y-166598545D01*
X158463420Y-166732198D01*
X158786552Y-166793337D01*
X158970824Y-166828204D01*
X158970824Y-166828203D01*
X159061253Y-166838392D01*
X159483969Y-166886021D01*
X160000000Y-166905329D01*
X160516031Y-166886021D01*
X160938747Y-166838392D01*
X161029176Y-166828203D01*
X161029176Y-166828204D01*
X161213447Y-166793337D01*
X161536580Y-166732198D01*
X162035381Y-166598545D01*
X162429617Y-166460595D01*
X162522792Y-166427992D01*
X162522794Y-166427990D01*
X162522800Y-166427989D01*
X162996110Y-166221486D01*
X163207521Y-166109751D01*
X163452661Y-165980192D01*
X163452660Y-165980193D01*
X163789663Y-165768440D01*
X163889910Y-165705451D01*
X164058056Y-165581354D01*
X164305399Y-165398806D01*
X164305402Y-165398804D01*
X164696817Y-165061964D01*
X165061964Y-164696817D01*
X165398804Y-164305402D01*
X165705451Y-163889910D01*
X165980190Y-163452665D01*
X165980192Y-163452662D01*
X165980193Y-163452661D01*
X166221483Y-162996115D01*
X166221486Y-162996110D01*
X166427989Y-162522800D01*
X166598545Y-162035381D01*
X166732198Y-161536580D01*
X166732198Y-161536579D01*
X166828204Y-161029176D01*
X166828203Y-161029176D01*
X166886021Y-160516031D01*
X166905329Y-160000000D01*
X166886021Y-159483969D01*
X166828203Y-158970824D01*
X166828204Y-158970824D01*
X166732198Y-158463421D01*
X166732198Y-158463420D01*
X166598545Y-157964619D01*
X166427989Y-157477200D01*
X166221486Y-157003890D01*
X166109751Y-156792478D01*
X165980192Y-156547339D01*
X165980193Y-156547340D01*
X165871488Y-156374338D01*
X165705451Y-156110090D01*
X165398804Y-155694598D01*
X165070752Y-155313395D01*
X165061966Y-155303185D01*
X164696815Y-154938034D01*
X164569980Y-154828884D01*
X164305402Y-154601196D01*
X163889910Y-154294549D01*
X163875394Y-154285428D01*
X163452661Y-154019807D01*
X163452662Y-154019808D01*
X163090554Y-153828429D01*
X162996110Y-153778514D01*
X162522800Y-153572011D01*
X162522794Y-153572009D01*
X162522792Y-153572008D01*
X162429617Y-153539405D01*
X162035381Y-153401455D01*
X161536580Y-153267802D01*
X161213447Y-153206662D01*
X161029176Y-153171796D01*
X160913745Y-153158791D01*
X160516031Y-153113979D01*
X160000000Y-153094671D01*
X159483969Y-153113979D01*
X159086254Y-153158791D01*
X158970824Y-153171796D01*
X158786552Y-153206662D01*
X158463420Y-153267802D01*
X157964619Y-153401455D01*
X157570382Y-153539405D01*
X157477208Y-153572008D01*
X157477205Y-153572009D01*
X157477200Y-153572011D01*
X157003890Y-153778514D01*
X156909446Y-153828429D01*
X156547338Y-154019808D01*
X156547339Y-154019807D01*
X156124606Y-154285428D01*
X156110090Y-154294549D01*
X155694598Y-154601196D01*
X155430019Y-154828884D01*
X155303185Y-154938034D01*
X154938034Y-155303185D01*
X154929248Y-155313395D01*
X154601196Y-155694598D01*
X154294549Y-156110090D01*
X154128511Y-156374338D01*
X154019807Y-156547340D01*
X154019808Y-156547339D01*
X153890248Y-156792478D01*
X153778514Y-157003890D01*
X153572011Y-157477200D01*
X153401455Y-157964619D01*
X153267802Y-158463420D01*
X153267802Y-158463421D01*
X153171796Y-158970824D01*
X153171797Y-158970824D01*
X153113979Y-159483969D01*
X153094671Y-160000000D01*
X145829134Y-160000000D01*
X155292315Y-150536819D01*
X155353638Y-150503334D01*
X155379996Y-150500500D01*
X175573624Y-150500500D01*
X175573652Y-150500499D01*
X176547871Y-150500499D01*
X176547872Y-150500499D01*
X176607483Y-150494091D01*
X176742331Y-150443796D01*
X176857546Y-150357546D01*
X176943796Y-150242331D01*
X176994091Y-150107483D01*
X177000500Y-150047873D01*
X177000499Y-149875025D01*
X177020183Y-149807986D01*
X177025232Y-149800715D01*
X177153715Y-149629080D01*
X177187226Y-149584315D01*
X177324367Y-149333161D01*
X177424369Y-149065046D01*
X177447127Y-148960427D01*
X177485195Y-148785433D01*
X177485195Y-148785432D01*
X177485196Y-148785428D01*
X177505610Y-148500000D01*
X177485196Y-148214572D01*
X177459873Y-148098166D01*
X177424371Y-147934962D01*
X177424370Y-147934960D01*
X177424369Y-147934954D01*
X177324367Y-147666839D01*
X177260804Y-147550433D01*
X177187229Y-147415690D01*
X177187224Y-147415682D01*
X177025232Y-147199285D01*
X177000815Y-147133821D01*
X177000499Y-147124975D01*
X177000499Y-146952129D01*
X177000498Y-146952123D01*
X176999732Y-146945000D01*
X176994091Y-146892517D01*
X176980358Y-146855698D01*
X176943797Y-146757671D01*
X176943793Y-146757664D01*
X176857547Y-146642455D01*
X176857544Y-146642452D01*
X176742335Y-146556206D01*
X176742328Y-146556202D01*
X176607482Y-146505908D01*
X176607483Y-146505908D01*
X176547883Y-146499501D01*
X176547881Y-146499500D01*
X176547873Y-146499500D01*
X175571454Y-146499500D01*
X175571448Y-146499500D01*
X169571448Y-146499500D01*
X154643079Y-146499500D01*
X154356921Y-146499500D01*
X154356915Y-146499500D01*
X154288212Y-146509377D01*
X154283814Y-146509850D01*
X154214569Y-146514804D01*
X154146732Y-146529559D01*
X154142380Y-146530344D01*
X154073683Y-146540224D01*
X154073680Y-146540224D01*
X154073677Y-146540225D01*
X154073674Y-146540225D01*
X154073668Y-146540227D01*
X154007078Y-146559778D01*
X154002791Y-146560873D01*
X153934951Y-146575631D01*
X153869918Y-146599887D01*
X153865718Y-146601285D01*
X153799122Y-146620840D01*
X153799110Y-146620844D01*
X153735977Y-146649676D01*
X153731888Y-146651370D01*
X153666842Y-146675631D01*
X153666831Y-146675636D01*
X153605917Y-146708898D01*
X153601960Y-146710878D01*
X153538815Y-146739716D01*
X153538813Y-146739717D01*
X153480408Y-146777251D01*
X153476603Y-146779509D01*
X153415685Y-146812773D01*
X153360122Y-146854366D01*
X153356488Y-146856889D01*
X153298088Y-146894421D01*
X153298080Y-146894427D01*
X153245616Y-146939887D01*
X153242170Y-146942664D01*
X153186608Y-146984258D01*
X153186593Y-146984271D01*
X153152834Y-147018031D01*
X153135954Y-147034912D01*
X148171366Y-151999500D01*
X143207685Y-156963181D01*
X143146362Y-156996666D01*
X143120004Y-156999500D01*
X110971052Y-156999500D01*
X110971049Y-156999500D01*
X110971027Y-156999501D01*
X110899420Y-156999501D01*
X110830722Y-157009378D01*
X110826321Y-157009851D01*
X110757071Y-157014804D01*
X110757067Y-157014804D01*
X110689225Y-157029561D01*
X110684871Y-157030346D01*
X110616175Y-157040225D01*
X110549578Y-157059778D01*
X110545291Y-157060873D01*
X110477451Y-157075631D01*
X110412418Y-157099887D01*
X110408218Y-157101285D01*
X110341622Y-157120840D01*
X110341610Y-157120844D01*
X110278477Y-157149676D01*
X110274388Y-157151370D01*
X110209342Y-157175631D01*
X110209331Y-157175636D01*
X110148417Y-157208898D01*
X110144460Y-157210878D01*
X110081315Y-157239716D01*
X110081313Y-157239717D01*
X110022908Y-157277251D01*
X110019103Y-157279509D01*
X109958185Y-157312773D01*
X109902622Y-157354366D01*
X109898988Y-157356889D01*
X109840588Y-157394421D01*
X109840580Y-157394427D01*
X109788116Y-157439887D01*
X109784670Y-157442664D01*
X109729108Y-157484258D01*
X109729093Y-157484271D01*
X109695334Y-157518031D01*
X109678454Y-157534912D01*
X108242552Y-158970814D01*
X105252223Y-161961142D01*
X105190900Y-161994627D01*
X105121208Y-161989643D01*
X105065275Y-161947771D01*
X105041805Y-161891112D01*
X105033118Y-161830696D01*
X105032646Y-161826301D01*
X105027696Y-161757072D01*
X105012940Y-161689243D01*
X105012155Y-161684899D01*
X105002276Y-161616178D01*
X104982709Y-161549544D01*
X104981628Y-161545305D01*
X104966869Y-161477454D01*
X104942607Y-161412405D01*
X104941216Y-161408229D01*
X104921656Y-161341612D01*
X104892812Y-161278453D01*
X104891134Y-161274405D01*
X104866867Y-161209339D01*
X104833600Y-161148416D01*
X104831618Y-161144456D01*
X104802785Y-161081319D01*
X104802782Y-161081313D01*
X104765235Y-161022888D01*
X104762994Y-161019110D01*
X104729726Y-160958185D01*
X104688126Y-160902614D01*
X104685620Y-160899006D01*
X104648074Y-160840583D01*
X104602603Y-160788107D01*
X104599837Y-160784674D01*
X104558239Y-160729105D01*
X104558233Y-160729099D01*
X104558229Y-160729094D01*
X104355895Y-160526761D01*
X97916815Y-154087681D01*
X97883330Y-154026358D01*
X97888314Y-153956666D01*
X97916815Y-153912319D01*
X99823223Y-152005911D01*
X101730088Y-150099046D01*
X101780739Y-150048395D01*
X101822347Y-149992811D01*
X101825111Y-149989382D01*
X101870573Y-149936918D01*
X101908119Y-149878492D01*
X101910625Y-149874886D01*
X101952226Y-149819315D01*
X101985494Y-149758387D01*
X101987746Y-149754593D01*
X102025282Y-149696187D01*
X102054120Y-149633040D01*
X102056102Y-149629080D01*
X102089367Y-149568161D01*
X102113632Y-149503099D01*
X102115310Y-149499049D01*
X102144156Y-149435889D01*
X102163719Y-149369260D01*
X102165100Y-149365111D01*
X102172169Y-149346160D01*
X102214043Y-149290229D01*
X102279509Y-149265815D01*
X102288348Y-149265500D01*
X109289745Y-149265500D01*
X109356784Y-149285185D01*
X109402539Y-149337989D01*
X109412483Y-149407147D01*
X109402128Y-149441901D01*
X109381455Y-149486233D01*
X109351097Y-149551335D01*
X109351094Y-149551344D01*
X109289938Y-149779586D01*
X109289936Y-149779596D01*
X109269341Y-150014999D01*
X109269341Y-150015000D01*
X109289936Y-150250403D01*
X109289938Y-150250413D01*
X109351094Y-150478655D01*
X109351096Y-150478659D01*
X109351097Y-150478663D01*
X109378216Y-150536819D01*
X109450965Y-150692830D01*
X109450967Y-150692834D01*
X109510673Y-150778102D01*
X109586505Y-150886401D01*
X109753599Y-151053495D01*
X109862032Y-151129421D01*
X109939594Y-151183730D01*
X109983219Y-151238307D01*
X109990413Y-151307805D01*
X109958890Y-151370160D01*
X109939595Y-151386880D01*
X109753922Y-151516890D01*
X109753920Y-151516891D01*
X109586891Y-151683920D01*
X109586886Y-151683926D01*
X109451400Y-151877420D01*
X109451399Y-151877422D01*
X109351570Y-152091507D01*
X109351567Y-152091513D01*
X109294364Y-152304999D01*
X109294364Y-152305000D01*
X110191314Y-152305000D01*
X110165507Y-152345156D01*
X110125000Y-152483111D01*
X110125000Y-152626889D01*
X110165507Y-152764844D01*
X110191314Y-152805000D01*
X109294364Y-152805000D01*
X109351567Y-153018486D01*
X109351570Y-153018492D01*
X109451399Y-153232578D01*
X109586894Y-153426082D01*
X109753917Y-153593105D01*
X109947421Y-153728600D01*
X110161507Y-153828429D01*
X110161516Y-153828433D01*
X110375000Y-153885634D01*
X110375000Y-152990501D01*
X110482685Y-153039680D01*
X110589237Y-153055000D01*
X110660763Y-153055000D01*
X110767315Y-153039680D01*
X110875000Y-152990501D01*
X110875000Y-153885633D01*
X111088483Y-153828433D01*
X111088492Y-153828429D01*
X111302578Y-153728600D01*
X111496082Y-153593105D01*
X111663105Y-153426082D01*
X111798600Y-153232578D01*
X111898429Y-153018492D01*
X111898432Y-153018486D01*
X111955636Y-152805000D01*
X111058686Y-152805000D01*
X111084493Y-152764844D01*
X111125000Y-152626889D01*
X111125000Y-152483111D01*
X111084493Y-152345156D01*
X111058686Y-152305000D01*
X111955636Y-152305000D01*
X111955635Y-152304999D01*
X111898432Y-152091513D01*
X111898429Y-152091507D01*
X111798600Y-151877422D01*
X111798599Y-151877420D01*
X111663113Y-151683926D01*
X111663108Y-151683920D01*
X111496078Y-151516890D01*
X111310405Y-151386879D01*
X111266780Y-151332302D01*
X111259588Y-151262804D01*
X111291110Y-151200449D01*
X111310406Y-151183730D01*
X111323035Y-151174887D01*
X111496401Y-151053495D01*
X111663495Y-150886401D01*
X111799035Y-150692830D01*
X111898903Y-150478663D01*
X111960063Y-150250408D01*
X111980659Y-150015000D01*
X111960063Y-149779592D01*
X111898903Y-149551337D01*
X111799035Y-149337171D01*
X111796231Y-149333166D01*
X111660390Y-149139164D01*
X111661864Y-149138131D01*
X111637074Y-149081493D01*
X111648111Y-149012501D01*
X111694695Y-148960427D01*
X111700643Y-148956961D01*
X111709315Y-148952226D01*
X111938395Y-148780739D01*
X112140739Y-148578395D01*
X112312226Y-148349315D01*
X112449367Y-148098161D01*
X112549369Y-147830046D01*
X112610196Y-147550428D01*
X112630610Y-147265000D01*
X112610196Y-146979572D01*
X112602675Y-146945000D01*
X112549371Y-146699962D01*
X112549370Y-146699960D01*
X112549369Y-146699954D01*
X112449367Y-146431839D01*
X112435744Y-146406891D01*
X112312229Y-146180690D01*
X112312224Y-146180682D01*
X112140745Y-145951612D01*
X112140729Y-145951594D01*
X111938405Y-145749270D01*
X111938387Y-145749254D01*
X111709317Y-145577775D01*
X111709309Y-145577770D01*
X111458166Y-145440635D01*
X111458167Y-145440635D01*
X111350915Y-145400632D01*
X111190046Y-145340631D01*
X111190043Y-145340630D01*
X111190037Y-145340628D01*
X110910433Y-145279804D01*
X110696448Y-145264500D01*
X101144997Y-145264500D01*
X101077958Y-145244815D01*
X101057316Y-145228181D01*
X98885465Y-143056330D01*
X169745710Y-143056330D01*
X169775925Y-143279387D01*
X169775926Y-143279390D01*
X169845483Y-143493465D01*
X169952146Y-143691678D01*
X169952148Y-143691681D01*
X170092489Y-143867663D01*
X170092491Y-143867664D01*
X170092492Y-143867666D01*
X170262004Y-144015765D01*
X170455236Y-144131215D01*
X170620022Y-144193060D01*
X170665976Y-144210307D01*
X170887450Y-144250500D01*
X170887453Y-144250500D01*
X171056148Y-144250500D01*
X171056155Y-144250500D01*
X171224188Y-144235377D01*
X171224192Y-144235376D01*
X171441160Y-144175496D01*
X171441162Y-144175495D01*
X171441170Y-144175493D01*
X171643973Y-144077829D01*
X171826078Y-143945522D01*
X171981632Y-143782825D01*
X172105635Y-143594968D01*
X172194103Y-143387988D01*
X172214016Y-143300743D01*
X174399500Y-143300743D01*
X174414925Y-143452439D01*
X174475837Y-143646579D01*
X174475844Y-143646594D01*
X174574589Y-143824499D01*
X174574592Y-143824504D01*
X174707132Y-143978893D01*
X174707134Y-143978895D01*
X174868037Y-144103445D01*
X174868038Y-144103445D01*
X174868042Y-144103448D01*
X175050729Y-144193060D01*
X175247715Y-144244063D01*
X175450936Y-144254369D01*
X175652071Y-144223556D01*
X175842887Y-144152886D01*
X176015571Y-144045252D01*
X176163053Y-143905059D01*
X176279295Y-143738049D01*
X176359540Y-143551058D01*
X176400500Y-143351741D01*
X176400500Y-142699258D01*
X176391629Y-142612017D01*
X176385074Y-142547560D01*
X176324162Y-142353420D01*
X176324160Y-142353416D01*
X176324159Y-142353412D01*
X176225409Y-142175498D01*
X176225408Y-142175497D01*
X176225407Y-142175495D01*
X176092867Y-142021106D01*
X176092865Y-142021104D01*
X175931962Y-141896554D01*
X175931959Y-141896553D01*
X175931958Y-141896552D01*
X175749271Y-141806940D01*
X175552285Y-141755937D01*
X175552287Y-141755937D01*
X175416804Y-141749066D01*
X175349064Y-141745631D01*
X175349063Y-141745631D01*
X175349061Y-141745631D01*
X175147936Y-141776442D01*
X175147924Y-141776445D01*
X174957118Y-141847111D01*
X174957111Y-141847115D01*
X174784432Y-141954745D01*
X174784427Y-141954749D01*
X174636949Y-142094938D01*
X174636948Y-142094940D01*
X174520705Y-142261949D01*
X174440459Y-142448943D01*
X174399500Y-142648258D01*
X174399500Y-143300743D01*
X172214016Y-143300743D01*
X172244191Y-143168537D01*
X172254290Y-142943670D01*
X172224075Y-142720613D01*
X172154517Y-142506536D01*
X172047852Y-142308319D01*
X171941932Y-142175500D01*
X171907510Y-142132336D01*
X171907508Y-142132334D01*
X171737996Y-141984235D01*
X171544764Y-141868785D01*
X171426775Y-141824503D01*
X171334023Y-141789692D01*
X171112550Y-141749500D01*
X171112547Y-141749500D01*
X170943845Y-141749500D01*
X170905399Y-141752960D01*
X170775813Y-141764622D01*
X170775807Y-141764623D01*
X170558839Y-141824503D01*
X170558826Y-141824508D01*
X170356033Y-141922167D01*
X170356025Y-141922171D01*
X170173927Y-142054473D01*
X170173925Y-142054474D01*
X170018366Y-142217176D01*
X169894363Y-142405033D01*
X169805899Y-142612004D01*
X169805895Y-142612017D01*
X169755810Y-142831457D01*
X169755808Y-142831468D01*
X169750769Y-142943674D01*
X169745710Y-143056330D01*
X98885465Y-143056330D01*
X98477393Y-142648258D01*
X95831314Y-140002180D01*
X95797830Y-139940858D01*
X95802814Y-139871166D01*
X95844686Y-139815233D01*
X95910150Y-139790816D01*
X95918996Y-139790500D01*
X109665297Y-139790500D01*
X109732336Y-139810185D01*
X109778091Y-139862989D01*
X109788035Y-139932147D01*
X109777679Y-139966905D01*
X109726569Y-140076507D01*
X109726567Y-140076513D01*
X109669364Y-140289999D01*
X109669364Y-140290000D01*
X110566314Y-140290000D01*
X110540507Y-140330156D01*
X110500000Y-140468111D01*
X110500000Y-140611889D01*
X110540507Y-140749844D01*
X110566314Y-140790000D01*
X109669364Y-140790000D01*
X109726567Y-141003486D01*
X109726570Y-141003492D01*
X109826399Y-141217578D01*
X109961894Y-141411082D01*
X110128917Y-141578105D01*
X110322421Y-141713600D01*
X110536507Y-141813429D01*
X110536516Y-141813433D01*
X110750000Y-141870634D01*
X110750000Y-140975501D01*
X110857685Y-141024680D01*
X110964237Y-141040000D01*
X111035763Y-141040000D01*
X111142315Y-141024680D01*
X111250000Y-140975501D01*
X111250000Y-141870633D01*
X111463483Y-141813433D01*
X111463492Y-141813429D01*
X111677578Y-141713600D01*
X111871082Y-141578105D01*
X112038105Y-141411082D01*
X112173600Y-141217578D01*
X112273429Y-141003492D01*
X112273432Y-141003486D01*
X112330636Y-140790000D01*
X111433686Y-140790000D01*
X111459493Y-140749844D01*
X111500000Y-140611889D01*
X111500000Y-140468111D01*
X111459493Y-140330156D01*
X111433686Y-140290000D01*
X112330636Y-140290000D01*
X112330635Y-140289999D01*
X112273432Y-140076513D01*
X112273429Y-140076507D01*
X112173600Y-139862422D01*
X112173599Y-139862420D01*
X112035005Y-139664487D01*
X112036453Y-139663472D01*
X112011623Y-139606724D01*
X112022667Y-139537733D01*
X112069257Y-139485665D01*
X112075197Y-139482204D01*
X112084315Y-139477226D01*
X112313395Y-139305739D01*
X112515739Y-139103395D01*
X112687226Y-138874315D01*
X112824367Y-138623161D01*
X112924369Y-138355046D01*
X112985196Y-138075428D01*
X113005610Y-137790000D01*
X113002749Y-137750000D01*
X168000000Y-137750000D01*
X168000000Y-139047844D01*
X168006401Y-139107372D01*
X168006403Y-139107379D01*
X168056645Y-139242086D01*
X168056649Y-139242093D01*
X168142809Y-139357187D01*
X168142812Y-139357190D01*
X168257906Y-139443350D01*
X168257913Y-139443354D01*
X168392620Y-139493596D01*
X168392627Y-139493598D01*
X168452155Y-139499999D01*
X168452172Y-139500000D01*
X169250000Y-139500000D01*
X169250000Y-137750000D01*
X169750000Y-137750000D01*
X169750000Y-139500000D01*
X170547828Y-139500000D01*
X170547844Y-139499999D01*
X170607372Y-139493598D01*
X170607379Y-139493596D01*
X170742086Y-139443354D01*
X170742093Y-139443350D01*
X170857187Y-139357190D01*
X170857190Y-139357187D01*
X170943350Y-139242093D01*
X170943354Y-139242086D01*
X170993596Y-139107379D01*
X170993598Y-139107372D01*
X170999999Y-139047844D01*
X171000000Y-139047827D01*
X171000000Y-137750000D01*
X174000000Y-137750000D01*
X174000000Y-139047844D01*
X174006401Y-139107372D01*
X174006403Y-139107379D01*
X174056645Y-139242086D01*
X174056649Y-139242093D01*
X174142809Y-139357187D01*
X174142812Y-139357190D01*
X174257906Y-139443350D01*
X174257913Y-139443354D01*
X174392620Y-139493596D01*
X174392627Y-139493598D01*
X174452155Y-139499999D01*
X174452172Y-139500000D01*
X175250000Y-139500000D01*
X175250000Y-137750000D01*
X175750000Y-137750000D01*
X175750000Y-139500000D01*
X176547828Y-139500000D01*
X176547844Y-139499999D01*
X176607372Y-139493598D01*
X176607379Y-139493596D01*
X176742086Y-139443354D01*
X176742093Y-139443350D01*
X176857187Y-139357190D01*
X176857190Y-139357187D01*
X176943350Y-139242093D01*
X176943354Y-139242086D01*
X176993596Y-139107379D01*
X176993598Y-139107372D01*
X176999999Y-139047844D01*
X177000000Y-139047827D01*
X177000000Y-137750000D01*
X175750000Y-137750000D01*
X175250000Y-137750000D01*
X174000000Y-137750000D01*
X171000000Y-137750000D01*
X169750000Y-137750000D01*
X169250000Y-137750000D01*
X168000000Y-137750000D01*
X113002749Y-137750000D01*
X112985196Y-137504572D01*
X112929817Y-137250000D01*
X168000000Y-137250000D01*
X169250000Y-137250000D01*
X169250000Y-135500000D01*
X169750000Y-135500000D01*
X169750000Y-137250000D01*
X171000000Y-137250000D01*
X174000000Y-137250000D01*
X175250000Y-137250000D01*
X175250000Y-135500000D01*
X175750000Y-135500000D01*
X175750000Y-137250000D01*
X177000000Y-137250000D01*
X177000000Y-135952172D01*
X176999999Y-135952155D01*
X176993598Y-135892627D01*
X176993596Y-135892620D01*
X176943354Y-135757913D01*
X176943350Y-135757906D01*
X176857190Y-135642812D01*
X176857187Y-135642809D01*
X176742093Y-135556649D01*
X176742086Y-135556645D01*
X176607379Y-135506403D01*
X176607372Y-135506401D01*
X176547844Y-135500000D01*
X175750000Y-135500000D01*
X175250000Y-135500000D01*
X174452155Y-135500000D01*
X174392627Y-135506401D01*
X174392620Y-135506403D01*
X174257913Y-135556645D01*
X174257906Y-135556649D01*
X174142812Y-135642809D01*
X174142809Y-135642812D01*
X174056649Y-135757906D01*
X174056645Y-135757913D01*
X174006403Y-135892620D01*
X174006401Y-135892627D01*
X174000000Y-135952155D01*
X174000000Y-137250000D01*
X171000000Y-137250000D01*
X171000000Y-135952172D01*
X170999999Y-135952155D01*
X170993598Y-135892627D01*
X170993596Y-135892620D01*
X170943354Y-135757913D01*
X170943350Y-135757906D01*
X170857190Y-135642812D01*
X170857187Y-135642809D01*
X170742093Y-135556649D01*
X170742086Y-135556645D01*
X170607379Y-135506403D01*
X170607372Y-135506401D01*
X170547844Y-135500000D01*
X169750000Y-135500000D01*
X169250000Y-135500000D01*
X168452155Y-135500000D01*
X168392627Y-135506401D01*
X168392620Y-135506403D01*
X168257913Y-135556645D01*
X168257906Y-135556649D01*
X168142812Y-135642809D01*
X168142809Y-135642812D01*
X168056649Y-135757906D01*
X168056645Y-135757913D01*
X168006403Y-135892620D01*
X168006401Y-135892627D01*
X168000000Y-135952155D01*
X168000000Y-137250000D01*
X112929817Y-137250000D01*
X112924371Y-137224962D01*
X112924370Y-137224960D01*
X112924369Y-137224954D01*
X112824367Y-136956839D01*
X112687226Y-136705685D01*
X112687224Y-136705682D01*
X112515745Y-136476612D01*
X112515729Y-136476594D01*
X112416816Y-136377681D01*
X112383331Y-136316358D01*
X112388315Y-136246666D01*
X112416817Y-136202318D01*
X112465987Y-136153148D01*
X112466010Y-136153122D01*
X112515739Y-136103395D01*
X112557341Y-136047819D01*
X112560110Y-136044384D01*
X112563554Y-136040409D01*
X112605574Y-135991917D01*
X112643105Y-135933516D01*
X112645616Y-135929898D01*
X112687226Y-135874315D01*
X112716696Y-135820344D01*
X112720495Y-135813387D01*
X112722747Y-135809589D01*
X112760282Y-135751186D01*
X112789119Y-135688038D01*
X112791086Y-135684108D01*
X112824367Y-135623161D01*
X112848631Y-135558105D01*
X112850305Y-135554061D01*
X112879156Y-135490888D01*
X112898719Y-135424260D01*
X112900097Y-135420120D01*
X112924369Y-135355046D01*
X112939126Y-135287205D01*
X112940221Y-135282918D01*
X112959775Y-135216324D01*
X112959776Y-135216322D01*
X112969656Y-135147591D01*
X112970431Y-135143295D01*
X112985196Y-135075428D01*
X112990147Y-135006186D01*
X112990619Y-135001794D01*
X113000500Y-134933076D01*
X113000500Y-117856923D01*
X112990619Y-117788206D01*
X112990146Y-117783802D01*
X112985196Y-117714572D01*
X112970440Y-117646743D01*
X112969655Y-117642399D01*
X112959776Y-117573678D01*
X112940209Y-117507044D01*
X112939128Y-117502805D01*
X112924369Y-117434954D01*
X112900100Y-117369887D01*
X112898713Y-117365720D01*
X112879156Y-117299112D01*
X112850321Y-117235970D01*
X112848627Y-117231881D01*
X112824370Y-117166846D01*
X112824369Y-117166844D01*
X112824368Y-117166843D01*
X112824367Y-117166839D01*
X112791092Y-117105901D01*
X112789119Y-117101959D01*
X112760284Y-117038818D01*
X112760281Y-117038812D01*
X112753993Y-117029028D01*
X112722737Y-116980394D01*
X112720509Y-116976638D01*
X112687226Y-116915685D01*
X112645613Y-116860096D01*
X112643116Y-116856500D01*
X112605574Y-116798083D01*
X112560109Y-116745614D01*
X112557335Y-116742171D01*
X112515745Y-116686612D01*
X112515731Y-116686596D01*
X112490381Y-116661247D01*
X112465095Y-116635961D01*
X112465089Y-116635954D01*
X106989046Y-111159912D01*
X106963724Y-111134590D01*
X106938404Y-111109269D01*
X106938393Y-111109259D01*
X106882825Y-111067661D01*
X106879378Y-111064884D01*
X106826923Y-111019430D01*
X106826918Y-111019427D01*
X106826917Y-111019426D01*
X106768499Y-110981883D01*
X106764875Y-110979366D01*
X106709315Y-110937774D01*
X106709310Y-110937771D01*
X106709309Y-110937770D01*
X106648396Y-110904509D01*
X106644589Y-110902250D01*
X106586192Y-110864720D01*
X106586182Y-110864715D01*
X106548929Y-110847703D01*
X106523034Y-110835877D01*
X106519104Y-110833910D01*
X106458161Y-110800633D01*
X106393117Y-110776372D01*
X106389029Y-110774678D01*
X106325891Y-110745845D01*
X106259292Y-110726289D01*
X106255092Y-110724891D01*
X106190047Y-110700631D01*
X106190050Y-110700631D01*
X106122205Y-110685873D01*
X106117915Y-110684778D01*
X106051331Y-110665227D01*
X106051318Y-110665224D01*
X105982616Y-110655346D01*
X105978272Y-110654562D01*
X105949415Y-110648285D01*
X105910431Y-110639804D01*
X105841184Y-110634850D01*
X105836784Y-110634377D01*
X105768082Y-110624500D01*
X105768079Y-110624500D01*
X105696448Y-110624500D01*
X102413552Y-110624500D01*
X102199566Y-110639804D01*
X101919962Y-110700628D01*
X101651833Y-110800635D01*
X101400690Y-110937770D01*
X101400682Y-110937775D01*
X101171612Y-111109254D01*
X101171594Y-111109270D01*
X100969270Y-111311594D01*
X100969254Y-111311612D01*
X100797775Y-111540682D01*
X100797767Y-111540695D01*
X100792792Y-111549806D01*
X100743385Y-111599209D01*
X100675111Y-111614058D01*
X100610532Y-111589966D01*
X100610512Y-111589996D01*
X100610399Y-111589917D01*
X100609648Y-111589637D01*
X100606991Y-111587530D01*
X100412578Y-111451399D01*
X100198492Y-111351570D01*
X100198486Y-111351567D01*
X99985000Y-111294364D01*
X99985000Y-112189498D01*
X99877315Y-112140320D01*
X99770763Y-112125000D01*
X99699237Y-112125000D01*
X99592685Y-112140320D01*
X99485000Y-112189498D01*
X99485000Y-111294364D01*
X99484999Y-111294364D01*
X99271513Y-111351567D01*
X99271507Y-111351570D01*
X99057422Y-111451399D01*
X99057420Y-111451400D01*
X98863926Y-111586886D01*
X98863920Y-111586891D01*
X98696891Y-111753920D01*
X98696886Y-111753926D01*
X98561400Y-111947420D01*
X98561399Y-111947422D01*
X98461570Y-112161507D01*
X98461567Y-112161513D01*
X98404364Y-112374999D01*
X98404364Y-112375000D01*
X99301314Y-112375000D01*
X99275507Y-112415156D01*
X99235000Y-112553111D01*
X99235000Y-112696889D01*
X99275507Y-112834844D01*
X99301314Y-112875000D01*
X98404364Y-112875000D01*
X98461567Y-113088486D01*
X98461570Y-113088492D01*
X98561399Y-113302578D01*
X98696894Y-113496082D01*
X98863917Y-113663105D01*
X99057421Y-113798600D01*
X99271507Y-113898429D01*
X99271516Y-113898433D01*
X99485000Y-113955634D01*
X99485000Y-113060501D01*
X99592685Y-113109680D01*
X99699237Y-113125000D01*
X99770763Y-113125000D01*
X99877315Y-113109680D01*
X99985000Y-113060501D01*
X99985000Y-113955633D01*
X100198483Y-113898433D01*
X100198492Y-113898429D01*
X100412578Y-113798600D01*
X100610513Y-113660004D01*
X100611533Y-113661461D01*
X100668227Y-113636629D01*
X100737222Y-113647646D01*
X100789308Y-113694217D01*
X100792792Y-113700194D01*
X100797767Y-113709304D01*
X100797775Y-113709317D01*
X100969254Y-113938387D01*
X100969270Y-113938405D01*
X101171594Y-114140729D01*
X101171612Y-114140745D01*
X101400682Y-114312224D01*
X101400690Y-114312229D01*
X101651833Y-114449364D01*
X101651832Y-114449364D01*
X101651836Y-114449365D01*
X101651839Y-114449367D01*
X101919954Y-114549369D01*
X101919960Y-114549370D01*
X101919962Y-114549371D01*
X102199566Y-114610195D01*
X102199568Y-114610195D01*
X102199572Y-114610196D01*
X102413552Y-114625500D01*
X104745004Y-114625500D01*
X104812043Y-114645185D01*
X104832685Y-114661819D01*
X108963181Y-118792315D01*
X108996666Y-118853638D01*
X108999500Y-118879996D01*
X108999500Y-133910003D01*
X108979815Y-133977042D01*
X108963181Y-133997684D01*
X107207685Y-135753181D01*
X107146362Y-135786666D01*
X107120004Y-135789500D01*
X91066920Y-135789500D01*
X90998208Y-135799379D01*
X90993807Y-135799852D01*
X90924571Y-135804804D01*
X90924561Y-135804805D01*
X90856747Y-135819558D01*
X90852390Y-135820344D01*
X90783678Y-135830223D01*
X90736553Y-135844060D01*
X90717069Y-135849781D01*
X90712792Y-135850873D01*
X90705406Y-135852480D01*
X90644959Y-135865629D01*
X90644947Y-135865632D01*
X90579917Y-135889887D01*
X90575719Y-135891285D01*
X90509116Y-135910842D01*
X90509102Y-135910847D01*
X90445972Y-135939677D01*
X90441884Y-135941371D01*
X90376842Y-135965631D01*
X90361146Y-135974201D01*
X90342593Y-135984332D01*
X90283168Y-135999500D01*
X73879996Y-135999500D01*
X73812957Y-135979815D01*
X73792315Y-135963181D01*
X69036819Y-131207685D01*
X69003334Y-131146362D01*
X69000500Y-131120004D01*
X69000500Y-100000000D01*
X95194541Y-100000000D01*
X95214370Y-100479411D01*
X95273720Y-100955547D01*
X95372187Y-101425156D01*
X95509097Y-101885029D01*
X95561168Y-102018475D01*
X95683512Y-102332020D01*
X95683512Y-102332021D01*
X95894251Y-102763094D01*
X95894252Y-102763095D01*
X96139861Y-103175281D01*
X96139860Y-103175280D01*
X96365723Y-103491620D01*
X96418677Y-103565787D01*
X96619814Y-103803269D01*
X96728787Y-103931932D01*
X96728787Y-103931933D01*
X97068067Y-104271213D01*
X97068068Y-104271213D01*
X97068070Y-104271215D01*
X97434213Y-104581323D01*
X97434218Y-104581327D01*
X97824720Y-104860140D01*
X97824719Y-104860139D01*
X98236905Y-105105748D01*
X98236906Y-105105749D01*
X98667979Y-105316488D01*
X98667980Y-105316488D01*
X98909437Y-105410703D01*
X99114971Y-105490903D01*
X99574844Y-105627813D01*
X100044453Y-105726280D01*
X100203165Y-105746063D01*
X100520585Y-105785630D01*
X101000000Y-105805459D01*
X101479415Y-105785630D01*
X101796835Y-105746063D01*
X101955547Y-105726280D01*
X102425156Y-105627813D01*
X102885029Y-105490903D01*
X103090562Y-105410703D01*
X103332020Y-105316488D01*
X103332021Y-105316488D01*
X103763094Y-105105749D01*
X103763095Y-105105748D01*
X104175281Y-104860139D01*
X104175280Y-104860140D01*
X104565782Y-104581327D01*
X104565787Y-104581323D01*
X104931930Y-104271215D01*
X104931932Y-104271213D01*
X104931933Y-104271213D01*
X105271213Y-103931933D01*
X105271213Y-103931932D01*
X105380186Y-103803269D01*
X105581323Y-103565787D01*
X105634278Y-103491620D01*
X105860140Y-103175280D01*
X105860139Y-103175281D01*
X106105748Y-102763095D01*
X106105749Y-102763094D01*
X106316488Y-102332021D01*
X106316488Y-102332020D01*
X106438832Y-102018475D01*
X106490903Y-101885029D01*
X106627813Y-101425156D01*
X106726280Y-100955547D01*
X106785630Y-100479411D01*
X106791810Y-100330003D01*
X165374661Y-100330003D01*
X165394005Y-100760737D01*
X165394006Y-100760746D01*
X165451885Y-101188027D01*
X165547830Y-101608391D01*
X165681073Y-102018472D01*
X165681076Y-102018480D01*
X165850533Y-102414947D01*
X165850537Y-102414955D01*
X165850539Y-102414958D01*
X166054863Y-102794655D01*
X166054867Y-102794661D01*
X166054867Y-102794662D01*
X166292394Y-103154501D01*
X166292404Y-103154514D01*
X166561225Y-103491607D01*
X166561235Y-103491618D01*
X166561236Y-103491619D01*
X166859210Y-103803274D01*
X167183920Y-104086965D01*
X167183930Y-104086972D01*
X167183931Y-104086973D01*
X167437515Y-104271213D01*
X167532753Y-104340407D01*
X167902900Y-104561560D01*
X167902903Y-104561561D01*
X167902904Y-104561562D01*
X167902906Y-104561563D01*
X168291372Y-104748639D01*
X168291386Y-104748645D01*
X168695055Y-104900144D01*
X168695059Y-104900145D01*
X168695069Y-104900149D01*
X169110711Y-105014859D01*
X169534964Y-105091850D01*
X169964409Y-105130500D01*
X169964416Y-105130500D01*
X170395584Y-105130500D01*
X170395591Y-105130500D01*
X170825036Y-105091850D01*
X171249289Y-105014859D01*
X171664931Y-104900149D01*
X172068619Y-104748643D01*
X172457100Y-104561560D01*
X172827247Y-104340407D01*
X173176080Y-104086965D01*
X173500790Y-103803274D01*
X173798764Y-103491619D01*
X174067601Y-103154507D01*
X174305137Y-102794655D01*
X174509461Y-102414958D01*
X174678926Y-102018475D01*
X174812168Y-101608397D01*
X174908115Y-101188026D01*
X174965994Y-100760747D01*
X174985339Y-100330000D01*
X174965994Y-99899253D01*
X174908115Y-99471974D01*
X174812168Y-99051603D01*
X174678926Y-98641525D01*
X174615376Y-98492843D01*
X174509466Y-98245052D01*
X174509462Y-98245044D01*
X174509461Y-98245042D01*
X174305137Y-97865345D01*
X174174854Y-97667974D01*
X174067605Y-97505498D01*
X174067595Y-97505485D01*
X173798774Y-97168392D01*
X173798762Y-97168379D01*
X173500794Y-96856730D01*
X173500793Y-96856729D01*
X173500790Y-96856726D01*
X173176080Y-96573035D01*
X172985008Y-96434213D01*
X172827256Y-96319599D01*
X172827251Y-96319596D01*
X172827247Y-96319593D01*
X172457100Y-96098440D01*
X172457095Y-96098437D01*
X172457093Y-96098436D01*
X172068627Y-95911360D01*
X172068613Y-95911354D01*
X171664944Y-95759855D01*
X171664919Y-95759847D01*
X171249295Y-95645142D01*
X170825043Y-95568151D01*
X170825040Y-95568150D01*
X170825036Y-95568150D01*
X170395591Y-95529500D01*
X169964409Y-95529500D01*
X169534964Y-95568150D01*
X169534960Y-95568150D01*
X169534956Y-95568151D01*
X169110704Y-95645142D01*
X168695080Y-95759847D01*
X168695055Y-95759855D01*
X168291386Y-95911354D01*
X168291372Y-95911360D01*
X167902906Y-96098436D01*
X167902904Y-96098437D01*
X167532743Y-96319599D01*
X167183931Y-96573026D01*
X167183914Y-96573039D01*
X166859210Y-96856726D01*
X166859205Y-96856730D01*
X166561237Y-97168379D01*
X166561225Y-97168392D01*
X166292404Y-97505485D01*
X166292394Y-97505498D01*
X166054867Y-97865337D01*
X166054867Y-97865338D01*
X165850537Y-98245044D01*
X165850533Y-98245052D01*
X165681076Y-98641519D01*
X165681073Y-98641527D01*
X165547830Y-99051608D01*
X165451885Y-99471972D01*
X165394006Y-99899253D01*
X165394005Y-99899262D01*
X165374661Y-100329996D01*
X165374661Y-100330003D01*
X106791810Y-100330003D01*
X106805459Y-100000000D01*
X106785630Y-99520589D01*
X106779570Y-99471974D01*
X106726280Y-99044455D01*
X106641794Y-98641525D01*
X106627813Y-98574844D01*
X106490903Y-98114971D01*
X106393496Y-97865337D01*
X106316488Y-97667980D01*
X106316488Y-97667979D01*
X106105749Y-97236906D01*
X106105748Y-97236905D01*
X105860139Y-96824719D01*
X105860140Y-96824720D01*
X105581327Y-96434218D01*
X105581323Y-96434213D01*
X105271215Y-96068070D01*
X105271213Y-96068068D01*
X105271213Y-96068067D01*
X104931933Y-95728787D01*
X104931932Y-95728787D01*
X104931930Y-95728785D01*
X104565787Y-95418677D01*
X104565785Y-95418675D01*
X104565782Y-95418673D01*
X104175280Y-95139860D01*
X104175281Y-95139861D01*
X103763095Y-94894252D01*
X103763094Y-94894251D01*
X103332021Y-94683512D01*
X103332020Y-94683512D01*
X103078973Y-94584774D01*
X102885029Y-94509097D01*
X102425156Y-94372187D01*
X101955547Y-94273720D01*
X101796835Y-94253936D01*
X101479415Y-94214370D01*
X101000000Y-94194541D01*
X100520585Y-94214370D01*
X100203165Y-94253936D01*
X100044453Y-94273720D01*
X99574844Y-94372187D01*
X99114971Y-94509097D01*
X98921027Y-94584774D01*
X98667980Y-94683512D01*
X98667979Y-94683512D01*
X98236906Y-94894251D01*
X98236905Y-94894252D01*
X97824719Y-95139861D01*
X97824720Y-95139860D01*
X97434218Y-95418673D01*
X97434214Y-95418675D01*
X97434213Y-95418677D01*
X97068070Y-95728785D01*
X97068068Y-95728787D01*
X97068067Y-95728787D01*
X96728787Y-96068067D01*
X96728787Y-96068068D01*
X96728785Y-96068070D01*
X96418677Y-96434213D01*
X96418673Y-96434218D01*
X96139860Y-96824720D01*
X96139861Y-96824719D01*
X95894252Y-97236905D01*
X95894251Y-97236906D01*
X95683512Y-97667979D01*
X95683512Y-97667980D01*
X95606504Y-97865337D01*
X95509097Y-98114971D01*
X95372187Y-98574844D01*
X95358206Y-98641525D01*
X95273720Y-99044455D01*
X95220430Y-99471974D01*
X95214370Y-99520589D01*
X95194541Y-100000000D01*
X69000500Y-100000000D01*
X69000500Y-89879996D01*
X69020185Y-89812957D01*
X69036819Y-89792315D01*
X81322815Y-77506319D01*
X81384138Y-77472834D01*
X81410496Y-77470000D01*
X94875500Y-77470000D01*
X94942539Y-77489685D01*
X94988294Y-77542489D01*
X94999500Y-77594000D01*
X94999500Y-79143082D01*
X95009377Y-79211784D01*
X95009850Y-79216184D01*
X95014804Y-79285430D01*
X95014804Y-79285433D01*
X95029560Y-79353259D01*
X95030346Y-79357616D01*
X95040224Y-79426318D01*
X95040227Y-79426331D01*
X95059778Y-79492915D01*
X95060873Y-79497205D01*
X95075631Y-79565048D01*
X95099891Y-79630092D01*
X95101289Y-79634292D01*
X95120845Y-79700891D01*
X95149678Y-79764029D01*
X95151372Y-79768117D01*
X95175633Y-79833161D01*
X95208910Y-79894104D01*
X95210883Y-79898046D01*
X95239715Y-79961182D01*
X95239720Y-79961192D01*
X95277250Y-80019589D01*
X95279509Y-80023396D01*
X95312770Y-80084309D01*
X95312771Y-80084310D01*
X95312774Y-80084315D01*
X95354366Y-80139875D01*
X95356883Y-80143499D01*
X95394426Y-80201917D01*
X95394427Y-80201918D01*
X95394430Y-80201923D01*
X95439884Y-80254378D01*
X95442661Y-80257825D01*
X95484259Y-80313393D01*
X95484269Y-80313404D01*
X95509590Y-80338724D01*
X95534912Y-80364046D01*
X98635954Y-83465089D01*
X98635961Y-83465095D01*
X98661247Y-83490381D01*
X98686596Y-83515731D01*
X98686612Y-83515745D01*
X98742171Y-83557335D01*
X98745614Y-83560109D01*
X98798083Y-83605574D01*
X98856500Y-83643116D01*
X98860096Y-83645613D01*
X98915685Y-83687226D01*
X98976638Y-83720509D01*
X98980394Y-83722737D01*
X99029028Y-83753993D01*
X99038812Y-83760281D01*
X99038818Y-83760284D01*
X99101959Y-83789119D01*
X99105901Y-83791092D01*
X99166839Y-83824367D01*
X99166843Y-83824368D01*
X99166844Y-83824369D01*
X99166846Y-83824370D01*
X99231881Y-83848627D01*
X99235970Y-83850321D01*
X99299110Y-83879155D01*
X99299112Y-83879156D01*
X99365720Y-83898713D01*
X99369887Y-83900100D01*
X99434954Y-83924369D01*
X99502805Y-83939128D01*
X99507044Y-83940209D01*
X99573678Y-83959776D01*
X99573681Y-83959776D01*
X99573683Y-83959777D01*
X99596174Y-83963010D01*
X99642399Y-83969655D01*
X99646743Y-83970440D01*
X99714572Y-83985196D01*
X99783815Y-83990147D01*
X99788193Y-83990617D01*
X99856921Y-84000500D01*
X99856924Y-84000500D01*
X106951402Y-84000500D01*
X106951405Y-84000500D01*
X107020130Y-83990618D01*
X107024503Y-83990148D01*
X107093754Y-83985196D01*
X107161623Y-83970431D01*
X107165930Y-83969654D01*
X107234648Y-83959775D01*
X107301237Y-83940222D01*
X107305521Y-83939127D01*
X107373372Y-83924369D01*
X107438432Y-83900102D01*
X107442598Y-83898715D01*
X107509214Y-83879156D01*
X107572383Y-83850306D01*
X107576409Y-83848639D01*
X107641487Y-83824367D01*
X107702419Y-83791094D01*
X107706362Y-83789121D01*
X107769513Y-83760282D01*
X107827941Y-83722731D01*
X107831706Y-83720498D01*
X107892641Y-83687226D01*
X107948211Y-83645626D01*
X107951835Y-83643109D01*
X108010243Y-83605574D01*
X108062714Y-83560106D01*
X108066149Y-83557339D01*
X108066154Y-83557335D01*
X108121721Y-83515739D01*
X108324065Y-83313395D01*
X114131141Y-77506319D01*
X114192464Y-77472834D01*
X114218822Y-77470000D01*
X132875500Y-77470000D01*
X132942539Y-77489685D01*
X132988294Y-77542489D01*
X132999500Y-77594000D01*
X132999500Y-78143082D01*
X133009377Y-78211784D01*
X133009850Y-78216184D01*
X133014804Y-78285430D01*
X133014804Y-78285433D01*
X133029560Y-78353259D01*
X133030346Y-78357616D01*
X133040224Y-78426318D01*
X133040227Y-78426331D01*
X133059778Y-78492915D01*
X133060873Y-78497205D01*
X133075631Y-78565048D01*
X133099891Y-78630092D01*
X133101289Y-78634292D01*
X133120845Y-78700891D01*
X133149678Y-78764029D01*
X133151372Y-78768117D01*
X133175633Y-78833161D01*
X133208910Y-78894104D01*
X133210883Y-78898046D01*
X133239715Y-78961182D01*
X133239720Y-78961192D01*
X133277250Y-79019589D01*
X133279509Y-79023396D01*
X133312770Y-79084309D01*
X133312771Y-79084310D01*
X133312774Y-79084315D01*
X133354366Y-79139875D01*
X133356883Y-79143499D01*
X133394426Y-79201917D01*
X133394427Y-79201918D01*
X133394430Y-79201923D01*
X133439884Y-79254378D01*
X133442661Y-79257825D01*
X133484259Y-79313393D01*
X133484269Y-79313404D01*
X133509590Y-79338724D01*
X133534912Y-79364046D01*
X137484261Y-83313395D01*
X140698181Y-86527315D01*
X140731666Y-86588638D01*
X140734500Y-86614996D01*
X140734500Y-91289744D01*
X140714815Y-91356783D01*
X140662011Y-91402538D01*
X140592853Y-91412482D01*
X140558095Y-91402126D01*
X140537101Y-91392336D01*
X140448663Y-91351097D01*
X140448659Y-91351096D01*
X140448655Y-91351094D01*
X140220413Y-91289938D01*
X140220403Y-91289936D01*
X139985001Y-91269341D01*
X139984999Y-91269341D01*
X139749596Y-91289936D01*
X139749586Y-91289938D01*
X139521344Y-91351094D01*
X139521335Y-91351098D01*
X139307171Y-91450964D01*
X139307169Y-91450965D01*
X139113597Y-91586505D01*
X138946508Y-91753594D01*
X138816269Y-91939595D01*
X138761692Y-91983219D01*
X138692193Y-91990412D01*
X138629839Y-91958890D01*
X138613119Y-91939594D01*
X138483113Y-91753926D01*
X138483108Y-91753920D01*
X138316082Y-91586894D01*
X138122578Y-91451399D01*
X137908492Y-91351570D01*
X137908486Y-91351567D01*
X137695000Y-91294364D01*
X137695000Y-92189498D01*
X137587315Y-92140320D01*
X137480763Y-92125000D01*
X137409237Y-92125000D01*
X137302685Y-92140320D01*
X137195000Y-92189498D01*
X137195000Y-91294364D01*
X137194999Y-91294364D01*
X136981513Y-91351567D01*
X136981507Y-91351570D01*
X136767422Y-91451399D01*
X136767420Y-91451400D01*
X136573926Y-91586886D01*
X136573920Y-91586891D01*
X136406891Y-91753920D01*
X136406886Y-91753926D01*
X136271400Y-91947420D01*
X136271399Y-91947422D01*
X136171570Y-92161507D01*
X136171567Y-92161513D01*
X136114364Y-92374999D01*
X136114364Y-92375000D01*
X137011314Y-92375000D01*
X136985507Y-92415156D01*
X136945000Y-92553111D01*
X136945000Y-92696889D01*
X136985507Y-92834844D01*
X137011314Y-92875000D01*
X136114364Y-92875000D01*
X136171567Y-93088486D01*
X136171570Y-93088492D01*
X136271399Y-93302578D01*
X136406894Y-93496082D01*
X136573917Y-93663105D01*
X136767421Y-93798600D01*
X136981507Y-93898429D01*
X136981516Y-93898433D01*
X137195000Y-93955634D01*
X137195000Y-93060501D01*
X137302685Y-93109680D01*
X137409237Y-93125000D01*
X137480763Y-93125000D01*
X137587315Y-93109680D01*
X137695000Y-93060501D01*
X137695000Y-93955633D01*
X137908483Y-93898433D01*
X137908492Y-93898429D01*
X138122578Y-93798600D01*
X138316082Y-93663105D01*
X138483105Y-93496082D01*
X138613119Y-93310405D01*
X138667696Y-93266781D01*
X138737195Y-93259588D01*
X138799549Y-93291110D01*
X138816269Y-93310405D01*
X138946505Y-93496401D01*
X139113599Y-93663495D01*
X139158123Y-93694671D01*
X139307165Y-93799032D01*
X139307167Y-93799033D01*
X139307170Y-93799035D01*
X139521337Y-93898903D01*
X139749592Y-93960063D01*
X139937918Y-93976539D01*
X139984999Y-93980659D01*
X139985000Y-93980659D01*
X139985001Y-93980659D01*
X140024234Y-93977226D01*
X140220408Y-93960063D01*
X140448663Y-93898903D01*
X140662830Y-93799035D01*
X140856401Y-93663495D01*
X140856405Y-93663490D01*
X140860835Y-93660389D01*
X140861871Y-93661869D01*
X140918479Y-93637077D01*
X140987474Y-93648098D01*
X141039557Y-93694671D01*
X141043041Y-93700648D01*
X141047770Y-93709309D01*
X141047775Y-93709317D01*
X141219254Y-93938387D01*
X141219270Y-93938405D01*
X141421594Y-94140729D01*
X141421612Y-94140745D01*
X141650682Y-94312224D01*
X141650690Y-94312229D01*
X141901833Y-94449364D01*
X141901832Y-94449364D01*
X141901836Y-94449365D01*
X141901839Y-94449367D01*
X142169954Y-94549369D01*
X142169960Y-94549370D01*
X142169962Y-94549371D01*
X142449566Y-94610195D01*
X142449568Y-94610195D01*
X142449572Y-94610196D01*
X142703220Y-94628337D01*
X142734999Y-94630610D01*
X142735000Y-94630610D01*
X142735001Y-94630610D01*
X142763595Y-94628564D01*
X143020428Y-94610196D01*
X143088275Y-94595437D01*
X143300037Y-94549371D01*
X143300037Y-94549370D01*
X143300046Y-94549369D01*
X143568161Y-94449367D01*
X143819315Y-94312226D01*
X144048395Y-94140739D01*
X144250739Y-93938395D01*
X144422226Y-93709315D01*
X144559367Y-93458161D01*
X144659369Y-93190046D01*
X144676852Y-93109680D01*
X144720195Y-92910433D01*
X144720195Y-92910432D01*
X144720196Y-92910428D01*
X144735500Y-92696448D01*
X144735500Y-85663552D01*
X144735500Y-85591921D01*
X144725617Y-85523193D01*
X144725146Y-85518802D01*
X144720196Y-85449572D01*
X144705440Y-85381743D01*
X144704655Y-85377399D01*
X144694776Y-85308678D01*
X144675209Y-85242044D01*
X144674128Y-85237805D01*
X144659369Y-85169954D01*
X144635100Y-85104887D01*
X144633713Y-85100720D01*
X144614156Y-85034112D01*
X144598806Y-85000500D01*
X144585321Y-84970970D01*
X144583627Y-84966881D01*
X144559370Y-84901846D01*
X144559369Y-84901844D01*
X144559368Y-84901843D01*
X144559367Y-84901839D01*
X144526092Y-84840901D01*
X144524119Y-84836959D01*
X144495284Y-84773818D01*
X144495281Y-84773812D01*
X144488993Y-84764028D01*
X144457737Y-84715394D01*
X144455509Y-84711638D01*
X144422226Y-84650685D01*
X144380613Y-84595096D01*
X144378116Y-84591500D01*
X144340574Y-84533083D01*
X144295109Y-84480614D01*
X144292335Y-84477171D01*
X144250745Y-84421612D01*
X144250731Y-84421596D01*
X144225381Y-84396247D01*
X144200095Y-84370961D01*
X144200089Y-84370954D01*
X137510814Y-77681680D01*
X137477330Y-77620358D01*
X137482314Y-77550666D01*
X137524186Y-77494733D01*
X137589650Y-77470316D01*
X137598496Y-77470000D01*
X154940000Y-77470000D01*
X154940000Y-66040000D01*
X151657180Y-66040000D01*
X151590141Y-66020315D01*
X151544386Y-65967511D01*
X151534442Y-65898353D01*
X151563467Y-65834797D01*
X151568414Y-65829418D01*
X151588142Y-65809192D01*
X152112450Y-65215079D01*
X152359021Y-64905889D01*
X152606502Y-64595557D01*
X152606503Y-64595557D01*
X153069047Y-63952198D01*
X153069050Y-63952193D01*
X153069056Y-63952185D01*
X153441813Y-63375044D01*
X153498963Y-63286559D01*
X153498962Y-63286559D01*
X153498963Y-63286558D01*
X153895157Y-62600329D01*
X153895162Y-62600321D01*
X154142434Y-62117997D01*
X154256653Y-61895205D01*
X154287814Y-61826146D01*
X154582551Y-61172946D01*
X154582551Y-61172945D01*
X154759296Y-60722604D01*
X154872045Y-60435325D01*
X155124410Y-59684198D01*
X155137763Y-59636738D01*
X155339022Y-58921424D01*
X155339021Y-58921424D01*
X155347463Y-58884440D01*
X155515344Y-58148904D01*
X155520527Y-58119512D01*
X155652938Y-57368569D01*
X155655660Y-57346847D01*
X155751469Y-56582315D01*
X155810684Y-55792142D01*
X155830439Y-55000000D01*
X155810878Y-54215631D01*
X155810684Y-54207856D01*
X155752749Y-53434766D01*
X155751469Y-53417685D01*
X155652940Y-52631446D01*
X155652939Y-52631443D01*
X155652938Y-52631431D01*
X155515346Y-51851105D01*
X155447561Y-51554118D01*
X155339021Y-51078576D01*
X155339022Y-51078576D01*
X155124413Y-50315812D01*
X155124413Y-50315811D01*
X154872049Y-49564687D01*
X154872045Y-49564675D01*
X154646896Y-48991004D01*
X154582551Y-48827055D01*
X154582551Y-48827054D01*
X154256659Y-48104808D01*
X154256657Y-48104805D01*
X154256653Y-48104795D01*
X154002513Y-47609076D01*
X153895161Y-47399678D01*
X153895161Y-47399679D01*
X153895157Y-47399671D01*
X153498963Y-46713442D01*
X153498962Y-46713441D01*
X153498963Y-46713441D01*
X153276754Y-46369395D01*
X153069056Y-46047815D01*
X153031297Y-45995295D01*
X152606503Y-45404443D01*
X152606502Y-45404443D01*
X152548350Y-45331523D01*
X152112458Y-44784931D01*
X152112457Y-44784930D01*
X152112450Y-44784921D01*
X151588142Y-44190808D01*
X151588141Y-44190808D01*
X151294657Y-43889913D01*
X151034871Y-43623568D01*
X150877547Y-43477593D01*
X150454005Y-43084603D01*
X149846998Y-42575264D01*
X149485632Y-42301541D01*
X149215365Y-42096822D01*
X148560663Y-41650453D01*
X148106830Y-41373121D01*
X147884528Y-41237275D01*
X147188647Y-40858318D01*
X147188637Y-40858313D01*
X147188633Y-40858311D01*
X146771262Y-40657316D01*
X146474708Y-40514503D01*
X145744557Y-40206718D01*
X145744557Y-40206719D01*
X145744548Y-40206715D01*
X145176602Y-40000000D01*
X153094671Y-40000000D01*
X153113979Y-40516031D01*
X153171797Y-41029176D01*
X153171796Y-41029176D01*
X153171798Y-41029186D01*
X153236581Y-41371575D01*
X153267802Y-41536579D01*
X153267802Y-41536580D01*
X153401455Y-42035381D01*
X153572011Y-42522800D01*
X153778514Y-42996110D01*
X153779533Y-42998038D01*
X154019807Y-43452660D01*
X154038354Y-43482177D01*
X154294549Y-43889910D01*
X154601196Y-44305402D01*
X154938036Y-44696817D01*
X155303183Y-45061964D01*
X155694598Y-45398804D01*
X156110088Y-45705449D01*
X156110093Y-45705453D01*
X156547339Y-45980193D01*
X156547338Y-45980192D01*
X156675263Y-46047802D01*
X157003890Y-46221486D01*
X157477200Y-46427989D01*
X157477205Y-46427990D01*
X157477208Y-46427992D01*
X157570382Y-46460595D01*
X157964619Y-46598545D01*
X158463420Y-46732198D01*
X158786552Y-46793337D01*
X158970824Y-46828204D01*
X158970824Y-46828203D01*
X159086254Y-46841209D01*
X159483969Y-46886021D01*
X160000000Y-46905329D01*
X160516031Y-46886021D01*
X160913745Y-46841209D01*
X161029176Y-46828203D01*
X161029176Y-46828204D01*
X161213447Y-46793337D01*
X161536580Y-46732198D01*
X162035381Y-46598545D01*
X162429617Y-46460595D01*
X162522792Y-46427992D01*
X162522794Y-46427990D01*
X162522800Y-46427989D01*
X162996110Y-46221486D01*
X163207521Y-46109751D01*
X163452661Y-45980192D01*
X163452660Y-45980193D01*
X163625661Y-45871488D01*
X163889910Y-45705451D01*
X164305402Y-45398804D01*
X164696817Y-45061964D01*
X165061964Y-44696817D01*
X165398804Y-44305402D01*
X165705451Y-43889910D01*
X165801974Y-43736295D01*
X165980193Y-43452661D01*
X166220467Y-42998038D01*
X166221486Y-42996110D01*
X166427989Y-42522800D01*
X166598545Y-42035381D01*
X166732198Y-41536580D01*
X166732198Y-41536579D01*
X166763419Y-41371575D01*
X166828202Y-41029186D01*
X166828204Y-41029176D01*
X166828203Y-41029176D01*
X166886021Y-40516031D01*
X166905329Y-40000000D01*
X166886021Y-39483969D01*
X166828203Y-38970824D01*
X166828204Y-38970824D01*
X166732198Y-38463421D01*
X166732198Y-38463420D01*
X166598545Y-37964619D01*
X166427989Y-37477200D01*
X166221486Y-37003890D01*
X166109751Y-36792478D01*
X165980192Y-36547339D01*
X165980193Y-36547340D01*
X165871488Y-36374338D01*
X165705451Y-36110090D01*
X165398804Y-35694598D01*
X165061964Y-35303183D01*
X164696817Y-34938036D01*
X164305402Y-34601196D01*
X163889910Y-34294549D01*
X163889907Y-34294547D01*
X163452661Y-34019807D01*
X163452662Y-34019808D01*
X163207522Y-33890248D01*
X162996110Y-33778514D01*
X162522800Y-33572011D01*
X162522794Y-33572009D01*
X162522792Y-33572008D01*
X162429617Y-33539405D01*
X162035381Y-33401455D01*
X161536580Y-33267802D01*
X161213447Y-33206662D01*
X161029176Y-33171796D01*
X160913745Y-33158791D01*
X160516031Y-33113979D01*
X160000000Y-33094671D01*
X159483969Y-33113979D01*
X159086254Y-33158791D01*
X158970824Y-33171796D01*
X158786552Y-33206662D01*
X158463420Y-33267802D01*
X157964619Y-33401455D01*
X157570382Y-33539405D01*
X157477208Y-33572008D01*
X157477205Y-33572009D01*
X157477200Y-33572011D01*
X157003890Y-33778514D01*
X156792477Y-33890248D01*
X156547338Y-34019808D01*
X156547339Y-34019807D01*
X156110093Y-34294547D01*
X156110090Y-34294549D01*
X155694598Y-34601196D01*
X155303183Y-34938036D01*
X154938036Y-35303183D01*
X154601196Y-35694598D01*
X154294549Y-36110090D01*
X154128511Y-36374338D01*
X154019807Y-36547340D01*
X154019808Y-36547339D01*
X153890248Y-36792478D01*
X153778514Y-37003890D01*
X153572011Y-37477200D01*
X153401455Y-37964619D01*
X153267802Y-38463420D01*
X153267802Y-38463421D01*
X153171796Y-38970824D01*
X153171797Y-38970824D01*
X153113979Y-39483969D01*
X153094671Y-40000000D01*
X145176602Y-40000000D01*
X144999947Y-39935703D01*
X144578282Y-39805636D01*
X144242767Y-39702143D01*
X144242768Y-39702144D01*
X144242762Y-39702142D01*
X143474876Y-39506614D01*
X143218325Y-39454751D01*
X142698198Y-39349605D01*
X142698197Y-39349605D01*
X142244276Y-39281187D01*
X141914661Y-39231506D01*
X141909596Y-39230999D01*
X141126211Y-39152610D01*
X140334808Y-39113112D01*
X140334806Y-39113112D01*
X139542418Y-39113112D01*
X139542416Y-39113112D01*
X138751013Y-39152610D01*
X137967627Y-39230999D01*
X137962563Y-39231506D01*
X137632947Y-39281187D01*
X137179027Y-39349605D01*
X137179026Y-39349605D01*
X136658898Y-39454751D01*
X136402348Y-39506614D01*
X135634462Y-39702142D01*
X135634456Y-39702144D01*
X135634457Y-39702143D01*
X135298941Y-39805636D01*
X134877277Y-39935703D01*
X134132676Y-40206715D01*
X134132667Y-40206719D01*
X134132667Y-40206718D01*
X133402516Y-40514503D01*
X133105962Y-40657316D01*
X132688591Y-40858311D01*
X132688586Y-40858313D01*
X132688577Y-40858318D01*
X131992696Y-41237275D01*
X131770394Y-41373121D01*
X131316561Y-41650453D01*
X130661859Y-42096822D01*
X130391592Y-42301541D01*
X130030226Y-42575264D01*
X129423219Y-43084603D01*
X128999677Y-43477593D01*
X128842353Y-43623568D01*
X128582568Y-43889913D01*
X128289083Y-44190808D01*
X128289082Y-44190808D01*
X127764774Y-44784921D01*
X127764766Y-44784930D01*
X127764766Y-44784931D01*
X127328874Y-45331523D01*
X127270722Y-45404443D01*
X127270721Y-45404443D01*
X126845927Y-45995295D01*
X126808168Y-46047815D01*
X126600469Y-46369395D01*
X126378261Y-46713441D01*
X126378262Y-46713441D01*
X126378261Y-46713442D01*
X125982067Y-47399671D01*
X125982063Y-47399679D01*
X125982063Y-47399678D01*
X125874711Y-47609076D01*
X125620571Y-48104795D01*
X125620566Y-48104805D01*
X125620565Y-48104808D01*
X125294673Y-48827054D01*
X125294673Y-48827055D01*
X125230328Y-48991004D01*
X125005179Y-49564675D01*
X125005175Y-49564687D01*
X124752811Y-50315811D01*
X124752811Y-50315812D01*
X124538202Y-51078576D01*
X124538203Y-51078576D01*
X124429663Y-51554118D01*
X124361878Y-51851105D01*
X124224286Y-52631431D01*
X124224284Y-52631443D01*
X124224284Y-52631446D01*
X124125755Y-53417685D01*
X124124475Y-53434766D01*
X124066540Y-54207856D01*
X124066346Y-54215631D01*
X124046785Y-55000000D01*
X124066540Y-55792142D01*
X124125755Y-56582315D01*
X124221564Y-57346847D01*
X124224286Y-57368569D01*
X124356697Y-58119512D01*
X124361880Y-58148904D01*
X124529761Y-58884440D01*
X124538203Y-58921424D01*
X124538202Y-58921424D01*
X124739461Y-59636738D01*
X124752814Y-59684198D01*
X125005179Y-60435325D01*
X125117928Y-60722604D01*
X125294673Y-61172945D01*
X125294673Y-61172946D01*
X125589410Y-61826146D01*
X125620571Y-61895205D01*
X125734790Y-62117997D01*
X125982062Y-62600321D01*
X125982067Y-62600329D01*
X126378261Y-63286558D01*
X126378262Y-63286559D01*
X126378261Y-63286559D01*
X126435411Y-63375044D01*
X126808168Y-63952185D01*
X126808173Y-63952193D01*
X126808177Y-63952198D01*
X127270721Y-64595557D01*
X127270722Y-64595557D01*
X127518203Y-64905889D01*
X127764774Y-65215079D01*
X128289082Y-65809192D01*
X128308810Y-65829418D01*
X128341529Y-65891153D01*
X128335677Y-65960777D01*
X128293112Y-66016185D01*
X128227349Y-66039785D01*
X128220044Y-66040000D01*
X111657180Y-66040000D01*
X111590141Y-66020315D01*
X111544386Y-65967511D01*
X111534442Y-65898353D01*
X111563467Y-65834797D01*
X111568414Y-65829418D01*
X111588142Y-65809192D01*
X112112450Y-65215079D01*
X112359021Y-64905889D01*
X112606502Y-64595557D01*
X112606503Y-64595557D01*
X113069047Y-63952198D01*
X113069050Y-63952193D01*
X113069056Y-63952185D01*
X113441813Y-63375044D01*
X113498963Y-63286559D01*
X113498962Y-63286559D01*
X113498963Y-63286558D01*
X113895157Y-62600329D01*
X113895162Y-62600321D01*
X114142434Y-62117997D01*
X114256653Y-61895205D01*
X114287814Y-61826146D01*
X114582551Y-61172946D01*
X114582551Y-61172945D01*
X114759296Y-60722604D01*
X114872045Y-60435325D01*
X115124410Y-59684198D01*
X115137763Y-59636738D01*
X115339022Y-58921424D01*
X115339021Y-58921424D01*
X115347463Y-58884440D01*
X115515344Y-58148904D01*
X115520527Y-58119512D01*
X115652938Y-57368569D01*
X115655660Y-57346847D01*
X115751469Y-56582315D01*
X115810684Y-55792142D01*
X115830439Y-55000000D01*
X115810878Y-54215631D01*
X115810684Y-54207856D01*
X115752749Y-53434766D01*
X115751469Y-53417685D01*
X115652940Y-52631446D01*
X115652939Y-52631443D01*
X115652938Y-52631431D01*
X115515346Y-51851105D01*
X115447561Y-51554118D01*
X115339021Y-51078576D01*
X115339022Y-51078576D01*
X115124413Y-50315812D01*
X115124413Y-50315811D01*
X114872049Y-49564687D01*
X114872045Y-49564675D01*
X114646896Y-48991004D01*
X114582551Y-48827055D01*
X114582551Y-48827054D01*
X114256659Y-48104808D01*
X114256657Y-48104805D01*
X114256653Y-48104795D01*
X114002513Y-47609076D01*
X113895161Y-47399678D01*
X113895161Y-47399679D01*
X113895157Y-47399671D01*
X113498963Y-46713442D01*
X113498962Y-46713441D01*
X113498963Y-46713441D01*
X113276754Y-46369395D01*
X113069056Y-46047815D01*
X113031297Y-45995295D01*
X112606503Y-45404443D01*
X112606502Y-45404443D01*
X112548350Y-45331523D01*
X112112458Y-44784931D01*
X112112457Y-44784930D01*
X112112450Y-44784921D01*
X111588142Y-44190808D01*
X111588141Y-44190808D01*
X111294657Y-43889913D01*
X111034871Y-43623568D01*
X110877547Y-43477593D01*
X110454005Y-43084603D01*
X109846998Y-42575264D01*
X109485632Y-42301541D01*
X109215365Y-42096822D01*
X108560663Y-41650453D01*
X108106830Y-41373121D01*
X107884528Y-41237275D01*
X107188647Y-40858318D01*
X107188637Y-40858313D01*
X107188633Y-40858311D01*
X106771262Y-40657316D01*
X106474708Y-40514503D01*
X105744557Y-40206718D01*
X105744557Y-40206719D01*
X105744548Y-40206715D01*
X104999947Y-39935703D01*
X104578282Y-39805636D01*
X104242767Y-39702143D01*
X104242768Y-39702144D01*
X104242762Y-39702142D01*
X103474876Y-39506614D01*
X103218325Y-39454751D01*
X102698198Y-39349605D01*
X102698197Y-39349605D01*
X102244276Y-39281187D01*
X101914661Y-39231506D01*
X101909596Y-39230999D01*
X101126211Y-39152610D01*
X100334808Y-39113112D01*
X100334806Y-39113112D01*
X99542418Y-39113112D01*
X99542416Y-39113112D01*
X98751013Y-39152610D01*
X97967627Y-39230999D01*
X97962563Y-39231506D01*
X97632947Y-39281187D01*
X97179027Y-39349605D01*
X97179026Y-39349605D01*
X96658898Y-39454751D01*
X96402348Y-39506614D01*
X95634462Y-39702142D01*
X95634456Y-39702144D01*
X95634457Y-39702143D01*
X95298941Y-39805636D01*
X94877277Y-39935703D01*
X94132676Y-40206715D01*
X94132667Y-40206719D01*
X94132667Y-40206718D01*
X93402516Y-40514503D01*
X93105962Y-40657316D01*
X92688591Y-40858311D01*
X92688586Y-40858313D01*
X92688577Y-40858318D01*
X91992696Y-41237275D01*
X91770394Y-41373121D01*
X91316561Y-41650453D01*
X90661859Y-42096822D01*
X90391592Y-42301541D01*
X90030226Y-42575264D01*
X89423219Y-43084603D01*
X88999677Y-43477593D01*
X88842353Y-43623568D01*
X88582568Y-43889913D01*
X88289083Y-44190808D01*
X88289082Y-44190808D01*
X87764774Y-44784921D01*
X87764766Y-44784930D01*
X87764766Y-44784931D01*
X87328874Y-45331523D01*
X87270722Y-45404443D01*
X87270721Y-45404443D01*
X86845927Y-45995295D01*
X86808168Y-46047815D01*
X86600469Y-46369395D01*
X86378261Y-46713441D01*
X86378262Y-46713441D01*
X86378261Y-46713442D01*
X85982067Y-47399671D01*
X85982063Y-47399679D01*
X85982063Y-47399678D01*
X85874711Y-47609076D01*
X85620571Y-48104795D01*
X85620566Y-48104805D01*
X85620565Y-48104808D01*
X85294673Y-48827054D01*
X85294673Y-48827055D01*
X85230328Y-48991004D01*
X85005179Y-49564675D01*
X85005175Y-49564687D01*
X84752811Y-50315811D01*
X84752811Y-50315812D01*
X84538202Y-51078576D01*
X84538203Y-51078576D01*
X84429663Y-51554118D01*
X84361878Y-51851105D01*
X84224286Y-52631431D01*
X84224284Y-52631443D01*
X84224284Y-52631446D01*
X84125755Y-53417685D01*
X84124475Y-53434766D01*
X84066540Y-54207856D01*
X84066346Y-54215631D01*
X84046785Y-55000000D01*
X84066540Y-55792142D01*
X84125755Y-56582315D01*
X84221564Y-57346847D01*
X84224286Y-57368569D01*
X84356697Y-58119512D01*
X84361880Y-58148904D01*
X84529761Y-58884440D01*
X84538203Y-58921424D01*
X84538202Y-58921424D01*
X84739461Y-59636738D01*
X84752814Y-59684198D01*
X85005179Y-60435325D01*
X85117928Y-60722604D01*
X85294673Y-61172945D01*
X85294673Y-61172946D01*
X85589410Y-61826146D01*
X85620571Y-61895205D01*
X85734790Y-62117997D01*
X85982062Y-62600321D01*
X85982067Y-62600329D01*
X86378261Y-63286558D01*
X86378262Y-63286559D01*
X86378261Y-63286559D01*
X86435411Y-63375044D01*
X86808168Y-63952185D01*
X86808173Y-63952193D01*
X86808177Y-63952198D01*
X87270721Y-64595557D01*
X87270722Y-64595557D01*
X87518203Y-64905889D01*
X87764774Y-65215079D01*
X88289082Y-65809192D01*
X88308810Y-65829418D01*
X88341529Y-65891153D01*
X88335677Y-65960777D01*
X88293112Y-66016185D01*
X88227349Y-66039785D01*
X88220044Y-66040000D01*
X71718568Y-66040000D01*
X71651529Y-66020315D01*
X71605774Y-65967511D01*
X71595830Y-65898353D01*
X71624855Y-65834797D01*
X71629802Y-65829418D01*
X71649530Y-65809192D01*
X72173838Y-65215079D01*
X72420409Y-64905889D01*
X72667890Y-64595557D01*
X72667891Y-64595557D01*
X73130435Y-63952198D01*
X73130438Y-63952193D01*
X73130444Y-63952185D01*
X73503201Y-63375044D01*
X73560351Y-63286559D01*
X73560350Y-63286559D01*
X73560351Y-63286558D01*
X73956545Y-62600329D01*
X73956550Y-62600321D01*
X74203822Y-62117997D01*
X74318041Y-61895205D01*
X74349202Y-61826146D01*
X74643939Y-61172946D01*
X74643939Y-61172945D01*
X74820684Y-60722604D01*
X74933433Y-60435325D01*
X75185798Y-59684198D01*
X75199151Y-59636738D01*
X75400410Y-58921424D01*
X75400409Y-58921424D01*
X75408851Y-58884440D01*
X75576732Y-58148904D01*
X75581915Y-58119512D01*
X75714326Y-57368569D01*
X75717048Y-57346847D01*
X75812857Y-56582315D01*
X75872072Y-55792142D01*
X75891827Y-55000000D01*
X75872266Y-54215631D01*
X75872072Y-54207856D01*
X75814137Y-53434766D01*
X75812857Y-53417685D01*
X75714328Y-52631446D01*
X75714327Y-52631443D01*
X75714326Y-52631431D01*
X75576734Y-51851105D01*
X75508949Y-51554118D01*
X75400409Y-51078576D01*
X75400410Y-51078576D01*
X75185801Y-50315812D01*
X75185801Y-50315811D01*
X74933437Y-49564687D01*
X74933433Y-49564675D01*
X74708284Y-48991004D01*
X74643939Y-48827055D01*
X74643939Y-48827054D01*
X74318047Y-48104808D01*
X74318045Y-48104805D01*
X74318041Y-48104795D01*
X74063901Y-47609076D01*
X73956549Y-47399678D01*
X73956549Y-47399679D01*
X73956545Y-47399671D01*
X73560351Y-46713442D01*
X73560350Y-46713441D01*
X73560351Y-46713441D01*
X73338142Y-46369395D01*
X73130444Y-46047815D01*
X73092685Y-45995295D01*
X72667891Y-45404443D01*
X72667890Y-45404443D01*
X72609738Y-45331523D01*
X72173846Y-44784931D01*
X72173845Y-44784930D01*
X72173838Y-44784921D01*
X71649530Y-44190808D01*
X71649529Y-44190808D01*
X71356045Y-43889913D01*
X71096259Y-43623568D01*
X70938935Y-43477593D01*
X70515393Y-43084603D01*
X69908386Y-42575264D01*
X69547020Y-42301541D01*
X69276753Y-42096822D01*
X68622051Y-41650453D01*
X68168218Y-41373121D01*
X67945916Y-41237275D01*
X67250035Y-40858318D01*
X67250025Y-40858313D01*
X67250021Y-40858311D01*
X66832650Y-40657316D01*
X66536096Y-40514503D01*
X65805945Y-40206718D01*
X65805945Y-40206719D01*
X65805936Y-40206715D01*
X65061335Y-39935703D01*
X64639670Y-39805636D01*
X64304155Y-39702143D01*
X64304156Y-39702144D01*
X64304150Y-39702142D01*
X63536264Y-39506614D01*
X63279713Y-39454751D01*
X62759586Y-39349605D01*
X62759585Y-39349605D01*
X62305664Y-39281187D01*
X61976049Y-39231506D01*
X61970984Y-39230999D01*
X61187599Y-39152610D01*
X60396196Y-39113112D01*
X60396194Y-39113112D01*
X59603806Y-39113112D01*
X59603804Y-39113112D01*
X58812401Y-39152610D01*
X58029015Y-39230999D01*
X58023951Y-39231506D01*
X57694335Y-39281187D01*
X57240415Y-39349605D01*
X57240414Y-39349605D01*
X56720286Y-39454751D01*
X56463736Y-39506614D01*
X55695850Y-39702142D01*
X55695844Y-39702144D01*
X55695845Y-39702143D01*
X55360329Y-39805636D01*
X54938665Y-39935703D01*
X54194064Y-40206715D01*
X54194055Y-40206719D01*
X54194055Y-40206718D01*
X53463904Y-40514503D01*
X53167350Y-40657316D01*
X52749979Y-40858311D01*
X52749974Y-40858313D01*
X52749965Y-40858318D01*
X52054084Y-41237275D01*
X51831782Y-41373121D01*
X51377949Y-41650453D01*
X50723247Y-42096822D01*
X50452980Y-42301541D01*
X50091614Y-42575264D01*
X49484607Y-43084603D01*
X49061065Y-43477593D01*
X48903741Y-43623568D01*
X48643956Y-43889913D01*
X48350471Y-44190808D01*
X48350470Y-44190808D01*
X47826162Y-44784921D01*
X47826154Y-44784930D01*
X47826154Y-44784931D01*
X47390262Y-45331523D01*
X47332110Y-45404443D01*
X47332109Y-45404443D01*
X46907315Y-45995295D01*
X46869556Y-46047815D01*
X46661857Y-46369395D01*
X46439649Y-46713441D01*
X46439650Y-46713441D01*
X46439649Y-46713442D01*
X46043455Y-47399671D01*
X46043451Y-47399679D01*
X46043451Y-47399678D01*
X45936099Y-47609076D01*
X45681959Y-48104795D01*
X45681954Y-48104805D01*
X45681953Y-48104808D01*
X45356061Y-48827054D01*
X45356061Y-48827055D01*
X45291716Y-48991004D01*
X45066567Y-49564675D01*
X45066563Y-49564687D01*
X44814199Y-50315811D01*
X44814199Y-50315812D01*
X44599590Y-51078576D01*
X44599591Y-51078576D01*
X44491051Y-51554118D01*
X44423266Y-51851105D01*
X44285674Y-52631431D01*
X44285672Y-52631443D01*
X44285672Y-52631446D01*
X44187143Y-53417685D01*
X44185863Y-53434766D01*
X44127928Y-54207856D01*
X44127734Y-54215631D01*
X44108173Y-55000000D01*
X20000000Y-55000000D01*
X20000000Y-40000000D01*
X33094671Y-40000000D01*
X33113979Y-40516031D01*
X33171797Y-41029176D01*
X33171796Y-41029176D01*
X33171798Y-41029186D01*
X33236581Y-41371575D01*
X33267802Y-41536579D01*
X33267802Y-41536580D01*
X33401455Y-42035381D01*
X33572011Y-42522800D01*
X33778514Y-42996110D01*
X33779533Y-42998038D01*
X34019807Y-43452660D01*
X34038354Y-43482177D01*
X34294549Y-43889910D01*
X34601196Y-44305402D01*
X34938036Y-44696817D01*
X35303183Y-45061964D01*
X35694598Y-45398804D01*
X36110088Y-45705449D01*
X36110093Y-45705453D01*
X36547339Y-45980193D01*
X36547338Y-45980192D01*
X36675263Y-46047802D01*
X37003890Y-46221486D01*
X37477200Y-46427989D01*
X37477205Y-46427990D01*
X37477208Y-46427992D01*
X37570382Y-46460595D01*
X37964619Y-46598545D01*
X38463420Y-46732198D01*
X38786552Y-46793337D01*
X38970824Y-46828204D01*
X38970824Y-46828203D01*
X39086254Y-46841209D01*
X39483969Y-46886021D01*
X40000000Y-46905329D01*
X40516031Y-46886021D01*
X40913745Y-46841209D01*
X41029176Y-46828203D01*
X41029176Y-46828204D01*
X41213447Y-46793337D01*
X41536580Y-46732198D01*
X42035381Y-46598545D01*
X42429617Y-46460595D01*
X42522792Y-46427992D01*
X42522794Y-46427990D01*
X42522800Y-46427989D01*
X42996110Y-46221486D01*
X43207521Y-46109751D01*
X43452661Y-45980192D01*
X43452660Y-45980193D01*
X43625661Y-45871488D01*
X43889910Y-45705451D01*
X44305402Y-45398804D01*
X44696817Y-45061964D01*
X45061964Y-44696817D01*
X45398804Y-44305402D01*
X45705451Y-43889910D01*
X45801974Y-43736295D01*
X45980193Y-43452661D01*
X46220467Y-42998038D01*
X46221486Y-42996110D01*
X46427989Y-42522800D01*
X46598545Y-42035381D01*
X46732198Y-41536580D01*
X46732198Y-41536579D01*
X46763419Y-41371575D01*
X46828202Y-41029186D01*
X46828204Y-41029176D01*
X46828203Y-41029176D01*
X46886021Y-40516031D01*
X46905329Y-40000000D01*
X46886021Y-39483969D01*
X46828203Y-38970824D01*
X46828204Y-38970824D01*
X46732198Y-38463421D01*
X46732198Y-38463420D01*
X46598545Y-37964619D01*
X46427989Y-37477200D01*
X46221486Y-37003890D01*
X46109751Y-36792478D01*
X45980192Y-36547339D01*
X45980193Y-36547340D01*
X45871488Y-36374338D01*
X45705451Y-36110090D01*
X45398804Y-35694598D01*
X45061964Y-35303183D01*
X44696817Y-34938036D01*
X44305402Y-34601196D01*
X43889910Y-34294549D01*
X43889907Y-34294547D01*
X43452661Y-34019807D01*
X43452662Y-34019808D01*
X43207522Y-33890248D01*
X42996110Y-33778514D01*
X42522800Y-33572011D01*
X42522794Y-33572009D01*
X42522792Y-33572008D01*
X42429617Y-33539405D01*
X42035381Y-33401455D01*
X41536580Y-33267802D01*
X41213447Y-33206662D01*
X41029176Y-33171796D01*
X40913745Y-33158791D01*
X40516031Y-33113979D01*
X40000000Y-33094671D01*
X39483969Y-33113979D01*
X39086254Y-33158791D01*
X38970824Y-33171796D01*
X38786552Y-33206662D01*
X38463420Y-33267802D01*
X37964619Y-33401455D01*
X37570382Y-33539405D01*
X37477208Y-33572008D01*
X37477205Y-33572009D01*
X37477200Y-33572011D01*
X37003890Y-33778514D01*
X36792477Y-33890248D01*
X36547338Y-34019808D01*
X36547339Y-34019807D01*
X36110093Y-34294547D01*
X36110090Y-34294549D01*
X35694598Y-34601196D01*
X35303183Y-34938036D01*
X34938036Y-35303183D01*
X34601196Y-35694598D01*
X34294549Y-36110090D01*
X34128511Y-36374338D01*
X34019807Y-36547340D01*
X34019808Y-36547339D01*
X33890248Y-36792478D01*
X33778514Y-37003890D01*
X33572011Y-37477200D01*
X33401455Y-37964619D01*
X33267802Y-38463420D01*
X33267802Y-38463421D01*
X33171796Y-38970824D01*
X33171797Y-38970824D01*
X33113979Y-39483969D01*
X33094671Y-40000000D01*
X20000000Y-40000000D01*
X20000000Y-30000003D01*
X25194661Y-30000003D01*
X25214005Y-30430737D01*
X25214006Y-30430746D01*
X25271885Y-30858027D01*
X25367830Y-31278391D01*
X25501073Y-31688472D01*
X25501076Y-31688480D01*
X25670533Y-32084947D01*
X25670537Y-32084955D01*
X25670539Y-32084958D01*
X25874863Y-32464655D01*
X25874867Y-32464661D01*
X25874867Y-32464662D01*
X26112394Y-32824501D01*
X26112404Y-32824514D01*
X26381225Y-33161607D01*
X26381237Y-33161620D01*
X26517851Y-33304507D01*
X26679210Y-33473274D01*
X27003920Y-33756965D01*
X27352753Y-34010407D01*
X27722900Y-34231560D01*
X27722903Y-34231561D01*
X27722904Y-34231562D01*
X27722906Y-34231563D01*
X28111372Y-34418639D01*
X28111386Y-34418645D01*
X28515055Y-34570144D01*
X28515059Y-34570145D01*
X28515069Y-34570149D01*
X28930711Y-34684859D01*
X29354964Y-34761850D01*
X29784409Y-34800500D01*
X29784416Y-34800500D01*
X30215584Y-34800500D01*
X30215591Y-34800500D01*
X30645036Y-34761850D01*
X31069289Y-34684859D01*
X31484931Y-34570149D01*
X31888619Y-34418643D01*
X32277100Y-34231560D01*
X32647247Y-34010407D01*
X32996080Y-33756965D01*
X33320790Y-33473274D01*
X33618764Y-33161619D01*
X33887601Y-32824507D01*
X34125137Y-32464655D01*
X34329461Y-32084958D01*
X34498926Y-31688475D01*
X34632168Y-31278397D01*
X34728115Y-30858026D01*
X34779322Y-30480003D01*
X96794661Y-30480003D01*
X96814005Y-30910737D01*
X96814006Y-30910746D01*
X96871885Y-31338027D01*
X96967830Y-31758391D01*
X97101073Y-32168472D01*
X97101076Y-32168480D01*
X97270533Y-32564947D01*
X97270537Y-32564955D01*
X97270539Y-32564958D01*
X97474863Y-32944655D01*
X97474867Y-32944661D01*
X97474867Y-32944662D01*
X97712394Y-33304501D01*
X97712404Y-33304514D01*
X97981225Y-33641607D01*
X97981237Y-33641620D01*
X98091518Y-33756965D01*
X98279210Y-33953274D01*
X98603920Y-34236965D01*
X98603930Y-34236972D01*
X98603931Y-34236973D01*
X98683177Y-34294549D01*
X98952753Y-34490407D01*
X99322900Y-34711560D01*
X99322903Y-34711561D01*
X99322904Y-34711562D01*
X99322906Y-34711563D01*
X99711372Y-34898639D01*
X99711386Y-34898645D01*
X100115055Y-35050144D01*
X100115059Y-35050145D01*
X100115069Y-35050149D01*
X100530711Y-35164859D01*
X100954964Y-35241850D01*
X101384409Y-35280500D01*
X101384416Y-35280500D01*
X101815584Y-35280500D01*
X101815591Y-35280500D01*
X102245036Y-35241850D01*
X102669289Y-35164859D01*
X103084931Y-35050149D01*
X103488619Y-34898643D01*
X103877100Y-34711560D01*
X104247247Y-34490407D01*
X104596080Y-34236965D01*
X104920790Y-33953274D01*
X105218764Y-33641619D01*
X105274275Y-33572011D01*
X105487595Y-33304514D01*
X105487601Y-33304507D01*
X105725137Y-32944655D01*
X105929461Y-32564958D01*
X106098926Y-32168475D01*
X106232168Y-31758397D01*
X106328115Y-31338026D01*
X106385994Y-30910747D01*
X106405339Y-30480000D01*
X106385994Y-30049253D01*
X106379323Y-30000003D01*
X165194661Y-30000003D01*
X165214005Y-30430737D01*
X165214006Y-30430746D01*
X165271885Y-30858027D01*
X165367830Y-31278391D01*
X165501073Y-31688472D01*
X165501076Y-31688480D01*
X165670533Y-32084947D01*
X165670537Y-32084955D01*
X165670539Y-32084958D01*
X165874863Y-32464655D01*
X165874867Y-32464661D01*
X165874867Y-32464662D01*
X166112394Y-32824501D01*
X166112404Y-32824514D01*
X166381225Y-33161607D01*
X166381237Y-33161620D01*
X166517851Y-33304507D01*
X166679210Y-33473274D01*
X167003920Y-33756965D01*
X167352753Y-34010407D01*
X167722900Y-34231560D01*
X167722903Y-34231561D01*
X167722904Y-34231562D01*
X167722906Y-34231563D01*
X168111372Y-34418639D01*
X168111386Y-34418645D01*
X168515055Y-34570144D01*
X168515059Y-34570145D01*
X168515069Y-34570149D01*
X168930711Y-34684859D01*
X169354964Y-34761850D01*
X169784409Y-34800500D01*
X169784416Y-34800500D01*
X170215584Y-34800500D01*
X170215591Y-34800500D01*
X170645036Y-34761850D01*
X171069289Y-34684859D01*
X171484931Y-34570149D01*
X171888619Y-34418643D01*
X172277100Y-34231560D01*
X172647247Y-34010407D01*
X172996080Y-33756965D01*
X173320790Y-33473274D01*
X173618764Y-33161619D01*
X173887601Y-32824507D01*
X174125137Y-32464655D01*
X174329461Y-32084958D01*
X174498926Y-31688475D01*
X174632168Y-31278397D01*
X174728115Y-30858026D01*
X174785994Y-30430747D01*
X174805339Y-30000000D01*
X174785994Y-29569253D01*
X174728115Y-29141974D01*
X174632168Y-28721603D01*
X174498926Y-28311525D01*
X174372330Y-28015338D01*
X174329466Y-27915052D01*
X174329462Y-27915044D01*
X174329461Y-27915042D01*
X174125137Y-27535345D01*
X173981928Y-27318392D01*
X173887605Y-27175498D01*
X173887595Y-27175485D01*
X173618774Y-26838392D01*
X173618762Y-26838379D01*
X173320794Y-26526730D01*
X173320793Y-26526729D01*
X173320790Y-26526726D01*
X172996080Y-26243035D01*
X172746018Y-26061354D01*
X172647256Y-25989599D01*
X172647251Y-25989596D01*
X172647247Y-25989593D01*
X172277100Y-25768440D01*
X172277095Y-25768437D01*
X172277093Y-25768436D01*
X171888627Y-25581360D01*
X171888613Y-25581354D01*
X171484944Y-25429855D01*
X171484919Y-25429847D01*
X171069295Y-25315142D01*
X170645043Y-25238151D01*
X170645040Y-25238150D01*
X170645036Y-25238150D01*
X170215591Y-25199500D01*
X169784409Y-25199500D01*
X169354964Y-25238150D01*
X169354960Y-25238150D01*
X169354956Y-25238151D01*
X168930704Y-25315142D01*
X168515080Y-25429847D01*
X168515055Y-25429855D01*
X168111386Y-25581354D01*
X168111372Y-25581360D01*
X167722906Y-25768436D01*
X167722904Y-25768437D01*
X167352743Y-25989599D01*
X167003931Y-26243026D01*
X167003914Y-26243039D01*
X166679210Y-26526726D01*
X166679205Y-26526730D01*
X166381237Y-26838379D01*
X166381225Y-26838392D01*
X166112404Y-27175485D01*
X166112394Y-27175498D01*
X165874867Y-27535337D01*
X165874867Y-27535338D01*
X165670537Y-27915044D01*
X165670533Y-27915052D01*
X165501076Y-28311519D01*
X165501073Y-28311527D01*
X165367830Y-28721608D01*
X165271885Y-29141972D01*
X165214006Y-29569253D01*
X165214005Y-29569262D01*
X165194661Y-29999996D01*
X165194661Y-30000003D01*
X106379323Y-30000003D01*
X106328115Y-29621974D01*
X106232168Y-29201603D01*
X106098926Y-28791525D01*
X106035376Y-28642843D01*
X105929466Y-28395052D01*
X105929462Y-28395044D01*
X105929461Y-28395042D01*
X105725137Y-28015345D01*
X105725132Y-28015337D01*
X105487605Y-27655498D01*
X105487595Y-27655485D01*
X105218774Y-27318392D01*
X105218762Y-27318379D01*
X104920794Y-27006730D01*
X104920793Y-27006729D01*
X104920790Y-27006726D01*
X104596080Y-26723035D01*
X104596068Y-26723026D01*
X104247256Y-26469599D01*
X104247251Y-26469596D01*
X104247247Y-26469593D01*
X103877100Y-26248440D01*
X103877095Y-26248437D01*
X103877093Y-26248436D01*
X103488627Y-26061360D01*
X103488613Y-26061354D01*
X103084944Y-25909855D01*
X103084919Y-25909847D01*
X102669295Y-25795142D01*
X102245043Y-25718151D01*
X102245040Y-25718150D01*
X102245036Y-25718150D01*
X101815591Y-25679500D01*
X101384409Y-25679500D01*
X100954964Y-25718150D01*
X100954960Y-25718150D01*
X100954956Y-25718151D01*
X100530704Y-25795142D01*
X100115080Y-25909847D01*
X100115055Y-25909855D01*
X99711386Y-26061354D01*
X99711372Y-26061360D01*
X99322906Y-26248436D01*
X99322904Y-26248437D01*
X98952743Y-26469599D01*
X98603931Y-26723026D01*
X98603914Y-26723039D01*
X98279210Y-27006726D01*
X98279205Y-27006730D01*
X97981237Y-27318379D01*
X97981225Y-27318392D01*
X97712404Y-27655485D01*
X97712394Y-27655498D01*
X97474867Y-28015337D01*
X97474867Y-28015338D01*
X97270537Y-28395044D01*
X97270533Y-28395052D01*
X97101076Y-28791519D01*
X97101073Y-28791527D01*
X96967830Y-29201608D01*
X96871885Y-29621972D01*
X96814006Y-30049253D01*
X96814005Y-30049262D01*
X96794661Y-30479996D01*
X96794661Y-30480003D01*
X34779322Y-30480003D01*
X34785994Y-30430747D01*
X34805339Y-30000000D01*
X34785994Y-29569253D01*
X34728115Y-29141974D01*
X34632168Y-28721603D01*
X34498926Y-28311525D01*
X34372330Y-28015338D01*
X34329466Y-27915052D01*
X34329462Y-27915044D01*
X34329461Y-27915042D01*
X34125137Y-27535345D01*
X33981928Y-27318392D01*
X33887605Y-27175498D01*
X33887595Y-27175485D01*
X33618774Y-26838392D01*
X33618762Y-26838379D01*
X33320794Y-26526730D01*
X33320793Y-26526729D01*
X33320790Y-26526726D01*
X32996080Y-26243035D01*
X32746018Y-26061354D01*
X32647256Y-25989599D01*
X32647251Y-25989596D01*
X32647247Y-25989593D01*
X32277100Y-25768440D01*
X32277095Y-25768437D01*
X32277093Y-25768436D01*
X31888627Y-25581360D01*
X31888613Y-25581354D01*
X31484944Y-25429855D01*
X31484919Y-25429847D01*
X31069295Y-25315142D01*
X30645043Y-25238151D01*
X30645040Y-25238150D01*
X30645036Y-25238150D01*
X30215591Y-25199500D01*
X29784409Y-25199500D01*
X29354964Y-25238150D01*
X29354960Y-25238150D01*
X29354956Y-25238151D01*
X28930704Y-25315142D01*
X28515080Y-25429847D01*
X28515055Y-25429855D01*
X28111386Y-25581354D01*
X28111372Y-25581360D01*
X27722906Y-25768436D01*
X27722904Y-25768437D01*
X27352743Y-25989599D01*
X27003931Y-26243026D01*
X27003914Y-26243039D01*
X26679210Y-26526726D01*
X26679205Y-26526730D01*
X26381237Y-26838379D01*
X26381225Y-26838392D01*
X26112404Y-27175485D01*
X26112394Y-27175498D01*
X25874867Y-27535337D01*
X25874867Y-27535338D01*
X25670537Y-27915044D01*
X25670533Y-27915052D01*
X25501076Y-28311519D01*
X25501073Y-28311527D01*
X25367830Y-28721608D01*
X25271885Y-29141972D01*
X25214006Y-29569253D01*
X25214005Y-29569262D01*
X25194661Y-29999996D01*
X25194661Y-30000003D01*
X20000000Y-30000003D01*
X20000000Y-20124000D01*
X20019685Y-20056961D01*
X20072489Y-20011206D01*
X20124000Y-20000000D01*
X179876000Y-20000000D01*
X179943039Y-20019685D01*
G37*
G04 #@! TD.AperFunction*
M02*
