G04 #@! TF.GenerationSoftware,KiCad,Pcbnew,7.0.9-1.fc39*
G04 #@! TF.CreationDate,2023-12-29T09:38:10-05:00*
G04 #@! TF.ProjectId,SYSMATT-WS2812-MATRIX-CARRIER,5359534d-4154-4542-9d57-53323831322d,rev?*
G04 #@! TF.SameCoordinates,Original*
G04 #@! TF.FileFunction,Copper,L2,Bot*
G04 #@! TF.FilePolarity,Positive*
%FSLAX46Y46*%
G04 Gerber Fmt 4.6, Leading zero omitted, Abs format (unit mm)*
G04 Created by KiCad (PCBNEW 7.0.9-1.fc39) date 2023-12-29 09:38:10*
%MOMM*%
%LPD*%
G01*
G04 APERTURE LIST*
G04 Aperture macros list*
%AMRoundRect*
0 Rectangle with rounded corners*
0 $1 Rounding radius*
0 $2 $3 $4 $5 $6 $7 $8 $9 X,Y pos of 4 corners*
0 Add a 4 corners polygon primitive as box body*
4,1,4,$2,$3,$4,$5,$6,$7,$8,$9,$2,$3,0*
0 Add four circle primitives for the rounded corners*
1,1,$1+$1,$2,$3*
1,1,$1+$1,$4,$5*
1,1,$1+$1,$6,$7*
1,1,$1+$1,$8,$9*
0 Add four rect primitives between the rounded corners*
20,1,$1+$1,$2,$3,$4,$5,0*
20,1,$1+$1,$4,$5,$6,$7,0*
20,1,$1+$1,$6,$7,$8,$9,0*
20,1,$1+$1,$8,$9,$2,$3,0*%
G04 Aperture macros list end*
G04 #@! TA.AperFunction,ComponentPad*
%ADD10C,8.600000*%
G04 #@! TD*
G04 #@! TA.AperFunction,ComponentPad*
%ADD11C,12.800000*%
G04 #@! TD*
G04 #@! TA.AperFunction,ComponentPad*
%ADD12R,3.500000X3.500000*%
G04 #@! TD*
G04 #@! TA.AperFunction,ComponentPad*
%ADD13RoundRect,0.750000X1.000000X-0.750000X1.000000X0.750000X-1.000000X0.750000X-1.000000X-0.750000X0*%
G04 #@! TD*
G04 #@! TA.AperFunction,ComponentPad*
%ADD14RoundRect,0.875000X0.875000X-0.875000X0.875000X0.875000X-0.875000X0.875000X-0.875000X-0.875000X0*%
G04 #@! TD*
G04 #@! TA.AperFunction,ComponentPad*
%ADD15R,1.700000X1.700000*%
G04 #@! TD*
G04 #@! TA.AperFunction,ComponentPad*
%ADD16O,1.700000X1.700000*%
G04 #@! TD*
G04 #@! TA.AperFunction,ComponentPad*
%ADD17C,10.600000*%
G04 #@! TD*
G04 #@! TA.AperFunction,ViaPad*
%ADD18C,0.800000*%
G04 #@! TD*
G04 #@! TA.AperFunction,Conductor*
%ADD19C,2.500000*%
G04 #@! TD*
G04 #@! TA.AperFunction,Conductor*
%ADD20C,0.400000*%
G04 #@! TD*
G04 APERTURE END LIST*
D10*
X127000000Y-172720000D03*
X83820000Y-172720000D03*
X101600000Y-30480000D03*
X30480000Y-100330000D03*
X170180000Y-100330000D03*
D11*
X160000000Y-40000000D03*
D12*
X103042500Y-167000000D03*
D13*
X103042500Y-173000000D03*
D14*
X107742500Y-170000000D03*
D15*
X111000000Y-138000000D03*
D16*
X111000000Y-140540000D03*
D15*
X142525000Y-92625000D03*
D16*
X139985000Y-92625000D03*
X137445000Y-92625000D03*
D15*
X90375000Y-152525000D03*
D16*
X90375000Y-149985000D03*
X90375000Y-147445000D03*
D15*
X62525000Y-92625000D03*
D16*
X59985000Y-92625000D03*
X57445000Y-92625000D03*
D11*
X40000000Y-40000000D03*
D10*
X170000000Y-170000000D03*
D15*
X102275000Y-112625000D03*
D16*
X99735000Y-112625000D03*
D10*
X170000000Y-30000000D03*
D17*
X101000000Y-100000000D03*
D11*
X160000000Y-160000000D03*
D10*
X30000000Y-170000000D03*
X30000000Y-30000000D03*
D15*
X110625000Y-147475000D03*
D16*
X110625000Y-150015000D03*
X110625000Y-152555000D03*
D11*
X40000000Y-160000000D03*
D18*
X70000000Y-71000000D03*
X150000000Y-73000000D03*
D19*
X76445000Y-147445000D02*
X90375000Y-147445000D01*
X112555000Y-152555000D02*
X123000000Y-163000000D01*
X123000000Y-163000000D02*
X123000000Y-168000000D01*
X121000000Y-170000000D02*
X107742500Y-170000000D01*
X110625000Y-152555000D02*
X112555000Y-152555000D01*
X57445000Y-92625000D02*
X57445000Y-128445000D01*
X123000000Y-168000000D02*
X121000000Y-170000000D01*
X57445000Y-128445000D02*
X76445000Y-147445000D01*
D20*
X59985000Y-92625000D02*
X59985000Y-114438705D01*
X70000000Y-71000000D02*
X59985000Y-81015000D01*
X92225000Y-149337081D02*
X91577081Y-149985000D01*
X92225000Y-146678705D02*
X92225000Y-149337081D01*
X59985000Y-114438705D02*
X92225000Y-146678705D01*
X59985000Y-81015000D02*
X59985000Y-92625000D01*
X91577081Y-149985000D02*
X90375000Y-149985000D01*
X139985000Y-92625000D02*
X139985000Y-83015000D01*
X139985000Y-121857081D02*
X111827081Y-150015000D01*
X139985000Y-83015000D02*
X150000000Y-73000000D01*
X139985000Y-92625000D02*
X139985000Y-121857081D01*
X111827081Y-150015000D02*
X110625000Y-150015000D01*
G04 #@! TA.AperFunction,Conductor*
G36*
X179943039Y-20019685D02*
G01*
X179988794Y-20072489D01*
X180000000Y-20124000D01*
X180000000Y-179876000D01*
X179980315Y-179943039D01*
X179927511Y-179988794D01*
X179876000Y-180000000D01*
X20124000Y-180000000D01*
X20056961Y-179980315D01*
X20011206Y-179927511D01*
X20000000Y-179876000D01*
X20000000Y-170000003D01*
X25194661Y-170000003D01*
X25214005Y-170430737D01*
X25214006Y-170430746D01*
X25271885Y-170858027D01*
X25367830Y-171278391D01*
X25501073Y-171688472D01*
X25501076Y-171688480D01*
X25670533Y-172084947D01*
X25670537Y-172084955D01*
X25724808Y-172185806D01*
X25874863Y-172464655D01*
X25874867Y-172464661D01*
X25874867Y-172464662D01*
X26112394Y-172824501D01*
X26112404Y-172824514D01*
X26381225Y-173161607D01*
X26381235Y-173161618D01*
X26381236Y-173161619D01*
X26679210Y-173473274D01*
X27003920Y-173756965D01*
X27003930Y-173756972D01*
X27003931Y-173756973D01*
X27336222Y-173998397D01*
X27352753Y-174010407D01*
X27722900Y-174231560D01*
X27722903Y-174231561D01*
X27722904Y-174231562D01*
X27722906Y-174231563D01*
X28111372Y-174418639D01*
X28111386Y-174418645D01*
X28515055Y-174570144D01*
X28515059Y-174570145D01*
X28515069Y-174570149D01*
X28930711Y-174684859D01*
X29354964Y-174761850D01*
X29784409Y-174800500D01*
X29784416Y-174800500D01*
X30215584Y-174800500D01*
X30215591Y-174800500D01*
X30645036Y-174761850D01*
X31069289Y-174684859D01*
X31484931Y-174570149D01*
X31888619Y-174418643D01*
X32277100Y-174231560D01*
X32647247Y-174010407D01*
X32996080Y-173756965D01*
X33320790Y-173473274D01*
X33618764Y-173161619D01*
X33627435Y-173150747D01*
X33887595Y-172824514D01*
X33887601Y-172824507D01*
X33956583Y-172720003D01*
X79014661Y-172720003D01*
X79034005Y-173150737D01*
X79034006Y-173150746D01*
X79091885Y-173578027D01*
X79187830Y-173998391D01*
X79321073Y-174408472D01*
X79321076Y-174408480D01*
X79490533Y-174804947D01*
X79490537Y-174804955D01*
X79510241Y-174841571D01*
X79694863Y-175184655D01*
X79694867Y-175184661D01*
X79694867Y-175184662D01*
X79932394Y-175544501D01*
X79932404Y-175544514D01*
X80201225Y-175881607D01*
X80201235Y-175881618D01*
X80201236Y-175881619D01*
X80499210Y-176193274D01*
X80823920Y-176476965D01*
X81172753Y-176730407D01*
X81542900Y-176951560D01*
X81542903Y-176951561D01*
X81542904Y-176951562D01*
X81542906Y-176951563D01*
X81931372Y-177138639D01*
X81931386Y-177138645D01*
X82335055Y-177290144D01*
X82335059Y-177290145D01*
X82335069Y-177290149D01*
X82750711Y-177404859D01*
X83174964Y-177481850D01*
X83604409Y-177520500D01*
X83604416Y-177520500D01*
X84035584Y-177520500D01*
X84035591Y-177520500D01*
X84465036Y-177481850D01*
X84889289Y-177404859D01*
X85304931Y-177290149D01*
X85708619Y-177138643D01*
X86097100Y-176951560D01*
X86467247Y-176730407D01*
X86816080Y-176476965D01*
X87140790Y-176193274D01*
X87438764Y-175881619D01*
X87707601Y-175544507D01*
X87945137Y-175184655D01*
X88149461Y-174804958D01*
X88151367Y-174800500D01*
X88256582Y-174554335D01*
X88318926Y-174408475D01*
X88452168Y-173998397D01*
X88548115Y-173578026D01*
X88605994Y-173150747D01*
X88623992Y-172750000D01*
X100792500Y-172750000D01*
X101608814Y-172750000D01*
X101583007Y-172790156D01*
X101542500Y-172928111D01*
X101542500Y-173071889D01*
X101583007Y-173209844D01*
X101608814Y-173250000D01*
X100792501Y-173250000D01*
X100792501Y-173814192D01*
X100802900Y-173946332D01*
X100857877Y-174164519D01*
X100950928Y-174369374D01*
X100950931Y-174369380D01*
X101079059Y-174554323D01*
X101079069Y-174554335D01*
X101238164Y-174713430D01*
X101238176Y-174713440D01*
X101423119Y-174841568D01*
X101423125Y-174841571D01*
X101627980Y-174934622D01*
X101846167Y-174989599D01*
X101978307Y-175000000D01*
X102792499Y-174999999D01*
X102792500Y-174999998D01*
X102792500Y-173500000D01*
X103292500Y-173500000D01*
X103292500Y-174999999D01*
X104106692Y-174999999D01*
X104238832Y-174989599D01*
X104457019Y-174934622D01*
X104661874Y-174841571D01*
X104661880Y-174841568D01*
X104846823Y-174713440D01*
X104846835Y-174713430D01*
X105005930Y-174554335D01*
X105005940Y-174554323D01*
X105134068Y-174369380D01*
X105134071Y-174369374D01*
X105227122Y-174164519D01*
X105282099Y-173946332D01*
X105292500Y-173814194D01*
X105292500Y-173250000D01*
X104476186Y-173250000D01*
X104501993Y-173209844D01*
X104542500Y-173071889D01*
X104542500Y-172928111D01*
X104501993Y-172790156D01*
X104476186Y-172750000D01*
X105292499Y-172750000D01*
X105292499Y-172720003D01*
X122194661Y-172720003D01*
X122214005Y-173150737D01*
X122214006Y-173150746D01*
X122271885Y-173578027D01*
X122367830Y-173998391D01*
X122501073Y-174408472D01*
X122501076Y-174408480D01*
X122670533Y-174804947D01*
X122670537Y-174804955D01*
X122690241Y-174841571D01*
X122874863Y-175184655D01*
X122874867Y-175184661D01*
X122874867Y-175184662D01*
X123112394Y-175544501D01*
X123112404Y-175544514D01*
X123381225Y-175881607D01*
X123381235Y-175881618D01*
X123381236Y-175881619D01*
X123679210Y-176193274D01*
X124003920Y-176476965D01*
X124352753Y-176730407D01*
X124722900Y-176951560D01*
X124722903Y-176951561D01*
X124722904Y-176951562D01*
X124722906Y-176951563D01*
X125111372Y-177138639D01*
X125111386Y-177138645D01*
X125515055Y-177290144D01*
X125515059Y-177290145D01*
X125515069Y-177290149D01*
X125930711Y-177404859D01*
X126354964Y-177481850D01*
X126784409Y-177520500D01*
X126784416Y-177520500D01*
X127215584Y-177520500D01*
X127215591Y-177520500D01*
X127645036Y-177481850D01*
X128069289Y-177404859D01*
X128484931Y-177290149D01*
X128888619Y-177138643D01*
X129277100Y-176951560D01*
X129647247Y-176730407D01*
X129996080Y-176476965D01*
X130320790Y-176193274D01*
X130618764Y-175881619D01*
X130887601Y-175544507D01*
X131125137Y-175184655D01*
X131329461Y-174804958D01*
X131331367Y-174800500D01*
X131436582Y-174554335D01*
X131498926Y-174408475D01*
X131632168Y-173998397D01*
X131728115Y-173578026D01*
X131785994Y-173150747D01*
X131805339Y-172720000D01*
X131785994Y-172289253D01*
X131728115Y-171861974D01*
X131632168Y-171441603D01*
X131498926Y-171031525D01*
X131424769Y-170858026D01*
X131329466Y-170635052D01*
X131329462Y-170635044D01*
X131329461Y-170635042D01*
X131125137Y-170255345D01*
X131121609Y-170250000D01*
X130956588Y-170000003D01*
X165194661Y-170000003D01*
X165214005Y-170430737D01*
X165214006Y-170430746D01*
X165271885Y-170858027D01*
X165367830Y-171278391D01*
X165501073Y-171688472D01*
X165501076Y-171688480D01*
X165670533Y-172084947D01*
X165670537Y-172084955D01*
X165724808Y-172185806D01*
X165874863Y-172464655D01*
X165874867Y-172464661D01*
X165874867Y-172464662D01*
X166112394Y-172824501D01*
X166112404Y-172824514D01*
X166381225Y-173161607D01*
X166381235Y-173161618D01*
X166381236Y-173161619D01*
X166679210Y-173473274D01*
X167003920Y-173756965D01*
X167003930Y-173756972D01*
X167003931Y-173756973D01*
X167336222Y-173998397D01*
X167352753Y-174010407D01*
X167722900Y-174231560D01*
X167722903Y-174231561D01*
X167722904Y-174231562D01*
X167722906Y-174231563D01*
X168111372Y-174418639D01*
X168111386Y-174418645D01*
X168515055Y-174570144D01*
X168515059Y-174570145D01*
X168515069Y-174570149D01*
X168930711Y-174684859D01*
X169354964Y-174761850D01*
X169784409Y-174800500D01*
X169784416Y-174800500D01*
X170215584Y-174800500D01*
X170215591Y-174800500D01*
X170645036Y-174761850D01*
X171069289Y-174684859D01*
X171484931Y-174570149D01*
X171888619Y-174418643D01*
X172277100Y-174231560D01*
X172647247Y-174010407D01*
X172996080Y-173756965D01*
X173320790Y-173473274D01*
X173618764Y-173161619D01*
X173627435Y-173150747D01*
X173887595Y-172824514D01*
X173887601Y-172824507D01*
X174125137Y-172464655D01*
X174329461Y-172084958D01*
X174342836Y-172053667D01*
X174424769Y-171861974D01*
X174498926Y-171688475D01*
X174632168Y-171278397D01*
X174728115Y-170858026D01*
X174785994Y-170430747D01*
X174805339Y-170000000D01*
X174785994Y-169569253D01*
X174728115Y-169141974D01*
X174632168Y-168721603D01*
X174498926Y-168311525D01*
X174429823Y-168149851D01*
X174329466Y-167915052D01*
X174329462Y-167915044D01*
X174242151Y-167752794D01*
X174125137Y-167535345D01*
X174125132Y-167535337D01*
X173887605Y-167175498D01*
X173887595Y-167175485D01*
X173618774Y-166838392D01*
X173618762Y-166838379D01*
X173320794Y-166526730D01*
X173320793Y-166526729D01*
X173320790Y-166526726D01*
X172996080Y-166243035D01*
X172996068Y-166243026D01*
X172647256Y-165989599D01*
X172647251Y-165989596D01*
X172647247Y-165989593D01*
X172277100Y-165768440D01*
X172277095Y-165768437D01*
X172277093Y-165768436D01*
X171888627Y-165581360D01*
X171888613Y-165581354D01*
X171484944Y-165429855D01*
X171484919Y-165429847D01*
X171069295Y-165315142D01*
X170645043Y-165238151D01*
X170645040Y-165238150D01*
X170645036Y-165238150D01*
X170215591Y-165199500D01*
X169784409Y-165199500D01*
X169354964Y-165238150D01*
X169354960Y-165238150D01*
X169354956Y-165238151D01*
X168930704Y-165315142D01*
X168515080Y-165429847D01*
X168515055Y-165429855D01*
X168111386Y-165581354D01*
X168111372Y-165581360D01*
X167722906Y-165768436D01*
X167722904Y-165768437D01*
X167352743Y-165989599D01*
X167003931Y-166243026D01*
X167003914Y-166243039D01*
X166679210Y-166526726D01*
X166679205Y-166526730D01*
X166381237Y-166838379D01*
X166381225Y-166838392D01*
X166112404Y-167175485D01*
X166112394Y-167175498D01*
X165874867Y-167535337D01*
X165874867Y-167535338D01*
X165670537Y-167915044D01*
X165670533Y-167915052D01*
X165501076Y-168311519D01*
X165501073Y-168311527D01*
X165367830Y-168721608D01*
X165271885Y-169141972D01*
X165214006Y-169569253D01*
X165214005Y-169569262D01*
X165194661Y-169999996D01*
X165194661Y-170000003D01*
X130956588Y-170000003D01*
X130887605Y-169895498D01*
X130887595Y-169895485D01*
X130618774Y-169558392D01*
X130618762Y-169558379D01*
X130320794Y-169246730D01*
X130320793Y-169246729D01*
X130320790Y-169246726D01*
X130030837Y-168993401D01*
X129996085Y-168963039D01*
X129996068Y-168963026D01*
X129647256Y-168709599D01*
X129647251Y-168709596D01*
X129647247Y-168709593D01*
X129277100Y-168488440D01*
X129277095Y-168488437D01*
X129277093Y-168488436D01*
X128888627Y-168301360D01*
X128888613Y-168301354D01*
X128484944Y-168149855D01*
X128484919Y-168149847D01*
X128069295Y-168035142D01*
X127645043Y-167958151D01*
X127645040Y-167958150D01*
X127645036Y-167958150D01*
X127215591Y-167919500D01*
X126784409Y-167919500D01*
X126354964Y-167958150D01*
X126354960Y-167958150D01*
X126354956Y-167958151D01*
X125930704Y-168035142D01*
X125515080Y-168149847D01*
X125515055Y-168149855D01*
X125111386Y-168301354D01*
X125111372Y-168301360D01*
X124722906Y-168488436D01*
X124722904Y-168488437D01*
X124352743Y-168709599D01*
X124003931Y-168963026D01*
X124003914Y-168963039D01*
X123679210Y-169246726D01*
X123679205Y-169246730D01*
X123381237Y-169558379D01*
X123381225Y-169558392D01*
X123112404Y-169895485D01*
X123112394Y-169895498D01*
X122874867Y-170255337D01*
X122874867Y-170255338D01*
X122670537Y-170635044D01*
X122670533Y-170635052D01*
X122501076Y-171031519D01*
X122501073Y-171031527D01*
X122367830Y-171441608D01*
X122271885Y-171861972D01*
X122214006Y-172289253D01*
X122214005Y-172289262D01*
X122194661Y-172719996D01*
X122194661Y-172720003D01*
X105292499Y-172720003D01*
X105292499Y-172185808D01*
X105282099Y-172053667D01*
X105227122Y-171835480D01*
X105134071Y-171630625D01*
X105134068Y-171630619D01*
X105005940Y-171445676D01*
X105005930Y-171445664D01*
X104846835Y-171286569D01*
X104846823Y-171286559D01*
X104661880Y-171158431D01*
X104661874Y-171158428D01*
X104457019Y-171065377D01*
X104238832Y-171010400D01*
X104106694Y-171000000D01*
X103292500Y-171000000D01*
X103292500Y-172500000D01*
X102792500Y-172500000D01*
X102792500Y-171000000D01*
X102792499Y-171000000D01*
X101978308Y-171000001D01*
X101846167Y-171010400D01*
X101627980Y-171065377D01*
X101423125Y-171158428D01*
X101423119Y-171158431D01*
X101238176Y-171286559D01*
X101238164Y-171286569D01*
X101079069Y-171445664D01*
X101079059Y-171445676D01*
X100950931Y-171630619D01*
X100950928Y-171630625D01*
X100857877Y-171835480D01*
X100802900Y-172053667D01*
X100792500Y-172185806D01*
X100792500Y-172750000D01*
X88623992Y-172750000D01*
X88625339Y-172720000D01*
X88605994Y-172289253D01*
X88548115Y-171861974D01*
X88452168Y-171441603D01*
X88318926Y-171031525D01*
X88244769Y-170858026D01*
X88149466Y-170635052D01*
X88149462Y-170635044D01*
X88149461Y-170635042D01*
X87945137Y-170255345D01*
X87941609Y-170250000D01*
X87707605Y-169895498D01*
X87707595Y-169895485D01*
X87438774Y-169558392D01*
X87438762Y-169558379D01*
X87140794Y-169246730D01*
X87140793Y-169246729D01*
X87140790Y-169246726D01*
X86850837Y-168993401D01*
X86816085Y-168963039D01*
X86816068Y-168963026D01*
X86588750Y-168797870D01*
X100792000Y-168797870D01*
X100792001Y-168797876D01*
X100798408Y-168857483D01*
X100848702Y-168992328D01*
X100848706Y-168992335D01*
X100934952Y-169107544D01*
X100934955Y-169107547D01*
X101050164Y-169193793D01*
X101050171Y-169193797D01*
X101185017Y-169244091D01*
X101185016Y-169244091D01*
X101191944Y-169244835D01*
X101244627Y-169250500D01*
X104840372Y-169250499D01*
X104899983Y-169244091D01*
X105034831Y-169193796D01*
X105150046Y-169107546D01*
X105236296Y-168992331D01*
X105254512Y-168943491D01*
X105296380Y-168887560D01*
X105361844Y-168863141D01*
X105430117Y-168877991D01*
X105479524Y-168927396D01*
X105494518Y-168993401D01*
X105492500Y-169031407D01*
X105492500Y-169750000D01*
X107242500Y-169750000D01*
X107242500Y-170250000D01*
X105492501Y-170250000D01*
X105492501Y-170968591D01*
X105495294Y-171021190D01*
X105539737Y-171250987D01*
X105622379Y-171469975D01*
X105740839Y-171671841D01*
X105740844Y-171671848D01*
X105891711Y-171850786D01*
X105891713Y-171850788D01*
X106070651Y-172001655D01*
X106070658Y-172001660D01*
X106272524Y-172120120D01*
X106491512Y-172202762D01*
X106721308Y-172247205D01*
X106773908Y-172249999D01*
X107492499Y-172249999D01*
X107492500Y-172249998D01*
X107492500Y-171433686D01*
X107532656Y-171459493D01*
X107670611Y-171500000D01*
X107814389Y-171500000D01*
X107952344Y-171459493D01*
X107992500Y-171433686D01*
X107992500Y-172249999D01*
X108711091Y-172249999D01*
X108763690Y-172247205D01*
X108993487Y-172202762D01*
X109212475Y-172120120D01*
X109414341Y-172001660D01*
X109414348Y-172001655D01*
X109593286Y-171850788D01*
X109593288Y-171850786D01*
X109744155Y-171671848D01*
X109744160Y-171671841D01*
X109862620Y-171469975D01*
X109945262Y-171250987D01*
X109989705Y-171021191D01*
X109989705Y-171021190D01*
X109992500Y-170968591D01*
X109992500Y-170250000D01*
X108242500Y-170250000D01*
X108242500Y-169750000D01*
X109992499Y-169750000D01*
X109992499Y-169031409D01*
X109989705Y-168978809D01*
X109945262Y-168749012D01*
X109862620Y-168530024D01*
X109744160Y-168328158D01*
X109744155Y-168328151D01*
X109593288Y-168149213D01*
X109593286Y-168149211D01*
X109414348Y-167998344D01*
X109414341Y-167998339D01*
X109212475Y-167879879D01*
X108993487Y-167797237D01*
X108763691Y-167752794D01*
X108711091Y-167750000D01*
X107992500Y-167750000D01*
X107992500Y-168566313D01*
X107952344Y-168540507D01*
X107814389Y-168500000D01*
X107670611Y-168500000D01*
X107532656Y-168540507D01*
X107492500Y-168566313D01*
X107492500Y-167750000D01*
X107492499Y-167750000D01*
X106773909Y-167750001D01*
X106721309Y-167752794D01*
X106491512Y-167797237D01*
X106272524Y-167879879D01*
X106070658Y-167998339D01*
X106070651Y-167998344D01*
X105891713Y-168149211D01*
X105891711Y-168149213D01*
X105740844Y-168328151D01*
X105740839Y-168328158D01*
X105622379Y-168530024D01*
X105539736Y-168749014D01*
X105538741Y-168754161D01*
X105506679Y-168816240D01*
X105446144Y-168851130D01*
X105376356Y-168847754D01*
X105319472Y-168807184D01*
X105293552Y-168742300D01*
X105292999Y-168730624D01*
X105292999Y-165202128D01*
X105286591Y-165142517D01*
X105256547Y-165061966D01*
X105236297Y-165007671D01*
X105236293Y-165007664D01*
X105150047Y-164892455D01*
X105150044Y-164892452D01*
X105034835Y-164806206D01*
X105034828Y-164806202D01*
X104899982Y-164755908D01*
X104899983Y-164755908D01*
X104840383Y-164749501D01*
X104840381Y-164749500D01*
X104840373Y-164749500D01*
X104840364Y-164749500D01*
X101244629Y-164749500D01*
X101244623Y-164749501D01*
X101185016Y-164755908D01*
X101050171Y-164806202D01*
X101050164Y-164806206D01*
X100934955Y-164892452D01*
X100934952Y-164892455D01*
X100848706Y-165007664D01*
X100848702Y-165007671D01*
X100798408Y-165142517D01*
X100792282Y-165199500D01*
X100792001Y-165202123D01*
X100792000Y-165202135D01*
X100792000Y-168797870D01*
X86588750Y-168797870D01*
X86467256Y-168709599D01*
X86467251Y-168709596D01*
X86467247Y-168709593D01*
X86097100Y-168488440D01*
X86097095Y-168488437D01*
X86097093Y-168488436D01*
X85708627Y-168301360D01*
X85708613Y-168301354D01*
X85304944Y-168149855D01*
X85304919Y-168149847D01*
X84889295Y-168035142D01*
X84465043Y-167958151D01*
X84465040Y-167958150D01*
X84465036Y-167958150D01*
X84035591Y-167919500D01*
X83604409Y-167919500D01*
X83174964Y-167958150D01*
X83174960Y-167958150D01*
X83174956Y-167958151D01*
X82750704Y-168035142D01*
X82335080Y-168149847D01*
X82335055Y-168149855D01*
X81931386Y-168301354D01*
X81931372Y-168301360D01*
X81542906Y-168488436D01*
X81542904Y-168488437D01*
X81172743Y-168709599D01*
X80823931Y-168963026D01*
X80823914Y-168963039D01*
X80499210Y-169246726D01*
X80499205Y-169246730D01*
X80201237Y-169558379D01*
X80201225Y-169558392D01*
X79932404Y-169895485D01*
X79932394Y-169895498D01*
X79694867Y-170255337D01*
X79694867Y-170255338D01*
X79490537Y-170635044D01*
X79490533Y-170635052D01*
X79321076Y-171031519D01*
X79321073Y-171031527D01*
X79187830Y-171441608D01*
X79091885Y-171861972D01*
X79034006Y-172289253D01*
X79034005Y-172289262D01*
X79014661Y-172719996D01*
X79014661Y-172720003D01*
X33956583Y-172720003D01*
X34125137Y-172464655D01*
X34329461Y-172084958D01*
X34342836Y-172053667D01*
X34424769Y-171861974D01*
X34498926Y-171688475D01*
X34632168Y-171278397D01*
X34728115Y-170858026D01*
X34785994Y-170430747D01*
X34805339Y-170000000D01*
X34785994Y-169569253D01*
X34728115Y-169141974D01*
X34632168Y-168721603D01*
X34498926Y-168311525D01*
X34429823Y-168149851D01*
X34329466Y-167915052D01*
X34329462Y-167915044D01*
X34242151Y-167752794D01*
X34125137Y-167535345D01*
X34125132Y-167535337D01*
X33887605Y-167175498D01*
X33887595Y-167175485D01*
X33618774Y-166838392D01*
X33618762Y-166838379D01*
X33320794Y-166526730D01*
X33320793Y-166526729D01*
X33320790Y-166526726D01*
X32996080Y-166243035D01*
X32996068Y-166243026D01*
X32647256Y-165989599D01*
X32647251Y-165989596D01*
X32647247Y-165989593D01*
X32277100Y-165768440D01*
X32277095Y-165768437D01*
X32277093Y-165768436D01*
X31888627Y-165581360D01*
X31888613Y-165581354D01*
X31484944Y-165429855D01*
X31484919Y-165429847D01*
X31069295Y-165315142D01*
X30645043Y-165238151D01*
X30645040Y-165238150D01*
X30645036Y-165238150D01*
X30215591Y-165199500D01*
X29784409Y-165199500D01*
X29354964Y-165238150D01*
X29354960Y-165238150D01*
X29354956Y-165238151D01*
X28930704Y-165315142D01*
X28515080Y-165429847D01*
X28515055Y-165429855D01*
X28111386Y-165581354D01*
X28111372Y-165581360D01*
X27722906Y-165768436D01*
X27722904Y-165768437D01*
X27352743Y-165989599D01*
X27003931Y-166243026D01*
X27003914Y-166243039D01*
X26679210Y-166526726D01*
X26679205Y-166526730D01*
X26381237Y-166838379D01*
X26381225Y-166838392D01*
X26112404Y-167175485D01*
X26112394Y-167175498D01*
X25874867Y-167535337D01*
X25874867Y-167535338D01*
X25670537Y-167915044D01*
X25670533Y-167915052D01*
X25501076Y-168311519D01*
X25501073Y-168311527D01*
X25367830Y-168721608D01*
X25271885Y-169141972D01*
X25214006Y-169569253D01*
X25214005Y-169569262D01*
X25194661Y-169999996D01*
X25194661Y-170000003D01*
X20000000Y-170000003D01*
X20000000Y-160000000D01*
X33094671Y-160000000D01*
X33113979Y-160516031D01*
X33171797Y-161029176D01*
X33171796Y-161029176D01*
X33267802Y-161536579D01*
X33267802Y-161536580D01*
X33401455Y-162035381D01*
X33572011Y-162522800D01*
X33778514Y-162996110D01*
X33778517Y-162996115D01*
X34019807Y-163452660D01*
X34128511Y-163625661D01*
X34294549Y-163889910D01*
X34601196Y-164305402D01*
X34938036Y-164696817D01*
X35303183Y-165061964D01*
X35694598Y-165398804D01*
X36110088Y-165705449D01*
X36110093Y-165705453D01*
X36547339Y-165980193D01*
X36547338Y-165980192D01*
X36792477Y-166109751D01*
X37003890Y-166221486D01*
X37477200Y-166427989D01*
X37477205Y-166427990D01*
X37477208Y-166427992D01*
X37570382Y-166460595D01*
X37964619Y-166598545D01*
X38463420Y-166732198D01*
X38786552Y-166793337D01*
X38970824Y-166828204D01*
X38970824Y-166828203D01*
X39061253Y-166838392D01*
X39483969Y-166886021D01*
X40000000Y-166905329D01*
X40516031Y-166886021D01*
X40938747Y-166838392D01*
X41029176Y-166828203D01*
X41029176Y-166828204D01*
X41213447Y-166793337D01*
X41536580Y-166732198D01*
X42035381Y-166598545D01*
X42429617Y-166460595D01*
X42522792Y-166427992D01*
X42522794Y-166427990D01*
X42522800Y-166427989D01*
X42996110Y-166221486D01*
X43207521Y-166109751D01*
X43452661Y-165980192D01*
X43452660Y-165980193D01*
X43789663Y-165768440D01*
X43889910Y-165705451D01*
X44058056Y-165581354D01*
X44305399Y-165398806D01*
X44305402Y-165398804D01*
X44696817Y-165061964D01*
X45061964Y-164696817D01*
X45398804Y-164305402D01*
X45705451Y-163889910D01*
X45980190Y-163452665D01*
X45980192Y-163452662D01*
X45980193Y-163452661D01*
X46221483Y-162996115D01*
X46221486Y-162996110D01*
X46427989Y-162522800D01*
X46598545Y-162035381D01*
X46732198Y-161536580D01*
X46732198Y-161536579D01*
X46828204Y-161029176D01*
X46828203Y-161029176D01*
X46886021Y-160516031D01*
X46905329Y-160000000D01*
X153094671Y-160000000D01*
X153113979Y-160516031D01*
X153171797Y-161029176D01*
X153171796Y-161029176D01*
X153267802Y-161536579D01*
X153267802Y-161536580D01*
X153401455Y-162035381D01*
X153572011Y-162522800D01*
X153778514Y-162996110D01*
X153778517Y-162996115D01*
X154019807Y-163452660D01*
X154128511Y-163625661D01*
X154294549Y-163889910D01*
X154601196Y-164305402D01*
X154938036Y-164696817D01*
X155303183Y-165061964D01*
X155694598Y-165398804D01*
X156110088Y-165705449D01*
X156110093Y-165705453D01*
X156547339Y-165980193D01*
X156547338Y-165980192D01*
X156792477Y-166109751D01*
X157003890Y-166221486D01*
X157477200Y-166427989D01*
X157477205Y-166427990D01*
X157477208Y-166427992D01*
X157570382Y-166460595D01*
X157964619Y-166598545D01*
X158463420Y-166732198D01*
X158786552Y-166793337D01*
X158970824Y-166828204D01*
X158970824Y-166828203D01*
X159061253Y-166838392D01*
X159483969Y-166886021D01*
X160000000Y-166905329D01*
X160516031Y-166886021D01*
X160938747Y-166838392D01*
X161029176Y-166828203D01*
X161029176Y-166828204D01*
X161213447Y-166793337D01*
X161536580Y-166732198D01*
X162035381Y-166598545D01*
X162429617Y-166460595D01*
X162522792Y-166427992D01*
X162522794Y-166427990D01*
X162522800Y-166427989D01*
X162996110Y-166221486D01*
X163207521Y-166109751D01*
X163452661Y-165980192D01*
X163452660Y-165980193D01*
X163789663Y-165768440D01*
X163889910Y-165705451D01*
X164058056Y-165581354D01*
X164305399Y-165398806D01*
X164305402Y-165398804D01*
X164696817Y-165061964D01*
X165061964Y-164696817D01*
X165398804Y-164305402D01*
X165705451Y-163889910D01*
X165980190Y-163452665D01*
X165980192Y-163452662D01*
X165980193Y-163452661D01*
X166221483Y-162996115D01*
X166221486Y-162996110D01*
X166427989Y-162522800D01*
X166598545Y-162035381D01*
X166732198Y-161536580D01*
X166732198Y-161536579D01*
X166828204Y-161029176D01*
X166828203Y-161029176D01*
X166886021Y-160516031D01*
X166905329Y-160000000D01*
X166886021Y-159483969D01*
X166828203Y-158970824D01*
X166828204Y-158970824D01*
X166732198Y-158463421D01*
X166732198Y-158463420D01*
X166598545Y-157964619D01*
X166427989Y-157477200D01*
X166221486Y-157003890D01*
X166109751Y-156792478D01*
X165980192Y-156547339D01*
X165980193Y-156547340D01*
X165871488Y-156374338D01*
X165705451Y-156110090D01*
X165398804Y-155694598D01*
X165061964Y-155303183D01*
X164696817Y-154938036D01*
X164305402Y-154601196D01*
X163889910Y-154294549D01*
X163889907Y-154294547D01*
X163452661Y-154019807D01*
X163452662Y-154019808D01*
X163072327Y-153818796D01*
X162996110Y-153778514D01*
X162522800Y-153572011D01*
X162522794Y-153572009D01*
X162522792Y-153572008D01*
X162429617Y-153539405D01*
X162035381Y-153401455D01*
X161536580Y-153267802D01*
X161213447Y-153206662D01*
X161029176Y-153171796D01*
X160913745Y-153158791D01*
X160516031Y-153113979D01*
X160000000Y-153094671D01*
X159483969Y-153113979D01*
X159086254Y-153158791D01*
X158970824Y-153171796D01*
X158786552Y-153206662D01*
X158463420Y-153267802D01*
X157964619Y-153401455D01*
X157570382Y-153539405D01*
X157477208Y-153572008D01*
X157477205Y-153572009D01*
X157477200Y-153572011D01*
X157003890Y-153778514D01*
X156927673Y-153818796D01*
X156547338Y-154019808D01*
X156547339Y-154019807D01*
X156110093Y-154294547D01*
X156110090Y-154294549D01*
X155694598Y-154601196D01*
X155303183Y-154938036D01*
X154938036Y-155303183D01*
X154601196Y-155694598D01*
X154294549Y-156110090D01*
X154128511Y-156374338D01*
X154019807Y-156547340D01*
X154019808Y-156547339D01*
X153890248Y-156792478D01*
X153778514Y-157003890D01*
X153572011Y-157477200D01*
X153401455Y-157964619D01*
X153267802Y-158463420D01*
X153267802Y-158463421D01*
X153171796Y-158970824D01*
X153171797Y-158970824D01*
X153113979Y-159483969D01*
X153094671Y-160000000D01*
X46905329Y-160000000D01*
X46886021Y-159483969D01*
X46828203Y-158970824D01*
X46828204Y-158970824D01*
X46732198Y-158463421D01*
X46732198Y-158463420D01*
X46598545Y-157964619D01*
X46427989Y-157477200D01*
X46221486Y-157003890D01*
X46109751Y-156792478D01*
X45980192Y-156547339D01*
X45980193Y-156547340D01*
X45871488Y-156374338D01*
X45705451Y-156110090D01*
X45398804Y-155694598D01*
X45061964Y-155303183D01*
X44696817Y-154938036D01*
X44305402Y-154601196D01*
X43889910Y-154294549D01*
X43889907Y-154294547D01*
X43452661Y-154019807D01*
X43452662Y-154019808D01*
X43072327Y-153818796D01*
X42996110Y-153778514D01*
X42522800Y-153572011D01*
X42522794Y-153572009D01*
X42522792Y-153572008D01*
X42429617Y-153539405D01*
X42035381Y-153401455D01*
X41536580Y-153267802D01*
X41213447Y-153206662D01*
X41029176Y-153171796D01*
X40913745Y-153158791D01*
X40516031Y-153113979D01*
X40000000Y-153094671D01*
X39483969Y-153113979D01*
X39086254Y-153158791D01*
X38970824Y-153171796D01*
X38786552Y-153206662D01*
X38463420Y-153267802D01*
X37964619Y-153401455D01*
X37570382Y-153539405D01*
X37477208Y-153572008D01*
X37477205Y-153572009D01*
X37477200Y-153572011D01*
X37003890Y-153778514D01*
X36927673Y-153818796D01*
X36547338Y-154019808D01*
X36547339Y-154019807D01*
X36110093Y-154294547D01*
X36110090Y-154294549D01*
X35694598Y-154601196D01*
X35303183Y-154938036D01*
X34938036Y-155303183D01*
X34601196Y-155694598D01*
X34294549Y-156110090D01*
X34128511Y-156374338D01*
X34019807Y-156547340D01*
X34019808Y-156547339D01*
X33890248Y-156792478D01*
X33778514Y-157003890D01*
X33572011Y-157477200D01*
X33401455Y-157964619D01*
X33267802Y-158463420D01*
X33267802Y-158463421D01*
X33171796Y-158970824D01*
X33171797Y-158970824D01*
X33113979Y-159483969D01*
X33094671Y-160000000D01*
X20000000Y-160000000D01*
X20000000Y-100330003D01*
X25674661Y-100330003D01*
X25694005Y-100760737D01*
X25694006Y-100760746D01*
X25751885Y-101188027D01*
X25847830Y-101608391D01*
X25981073Y-102018472D01*
X25981076Y-102018480D01*
X26150533Y-102414947D01*
X26150537Y-102414955D01*
X26150539Y-102414958D01*
X26354863Y-102794655D01*
X26354867Y-102794661D01*
X26354867Y-102794662D01*
X26592394Y-103154501D01*
X26592404Y-103154514D01*
X26861225Y-103491607D01*
X26861235Y-103491618D01*
X26861236Y-103491619D01*
X27159210Y-103803274D01*
X27483920Y-104086965D01*
X27483930Y-104086972D01*
X27483931Y-104086973D01*
X27737515Y-104271213D01*
X27832753Y-104340407D01*
X28202900Y-104561560D01*
X28202903Y-104561561D01*
X28202904Y-104561562D01*
X28202906Y-104561563D01*
X28591372Y-104748639D01*
X28591386Y-104748645D01*
X28995055Y-104900144D01*
X28995059Y-104900145D01*
X28995069Y-104900149D01*
X29410711Y-105014859D01*
X29834964Y-105091850D01*
X30264409Y-105130500D01*
X30264416Y-105130500D01*
X30695584Y-105130500D01*
X30695591Y-105130500D01*
X31125036Y-105091850D01*
X31549289Y-105014859D01*
X31964931Y-104900149D01*
X32368619Y-104748643D01*
X32757100Y-104561560D01*
X33127247Y-104340407D01*
X33476080Y-104086965D01*
X33800790Y-103803274D01*
X34098764Y-103491619D01*
X34367601Y-103154507D01*
X34605137Y-102794655D01*
X34809461Y-102414958D01*
X34978926Y-102018475D01*
X35112168Y-101608397D01*
X35208115Y-101188026D01*
X35265994Y-100760747D01*
X35285339Y-100330000D01*
X35265994Y-99899253D01*
X35208115Y-99471974D01*
X35112168Y-99051603D01*
X34978926Y-98641525D01*
X34915376Y-98492843D01*
X34809466Y-98245052D01*
X34809462Y-98245044D01*
X34809461Y-98245042D01*
X34605137Y-97865345D01*
X34474854Y-97667974D01*
X34367605Y-97505498D01*
X34367595Y-97505485D01*
X34098774Y-97168392D01*
X34098762Y-97168379D01*
X33800794Y-96856730D01*
X33800793Y-96856729D01*
X33800790Y-96856726D01*
X33476080Y-96573035D01*
X33285008Y-96434213D01*
X33127256Y-96319599D01*
X33127251Y-96319596D01*
X33127247Y-96319593D01*
X32757100Y-96098440D01*
X32757095Y-96098437D01*
X32757093Y-96098436D01*
X32368627Y-95911360D01*
X32368613Y-95911354D01*
X31964944Y-95759855D01*
X31964919Y-95759847D01*
X31549295Y-95645142D01*
X31125043Y-95568151D01*
X31125040Y-95568150D01*
X31125036Y-95568150D01*
X30695591Y-95529500D01*
X30264409Y-95529500D01*
X29834964Y-95568150D01*
X29834960Y-95568150D01*
X29834956Y-95568151D01*
X29410704Y-95645142D01*
X28995080Y-95759847D01*
X28995055Y-95759855D01*
X28591386Y-95911354D01*
X28591372Y-95911360D01*
X28202906Y-96098436D01*
X28202904Y-96098437D01*
X27832743Y-96319599D01*
X27483931Y-96573026D01*
X27483914Y-96573039D01*
X27159210Y-96856726D01*
X27159205Y-96856730D01*
X26861237Y-97168379D01*
X26861225Y-97168392D01*
X26592404Y-97505485D01*
X26592394Y-97505498D01*
X26354867Y-97865337D01*
X26354867Y-97865338D01*
X26150537Y-98245044D01*
X26150533Y-98245052D01*
X25981076Y-98641519D01*
X25981073Y-98641527D01*
X25847830Y-99051608D01*
X25751885Y-99471972D01*
X25694006Y-99899253D01*
X25694005Y-99899262D01*
X25674661Y-100329996D01*
X25674661Y-100330003D01*
X20000000Y-100330003D01*
X20000000Y-55000000D01*
X44108173Y-55000000D01*
X44127928Y-55792142D01*
X44187143Y-56582315D01*
X44282952Y-57346847D01*
X44285674Y-57368569D01*
X44418085Y-58119512D01*
X44423268Y-58148904D01*
X44591149Y-58884440D01*
X44599591Y-58921424D01*
X44599590Y-58921424D01*
X44800849Y-59636738D01*
X44814202Y-59684198D01*
X45066567Y-60435325D01*
X45179316Y-60722604D01*
X45356061Y-61172945D01*
X45356061Y-61172946D01*
X45650798Y-61826146D01*
X45681959Y-61895205D01*
X45796178Y-62117997D01*
X46043450Y-62600321D01*
X46043455Y-62600329D01*
X46439649Y-63286558D01*
X46439650Y-63286559D01*
X46439649Y-63286559D01*
X46496799Y-63375044D01*
X46869556Y-63952185D01*
X46869561Y-63952193D01*
X46869565Y-63952198D01*
X47332109Y-64595557D01*
X47332110Y-64595557D01*
X47579591Y-64905889D01*
X47826162Y-65215079D01*
X48350470Y-65809192D01*
X48370198Y-65829418D01*
X48402917Y-65891153D01*
X48397065Y-65960777D01*
X48354500Y-66016185D01*
X48288737Y-66039785D01*
X48281432Y-66040000D01*
X44450000Y-66040000D01*
X44450000Y-77470000D01*
X62239981Y-77470000D01*
X62307020Y-77489685D01*
X62352775Y-77542489D01*
X62362719Y-77611647D01*
X62333694Y-77675203D01*
X62327662Y-77681681D01*
X59505966Y-80503375D01*
X59503240Y-80505942D01*
X59456818Y-80547068D01*
X59421586Y-80598109D01*
X59419368Y-80601124D01*
X59381124Y-80649939D01*
X59381119Y-80649948D01*
X59376960Y-80659188D01*
X59365942Y-80678723D01*
X59360187Y-80687061D01*
X59360183Y-80687067D01*
X59360182Y-80687070D01*
X59360180Y-80687074D01*
X59360179Y-80687077D01*
X59338189Y-80745055D01*
X59336757Y-80748513D01*
X59311305Y-80805068D01*
X59309477Y-80815042D01*
X59303453Y-80836653D01*
X59299860Y-80846127D01*
X59299859Y-80846128D01*
X59292384Y-80907685D01*
X59291821Y-80911386D01*
X59280642Y-80972390D01*
X59280642Y-80972395D01*
X59284387Y-81034302D01*
X59284500Y-81038047D01*
X59284500Y-91402288D01*
X59264815Y-91469327D01*
X59231624Y-91503863D01*
X59113594Y-91586508D01*
X58946508Y-91753594D01*
X58816269Y-91939595D01*
X58761692Y-91983219D01*
X58692193Y-91990412D01*
X58629839Y-91958890D01*
X58613119Y-91939594D01*
X58483113Y-91753926D01*
X58483108Y-91753920D01*
X58316082Y-91586894D01*
X58122578Y-91451399D01*
X57908492Y-91351570D01*
X57908486Y-91351567D01*
X57695000Y-91294364D01*
X57695000Y-92189498D01*
X57587315Y-92140320D01*
X57480763Y-92125000D01*
X57409237Y-92125000D01*
X57302685Y-92140320D01*
X57195000Y-92189498D01*
X57195000Y-91294364D01*
X57194999Y-91294364D01*
X56981513Y-91351567D01*
X56981507Y-91351570D01*
X56767422Y-91451399D01*
X56767420Y-91451400D01*
X56573926Y-91586886D01*
X56573920Y-91586891D01*
X56406891Y-91753920D01*
X56406886Y-91753926D01*
X56271400Y-91947420D01*
X56271399Y-91947422D01*
X56171570Y-92161507D01*
X56171567Y-92161513D01*
X56114364Y-92374999D01*
X56114364Y-92375000D01*
X57011314Y-92375000D01*
X56985507Y-92415156D01*
X56945000Y-92553111D01*
X56945000Y-92696889D01*
X56985507Y-92834844D01*
X57011314Y-92875000D01*
X56114364Y-92875000D01*
X56171567Y-93088486D01*
X56171570Y-93088492D01*
X56271399Y-93302578D01*
X56406894Y-93496082D01*
X56573917Y-93663105D01*
X56767421Y-93798600D01*
X56981507Y-93898429D01*
X56981516Y-93898433D01*
X57195000Y-93955634D01*
X57195000Y-93060501D01*
X57302685Y-93109680D01*
X57409237Y-93125000D01*
X57480763Y-93125000D01*
X57587315Y-93109680D01*
X57695000Y-93060501D01*
X57695000Y-93955633D01*
X57908483Y-93898433D01*
X57908492Y-93898429D01*
X58122578Y-93798600D01*
X58316082Y-93663105D01*
X58483105Y-93496082D01*
X58613119Y-93310405D01*
X58667696Y-93266781D01*
X58737195Y-93259588D01*
X58799549Y-93291110D01*
X58816269Y-93310405D01*
X58946505Y-93496401D01*
X58946506Y-93496402D01*
X59113597Y-93663494D01*
X59231623Y-93746136D01*
X59275248Y-93800713D01*
X59284500Y-93847711D01*
X59284500Y-114415656D01*
X59284387Y-114419401D01*
X59280642Y-114481308D01*
X59280642Y-114481310D01*
X59291821Y-114542317D01*
X59292384Y-114546018D01*
X59299859Y-114607575D01*
X59299860Y-114607579D01*
X59303451Y-114617048D01*
X59309474Y-114638651D01*
X59311304Y-114648635D01*
X59336759Y-114705195D01*
X59338189Y-114708646D01*
X59360182Y-114766635D01*
X59360183Y-114766636D01*
X59365936Y-114774971D01*
X59376961Y-114794518D01*
X59381120Y-114803760D01*
X59381124Y-114803765D01*
X59419371Y-114852583D01*
X59421591Y-114855601D01*
X59456812Y-114906629D01*
X59456816Y-114906633D01*
X59456817Y-114906634D01*
X59503250Y-114947769D01*
X59505941Y-114950303D01*
X81205138Y-136649500D01*
X90588681Y-146033043D01*
X90622166Y-146094366D01*
X90625000Y-146120724D01*
X90625000Y-147009498D01*
X90517315Y-146960320D01*
X90410763Y-146945000D01*
X90339237Y-146945000D01*
X90232685Y-146960320D01*
X90125000Y-147009498D01*
X90125000Y-146114364D01*
X90124999Y-146114364D01*
X89911513Y-146171567D01*
X89911507Y-146171570D01*
X89697422Y-146271399D01*
X89697420Y-146271400D01*
X89503926Y-146406886D01*
X89503920Y-146406891D01*
X89336891Y-146573920D01*
X89336886Y-146573926D01*
X89201400Y-146767420D01*
X89201399Y-146767422D01*
X89101570Y-146981507D01*
X89101567Y-146981513D01*
X89044364Y-147194999D01*
X89044364Y-147195000D01*
X89941314Y-147195000D01*
X89915507Y-147235156D01*
X89875000Y-147373111D01*
X89875000Y-147516889D01*
X89915507Y-147654844D01*
X89941314Y-147695000D01*
X89044364Y-147695000D01*
X89101567Y-147908486D01*
X89101570Y-147908492D01*
X89201399Y-148122578D01*
X89336894Y-148316082D01*
X89503917Y-148483105D01*
X89689595Y-148613119D01*
X89733219Y-148667696D01*
X89740412Y-148737195D01*
X89708890Y-148799549D01*
X89689595Y-148816269D01*
X89503594Y-148946508D01*
X89336505Y-149113597D01*
X89200965Y-149307169D01*
X89200964Y-149307171D01*
X89138699Y-149440700D01*
X89103859Y-149515415D01*
X89101098Y-149521335D01*
X89101094Y-149521344D01*
X89039938Y-149749586D01*
X89039936Y-149749596D01*
X89019341Y-149984999D01*
X89019341Y-149985000D01*
X89039936Y-150220403D01*
X89039938Y-150220413D01*
X89101094Y-150448655D01*
X89101096Y-150448659D01*
X89101097Y-150448663D01*
X89190234Y-150639818D01*
X89200965Y-150662830D01*
X89200967Y-150662834D01*
X89336501Y-150856395D01*
X89336506Y-150856402D01*
X89458430Y-150978326D01*
X89491915Y-151039649D01*
X89486931Y-151109341D01*
X89445059Y-151165274D01*
X89414083Y-151182189D01*
X89282669Y-151231203D01*
X89282664Y-151231206D01*
X89167455Y-151317452D01*
X89167452Y-151317455D01*
X89081206Y-151432664D01*
X89081202Y-151432671D01*
X89030908Y-151567517D01*
X89024501Y-151627116D01*
X89024501Y-151627123D01*
X89024500Y-151627135D01*
X89024500Y-153422870D01*
X89024501Y-153422876D01*
X89030908Y-153482483D01*
X89081202Y-153617328D01*
X89081206Y-153617335D01*
X89167452Y-153732544D01*
X89167455Y-153732547D01*
X89282664Y-153818793D01*
X89282671Y-153818797D01*
X89417517Y-153869091D01*
X89417516Y-153869091D01*
X89424444Y-153869835D01*
X89477127Y-153875500D01*
X91272872Y-153875499D01*
X91332483Y-153869091D01*
X91467331Y-153818796D01*
X91582546Y-153732546D01*
X91668796Y-153617331D01*
X91719091Y-153482483D01*
X91725500Y-153422873D01*
X91725499Y-151627128D01*
X91719091Y-151567517D01*
X91700208Y-151516890D01*
X91668797Y-151432671D01*
X91668793Y-151432664D01*
X91582547Y-151317455D01*
X91582544Y-151317452D01*
X91467335Y-151231206D01*
X91467328Y-151231202D01*
X91335917Y-151182189D01*
X91279983Y-151140318D01*
X91255566Y-151074853D01*
X91270418Y-151006580D01*
X91291563Y-150978332D01*
X91413495Y-150856401D01*
X91494286Y-150741019D01*
X91548861Y-150697395D01*
X91603347Y-150688369D01*
X91619687Y-150689358D01*
X91654419Y-150682992D01*
X91680702Y-150678177D01*
X91684406Y-150677613D01*
X91702251Y-150675446D01*
X91745953Y-150670140D01*
X91755416Y-150666550D01*
X91777042Y-150660522D01*
X91777974Y-150660351D01*
X91787013Y-150658695D01*
X91843593Y-150633229D01*
X91847023Y-150631809D01*
X91905011Y-150609818D01*
X91913347Y-150604062D01*
X91932902Y-150593034D01*
X91942138Y-150588878D01*
X91990977Y-150550613D01*
X91993957Y-150548421D01*
X92045010Y-150513183D01*
X92086146Y-150466748D01*
X92088680Y-150464056D01*
X92704056Y-149848680D01*
X92706748Y-149846146D01*
X92753183Y-149805010D01*
X92788417Y-149753964D01*
X92790620Y-149750968D01*
X92828878Y-149702137D01*
X92833037Y-149692894D01*
X92844061Y-149673349D01*
X92849818Y-149665011D01*
X92871810Y-149607020D01*
X92873232Y-149603584D01*
X92898695Y-149547012D01*
X92900522Y-149537040D01*
X92906546Y-149515428D01*
X92910140Y-149505953D01*
X92917613Y-149444405D01*
X92918177Y-149440700D01*
X92921535Y-149422370D01*
X92929358Y-149379687D01*
X92925613Y-149317777D01*
X92925500Y-149314032D01*
X92925500Y-146701740D01*
X92925613Y-146697995D01*
X92929357Y-146636099D01*
X92918177Y-146575091D01*
X92917615Y-146571394D01*
X92910140Y-146509834D01*
X92910139Y-146509830D01*
X92906546Y-146500356D01*
X92900519Y-146478734D01*
X92898694Y-146468775D01*
X92898694Y-146468773D01*
X92873239Y-146412217D01*
X92871809Y-146408762D01*
X92861914Y-146382671D01*
X92849818Y-146350775D01*
X92844059Y-146342432D01*
X92833030Y-146322877D01*
X92828877Y-146313648D01*
X92828874Y-146313643D01*
X92790633Y-146264832D01*
X92788413Y-146261815D01*
X92774829Y-146242136D01*
X92753183Y-146210776D01*
X92706750Y-146169640D01*
X92704056Y-146167104D01*
X85434822Y-138897870D01*
X109649500Y-138897870D01*
X109649501Y-138897876D01*
X109655908Y-138957483D01*
X109706202Y-139092328D01*
X109706206Y-139092335D01*
X109792452Y-139207544D01*
X109792455Y-139207547D01*
X109907664Y-139293793D01*
X109907671Y-139293797D01*
X109907674Y-139293798D01*
X110039598Y-139343002D01*
X110095531Y-139384873D01*
X110119949Y-139450337D01*
X110105098Y-139518610D01*
X110083947Y-139546865D01*
X109961886Y-139668926D01*
X109826400Y-139862420D01*
X109826399Y-139862422D01*
X109726570Y-140076507D01*
X109726567Y-140076513D01*
X109669364Y-140289999D01*
X109669364Y-140290000D01*
X110566314Y-140290000D01*
X110540507Y-140330156D01*
X110500000Y-140468111D01*
X110500000Y-140611889D01*
X110540507Y-140749844D01*
X110566314Y-140790000D01*
X109669364Y-140790000D01*
X109726567Y-141003486D01*
X109726570Y-141003492D01*
X109826399Y-141217578D01*
X109961894Y-141411082D01*
X110128917Y-141578105D01*
X110322421Y-141713600D01*
X110536507Y-141813429D01*
X110536516Y-141813433D01*
X110750000Y-141870634D01*
X110750000Y-140975501D01*
X110857685Y-141024680D01*
X110964237Y-141040000D01*
X111035763Y-141040000D01*
X111142315Y-141024680D01*
X111250000Y-140975501D01*
X111250000Y-141870633D01*
X111463483Y-141813433D01*
X111463492Y-141813429D01*
X111677578Y-141713600D01*
X111871082Y-141578105D01*
X112038105Y-141411082D01*
X112173600Y-141217578D01*
X112273429Y-141003492D01*
X112273432Y-141003486D01*
X112330636Y-140790000D01*
X111433686Y-140790000D01*
X111459493Y-140749844D01*
X111500000Y-140611889D01*
X111500000Y-140468111D01*
X111459493Y-140330156D01*
X111433686Y-140290000D01*
X112330636Y-140290000D01*
X112330635Y-140289999D01*
X112273432Y-140076513D01*
X112273429Y-140076507D01*
X112173600Y-139862422D01*
X112173599Y-139862420D01*
X112038113Y-139668926D01*
X112038108Y-139668920D01*
X111916053Y-139546865D01*
X111882568Y-139485542D01*
X111887552Y-139415850D01*
X111929424Y-139359917D01*
X111960400Y-139343002D01*
X112092331Y-139293796D01*
X112207546Y-139207546D01*
X112293796Y-139092331D01*
X112344091Y-138957483D01*
X112350500Y-138897873D01*
X112350499Y-137102128D01*
X112344091Y-137042517D01*
X112293796Y-136907669D01*
X112293795Y-136907668D01*
X112293793Y-136907664D01*
X112207547Y-136792455D01*
X112207544Y-136792452D01*
X112092335Y-136706206D01*
X112092328Y-136706202D01*
X111957482Y-136655908D01*
X111957483Y-136655908D01*
X111897883Y-136649501D01*
X111897881Y-136649500D01*
X111897873Y-136649500D01*
X111897864Y-136649500D01*
X110102129Y-136649500D01*
X110102123Y-136649501D01*
X110042516Y-136655908D01*
X109907671Y-136706202D01*
X109907664Y-136706206D01*
X109792455Y-136792452D01*
X109792452Y-136792455D01*
X109706206Y-136907664D01*
X109706202Y-136907671D01*
X109655908Y-137042517D01*
X109649501Y-137102116D01*
X109649501Y-137102123D01*
X109649500Y-137102135D01*
X109649500Y-138897870D01*
X85434822Y-138897870D01*
X60721819Y-114184867D01*
X60688334Y-114123544D01*
X60685500Y-114097186D01*
X60685500Y-112875000D01*
X98404364Y-112875000D01*
X98461567Y-113088486D01*
X98461570Y-113088492D01*
X98561399Y-113302578D01*
X98696894Y-113496082D01*
X98863917Y-113663105D01*
X99057421Y-113798600D01*
X99271507Y-113898429D01*
X99271516Y-113898433D01*
X99485000Y-113955634D01*
X99485000Y-113060501D01*
X99592685Y-113109680D01*
X99699237Y-113125000D01*
X99770763Y-113125000D01*
X99877315Y-113109680D01*
X99985000Y-113060501D01*
X99985000Y-113955633D01*
X100198483Y-113898433D01*
X100198492Y-113898429D01*
X100412578Y-113798600D01*
X100606078Y-113663108D01*
X100728133Y-113541053D01*
X100789456Y-113507568D01*
X100859148Y-113512552D01*
X100915082Y-113554423D01*
X100931997Y-113585401D01*
X100981202Y-113717328D01*
X100981206Y-113717335D01*
X101067452Y-113832544D01*
X101067455Y-113832547D01*
X101182664Y-113918793D01*
X101182671Y-113918797D01*
X101317517Y-113969091D01*
X101317516Y-113969091D01*
X101324444Y-113969835D01*
X101377127Y-113975500D01*
X103172872Y-113975499D01*
X103232483Y-113969091D01*
X103367331Y-113918796D01*
X103482546Y-113832546D01*
X103568796Y-113717331D01*
X103619091Y-113582483D01*
X103625500Y-113522873D01*
X103625499Y-111727128D01*
X103619091Y-111667517D01*
X103618002Y-111664598D01*
X103568797Y-111532671D01*
X103568793Y-111532664D01*
X103482547Y-111417455D01*
X103482544Y-111417452D01*
X103367335Y-111331206D01*
X103367328Y-111331202D01*
X103232482Y-111280908D01*
X103232483Y-111280908D01*
X103172883Y-111274501D01*
X103172881Y-111274500D01*
X103172873Y-111274500D01*
X103172864Y-111274500D01*
X101377129Y-111274500D01*
X101377123Y-111274501D01*
X101317516Y-111280908D01*
X101182671Y-111331202D01*
X101182664Y-111331206D01*
X101067455Y-111417452D01*
X101067452Y-111417455D01*
X100981206Y-111532664D01*
X100981202Y-111532671D01*
X100931997Y-111664598D01*
X100890126Y-111720532D01*
X100824661Y-111744949D01*
X100756388Y-111730097D01*
X100728134Y-111708946D01*
X100606082Y-111586894D01*
X100412578Y-111451399D01*
X100198492Y-111351570D01*
X100198486Y-111351567D01*
X99985000Y-111294364D01*
X99985000Y-112189498D01*
X99877315Y-112140320D01*
X99770763Y-112125000D01*
X99699237Y-112125000D01*
X99592685Y-112140320D01*
X99485000Y-112189498D01*
X99485000Y-111294364D01*
X99484999Y-111294364D01*
X99271513Y-111351567D01*
X99271507Y-111351570D01*
X99057422Y-111451399D01*
X99057420Y-111451400D01*
X98863926Y-111586886D01*
X98863920Y-111586891D01*
X98696891Y-111753920D01*
X98696886Y-111753926D01*
X98561400Y-111947420D01*
X98561399Y-111947422D01*
X98461570Y-112161507D01*
X98461567Y-112161513D01*
X98404364Y-112374999D01*
X98404364Y-112375000D01*
X99301314Y-112375000D01*
X99275507Y-112415156D01*
X99235000Y-112553111D01*
X99235000Y-112696889D01*
X99275507Y-112834844D01*
X99301314Y-112875000D01*
X98404364Y-112875000D01*
X60685500Y-112875000D01*
X60685500Y-100000000D01*
X95194541Y-100000000D01*
X95214370Y-100479411D01*
X95273720Y-100955547D01*
X95372187Y-101425156D01*
X95509097Y-101885029D01*
X95561168Y-102018475D01*
X95683512Y-102332020D01*
X95683512Y-102332021D01*
X95894251Y-102763094D01*
X95894252Y-102763095D01*
X96139861Y-103175281D01*
X96139860Y-103175280D01*
X96365723Y-103491620D01*
X96418677Y-103565787D01*
X96619814Y-103803269D01*
X96728787Y-103931932D01*
X96728787Y-103931933D01*
X97068067Y-104271213D01*
X97068068Y-104271213D01*
X97068070Y-104271215D01*
X97434213Y-104581323D01*
X97434218Y-104581327D01*
X97824720Y-104860140D01*
X97824719Y-104860139D01*
X98236905Y-105105748D01*
X98236906Y-105105749D01*
X98667979Y-105316488D01*
X98667980Y-105316488D01*
X98909437Y-105410703D01*
X99114971Y-105490903D01*
X99574844Y-105627813D01*
X100044453Y-105726280D01*
X100203165Y-105746063D01*
X100520585Y-105785630D01*
X101000000Y-105805459D01*
X101479415Y-105785630D01*
X101796835Y-105746063D01*
X101955547Y-105726280D01*
X102425156Y-105627813D01*
X102885029Y-105490903D01*
X103090562Y-105410703D01*
X103332020Y-105316488D01*
X103332021Y-105316488D01*
X103763094Y-105105749D01*
X103763095Y-105105748D01*
X104175281Y-104860139D01*
X104175280Y-104860140D01*
X104565782Y-104581327D01*
X104565787Y-104581323D01*
X104931930Y-104271215D01*
X104931932Y-104271213D01*
X104931933Y-104271213D01*
X105271213Y-103931933D01*
X105271213Y-103931932D01*
X105380186Y-103803269D01*
X105581323Y-103565787D01*
X105634278Y-103491620D01*
X105860140Y-103175280D01*
X105860139Y-103175281D01*
X106105748Y-102763095D01*
X106105749Y-102763094D01*
X106316488Y-102332021D01*
X106316488Y-102332020D01*
X106438832Y-102018475D01*
X106490903Y-101885029D01*
X106627813Y-101425156D01*
X106726280Y-100955547D01*
X106785630Y-100479411D01*
X106805459Y-100000000D01*
X106785630Y-99520589D01*
X106779570Y-99471974D01*
X106726280Y-99044455D01*
X106641794Y-98641525D01*
X106627813Y-98574844D01*
X106490903Y-98114971D01*
X106393496Y-97865337D01*
X106316488Y-97667980D01*
X106316488Y-97667979D01*
X106105749Y-97236906D01*
X106105748Y-97236905D01*
X105860139Y-96824719D01*
X105860140Y-96824720D01*
X105581327Y-96434218D01*
X105581323Y-96434213D01*
X105271215Y-96068070D01*
X105271213Y-96068068D01*
X105271213Y-96068067D01*
X104931933Y-95728787D01*
X104931932Y-95728787D01*
X104931930Y-95728785D01*
X104565787Y-95418677D01*
X104565785Y-95418675D01*
X104565782Y-95418673D01*
X104175280Y-95139860D01*
X104175281Y-95139861D01*
X103763095Y-94894252D01*
X103763094Y-94894251D01*
X103332021Y-94683512D01*
X103332020Y-94683512D01*
X103090562Y-94589296D01*
X102885029Y-94509097D01*
X102425156Y-94372187D01*
X101955547Y-94273720D01*
X101796835Y-94253936D01*
X101479415Y-94214370D01*
X101000000Y-94194541D01*
X100520585Y-94214370D01*
X100203165Y-94253936D01*
X100044453Y-94273720D01*
X99574844Y-94372187D01*
X99114971Y-94509097D01*
X98909437Y-94589296D01*
X98667980Y-94683512D01*
X98667979Y-94683512D01*
X98236906Y-94894251D01*
X98236905Y-94894252D01*
X97824719Y-95139861D01*
X97824720Y-95139860D01*
X97434218Y-95418673D01*
X97434214Y-95418675D01*
X97434213Y-95418677D01*
X97068070Y-95728785D01*
X97068068Y-95728787D01*
X97068067Y-95728787D01*
X96728787Y-96068067D01*
X96728787Y-96068068D01*
X96728785Y-96068070D01*
X96418677Y-96434213D01*
X96418673Y-96434218D01*
X96139860Y-96824720D01*
X96139861Y-96824719D01*
X95894252Y-97236905D01*
X95894251Y-97236906D01*
X95683512Y-97667979D01*
X95683512Y-97667980D01*
X95606504Y-97865337D01*
X95509097Y-98114971D01*
X95372187Y-98574844D01*
X95358206Y-98641525D01*
X95273720Y-99044455D01*
X95220430Y-99471974D01*
X95214370Y-99520589D01*
X95194541Y-100000000D01*
X60685500Y-100000000D01*
X60685500Y-93847711D01*
X60705185Y-93780672D01*
X60738377Y-93746136D01*
X60779519Y-93717328D01*
X60856401Y-93663495D01*
X60978329Y-93541566D01*
X61039648Y-93508084D01*
X61109340Y-93513068D01*
X61165274Y-93554939D01*
X61182189Y-93585917D01*
X61231202Y-93717328D01*
X61231206Y-93717335D01*
X61317452Y-93832544D01*
X61317455Y-93832547D01*
X61432664Y-93918793D01*
X61432671Y-93918797D01*
X61567517Y-93969091D01*
X61567516Y-93969091D01*
X61574444Y-93969835D01*
X61627127Y-93975500D01*
X63422872Y-93975499D01*
X63482483Y-93969091D01*
X63617331Y-93918796D01*
X63732546Y-93832546D01*
X63818796Y-93717331D01*
X63869091Y-93582483D01*
X63875500Y-93522873D01*
X63875499Y-91727128D01*
X63869091Y-91667517D01*
X63867810Y-91664083D01*
X63818797Y-91532671D01*
X63818793Y-91532664D01*
X63732547Y-91417455D01*
X63732544Y-91417452D01*
X63617335Y-91331206D01*
X63617328Y-91331202D01*
X63482482Y-91280908D01*
X63482483Y-91280908D01*
X63422883Y-91274501D01*
X63422881Y-91274500D01*
X63422873Y-91274500D01*
X63422864Y-91274500D01*
X61627129Y-91274500D01*
X61627123Y-91274501D01*
X61567516Y-91280908D01*
X61432671Y-91331202D01*
X61432664Y-91331206D01*
X61317455Y-91417452D01*
X61317452Y-91417455D01*
X61231206Y-91532664D01*
X61231203Y-91532669D01*
X61182189Y-91664083D01*
X61140317Y-91720016D01*
X61074853Y-91744433D01*
X61006580Y-91729581D01*
X60978326Y-91708430D01*
X60856404Y-91586508D01*
X60856401Y-91586505D01*
X60856396Y-91586501D01*
X60856393Y-91586499D01*
X60738376Y-91503861D01*
X60694751Y-91449284D01*
X60685500Y-91402287D01*
X60685500Y-81356519D01*
X60705185Y-81289480D01*
X60721819Y-81268838D01*
X64484338Y-77506319D01*
X64545661Y-77472834D01*
X64572019Y-77470000D01*
X144239981Y-77470000D01*
X144307020Y-77489685D01*
X144352775Y-77542489D01*
X144362719Y-77611647D01*
X144333694Y-77675203D01*
X144327662Y-77681681D01*
X139505966Y-82503375D01*
X139503240Y-82505942D01*
X139456818Y-82547068D01*
X139421586Y-82598109D01*
X139419368Y-82601124D01*
X139381124Y-82649939D01*
X139381119Y-82649948D01*
X139376960Y-82659188D01*
X139365942Y-82678723D01*
X139360187Y-82687061D01*
X139360183Y-82687067D01*
X139360182Y-82687070D01*
X139360180Y-82687074D01*
X139360179Y-82687077D01*
X139338189Y-82745055D01*
X139336757Y-82748513D01*
X139311305Y-82805068D01*
X139309477Y-82815042D01*
X139303453Y-82836653D01*
X139299860Y-82846127D01*
X139299859Y-82846128D01*
X139292384Y-82907685D01*
X139291821Y-82911386D01*
X139280642Y-82972390D01*
X139280642Y-82972395D01*
X139284387Y-83034302D01*
X139284500Y-83038047D01*
X139284500Y-91402288D01*
X139264815Y-91469327D01*
X139231624Y-91503863D01*
X139113594Y-91586508D01*
X138946508Y-91753594D01*
X138816269Y-91939595D01*
X138761692Y-91983219D01*
X138692193Y-91990412D01*
X138629839Y-91958890D01*
X138613119Y-91939594D01*
X138483113Y-91753926D01*
X138483108Y-91753920D01*
X138316082Y-91586894D01*
X138122578Y-91451399D01*
X137908492Y-91351570D01*
X137908486Y-91351567D01*
X137695000Y-91294364D01*
X137695000Y-92189498D01*
X137587315Y-92140320D01*
X137480763Y-92125000D01*
X137409237Y-92125000D01*
X137302685Y-92140320D01*
X137195000Y-92189498D01*
X137195000Y-91294364D01*
X137194999Y-91294364D01*
X136981513Y-91351567D01*
X136981507Y-91351570D01*
X136767422Y-91451399D01*
X136767420Y-91451400D01*
X136573926Y-91586886D01*
X136573920Y-91586891D01*
X136406891Y-91753920D01*
X136406886Y-91753926D01*
X136271400Y-91947420D01*
X136271399Y-91947422D01*
X136171570Y-92161507D01*
X136171567Y-92161513D01*
X136114364Y-92374999D01*
X136114364Y-92375000D01*
X137011314Y-92375000D01*
X136985507Y-92415156D01*
X136945000Y-92553111D01*
X136945000Y-92696889D01*
X136985507Y-92834844D01*
X137011314Y-92875000D01*
X136114364Y-92875000D01*
X136171567Y-93088486D01*
X136171570Y-93088492D01*
X136271399Y-93302578D01*
X136406894Y-93496082D01*
X136573917Y-93663105D01*
X136767421Y-93798600D01*
X136981507Y-93898429D01*
X136981516Y-93898433D01*
X137195000Y-93955634D01*
X137195000Y-93060501D01*
X137302685Y-93109680D01*
X137409237Y-93125000D01*
X137480763Y-93125000D01*
X137587315Y-93109680D01*
X137695000Y-93060501D01*
X137695000Y-93955633D01*
X137908483Y-93898433D01*
X137908492Y-93898429D01*
X138122578Y-93798600D01*
X138316082Y-93663105D01*
X138483105Y-93496082D01*
X138613119Y-93310405D01*
X138667696Y-93266781D01*
X138737195Y-93259588D01*
X138799549Y-93291110D01*
X138816269Y-93310405D01*
X138946505Y-93496401D01*
X138946506Y-93496402D01*
X139113597Y-93663494D01*
X139231623Y-93746136D01*
X139275248Y-93800713D01*
X139284500Y-93847711D01*
X139284500Y-121515561D01*
X139264815Y-121582600D01*
X139248181Y-121603242D01*
X112057038Y-148794384D01*
X111995715Y-148827869D01*
X111980071Y-148826750D01*
X111980387Y-148828201D01*
X111955971Y-148893666D01*
X111944384Y-148907038D01*
X111773340Y-149078082D01*
X111712017Y-149111567D01*
X111642325Y-149106583D01*
X111597978Y-149078082D01*
X111541569Y-149021673D01*
X111508084Y-148960350D01*
X111513068Y-148890658D01*
X111554940Y-148834725D01*
X111585915Y-148817810D01*
X111717331Y-148768796D01*
X111782393Y-148720089D01*
X111847855Y-148695673D01*
X111849900Y-148696117D01*
X111860525Y-148647276D01*
X111870084Y-148632400D01*
X111918796Y-148567331D01*
X111969091Y-148432483D01*
X111975500Y-148372873D01*
X111975499Y-146577128D01*
X111969091Y-146517517D01*
X111966225Y-146509834D01*
X111918797Y-146382671D01*
X111918793Y-146382664D01*
X111832547Y-146267455D01*
X111832544Y-146267452D01*
X111717335Y-146181206D01*
X111717328Y-146181202D01*
X111582482Y-146130908D01*
X111582483Y-146130908D01*
X111522883Y-146124501D01*
X111522881Y-146124500D01*
X111522873Y-146124500D01*
X111522864Y-146124500D01*
X109727129Y-146124500D01*
X109727123Y-146124501D01*
X109667516Y-146130908D01*
X109532671Y-146181202D01*
X109532664Y-146181206D01*
X109417455Y-146267452D01*
X109417452Y-146267455D01*
X109331206Y-146382664D01*
X109331202Y-146382671D01*
X109280908Y-146517517D01*
X109275116Y-146571394D01*
X109274501Y-146577123D01*
X109274500Y-146577135D01*
X109274500Y-148372870D01*
X109274501Y-148372876D01*
X109280908Y-148432483D01*
X109331202Y-148567328D01*
X109331206Y-148567335D01*
X109417452Y-148682544D01*
X109417455Y-148682547D01*
X109532664Y-148768793D01*
X109532671Y-148768797D01*
X109664081Y-148817810D01*
X109720015Y-148859681D01*
X109744432Y-148925145D01*
X109729580Y-148993418D01*
X109708430Y-149021673D01*
X109586503Y-149143600D01*
X109450965Y-149337169D01*
X109450964Y-149337171D01*
X109351098Y-149551335D01*
X109351094Y-149551344D01*
X109289938Y-149779586D01*
X109289936Y-149779596D01*
X109269341Y-150014999D01*
X109269341Y-150015000D01*
X109289936Y-150250403D01*
X109289938Y-150250413D01*
X109351094Y-150478655D01*
X109351096Y-150478659D01*
X109351097Y-150478663D01*
X109443869Y-150677613D01*
X109450965Y-150692830D01*
X109450967Y-150692834D01*
X109505714Y-150771020D01*
X109586505Y-150886401D01*
X109753599Y-151053495D01*
X109926413Y-151174501D01*
X109939594Y-151183730D01*
X109983219Y-151238307D01*
X109990413Y-151307805D01*
X109958890Y-151370160D01*
X109939595Y-151386880D01*
X109753922Y-151516890D01*
X109753920Y-151516891D01*
X109586891Y-151683920D01*
X109586886Y-151683926D01*
X109451400Y-151877420D01*
X109451399Y-151877422D01*
X109351570Y-152091507D01*
X109351567Y-152091513D01*
X109294364Y-152304999D01*
X109294364Y-152305000D01*
X110191314Y-152305000D01*
X110165507Y-152345156D01*
X110125000Y-152483111D01*
X110125000Y-152626889D01*
X110165507Y-152764844D01*
X110191314Y-152805000D01*
X109294364Y-152805000D01*
X109351567Y-153018486D01*
X109351570Y-153018492D01*
X109451399Y-153232578D01*
X109586894Y-153426082D01*
X109753917Y-153593105D01*
X109947421Y-153728600D01*
X110161507Y-153828429D01*
X110161516Y-153828433D01*
X110375000Y-153885634D01*
X110375000Y-152990501D01*
X110482685Y-153039680D01*
X110589237Y-153055000D01*
X110660763Y-153055000D01*
X110767315Y-153039680D01*
X110875000Y-152990501D01*
X110875000Y-153885633D01*
X111088483Y-153828433D01*
X111088492Y-153828429D01*
X111302578Y-153728600D01*
X111496082Y-153593105D01*
X111663105Y-153426082D01*
X111798600Y-153232578D01*
X111898429Y-153018492D01*
X111898432Y-153018486D01*
X111955636Y-152805000D01*
X111058686Y-152805000D01*
X111084493Y-152764844D01*
X111125000Y-152626889D01*
X111125000Y-152483111D01*
X111084493Y-152345156D01*
X111058686Y-152305000D01*
X111955636Y-152305000D01*
X111955635Y-152304999D01*
X111898432Y-152091513D01*
X111898429Y-152091507D01*
X111798600Y-151877422D01*
X111798599Y-151877420D01*
X111663113Y-151683926D01*
X111663108Y-151683920D01*
X111496078Y-151516890D01*
X111310405Y-151386879D01*
X111266780Y-151332302D01*
X111259588Y-151262804D01*
X111291110Y-151200449D01*
X111310406Y-151183730D01*
X111314435Y-151180909D01*
X111496401Y-151053495D01*
X111663495Y-150886401D01*
X111744286Y-150771019D01*
X111798861Y-150727395D01*
X111853347Y-150718369D01*
X111869687Y-150719358D01*
X111904419Y-150712992D01*
X111930702Y-150708177D01*
X111934406Y-150707613D01*
X111952251Y-150705446D01*
X111995953Y-150700140D01*
X112005416Y-150696550D01*
X112027042Y-150690522D01*
X112027974Y-150690351D01*
X112037013Y-150688695D01*
X112093593Y-150663229D01*
X112097023Y-150661809D01*
X112155011Y-150639818D01*
X112163347Y-150634062D01*
X112182902Y-150623034D01*
X112192138Y-150618878D01*
X112240977Y-150580613D01*
X112243957Y-150578421D01*
X112295010Y-150543183D01*
X112336146Y-150496748D01*
X112338680Y-150494056D01*
X119776406Y-143056330D01*
X169745710Y-143056330D01*
X169775925Y-143279387D01*
X169775926Y-143279390D01*
X169845483Y-143493465D01*
X169952146Y-143691678D01*
X169952148Y-143691681D01*
X170092489Y-143867663D01*
X170092491Y-143867664D01*
X170092492Y-143867666D01*
X170262004Y-144015765D01*
X170455236Y-144131215D01*
X170620022Y-144193060D01*
X170665976Y-144210307D01*
X170887450Y-144250500D01*
X170887453Y-144250500D01*
X171056148Y-144250500D01*
X171056155Y-144250500D01*
X171224188Y-144235377D01*
X171224192Y-144235376D01*
X171441160Y-144175496D01*
X171441162Y-144175495D01*
X171441170Y-144175493D01*
X171643973Y-144077829D01*
X171826078Y-143945522D01*
X171981632Y-143782825D01*
X172105635Y-143594968D01*
X172194103Y-143387988D01*
X172214016Y-143300743D01*
X174399500Y-143300743D01*
X174414925Y-143452439D01*
X174475837Y-143646579D01*
X174475844Y-143646594D01*
X174574589Y-143824499D01*
X174574592Y-143824504D01*
X174707132Y-143978893D01*
X174707134Y-143978895D01*
X174868037Y-144103445D01*
X174868038Y-144103445D01*
X174868042Y-144103448D01*
X175050729Y-144193060D01*
X175247715Y-144244063D01*
X175450936Y-144254369D01*
X175652071Y-144223556D01*
X175842887Y-144152886D01*
X176015571Y-144045252D01*
X176163053Y-143905059D01*
X176279295Y-143738049D01*
X176359540Y-143551058D01*
X176400500Y-143351741D01*
X176400500Y-142699258D01*
X176391629Y-142612017D01*
X176385074Y-142547560D01*
X176324162Y-142353420D01*
X176324160Y-142353416D01*
X176324159Y-142353412D01*
X176225409Y-142175498D01*
X176225408Y-142175497D01*
X176225407Y-142175495D01*
X176092867Y-142021106D01*
X176092865Y-142021104D01*
X175931962Y-141896554D01*
X175931959Y-141896553D01*
X175931958Y-141896552D01*
X175749271Y-141806940D01*
X175552285Y-141755937D01*
X175552287Y-141755937D01*
X175416804Y-141749066D01*
X175349064Y-141745631D01*
X175349063Y-141745631D01*
X175349061Y-141745631D01*
X175147936Y-141776442D01*
X175147924Y-141776445D01*
X174957118Y-141847111D01*
X174957111Y-141847115D01*
X174784432Y-141954745D01*
X174784427Y-141954749D01*
X174636949Y-142094938D01*
X174636948Y-142094940D01*
X174520705Y-142261949D01*
X174440459Y-142448943D01*
X174399500Y-142648258D01*
X174399500Y-143300743D01*
X172214016Y-143300743D01*
X172244191Y-143168537D01*
X172254290Y-142943670D01*
X172224075Y-142720613D01*
X172154517Y-142506536D01*
X172047852Y-142308319D01*
X171941932Y-142175500D01*
X171907510Y-142132336D01*
X171907508Y-142132334D01*
X171737996Y-141984235D01*
X171544764Y-141868785D01*
X171426775Y-141824503D01*
X171334023Y-141789692D01*
X171112550Y-141749500D01*
X171112547Y-141749500D01*
X170943845Y-141749500D01*
X170905399Y-141752960D01*
X170775813Y-141764622D01*
X170775807Y-141764623D01*
X170558839Y-141824503D01*
X170558826Y-141824508D01*
X170356033Y-141922167D01*
X170356025Y-141922171D01*
X170173927Y-142054473D01*
X170173925Y-142054474D01*
X170018366Y-142217176D01*
X169894363Y-142405033D01*
X169805899Y-142612004D01*
X169805895Y-142612017D01*
X169755810Y-142831457D01*
X169755808Y-142831468D01*
X169750769Y-142943674D01*
X169745710Y-143056330D01*
X119776406Y-143056330D01*
X140464056Y-122368680D01*
X140466748Y-122366146D01*
X140513183Y-122325010D01*
X140548421Y-122273957D01*
X140550613Y-122270977D01*
X140588878Y-122222138D01*
X140593034Y-122212902D01*
X140604062Y-122193347D01*
X140609818Y-122185011D01*
X140631812Y-122127012D01*
X140633227Y-122123596D01*
X140658695Y-122067012D01*
X140660522Y-122057040D01*
X140666546Y-122035428D01*
X140670140Y-122025953D01*
X140677613Y-121964405D01*
X140678177Y-121960700D01*
X140681535Y-121942370D01*
X140689358Y-121899687D01*
X140685613Y-121837777D01*
X140685500Y-121834032D01*
X140685500Y-100330003D01*
X165374661Y-100330003D01*
X165394005Y-100760737D01*
X165394006Y-100760746D01*
X165451885Y-101188027D01*
X165547830Y-101608391D01*
X165681073Y-102018472D01*
X165681076Y-102018480D01*
X165850533Y-102414947D01*
X165850537Y-102414955D01*
X165850539Y-102414958D01*
X166054863Y-102794655D01*
X166054867Y-102794661D01*
X166054867Y-102794662D01*
X166292394Y-103154501D01*
X166292404Y-103154514D01*
X166561225Y-103491607D01*
X166561235Y-103491618D01*
X166561236Y-103491619D01*
X166859210Y-103803274D01*
X167183920Y-104086965D01*
X167183930Y-104086972D01*
X167183931Y-104086973D01*
X167437515Y-104271213D01*
X167532753Y-104340407D01*
X167902900Y-104561560D01*
X167902903Y-104561561D01*
X167902904Y-104561562D01*
X167902906Y-104561563D01*
X168291372Y-104748639D01*
X168291386Y-104748645D01*
X168695055Y-104900144D01*
X168695059Y-104900145D01*
X168695069Y-104900149D01*
X169110711Y-105014859D01*
X169534964Y-105091850D01*
X169964409Y-105130500D01*
X169964416Y-105130500D01*
X170395584Y-105130500D01*
X170395591Y-105130500D01*
X170825036Y-105091850D01*
X171249289Y-105014859D01*
X171664931Y-104900149D01*
X172068619Y-104748643D01*
X172457100Y-104561560D01*
X172827247Y-104340407D01*
X173176080Y-104086965D01*
X173500790Y-103803274D01*
X173798764Y-103491619D01*
X174067601Y-103154507D01*
X174305137Y-102794655D01*
X174509461Y-102414958D01*
X174678926Y-102018475D01*
X174812168Y-101608397D01*
X174908115Y-101188026D01*
X174965994Y-100760747D01*
X174985339Y-100330000D01*
X174965994Y-99899253D01*
X174908115Y-99471974D01*
X174812168Y-99051603D01*
X174678926Y-98641525D01*
X174615376Y-98492843D01*
X174509466Y-98245052D01*
X174509462Y-98245044D01*
X174509461Y-98245042D01*
X174305137Y-97865345D01*
X174174854Y-97667974D01*
X174067605Y-97505498D01*
X174067595Y-97505485D01*
X173798774Y-97168392D01*
X173798762Y-97168379D01*
X173500794Y-96856730D01*
X173500793Y-96856729D01*
X173500790Y-96856726D01*
X173176080Y-96573035D01*
X172985008Y-96434213D01*
X172827256Y-96319599D01*
X172827251Y-96319596D01*
X172827247Y-96319593D01*
X172457100Y-96098440D01*
X172457095Y-96098437D01*
X172457093Y-96098436D01*
X172068627Y-95911360D01*
X172068613Y-95911354D01*
X171664944Y-95759855D01*
X171664919Y-95759847D01*
X171249295Y-95645142D01*
X170825043Y-95568151D01*
X170825040Y-95568150D01*
X170825036Y-95568150D01*
X170395591Y-95529500D01*
X169964409Y-95529500D01*
X169534964Y-95568150D01*
X169534960Y-95568150D01*
X169534956Y-95568151D01*
X169110704Y-95645142D01*
X168695080Y-95759847D01*
X168695055Y-95759855D01*
X168291386Y-95911354D01*
X168291372Y-95911360D01*
X167902906Y-96098436D01*
X167902904Y-96098437D01*
X167532743Y-96319599D01*
X167183931Y-96573026D01*
X167183914Y-96573039D01*
X166859210Y-96856726D01*
X166859205Y-96856730D01*
X166561237Y-97168379D01*
X166561225Y-97168392D01*
X166292404Y-97505485D01*
X166292394Y-97505498D01*
X166054867Y-97865337D01*
X166054867Y-97865338D01*
X165850537Y-98245044D01*
X165850533Y-98245052D01*
X165681076Y-98641519D01*
X165681073Y-98641527D01*
X165547830Y-99051608D01*
X165451885Y-99471972D01*
X165394006Y-99899253D01*
X165394005Y-99899262D01*
X165374661Y-100329996D01*
X165374661Y-100330003D01*
X140685500Y-100330003D01*
X140685500Y-93847711D01*
X140705185Y-93780672D01*
X140738377Y-93746136D01*
X140779519Y-93717328D01*
X140856401Y-93663495D01*
X140978329Y-93541566D01*
X141039648Y-93508084D01*
X141109340Y-93513068D01*
X141165274Y-93554939D01*
X141182189Y-93585917D01*
X141231202Y-93717328D01*
X141231206Y-93717335D01*
X141317452Y-93832544D01*
X141317455Y-93832547D01*
X141432664Y-93918793D01*
X141432671Y-93918797D01*
X141567517Y-93969091D01*
X141567516Y-93969091D01*
X141574444Y-93969835D01*
X141627127Y-93975500D01*
X143422872Y-93975499D01*
X143482483Y-93969091D01*
X143617331Y-93918796D01*
X143732546Y-93832546D01*
X143818796Y-93717331D01*
X143869091Y-93582483D01*
X143875500Y-93522873D01*
X143875499Y-91727128D01*
X143869091Y-91667517D01*
X143867810Y-91664083D01*
X143818797Y-91532671D01*
X143818793Y-91532664D01*
X143732547Y-91417455D01*
X143732544Y-91417452D01*
X143617335Y-91331206D01*
X143617328Y-91331202D01*
X143482482Y-91280908D01*
X143482483Y-91280908D01*
X143422883Y-91274501D01*
X143422881Y-91274500D01*
X143422873Y-91274500D01*
X143422864Y-91274500D01*
X141627129Y-91274500D01*
X141627123Y-91274501D01*
X141567516Y-91280908D01*
X141432671Y-91331202D01*
X141432664Y-91331206D01*
X141317455Y-91417452D01*
X141317452Y-91417455D01*
X141231206Y-91532664D01*
X141231203Y-91532669D01*
X141182189Y-91664083D01*
X141140317Y-91720016D01*
X141074853Y-91744433D01*
X141006580Y-91729581D01*
X140978326Y-91708430D01*
X140856404Y-91586508D01*
X140856401Y-91586505D01*
X140856396Y-91586501D01*
X140856393Y-91586499D01*
X140738376Y-91503861D01*
X140694751Y-91449284D01*
X140685500Y-91402287D01*
X140685500Y-83356519D01*
X140705185Y-83289480D01*
X140721819Y-83268838D01*
X146484338Y-77506319D01*
X146545661Y-77472834D01*
X146572019Y-77470000D01*
X154940000Y-77470000D01*
X154940000Y-66040000D01*
X151657180Y-66040000D01*
X151590141Y-66020315D01*
X151544386Y-65967511D01*
X151534442Y-65898353D01*
X151563467Y-65834797D01*
X151568414Y-65829418D01*
X151588142Y-65809192D01*
X152112450Y-65215079D01*
X152359021Y-64905889D01*
X152606502Y-64595557D01*
X152606503Y-64595557D01*
X153069047Y-63952198D01*
X153069050Y-63952193D01*
X153069056Y-63952185D01*
X153441813Y-63375044D01*
X153498963Y-63286559D01*
X153498962Y-63286559D01*
X153498963Y-63286558D01*
X153895157Y-62600329D01*
X153895162Y-62600321D01*
X154142434Y-62117997D01*
X154256653Y-61895205D01*
X154287814Y-61826146D01*
X154582551Y-61172946D01*
X154582551Y-61172945D01*
X154759296Y-60722604D01*
X154872045Y-60435325D01*
X155124410Y-59684198D01*
X155137763Y-59636738D01*
X155339022Y-58921424D01*
X155339021Y-58921424D01*
X155347463Y-58884440D01*
X155515344Y-58148904D01*
X155520527Y-58119512D01*
X155652938Y-57368569D01*
X155655660Y-57346847D01*
X155751469Y-56582315D01*
X155810684Y-55792142D01*
X155830439Y-55000000D01*
X155810878Y-54215631D01*
X155810684Y-54207856D01*
X155752749Y-53434766D01*
X155751469Y-53417685D01*
X155652940Y-52631446D01*
X155652939Y-52631443D01*
X155652938Y-52631431D01*
X155515346Y-51851105D01*
X155447561Y-51554118D01*
X155339021Y-51078576D01*
X155339022Y-51078576D01*
X155124413Y-50315812D01*
X155124413Y-50315811D01*
X154872049Y-49564687D01*
X154872045Y-49564675D01*
X154646896Y-48991004D01*
X154582551Y-48827055D01*
X154582551Y-48827054D01*
X154256659Y-48104808D01*
X154256657Y-48104805D01*
X154256653Y-48104795D01*
X154002513Y-47609076D01*
X153895161Y-47399678D01*
X153895161Y-47399679D01*
X153895157Y-47399671D01*
X153498963Y-46713442D01*
X153498962Y-46713441D01*
X153498963Y-46713441D01*
X153276754Y-46369395D01*
X153069056Y-46047815D01*
X153031297Y-45995295D01*
X152606503Y-45404443D01*
X152606502Y-45404443D01*
X152548350Y-45331523D01*
X152112458Y-44784931D01*
X152112457Y-44784930D01*
X152112450Y-44784921D01*
X151588142Y-44190808D01*
X151588141Y-44190808D01*
X151294657Y-43889913D01*
X151034871Y-43623568D01*
X150877547Y-43477593D01*
X150454005Y-43084603D01*
X149846998Y-42575264D01*
X149485632Y-42301541D01*
X149215365Y-42096822D01*
X148560663Y-41650453D01*
X148106830Y-41373121D01*
X147884528Y-41237275D01*
X147188647Y-40858318D01*
X147188637Y-40858313D01*
X147188633Y-40858311D01*
X146771262Y-40657316D01*
X146474708Y-40514503D01*
X145744557Y-40206718D01*
X145744557Y-40206719D01*
X145744548Y-40206715D01*
X145176602Y-40000000D01*
X153094671Y-40000000D01*
X153113979Y-40516031D01*
X153171797Y-41029176D01*
X153171796Y-41029176D01*
X153171798Y-41029186D01*
X153236581Y-41371575D01*
X153267802Y-41536579D01*
X153267802Y-41536580D01*
X153401455Y-42035381D01*
X153572011Y-42522800D01*
X153778514Y-42996110D01*
X153779533Y-42998038D01*
X154019807Y-43452660D01*
X154038354Y-43482177D01*
X154294549Y-43889910D01*
X154601196Y-44305402D01*
X154938036Y-44696817D01*
X155303183Y-45061964D01*
X155694598Y-45398804D01*
X156110088Y-45705449D01*
X156110093Y-45705453D01*
X156547339Y-45980193D01*
X156547338Y-45980192D01*
X156675263Y-46047802D01*
X157003890Y-46221486D01*
X157477200Y-46427989D01*
X157477205Y-46427990D01*
X157477208Y-46427992D01*
X157570382Y-46460595D01*
X157964619Y-46598545D01*
X158463420Y-46732198D01*
X158786552Y-46793337D01*
X158970824Y-46828204D01*
X158970824Y-46828203D01*
X159086254Y-46841209D01*
X159483969Y-46886021D01*
X160000000Y-46905329D01*
X160516031Y-46886021D01*
X160913745Y-46841209D01*
X161029176Y-46828203D01*
X161029176Y-46828204D01*
X161213447Y-46793337D01*
X161536580Y-46732198D01*
X162035381Y-46598545D01*
X162429617Y-46460595D01*
X162522792Y-46427992D01*
X162522794Y-46427990D01*
X162522800Y-46427989D01*
X162996110Y-46221486D01*
X163207521Y-46109751D01*
X163452661Y-45980192D01*
X163452660Y-45980193D01*
X163625661Y-45871488D01*
X163889910Y-45705451D01*
X164305402Y-45398804D01*
X164696817Y-45061964D01*
X165061964Y-44696817D01*
X165398804Y-44305402D01*
X165705451Y-43889910D01*
X165801974Y-43736295D01*
X165980193Y-43452661D01*
X166220467Y-42998038D01*
X166221486Y-42996110D01*
X166427989Y-42522800D01*
X166598545Y-42035381D01*
X166732198Y-41536580D01*
X166732198Y-41536579D01*
X166763419Y-41371575D01*
X166828202Y-41029186D01*
X166828204Y-41029176D01*
X166828203Y-41029176D01*
X166886021Y-40516031D01*
X166905329Y-40000000D01*
X166886021Y-39483969D01*
X166828203Y-38970824D01*
X166828204Y-38970824D01*
X166732198Y-38463421D01*
X166732198Y-38463420D01*
X166598545Y-37964619D01*
X166427989Y-37477200D01*
X166221486Y-37003890D01*
X166109751Y-36792478D01*
X165980192Y-36547339D01*
X165980193Y-36547340D01*
X165871488Y-36374338D01*
X165705451Y-36110090D01*
X165398804Y-35694598D01*
X165061964Y-35303183D01*
X164696817Y-34938036D01*
X164305402Y-34601196D01*
X163889910Y-34294549D01*
X163889907Y-34294547D01*
X163452661Y-34019807D01*
X163452662Y-34019808D01*
X163207522Y-33890248D01*
X162996110Y-33778514D01*
X162522800Y-33572011D01*
X162522794Y-33572009D01*
X162522792Y-33572008D01*
X162429617Y-33539405D01*
X162035381Y-33401455D01*
X161536580Y-33267802D01*
X161213447Y-33206662D01*
X161029176Y-33171796D01*
X160913745Y-33158791D01*
X160516031Y-33113979D01*
X160000000Y-33094671D01*
X159483969Y-33113979D01*
X159086254Y-33158791D01*
X158970824Y-33171796D01*
X158786552Y-33206662D01*
X158463420Y-33267802D01*
X157964619Y-33401455D01*
X157570382Y-33539405D01*
X157477208Y-33572008D01*
X157477205Y-33572009D01*
X157477200Y-33572011D01*
X157003890Y-33778514D01*
X156792477Y-33890248D01*
X156547338Y-34019808D01*
X156547339Y-34019807D01*
X156110093Y-34294547D01*
X156110090Y-34294549D01*
X155694598Y-34601196D01*
X155303183Y-34938036D01*
X154938036Y-35303183D01*
X154601196Y-35694598D01*
X154294549Y-36110090D01*
X154128511Y-36374338D01*
X154019807Y-36547340D01*
X154019808Y-36547339D01*
X153890248Y-36792478D01*
X153778514Y-37003890D01*
X153572011Y-37477200D01*
X153401455Y-37964619D01*
X153267802Y-38463420D01*
X153267802Y-38463421D01*
X153171796Y-38970824D01*
X153171797Y-38970824D01*
X153113979Y-39483969D01*
X153094671Y-40000000D01*
X145176602Y-40000000D01*
X144999947Y-39935703D01*
X144578282Y-39805636D01*
X144242767Y-39702143D01*
X144242768Y-39702144D01*
X144242762Y-39702142D01*
X143474876Y-39506614D01*
X143218325Y-39454751D01*
X142698198Y-39349605D01*
X142698197Y-39349605D01*
X142244276Y-39281187D01*
X141914661Y-39231506D01*
X141909596Y-39230999D01*
X141126211Y-39152610D01*
X140334808Y-39113112D01*
X140334806Y-39113112D01*
X139542418Y-39113112D01*
X139542416Y-39113112D01*
X138751013Y-39152610D01*
X137967627Y-39230999D01*
X137962563Y-39231506D01*
X137632947Y-39281187D01*
X137179027Y-39349605D01*
X137179026Y-39349605D01*
X136658898Y-39454751D01*
X136402348Y-39506614D01*
X135634462Y-39702142D01*
X135634456Y-39702144D01*
X135634457Y-39702143D01*
X135298941Y-39805636D01*
X134877277Y-39935703D01*
X134132676Y-40206715D01*
X134132667Y-40206719D01*
X134132667Y-40206718D01*
X133402516Y-40514503D01*
X133105962Y-40657316D01*
X132688591Y-40858311D01*
X132688586Y-40858313D01*
X132688577Y-40858318D01*
X131992696Y-41237275D01*
X131770394Y-41373121D01*
X131316561Y-41650453D01*
X130661859Y-42096822D01*
X130391592Y-42301541D01*
X130030226Y-42575264D01*
X129423219Y-43084603D01*
X128999677Y-43477593D01*
X128842353Y-43623568D01*
X128582568Y-43889913D01*
X128289083Y-44190808D01*
X128289082Y-44190808D01*
X127764774Y-44784921D01*
X127764766Y-44784930D01*
X127764766Y-44784931D01*
X127328874Y-45331523D01*
X127270722Y-45404443D01*
X127270721Y-45404443D01*
X126845927Y-45995295D01*
X126808168Y-46047815D01*
X126600469Y-46369395D01*
X126378261Y-46713441D01*
X126378262Y-46713441D01*
X126378261Y-46713442D01*
X125982067Y-47399671D01*
X125982063Y-47399679D01*
X125982063Y-47399678D01*
X125874711Y-47609076D01*
X125620571Y-48104795D01*
X125620566Y-48104805D01*
X125620565Y-48104808D01*
X125294673Y-48827054D01*
X125294673Y-48827055D01*
X125230328Y-48991004D01*
X125005179Y-49564675D01*
X125005175Y-49564687D01*
X124752811Y-50315811D01*
X124752811Y-50315812D01*
X124538202Y-51078576D01*
X124538203Y-51078576D01*
X124429663Y-51554118D01*
X124361878Y-51851105D01*
X124224286Y-52631431D01*
X124224284Y-52631443D01*
X124224284Y-52631446D01*
X124125755Y-53417685D01*
X124124475Y-53434766D01*
X124066540Y-54207856D01*
X124066346Y-54215631D01*
X124046785Y-55000000D01*
X124066540Y-55792142D01*
X124125755Y-56582315D01*
X124221564Y-57346847D01*
X124224286Y-57368569D01*
X124356697Y-58119512D01*
X124361880Y-58148904D01*
X124529761Y-58884440D01*
X124538203Y-58921424D01*
X124538202Y-58921424D01*
X124739461Y-59636738D01*
X124752814Y-59684198D01*
X125005179Y-60435325D01*
X125117928Y-60722604D01*
X125294673Y-61172945D01*
X125294673Y-61172946D01*
X125589410Y-61826146D01*
X125620571Y-61895205D01*
X125734790Y-62117997D01*
X125982062Y-62600321D01*
X125982067Y-62600329D01*
X126378261Y-63286558D01*
X126378262Y-63286559D01*
X126378261Y-63286559D01*
X126435411Y-63375044D01*
X126808168Y-63952185D01*
X126808173Y-63952193D01*
X126808177Y-63952198D01*
X127270721Y-64595557D01*
X127270722Y-64595557D01*
X127518203Y-64905889D01*
X127764774Y-65215079D01*
X128289082Y-65809192D01*
X128308810Y-65829418D01*
X128341529Y-65891153D01*
X128335677Y-65960777D01*
X128293112Y-66016185D01*
X128227349Y-66039785D01*
X128220044Y-66040000D01*
X111657180Y-66040000D01*
X111590141Y-66020315D01*
X111544386Y-65967511D01*
X111534442Y-65898353D01*
X111563467Y-65834797D01*
X111568414Y-65829418D01*
X111588142Y-65809192D01*
X112112450Y-65215079D01*
X112359021Y-64905889D01*
X112606502Y-64595557D01*
X112606503Y-64595557D01*
X113069047Y-63952198D01*
X113069050Y-63952193D01*
X113069056Y-63952185D01*
X113441813Y-63375044D01*
X113498963Y-63286559D01*
X113498962Y-63286559D01*
X113498963Y-63286558D01*
X113895157Y-62600329D01*
X113895162Y-62600321D01*
X114142434Y-62117997D01*
X114256653Y-61895205D01*
X114287814Y-61826146D01*
X114582551Y-61172946D01*
X114582551Y-61172945D01*
X114759296Y-60722604D01*
X114872045Y-60435325D01*
X115124410Y-59684198D01*
X115137763Y-59636738D01*
X115339022Y-58921424D01*
X115339021Y-58921424D01*
X115347463Y-58884440D01*
X115515344Y-58148904D01*
X115520527Y-58119512D01*
X115652938Y-57368569D01*
X115655660Y-57346847D01*
X115751469Y-56582315D01*
X115810684Y-55792142D01*
X115830439Y-55000000D01*
X115810878Y-54215631D01*
X115810684Y-54207856D01*
X115752749Y-53434766D01*
X115751469Y-53417685D01*
X115652940Y-52631446D01*
X115652939Y-52631443D01*
X115652938Y-52631431D01*
X115515346Y-51851105D01*
X115447561Y-51554118D01*
X115339021Y-51078576D01*
X115339022Y-51078576D01*
X115124413Y-50315812D01*
X115124413Y-50315811D01*
X114872049Y-49564687D01*
X114872045Y-49564675D01*
X114646896Y-48991004D01*
X114582551Y-48827055D01*
X114582551Y-48827054D01*
X114256659Y-48104808D01*
X114256657Y-48104805D01*
X114256653Y-48104795D01*
X114002513Y-47609076D01*
X113895161Y-47399678D01*
X113895161Y-47399679D01*
X113895157Y-47399671D01*
X113498963Y-46713442D01*
X113498962Y-46713441D01*
X113498963Y-46713441D01*
X113276754Y-46369395D01*
X113069056Y-46047815D01*
X113031297Y-45995295D01*
X112606503Y-45404443D01*
X112606502Y-45404443D01*
X112548350Y-45331523D01*
X112112458Y-44784931D01*
X112112457Y-44784930D01*
X112112450Y-44784921D01*
X111588142Y-44190808D01*
X111588141Y-44190808D01*
X111294657Y-43889913D01*
X111034871Y-43623568D01*
X110877547Y-43477593D01*
X110454005Y-43084603D01*
X109846998Y-42575264D01*
X109485632Y-42301541D01*
X109215365Y-42096822D01*
X108560663Y-41650453D01*
X108106830Y-41373121D01*
X107884528Y-41237275D01*
X107188647Y-40858318D01*
X107188637Y-40858313D01*
X107188633Y-40858311D01*
X106771262Y-40657316D01*
X106474708Y-40514503D01*
X105744557Y-40206718D01*
X105744557Y-40206719D01*
X105744548Y-40206715D01*
X104999947Y-39935703D01*
X104578282Y-39805636D01*
X104242767Y-39702143D01*
X104242768Y-39702144D01*
X104242762Y-39702142D01*
X103474876Y-39506614D01*
X103218325Y-39454751D01*
X102698198Y-39349605D01*
X102698197Y-39349605D01*
X102244276Y-39281187D01*
X101914661Y-39231506D01*
X101909596Y-39230999D01*
X101126211Y-39152610D01*
X100334808Y-39113112D01*
X100334806Y-39113112D01*
X99542418Y-39113112D01*
X99542416Y-39113112D01*
X98751013Y-39152610D01*
X97967627Y-39230999D01*
X97962563Y-39231506D01*
X97632947Y-39281187D01*
X97179027Y-39349605D01*
X97179026Y-39349605D01*
X96658898Y-39454751D01*
X96402348Y-39506614D01*
X95634462Y-39702142D01*
X95634456Y-39702144D01*
X95634457Y-39702143D01*
X95298941Y-39805636D01*
X94877277Y-39935703D01*
X94132676Y-40206715D01*
X94132667Y-40206719D01*
X94132667Y-40206718D01*
X93402516Y-40514503D01*
X93105962Y-40657316D01*
X92688591Y-40858311D01*
X92688586Y-40858313D01*
X92688577Y-40858318D01*
X91992696Y-41237275D01*
X91770394Y-41373121D01*
X91316561Y-41650453D01*
X90661859Y-42096822D01*
X90391592Y-42301541D01*
X90030226Y-42575264D01*
X89423219Y-43084603D01*
X88999677Y-43477593D01*
X88842353Y-43623568D01*
X88582568Y-43889913D01*
X88289083Y-44190808D01*
X88289082Y-44190808D01*
X87764774Y-44784921D01*
X87764766Y-44784930D01*
X87764766Y-44784931D01*
X87328874Y-45331523D01*
X87270722Y-45404443D01*
X87270721Y-45404443D01*
X86845927Y-45995295D01*
X86808168Y-46047815D01*
X86600469Y-46369395D01*
X86378261Y-46713441D01*
X86378262Y-46713441D01*
X86378261Y-46713442D01*
X85982067Y-47399671D01*
X85982063Y-47399679D01*
X85982063Y-47399678D01*
X85874711Y-47609076D01*
X85620571Y-48104795D01*
X85620566Y-48104805D01*
X85620565Y-48104808D01*
X85294673Y-48827054D01*
X85294673Y-48827055D01*
X85230328Y-48991004D01*
X85005179Y-49564675D01*
X85005175Y-49564687D01*
X84752811Y-50315811D01*
X84752811Y-50315812D01*
X84538202Y-51078576D01*
X84538203Y-51078576D01*
X84429663Y-51554118D01*
X84361878Y-51851105D01*
X84224286Y-52631431D01*
X84224284Y-52631443D01*
X84224284Y-52631446D01*
X84125755Y-53417685D01*
X84124475Y-53434766D01*
X84066540Y-54207856D01*
X84066346Y-54215631D01*
X84046785Y-55000000D01*
X84066540Y-55792142D01*
X84125755Y-56582315D01*
X84221564Y-57346847D01*
X84224286Y-57368569D01*
X84356697Y-58119512D01*
X84361880Y-58148904D01*
X84529761Y-58884440D01*
X84538203Y-58921424D01*
X84538202Y-58921424D01*
X84739461Y-59636738D01*
X84752814Y-59684198D01*
X85005179Y-60435325D01*
X85117928Y-60722604D01*
X85294673Y-61172945D01*
X85294673Y-61172946D01*
X85589410Y-61826146D01*
X85620571Y-61895205D01*
X85734790Y-62117997D01*
X85982062Y-62600321D01*
X85982067Y-62600329D01*
X86378261Y-63286558D01*
X86378262Y-63286559D01*
X86378261Y-63286559D01*
X86435411Y-63375044D01*
X86808168Y-63952185D01*
X86808173Y-63952193D01*
X86808177Y-63952198D01*
X87270721Y-64595557D01*
X87270722Y-64595557D01*
X87518203Y-64905889D01*
X87764774Y-65215079D01*
X88289082Y-65809192D01*
X88308810Y-65829418D01*
X88341529Y-65891153D01*
X88335677Y-65960777D01*
X88293112Y-66016185D01*
X88227349Y-66039785D01*
X88220044Y-66040000D01*
X71718568Y-66040000D01*
X71651529Y-66020315D01*
X71605774Y-65967511D01*
X71595830Y-65898353D01*
X71624855Y-65834797D01*
X71629802Y-65829418D01*
X71649530Y-65809192D01*
X72173838Y-65215079D01*
X72420409Y-64905889D01*
X72667890Y-64595557D01*
X72667891Y-64595557D01*
X73130435Y-63952198D01*
X73130438Y-63952193D01*
X73130444Y-63952185D01*
X73503201Y-63375044D01*
X73560351Y-63286559D01*
X73560350Y-63286559D01*
X73560351Y-63286558D01*
X73956545Y-62600329D01*
X73956550Y-62600321D01*
X74203822Y-62117997D01*
X74318041Y-61895205D01*
X74349202Y-61826146D01*
X74643939Y-61172946D01*
X74643939Y-61172945D01*
X74820684Y-60722604D01*
X74933433Y-60435325D01*
X75185798Y-59684198D01*
X75199151Y-59636738D01*
X75400410Y-58921424D01*
X75400409Y-58921424D01*
X75408851Y-58884440D01*
X75576732Y-58148904D01*
X75581915Y-58119512D01*
X75714326Y-57368569D01*
X75717048Y-57346847D01*
X75812857Y-56582315D01*
X75872072Y-55792142D01*
X75891827Y-55000000D01*
X75872266Y-54215631D01*
X75872072Y-54207856D01*
X75814137Y-53434766D01*
X75812857Y-53417685D01*
X75714328Y-52631446D01*
X75714327Y-52631443D01*
X75714326Y-52631431D01*
X75576734Y-51851105D01*
X75508949Y-51554118D01*
X75400409Y-51078576D01*
X75400410Y-51078576D01*
X75185801Y-50315812D01*
X75185801Y-50315811D01*
X74933437Y-49564687D01*
X74933433Y-49564675D01*
X74708284Y-48991004D01*
X74643939Y-48827055D01*
X74643939Y-48827054D01*
X74318047Y-48104808D01*
X74318045Y-48104805D01*
X74318041Y-48104795D01*
X74063901Y-47609076D01*
X73956549Y-47399678D01*
X73956549Y-47399679D01*
X73956545Y-47399671D01*
X73560351Y-46713442D01*
X73560350Y-46713441D01*
X73560351Y-46713441D01*
X73338142Y-46369395D01*
X73130444Y-46047815D01*
X73092685Y-45995295D01*
X72667891Y-45404443D01*
X72667890Y-45404443D01*
X72609738Y-45331523D01*
X72173846Y-44784931D01*
X72173845Y-44784930D01*
X72173838Y-44784921D01*
X71649530Y-44190808D01*
X71649529Y-44190808D01*
X71356045Y-43889913D01*
X71096259Y-43623568D01*
X70938935Y-43477593D01*
X70515393Y-43084603D01*
X69908386Y-42575264D01*
X69547020Y-42301541D01*
X69276753Y-42096822D01*
X68622051Y-41650453D01*
X68168218Y-41373121D01*
X67945916Y-41237275D01*
X67250035Y-40858318D01*
X67250025Y-40858313D01*
X67250021Y-40858311D01*
X66832650Y-40657316D01*
X66536096Y-40514503D01*
X65805945Y-40206718D01*
X65805945Y-40206719D01*
X65805936Y-40206715D01*
X65061335Y-39935703D01*
X64639670Y-39805636D01*
X64304155Y-39702143D01*
X64304156Y-39702144D01*
X64304150Y-39702142D01*
X63536264Y-39506614D01*
X63279713Y-39454751D01*
X62759586Y-39349605D01*
X62759585Y-39349605D01*
X62305664Y-39281187D01*
X61976049Y-39231506D01*
X61970984Y-39230999D01*
X61187599Y-39152610D01*
X60396196Y-39113112D01*
X60396194Y-39113112D01*
X59603806Y-39113112D01*
X59603804Y-39113112D01*
X58812401Y-39152610D01*
X58029015Y-39230999D01*
X58023951Y-39231506D01*
X57694335Y-39281187D01*
X57240415Y-39349605D01*
X57240414Y-39349605D01*
X56720286Y-39454751D01*
X56463736Y-39506614D01*
X55695850Y-39702142D01*
X55695844Y-39702144D01*
X55695845Y-39702143D01*
X55360329Y-39805636D01*
X54938665Y-39935703D01*
X54194064Y-40206715D01*
X54194055Y-40206719D01*
X54194055Y-40206718D01*
X53463904Y-40514503D01*
X53167350Y-40657316D01*
X52749979Y-40858311D01*
X52749974Y-40858313D01*
X52749965Y-40858318D01*
X52054084Y-41237275D01*
X51831782Y-41373121D01*
X51377949Y-41650453D01*
X50723247Y-42096822D01*
X50452980Y-42301541D01*
X50091614Y-42575264D01*
X49484607Y-43084603D01*
X49061065Y-43477593D01*
X48903741Y-43623568D01*
X48643956Y-43889913D01*
X48350471Y-44190808D01*
X48350470Y-44190808D01*
X47826162Y-44784921D01*
X47826154Y-44784930D01*
X47826154Y-44784931D01*
X47390262Y-45331523D01*
X47332110Y-45404443D01*
X47332109Y-45404443D01*
X46907315Y-45995295D01*
X46869556Y-46047815D01*
X46661857Y-46369395D01*
X46439649Y-46713441D01*
X46439650Y-46713441D01*
X46439649Y-46713442D01*
X46043455Y-47399671D01*
X46043451Y-47399679D01*
X46043451Y-47399678D01*
X45936099Y-47609076D01*
X45681959Y-48104795D01*
X45681954Y-48104805D01*
X45681953Y-48104808D01*
X45356061Y-48827054D01*
X45356061Y-48827055D01*
X45291716Y-48991004D01*
X45066567Y-49564675D01*
X45066563Y-49564687D01*
X44814199Y-50315811D01*
X44814199Y-50315812D01*
X44599590Y-51078576D01*
X44599591Y-51078576D01*
X44491051Y-51554118D01*
X44423266Y-51851105D01*
X44285674Y-52631431D01*
X44285672Y-52631443D01*
X44285672Y-52631446D01*
X44187143Y-53417685D01*
X44185863Y-53434766D01*
X44127928Y-54207856D01*
X44127734Y-54215631D01*
X44108173Y-55000000D01*
X20000000Y-55000000D01*
X20000000Y-40000000D01*
X33094671Y-40000000D01*
X33113979Y-40516031D01*
X33171797Y-41029176D01*
X33171796Y-41029176D01*
X33171798Y-41029186D01*
X33236581Y-41371575D01*
X33267802Y-41536579D01*
X33267802Y-41536580D01*
X33401455Y-42035381D01*
X33572011Y-42522800D01*
X33778514Y-42996110D01*
X33779533Y-42998038D01*
X34019807Y-43452660D01*
X34038354Y-43482177D01*
X34294549Y-43889910D01*
X34601196Y-44305402D01*
X34938036Y-44696817D01*
X35303183Y-45061964D01*
X35694598Y-45398804D01*
X36110088Y-45705449D01*
X36110093Y-45705453D01*
X36547339Y-45980193D01*
X36547338Y-45980192D01*
X36675263Y-46047802D01*
X37003890Y-46221486D01*
X37477200Y-46427989D01*
X37477205Y-46427990D01*
X37477208Y-46427992D01*
X37570382Y-46460595D01*
X37964619Y-46598545D01*
X38463420Y-46732198D01*
X38786552Y-46793337D01*
X38970824Y-46828204D01*
X38970824Y-46828203D01*
X39086254Y-46841209D01*
X39483969Y-46886021D01*
X40000000Y-46905329D01*
X40516031Y-46886021D01*
X40913745Y-46841209D01*
X41029176Y-46828203D01*
X41029176Y-46828204D01*
X41213447Y-46793337D01*
X41536580Y-46732198D01*
X42035381Y-46598545D01*
X42429617Y-46460595D01*
X42522792Y-46427992D01*
X42522794Y-46427990D01*
X42522800Y-46427989D01*
X42996110Y-46221486D01*
X43207521Y-46109751D01*
X43452661Y-45980192D01*
X43452660Y-45980193D01*
X43625661Y-45871488D01*
X43889910Y-45705451D01*
X44305402Y-45398804D01*
X44696817Y-45061964D01*
X45061964Y-44696817D01*
X45398804Y-44305402D01*
X45705451Y-43889910D01*
X45801974Y-43736295D01*
X45980193Y-43452661D01*
X46220467Y-42998038D01*
X46221486Y-42996110D01*
X46427989Y-42522800D01*
X46598545Y-42035381D01*
X46732198Y-41536580D01*
X46732198Y-41536579D01*
X46763419Y-41371575D01*
X46828202Y-41029186D01*
X46828204Y-41029176D01*
X46828203Y-41029176D01*
X46886021Y-40516031D01*
X46905329Y-40000000D01*
X46886021Y-39483969D01*
X46828203Y-38970824D01*
X46828204Y-38970824D01*
X46732198Y-38463421D01*
X46732198Y-38463420D01*
X46598545Y-37964619D01*
X46427989Y-37477200D01*
X46221486Y-37003890D01*
X46109751Y-36792478D01*
X45980192Y-36547339D01*
X45980193Y-36547340D01*
X45871488Y-36374338D01*
X45705451Y-36110090D01*
X45398804Y-35694598D01*
X45061964Y-35303183D01*
X44696817Y-34938036D01*
X44305402Y-34601196D01*
X43889910Y-34294549D01*
X43889907Y-34294547D01*
X43452661Y-34019807D01*
X43452662Y-34019808D01*
X43207522Y-33890248D01*
X42996110Y-33778514D01*
X42522800Y-33572011D01*
X42522794Y-33572009D01*
X42522792Y-33572008D01*
X42429617Y-33539405D01*
X42035381Y-33401455D01*
X41536580Y-33267802D01*
X41213447Y-33206662D01*
X41029176Y-33171796D01*
X40913745Y-33158791D01*
X40516031Y-33113979D01*
X40000000Y-33094671D01*
X39483969Y-33113979D01*
X39086254Y-33158791D01*
X38970824Y-33171796D01*
X38786552Y-33206662D01*
X38463420Y-33267802D01*
X37964619Y-33401455D01*
X37570382Y-33539405D01*
X37477208Y-33572008D01*
X37477205Y-33572009D01*
X37477200Y-33572011D01*
X37003890Y-33778514D01*
X36792477Y-33890248D01*
X36547338Y-34019808D01*
X36547339Y-34019807D01*
X36110093Y-34294547D01*
X36110090Y-34294549D01*
X35694598Y-34601196D01*
X35303183Y-34938036D01*
X34938036Y-35303183D01*
X34601196Y-35694598D01*
X34294549Y-36110090D01*
X34128511Y-36374338D01*
X34019807Y-36547340D01*
X34019808Y-36547339D01*
X33890248Y-36792478D01*
X33778514Y-37003890D01*
X33572011Y-37477200D01*
X33401455Y-37964619D01*
X33267802Y-38463420D01*
X33267802Y-38463421D01*
X33171796Y-38970824D01*
X33171797Y-38970824D01*
X33113979Y-39483969D01*
X33094671Y-40000000D01*
X20000000Y-40000000D01*
X20000000Y-30000003D01*
X25194661Y-30000003D01*
X25214005Y-30430737D01*
X25214006Y-30430746D01*
X25271885Y-30858027D01*
X25367830Y-31278391D01*
X25501073Y-31688472D01*
X25501076Y-31688480D01*
X25670533Y-32084947D01*
X25670537Y-32084955D01*
X25670539Y-32084958D01*
X25874863Y-32464655D01*
X25874867Y-32464661D01*
X25874867Y-32464662D01*
X26112394Y-32824501D01*
X26112404Y-32824514D01*
X26381225Y-33161607D01*
X26381237Y-33161620D01*
X26517851Y-33304507D01*
X26679210Y-33473274D01*
X27003920Y-33756965D01*
X27352753Y-34010407D01*
X27722900Y-34231560D01*
X27722903Y-34231561D01*
X27722904Y-34231562D01*
X27722906Y-34231563D01*
X28111372Y-34418639D01*
X28111386Y-34418645D01*
X28515055Y-34570144D01*
X28515059Y-34570145D01*
X28515069Y-34570149D01*
X28930711Y-34684859D01*
X29354964Y-34761850D01*
X29784409Y-34800500D01*
X29784416Y-34800500D01*
X30215584Y-34800500D01*
X30215591Y-34800500D01*
X30645036Y-34761850D01*
X31069289Y-34684859D01*
X31484931Y-34570149D01*
X31888619Y-34418643D01*
X32277100Y-34231560D01*
X32647247Y-34010407D01*
X32996080Y-33756965D01*
X33320790Y-33473274D01*
X33618764Y-33161619D01*
X33887601Y-32824507D01*
X34125137Y-32464655D01*
X34329461Y-32084958D01*
X34498926Y-31688475D01*
X34632168Y-31278397D01*
X34728115Y-30858026D01*
X34779322Y-30480003D01*
X96794661Y-30480003D01*
X96814005Y-30910737D01*
X96814006Y-30910746D01*
X96871885Y-31338027D01*
X96967830Y-31758391D01*
X97101073Y-32168472D01*
X97101076Y-32168480D01*
X97270533Y-32564947D01*
X97270537Y-32564955D01*
X97270539Y-32564958D01*
X97474863Y-32944655D01*
X97474867Y-32944661D01*
X97474867Y-32944662D01*
X97712394Y-33304501D01*
X97712404Y-33304514D01*
X97981225Y-33641607D01*
X97981237Y-33641620D01*
X98091518Y-33756965D01*
X98279210Y-33953274D01*
X98603920Y-34236965D01*
X98603930Y-34236972D01*
X98603931Y-34236973D01*
X98683177Y-34294549D01*
X98952753Y-34490407D01*
X99322900Y-34711560D01*
X99322903Y-34711561D01*
X99322904Y-34711562D01*
X99322906Y-34711563D01*
X99711372Y-34898639D01*
X99711386Y-34898645D01*
X100115055Y-35050144D01*
X100115059Y-35050145D01*
X100115069Y-35050149D01*
X100530711Y-35164859D01*
X100954964Y-35241850D01*
X101384409Y-35280500D01*
X101384416Y-35280500D01*
X101815584Y-35280500D01*
X101815591Y-35280500D01*
X102245036Y-35241850D01*
X102669289Y-35164859D01*
X103084931Y-35050149D01*
X103488619Y-34898643D01*
X103877100Y-34711560D01*
X104247247Y-34490407D01*
X104596080Y-34236965D01*
X104920790Y-33953274D01*
X105218764Y-33641619D01*
X105274275Y-33572011D01*
X105487595Y-33304514D01*
X105487601Y-33304507D01*
X105725137Y-32944655D01*
X105929461Y-32564958D01*
X106098926Y-32168475D01*
X106232168Y-31758397D01*
X106328115Y-31338026D01*
X106385994Y-30910747D01*
X106405339Y-30480000D01*
X106385994Y-30049253D01*
X106379323Y-30000003D01*
X165194661Y-30000003D01*
X165214005Y-30430737D01*
X165214006Y-30430746D01*
X165271885Y-30858027D01*
X165367830Y-31278391D01*
X165501073Y-31688472D01*
X165501076Y-31688480D01*
X165670533Y-32084947D01*
X165670537Y-32084955D01*
X165670539Y-32084958D01*
X165874863Y-32464655D01*
X165874867Y-32464661D01*
X165874867Y-32464662D01*
X166112394Y-32824501D01*
X166112404Y-32824514D01*
X166381225Y-33161607D01*
X166381237Y-33161620D01*
X166517851Y-33304507D01*
X166679210Y-33473274D01*
X167003920Y-33756965D01*
X167352753Y-34010407D01*
X167722900Y-34231560D01*
X167722903Y-34231561D01*
X167722904Y-34231562D01*
X167722906Y-34231563D01*
X168111372Y-34418639D01*
X168111386Y-34418645D01*
X168515055Y-34570144D01*
X168515059Y-34570145D01*
X168515069Y-34570149D01*
X168930711Y-34684859D01*
X169354964Y-34761850D01*
X169784409Y-34800500D01*
X169784416Y-34800500D01*
X170215584Y-34800500D01*
X170215591Y-34800500D01*
X170645036Y-34761850D01*
X171069289Y-34684859D01*
X171484931Y-34570149D01*
X171888619Y-34418643D01*
X172277100Y-34231560D01*
X172647247Y-34010407D01*
X172996080Y-33756965D01*
X173320790Y-33473274D01*
X173618764Y-33161619D01*
X173887601Y-32824507D01*
X174125137Y-32464655D01*
X174329461Y-32084958D01*
X174498926Y-31688475D01*
X174632168Y-31278397D01*
X174728115Y-30858026D01*
X174785994Y-30430747D01*
X174805339Y-30000000D01*
X174785994Y-29569253D01*
X174728115Y-29141974D01*
X174632168Y-28721603D01*
X174498926Y-28311525D01*
X174372330Y-28015338D01*
X174329466Y-27915052D01*
X174329462Y-27915044D01*
X174329461Y-27915042D01*
X174125137Y-27535345D01*
X173981928Y-27318392D01*
X173887605Y-27175498D01*
X173887595Y-27175485D01*
X173618774Y-26838392D01*
X173618762Y-26838379D01*
X173320794Y-26526730D01*
X173320793Y-26526729D01*
X173320790Y-26526726D01*
X172996080Y-26243035D01*
X172746018Y-26061354D01*
X172647256Y-25989599D01*
X172647251Y-25989596D01*
X172647247Y-25989593D01*
X172277100Y-25768440D01*
X172277095Y-25768437D01*
X172277093Y-25768436D01*
X171888627Y-25581360D01*
X171888613Y-25581354D01*
X171484944Y-25429855D01*
X171484919Y-25429847D01*
X171069295Y-25315142D01*
X170645043Y-25238151D01*
X170645040Y-25238150D01*
X170645036Y-25238150D01*
X170215591Y-25199500D01*
X169784409Y-25199500D01*
X169354964Y-25238150D01*
X169354960Y-25238150D01*
X169354956Y-25238151D01*
X168930704Y-25315142D01*
X168515080Y-25429847D01*
X168515055Y-25429855D01*
X168111386Y-25581354D01*
X168111372Y-25581360D01*
X167722906Y-25768436D01*
X167722904Y-25768437D01*
X167352743Y-25989599D01*
X167003931Y-26243026D01*
X167003914Y-26243039D01*
X166679210Y-26526726D01*
X166679205Y-26526730D01*
X166381237Y-26838379D01*
X166381225Y-26838392D01*
X166112404Y-27175485D01*
X166112394Y-27175498D01*
X165874867Y-27535337D01*
X165874867Y-27535338D01*
X165670537Y-27915044D01*
X165670533Y-27915052D01*
X165501076Y-28311519D01*
X165501073Y-28311527D01*
X165367830Y-28721608D01*
X165271885Y-29141972D01*
X165214006Y-29569253D01*
X165214005Y-29569262D01*
X165194661Y-29999996D01*
X165194661Y-30000003D01*
X106379323Y-30000003D01*
X106328115Y-29621974D01*
X106232168Y-29201603D01*
X106098926Y-28791525D01*
X106035376Y-28642843D01*
X105929466Y-28395052D01*
X105929462Y-28395044D01*
X105929461Y-28395042D01*
X105725137Y-28015345D01*
X105725132Y-28015337D01*
X105487605Y-27655498D01*
X105487595Y-27655485D01*
X105218774Y-27318392D01*
X105218762Y-27318379D01*
X104920794Y-27006730D01*
X104920793Y-27006729D01*
X104920790Y-27006726D01*
X104596080Y-26723035D01*
X104596068Y-26723026D01*
X104247256Y-26469599D01*
X104247251Y-26469596D01*
X104247247Y-26469593D01*
X103877100Y-26248440D01*
X103877095Y-26248437D01*
X103877093Y-26248436D01*
X103488627Y-26061360D01*
X103488613Y-26061354D01*
X103084944Y-25909855D01*
X103084919Y-25909847D01*
X102669295Y-25795142D01*
X102245043Y-25718151D01*
X102245040Y-25718150D01*
X102245036Y-25718150D01*
X101815591Y-25679500D01*
X101384409Y-25679500D01*
X100954964Y-25718150D01*
X100954960Y-25718150D01*
X100954956Y-25718151D01*
X100530704Y-25795142D01*
X100115080Y-25909847D01*
X100115055Y-25909855D01*
X99711386Y-26061354D01*
X99711372Y-26061360D01*
X99322906Y-26248436D01*
X99322904Y-26248437D01*
X98952743Y-26469599D01*
X98603931Y-26723026D01*
X98603914Y-26723039D01*
X98279210Y-27006726D01*
X98279205Y-27006730D01*
X97981237Y-27318379D01*
X97981225Y-27318392D01*
X97712404Y-27655485D01*
X97712394Y-27655498D01*
X97474867Y-28015337D01*
X97474867Y-28015338D01*
X97270537Y-28395044D01*
X97270533Y-28395052D01*
X97101076Y-28791519D01*
X97101073Y-28791527D01*
X96967830Y-29201608D01*
X96871885Y-29621972D01*
X96814006Y-30049253D01*
X96814005Y-30049262D01*
X96794661Y-30479996D01*
X96794661Y-30480003D01*
X34779322Y-30480003D01*
X34785994Y-30430747D01*
X34805339Y-30000000D01*
X34785994Y-29569253D01*
X34728115Y-29141974D01*
X34632168Y-28721603D01*
X34498926Y-28311525D01*
X34372330Y-28015338D01*
X34329466Y-27915052D01*
X34329462Y-27915044D01*
X34329461Y-27915042D01*
X34125137Y-27535345D01*
X33981928Y-27318392D01*
X33887605Y-27175498D01*
X33887595Y-27175485D01*
X33618774Y-26838392D01*
X33618762Y-26838379D01*
X33320794Y-26526730D01*
X33320793Y-26526729D01*
X33320790Y-26526726D01*
X32996080Y-26243035D01*
X32746018Y-26061354D01*
X32647256Y-25989599D01*
X32647251Y-25989596D01*
X32647247Y-25989593D01*
X32277100Y-25768440D01*
X32277095Y-25768437D01*
X32277093Y-25768436D01*
X31888627Y-25581360D01*
X31888613Y-25581354D01*
X31484944Y-25429855D01*
X31484919Y-25429847D01*
X31069295Y-25315142D01*
X30645043Y-25238151D01*
X30645040Y-25238150D01*
X30645036Y-25238150D01*
X30215591Y-25199500D01*
X29784409Y-25199500D01*
X29354964Y-25238150D01*
X29354960Y-25238150D01*
X29354956Y-25238151D01*
X28930704Y-25315142D01*
X28515080Y-25429847D01*
X28515055Y-25429855D01*
X28111386Y-25581354D01*
X28111372Y-25581360D01*
X27722906Y-25768436D01*
X27722904Y-25768437D01*
X27352743Y-25989599D01*
X27003931Y-26243026D01*
X27003914Y-26243039D01*
X26679210Y-26526726D01*
X26679205Y-26526730D01*
X26381237Y-26838379D01*
X26381225Y-26838392D01*
X26112404Y-27175485D01*
X26112394Y-27175498D01*
X25874867Y-27535337D01*
X25874867Y-27535338D01*
X25670537Y-27915044D01*
X25670533Y-27915052D01*
X25501076Y-28311519D01*
X25501073Y-28311527D01*
X25367830Y-28721608D01*
X25271885Y-29141972D01*
X25214006Y-29569253D01*
X25214005Y-29569262D01*
X25194661Y-29999996D01*
X25194661Y-30000003D01*
X20000000Y-30000003D01*
X20000000Y-20124000D01*
X20019685Y-20056961D01*
X20072489Y-20011206D01*
X20124000Y-20000000D01*
X179876000Y-20000000D01*
X179943039Y-20019685D01*
G37*
G04 #@! TD.AperFunction*
M02*
