G04 #@! TF.GenerationSoftware,KiCad,Pcbnew,7.0.9-1.fc39*
G04 #@! TF.CreationDate,2023-12-29T09:38:10-05:00*
G04 #@! TF.ProjectId,SYSMATT-WS2812-MATRIX-CARRIER,5359534d-4154-4542-9d57-53323831322d,rev?*
G04 #@! TF.SameCoordinates,Original*
G04 #@! TF.FileFunction,Legend,Bot*
G04 #@! TF.FilePolarity,Positive*
%FSLAX46Y46*%
G04 Gerber Fmt 4.6, Leading zero omitted, Abs format (unit mm)*
G04 Created by KiCad (PCBNEW 7.0.9-1.fc39) date 2023-12-29 09:38:10*
%MOMM*%
%LPD*%
G01*
G04 APERTURE LIST*
G04 Aperture macros list*
%AMRoundRect*
0 Rectangle with rounded corners*
0 $1 Rounding radius*
0 $2 $3 $4 $5 $6 $7 $8 $9 X,Y pos of 4 corners*
0 Add a 4 corners polygon primitive as box body*
4,1,4,$2,$3,$4,$5,$6,$7,$8,$9,$2,$3,0*
0 Add four circle primitives for the rounded corners*
1,1,$1+$1,$2,$3*
1,1,$1+$1,$4,$5*
1,1,$1+$1,$6,$7*
1,1,$1+$1,$8,$9*
0 Add four rect primitives between the rounded corners*
20,1,$1+$1,$2,$3,$4,$5,0*
20,1,$1+$1,$4,$5,$6,$7,0*
20,1,$1+$1,$6,$7,$8,$9,0*
20,1,$1+$1,$8,$9,$2,$3,0*%
G04 Aperture macros list end*
%ADD10C,1.000000*%
%ADD11C,8.600000*%
%ADD12C,12.800000*%
%ADD13R,3.500000X3.500000*%
%ADD14RoundRect,0.750000X1.000000X-0.750000X1.000000X0.750000X-1.000000X0.750000X-1.000000X-0.750000X0*%
%ADD15RoundRect,0.875000X0.875000X-0.875000X0.875000X0.875000X-0.875000X0.875000X-0.875000X-0.875000X0*%
%ADD16R,1.700000X1.700000*%
%ADD17O,1.700000X1.700000*%
%ADD18O,1.500000X2.000000*%
%ADD19C,2.000000*%
%ADD20C,10.600000*%
G04 APERTURE END LIST*
D10*
G36*
X67428702Y-140198328D02*
G01*
X67487398Y-140199595D01*
X67545738Y-140201706D01*
X67603723Y-140204661D01*
X67661353Y-140208460D01*
X67718627Y-140213104D01*
X67775546Y-140218593D01*
X67832109Y-140224925D01*
X67888317Y-140232102D01*
X67944170Y-140240124D01*
X67999667Y-140248989D01*
X68054809Y-140258700D01*
X68109595Y-140269254D01*
X68164027Y-140280653D01*
X68218102Y-140292896D01*
X68271823Y-140305983D01*
X68325188Y-140319915D01*
X68378197Y-140334692D01*
X68430851Y-140350312D01*
X68483150Y-140366777D01*
X68535093Y-140384086D01*
X68586681Y-140402240D01*
X68637914Y-140421238D01*
X68688791Y-140441080D01*
X68739313Y-140461767D01*
X68789479Y-140483298D01*
X68839290Y-140505673D01*
X68888746Y-140528893D01*
X68937846Y-140552957D01*
X68986591Y-140577866D01*
X69034980Y-140603619D01*
X69083014Y-140630216D01*
X69130547Y-140657580D01*
X69177434Y-140685633D01*
X69223674Y-140714376D01*
X69269268Y-140743808D01*
X69314216Y-140773929D01*
X69358517Y-140804740D01*
X69402172Y-140836240D01*
X69445181Y-140868429D01*
X69487543Y-140901308D01*
X69529258Y-140934875D01*
X69570328Y-140969133D01*
X69610750Y-141004079D01*
X69650527Y-141039715D01*
X69689657Y-141076040D01*
X69728141Y-141113055D01*
X69765978Y-141150758D01*
X69803169Y-141189152D01*
X69839714Y-141228234D01*
X69875612Y-141268006D01*
X69910864Y-141308467D01*
X69945469Y-141349617D01*
X69979428Y-141391457D01*
X70012741Y-141433986D01*
X70045407Y-141477204D01*
X70077427Y-141521112D01*
X70108801Y-141565709D01*
X70139528Y-141610995D01*
X70169609Y-141656971D01*
X70199043Y-141703636D01*
X70227831Y-141750990D01*
X70255973Y-141799034D01*
X70283468Y-141847766D01*
X70310215Y-141896950D01*
X70336114Y-141946499D01*
X70361163Y-141996412D01*
X70385363Y-142046691D01*
X70408714Y-142097334D01*
X70431216Y-142148343D01*
X70452868Y-142199716D01*
X70473672Y-142251454D01*
X70493626Y-142303557D01*
X70512732Y-142356025D01*
X70530988Y-142408858D01*
X70548395Y-142462056D01*
X70564953Y-142515619D01*
X70580662Y-142569547D01*
X70595521Y-142623840D01*
X70609532Y-142678497D01*
X70622693Y-142733520D01*
X70635006Y-142788908D01*
X70646469Y-142844660D01*
X70657083Y-142900777D01*
X70666848Y-142957260D01*
X70675764Y-143014107D01*
X70683830Y-143071319D01*
X70691048Y-143128896D01*
X70697416Y-143186839D01*
X70702936Y-143245146D01*
X70707606Y-143303818D01*
X70711427Y-143362854D01*
X70714399Y-143422256D01*
X70716522Y-143482023D01*
X70717795Y-143542155D01*
X70718220Y-143602651D01*
X70717884Y-143652393D01*
X70716875Y-143701784D01*
X70712839Y-143799515D01*
X70706113Y-143895843D01*
X70696696Y-143990768D01*
X70684589Y-144084291D01*
X70669791Y-144176412D01*
X70652303Y-144267130D01*
X70632124Y-144356446D01*
X70609255Y-144444359D01*
X70583696Y-144530870D01*
X70555446Y-144615978D01*
X70524505Y-144699683D01*
X70490874Y-144781986D01*
X70454552Y-144862887D01*
X70415540Y-144942385D01*
X70373838Y-145020481D01*
X70329578Y-145096735D01*
X70283201Y-145170709D01*
X70234705Y-145242403D01*
X70184091Y-145311817D01*
X70131360Y-145378950D01*
X70076510Y-145443803D01*
X70019542Y-145506376D01*
X69960457Y-145566669D01*
X69899253Y-145624682D01*
X69835931Y-145680414D01*
X69770491Y-145733866D01*
X69702933Y-145785037D01*
X69633257Y-145833929D01*
X69561463Y-145880540D01*
X69487551Y-145924871D01*
X69411521Y-145966922D01*
X69372787Y-145987058D01*
X69294180Y-146025412D01*
X69214057Y-146061208D01*
X69132417Y-146094448D01*
X69049260Y-146125131D01*
X68964586Y-146153257D01*
X68878395Y-146178827D01*
X68790687Y-146201839D01*
X68701462Y-146222294D01*
X68610720Y-146240193D01*
X68518461Y-146255534D01*
X68424685Y-146268319D01*
X68329393Y-146278546D01*
X68232583Y-146286217D01*
X68183609Y-146289094D01*
X68134256Y-146291331D01*
X68084524Y-146292929D01*
X68034412Y-146293888D01*
X67983921Y-146294207D01*
X67911526Y-146293664D01*
X67839360Y-146292032D01*
X67767423Y-146289313D01*
X67695715Y-146285506D01*
X67624236Y-146280612D01*
X67552985Y-146274630D01*
X67481964Y-146267560D01*
X67411172Y-146259403D01*
X67340609Y-146250158D01*
X67270274Y-146239825D01*
X67200169Y-146228405D01*
X67130293Y-146215897D01*
X67060645Y-146202302D01*
X66991227Y-146187618D01*
X66922037Y-146171848D01*
X66853077Y-146154989D01*
X66783983Y-146136866D01*
X66714698Y-146117303D01*
X66645222Y-146096299D01*
X66575556Y-146073855D01*
X66505699Y-146049969D01*
X66435651Y-146024643D01*
X66365412Y-145997877D01*
X66294982Y-145969670D01*
X66224362Y-145940022D01*
X66153550Y-145908933D01*
X66082548Y-145876404D01*
X66011355Y-145842435D01*
X65939971Y-145807024D01*
X65868397Y-145770173D01*
X65796631Y-145731881D01*
X65724675Y-145692149D01*
X65937166Y-145278157D01*
X66000513Y-145310239D01*
X66063853Y-145341303D01*
X66127186Y-145371348D01*
X66190511Y-145400374D01*
X66253829Y-145428382D01*
X66317140Y-145455372D01*
X66380444Y-145481343D01*
X66443741Y-145506295D01*
X66507031Y-145530229D01*
X66570313Y-145553145D01*
X66633589Y-145575042D01*
X66696857Y-145595921D01*
X66760118Y-145615781D01*
X66823372Y-145634623D01*
X66886619Y-145652446D01*
X66949858Y-145669251D01*
X67013091Y-145685037D01*
X67076316Y-145699805D01*
X67139534Y-145713555D01*
X67202745Y-145726286D01*
X67265949Y-145737998D01*
X67329145Y-145748692D01*
X67392335Y-145758368D01*
X67455517Y-145767025D01*
X67518692Y-145774663D01*
X67581860Y-145781283D01*
X67645021Y-145786885D01*
X67708175Y-145791468D01*
X67771322Y-145795033D01*
X67834461Y-145797579D01*
X67897593Y-145799106D01*
X67960718Y-145799616D01*
X68043246Y-145798604D01*
X68124437Y-145795570D01*
X68204293Y-145790514D01*
X68282814Y-145783435D01*
X68359998Y-145774333D01*
X68435847Y-145763208D01*
X68510360Y-145750061D01*
X68583538Y-145734891D01*
X68655379Y-145717699D01*
X68725885Y-145698484D01*
X68795056Y-145677246D01*
X68862890Y-145653986D01*
X68929389Y-145628703D01*
X68994552Y-145601397D01*
X69058380Y-145572069D01*
X69120872Y-145540718D01*
X69181832Y-145507392D01*
X69241066Y-145472139D01*
X69298573Y-145434959D01*
X69354353Y-145395852D01*
X69408406Y-145354817D01*
X69460732Y-145311855D01*
X69511331Y-145266966D01*
X69560204Y-145220150D01*
X69607349Y-145171406D01*
X69652768Y-145120735D01*
X69696460Y-145068137D01*
X69738425Y-145013612D01*
X69778663Y-144957159D01*
X69817174Y-144898779D01*
X69853958Y-144838472D01*
X69889016Y-144776238D01*
X69921993Y-144712406D01*
X69952843Y-144647305D01*
X69981565Y-144580935D01*
X70008160Y-144513295D01*
X70032627Y-144444388D01*
X70054967Y-144374211D01*
X70075179Y-144302765D01*
X70093264Y-144230050D01*
X70109221Y-144156066D01*
X70123050Y-144080814D01*
X70134752Y-144004292D01*
X70144326Y-143926502D01*
X70151772Y-143847443D01*
X70157091Y-143767114D01*
X70160283Y-143685517D01*
X70161346Y-143602651D01*
X70160996Y-143550146D01*
X70159944Y-143497961D01*
X70158191Y-143446095D01*
X70155736Y-143394549D01*
X70152581Y-143343322D01*
X70148724Y-143292415D01*
X70144166Y-143241828D01*
X70138907Y-143191560D01*
X70132946Y-143141612D01*
X70126284Y-143091983D01*
X70118921Y-143042674D01*
X70110857Y-142993685D01*
X70102091Y-142945015D01*
X70092624Y-142896665D01*
X70082456Y-142848635D01*
X70071587Y-142800924D01*
X70047745Y-142706461D01*
X70021098Y-142613277D01*
X69991645Y-142521371D01*
X69959388Y-142430744D01*
X69924326Y-142341395D01*
X69886459Y-142253324D01*
X69845786Y-142166532D01*
X69802309Y-142081018D01*
X69756380Y-141997394D01*
X69708352Y-141916269D01*
X69658225Y-141837644D01*
X69605999Y-141761518D01*
X69551674Y-141687892D01*
X69495250Y-141616766D01*
X69436727Y-141548140D01*
X69376106Y-141482013D01*
X69313385Y-141418386D01*
X69248565Y-141357258D01*
X69181646Y-141298630D01*
X69112629Y-141242502D01*
X69041512Y-141188874D01*
X68968296Y-141137745D01*
X68892982Y-141089116D01*
X68815568Y-141042986D01*
X68736189Y-140999361D01*
X68655284Y-140958551D01*
X68572852Y-140920555D01*
X68488893Y-140885373D01*
X68403408Y-140853006D01*
X68316397Y-140823454D01*
X68227859Y-140796716D01*
X68137794Y-140772793D01*
X68046203Y-140751684D01*
X67953086Y-140733389D01*
X67858442Y-140717910D01*
X67762271Y-140705244D01*
X67713613Y-140699967D01*
X67664574Y-140695393D01*
X67615153Y-140691523D01*
X67565350Y-140688357D01*
X67515166Y-140685894D01*
X67464600Y-140684135D01*
X67413652Y-140683080D01*
X67362323Y-140682728D01*
X67280979Y-140683716D01*
X67200894Y-140686678D01*
X67122068Y-140691615D01*
X67044502Y-140698528D01*
X66968195Y-140707415D01*
X66893148Y-140718277D01*
X66819360Y-140731114D01*
X66746831Y-140745926D01*
X66675562Y-140762713D01*
X66605552Y-140781475D01*
X66536802Y-140802211D01*
X66469310Y-140824923D01*
X66403079Y-140849610D01*
X66338106Y-140876271D01*
X66274393Y-140904908D01*
X66211939Y-140935519D01*
X66151022Y-140967948D01*
X66091917Y-141002037D01*
X66034625Y-141037787D01*
X65979146Y-141075196D01*
X65925479Y-141114265D01*
X65873625Y-141154994D01*
X65823584Y-141197384D01*
X65775355Y-141241434D01*
X65728940Y-141287143D01*
X65684337Y-141334513D01*
X65641547Y-141383543D01*
X65600569Y-141434233D01*
X65561404Y-141486583D01*
X65524052Y-141540593D01*
X65488513Y-141596263D01*
X65454787Y-141653593D01*
X65422992Y-141712298D01*
X65393249Y-141772089D01*
X65365557Y-141832969D01*
X65339916Y-141894936D01*
X65316327Y-141957991D01*
X65294789Y-142022133D01*
X65275302Y-142087363D01*
X65257866Y-142153681D01*
X65242481Y-142221086D01*
X65229148Y-142289579D01*
X65217866Y-142359159D01*
X65208636Y-142429828D01*
X65201456Y-142501584D01*
X65196328Y-142574427D01*
X65193251Y-142648358D01*
X65192226Y-142723377D01*
X65192798Y-142783660D01*
X65194515Y-142843304D01*
X65197378Y-142902309D01*
X65201385Y-142960674D01*
X65206537Y-143018400D01*
X65212834Y-143075487D01*
X65220275Y-143131935D01*
X65228862Y-143187744D01*
X65238594Y-143242913D01*
X65249470Y-143297443D01*
X65261491Y-143351334D01*
X65274658Y-143404586D01*
X65288969Y-143457198D01*
X65304425Y-143509171D01*
X65321026Y-143560505D01*
X65338771Y-143611200D01*
X65347958Y-143636229D01*
X65366953Y-143685335D01*
X65386779Y-143733172D01*
X65407435Y-143779740D01*
X65428921Y-143825040D01*
X65451236Y-143869070D01*
X65486266Y-143932737D01*
X65523164Y-143993548D01*
X65561929Y-144051505D01*
X65602562Y-144106606D01*
X65645062Y-144158852D01*
X65689430Y-144208244D01*
X65735666Y-144254780D01*
X65767055Y-144283912D01*
X65814496Y-144324087D01*
X65862367Y-144360033D01*
X65910667Y-144391750D01*
X65959396Y-144419238D01*
X66008555Y-144442497D01*
X66058143Y-144461527D01*
X66108160Y-144476329D01*
X66158607Y-144486901D01*
X66209483Y-144493244D01*
X66260788Y-144495359D01*
X66312308Y-144490856D01*
X66360622Y-144477346D01*
X66405731Y-144454830D01*
X66447634Y-144423307D01*
X66482896Y-144380488D01*
X66505486Y-144332879D01*
X66518710Y-144284536D01*
X66526266Y-144229238D01*
X66528234Y-144177843D01*
X66527738Y-144147132D01*
X66525133Y-144095805D01*
X66520296Y-144038167D01*
X66513226Y-143974218D01*
X66503924Y-143903957D01*
X66496482Y-143853611D01*
X66488048Y-143800459D01*
X66478622Y-143744503D01*
X66468204Y-143685742D01*
X66456793Y-143624175D01*
X66444390Y-143559804D01*
X66430995Y-143492628D01*
X66416607Y-143422646D01*
X66401228Y-143349860D01*
X66259241Y-142733147D01*
X66892156Y-142733147D01*
X66892961Y-142773329D01*
X66896539Y-142830812D01*
X66902979Y-142892760D01*
X66909687Y-142942151D01*
X66918005Y-142994054D01*
X66927934Y-143048468D01*
X66939472Y-143105394D01*
X66952620Y-143164832D01*
X66967379Y-143226781D01*
X66983747Y-143291242D01*
X66995348Y-143334757D01*
X67013896Y-143398921D01*
X67033817Y-143461754D01*
X67055112Y-143523256D01*
X67077780Y-143583427D01*
X67101823Y-143642267D01*
X67127240Y-143699776D01*
X67154030Y-143755954D01*
X67182194Y-143810802D01*
X67211732Y-143864318D01*
X67242644Y-143916503D01*
X67263892Y-143950196D01*
X67296442Y-143998858D01*
X67329808Y-144045265D01*
X67363991Y-144089418D01*
X67398988Y-144131318D01*
X67434802Y-144170963D01*
X67471431Y-144208354D01*
X67508876Y-144243492D01*
X67547137Y-144276375D01*
X67586213Y-144307004D01*
X67626106Y-144335380D01*
X67679744Y-144369440D01*
X67733801Y-144398959D01*
X67788279Y-144423937D01*
X67843176Y-144444373D01*
X67898494Y-144460268D01*
X67954231Y-144471622D01*
X68010387Y-144478434D01*
X68066964Y-144480704D01*
X68109172Y-144479817D01*
X68169908Y-144475159D01*
X68227554Y-144466508D01*
X68282108Y-144453864D01*
X68333570Y-144437227D01*
X68381942Y-144416598D01*
X68427222Y-144391975D01*
X68469411Y-144363360D01*
X68508509Y-144330753D01*
X68544516Y-144294152D01*
X68577431Y-144253558D01*
X68597543Y-144224364D01*
X68625278Y-144178139D01*
X68650094Y-144128995D01*
X68671990Y-144076931D01*
X68690966Y-144021948D01*
X68707023Y-143964045D01*
X68720161Y-143903223D01*
X68730379Y-143839481D01*
X68737678Y-143772820D01*
X68742057Y-143703239D01*
X68743517Y-143630739D01*
X68742963Y-143578623D01*
X68741303Y-143526688D01*
X68738536Y-143474934D01*
X68734663Y-143423362D01*
X68729683Y-143371971D01*
X68723596Y-143320761D01*
X68716402Y-143269732D01*
X68708101Y-143218885D01*
X68698694Y-143168219D01*
X68688180Y-143117734D01*
X68676560Y-143067430D01*
X68663832Y-143017308D01*
X68649998Y-142967367D01*
X68635058Y-142917607D01*
X68619010Y-142868029D01*
X68601856Y-142818632D01*
X68583552Y-142769874D01*
X68564361Y-142722518D01*
X68544282Y-142676565D01*
X68523316Y-142632015D01*
X68490204Y-142567819D01*
X68455095Y-142506778D01*
X68417990Y-142448894D01*
X68378889Y-142394164D01*
X68337791Y-142342591D01*
X68294697Y-142294173D01*
X68249606Y-142248910D01*
X68202519Y-142206803D01*
X68170204Y-142180628D01*
X68120767Y-142144532D01*
X68070170Y-142112236D01*
X68018413Y-142083739D01*
X67965498Y-142059041D01*
X67911424Y-142038143D01*
X67856190Y-142021045D01*
X67799797Y-142007747D01*
X67742245Y-141998248D01*
X67683534Y-141992548D01*
X67623663Y-141990648D01*
X67583826Y-141991459D01*
X67525805Y-141995717D01*
X67469866Y-142003624D01*
X67416010Y-142015180D01*
X67364236Y-142030386D01*
X67314544Y-142049241D01*
X67266935Y-142071745D01*
X67221408Y-142097898D01*
X67177963Y-142127701D01*
X67136600Y-142161153D01*
X67097320Y-142198255D01*
X67072476Y-142224530D01*
X67038215Y-142265732D01*
X67007561Y-142309080D01*
X66980513Y-142354575D01*
X66957071Y-142402217D01*
X66937236Y-142452005D01*
X66921007Y-142503940D01*
X66908385Y-142558022D01*
X66899369Y-142614250D01*
X66893959Y-142672625D01*
X66892156Y-142733147D01*
X66259241Y-142733147D01*
X65999448Y-141604745D01*
X66535561Y-141604745D01*
X66668674Y-142123761D01*
X66689434Y-142123761D01*
X66720742Y-142051447D01*
X66755437Y-141983798D01*
X66793519Y-141920815D01*
X66834988Y-141862497D01*
X66879843Y-141808845D01*
X66928086Y-141759858D01*
X66979716Y-141715537D01*
X67034733Y-141675881D01*
X67093136Y-141640890D01*
X67154927Y-141610565D01*
X67220104Y-141584905D01*
X67288669Y-141563910D01*
X67360620Y-141547581D01*
X67435959Y-141535918D01*
X67514684Y-141528920D01*
X67596796Y-141526587D01*
X67657337Y-141527684D01*
X67717143Y-141530976D01*
X67776215Y-141536462D01*
X67834552Y-141544142D01*
X67892154Y-141554017D01*
X67949021Y-141566086D01*
X68005154Y-141580349D01*
X68060553Y-141596807D01*
X68115216Y-141615459D01*
X68169145Y-141636306D01*
X68222340Y-141659346D01*
X68274799Y-141684582D01*
X68326524Y-141712011D01*
X68377515Y-141741635D01*
X68427771Y-141773454D01*
X68477292Y-141807466D01*
X68525778Y-141843406D01*
X68572928Y-141881006D01*
X68618743Y-141920266D01*
X68663222Y-141961187D01*
X68706365Y-142003767D01*
X68748172Y-142048007D01*
X68788644Y-142093908D01*
X68827780Y-142141468D01*
X68865581Y-142190689D01*
X68902045Y-142241570D01*
X68937174Y-142294111D01*
X68970968Y-142348312D01*
X69003425Y-142404173D01*
X69034547Y-142461694D01*
X69064333Y-142520875D01*
X69092784Y-142581716D01*
X69119550Y-142643659D01*
X69144590Y-142706146D01*
X69167903Y-142769177D01*
X69189489Y-142832752D01*
X69209348Y-142896871D01*
X69227480Y-142961533D01*
X69243885Y-143026739D01*
X69258564Y-143092489D01*
X69271515Y-143158783D01*
X69282740Y-143225620D01*
X69292238Y-143293002D01*
X69300009Y-143360927D01*
X69306053Y-143429396D01*
X69310370Y-143498409D01*
X69312960Y-143567966D01*
X69313824Y-143638066D01*
X69312664Y-143715447D01*
X69309187Y-143790661D01*
X69303391Y-143863710D01*
X69295276Y-143934593D01*
X69284844Y-144003310D01*
X69272092Y-144069861D01*
X69257023Y-144134247D01*
X69239635Y-144196467D01*
X69219928Y-144256521D01*
X69197904Y-144314409D01*
X69173561Y-144370132D01*
X69146899Y-144423689D01*
X69117919Y-144475080D01*
X69086621Y-144524305D01*
X69053004Y-144571365D01*
X69017069Y-144616259D01*
X68978882Y-144658553D01*
X68938815Y-144698119D01*
X68896870Y-144734955D01*
X68853044Y-144769064D01*
X68807339Y-144800443D01*
X68759755Y-144829094D01*
X68710291Y-144855016D01*
X68658948Y-144878210D01*
X68605725Y-144898674D01*
X68550622Y-144916411D01*
X68493640Y-144931418D01*
X68434778Y-144943697D01*
X68374037Y-144953247D01*
X68311417Y-144960069D01*
X68246917Y-144964162D01*
X68180537Y-144965526D01*
X68136330Y-144964630D01*
X68070252Y-144959921D01*
X68004453Y-144951177D01*
X67938933Y-144938397D01*
X67873692Y-144921582D01*
X67808731Y-144900730D01*
X67744048Y-144875843D01*
X67679645Y-144846921D01*
X67615520Y-144813962D01*
X67572926Y-144789748D01*
X67530455Y-144763740D01*
X67488108Y-144735938D01*
X67446473Y-144706581D01*
X67406134Y-144676213D01*
X67367094Y-144644834D01*
X67329351Y-144612443D01*
X67292905Y-144579041D01*
X67257757Y-144544627D01*
X67223906Y-144509202D01*
X67191353Y-144472766D01*
X67144957Y-144416216D01*
X67101480Y-144357390D01*
X67074117Y-144316909D01*
X67048051Y-144275416D01*
X67023284Y-144232912D01*
X66999813Y-144189397D01*
X66977641Y-144144870D01*
X66956880Y-144144870D01*
X66960590Y-144164319D01*
X66968700Y-144218282D01*
X66973667Y-144268003D01*
X66976647Y-144320062D01*
X66977641Y-144374459D01*
X66977475Y-144391742D01*
X66974988Y-144442160D01*
X66967032Y-144506045D01*
X66953770Y-144566113D01*
X66935204Y-144622365D01*
X66911333Y-144674801D01*
X66882157Y-144723421D01*
X66847677Y-144768224D01*
X66807892Y-144809211D01*
X66797140Y-144818828D01*
X66751268Y-144854243D01*
X66700816Y-144884774D01*
X66645785Y-144910419D01*
X66586175Y-144931180D01*
X66538462Y-144943545D01*
X66488172Y-144953162D01*
X66435307Y-144960031D01*
X66379866Y-144964153D01*
X66321849Y-144965526D01*
X66266222Y-144964386D01*
X66211081Y-144960966D01*
X66156427Y-144955265D01*
X66102259Y-144947284D01*
X66048578Y-144937023D01*
X65995384Y-144924482D01*
X65942676Y-144909661D01*
X65890455Y-144892559D01*
X65838720Y-144873177D01*
X65787472Y-144851515D01*
X65736711Y-144827572D01*
X65686436Y-144801349D01*
X65636647Y-144772846D01*
X65587346Y-144742063D01*
X65538530Y-144709000D01*
X65490202Y-144673656D01*
X65442770Y-144636290D01*
X65396645Y-144597159D01*
X65351828Y-144556262D01*
X65308317Y-144513601D01*
X65266114Y-144469174D01*
X65225217Y-144422983D01*
X65185628Y-144375026D01*
X65147346Y-144325305D01*
X65110371Y-144273818D01*
X65074703Y-144220567D01*
X65040342Y-144165550D01*
X65007288Y-144108768D01*
X64975541Y-144050222D01*
X64945101Y-143989910D01*
X64915969Y-143927833D01*
X64888143Y-143863991D01*
X64861672Y-143798685D01*
X64836910Y-143732520D01*
X64813854Y-143665496D01*
X64792507Y-143597614D01*
X64772867Y-143528873D01*
X64754935Y-143459273D01*
X64738711Y-143388815D01*
X64724195Y-143317498D01*
X64711387Y-143245322D01*
X64700286Y-143172288D01*
X64690893Y-143098395D01*
X64683208Y-143023643D01*
X64677231Y-142948033D01*
X64672961Y-142871564D01*
X64670400Y-142794236D01*
X64669546Y-142716050D01*
X64670801Y-142622727D01*
X64674564Y-142530826D01*
X64680837Y-142440346D01*
X64689620Y-142351288D01*
X64700911Y-142263652D01*
X64714712Y-142177437D01*
X64731022Y-142092644D01*
X64749841Y-142009272D01*
X64771169Y-141927322D01*
X64795007Y-141846793D01*
X64821353Y-141767686D01*
X64850209Y-141690001D01*
X64881574Y-141613737D01*
X64915449Y-141538895D01*
X64951832Y-141465474D01*
X64990725Y-141393475D01*
X65032008Y-141323193D01*
X65075561Y-141254924D01*
X65121386Y-141188669D01*
X65169480Y-141124426D01*
X65219846Y-141062197D01*
X65272482Y-141001980D01*
X65327389Y-140943777D01*
X65384567Y-140887587D01*
X65444015Y-140833410D01*
X65505734Y-140781246D01*
X65569724Y-140731095D01*
X65635984Y-140682957D01*
X65704515Y-140636832D01*
X65775317Y-140592721D01*
X65848390Y-140550622D01*
X65923733Y-140510537D01*
X66000937Y-140472679D01*
X66079896Y-140437264D01*
X66160610Y-140404291D01*
X66243080Y-140373761D01*
X66327306Y-140345673D01*
X66413287Y-140320027D01*
X66501024Y-140296824D01*
X66590516Y-140276064D01*
X66681764Y-140257745D01*
X66774767Y-140241870D01*
X66869525Y-140228436D01*
X66966039Y-140217445D01*
X67014955Y-140212866D01*
X67064309Y-140208897D01*
X67114102Y-140205539D01*
X67164334Y-140202791D01*
X67215005Y-140200654D01*
X67266115Y-140199127D01*
X67317663Y-140198211D01*
X67369651Y-140197906D01*
X67428702Y-140198328D01*
G37*
G36*
X59878722Y-143809036D02*
G01*
X59880783Y-143896878D01*
X59886966Y-143982105D01*
X59897270Y-144064719D01*
X59911695Y-144144718D01*
X59930242Y-144222103D01*
X59952911Y-144296873D01*
X59979702Y-144369030D01*
X60010614Y-144438572D01*
X60045647Y-144505501D01*
X60084802Y-144569815D01*
X60128079Y-144631515D01*
X60175478Y-144690601D01*
X60226997Y-144747072D01*
X60282639Y-144800930D01*
X60342402Y-144852173D01*
X60406287Y-144900802D01*
X60474012Y-144946497D01*
X60545601Y-144989245D01*
X60621054Y-145029044D01*
X60700371Y-145065895D01*
X60783552Y-145099798D01*
X60870596Y-145130753D01*
X60961505Y-145158760D01*
X61056278Y-145183818D01*
X61105114Y-145195242D01*
X61154915Y-145205929D01*
X61205683Y-145215879D01*
X61257416Y-145225092D01*
X61310116Y-145233567D01*
X61363781Y-145241306D01*
X61418412Y-145248308D01*
X61474010Y-145254573D01*
X61530573Y-145260100D01*
X61588103Y-145264891D01*
X61646598Y-145268944D01*
X61706060Y-145272261D01*
X61766487Y-145274841D01*
X61827881Y-145276683D01*
X61890240Y-145277789D01*
X61953565Y-145278157D01*
X62011333Y-145277836D01*
X62068317Y-145276874D01*
X62124515Y-145275270D01*
X62179929Y-145273024D01*
X62234558Y-145270137D01*
X62288402Y-145266608D01*
X62341462Y-145262438D01*
X62393737Y-145257626D01*
X62445227Y-145252172D01*
X62495932Y-145246076D01*
X62545853Y-145239340D01*
X62594989Y-145231961D01*
X62643340Y-145223941D01*
X62737689Y-145205976D01*
X62828898Y-145185444D01*
X62916969Y-145162346D01*
X63001900Y-145136681D01*
X63083693Y-145108450D01*
X63162347Y-145077653D01*
X63237862Y-145044289D01*
X63310238Y-145008358D01*
X63379475Y-144969861D01*
X63412916Y-144949651D01*
X63477541Y-144907266D01*
X63539217Y-144862238D01*
X63597945Y-144814568D01*
X63653725Y-144764255D01*
X63706556Y-144711299D01*
X63756440Y-144655700D01*
X63803376Y-144597459D01*
X63847363Y-144536575D01*
X63888403Y-144473048D01*
X63926494Y-144406878D01*
X63961638Y-144338066D01*
X63993833Y-144266610D01*
X64023080Y-144192512D01*
X64049379Y-144115771D01*
X64072730Y-144036387D01*
X64093133Y-143954361D01*
X63113719Y-143793161D01*
X63093290Y-143862766D01*
X63069555Y-143928701D01*
X63042514Y-143990965D01*
X63012167Y-144049558D01*
X62978515Y-144104481D01*
X62941556Y-144155733D01*
X62901292Y-144203313D01*
X62857722Y-144247223D01*
X62810846Y-144287463D01*
X62760664Y-144324031D01*
X62725373Y-144346371D01*
X62669370Y-144377143D01*
X62609439Y-144404889D01*
X62545579Y-144429608D01*
X62477791Y-144451300D01*
X62430416Y-144464080D01*
X62381296Y-144475514D01*
X62330429Y-144485603D01*
X62277817Y-144494348D01*
X62223459Y-144501746D01*
X62167354Y-144507800D01*
X62109504Y-144512508D01*
X62049908Y-144515871D01*
X61988566Y-144517889D01*
X61925478Y-144518562D01*
X61860187Y-144517926D01*
X61796969Y-144516019D01*
X61735823Y-144512841D01*
X61676751Y-144508392D01*
X61619751Y-144502671D01*
X61564823Y-144495679D01*
X61511969Y-144487415D01*
X61461187Y-144477880D01*
X61412478Y-144467074D01*
X61321278Y-144441648D01*
X61238369Y-144411137D01*
X61163751Y-144375540D01*
X61097424Y-144334859D01*
X61039388Y-144289092D01*
X60989642Y-144238240D01*
X60948188Y-144182302D01*
X60915024Y-144121280D01*
X60890151Y-144055172D01*
X60873570Y-143983979D01*
X60865279Y-143907701D01*
X60864242Y-143867655D01*
X60866150Y-143816898D01*
X60873902Y-143756672D01*
X60887617Y-143700024D01*
X60907295Y-143646954D01*
X60932936Y-143597461D01*
X60964539Y-143551546D01*
X60986364Y-143525715D01*
X61026942Y-143484839D01*
X61072350Y-143446169D01*
X61112154Y-143416822D01*
X61155049Y-143388886D01*
X61201035Y-143362363D01*
X61250113Y-143337252D01*
X61302281Y-143313553D01*
X61329525Y-143302233D01*
X61391158Y-143279068D01*
X61445748Y-143260943D01*
X61507507Y-143242174D01*
X61576437Y-143222761D01*
X61626373Y-143209461D01*
X61679496Y-143195875D01*
X61735805Y-143182003D01*
X61795301Y-143167844D01*
X61857984Y-143153399D01*
X61923853Y-143138669D01*
X61992909Y-143123651D01*
X62065152Y-143108348D01*
X62140581Y-143092759D01*
X62179490Y-143084856D01*
X62245984Y-143069028D01*
X62309912Y-143053601D01*
X62371273Y-143038574D01*
X62430068Y-143023948D01*
X62486296Y-143009723D01*
X62539958Y-142995899D01*
X62591054Y-142982475D01*
X62639583Y-142969452D01*
X62707564Y-142950668D01*
X62769771Y-142932787D01*
X62826203Y-142915807D01*
X62876861Y-142899728D01*
X62935422Y-142879692D01*
X62987915Y-142859733D01*
X63039149Y-142838934D01*
X63089123Y-142817296D01*
X63137838Y-142794818D01*
X63185294Y-142771501D01*
X63231490Y-142747343D01*
X63276427Y-142722347D01*
X63320104Y-142696510D01*
X63362064Y-142669586D01*
X63402460Y-142641327D01*
X63450754Y-142604124D01*
X63496603Y-142564834D01*
X63540007Y-142523457D01*
X63580967Y-142479993D01*
X63611974Y-142443719D01*
X63648092Y-142395908D01*
X63681646Y-142345592D01*
X63706642Y-142303537D01*
X63729998Y-142259879D01*
X63751713Y-142214617D01*
X63771786Y-142167753D01*
X63790219Y-142119286D01*
X63798820Y-142094452D01*
X63814562Y-142043466D01*
X63828206Y-141990648D01*
X63839750Y-141935999D01*
X63849195Y-141879518D01*
X63856542Y-141821205D01*
X63861789Y-141761060D01*
X63864937Y-141699084D01*
X63865987Y-141635275D01*
X63864064Y-141554198D01*
X63858297Y-141475525D01*
X63848685Y-141399256D01*
X63835228Y-141325392D01*
X63817925Y-141253932D01*
X63796778Y-141184876D01*
X63771786Y-141118224D01*
X63742950Y-141053977D01*
X63710268Y-140992134D01*
X63673741Y-140932695D01*
X63633369Y-140875661D01*
X63589153Y-140821031D01*
X63541091Y-140768805D01*
X63489185Y-140718983D01*
X63433434Y-140671565D01*
X63373838Y-140626552D01*
X63310416Y-140584110D01*
X63243492Y-140544406D01*
X63173067Y-140507441D01*
X63099141Y-140473213D01*
X63021713Y-140441724D01*
X62940784Y-140412973D01*
X62856353Y-140386960D01*
X62768421Y-140363686D01*
X62676987Y-140343149D01*
X62582052Y-140325351D01*
X62533271Y-140317479D01*
X62483615Y-140310291D01*
X62433084Y-140303788D01*
X62381677Y-140297969D01*
X62329395Y-140292835D01*
X62276238Y-140288386D01*
X62222205Y-140284621D01*
X62167297Y-140281540D01*
X62111514Y-140279144D01*
X62054855Y-140277433D01*
X61997320Y-140276406D01*
X61938911Y-140276064D01*
X61883172Y-140276336D01*
X61828305Y-140277151D01*
X61774312Y-140278511D01*
X61721191Y-140280414D01*
X61668944Y-140282861D01*
X61617569Y-140285852D01*
X61567068Y-140289387D01*
X61517439Y-140293466D01*
X61468684Y-140298088D01*
X61373792Y-140308965D01*
X61282391Y-140322017D01*
X61194483Y-140337244D01*
X61110067Y-140354646D01*
X61029142Y-140374224D01*
X60951709Y-140395976D01*
X60877769Y-140419905D01*
X60807320Y-140446008D01*
X60740363Y-140474287D01*
X60676898Y-140504741D01*
X60616925Y-140537370D01*
X60588248Y-140554501D01*
X60533021Y-140590574D01*
X60480304Y-140629491D01*
X60430096Y-140671251D01*
X60382397Y-140715853D01*
X60337207Y-140763300D01*
X60294527Y-140813589D01*
X60254356Y-140866721D01*
X60216693Y-140922697D01*
X60181541Y-140981515D01*
X60148897Y-141043177D01*
X60118763Y-141107682D01*
X60091137Y-141175030D01*
X60066021Y-141245221D01*
X60043415Y-141318256D01*
X60023317Y-141394133D01*
X60005729Y-141472854D01*
X60988806Y-141604745D01*
X61004377Y-141549060D01*
X61022695Y-141496038D01*
X61043761Y-141445677D01*
X61067575Y-141397978D01*
X61094136Y-141352941D01*
X61123445Y-141310566D01*
X61155502Y-141270852D01*
X61190307Y-141233801D01*
X61227859Y-141199411D01*
X61268159Y-141167684D01*
X61296552Y-141148011D01*
X61341611Y-141120512D01*
X61390233Y-141095718D01*
X61442418Y-141073629D01*
X61498167Y-141054244D01*
X61557479Y-141037565D01*
X61620355Y-141023590D01*
X61686795Y-141012320D01*
X61756797Y-141003755D01*
X61830364Y-140997894D01*
X61881387Y-140995490D01*
X61933995Y-140994288D01*
X61960893Y-140994138D01*
X62017468Y-140994707D01*
X62072247Y-140996413D01*
X62125231Y-140999257D01*
X62176418Y-141003240D01*
X62225809Y-141008359D01*
X62319203Y-141022012D01*
X62405414Y-141040216D01*
X62484439Y-141062971D01*
X62556281Y-141090276D01*
X62620939Y-141122133D01*
X62678412Y-141158540D01*
X62728701Y-141199498D01*
X62771806Y-141245008D01*
X62807727Y-141295068D01*
X62836464Y-141349679D01*
X62858017Y-141408841D01*
X62872385Y-141472554D01*
X62879569Y-141540818D01*
X62880467Y-141576657D01*
X62878082Y-141634140D01*
X62870926Y-141688283D01*
X62859000Y-141739088D01*
X62842304Y-141786553D01*
X62820837Y-141830679D01*
X62788781Y-141879222D01*
X62782770Y-141886845D01*
X62749944Y-141923762D01*
X62712526Y-141958949D01*
X62670517Y-141992408D01*
X62623917Y-142024136D01*
X62572725Y-142054136D01*
X62528465Y-142076891D01*
X62493342Y-142093230D01*
X62438941Y-142114964D01*
X62390051Y-142132141D01*
X62334227Y-142150069D01*
X62271469Y-142168749D01*
X62201777Y-142188180D01*
X62151464Y-142201551D01*
X62098069Y-142215257D01*
X62041593Y-142229296D01*
X61982035Y-142243669D01*
X61919395Y-142258376D01*
X61853674Y-142273417D01*
X61784871Y-142288792D01*
X61712986Y-142304501D01*
X61627372Y-142323033D01*
X61544859Y-142341385D01*
X61465447Y-142359555D01*
X61389135Y-142377544D01*
X61315925Y-142395352D01*
X61245815Y-142412979D01*
X61178805Y-142430424D01*
X61114897Y-142447688D01*
X61054089Y-142464771D01*
X60996382Y-142481672D01*
X60941775Y-142498392D01*
X60890269Y-142514931D01*
X60841865Y-142531289D01*
X60775071Y-142555485D01*
X60715254Y-142579274D01*
X60660031Y-142603223D01*
X60607019Y-142627903D01*
X60556218Y-142653312D01*
X60507629Y-142679451D01*
X60461250Y-142706321D01*
X60417082Y-142733920D01*
X60375126Y-142762248D01*
X60335380Y-142791307D01*
X60285826Y-142831187D01*
X60240202Y-142872365D01*
X60197536Y-142915222D01*
X60157465Y-142960140D01*
X60119989Y-143007119D01*
X60085108Y-143056158D01*
X60052822Y-143107258D01*
X60023131Y-143160419D01*
X59996035Y-143215641D01*
X59971535Y-143272923D01*
X59949782Y-143332057D01*
X59930929Y-143393442D01*
X59918693Y-143440958D01*
X59908089Y-143489741D01*
X59899116Y-143539791D01*
X59891774Y-143591107D01*
X59886064Y-143643690D01*
X59881985Y-143697539D01*
X59879538Y-143752654D01*
X59878722Y-143809036D01*
G37*
G36*
X56776838Y-143167899D02*
G01*
X56776838Y-145200000D01*
X57786782Y-145200000D01*
X57786782Y-143167899D01*
X59511137Y-140276064D01*
X58448681Y-140276064D01*
X57288527Y-142386322D01*
X56113719Y-140276064D01*
X55052484Y-140276064D01*
X56776838Y-143167899D01*
G37*
G36*
X50548646Y-143809036D02*
G01*
X50550706Y-143896878D01*
X50556889Y-143982105D01*
X50567193Y-144064719D01*
X50581618Y-144144718D01*
X50600166Y-144222103D01*
X50622834Y-144296873D01*
X50649625Y-144369030D01*
X50680537Y-144438572D01*
X50715570Y-144505501D01*
X50754726Y-144569815D01*
X50798002Y-144631515D01*
X50845401Y-144690601D01*
X50896921Y-144747072D01*
X50952562Y-144800930D01*
X51012325Y-144852173D01*
X51076210Y-144900802D01*
X51143935Y-144946497D01*
X51215524Y-144989245D01*
X51290977Y-145029044D01*
X51370294Y-145065895D01*
X51453475Y-145099798D01*
X51540520Y-145130753D01*
X51631429Y-145158760D01*
X51726202Y-145183818D01*
X51775037Y-145195242D01*
X51824838Y-145205929D01*
X51875606Y-145215879D01*
X51927339Y-145225092D01*
X51980039Y-145233567D01*
X52033704Y-145241306D01*
X52088336Y-145248308D01*
X52143933Y-145254573D01*
X52200497Y-145260100D01*
X52258026Y-145264891D01*
X52316521Y-145268944D01*
X52375983Y-145272261D01*
X52436410Y-145274841D01*
X52497804Y-145276683D01*
X52560163Y-145277789D01*
X52623489Y-145278157D01*
X52681257Y-145277836D01*
X52738240Y-145276874D01*
X52794438Y-145275270D01*
X52849852Y-145273024D01*
X52904481Y-145270137D01*
X52958326Y-145266608D01*
X53011385Y-145262438D01*
X53063660Y-145257626D01*
X53115150Y-145252172D01*
X53165856Y-145246076D01*
X53215776Y-145239340D01*
X53264912Y-145231961D01*
X53313264Y-145223941D01*
X53407612Y-145205976D01*
X53498821Y-145185444D01*
X53586892Y-145162346D01*
X53671824Y-145136681D01*
X53753616Y-145108450D01*
X53832270Y-145077653D01*
X53907785Y-145044289D01*
X53980161Y-145008358D01*
X54049398Y-144969861D01*
X54082840Y-144949651D01*
X54147464Y-144907266D01*
X54209140Y-144862238D01*
X54267868Y-144814568D01*
X54323648Y-144764255D01*
X54376480Y-144711299D01*
X54426363Y-144655700D01*
X54473299Y-144597459D01*
X54517287Y-144536575D01*
X54558326Y-144473048D01*
X54596418Y-144406878D01*
X54631561Y-144338066D01*
X54663756Y-144266610D01*
X54693003Y-144192512D01*
X54719302Y-144115771D01*
X54742653Y-144036387D01*
X54763056Y-143954361D01*
X53783642Y-143793161D01*
X53763213Y-143862766D01*
X53739478Y-143928701D01*
X53712437Y-143990965D01*
X53682091Y-144049558D01*
X53648438Y-144104481D01*
X53611480Y-144155733D01*
X53571215Y-144203313D01*
X53527645Y-144247223D01*
X53480769Y-144287463D01*
X53430587Y-144324031D01*
X53395296Y-144346371D01*
X53339293Y-144377143D01*
X53279362Y-144404889D01*
X53215502Y-144429608D01*
X53147714Y-144451300D01*
X53100339Y-144464080D01*
X53051219Y-144475514D01*
X53000353Y-144485603D01*
X52947740Y-144494348D01*
X52893382Y-144501746D01*
X52837278Y-144507800D01*
X52779427Y-144512508D01*
X52719831Y-144515871D01*
X52658489Y-144517889D01*
X52595401Y-144518562D01*
X52530110Y-144517926D01*
X52466892Y-144516019D01*
X52405746Y-144512841D01*
X52346674Y-144508392D01*
X52289674Y-144502671D01*
X52234747Y-144495679D01*
X52181892Y-144487415D01*
X52131110Y-144477880D01*
X52082401Y-144467074D01*
X51991201Y-144441648D01*
X51908292Y-144411137D01*
X51833674Y-144375540D01*
X51767347Y-144334859D01*
X51709311Y-144289092D01*
X51659565Y-144238240D01*
X51618111Y-144182302D01*
X51584947Y-144121280D01*
X51560075Y-144055172D01*
X51543493Y-143983979D01*
X51535202Y-143907701D01*
X51534166Y-143867655D01*
X51536074Y-143816898D01*
X51543826Y-143756672D01*
X51557540Y-143700024D01*
X51577218Y-143646954D01*
X51602859Y-143597461D01*
X51634463Y-143551546D01*
X51656287Y-143525715D01*
X51696865Y-143484839D01*
X51742273Y-143446169D01*
X51782077Y-143416822D01*
X51824972Y-143388886D01*
X51870958Y-143362363D01*
X51920036Y-143337252D01*
X51972205Y-143313553D01*
X51999448Y-143302233D01*
X52061081Y-143279068D01*
X52115671Y-143260943D01*
X52177431Y-143242174D01*
X52246360Y-143222761D01*
X52296296Y-143209461D01*
X52349419Y-143195875D01*
X52405729Y-143182003D01*
X52465225Y-143167844D01*
X52527907Y-143153399D01*
X52593776Y-143138669D01*
X52662832Y-143123651D01*
X52735075Y-143108348D01*
X52810504Y-143092759D01*
X52849413Y-143084856D01*
X52915907Y-143069028D01*
X52979835Y-143053601D01*
X53041196Y-143038574D01*
X53099991Y-143023948D01*
X53156220Y-143009723D01*
X53209881Y-142995899D01*
X53260977Y-142982475D01*
X53309506Y-142969452D01*
X53377487Y-142950668D01*
X53439694Y-142932787D01*
X53496126Y-142915807D01*
X53546784Y-142899728D01*
X53605345Y-142879692D01*
X53657838Y-142859733D01*
X53709072Y-142838934D01*
X53759046Y-142817296D01*
X53807761Y-142794818D01*
X53855217Y-142771501D01*
X53901413Y-142747343D01*
X53946350Y-142722347D01*
X53990027Y-142696510D01*
X54031988Y-142669586D01*
X54072383Y-142641327D01*
X54120677Y-142604124D01*
X54166526Y-142564834D01*
X54209931Y-142523457D01*
X54250890Y-142479993D01*
X54281898Y-142443719D01*
X54318015Y-142395908D01*
X54351569Y-142345592D01*
X54376566Y-142303537D01*
X54399921Y-142259879D01*
X54421636Y-142214617D01*
X54441710Y-142167753D01*
X54460142Y-142119286D01*
X54468743Y-142094452D01*
X54484486Y-142043466D01*
X54498129Y-141990648D01*
X54509673Y-141935999D01*
X54519118Y-141879518D01*
X54526465Y-141821205D01*
X54531712Y-141761060D01*
X54534861Y-141699084D01*
X54535910Y-141635275D01*
X54533988Y-141554198D01*
X54528220Y-141475525D01*
X54518608Y-141399256D01*
X54505151Y-141325392D01*
X54487849Y-141253932D01*
X54466702Y-141184876D01*
X54441710Y-141118224D01*
X54412873Y-141053977D01*
X54380191Y-140992134D01*
X54343664Y-140932695D01*
X54303293Y-140875661D01*
X54259076Y-140821031D01*
X54211015Y-140768805D01*
X54159108Y-140718983D01*
X54103357Y-140671565D01*
X54043761Y-140626552D01*
X53980339Y-140584110D01*
X53913415Y-140544406D01*
X53842990Y-140507441D01*
X53769064Y-140473213D01*
X53691636Y-140441724D01*
X53610707Y-140412973D01*
X53526276Y-140386960D01*
X53438344Y-140363686D01*
X53346910Y-140343149D01*
X53251975Y-140325351D01*
X53203195Y-140317479D01*
X53153539Y-140310291D01*
X53103007Y-140303788D01*
X53051601Y-140297969D01*
X52999319Y-140292835D01*
X52946161Y-140288386D01*
X52892128Y-140284621D01*
X52837220Y-140281540D01*
X52781437Y-140279144D01*
X52724778Y-140277433D01*
X52667244Y-140276406D01*
X52608834Y-140276064D01*
X52553095Y-140276336D01*
X52498228Y-140277151D01*
X52444235Y-140278511D01*
X52391115Y-140280414D01*
X52338867Y-140282861D01*
X52287493Y-140285852D01*
X52236991Y-140289387D01*
X52187363Y-140293466D01*
X52138607Y-140298088D01*
X52043715Y-140308965D01*
X51952315Y-140322017D01*
X51864406Y-140337244D01*
X51779990Y-140354646D01*
X51699065Y-140374224D01*
X51621633Y-140395976D01*
X51547692Y-140419905D01*
X51477243Y-140446008D01*
X51410286Y-140474287D01*
X51346821Y-140504741D01*
X51286848Y-140537370D01*
X51258171Y-140554501D01*
X51202945Y-140590574D01*
X51150227Y-140629491D01*
X51100019Y-140671251D01*
X51052320Y-140715853D01*
X51007131Y-140763300D01*
X50964450Y-140813589D01*
X50924279Y-140866721D01*
X50886617Y-140922697D01*
X50851464Y-140981515D01*
X50818820Y-141043177D01*
X50788686Y-141107682D01*
X50761061Y-141175030D01*
X50735945Y-141245221D01*
X50713338Y-141318256D01*
X50693240Y-141394133D01*
X50675652Y-141472854D01*
X51658729Y-141604745D01*
X51674300Y-141549060D01*
X51692618Y-141496038D01*
X51713684Y-141445677D01*
X51737498Y-141397978D01*
X51764059Y-141352941D01*
X51793368Y-141310566D01*
X51825425Y-141270852D01*
X51860230Y-141233801D01*
X51897782Y-141199411D01*
X51938082Y-141167684D01*
X51966475Y-141148011D01*
X52011534Y-141120512D01*
X52060156Y-141095718D01*
X52112341Y-141073629D01*
X52168090Y-141054244D01*
X52227403Y-141037565D01*
X52290278Y-141023590D01*
X52356718Y-141012320D01*
X52426721Y-141003755D01*
X52500287Y-140997894D01*
X52551311Y-140995490D01*
X52603918Y-140994288D01*
X52630816Y-140994138D01*
X52687391Y-140994707D01*
X52742171Y-140996413D01*
X52795154Y-140999257D01*
X52846341Y-141003240D01*
X52895732Y-141008359D01*
X52989127Y-141022012D01*
X53075337Y-141040216D01*
X53154363Y-141062971D01*
X53226204Y-141090276D01*
X53290862Y-141122133D01*
X53348335Y-141158540D01*
X53398625Y-141199498D01*
X53441730Y-141245008D01*
X53477651Y-141295068D01*
X53506387Y-141349679D01*
X53527940Y-141408841D01*
X53542308Y-141472554D01*
X53549492Y-141540818D01*
X53550390Y-141576657D01*
X53548005Y-141634140D01*
X53540850Y-141688283D01*
X53528924Y-141739088D01*
X53512227Y-141786553D01*
X53490761Y-141830679D01*
X53458704Y-141879222D01*
X53452693Y-141886845D01*
X53419867Y-141923762D01*
X53382449Y-141958949D01*
X53340440Y-141992408D01*
X53293840Y-142024136D01*
X53242648Y-142054136D01*
X53198388Y-142076891D01*
X53163265Y-142093230D01*
X53108864Y-142114964D01*
X53059974Y-142132141D01*
X53004150Y-142150069D01*
X52941392Y-142168749D01*
X52871700Y-142188180D01*
X52821387Y-142201551D01*
X52767993Y-142215257D01*
X52711516Y-142229296D01*
X52651958Y-142243669D01*
X52589319Y-142258376D01*
X52523597Y-142273417D01*
X52454794Y-142288792D01*
X52382909Y-142304501D01*
X52297296Y-142323033D01*
X52214783Y-142341385D01*
X52135370Y-142359555D01*
X52059059Y-142377544D01*
X51985848Y-142395352D01*
X51915738Y-142412979D01*
X51848728Y-142430424D01*
X51784820Y-142447688D01*
X51724012Y-142464771D01*
X51666305Y-142481672D01*
X51611698Y-142498392D01*
X51560193Y-142514931D01*
X51511788Y-142531289D01*
X51444994Y-142555485D01*
X51385177Y-142579274D01*
X51329954Y-142603223D01*
X51276943Y-142627903D01*
X51226142Y-142653312D01*
X51177552Y-142679451D01*
X51131173Y-142706321D01*
X51087006Y-142733920D01*
X51045049Y-142762248D01*
X51005303Y-142791307D01*
X50955749Y-142831187D01*
X50910125Y-142872365D01*
X50867459Y-142915222D01*
X50827388Y-142960140D01*
X50789912Y-143007119D01*
X50755031Y-143056158D01*
X50722745Y-143107258D01*
X50693054Y-143160419D01*
X50665959Y-143215641D01*
X50641458Y-143272923D01*
X50619705Y-143332057D01*
X50600853Y-143393442D01*
X50588617Y-143440958D01*
X50578012Y-143489741D01*
X50569039Y-143539791D01*
X50561697Y-143591107D01*
X50555987Y-143643690D01*
X50551909Y-143697539D01*
X50549461Y-143752654D01*
X50548646Y-143809036D01*
G37*
G36*
X45811556Y-145200000D02*
G01*
X45811556Y-142262979D01*
X45811479Y-142212986D01*
X45811250Y-142163145D01*
X45810869Y-142113457D01*
X45810334Y-142063921D01*
X45808431Y-142003271D01*
X45806065Y-141937173D01*
X45803714Y-141874125D01*
X45800870Y-141799528D01*
X45798700Y-141743381D01*
X45796310Y-141682101D01*
X45793700Y-141615688D01*
X45790871Y-141544142D01*
X45787823Y-141467463D01*
X45784555Y-141385651D01*
X45781068Y-141298707D01*
X45777362Y-141206629D01*
X45792502Y-141263935D01*
X45807391Y-141320145D01*
X45822030Y-141375257D01*
X45836419Y-141429272D01*
X45850557Y-141482189D01*
X45864445Y-141534010D01*
X45878082Y-141584733D01*
X45891469Y-141634359D01*
X45904605Y-141682888D01*
X45917491Y-141730320D01*
X45942512Y-141821892D01*
X45966531Y-141909075D01*
X45989548Y-141991870D01*
X46011563Y-142070275D01*
X46032576Y-142144293D01*
X46052588Y-142213921D01*
X46071598Y-142279160D01*
X46089606Y-142340011D01*
X46106612Y-142396473D01*
X46122617Y-142448547D01*
X46137620Y-142496231D01*
X47010788Y-145200000D01*
X47731304Y-145200000D01*
X48604473Y-142496231D01*
X48972058Y-141206629D01*
X48969504Y-141255944D01*
X48964638Y-141351418D01*
X48960096Y-141442685D01*
X48955879Y-141529744D01*
X48951987Y-141612596D01*
X48948419Y-141691240D01*
X48945175Y-141765677D01*
X48942255Y-141835906D01*
X48939660Y-141901928D01*
X48937389Y-141963742D01*
X48935443Y-142021349D01*
X48933821Y-142074749D01*
X48932524Y-142123941D01*
X48931186Y-142189840D01*
X48930577Y-142246272D01*
X48930537Y-142262979D01*
X48930537Y-145200000D01*
X49830572Y-145200000D01*
X49830572Y-140354221D01*
X48473803Y-140354221D01*
X47607962Y-143064096D01*
X47532247Y-143325436D01*
X47367383Y-143975122D01*
X47151228Y-143198429D01*
X46260963Y-140354221D01*
X44911521Y-140354221D01*
X44911521Y-145200000D01*
X45811556Y-145200000D01*
G37*
G36*
X44298471Y-145200000D02*
G01*
X43284863Y-145200000D01*
X42854996Y-143929937D01*
X41010963Y-143929937D01*
X40581095Y-145200000D01*
X39578478Y-145200000D01*
X40315934Y-143167899D01*
X41238108Y-143167899D01*
X42629071Y-143167899D01*
X42595666Y-143071501D01*
X42563226Y-142977852D01*
X42531752Y-142886954D01*
X42501245Y-142798806D01*
X42471703Y-142713408D01*
X42443127Y-142630760D01*
X42415518Y-142550863D01*
X42388874Y-142473715D01*
X42363196Y-142399318D01*
X42338484Y-142327670D01*
X42314739Y-142258773D01*
X42291959Y-142192626D01*
X42270145Y-142129229D01*
X42249298Y-142068582D01*
X42229416Y-142010685D01*
X42210500Y-141955539D01*
X42192550Y-141903142D01*
X42175567Y-141853496D01*
X42144497Y-141762453D01*
X42117292Y-141682411D01*
X42093951Y-141613370D01*
X42074473Y-141555329D01*
X42058860Y-141508288D01*
X42039225Y-141447208D01*
X42030195Y-141418189D01*
X42015717Y-141371111D01*
X41999287Y-141316743D01*
X41983889Y-141264694D01*
X41969520Y-141214963D01*
X41956182Y-141167550D01*
X41935422Y-141093056D01*
X41863370Y-141327529D01*
X41715603Y-141790369D01*
X41238108Y-143167899D01*
X40315934Y-143167899D01*
X41337027Y-140354221D01*
X42532595Y-140354221D01*
X44298471Y-145200000D01*
G37*
G36*
X37285038Y-141137020D02*
G01*
X37285038Y-145200000D01*
X38298646Y-145200000D01*
X38298646Y-141137020D01*
X39860579Y-141137020D01*
X39860579Y-140354221D01*
X35718220Y-140354221D01*
X35718220Y-141137020D01*
X37285038Y-141137020D01*
G37*
G36*
X33010788Y-141137020D02*
G01*
X33010788Y-145200000D01*
X34024396Y-145200000D01*
X34024396Y-141137020D01*
X35586329Y-141137020D01*
X35586329Y-140354221D01*
X31443970Y-140354221D01*
X31443970Y-141137020D01*
X33010788Y-141137020D01*
G37*
%LPC*%
D11*
X127000000Y-172720000D03*
X83820000Y-172720000D03*
X101600000Y-30480000D03*
X30480000Y-100330000D03*
X170180000Y-100330000D03*
D12*
X160000000Y-40000000D03*
D13*
X103042500Y-167000000D03*
D14*
X103042500Y-173000000D03*
D15*
X107742500Y-170000000D03*
D16*
X111000000Y-138000000D03*
D17*
X111000000Y-140540000D03*
D16*
X142525000Y-92625000D03*
D17*
X139985000Y-92625000D03*
X137445000Y-92625000D03*
D16*
X90375000Y-152525000D03*
D17*
X90375000Y-149985000D03*
X90375000Y-147445000D03*
D16*
X62525000Y-92625000D03*
D17*
X59985000Y-92625000D03*
X57445000Y-92625000D03*
D12*
X40000000Y-40000000D03*
D11*
X170000000Y-170000000D03*
D18*
X175400000Y-143000000D03*
D19*
X171000000Y-143000000D03*
D16*
X102275000Y-112625000D03*
D17*
X99735000Y-112625000D03*
D11*
X170000000Y-30000000D03*
D20*
X101000000Y-100000000D03*
D12*
X160000000Y-160000000D03*
D11*
X30000000Y-170000000D03*
X30000000Y-30000000D03*
D16*
X110625000Y-147475000D03*
D17*
X110625000Y-150015000D03*
X110625000Y-152555000D03*
D12*
X40000000Y-160000000D03*
%LPD*%
M02*
