G04 #@! TF.GenerationSoftware,KiCad,Pcbnew,7.0.9-1.fc39*
G04 #@! TF.CreationDate,2023-12-29T09:38:10-05:00*
G04 #@! TF.ProjectId,SYSMATT-WS2812-MATRIX-CARRIER,5359534d-4154-4542-9d57-53323831322d,rev?*
G04 #@! TF.SameCoordinates,Original*
G04 #@! TF.FileFunction,Legend,Top*
G04 #@! TF.FilePolarity,Positive*
%FSLAX46Y46*%
G04 Gerber Fmt 4.6, Leading zero omitted, Abs format (unit mm)*
G04 Created by KiCad (PCBNEW 7.0.9-1.fc39) date 2023-12-29 09:38:10*
%MOMM*%
%LPD*%
G01*
G04 APERTURE LIST*
G04 Aperture macros list*
%AMRoundRect*
0 Rectangle with rounded corners*
0 $1 Rounding radius*
0 $2 $3 $4 $5 $6 $7 $8 $9 X,Y pos of 4 corners*
0 Add a 4 corners polygon primitive as box body*
4,1,4,$2,$3,$4,$5,$6,$7,$8,$9,$2,$3,0*
0 Add four circle primitives for the rounded corners*
1,1,$1+$1,$2,$3*
1,1,$1+$1,$4,$5*
1,1,$1+$1,$6,$7*
1,1,$1+$1,$8,$9*
0 Add four rect primitives between the rounded corners*
20,1,$1+$1,$2,$3,$4,$5,0*
20,1,$1+$1,$4,$5,$6,$7,0*
20,1,$1+$1,$6,$7,$8,$9,0*
20,1,$1+$1,$8,$9,$2,$3,0*%
G04 Aperture macros list end*
%ADD10C,0.150000*%
%ADD11C,1.500000*%
%ADD12C,1.000000*%
%ADD13C,0.120000*%
%ADD14C,8.600000*%
%ADD15C,12.800000*%
%ADD16R,3.000000X3.000000*%
%ADD17R,3.500000X3.500000*%
%ADD18RoundRect,0.750000X1.000000X-0.750000X1.000000X0.750000X-1.000000X0.750000X-1.000000X-0.750000X0*%
%ADD19RoundRect,0.875000X0.875000X-0.875000X0.875000X0.875000X-0.875000X0.875000X-0.875000X-0.875000X0*%
%ADD20R,1.700000X1.700000*%
%ADD21O,1.700000X1.700000*%
%ADD22O,1.500000X2.000000*%
%ADD23C,2.000000*%
%ADD24R,2.000000X3.000000*%
%ADD25C,10.600000*%
G04 APERTURE END LIST*
D10*
X140204819Y-109518220D02*
X139204819Y-109518220D01*
X139204819Y-109518220D02*
X139204819Y-109280125D01*
X139204819Y-109280125D02*
X139252438Y-109137268D01*
X139252438Y-109137268D02*
X139347676Y-109042030D01*
X139347676Y-109042030D02*
X139442914Y-108994411D01*
X139442914Y-108994411D02*
X139633390Y-108946792D01*
X139633390Y-108946792D02*
X139776247Y-108946792D01*
X139776247Y-108946792D02*
X139966723Y-108994411D01*
X139966723Y-108994411D02*
X140061961Y-109042030D01*
X140061961Y-109042030D02*
X140157200Y-109137268D01*
X140157200Y-109137268D02*
X140204819Y-109280125D01*
X140204819Y-109280125D02*
X140204819Y-109518220D01*
X139919104Y-108565839D02*
X139919104Y-108089649D01*
X140204819Y-108661077D02*
X139204819Y-108327744D01*
X139204819Y-108327744D02*
X140204819Y-107994411D01*
X139204819Y-107803934D02*
X139204819Y-107232506D01*
X140204819Y-107518220D02*
X139204819Y-107518220D01*
X139919104Y-106946791D02*
X139919104Y-106470601D01*
X140204819Y-107042029D02*
X139204819Y-106708696D01*
X139204819Y-106708696D02*
X140204819Y-106375363D01*
X139823866Y-106042029D02*
X139823866Y-105280125D01*
X140204819Y-104803934D02*
X139204819Y-104803934D01*
X140204819Y-104327744D02*
X139204819Y-104327744D01*
X139204819Y-104327744D02*
X140204819Y-103756316D01*
X140204819Y-103756316D02*
X139204819Y-103756316D01*
X60194819Y-110788220D02*
X59194819Y-110788220D01*
X59194819Y-110788220D02*
X59194819Y-110550125D01*
X59194819Y-110550125D02*
X59242438Y-110407268D01*
X59242438Y-110407268D02*
X59337676Y-110312030D01*
X59337676Y-110312030D02*
X59432914Y-110264411D01*
X59432914Y-110264411D02*
X59623390Y-110216792D01*
X59623390Y-110216792D02*
X59766247Y-110216792D01*
X59766247Y-110216792D02*
X59956723Y-110264411D01*
X59956723Y-110264411D02*
X60051961Y-110312030D01*
X60051961Y-110312030D02*
X60147200Y-110407268D01*
X60147200Y-110407268D02*
X60194819Y-110550125D01*
X60194819Y-110550125D02*
X60194819Y-110788220D01*
X59909104Y-109835839D02*
X59909104Y-109359649D01*
X60194819Y-109931077D02*
X59194819Y-109597744D01*
X59194819Y-109597744D02*
X60194819Y-109264411D01*
X59194819Y-109073934D02*
X59194819Y-108502506D01*
X60194819Y-108788220D02*
X59194819Y-108788220D01*
X59909104Y-108216791D02*
X59909104Y-107740601D01*
X60194819Y-108312029D02*
X59194819Y-107978696D01*
X59194819Y-107978696D02*
X60194819Y-107645363D01*
X59813866Y-107312029D02*
X59813866Y-106550125D01*
X59194819Y-105883458D02*
X59194819Y-105692982D01*
X59194819Y-105692982D02*
X59242438Y-105597744D01*
X59242438Y-105597744D02*
X59337676Y-105502506D01*
X59337676Y-105502506D02*
X59528152Y-105454887D01*
X59528152Y-105454887D02*
X59861485Y-105454887D01*
X59861485Y-105454887D02*
X60051961Y-105502506D01*
X60051961Y-105502506D02*
X60147200Y-105597744D01*
X60147200Y-105597744D02*
X60194819Y-105692982D01*
X60194819Y-105692982D02*
X60194819Y-105883458D01*
X60194819Y-105883458D02*
X60147200Y-105978696D01*
X60147200Y-105978696D02*
X60051961Y-106073934D01*
X60051961Y-106073934D02*
X59861485Y-106121553D01*
X59861485Y-106121553D02*
X59528152Y-106121553D01*
X59528152Y-106121553D02*
X59337676Y-106073934D01*
X59337676Y-106073934D02*
X59242438Y-105978696D01*
X59242438Y-105978696D02*
X59194819Y-105883458D01*
X59194819Y-105026315D02*
X60004342Y-105026315D01*
X60004342Y-105026315D02*
X60099580Y-104978696D01*
X60099580Y-104978696D02*
X60147200Y-104931077D01*
X60147200Y-104931077D02*
X60194819Y-104835839D01*
X60194819Y-104835839D02*
X60194819Y-104645363D01*
X60194819Y-104645363D02*
X60147200Y-104550125D01*
X60147200Y-104550125D02*
X60099580Y-104502506D01*
X60099580Y-104502506D02*
X60004342Y-104454887D01*
X60004342Y-104454887D02*
X59194819Y-104454887D01*
X59194819Y-104121553D02*
X59194819Y-103550125D01*
X60194819Y-103835839D02*
X59194819Y-103835839D01*
X62353866Y-106343220D02*
X62353866Y-105581316D01*
X62734819Y-105962268D02*
X61972914Y-105962268D01*
X61734819Y-104628935D02*
X61734819Y-105105125D01*
X61734819Y-105105125D02*
X62211009Y-105152744D01*
X62211009Y-105152744D02*
X62163390Y-105105125D01*
X62163390Y-105105125D02*
X62115771Y-105009887D01*
X62115771Y-105009887D02*
X62115771Y-104771792D01*
X62115771Y-104771792D02*
X62163390Y-104676554D01*
X62163390Y-104676554D02*
X62211009Y-104628935D01*
X62211009Y-104628935D02*
X62306247Y-104581316D01*
X62306247Y-104581316D02*
X62544342Y-104581316D01*
X62544342Y-104581316D02*
X62639580Y-104628935D01*
X62639580Y-104628935D02*
X62687200Y-104676554D01*
X62687200Y-104676554D02*
X62734819Y-104771792D01*
X62734819Y-104771792D02*
X62734819Y-105009887D01*
X62734819Y-105009887D02*
X62687200Y-105105125D01*
X62687200Y-105105125D02*
X62639580Y-105152744D01*
X62068152Y-104247982D02*
X62734819Y-104009887D01*
X62734819Y-104009887D02*
X62068152Y-103771792D01*
X142363866Y-106343220D02*
X142363866Y-105581316D01*
X142744819Y-105962268D02*
X141982914Y-105962268D01*
X141744819Y-104628935D02*
X141744819Y-105105125D01*
X141744819Y-105105125D02*
X142221009Y-105152744D01*
X142221009Y-105152744D02*
X142173390Y-105105125D01*
X142173390Y-105105125D02*
X142125771Y-105009887D01*
X142125771Y-105009887D02*
X142125771Y-104771792D01*
X142125771Y-104771792D02*
X142173390Y-104676554D01*
X142173390Y-104676554D02*
X142221009Y-104628935D01*
X142221009Y-104628935D02*
X142316247Y-104581316D01*
X142316247Y-104581316D02*
X142554342Y-104581316D01*
X142554342Y-104581316D02*
X142649580Y-104628935D01*
X142649580Y-104628935D02*
X142697200Y-104676554D01*
X142697200Y-104676554D02*
X142744819Y-104771792D01*
X142744819Y-104771792D02*
X142744819Y-105009887D01*
X142744819Y-105009887D02*
X142697200Y-105105125D01*
X142697200Y-105105125D02*
X142649580Y-105152744D01*
X142078152Y-104247982D02*
X142744819Y-104009887D01*
X142744819Y-104009887D02*
X142078152Y-103771792D01*
X136712438Y-105184411D02*
X136664819Y-105279649D01*
X136664819Y-105279649D02*
X136664819Y-105422506D01*
X136664819Y-105422506D02*
X136712438Y-105565363D01*
X136712438Y-105565363D02*
X136807676Y-105660601D01*
X136807676Y-105660601D02*
X136902914Y-105708220D01*
X136902914Y-105708220D02*
X137093390Y-105755839D01*
X137093390Y-105755839D02*
X137236247Y-105755839D01*
X137236247Y-105755839D02*
X137426723Y-105708220D01*
X137426723Y-105708220D02*
X137521961Y-105660601D01*
X137521961Y-105660601D02*
X137617200Y-105565363D01*
X137617200Y-105565363D02*
X137664819Y-105422506D01*
X137664819Y-105422506D02*
X137664819Y-105327268D01*
X137664819Y-105327268D02*
X137617200Y-105184411D01*
X137617200Y-105184411D02*
X137569580Y-105136792D01*
X137569580Y-105136792D02*
X137236247Y-105136792D01*
X137236247Y-105136792D02*
X137236247Y-105327268D01*
X137664819Y-104708220D02*
X136664819Y-104708220D01*
X136664819Y-104708220D02*
X137664819Y-104136792D01*
X137664819Y-104136792D02*
X136664819Y-104136792D01*
X137664819Y-103660601D02*
X136664819Y-103660601D01*
X136664819Y-103660601D02*
X136664819Y-103422506D01*
X136664819Y-103422506D02*
X136712438Y-103279649D01*
X136712438Y-103279649D02*
X136807676Y-103184411D01*
X136807676Y-103184411D02*
X136902914Y-103136792D01*
X136902914Y-103136792D02*
X137093390Y-103089173D01*
X137093390Y-103089173D02*
X137236247Y-103089173D01*
X137236247Y-103089173D02*
X137426723Y-103136792D01*
X137426723Y-103136792D02*
X137521961Y-103184411D01*
X137521961Y-103184411D02*
X137617200Y-103279649D01*
X137617200Y-103279649D02*
X137664819Y-103422506D01*
X137664819Y-103422506D02*
X137664819Y-103660601D01*
X56702438Y-105819411D02*
X56654819Y-105914649D01*
X56654819Y-105914649D02*
X56654819Y-106057506D01*
X56654819Y-106057506D02*
X56702438Y-106200363D01*
X56702438Y-106200363D02*
X56797676Y-106295601D01*
X56797676Y-106295601D02*
X56892914Y-106343220D01*
X56892914Y-106343220D02*
X57083390Y-106390839D01*
X57083390Y-106390839D02*
X57226247Y-106390839D01*
X57226247Y-106390839D02*
X57416723Y-106343220D01*
X57416723Y-106343220D02*
X57511961Y-106295601D01*
X57511961Y-106295601D02*
X57607200Y-106200363D01*
X57607200Y-106200363D02*
X57654819Y-106057506D01*
X57654819Y-106057506D02*
X57654819Y-105962268D01*
X57654819Y-105962268D02*
X57607200Y-105819411D01*
X57607200Y-105819411D02*
X57559580Y-105771792D01*
X57559580Y-105771792D02*
X57226247Y-105771792D01*
X57226247Y-105771792D02*
X57226247Y-105962268D01*
X57654819Y-105343220D02*
X56654819Y-105343220D01*
X56654819Y-105343220D02*
X57654819Y-104771792D01*
X57654819Y-104771792D02*
X56654819Y-104771792D01*
X57654819Y-104295601D02*
X56654819Y-104295601D01*
X56654819Y-104295601D02*
X56654819Y-104057506D01*
X56654819Y-104057506D02*
X56702438Y-103914649D01*
X56702438Y-103914649D02*
X56797676Y-103819411D01*
X56797676Y-103819411D02*
X56892914Y-103771792D01*
X56892914Y-103771792D02*
X57083390Y-103724173D01*
X57083390Y-103724173D02*
X57226247Y-103724173D01*
X57226247Y-103724173D02*
X57416723Y-103771792D01*
X57416723Y-103771792D02*
X57511961Y-103819411D01*
X57511961Y-103819411D02*
X57607200Y-103914649D01*
X57607200Y-103914649D02*
X57654819Y-104057506D01*
X57654819Y-104057506D02*
X57654819Y-104295601D01*
X72726779Y-150364819D02*
X72726779Y-149364819D01*
X72726779Y-149364819D02*
X72964874Y-149364819D01*
X72964874Y-149364819D02*
X73107731Y-149412438D01*
X73107731Y-149412438D02*
X73202969Y-149507676D01*
X73202969Y-149507676D02*
X73250588Y-149602914D01*
X73250588Y-149602914D02*
X73298207Y-149793390D01*
X73298207Y-149793390D02*
X73298207Y-149936247D01*
X73298207Y-149936247D02*
X73250588Y-150126723D01*
X73250588Y-150126723D02*
X73202969Y-150221961D01*
X73202969Y-150221961D02*
X73107731Y-150317200D01*
X73107731Y-150317200D02*
X72964874Y-150364819D01*
X72964874Y-150364819D02*
X72726779Y-150364819D01*
X73679160Y-150079104D02*
X74155350Y-150079104D01*
X73583922Y-150364819D02*
X73917255Y-149364819D01*
X73917255Y-149364819D02*
X74250588Y-150364819D01*
X74441065Y-149364819D02*
X75012493Y-149364819D01*
X74726779Y-150364819D02*
X74726779Y-149364819D01*
X75298208Y-150079104D02*
X75774398Y-150079104D01*
X75202970Y-150364819D02*
X75536303Y-149364819D01*
X75536303Y-149364819D02*
X75869636Y-150364819D01*
X76202970Y-149983866D02*
X76964875Y-149983866D01*
X77631541Y-149364819D02*
X77822017Y-149364819D01*
X77822017Y-149364819D02*
X77917255Y-149412438D01*
X77917255Y-149412438D02*
X78012493Y-149507676D01*
X78012493Y-149507676D02*
X78060112Y-149698152D01*
X78060112Y-149698152D02*
X78060112Y-150031485D01*
X78060112Y-150031485D02*
X78012493Y-150221961D01*
X78012493Y-150221961D02*
X77917255Y-150317200D01*
X77917255Y-150317200D02*
X77822017Y-150364819D01*
X77822017Y-150364819D02*
X77631541Y-150364819D01*
X77631541Y-150364819D02*
X77536303Y-150317200D01*
X77536303Y-150317200D02*
X77441065Y-150221961D01*
X77441065Y-150221961D02*
X77393446Y-150031485D01*
X77393446Y-150031485D02*
X77393446Y-149698152D01*
X77393446Y-149698152D02*
X77441065Y-149507676D01*
X77441065Y-149507676D02*
X77536303Y-149412438D01*
X77536303Y-149412438D02*
X77631541Y-149364819D01*
X78488684Y-149364819D02*
X78488684Y-150174342D01*
X78488684Y-150174342D02*
X78536303Y-150269580D01*
X78536303Y-150269580D02*
X78583922Y-150317200D01*
X78583922Y-150317200D02*
X78679160Y-150364819D01*
X78679160Y-150364819D02*
X78869636Y-150364819D01*
X78869636Y-150364819D02*
X78964874Y-150317200D01*
X78964874Y-150317200D02*
X79012493Y-150269580D01*
X79012493Y-150269580D02*
X79060112Y-150174342D01*
X79060112Y-150174342D02*
X79060112Y-149364819D01*
X79393446Y-149364819D02*
X79964874Y-149364819D01*
X79679160Y-150364819D02*
X79679160Y-149364819D01*
X122256779Y-150364819D02*
X122256779Y-149364819D01*
X122256779Y-149364819D02*
X122494874Y-149364819D01*
X122494874Y-149364819D02*
X122637731Y-149412438D01*
X122637731Y-149412438D02*
X122732969Y-149507676D01*
X122732969Y-149507676D02*
X122780588Y-149602914D01*
X122780588Y-149602914D02*
X122828207Y-149793390D01*
X122828207Y-149793390D02*
X122828207Y-149936247D01*
X122828207Y-149936247D02*
X122780588Y-150126723D01*
X122780588Y-150126723D02*
X122732969Y-150221961D01*
X122732969Y-150221961D02*
X122637731Y-150317200D01*
X122637731Y-150317200D02*
X122494874Y-150364819D01*
X122494874Y-150364819D02*
X122256779Y-150364819D01*
X123209160Y-150079104D02*
X123685350Y-150079104D01*
X123113922Y-150364819D02*
X123447255Y-149364819D01*
X123447255Y-149364819D02*
X123780588Y-150364819D01*
X123971065Y-149364819D02*
X124542493Y-149364819D01*
X124256779Y-150364819D02*
X124256779Y-149364819D01*
X124828208Y-150079104D02*
X125304398Y-150079104D01*
X124732970Y-150364819D02*
X125066303Y-149364819D01*
X125066303Y-149364819D02*
X125399636Y-150364819D01*
X125732970Y-149983866D02*
X126494875Y-149983866D01*
X126971065Y-150364819D02*
X126971065Y-149364819D01*
X127447255Y-150364819D02*
X127447255Y-149364819D01*
X127447255Y-149364819D02*
X128018683Y-150364819D01*
X128018683Y-150364819D02*
X128018683Y-149364819D01*
X99247438Y-125504411D02*
X99199819Y-125599649D01*
X99199819Y-125599649D02*
X99199819Y-125742506D01*
X99199819Y-125742506D02*
X99247438Y-125885363D01*
X99247438Y-125885363D02*
X99342676Y-125980601D01*
X99342676Y-125980601D02*
X99437914Y-126028220D01*
X99437914Y-126028220D02*
X99628390Y-126075839D01*
X99628390Y-126075839D02*
X99771247Y-126075839D01*
X99771247Y-126075839D02*
X99961723Y-126028220D01*
X99961723Y-126028220D02*
X100056961Y-125980601D01*
X100056961Y-125980601D02*
X100152200Y-125885363D01*
X100152200Y-125885363D02*
X100199819Y-125742506D01*
X100199819Y-125742506D02*
X100199819Y-125647268D01*
X100199819Y-125647268D02*
X100152200Y-125504411D01*
X100152200Y-125504411D02*
X100104580Y-125456792D01*
X100104580Y-125456792D02*
X99771247Y-125456792D01*
X99771247Y-125456792D02*
X99771247Y-125647268D01*
X100199819Y-125028220D02*
X99199819Y-125028220D01*
X99199819Y-125028220D02*
X100199819Y-124456792D01*
X100199819Y-124456792D02*
X99199819Y-124456792D01*
X100199819Y-123980601D02*
X99199819Y-123980601D01*
X99199819Y-123980601D02*
X99199819Y-123742506D01*
X99199819Y-123742506D02*
X99247438Y-123599649D01*
X99247438Y-123599649D02*
X99342676Y-123504411D01*
X99342676Y-123504411D02*
X99437914Y-123456792D01*
X99437914Y-123456792D02*
X99628390Y-123409173D01*
X99628390Y-123409173D02*
X99771247Y-123409173D01*
X99771247Y-123409173D02*
X99961723Y-123456792D01*
X99961723Y-123456792D02*
X100056961Y-123504411D01*
X100056961Y-123504411D02*
X100152200Y-123599649D01*
X100152200Y-123599649D02*
X100199819Y-123742506D01*
X100199819Y-123742506D02*
X100199819Y-123980601D01*
X121960588Y-139837438D02*
X121865350Y-139789819D01*
X121865350Y-139789819D02*
X121722493Y-139789819D01*
X121722493Y-139789819D02*
X121579636Y-139837438D01*
X121579636Y-139837438D02*
X121484398Y-139932676D01*
X121484398Y-139932676D02*
X121436779Y-140027914D01*
X121436779Y-140027914D02*
X121389160Y-140218390D01*
X121389160Y-140218390D02*
X121389160Y-140361247D01*
X121389160Y-140361247D02*
X121436779Y-140551723D01*
X121436779Y-140551723D02*
X121484398Y-140646961D01*
X121484398Y-140646961D02*
X121579636Y-140742200D01*
X121579636Y-140742200D02*
X121722493Y-140789819D01*
X121722493Y-140789819D02*
X121817731Y-140789819D01*
X121817731Y-140789819D02*
X121960588Y-140742200D01*
X121960588Y-140742200D02*
X122008207Y-140694580D01*
X122008207Y-140694580D02*
X122008207Y-140361247D01*
X122008207Y-140361247D02*
X121817731Y-140361247D01*
X122436779Y-140789819D02*
X122436779Y-139789819D01*
X122436779Y-139789819D02*
X123008207Y-140789819D01*
X123008207Y-140789819D02*
X123008207Y-139789819D01*
X123484398Y-140789819D02*
X123484398Y-139789819D01*
X123484398Y-139789819D02*
X123722493Y-139789819D01*
X123722493Y-139789819D02*
X123865350Y-139837438D01*
X123865350Y-139837438D02*
X123960588Y-139932676D01*
X123960588Y-139932676D02*
X124008207Y-140027914D01*
X124008207Y-140027914D02*
X124055826Y-140218390D01*
X124055826Y-140218390D02*
X124055826Y-140361247D01*
X124055826Y-140361247D02*
X124008207Y-140551723D01*
X124008207Y-140551723D02*
X123960588Y-140646961D01*
X123960588Y-140646961D02*
X123865350Y-140742200D01*
X123865350Y-140742200D02*
X123722493Y-140789819D01*
X123722493Y-140789819D02*
X123484398Y-140789819D01*
X77695588Y-146872438D02*
X77600350Y-146824819D01*
X77600350Y-146824819D02*
X77457493Y-146824819D01*
X77457493Y-146824819D02*
X77314636Y-146872438D01*
X77314636Y-146872438D02*
X77219398Y-146967676D01*
X77219398Y-146967676D02*
X77171779Y-147062914D01*
X77171779Y-147062914D02*
X77124160Y-147253390D01*
X77124160Y-147253390D02*
X77124160Y-147396247D01*
X77124160Y-147396247D02*
X77171779Y-147586723D01*
X77171779Y-147586723D02*
X77219398Y-147681961D01*
X77219398Y-147681961D02*
X77314636Y-147777200D01*
X77314636Y-147777200D02*
X77457493Y-147824819D01*
X77457493Y-147824819D02*
X77552731Y-147824819D01*
X77552731Y-147824819D02*
X77695588Y-147777200D01*
X77695588Y-147777200D02*
X77743207Y-147729580D01*
X77743207Y-147729580D02*
X77743207Y-147396247D01*
X77743207Y-147396247D02*
X77552731Y-147396247D01*
X78171779Y-147824819D02*
X78171779Y-146824819D01*
X78171779Y-146824819D02*
X78743207Y-147824819D01*
X78743207Y-147824819D02*
X78743207Y-146824819D01*
X79219398Y-147824819D02*
X79219398Y-146824819D01*
X79219398Y-146824819D02*
X79457493Y-146824819D01*
X79457493Y-146824819D02*
X79600350Y-146872438D01*
X79600350Y-146872438D02*
X79695588Y-146967676D01*
X79695588Y-146967676D02*
X79743207Y-147062914D01*
X79743207Y-147062914D02*
X79790826Y-147253390D01*
X79790826Y-147253390D02*
X79790826Y-147396247D01*
X79790826Y-147396247D02*
X79743207Y-147586723D01*
X79743207Y-147586723D02*
X79695588Y-147681961D01*
X79695588Y-147681961D02*
X79600350Y-147777200D01*
X79600350Y-147777200D02*
X79457493Y-147824819D01*
X79457493Y-147824819D02*
X79219398Y-147824819D01*
X122780588Y-151952438D02*
X122685350Y-151904819D01*
X122685350Y-151904819D02*
X122542493Y-151904819D01*
X122542493Y-151904819D02*
X122399636Y-151952438D01*
X122399636Y-151952438D02*
X122304398Y-152047676D01*
X122304398Y-152047676D02*
X122256779Y-152142914D01*
X122256779Y-152142914D02*
X122209160Y-152333390D01*
X122209160Y-152333390D02*
X122209160Y-152476247D01*
X122209160Y-152476247D02*
X122256779Y-152666723D01*
X122256779Y-152666723D02*
X122304398Y-152761961D01*
X122304398Y-152761961D02*
X122399636Y-152857200D01*
X122399636Y-152857200D02*
X122542493Y-152904819D01*
X122542493Y-152904819D02*
X122637731Y-152904819D01*
X122637731Y-152904819D02*
X122780588Y-152857200D01*
X122780588Y-152857200D02*
X122828207Y-152809580D01*
X122828207Y-152809580D02*
X122828207Y-152476247D01*
X122828207Y-152476247D02*
X122637731Y-152476247D01*
X123256779Y-152904819D02*
X123256779Y-151904819D01*
X123256779Y-151904819D02*
X123828207Y-152904819D01*
X123828207Y-152904819D02*
X123828207Y-151904819D01*
X124304398Y-152904819D02*
X124304398Y-151904819D01*
X124304398Y-151904819D02*
X124542493Y-151904819D01*
X124542493Y-151904819D02*
X124685350Y-151952438D01*
X124685350Y-151952438D02*
X124780588Y-152047676D01*
X124780588Y-152047676D02*
X124828207Y-152142914D01*
X124828207Y-152142914D02*
X124875826Y-152333390D01*
X124875826Y-152333390D02*
X124875826Y-152476247D01*
X124875826Y-152476247D02*
X124828207Y-152666723D01*
X124828207Y-152666723D02*
X124780588Y-152761961D01*
X124780588Y-152761961D02*
X124685350Y-152857200D01*
X124685350Y-152857200D02*
X124542493Y-152904819D01*
X124542493Y-152904819D02*
X124304398Y-152904819D01*
X97278866Y-175558220D02*
X97278866Y-174796316D01*
X97659819Y-175177268D02*
X96897914Y-175177268D01*
X96659819Y-173843935D02*
X96659819Y-174320125D01*
X96659819Y-174320125D02*
X97136009Y-174367744D01*
X97136009Y-174367744D02*
X97088390Y-174320125D01*
X97088390Y-174320125D02*
X97040771Y-174224887D01*
X97040771Y-174224887D02*
X97040771Y-173986792D01*
X97040771Y-173986792D02*
X97088390Y-173891554D01*
X97088390Y-173891554D02*
X97136009Y-173843935D01*
X97136009Y-173843935D02*
X97231247Y-173796316D01*
X97231247Y-173796316D02*
X97469342Y-173796316D01*
X97469342Y-173796316D02*
X97564580Y-173843935D01*
X97564580Y-173843935D02*
X97612200Y-173891554D01*
X97612200Y-173891554D02*
X97659819Y-173986792D01*
X97659819Y-173986792D02*
X97659819Y-174224887D01*
X97659819Y-174224887D02*
X97612200Y-174320125D01*
X97612200Y-174320125D02*
X97564580Y-174367744D01*
X96993152Y-173462982D02*
X97659819Y-173224887D01*
X97659819Y-173224887D02*
X96993152Y-172986792D01*
X102358866Y-126028220D02*
X102358866Y-125266316D01*
X102739819Y-125647268D02*
X101977914Y-125647268D01*
X101739819Y-124313935D02*
X101739819Y-124790125D01*
X101739819Y-124790125D02*
X102216009Y-124837744D01*
X102216009Y-124837744D02*
X102168390Y-124790125D01*
X102168390Y-124790125D02*
X102120771Y-124694887D01*
X102120771Y-124694887D02*
X102120771Y-124456792D01*
X102120771Y-124456792D02*
X102168390Y-124361554D01*
X102168390Y-124361554D02*
X102216009Y-124313935D01*
X102216009Y-124313935D02*
X102311247Y-124266316D01*
X102311247Y-124266316D02*
X102549342Y-124266316D01*
X102549342Y-124266316D02*
X102644580Y-124313935D01*
X102644580Y-124313935D02*
X102692200Y-124361554D01*
X102692200Y-124361554D02*
X102739819Y-124456792D01*
X102739819Y-124456792D02*
X102739819Y-124694887D01*
X102739819Y-124694887D02*
X102692200Y-124790125D01*
X102692200Y-124790125D02*
X102644580Y-124837744D01*
X102073152Y-123932982D02*
X102739819Y-123694887D01*
X102739819Y-123694887D02*
X102073152Y-123456792D01*
X121436779Y-137868866D02*
X122198684Y-137868866D01*
X121817731Y-138249819D02*
X121817731Y-137487914D01*
X123151064Y-137249819D02*
X122674874Y-137249819D01*
X122674874Y-137249819D02*
X122627255Y-137726009D01*
X122627255Y-137726009D02*
X122674874Y-137678390D01*
X122674874Y-137678390D02*
X122770112Y-137630771D01*
X122770112Y-137630771D02*
X123008207Y-137630771D01*
X123008207Y-137630771D02*
X123103445Y-137678390D01*
X123103445Y-137678390D02*
X123151064Y-137726009D01*
X123151064Y-137726009D02*
X123198683Y-137821247D01*
X123198683Y-137821247D02*
X123198683Y-138059342D01*
X123198683Y-138059342D02*
X123151064Y-138154580D01*
X123151064Y-138154580D02*
X123103445Y-138202200D01*
X123103445Y-138202200D02*
X123008207Y-138249819D01*
X123008207Y-138249819D02*
X122770112Y-138249819D01*
X122770112Y-138249819D02*
X122674874Y-138202200D01*
X122674874Y-138202200D02*
X122627255Y-138154580D01*
X123532017Y-137583152D02*
X123770112Y-138249819D01*
X123770112Y-138249819D02*
X124008207Y-137583152D01*
X77171779Y-152523866D02*
X77933684Y-152523866D01*
X77552731Y-152904819D02*
X77552731Y-152142914D01*
X78886064Y-151904819D02*
X78409874Y-151904819D01*
X78409874Y-151904819D02*
X78362255Y-152381009D01*
X78362255Y-152381009D02*
X78409874Y-152333390D01*
X78409874Y-152333390D02*
X78505112Y-152285771D01*
X78505112Y-152285771D02*
X78743207Y-152285771D01*
X78743207Y-152285771D02*
X78838445Y-152333390D01*
X78838445Y-152333390D02*
X78886064Y-152381009D01*
X78886064Y-152381009D02*
X78933683Y-152476247D01*
X78933683Y-152476247D02*
X78933683Y-152714342D01*
X78933683Y-152714342D02*
X78886064Y-152809580D01*
X78886064Y-152809580D02*
X78838445Y-152857200D01*
X78838445Y-152857200D02*
X78743207Y-152904819D01*
X78743207Y-152904819D02*
X78505112Y-152904819D01*
X78505112Y-152904819D02*
X78409874Y-152857200D01*
X78409874Y-152857200D02*
X78362255Y-152809580D01*
X79267017Y-152238152D02*
X79505112Y-152904819D01*
X79505112Y-152904819D02*
X79743207Y-152238152D01*
X122256779Y-147443866D02*
X123018684Y-147443866D01*
X122637731Y-147824819D02*
X122637731Y-147062914D01*
X123971064Y-146824819D02*
X123494874Y-146824819D01*
X123494874Y-146824819D02*
X123447255Y-147301009D01*
X123447255Y-147301009D02*
X123494874Y-147253390D01*
X123494874Y-147253390D02*
X123590112Y-147205771D01*
X123590112Y-147205771D02*
X123828207Y-147205771D01*
X123828207Y-147205771D02*
X123923445Y-147253390D01*
X123923445Y-147253390D02*
X123971064Y-147301009D01*
X123971064Y-147301009D02*
X124018683Y-147396247D01*
X124018683Y-147396247D02*
X124018683Y-147634342D01*
X124018683Y-147634342D02*
X123971064Y-147729580D01*
X123971064Y-147729580D02*
X123923445Y-147777200D01*
X123923445Y-147777200D02*
X123828207Y-147824819D01*
X123828207Y-147824819D02*
X123590112Y-147824819D01*
X123590112Y-147824819D02*
X123494874Y-147777200D01*
X123494874Y-147777200D02*
X123447255Y-147729580D01*
X124352017Y-147158152D02*
X124590112Y-147824819D01*
X124590112Y-147824819D02*
X124828207Y-147158152D01*
G36*
X61265917Y-157878325D02*
G01*
X61769057Y-157878325D01*
X60321186Y-161880000D01*
X59860055Y-161880000D01*
X58420000Y-157878325D01*
X58914347Y-157878325D01*
X59837585Y-160467299D01*
X59857235Y-160523009D01*
X59876374Y-160578521D01*
X59895001Y-160633834D01*
X59913117Y-160688949D01*
X59930722Y-160743866D01*
X59947815Y-160798584D01*
X59964397Y-160853103D01*
X59980467Y-160907424D01*
X59996026Y-160961547D01*
X60011074Y-161015471D01*
X60025610Y-161069197D01*
X60039635Y-161122725D01*
X60053148Y-161176053D01*
X60066150Y-161229184D01*
X60078641Y-161282116D01*
X60090621Y-161334849D01*
X60103191Y-161279418D01*
X60116236Y-161224009D01*
X60129753Y-161168623D01*
X60143743Y-161113260D01*
X60158207Y-161057920D01*
X60173144Y-161002603D01*
X60188554Y-160947309D01*
X60204438Y-160892037D01*
X60220794Y-160836789D01*
X60237624Y-160781563D01*
X60254927Y-160726360D01*
X60272704Y-160671181D01*
X60290953Y-160616024D01*
X60309676Y-160560890D01*
X60328872Y-160505779D01*
X60348541Y-160450690D01*
X61265917Y-157878325D01*
G37*
G36*
X64668709Y-161880000D02*
G01*
X62027955Y-161880000D01*
X62027955Y-161488234D01*
X63086015Y-160428220D01*
X63115917Y-160397963D01*
X63145175Y-160368255D01*
X63173788Y-160339093D01*
X63201755Y-160310480D01*
X63229078Y-160282414D01*
X63281789Y-160227925D01*
X63331920Y-160175626D01*
X63379471Y-160125518D01*
X63424442Y-160077601D01*
X63466833Y-160031874D01*
X63506645Y-159988338D01*
X63543877Y-159946992D01*
X63578529Y-159907837D01*
X63610601Y-159870872D01*
X63640093Y-159836098D01*
X63667006Y-159803515D01*
X63702537Y-159758747D01*
X63723000Y-159731639D01*
X63751265Y-159692716D01*
X63778172Y-159653982D01*
X63803723Y-159615436D01*
X63827918Y-159577079D01*
X63850755Y-159538912D01*
X63872236Y-159500933D01*
X63892361Y-159463143D01*
X63911128Y-159425542D01*
X63928539Y-159388130D01*
X63944593Y-159350907D01*
X63954542Y-159326196D01*
X63968335Y-159288927D01*
X63980772Y-159251126D01*
X63991851Y-159212792D01*
X64001574Y-159173926D01*
X64009941Y-159134528D01*
X64016950Y-159094597D01*
X64022603Y-159054134D01*
X64026899Y-159013138D01*
X64029839Y-158971610D01*
X64031422Y-158929550D01*
X64031723Y-158901214D01*
X64030960Y-158861677D01*
X64026953Y-158804318D01*
X64019511Y-158749295D01*
X64008635Y-158696607D01*
X63994323Y-158646255D01*
X63976578Y-158598238D01*
X63955397Y-158552557D01*
X63930782Y-158509212D01*
X63902732Y-158468202D01*
X63871248Y-158429527D01*
X63836329Y-158393189D01*
X63798536Y-158359666D01*
X63758064Y-158329441D01*
X63714913Y-158302513D01*
X63669084Y-158278883D01*
X63620575Y-158258550D01*
X63569387Y-158241514D01*
X63515520Y-158227775D01*
X63458974Y-158217334D01*
X63419788Y-158212205D01*
X63379412Y-158208541D01*
X63337844Y-158206343D01*
X63295087Y-158205610D01*
X63248424Y-158206340D01*
X63202225Y-158208530D01*
X63156489Y-158212179D01*
X63111218Y-158217288D01*
X63066410Y-158223857D01*
X63022065Y-158231885D01*
X62978184Y-158241374D01*
X62934767Y-158252322D01*
X62891814Y-158264729D01*
X62849324Y-158278597D01*
X62821256Y-158288653D01*
X62778860Y-158305225D01*
X62735572Y-158324167D01*
X62691391Y-158345479D01*
X62646317Y-158369161D01*
X62600349Y-158395213D01*
X62553489Y-158423635D01*
X62505736Y-158454427D01*
X62457090Y-158487588D01*
X62424163Y-158511013D01*
X62390839Y-158535491D01*
X62357118Y-158561022D01*
X62323000Y-158587606D01*
X62080711Y-158277906D01*
X62115491Y-158249476D01*
X62150466Y-158221948D01*
X62185635Y-158195322D01*
X62220998Y-158169600D01*
X62256557Y-158144779D01*
X62292310Y-158120862D01*
X62328257Y-158097847D01*
X62364399Y-158075734D01*
X62400736Y-158054524D01*
X62437268Y-158034217D01*
X62473994Y-158014812D01*
X62510915Y-157996309D01*
X62548030Y-157978709D01*
X62585340Y-157962012D01*
X62622845Y-157946218D01*
X62660544Y-157931325D01*
X62698438Y-157917336D01*
X62736526Y-157904249D01*
X62774809Y-157892064D01*
X62813287Y-157880782D01*
X62851960Y-157870403D01*
X62890827Y-157860926D01*
X62929888Y-157852352D01*
X62969145Y-157844680D01*
X63008596Y-157837911D01*
X63048241Y-157832044D01*
X63088081Y-157827080D01*
X63128116Y-157823019D01*
X63168346Y-157819860D01*
X63208770Y-157817604D01*
X63249389Y-157816250D01*
X63290202Y-157815799D01*
X63359956Y-157816928D01*
X63427802Y-157820317D01*
X63493740Y-157825965D01*
X63557770Y-157833872D01*
X63619892Y-157844039D01*
X63680105Y-157856465D01*
X63738410Y-157871150D01*
X63794808Y-157888094D01*
X63849297Y-157907298D01*
X63901878Y-157928761D01*
X63952550Y-157952483D01*
X64001315Y-157978464D01*
X64048171Y-158006705D01*
X64093120Y-158037205D01*
X64136160Y-158069964D01*
X64177292Y-158104982D01*
X64216214Y-158141905D01*
X64252626Y-158180377D01*
X64286526Y-158220398D01*
X64317915Y-158261969D01*
X64346793Y-158305089D01*
X64373159Y-158349759D01*
X64397015Y-158395978D01*
X64418360Y-158443747D01*
X64437193Y-158493065D01*
X64453515Y-158543932D01*
X64467326Y-158596349D01*
X64478627Y-158650315D01*
X64487415Y-158705831D01*
X64493693Y-158762896D01*
X64497460Y-158821510D01*
X64498715Y-158881674D01*
X64497876Y-158929267D01*
X64495357Y-158976792D01*
X64491159Y-159024247D01*
X64485282Y-159071634D01*
X64477726Y-159118952D01*
X64468490Y-159166202D01*
X64457576Y-159213383D01*
X64444982Y-159260495D01*
X64430709Y-159307538D01*
X64414757Y-159354513D01*
X64397126Y-159401419D01*
X64377815Y-159448257D01*
X64356826Y-159495025D01*
X64334157Y-159541725D01*
X64309809Y-159588357D01*
X64283782Y-159634919D01*
X64255576Y-159682222D01*
X64224446Y-159731075D01*
X64190393Y-159781476D01*
X64153417Y-159833428D01*
X64113518Y-159886928D01*
X64070695Y-159941978D01*
X64024949Y-159998578D01*
X63976280Y-160056727D01*
X63924688Y-160116425D01*
X63897795Y-160146855D01*
X63870172Y-160177673D01*
X63841818Y-160208878D01*
X63812733Y-160240470D01*
X63782917Y-160272449D01*
X63752370Y-160304816D01*
X63721093Y-160337571D01*
X63689085Y-160370712D01*
X63656346Y-160404241D01*
X63622876Y-160438158D01*
X63588675Y-160472461D01*
X63553744Y-160507152D01*
X63518081Y-160542231D01*
X63481688Y-160577697D01*
X62602414Y-161435478D01*
X62602414Y-161456971D01*
X64668709Y-161456971D01*
X64668709Y-161880000D01*
G37*
D11*
X93980000Y-149860000D02*
X97790000Y-153670000D01*
D10*
X97790000Y-146050000D02*
X93980000Y-149860000D01*
D11*
X93980000Y-149860000D02*
X97790000Y-146050000D01*
X107950000Y-149860000D02*
X93980000Y-149860000D01*
D10*
G36*
X81879547Y-155240626D02*
G01*
X81966980Y-155246224D01*
X82052748Y-155255460D01*
X82136768Y-155268259D01*
X82218961Y-155284543D01*
X82299243Y-155304238D01*
X82377534Y-155327267D01*
X82453752Y-155353553D01*
X82527816Y-155383020D01*
X82599645Y-155415593D01*
X82669156Y-155451194D01*
X82736269Y-155489749D01*
X82800902Y-155531180D01*
X82862974Y-155575411D01*
X82922403Y-155622366D01*
X82979107Y-155671969D01*
X83033006Y-155724144D01*
X83084018Y-155778814D01*
X83132061Y-155835904D01*
X83177054Y-155895337D01*
X83218916Y-155957037D01*
X83257565Y-156020927D01*
X83292919Y-156086932D01*
X83324898Y-156154975D01*
X83353419Y-156224980D01*
X83378402Y-156296871D01*
X83399765Y-156370571D01*
X83417426Y-156446005D01*
X83431305Y-156523096D01*
X83441318Y-156601769D01*
X83447386Y-156681946D01*
X83449427Y-156763551D01*
X83447386Y-156845088D01*
X83441318Y-156925197D01*
X83431305Y-157003801D01*
X83417426Y-157080824D01*
X83399765Y-157156191D01*
X83378402Y-157229825D01*
X83353419Y-157301650D01*
X83324898Y-157371590D01*
X83292919Y-157439569D01*
X83257565Y-157505512D01*
X83218916Y-157569341D01*
X83177054Y-157630980D01*
X83132061Y-157690355D01*
X83084018Y-157747388D01*
X83033006Y-157802004D01*
X82979107Y-157854126D01*
X82922403Y-157903679D01*
X82862974Y-157950586D01*
X82800902Y-157994772D01*
X82736269Y-158036159D01*
X82669156Y-158074673D01*
X82599645Y-158110237D01*
X82527816Y-158142775D01*
X82453752Y-158172211D01*
X82377534Y-158198468D01*
X82299243Y-158221472D01*
X82218961Y-158241145D01*
X82136768Y-158257412D01*
X82052748Y-158270196D01*
X81966980Y-158279422D01*
X81879547Y-158285013D01*
X81790530Y-158286894D01*
X81701513Y-158285013D01*
X81614079Y-158279422D01*
X81528312Y-158270196D01*
X81444291Y-158257412D01*
X81362099Y-158241145D01*
X81281817Y-158221472D01*
X81203526Y-158198468D01*
X81127307Y-158172211D01*
X81053243Y-158142775D01*
X80981415Y-158110237D01*
X80911903Y-158074673D01*
X80844791Y-158036159D01*
X80780158Y-157994772D01*
X80718086Y-157950586D01*
X80658657Y-157903679D01*
X80601953Y-157854126D01*
X80548054Y-157802004D01*
X80497042Y-157747388D01*
X80448999Y-157690355D01*
X80404006Y-157630980D01*
X80362144Y-157569341D01*
X80323495Y-157505512D01*
X80288141Y-157439569D01*
X80256162Y-157371590D01*
X80227640Y-157301650D01*
X80202658Y-157229825D01*
X80181295Y-157156191D01*
X80163633Y-157080824D01*
X80149755Y-157003801D01*
X80139741Y-156925197D01*
X80133673Y-156845088D01*
X80131632Y-156763551D01*
X81131074Y-156763551D01*
X81131928Y-156805140D01*
X81134463Y-156845677D01*
X81138639Y-156885143D01*
X81144414Y-156923522D01*
X81151748Y-156960797D01*
X81160600Y-156996948D01*
X81170930Y-157031960D01*
X81182697Y-157065813D01*
X81195861Y-157098492D01*
X81210380Y-157129977D01*
X81226214Y-157160253D01*
X81243323Y-157189300D01*
X81261666Y-157217101D01*
X81281202Y-157243639D01*
X81301890Y-157268897D01*
X81323690Y-157292856D01*
X81346561Y-157315500D01*
X81370463Y-157336809D01*
X81395355Y-157356768D01*
X81421196Y-157375358D01*
X81447946Y-157392562D01*
X81475563Y-157408362D01*
X81504008Y-157422741D01*
X81533239Y-157435681D01*
X81563216Y-157447164D01*
X81593899Y-157457174D01*
X81625246Y-157465691D01*
X81657218Y-157472700D01*
X81689772Y-157478181D01*
X81722870Y-157482118D01*
X81756469Y-157484493D01*
X81790530Y-157485289D01*
X81824591Y-157484493D01*
X81858190Y-157482118D01*
X81891287Y-157478181D01*
X81923842Y-157472700D01*
X81955813Y-157465691D01*
X81987161Y-157457174D01*
X82017843Y-157447164D01*
X82047821Y-157435681D01*
X82077052Y-157422741D01*
X82105497Y-157408362D01*
X82133114Y-157392562D01*
X82159864Y-157375358D01*
X82185705Y-157356768D01*
X82210596Y-157336809D01*
X82234498Y-157315500D01*
X82257370Y-157292856D01*
X82279170Y-157268897D01*
X82299858Y-157243639D01*
X82319394Y-157217101D01*
X82337736Y-157189300D01*
X82354845Y-157160253D01*
X82370680Y-157129977D01*
X82385199Y-157098492D01*
X82398363Y-157065813D01*
X82410130Y-157031960D01*
X82420460Y-156996948D01*
X82429312Y-156960797D01*
X82436646Y-156923522D01*
X82442421Y-156885143D01*
X82446596Y-156845677D01*
X82449132Y-156805140D01*
X82449986Y-156763551D01*
X82449132Y-156721896D01*
X82446596Y-156681297D01*
X82442421Y-156641772D01*
X82436646Y-156603339D01*
X82429312Y-156566014D01*
X82420460Y-156529815D01*
X82410130Y-156494760D01*
X82398363Y-156460866D01*
X82385199Y-156428150D01*
X82370680Y-156396631D01*
X82354845Y-156366325D01*
X82337736Y-156337249D01*
X82319394Y-156309422D01*
X82299858Y-156282861D01*
X82279170Y-156257583D01*
X82257370Y-156233606D01*
X82234498Y-156210946D01*
X82210596Y-156189622D01*
X82185705Y-156169651D01*
X82159864Y-156151051D01*
X82133114Y-156133838D01*
X82105497Y-156118030D01*
X82077052Y-156103645D01*
X82047821Y-156090701D01*
X82017843Y-156079213D01*
X81987161Y-156069201D01*
X81955813Y-156060682D01*
X81923842Y-156053672D01*
X81891287Y-156048190D01*
X81858190Y-156044252D01*
X81824591Y-156041877D01*
X81790530Y-156041081D01*
X81756469Y-156041877D01*
X81722870Y-156044252D01*
X81689772Y-156048190D01*
X81657218Y-156053672D01*
X81625246Y-156060682D01*
X81593899Y-156069201D01*
X81563216Y-156079213D01*
X81533239Y-156090701D01*
X81504008Y-156103645D01*
X81475563Y-156118030D01*
X81447946Y-156133838D01*
X81421196Y-156151051D01*
X81395355Y-156169651D01*
X81370463Y-156189622D01*
X81346561Y-156210946D01*
X81323690Y-156233606D01*
X81301890Y-156257583D01*
X81281202Y-156282861D01*
X81261666Y-156309422D01*
X81243323Y-156337249D01*
X81226214Y-156366325D01*
X81210380Y-156396631D01*
X81195861Y-156428150D01*
X81182697Y-156460866D01*
X81170930Y-156494760D01*
X81160600Y-156529815D01*
X81151748Y-156566014D01*
X81144414Y-156603339D01*
X81138639Y-156641772D01*
X81134463Y-156681297D01*
X81131928Y-156721896D01*
X81131074Y-156763551D01*
X80131632Y-156763551D01*
X80133673Y-156681946D01*
X80139741Y-156601769D01*
X80149755Y-156523096D01*
X80163633Y-156446005D01*
X80181295Y-156370571D01*
X80202658Y-156296871D01*
X80227640Y-156224980D01*
X80256162Y-156154975D01*
X80288141Y-156086932D01*
X80323495Y-156020927D01*
X80362144Y-155957037D01*
X80404006Y-155895337D01*
X80448999Y-155835904D01*
X80497042Y-155778814D01*
X80548054Y-155724144D01*
X80601953Y-155671969D01*
X80658657Y-155622366D01*
X80718086Y-155575411D01*
X80780158Y-155531180D01*
X80844791Y-155489749D01*
X80911903Y-155451194D01*
X80981415Y-155415593D01*
X81053243Y-155383020D01*
X81127307Y-155353553D01*
X81203526Y-155327267D01*
X81281817Y-155304238D01*
X81362099Y-155284543D01*
X81444291Y-155268259D01*
X81528312Y-155255460D01*
X81614079Y-155246224D01*
X81701513Y-155240626D01*
X81790530Y-155238743D01*
X81879547Y-155240626D01*
G37*
G36*
X85217501Y-158286894D02*
G01*
X85301032Y-158285411D01*
X85382344Y-158280976D01*
X85461410Y-158273616D01*
X85538202Y-158263355D01*
X85612689Y-158250217D01*
X85684845Y-158234228D01*
X85754641Y-158215411D01*
X85822048Y-158193792D01*
X85887038Y-158169395D01*
X85949582Y-158142245D01*
X86009652Y-158112366D01*
X86067220Y-158079784D01*
X86122257Y-158044523D01*
X86174735Y-158006607D01*
X86224624Y-157966062D01*
X86271898Y-157922911D01*
X86316526Y-157877181D01*
X86358482Y-157828894D01*
X86397736Y-157778077D01*
X86434260Y-157724754D01*
X86468025Y-157668949D01*
X86499004Y-157610687D01*
X86527167Y-157549993D01*
X86552487Y-157486892D01*
X86574934Y-157421408D01*
X86594481Y-157353565D01*
X86611098Y-157283390D01*
X86624758Y-157210905D01*
X86635432Y-157136137D01*
X86643091Y-157059109D01*
X86647708Y-156979846D01*
X86649253Y-156898374D01*
X86649253Y-155285638D01*
X85674724Y-155285638D01*
X85674724Y-156869064D01*
X85674221Y-156910286D01*
X85672722Y-156949884D01*
X85670239Y-156987879D01*
X85666784Y-157024291D01*
X85662369Y-157059142D01*
X85657007Y-157092452D01*
X85650711Y-157124241D01*
X85643491Y-157154531D01*
X85635362Y-157183341D01*
X85616422Y-157236608D01*
X85593989Y-157284207D01*
X85568162Y-157326302D01*
X85539040Y-157363060D01*
X85506722Y-157394645D01*
X85471306Y-157421224D01*
X85432891Y-157442960D01*
X85391576Y-157460020D01*
X85347460Y-157472569D01*
X85300641Y-157480772D01*
X85251218Y-157484794D01*
X85225561Y-157485289D01*
X85174873Y-157483295D01*
X85126740Y-157477203D01*
X85081260Y-157466848D01*
X85038532Y-157452064D01*
X84998655Y-157432687D01*
X84961727Y-157408550D01*
X84927848Y-157379489D01*
X84897116Y-157345338D01*
X84869629Y-157305932D01*
X84845487Y-157261106D01*
X84824788Y-157210694D01*
X84807631Y-157154531D01*
X84800412Y-157124241D01*
X84794115Y-157092452D01*
X84788753Y-157059142D01*
X84784338Y-157024291D01*
X84780883Y-156987879D01*
X84778400Y-156949884D01*
X84776901Y-156910286D01*
X84776399Y-156869064D01*
X84776399Y-155285638D01*
X83785017Y-155285638D01*
X83785017Y-156898374D01*
X83786562Y-156979846D01*
X83791179Y-157059109D01*
X83798839Y-157136137D01*
X83809513Y-157210905D01*
X83823174Y-157283390D01*
X83839794Y-157353565D01*
X83859343Y-157421408D01*
X83881794Y-157486892D01*
X83907119Y-157549993D01*
X83935288Y-157610687D01*
X83966274Y-157668949D01*
X84000048Y-157724754D01*
X84036583Y-157778077D01*
X84075849Y-157828894D01*
X84117819Y-157877181D01*
X84162464Y-157922911D01*
X84209755Y-157966062D01*
X84259666Y-158006607D01*
X84312166Y-158044523D01*
X84367228Y-158079784D01*
X84424824Y-158112366D01*
X84484926Y-158142245D01*
X84547504Y-158169395D01*
X84612531Y-158193792D01*
X84679978Y-158215411D01*
X84749817Y-158234228D01*
X84822020Y-158250217D01*
X84896559Y-158263355D01*
X84973405Y-158273616D01*
X85052529Y-158280976D01*
X85133904Y-158285411D01*
X85217501Y-158286894D01*
G37*
G36*
X88689902Y-158240000D02*
G01*
X88689902Y-156055003D01*
X89551591Y-156055003D01*
X89551591Y-155285638D01*
X86837564Y-155285638D01*
X86837564Y-156055003D01*
X87699253Y-156055003D01*
X87699253Y-158240000D01*
X88689902Y-158240000D01*
G37*
G36*
X114260251Y-158240000D02*
G01*
X114260251Y-155285638D01*
X113268869Y-155285638D01*
X113268869Y-158240000D01*
X114260251Y-158240000D01*
G37*
G36*
X116669462Y-156627997D02*
G01*
X115552051Y-155285638D01*
X114737257Y-155285638D01*
X114737257Y-158240000D01*
X115703726Y-158240000D01*
X115703726Y-156898374D01*
X116821137Y-158240000D01*
X117635931Y-158240000D01*
X117635931Y-155285638D01*
X116669462Y-155285638D01*
X116669462Y-156627997D01*
G37*
X103324874Y-120235533D02*
X104848684Y-120235533D01*
X104086779Y-120997438D02*
X104086779Y-119473628D01*
D12*
G36*
X35552336Y-140198211D02*
G01*
X35603884Y-140199127D01*
X35654994Y-140200654D01*
X35705665Y-140202791D01*
X35755897Y-140205539D01*
X35805690Y-140208897D01*
X35855044Y-140212866D01*
X35903960Y-140217445D01*
X36000474Y-140228436D01*
X36095232Y-140241870D01*
X36188235Y-140257745D01*
X36279483Y-140276064D01*
X36368975Y-140296824D01*
X36456712Y-140320027D01*
X36542693Y-140345673D01*
X36626919Y-140373761D01*
X36709389Y-140404291D01*
X36790103Y-140437264D01*
X36869062Y-140472679D01*
X36946266Y-140510537D01*
X37021609Y-140550622D01*
X37094682Y-140592721D01*
X37165484Y-140636832D01*
X37234015Y-140682957D01*
X37300275Y-140731095D01*
X37364265Y-140781246D01*
X37425984Y-140833410D01*
X37485432Y-140887587D01*
X37542610Y-140943777D01*
X37597517Y-141001980D01*
X37650153Y-141062197D01*
X37700519Y-141124426D01*
X37748613Y-141188669D01*
X37794438Y-141254924D01*
X37837991Y-141323193D01*
X37879274Y-141393475D01*
X37918167Y-141465474D01*
X37954550Y-141538895D01*
X37988425Y-141613737D01*
X38019790Y-141690001D01*
X38048646Y-141767686D01*
X38074992Y-141846793D01*
X38098830Y-141927322D01*
X38120158Y-142009272D01*
X38138977Y-142092644D01*
X38155287Y-142177437D01*
X38169088Y-142263652D01*
X38180379Y-142351288D01*
X38189162Y-142440346D01*
X38195435Y-142530826D01*
X38199198Y-142622727D01*
X38200453Y-142716050D01*
X38199599Y-142794236D01*
X38197038Y-142871564D01*
X38192768Y-142948033D01*
X38186791Y-143023643D01*
X38179106Y-143098395D01*
X38169713Y-143172288D01*
X38158612Y-143245322D01*
X38145804Y-143317498D01*
X38131288Y-143388815D01*
X38115064Y-143459273D01*
X38097132Y-143528873D01*
X38077492Y-143597614D01*
X38056145Y-143665496D01*
X38033089Y-143732520D01*
X38008327Y-143798685D01*
X37981856Y-143863991D01*
X37954030Y-143927833D01*
X37924898Y-143989910D01*
X37894458Y-144050222D01*
X37862711Y-144108768D01*
X37829657Y-144165550D01*
X37795296Y-144220567D01*
X37759628Y-144273818D01*
X37722653Y-144325305D01*
X37684371Y-144375026D01*
X37644782Y-144422983D01*
X37603885Y-144469174D01*
X37561682Y-144513601D01*
X37518171Y-144556262D01*
X37473354Y-144597159D01*
X37427229Y-144636290D01*
X37379797Y-144673656D01*
X37331469Y-144709000D01*
X37282653Y-144742063D01*
X37233352Y-144772846D01*
X37183563Y-144801349D01*
X37133288Y-144827572D01*
X37082527Y-144851515D01*
X37031279Y-144873177D01*
X36979544Y-144892559D01*
X36927323Y-144909661D01*
X36874615Y-144924482D01*
X36821421Y-144937023D01*
X36767740Y-144947284D01*
X36713572Y-144955265D01*
X36658918Y-144960966D01*
X36603777Y-144964386D01*
X36548150Y-144965526D01*
X36490133Y-144964153D01*
X36434692Y-144960031D01*
X36381827Y-144953162D01*
X36331537Y-144943545D01*
X36283824Y-144931180D01*
X36224214Y-144910419D01*
X36169183Y-144884774D01*
X36118731Y-144854243D01*
X36072859Y-144818828D01*
X36062107Y-144809211D01*
X36022322Y-144768224D01*
X35987842Y-144723421D01*
X35958666Y-144674801D01*
X35934795Y-144622365D01*
X35916229Y-144566113D01*
X35902967Y-144506045D01*
X35895011Y-144442160D01*
X35892524Y-144391742D01*
X35892358Y-144374459D01*
X35893352Y-144320062D01*
X35896332Y-144268003D01*
X35901299Y-144218282D01*
X35909409Y-144164319D01*
X35913119Y-144144870D01*
X35892358Y-144144870D01*
X35870186Y-144189397D01*
X35846715Y-144232912D01*
X35821948Y-144275416D01*
X35795882Y-144316909D01*
X35768519Y-144357390D01*
X35725042Y-144416216D01*
X35678646Y-144472766D01*
X35646093Y-144509202D01*
X35612242Y-144544627D01*
X35577094Y-144579041D01*
X35540648Y-144612443D01*
X35502905Y-144644834D01*
X35463865Y-144676213D01*
X35423526Y-144706581D01*
X35381891Y-144735938D01*
X35339544Y-144763740D01*
X35297073Y-144789748D01*
X35254479Y-144813962D01*
X35190354Y-144846921D01*
X35125951Y-144875843D01*
X35061268Y-144900730D01*
X34996307Y-144921582D01*
X34931066Y-144938397D01*
X34865546Y-144951177D01*
X34799747Y-144959921D01*
X34733669Y-144964630D01*
X34689462Y-144965526D01*
X34623082Y-144964162D01*
X34558582Y-144960069D01*
X34495962Y-144953247D01*
X34435221Y-144943697D01*
X34376359Y-144931418D01*
X34319377Y-144916411D01*
X34264274Y-144898674D01*
X34211051Y-144878210D01*
X34159708Y-144855016D01*
X34110244Y-144829094D01*
X34062660Y-144800443D01*
X34016955Y-144769064D01*
X33973129Y-144734955D01*
X33931184Y-144698119D01*
X33891117Y-144658553D01*
X33852930Y-144616259D01*
X33816995Y-144571365D01*
X33783378Y-144524305D01*
X33752080Y-144475080D01*
X33723100Y-144423689D01*
X33696438Y-144370132D01*
X33672095Y-144314409D01*
X33650071Y-144256521D01*
X33630364Y-144196467D01*
X33612976Y-144134247D01*
X33597907Y-144069861D01*
X33585155Y-144003310D01*
X33574723Y-143934593D01*
X33566608Y-143863710D01*
X33560812Y-143790661D01*
X33557335Y-143715447D01*
X33556175Y-143638066D01*
X33556265Y-143630739D01*
X34126482Y-143630739D01*
X34127942Y-143703239D01*
X34132321Y-143772820D01*
X34139620Y-143839481D01*
X34149838Y-143903223D01*
X34162976Y-143964045D01*
X34179033Y-144021948D01*
X34198009Y-144076931D01*
X34219905Y-144128995D01*
X34244721Y-144178139D01*
X34272456Y-144224364D01*
X34292568Y-144253558D01*
X34325483Y-144294152D01*
X34361490Y-144330753D01*
X34400588Y-144363360D01*
X34442777Y-144391975D01*
X34488057Y-144416598D01*
X34536429Y-144437227D01*
X34587891Y-144453864D01*
X34642445Y-144466508D01*
X34700091Y-144475159D01*
X34760827Y-144479817D01*
X34803035Y-144480704D01*
X34859612Y-144478434D01*
X34915768Y-144471622D01*
X34971505Y-144460268D01*
X35026823Y-144444373D01*
X35081720Y-144423937D01*
X35136198Y-144398959D01*
X35190255Y-144369440D01*
X35243893Y-144335380D01*
X35283786Y-144307004D01*
X35322862Y-144276375D01*
X35361123Y-144243492D01*
X35398568Y-144208354D01*
X35435197Y-144170963D01*
X35471011Y-144131318D01*
X35506008Y-144089418D01*
X35540191Y-144045265D01*
X35573557Y-143998858D01*
X35606107Y-143950196D01*
X35627355Y-143916503D01*
X35658267Y-143864318D01*
X35687805Y-143810802D01*
X35715969Y-143755954D01*
X35742759Y-143699776D01*
X35768176Y-143642267D01*
X35792219Y-143583427D01*
X35814887Y-143523256D01*
X35836182Y-143461754D01*
X35856103Y-143398921D01*
X35874651Y-143334757D01*
X35886252Y-143291242D01*
X35902620Y-143226781D01*
X35917379Y-143164832D01*
X35930527Y-143105394D01*
X35942065Y-143048468D01*
X35951994Y-142994054D01*
X35960312Y-142942151D01*
X35967020Y-142892760D01*
X35973460Y-142830812D01*
X35977038Y-142773329D01*
X35977843Y-142733147D01*
X35976040Y-142672625D01*
X35970630Y-142614250D01*
X35961614Y-142558022D01*
X35948992Y-142503940D01*
X35932763Y-142452005D01*
X35912928Y-142402217D01*
X35889486Y-142354575D01*
X35862438Y-142309080D01*
X35831784Y-142265732D01*
X35797523Y-142224530D01*
X35772679Y-142198255D01*
X35733399Y-142161153D01*
X35692036Y-142127701D01*
X35648591Y-142097898D01*
X35603064Y-142071745D01*
X35555455Y-142049241D01*
X35505763Y-142030386D01*
X35453989Y-142015180D01*
X35400133Y-142003624D01*
X35344194Y-141995717D01*
X35286173Y-141991459D01*
X35246336Y-141990648D01*
X35186465Y-141992548D01*
X35127754Y-141998248D01*
X35070202Y-142007747D01*
X35013809Y-142021045D01*
X34958575Y-142038143D01*
X34904501Y-142059041D01*
X34851586Y-142083739D01*
X34799829Y-142112236D01*
X34749232Y-142144532D01*
X34699795Y-142180628D01*
X34667480Y-142206803D01*
X34620393Y-142248910D01*
X34575302Y-142294173D01*
X34532208Y-142342591D01*
X34491110Y-142394164D01*
X34452009Y-142448894D01*
X34414904Y-142506778D01*
X34379795Y-142567819D01*
X34346683Y-142632015D01*
X34325717Y-142676565D01*
X34305638Y-142722518D01*
X34286447Y-142769874D01*
X34268143Y-142818632D01*
X34250989Y-142868029D01*
X34234941Y-142917607D01*
X34220001Y-142967367D01*
X34206167Y-143017308D01*
X34193439Y-143067430D01*
X34181819Y-143117734D01*
X34171305Y-143168219D01*
X34161898Y-143218885D01*
X34153597Y-143269732D01*
X34146403Y-143320761D01*
X34140316Y-143371971D01*
X34135336Y-143423362D01*
X34131463Y-143474934D01*
X34128696Y-143526688D01*
X34127036Y-143578623D01*
X34126482Y-143630739D01*
X33556265Y-143630739D01*
X33557039Y-143567966D01*
X33559629Y-143498409D01*
X33563946Y-143429396D01*
X33569990Y-143360927D01*
X33577761Y-143293002D01*
X33587259Y-143225620D01*
X33598484Y-143158783D01*
X33611435Y-143092489D01*
X33626114Y-143026739D01*
X33642519Y-142961533D01*
X33660651Y-142896871D01*
X33680510Y-142832752D01*
X33702096Y-142769177D01*
X33725409Y-142706146D01*
X33750449Y-142643659D01*
X33777215Y-142581716D01*
X33805666Y-142520875D01*
X33835452Y-142461694D01*
X33866574Y-142404173D01*
X33899031Y-142348312D01*
X33932825Y-142294111D01*
X33967954Y-142241570D01*
X34004418Y-142190689D01*
X34042219Y-142141468D01*
X34081355Y-142093908D01*
X34121827Y-142048007D01*
X34163634Y-142003767D01*
X34206777Y-141961187D01*
X34251256Y-141920266D01*
X34297071Y-141881006D01*
X34344221Y-141843406D01*
X34392707Y-141807466D01*
X34442228Y-141773454D01*
X34492484Y-141741635D01*
X34543475Y-141712011D01*
X34595200Y-141684582D01*
X34647659Y-141659346D01*
X34700854Y-141636306D01*
X34754783Y-141615459D01*
X34809446Y-141596807D01*
X34864845Y-141580349D01*
X34920978Y-141566086D01*
X34977845Y-141554017D01*
X35035447Y-141544142D01*
X35093784Y-141536462D01*
X35152856Y-141530976D01*
X35212662Y-141527684D01*
X35273203Y-141526587D01*
X35355315Y-141528920D01*
X35434040Y-141535918D01*
X35509379Y-141547581D01*
X35581330Y-141563910D01*
X35649895Y-141584905D01*
X35715072Y-141610565D01*
X35776863Y-141640890D01*
X35835266Y-141675881D01*
X35890283Y-141715537D01*
X35941913Y-141759858D01*
X35990156Y-141808845D01*
X36035011Y-141862497D01*
X36076480Y-141920815D01*
X36114562Y-141983798D01*
X36149257Y-142051447D01*
X36180565Y-142123761D01*
X36201325Y-142123761D01*
X36334438Y-141604745D01*
X36870551Y-141604745D01*
X36468771Y-143349860D01*
X36453392Y-143422646D01*
X36439004Y-143492628D01*
X36425609Y-143559804D01*
X36413206Y-143624175D01*
X36401795Y-143685742D01*
X36391377Y-143744503D01*
X36381951Y-143800459D01*
X36373517Y-143853611D01*
X36366075Y-143903957D01*
X36356773Y-143974218D01*
X36349703Y-144038167D01*
X36344866Y-144095805D01*
X36342261Y-144147132D01*
X36341765Y-144177843D01*
X36343733Y-144229238D01*
X36351289Y-144284536D01*
X36364513Y-144332879D01*
X36387103Y-144380488D01*
X36422365Y-144423307D01*
X36464268Y-144454830D01*
X36509377Y-144477346D01*
X36557691Y-144490856D01*
X36609211Y-144495359D01*
X36660516Y-144493244D01*
X36711392Y-144486901D01*
X36761839Y-144476329D01*
X36811856Y-144461527D01*
X36861444Y-144442497D01*
X36910603Y-144419238D01*
X36959332Y-144391750D01*
X37007632Y-144360033D01*
X37055503Y-144324087D01*
X37102944Y-144283912D01*
X37134333Y-144254780D01*
X37180569Y-144208244D01*
X37224937Y-144158852D01*
X37267437Y-144106606D01*
X37308070Y-144051505D01*
X37346835Y-143993548D01*
X37383733Y-143932737D01*
X37418763Y-143869070D01*
X37441078Y-143825040D01*
X37462564Y-143779740D01*
X37483220Y-143733172D01*
X37503046Y-143685335D01*
X37522041Y-143636229D01*
X37531228Y-143611200D01*
X37548973Y-143560505D01*
X37565574Y-143509171D01*
X37581030Y-143457198D01*
X37595341Y-143404586D01*
X37608508Y-143351334D01*
X37620529Y-143297443D01*
X37631405Y-143242913D01*
X37641137Y-143187744D01*
X37649724Y-143131935D01*
X37657165Y-143075487D01*
X37663462Y-143018400D01*
X37668614Y-142960674D01*
X37672621Y-142902309D01*
X37675484Y-142843304D01*
X37677201Y-142783660D01*
X37677773Y-142723377D01*
X37676748Y-142648358D01*
X37673671Y-142574427D01*
X37668543Y-142501584D01*
X37661363Y-142429828D01*
X37652133Y-142359159D01*
X37640851Y-142289579D01*
X37627518Y-142221086D01*
X37612133Y-142153681D01*
X37594697Y-142087363D01*
X37575210Y-142022133D01*
X37553672Y-141957991D01*
X37530083Y-141894936D01*
X37504442Y-141832969D01*
X37476750Y-141772089D01*
X37447007Y-141712298D01*
X37415212Y-141653593D01*
X37381486Y-141596263D01*
X37345947Y-141540593D01*
X37308595Y-141486583D01*
X37269430Y-141434233D01*
X37228452Y-141383543D01*
X37185662Y-141334513D01*
X37141059Y-141287143D01*
X37094644Y-141241434D01*
X37046415Y-141197384D01*
X36996374Y-141154994D01*
X36944520Y-141114265D01*
X36890853Y-141075196D01*
X36835374Y-141037787D01*
X36778082Y-141002037D01*
X36718977Y-140967948D01*
X36658060Y-140935519D01*
X36595606Y-140904908D01*
X36531893Y-140876271D01*
X36466920Y-140849610D01*
X36400689Y-140824923D01*
X36333197Y-140802211D01*
X36264447Y-140781475D01*
X36194437Y-140762713D01*
X36123168Y-140745926D01*
X36050639Y-140731114D01*
X35976851Y-140718277D01*
X35901804Y-140707415D01*
X35825497Y-140698528D01*
X35747931Y-140691615D01*
X35669105Y-140686678D01*
X35589020Y-140683716D01*
X35507676Y-140682728D01*
X35456347Y-140683080D01*
X35405399Y-140684135D01*
X35354833Y-140685894D01*
X35304649Y-140688357D01*
X35254846Y-140691523D01*
X35205425Y-140695393D01*
X35156386Y-140699967D01*
X35107728Y-140705244D01*
X35011557Y-140717910D01*
X34916913Y-140733389D01*
X34823796Y-140751684D01*
X34732205Y-140772793D01*
X34642140Y-140796716D01*
X34553602Y-140823454D01*
X34466591Y-140853006D01*
X34381106Y-140885373D01*
X34297147Y-140920555D01*
X34214715Y-140958551D01*
X34133810Y-140999361D01*
X34054431Y-141042986D01*
X33977017Y-141089116D01*
X33901703Y-141137745D01*
X33828487Y-141188874D01*
X33757370Y-141242502D01*
X33688353Y-141298630D01*
X33621434Y-141357258D01*
X33556614Y-141418386D01*
X33493893Y-141482013D01*
X33433272Y-141548140D01*
X33374749Y-141616766D01*
X33318325Y-141687892D01*
X33264000Y-141761518D01*
X33211774Y-141837644D01*
X33161647Y-141916269D01*
X33113619Y-141997394D01*
X33067690Y-142081018D01*
X33024213Y-142166532D01*
X32983540Y-142253324D01*
X32945673Y-142341395D01*
X32910611Y-142430744D01*
X32878354Y-142521371D01*
X32848901Y-142613277D01*
X32822254Y-142706461D01*
X32798412Y-142800924D01*
X32787543Y-142848635D01*
X32777375Y-142896665D01*
X32767908Y-142945015D01*
X32759142Y-142993685D01*
X32751078Y-143042674D01*
X32743715Y-143091983D01*
X32737053Y-143141612D01*
X32731092Y-143191560D01*
X32725833Y-143241828D01*
X32721275Y-143292415D01*
X32717418Y-143343322D01*
X32714263Y-143394549D01*
X32711808Y-143446095D01*
X32710055Y-143497961D01*
X32709003Y-143550146D01*
X32708653Y-143602651D01*
X32709716Y-143685517D01*
X32712908Y-143767114D01*
X32718227Y-143847443D01*
X32725673Y-143926502D01*
X32735247Y-144004292D01*
X32746949Y-144080814D01*
X32760778Y-144156066D01*
X32776735Y-144230050D01*
X32794820Y-144302765D01*
X32815032Y-144374211D01*
X32837372Y-144444388D01*
X32861839Y-144513295D01*
X32888434Y-144580935D01*
X32917156Y-144647305D01*
X32948006Y-144712406D01*
X32980983Y-144776238D01*
X33016041Y-144838472D01*
X33052825Y-144898779D01*
X33091336Y-144957159D01*
X33131574Y-145013612D01*
X33173539Y-145068137D01*
X33217231Y-145120735D01*
X33262650Y-145171406D01*
X33309795Y-145220150D01*
X33358668Y-145266966D01*
X33409267Y-145311855D01*
X33461593Y-145354817D01*
X33515646Y-145395852D01*
X33571426Y-145434959D01*
X33628933Y-145472139D01*
X33688167Y-145507392D01*
X33749127Y-145540718D01*
X33811619Y-145572069D01*
X33875447Y-145601397D01*
X33940610Y-145628703D01*
X34007109Y-145653986D01*
X34074943Y-145677246D01*
X34144114Y-145698484D01*
X34214620Y-145717699D01*
X34286461Y-145734891D01*
X34359639Y-145750061D01*
X34434152Y-145763208D01*
X34510001Y-145774333D01*
X34587185Y-145783435D01*
X34665706Y-145790514D01*
X34745562Y-145795570D01*
X34826753Y-145798604D01*
X34909281Y-145799616D01*
X34972406Y-145799106D01*
X35035538Y-145797579D01*
X35098677Y-145795033D01*
X35161824Y-145791468D01*
X35224978Y-145786885D01*
X35288139Y-145781283D01*
X35351307Y-145774663D01*
X35414482Y-145767025D01*
X35477664Y-145758368D01*
X35540854Y-145748692D01*
X35604050Y-145737998D01*
X35667254Y-145726286D01*
X35730465Y-145713555D01*
X35793683Y-145699805D01*
X35856908Y-145685037D01*
X35920141Y-145669251D01*
X35983380Y-145652446D01*
X36046627Y-145634623D01*
X36109881Y-145615781D01*
X36173142Y-145595921D01*
X36236410Y-145575042D01*
X36299686Y-145553145D01*
X36362968Y-145530229D01*
X36426258Y-145506295D01*
X36489555Y-145481343D01*
X36552859Y-145455372D01*
X36616170Y-145428382D01*
X36679488Y-145400374D01*
X36742813Y-145371348D01*
X36806146Y-145341303D01*
X36869486Y-145310239D01*
X36932833Y-145278157D01*
X37145324Y-145692149D01*
X37073368Y-145731881D01*
X37001602Y-145770173D01*
X36930028Y-145807024D01*
X36858644Y-145842435D01*
X36787451Y-145876404D01*
X36716449Y-145908933D01*
X36645637Y-145940022D01*
X36575017Y-145969670D01*
X36504587Y-145997877D01*
X36434348Y-146024643D01*
X36364300Y-146049969D01*
X36294443Y-146073855D01*
X36224777Y-146096299D01*
X36155301Y-146117303D01*
X36086016Y-146136866D01*
X36016922Y-146154989D01*
X35947962Y-146171848D01*
X35878772Y-146187618D01*
X35809354Y-146202302D01*
X35739706Y-146215897D01*
X35669830Y-146228405D01*
X35599725Y-146239825D01*
X35529390Y-146250158D01*
X35458827Y-146259403D01*
X35388035Y-146267560D01*
X35317014Y-146274630D01*
X35245763Y-146280612D01*
X35174284Y-146285506D01*
X35102576Y-146289313D01*
X35030639Y-146292032D01*
X34958473Y-146293664D01*
X34886078Y-146294207D01*
X34835587Y-146293888D01*
X34785475Y-146292929D01*
X34735743Y-146291331D01*
X34686390Y-146289094D01*
X34637416Y-146286217D01*
X34540606Y-146278546D01*
X34445314Y-146268319D01*
X34351538Y-146255534D01*
X34259279Y-146240193D01*
X34168537Y-146222294D01*
X34079312Y-146201839D01*
X33991604Y-146178827D01*
X33905413Y-146153257D01*
X33820739Y-146125131D01*
X33737582Y-146094448D01*
X33655942Y-146061208D01*
X33575819Y-146025412D01*
X33497212Y-145987058D01*
X33458478Y-145966922D01*
X33382448Y-145924871D01*
X33308536Y-145880540D01*
X33236742Y-145833929D01*
X33167066Y-145785037D01*
X33099508Y-145733866D01*
X33034068Y-145680414D01*
X32970746Y-145624682D01*
X32909542Y-145566669D01*
X32850457Y-145506376D01*
X32793489Y-145443803D01*
X32738639Y-145378950D01*
X32685908Y-145311817D01*
X32635294Y-145242403D01*
X32586798Y-145170709D01*
X32540421Y-145096735D01*
X32496161Y-145020481D01*
X32454459Y-144942385D01*
X32415447Y-144862887D01*
X32379125Y-144781986D01*
X32345494Y-144699683D01*
X32314553Y-144615978D01*
X32286303Y-144530870D01*
X32260744Y-144444359D01*
X32237875Y-144356446D01*
X32217696Y-144267130D01*
X32200208Y-144176412D01*
X32185410Y-144084291D01*
X32173303Y-143990768D01*
X32163886Y-143895843D01*
X32157160Y-143799515D01*
X32153124Y-143701784D01*
X32152115Y-143652393D01*
X32151779Y-143602651D01*
X32152204Y-143542155D01*
X32153477Y-143482023D01*
X32155600Y-143422256D01*
X32158572Y-143362854D01*
X32162393Y-143303818D01*
X32167063Y-143245146D01*
X32172583Y-143186839D01*
X32178951Y-143128896D01*
X32186169Y-143071319D01*
X32194235Y-143014107D01*
X32203151Y-142957260D01*
X32212916Y-142900777D01*
X32223530Y-142844660D01*
X32234993Y-142788908D01*
X32247306Y-142733520D01*
X32260467Y-142678497D01*
X32274478Y-142623840D01*
X32289337Y-142569547D01*
X32305046Y-142515619D01*
X32321604Y-142462056D01*
X32339011Y-142408858D01*
X32357267Y-142356025D01*
X32376373Y-142303557D01*
X32396327Y-142251454D01*
X32417131Y-142199716D01*
X32438783Y-142148343D01*
X32461285Y-142097334D01*
X32484636Y-142046691D01*
X32508836Y-141996412D01*
X32533885Y-141946499D01*
X32559784Y-141896950D01*
X32586531Y-141847766D01*
X32614026Y-141799034D01*
X32642168Y-141750990D01*
X32670956Y-141703636D01*
X32700390Y-141656971D01*
X32730471Y-141610995D01*
X32761198Y-141565709D01*
X32792572Y-141521112D01*
X32824592Y-141477204D01*
X32857258Y-141433986D01*
X32890571Y-141391457D01*
X32924530Y-141349617D01*
X32959135Y-141308467D01*
X32994387Y-141268006D01*
X33030285Y-141228234D01*
X33066830Y-141189152D01*
X33104021Y-141150758D01*
X33141858Y-141113055D01*
X33180342Y-141076040D01*
X33219472Y-141039715D01*
X33259249Y-141004079D01*
X33299671Y-140969133D01*
X33340741Y-140934875D01*
X33382456Y-140901308D01*
X33424818Y-140868429D01*
X33467827Y-140836240D01*
X33511482Y-140804740D01*
X33555783Y-140773929D01*
X33600731Y-140743808D01*
X33646325Y-140714376D01*
X33692565Y-140685633D01*
X33739452Y-140657580D01*
X33786985Y-140630216D01*
X33835019Y-140603619D01*
X33883408Y-140577866D01*
X33932153Y-140552957D01*
X33981253Y-140528893D01*
X34030709Y-140505673D01*
X34080520Y-140483298D01*
X34130686Y-140461767D01*
X34181208Y-140441080D01*
X34232085Y-140421238D01*
X34283318Y-140402240D01*
X34334906Y-140384086D01*
X34386849Y-140366777D01*
X34439148Y-140350312D01*
X34491802Y-140334692D01*
X34544811Y-140319915D01*
X34598176Y-140305983D01*
X34651897Y-140292896D01*
X34705972Y-140280653D01*
X34760404Y-140269254D01*
X34815190Y-140258700D01*
X34870332Y-140248989D01*
X34925829Y-140240124D01*
X34981682Y-140232102D01*
X35037890Y-140224925D01*
X35094453Y-140218593D01*
X35151372Y-140213104D01*
X35208646Y-140208460D01*
X35266276Y-140204661D01*
X35324261Y-140201706D01*
X35382601Y-140199595D01*
X35441297Y-140198328D01*
X35500348Y-140197906D01*
X35552336Y-140198211D01*
G37*
G36*
X42991277Y-143809036D02*
G01*
X42989216Y-143896878D01*
X42983033Y-143982105D01*
X42972729Y-144064719D01*
X42958304Y-144144718D01*
X42939757Y-144222103D01*
X42917088Y-144296873D01*
X42890297Y-144369030D01*
X42859385Y-144438572D01*
X42824352Y-144505501D01*
X42785197Y-144569815D01*
X42741920Y-144631515D01*
X42694521Y-144690601D01*
X42643002Y-144747072D01*
X42587360Y-144800930D01*
X42527597Y-144852173D01*
X42463712Y-144900802D01*
X42395987Y-144946497D01*
X42324398Y-144989245D01*
X42248945Y-145029044D01*
X42169628Y-145065895D01*
X42086447Y-145099798D01*
X41999403Y-145130753D01*
X41908494Y-145158760D01*
X41813721Y-145183818D01*
X41764885Y-145195242D01*
X41715084Y-145205929D01*
X41664316Y-145215879D01*
X41612583Y-145225092D01*
X41559883Y-145233567D01*
X41506218Y-145241306D01*
X41451587Y-145248308D01*
X41395989Y-145254573D01*
X41339426Y-145260100D01*
X41281896Y-145264891D01*
X41223401Y-145268944D01*
X41163939Y-145272261D01*
X41103512Y-145274841D01*
X41042118Y-145276683D01*
X40979759Y-145277789D01*
X40916434Y-145278157D01*
X40858666Y-145277836D01*
X40801682Y-145276874D01*
X40745484Y-145275270D01*
X40690070Y-145273024D01*
X40635441Y-145270137D01*
X40581597Y-145266608D01*
X40528537Y-145262438D01*
X40476262Y-145257626D01*
X40424772Y-145252172D01*
X40374067Y-145246076D01*
X40324146Y-145239340D01*
X40275010Y-145231961D01*
X40226659Y-145223941D01*
X40132310Y-145205976D01*
X40041101Y-145185444D01*
X39953030Y-145162346D01*
X39868099Y-145136681D01*
X39786306Y-145108450D01*
X39707652Y-145077653D01*
X39632137Y-145044289D01*
X39559761Y-145008358D01*
X39490524Y-144969861D01*
X39457083Y-144949651D01*
X39392458Y-144907266D01*
X39330782Y-144862238D01*
X39272054Y-144814568D01*
X39216274Y-144764255D01*
X39163443Y-144711299D01*
X39113559Y-144655700D01*
X39066623Y-144597459D01*
X39022636Y-144536575D01*
X38981596Y-144473048D01*
X38943505Y-144406878D01*
X38908361Y-144338066D01*
X38876166Y-144266610D01*
X38846919Y-144192512D01*
X38820620Y-144115771D01*
X38797269Y-144036387D01*
X38776866Y-143954361D01*
X39756280Y-143793161D01*
X39776709Y-143862766D01*
X39800444Y-143928701D01*
X39827485Y-143990965D01*
X39857832Y-144049558D01*
X39891484Y-144104481D01*
X39928443Y-144155733D01*
X39968707Y-144203313D01*
X40012277Y-144247223D01*
X40059153Y-144287463D01*
X40109335Y-144324031D01*
X40144626Y-144346371D01*
X40200629Y-144377143D01*
X40260560Y-144404889D01*
X40324420Y-144429608D01*
X40392208Y-144451300D01*
X40439583Y-144464080D01*
X40488703Y-144475514D01*
X40539570Y-144485603D01*
X40592182Y-144494348D01*
X40646540Y-144501746D01*
X40702645Y-144507800D01*
X40760495Y-144512508D01*
X40820091Y-144515871D01*
X40881433Y-144517889D01*
X40944521Y-144518562D01*
X41009812Y-144517926D01*
X41073030Y-144516019D01*
X41134176Y-144512841D01*
X41193248Y-144508392D01*
X41250248Y-144502671D01*
X41305176Y-144495679D01*
X41358030Y-144487415D01*
X41408812Y-144477880D01*
X41457521Y-144467074D01*
X41548721Y-144441648D01*
X41631630Y-144411137D01*
X41706248Y-144375540D01*
X41772575Y-144334859D01*
X41830611Y-144289092D01*
X41880357Y-144238240D01*
X41921811Y-144182302D01*
X41954975Y-144121280D01*
X41979848Y-144055172D01*
X41996429Y-143983979D01*
X42004720Y-143907701D01*
X42005757Y-143867655D01*
X42003849Y-143816898D01*
X41996097Y-143756672D01*
X41982382Y-143700024D01*
X41962704Y-143646954D01*
X41937063Y-143597461D01*
X41905460Y-143551546D01*
X41883635Y-143525715D01*
X41843057Y-143484839D01*
X41797649Y-143446169D01*
X41757845Y-143416822D01*
X41714950Y-143388886D01*
X41668964Y-143362363D01*
X41619886Y-143337252D01*
X41567718Y-143313553D01*
X41540474Y-143302233D01*
X41478841Y-143279068D01*
X41424251Y-143260943D01*
X41362492Y-143242174D01*
X41293562Y-143222761D01*
X41243626Y-143209461D01*
X41190503Y-143195875D01*
X41134194Y-143182003D01*
X41074698Y-143167844D01*
X41012015Y-143153399D01*
X40946146Y-143138669D01*
X40877090Y-143123651D01*
X40804847Y-143108348D01*
X40729418Y-143092759D01*
X40690509Y-143084856D01*
X40624015Y-143069028D01*
X40560087Y-143053601D01*
X40498726Y-143038574D01*
X40439931Y-143023948D01*
X40383703Y-143009723D01*
X40330041Y-142995899D01*
X40278945Y-142982475D01*
X40230416Y-142969452D01*
X40162435Y-142950668D01*
X40100228Y-142932787D01*
X40043796Y-142915807D01*
X39993138Y-142899728D01*
X39934577Y-142879692D01*
X39882084Y-142859733D01*
X39830850Y-142838934D01*
X39780876Y-142817296D01*
X39732161Y-142794818D01*
X39684705Y-142771501D01*
X39638509Y-142747343D01*
X39593572Y-142722347D01*
X39549895Y-142696510D01*
X39507935Y-142669586D01*
X39467539Y-142641327D01*
X39419245Y-142604124D01*
X39373396Y-142564834D01*
X39329992Y-142523457D01*
X39289032Y-142479993D01*
X39258025Y-142443719D01*
X39221907Y-142395908D01*
X39188353Y-142345592D01*
X39163357Y-142303537D01*
X39140001Y-142259879D01*
X39118286Y-142214617D01*
X39098213Y-142167753D01*
X39079780Y-142119286D01*
X39071179Y-142094452D01*
X39055437Y-142043466D01*
X39041793Y-141990648D01*
X39030249Y-141935999D01*
X39020804Y-141879518D01*
X39013457Y-141821205D01*
X39008210Y-141761060D01*
X39005062Y-141699084D01*
X39004012Y-141635275D01*
X39005935Y-141554198D01*
X39011702Y-141475525D01*
X39021314Y-141399256D01*
X39034771Y-141325392D01*
X39052074Y-141253932D01*
X39073221Y-141184876D01*
X39098213Y-141118224D01*
X39127049Y-141053977D01*
X39159731Y-140992134D01*
X39196258Y-140932695D01*
X39236630Y-140875661D01*
X39280846Y-140821031D01*
X39328908Y-140768805D01*
X39380814Y-140718983D01*
X39436565Y-140671565D01*
X39496161Y-140626552D01*
X39559583Y-140584110D01*
X39626507Y-140544406D01*
X39696932Y-140507441D01*
X39770858Y-140473213D01*
X39848286Y-140441724D01*
X39929215Y-140412973D01*
X40013646Y-140386960D01*
X40101578Y-140363686D01*
X40193012Y-140343149D01*
X40287947Y-140325351D01*
X40336728Y-140317479D01*
X40386384Y-140310291D01*
X40436915Y-140303788D01*
X40488322Y-140297969D01*
X40540604Y-140292835D01*
X40593761Y-140288386D01*
X40647794Y-140284621D01*
X40702702Y-140281540D01*
X40758485Y-140279144D01*
X40815144Y-140277433D01*
X40872679Y-140276406D01*
X40931088Y-140276064D01*
X40986827Y-140276336D01*
X41041694Y-140277151D01*
X41095687Y-140278511D01*
X41148808Y-140280414D01*
X41201055Y-140282861D01*
X41252430Y-140285852D01*
X41302931Y-140289387D01*
X41352560Y-140293466D01*
X41401315Y-140298088D01*
X41496207Y-140308965D01*
X41587608Y-140322017D01*
X41675516Y-140337244D01*
X41759932Y-140354646D01*
X41840857Y-140374224D01*
X41918290Y-140395976D01*
X41992230Y-140419905D01*
X42062679Y-140446008D01*
X42129636Y-140474287D01*
X42193101Y-140504741D01*
X42253074Y-140537370D01*
X42281751Y-140554501D01*
X42336978Y-140590574D01*
X42389695Y-140629491D01*
X42439903Y-140671251D01*
X42487602Y-140715853D01*
X42532792Y-140763300D01*
X42575472Y-140813589D01*
X42615643Y-140866721D01*
X42653306Y-140922697D01*
X42688458Y-140981515D01*
X42721102Y-141043177D01*
X42751236Y-141107682D01*
X42778862Y-141175030D01*
X42803978Y-141245221D01*
X42826584Y-141318256D01*
X42846682Y-141394133D01*
X42864270Y-141472854D01*
X41881193Y-141604745D01*
X41865622Y-141549060D01*
X41847304Y-141496038D01*
X41826238Y-141445677D01*
X41802424Y-141397978D01*
X41775863Y-141352941D01*
X41746554Y-141310566D01*
X41714497Y-141270852D01*
X41679692Y-141233801D01*
X41642140Y-141199411D01*
X41601840Y-141167684D01*
X41573447Y-141148011D01*
X41528388Y-141120512D01*
X41479766Y-141095718D01*
X41427581Y-141073629D01*
X41371832Y-141054244D01*
X41312520Y-141037565D01*
X41249644Y-141023590D01*
X41183204Y-141012320D01*
X41113202Y-141003755D01*
X41039635Y-140997894D01*
X40988612Y-140995490D01*
X40936004Y-140994288D01*
X40909106Y-140994138D01*
X40852531Y-140994707D01*
X40797752Y-140996413D01*
X40744768Y-140999257D01*
X40693581Y-141003240D01*
X40644190Y-141008359D01*
X40550796Y-141022012D01*
X40464585Y-141040216D01*
X40385560Y-141062971D01*
X40313718Y-141090276D01*
X40249060Y-141122133D01*
X40191587Y-141158540D01*
X40141298Y-141199498D01*
X40098193Y-141245008D01*
X40062272Y-141295068D01*
X40033535Y-141349679D01*
X40011982Y-141408841D01*
X39997614Y-141472554D01*
X39990430Y-141540818D01*
X39989532Y-141576657D01*
X39991917Y-141634140D01*
X39999073Y-141688283D01*
X40010999Y-141739088D01*
X40027695Y-141786553D01*
X40049162Y-141830679D01*
X40081218Y-141879222D01*
X40087229Y-141886845D01*
X40120055Y-141923762D01*
X40157473Y-141958949D01*
X40199482Y-141992408D01*
X40246082Y-142024136D01*
X40297274Y-142054136D01*
X40341534Y-142076891D01*
X40376657Y-142093230D01*
X40431058Y-142114964D01*
X40479948Y-142132141D01*
X40535772Y-142150069D01*
X40598530Y-142168749D01*
X40668222Y-142188180D01*
X40718535Y-142201551D01*
X40771930Y-142215257D01*
X40828406Y-142229296D01*
X40887964Y-142243669D01*
X40950604Y-142258376D01*
X41016325Y-142273417D01*
X41085128Y-142288792D01*
X41157013Y-142304501D01*
X41242627Y-142323033D01*
X41325140Y-142341385D01*
X41404552Y-142359555D01*
X41480864Y-142377544D01*
X41554074Y-142395352D01*
X41624184Y-142412979D01*
X41691194Y-142430424D01*
X41755102Y-142447688D01*
X41815910Y-142464771D01*
X41873617Y-142481672D01*
X41928224Y-142498392D01*
X41979730Y-142514931D01*
X42028134Y-142531289D01*
X42094928Y-142555485D01*
X42154745Y-142579274D01*
X42209968Y-142603223D01*
X42262980Y-142627903D01*
X42313781Y-142653312D01*
X42362370Y-142679451D01*
X42408749Y-142706321D01*
X42452917Y-142733920D01*
X42494873Y-142762248D01*
X42534619Y-142791307D01*
X42584173Y-142831187D01*
X42629797Y-142872365D01*
X42672463Y-142915222D01*
X42712534Y-142960140D01*
X42750010Y-143007119D01*
X42784891Y-143056158D01*
X42817177Y-143107258D01*
X42846868Y-143160419D01*
X42873964Y-143215641D01*
X42898464Y-143272923D01*
X42920217Y-143332057D01*
X42939070Y-143393442D01*
X42951306Y-143440958D01*
X42961910Y-143489741D01*
X42970883Y-143539791D01*
X42978225Y-143591107D01*
X42983935Y-143643690D01*
X42988014Y-143697539D01*
X42990461Y-143752654D01*
X42991277Y-143809036D01*
G37*
G36*
X46093161Y-143167899D02*
G01*
X46093161Y-145200000D01*
X45083217Y-145200000D01*
X45083217Y-143167899D01*
X43358862Y-140276064D01*
X44421318Y-140276064D01*
X45581472Y-142386322D01*
X46756280Y-140276064D01*
X47817515Y-140276064D01*
X46093161Y-143167899D01*
G37*
G36*
X52321353Y-143809036D02*
G01*
X52319293Y-143896878D01*
X52313110Y-143982105D01*
X52302806Y-144064719D01*
X52288381Y-144144718D01*
X52269833Y-144222103D01*
X52247165Y-144296873D01*
X52220374Y-144369030D01*
X52189462Y-144438572D01*
X52154429Y-144505501D01*
X52115273Y-144569815D01*
X52071997Y-144631515D01*
X52024598Y-144690601D01*
X51973078Y-144747072D01*
X51917437Y-144800930D01*
X51857674Y-144852173D01*
X51793789Y-144900802D01*
X51726064Y-144946497D01*
X51654475Y-144989245D01*
X51579022Y-145029044D01*
X51499705Y-145065895D01*
X51416524Y-145099798D01*
X51329479Y-145130753D01*
X51238570Y-145158760D01*
X51143797Y-145183818D01*
X51094962Y-145195242D01*
X51045161Y-145205929D01*
X50994393Y-145215879D01*
X50942660Y-145225092D01*
X50889960Y-145233567D01*
X50836295Y-145241306D01*
X50781663Y-145248308D01*
X50726066Y-145254573D01*
X50669502Y-145260100D01*
X50611973Y-145264891D01*
X50553478Y-145268944D01*
X50494016Y-145272261D01*
X50433589Y-145274841D01*
X50372195Y-145276683D01*
X50309836Y-145277789D01*
X50246510Y-145278157D01*
X50188742Y-145277836D01*
X50131759Y-145276874D01*
X50075561Y-145275270D01*
X50020147Y-145273024D01*
X49965518Y-145270137D01*
X49911673Y-145266608D01*
X49858614Y-145262438D01*
X49806339Y-145257626D01*
X49754849Y-145252172D01*
X49704143Y-145246076D01*
X49654223Y-145239340D01*
X49605087Y-145231961D01*
X49556735Y-145223941D01*
X49462387Y-145205976D01*
X49371178Y-145185444D01*
X49283107Y-145162346D01*
X49198175Y-145136681D01*
X49116383Y-145108450D01*
X49037729Y-145077653D01*
X48962214Y-145044289D01*
X48889838Y-145008358D01*
X48820601Y-144969861D01*
X48787159Y-144949651D01*
X48722535Y-144907266D01*
X48660859Y-144862238D01*
X48602131Y-144814568D01*
X48546351Y-144764255D01*
X48493519Y-144711299D01*
X48443636Y-144655700D01*
X48396700Y-144597459D01*
X48352712Y-144536575D01*
X48311673Y-144473048D01*
X48273581Y-144406878D01*
X48238438Y-144338066D01*
X48206243Y-144266610D01*
X48176996Y-144192512D01*
X48150697Y-144115771D01*
X48127346Y-144036387D01*
X48106943Y-143954361D01*
X49086357Y-143793161D01*
X49106786Y-143862766D01*
X49130521Y-143928701D01*
X49157562Y-143990965D01*
X49187908Y-144049558D01*
X49221561Y-144104481D01*
X49258519Y-144155733D01*
X49298784Y-144203313D01*
X49342354Y-144247223D01*
X49389230Y-144287463D01*
X49439412Y-144324031D01*
X49474703Y-144346371D01*
X49530706Y-144377143D01*
X49590637Y-144404889D01*
X49654497Y-144429608D01*
X49722285Y-144451300D01*
X49769660Y-144464080D01*
X49818780Y-144475514D01*
X49869646Y-144485603D01*
X49922259Y-144494348D01*
X49976617Y-144501746D01*
X50032721Y-144507800D01*
X50090572Y-144512508D01*
X50150168Y-144515871D01*
X50211510Y-144517889D01*
X50274598Y-144518562D01*
X50339889Y-144517926D01*
X50403107Y-144516019D01*
X50464253Y-144512841D01*
X50523325Y-144508392D01*
X50580325Y-144502671D01*
X50635252Y-144495679D01*
X50688107Y-144487415D01*
X50738889Y-144477880D01*
X50787598Y-144467074D01*
X50878798Y-144441648D01*
X50961707Y-144411137D01*
X51036325Y-144375540D01*
X51102652Y-144334859D01*
X51160688Y-144289092D01*
X51210434Y-144238240D01*
X51251888Y-144182302D01*
X51285052Y-144121280D01*
X51309924Y-144055172D01*
X51326506Y-143983979D01*
X51334797Y-143907701D01*
X51335833Y-143867655D01*
X51333925Y-143816898D01*
X51326173Y-143756672D01*
X51312459Y-143700024D01*
X51292781Y-143646954D01*
X51267140Y-143597461D01*
X51235536Y-143551546D01*
X51213712Y-143525715D01*
X51173134Y-143484839D01*
X51127726Y-143446169D01*
X51087922Y-143416822D01*
X51045027Y-143388886D01*
X50999041Y-143362363D01*
X50949963Y-143337252D01*
X50897794Y-143313553D01*
X50870551Y-143302233D01*
X50808918Y-143279068D01*
X50754328Y-143260943D01*
X50692568Y-143242174D01*
X50623639Y-143222761D01*
X50573703Y-143209461D01*
X50520580Y-143195875D01*
X50464270Y-143182003D01*
X50404774Y-143167844D01*
X50342092Y-143153399D01*
X50276223Y-143138669D01*
X50207167Y-143123651D01*
X50134924Y-143108348D01*
X50059495Y-143092759D01*
X50020586Y-143084856D01*
X49954092Y-143069028D01*
X49890164Y-143053601D01*
X49828803Y-143038574D01*
X49770008Y-143023948D01*
X49713779Y-143009723D01*
X49660118Y-142995899D01*
X49609022Y-142982475D01*
X49560493Y-142969452D01*
X49492512Y-142950668D01*
X49430305Y-142932787D01*
X49373873Y-142915807D01*
X49323215Y-142899728D01*
X49264654Y-142879692D01*
X49212161Y-142859733D01*
X49160927Y-142838934D01*
X49110953Y-142817296D01*
X49062238Y-142794818D01*
X49014782Y-142771501D01*
X48968586Y-142747343D01*
X48923649Y-142722347D01*
X48879972Y-142696510D01*
X48838011Y-142669586D01*
X48797616Y-142641327D01*
X48749322Y-142604124D01*
X48703473Y-142564834D01*
X48660068Y-142523457D01*
X48619109Y-142479993D01*
X48588101Y-142443719D01*
X48551984Y-142395908D01*
X48518430Y-142345592D01*
X48493433Y-142303537D01*
X48470078Y-142259879D01*
X48448363Y-142214617D01*
X48428289Y-142167753D01*
X48409857Y-142119286D01*
X48401256Y-142094452D01*
X48385513Y-142043466D01*
X48371870Y-141990648D01*
X48360326Y-141935999D01*
X48350881Y-141879518D01*
X48343534Y-141821205D01*
X48338287Y-141761060D01*
X48335138Y-141699084D01*
X48334089Y-141635275D01*
X48336011Y-141554198D01*
X48341779Y-141475525D01*
X48351391Y-141399256D01*
X48364848Y-141325392D01*
X48382150Y-141253932D01*
X48403297Y-141184876D01*
X48428289Y-141118224D01*
X48457126Y-141053977D01*
X48489808Y-140992134D01*
X48526335Y-140932695D01*
X48566706Y-140875661D01*
X48610923Y-140821031D01*
X48658984Y-140768805D01*
X48710891Y-140718983D01*
X48766642Y-140671565D01*
X48826238Y-140626552D01*
X48889660Y-140584110D01*
X48956584Y-140544406D01*
X49027009Y-140507441D01*
X49100935Y-140473213D01*
X49178363Y-140441724D01*
X49259292Y-140412973D01*
X49343723Y-140386960D01*
X49431655Y-140363686D01*
X49523089Y-140343149D01*
X49618024Y-140325351D01*
X49666804Y-140317479D01*
X49716460Y-140310291D01*
X49766992Y-140303788D01*
X49818398Y-140297969D01*
X49870680Y-140292835D01*
X49923838Y-140288386D01*
X49977871Y-140284621D01*
X50032779Y-140281540D01*
X50088562Y-140279144D01*
X50145221Y-140277433D01*
X50202755Y-140276406D01*
X50261165Y-140276064D01*
X50316904Y-140276336D01*
X50371771Y-140277151D01*
X50425764Y-140278511D01*
X50478884Y-140280414D01*
X50531132Y-140282861D01*
X50582506Y-140285852D01*
X50633008Y-140289387D01*
X50682636Y-140293466D01*
X50731392Y-140298088D01*
X50826284Y-140308965D01*
X50917684Y-140322017D01*
X51005593Y-140337244D01*
X51090009Y-140354646D01*
X51170934Y-140374224D01*
X51248366Y-140395976D01*
X51322307Y-140419905D01*
X51392756Y-140446008D01*
X51459713Y-140474287D01*
X51523178Y-140504741D01*
X51583151Y-140537370D01*
X51611828Y-140554501D01*
X51667054Y-140590574D01*
X51719772Y-140629491D01*
X51769980Y-140671251D01*
X51817679Y-140715853D01*
X51862868Y-140763300D01*
X51905549Y-140813589D01*
X51945720Y-140866721D01*
X51983382Y-140922697D01*
X52018535Y-140981515D01*
X52051179Y-141043177D01*
X52081313Y-141107682D01*
X52108938Y-141175030D01*
X52134054Y-141245221D01*
X52156661Y-141318256D01*
X52176759Y-141394133D01*
X52194347Y-141472854D01*
X51211270Y-141604745D01*
X51195699Y-141549060D01*
X51177381Y-141496038D01*
X51156315Y-141445677D01*
X51132501Y-141397978D01*
X51105940Y-141352941D01*
X51076631Y-141310566D01*
X51044574Y-141270852D01*
X51009769Y-141233801D01*
X50972217Y-141199411D01*
X50931917Y-141167684D01*
X50903524Y-141148011D01*
X50858465Y-141120512D01*
X50809843Y-141095718D01*
X50757658Y-141073629D01*
X50701909Y-141054244D01*
X50642596Y-141037565D01*
X50579721Y-141023590D01*
X50513281Y-141012320D01*
X50443278Y-141003755D01*
X50369712Y-140997894D01*
X50318688Y-140995490D01*
X50266081Y-140994288D01*
X50239183Y-140994138D01*
X50182608Y-140994707D01*
X50127828Y-140996413D01*
X50074845Y-140999257D01*
X50023658Y-141003240D01*
X49974267Y-141008359D01*
X49880872Y-141022012D01*
X49794662Y-141040216D01*
X49715636Y-141062971D01*
X49643795Y-141090276D01*
X49579137Y-141122133D01*
X49521664Y-141158540D01*
X49471374Y-141199498D01*
X49428269Y-141245008D01*
X49392348Y-141295068D01*
X49363612Y-141349679D01*
X49342059Y-141408841D01*
X49327691Y-141472554D01*
X49320507Y-141540818D01*
X49319609Y-141576657D01*
X49321994Y-141634140D01*
X49329149Y-141688283D01*
X49341075Y-141739088D01*
X49357772Y-141786553D01*
X49379238Y-141830679D01*
X49411295Y-141879222D01*
X49417306Y-141886845D01*
X49450132Y-141923762D01*
X49487550Y-141958949D01*
X49529559Y-141992408D01*
X49576159Y-142024136D01*
X49627351Y-142054136D01*
X49671611Y-142076891D01*
X49706734Y-142093230D01*
X49761135Y-142114964D01*
X49810025Y-142132141D01*
X49865849Y-142150069D01*
X49928607Y-142168749D01*
X49998299Y-142188180D01*
X50048612Y-142201551D01*
X50102006Y-142215257D01*
X50158483Y-142229296D01*
X50218041Y-142243669D01*
X50280680Y-142258376D01*
X50346402Y-142273417D01*
X50415205Y-142288792D01*
X50487090Y-142304501D01*
X50572703Y-142323033D01*
X50655216Y-142341385D01*
X50734629Y-142359555D01*
X50810940Y-142377544D01*
X50884151Y-142395352D01*
X50954261Y-142412979D01*
X51021271Y-142430424D01*
X51085179Y-142447688D01*
X51145987Y-142464771D01*
X51203694Y-142481672D01*
X51258301Y-142498392D01*
X51309806Y-142514931D01*
X51358211Y-142531289D01*
X51425005Y-142555485D01*
X51484822Y-142579274D01*
X51540045Y-142603223D01*
X51593056Y-142627903D01*
X51643857Y-142653312D01*
X51692447Y-142679451D01*
X51738826Y-142706321D01*
X51782993Y-142733920D01*
X51824950Y-142762248D01*
X51864696Y-142791307D01*
X51914250Y-142831187D01*
X51959874Y-142872365D01*
X52002540Y-142915222D01*
X52042611Y-142960140D01*
X52080087Y-143007119D01*
X52114968Y-143056158D01*
X52147254Y-143107258D01*
X52176945Y-143160419D01*
X52204040Y-143215641D01*
X52228541Y-143272923D01*
X52250294Y-143332057D01*
X52269146Y-143393442D01*
X52281382Y-143440958D01*
X52291987Y-143489741D01*
X52300960Y-143539791D01*
X52308302Y-143591107D01*
X52314012Y-143643690D01*
X52318090Y-143697539D01*
X52320538Y-143752654D01*
X52321353Y-143809036D01*
G37*
G36*
X57058443Y-145200000D02*
G01*
X57058443Y-142262979D01*
X57058520Y-142212986D01*
X57058749Y-142163145D01*
X57059130Y-142113457D01*
X57059665Y-142063921D01*
X57061568Y-142003271D01*
X57063934Y-141937173D01*
X57066285Y-141874125D01*
X57069129Y-141799528D01*
X57071299Y-141743381D01*
X57073689Y-141682101D01*
X57076299Y-141615688D01*
X57079128Y-141544142D01*
X57082176Y-141467463D01*
X57085444Y-141385651D01*
X57088931Y-141298707D01*
X57092637Y-141206629D01*
X57077497Y-141263935D01*
X57062608Y-141320145D01*
X57047969Y-141375257D01*
X57033580Y-141429272D01*
X57019442Y-141482189D01*
X57005554Y-141534010D01*
X56991917Y-141584733D01*
X56978530Y-141634359D01*
X56965394Y-141682888D01*
X56952508Y-141730320D01*
X56927487Y-141821892D01*
X56903468Y-141909075D01*
X56880451Y-141991870D01*
X56858436Y-142070275D01*
X56837423Y-142144293D01*
X56817411Y-142213921D01*
X56798401Y-142279160D01*
X56780393Y-142340011D01*
X56763387Y-142396473D01*
X56747382Y-142448547D01*
X56732379Y-142496231D01*
X55859211Y-145200000D01*
X55138695Y-145200000D01*
X54265526Y-142496231D01*
X53897941Y-141206629D01*
X53900495Y-141255944D01*
X53905361Y-141351418D01*
X53909903Y-141442685D01*
X53914120Y-141529744D01*
X53918012Y-141612596D01*
X53921580Y-141691240D01*
X53924824Y-141765677D01*
X53927744Y-141835906D01*
X53930339Y-141901928D01*
X53932610Y-141963742D01*
X53934556Y-142021349D01*
X53936178Y-142074749D01*
X53937475Y-142123941D01*
X53938813Y-142189840D01*
X53939422Y-142246272D01*
X53939462Y-142262979D01*
X53939462Y-145200000D01*
X53039427Y-145200000D01*
X53039427Y-140354221D01*
X54396196Y-140354221D01*
X55262037Y-143064096D01*
X55337752Y-143325436D01*
X55502616Y-143975122D01*
X55718771Y-143198429D01*
X56609036Y-140354221D01*
X57958478Y-140354221D01*
X57958478Y-145200000D01*
X57058443Y-145200000D01*
G37*
G36*
X63291521Y-145200000D02*
G01*
X62288904Y-145200000D01*
X61859036Y-143929937D01*
X60015003Y-143929937D01*
X59585136Y-145200000D01*
X58571528Y-145200000D01*
X59312057Y-143167899D01*
X60240928Y-143167899D01*
X61631891Y-143167899D01*
X61154396Y-141790369D01*
X61006629Y-141327529D01*
X60934577Y-141093056D01*
X60913817Y-141167550D01*
X60900479Y-141214963D01*
X60886110Y-141264694D01*
X60870712Y-141316743D01*
X60854282Y-141371111D01*
X60839804Y-141418189D01*
X60830774Y-141447208D01*
X60811139Y-141508288D01*
X60795526Y-141555329D01*
X60776048Y-141613370D01*
X60752707Y-141682411D01*
X60725502Y-141762453D01*
X60694432Y-141853496D01*
X60677449Y-141903142D01*
X60659499Y-141955539D01*
X60640583Y-142010685D01*
X60620701Y-142068582D01*
X60599854Y-142129229D01*
X60578040Y-142192626D01*
X60555260Y-142258773D01*
X60531515Y-142327670D01*
X60506803Y-142399318D01*
X60481125Y-142473715D01*
X60454481Y-142550863D01*
X60426872Y-142630760D01*
X60398296Y-142713408D01*
X60368754Y-142798806D01*
X60338247Y-142886954D01*
X60306773Y-142977852D01*
X60274333Y-143071501D01*
X60240928Y-143167899D01*
X59312057Y-143167899D01*
X60337404Y-140354221D01*
X61532972Y-140354221D01*
X63291521Y-145200000D01*
G37*
G36*
X65584961Y-141137020D02*
G01*
X65584961Y-145200000D01*
X64571353Y-145200000D01*
X64571353Y-141137020D01*
X63009420Y-141137020D01*
X63009420Y-140354221D01*
X67151779Y-140354221D01*
X67151779Y-141137020D01*
X65584961Y-141137020D01*
G37*
G36*
X69859211Y-141137020D02*
G01*
X69859211Y-145200000D01*
X68845603Y-145200000D01*
X68845603Y-141137020D01*
X67283670Y-141137020D01*
X67283670Y-140354221D01*
X71426029Y-140354221D01*
X71426029Y-141137020D01*
X69859211Y-141137020D01*
G37*
D10*
X82324874Y-154235533D02*
X83848684Y-154235533D01*
X83086779Y-154997438D02*
X83086779Y-153473628D01*
X172824874Y-150985533D02*
X174348684Y-150985533D01*
X173586779Y-151747438D02*
X173586779Y-150223628D01*
X117074874Y-145485533D02*
X118598684Y-145485533D01*
X117836779Y-146247438D02*
X117836779Y-144723628D01*
X143574874Y-100235533D02*
X145098684Y-100235533D01*
X144336779Y-100997438D02*
X144336779Y-99473628D01*
X102074874Y-163485533D02*
X103598684Y-163485533D01*
X102836779Y-164247438D02*
X102836779Y-162723628D01*
X162824874Y-150985533D02*
X164348684Y-150985533D01*
X163586779Y-151747438D02*
X163586779Y-150223628D01*
X117074874Y-135735533D02*
X118598684Y-135735533D01*
X117836779Y-136497438D02*
X117836779Y-134973628D01*
X63574874Y-99985533D02*
X65098684Y-99985533D01*
X64336779Y-100747438D02*
X64336779Y-99223628D01*
X49336779Y-72509819D02*
X49336779Y-71509819D01*
X49336779Y-71509819D02*
X49574874Y-71509819D01*
X49574874Y-71509819D02*
X49717731Y-71557438D01*
X49717731Y-71557438D02*
X49812969Y-71652676D01*
X49812969Y-71652676D02*
X49860588Y-71747914D01*
X49860588Y-71747914D02*
X49908207Y-71938390D01*
X49908207Y-71938390D02*
X49908207Y-72081247D01*
X49908207Y-72081247D02*
X49860588Y-72271723D01*
X49860588Y-72271723D02*
X49812969Y-72366961D01*
X49812969Y-72366961D02*
X49717731Y-72462200D01*
X49717731Y-72462200D02*
X49574874Y-72509819D01*
X49574874Y-72509819D02*
X49336779Y-72509819D01*
X50289160Y-72224104D02*
X50765350Y-72224104D01*
X50193922Y-72509819D02*
X50527255Y-71509819D01*
X50527255Y-71509819D02*
X50860588Y-72509819D01*
X51051065Y-71509819D02*
X51622493Y-71509819D01*
X51336779Y-72509819D02*
X51336779Y-71509819D01*
X51908208Y-72224104D02*
X52384398Y-72224104D01*
X51812970Y-72509819D02*
X52146303Y-71509819D01*
X52146303Y-71509819D02*
X52479636Y-72509819D01*
X49527255Y-73119819D02*
X49717731Y-73119819D01*
X49717731Y-73119819D02*
X49812969Y-73167438D01*
X49812969Y-73167438D02*
X49908207Y-73262676D01*
X49908207Y-73262676D02*
X49955826Y-73453152D01*
X49955826Y-73453152D02*
X49955826Y-73786485D01*
X49955826Y-73786485D02*
X49908207Y-73976961D01*
X49908207Y-73976961D02*
X49812969Y-74072200D01*
X49812969Y-74072200D02*
X49717731Y-74119819D01*
X49717731Y-74119819D02*
X49527255Y-74119819D01*
X49527255Y-74119819D02*
X49432017Y-74072200D01*
X49432017Y-74072200D02*
X49336779Y-73976961D01*
X49336779Y-73976961D02*
X49289160Y-73786485D01*
X49289160Y-73786485D02*
X49289160Y-73453152D01*
X49289160Y-73453152D02*
X49336779Y-73262676D01*
X49336779Y-73262676D02*
X49432017Y-73167438D01*
X49432017Y-73167438D02*
X49527255Y-73119819D01*
X50384398Y-73119819D02*
X50384398Y-73929342D01*
X50384398Y-73929342D02*
X50432017Y-74024580D01*
X50432017Y-74024580D02*
X50479636Y-74072200D01*
X50479636Y-74072200D02*
X50574874Y-74119819D01*
X50574874Y-74119819D02*
X50765350Y-74119819D01*
X50765350Y-74119819D02*
X50860588Y-74072200D01*
X50860588Y-74072200D02*
X50908207Y-74024580D01*
X50908207Y-74024580D02*
X50955826Y-73929342D01*
X50955826Y-73929342D02*
X50955826Y-73119819D01*
X51289160Y-73119819D02*
X51860588Y-73119819D01*
X51574874Y-74119819D02*
X51574874Y-73119819D01*
X129086779Y-72509819D02*
X129086779Y-71509819D01*
X129086779Y-71509819D02*
X129324874Y-71509819D01*
X129324874Y-71509819D02*
X129467731Y-71557438D01*
X129467731Y-71557438D02*
X129562969Y-71652676D01*
X129562969Y-71652676D02*
X129610588Y-71747914D01*
X129610588Y-71747914D02*
X129658207Y-71938390D01*
X129658207Y-71938390D02*
X129658207Y-72081247D01*
X129658207Y-72081247D02*
X129610588Y-72271723D01*
X129610588Y-72271723D02*
X129562969Y-72366961D01*
X129562969Y-72366961D02*
X129467731Y-72462200D01*
X129467731Y-72462200D02*
X129324874Y-72509819D01*
X129324874Y-72509819D02*
X129086779Y-72509819D01*
X130039160Y-72224104D02*
X130515350Y-72224104D01*
X129943922Y-72509819D02*
X130277255Y-71509819D01*
X130277255Y-71509819D02*
X130610588Y-72509819D01*
X130801065Y-71509819D02*
X131372493Y-71509819D01*
X131086779Y-72509819D02*
X131086779Y-71509819D01*
X131658208Y-72224104D02*
X132134398Y-72224104D01*
X131562970Y-72509819D02*
X131896303Y-71509819D01*
X131896303Y-71509819D02*
X132229636Y-72509819D01*
X129086779Y-74119819D02*
X129086779Y-73119819D01*
X129562969Y-74119819D02*
X129562969Y-73119819D01*
X129562969Y-73119819D02*
X130134397Y-74119819D01*
X130134397Y-74119819D02*
X130134397Y-73119819D01*
X54297619Y-75454819D02*
X54630952Y-76454819D01*
X54630952Y-76454819D02*
X54964285Y-75454819D01*
X55297619Y-76073866D02*
X56059524Y-76073866D01*
X55678571Y-76454819D02*
X55678571Y-75692914D01*
X134297619Y-75454819D02*
X134630952Y-76454819D01*
X134630952Y-76454819D02*
X134964285Y-75454819D01*
X135297619Y-76073866D02*
X136059524Y-76073866D01*
X135678571Y-76454819D02*
X135678571Y-75692914D01*
X108247319Y-176259523D02*
X108961604Y-176259523D01*
X108961604Y-176259523D02*
X109104461Y-176307142D01*
X109104461Y-176307142D02*
X109199700Y-176402380D01*
X109199700Y-176402380D02*
X109247319Y-176545237D01*
X109247319Y-176545237D02*
X109247319Y-176640475D01*
X109247319Y-175259523D02*
X109247319Y-175830951D01*
X109247319Y-175545237D02*
X108247319Y-175545237D01*
X108247319Y-175545237D02*
X108390176Y-175640475D01*
X108390176Y-175640475D02*
X108485414Y-175735713D01*
X108485414Y-175735713D02*
X108533033Y-175830951D01*
X109247319Y-174307142D02*
X109247319Y-174878570D01*
X109247319Y-174592856D02*
X108247319Y-174592856D01*
X108247319Y-174592856D02*
X108390176Y-174688094D01*
X108390176Y-174688094D02*
X108485414Y-174783332D01*
X108485414Y-174783332D02*
X108533033Y-174878570D01*
X115051666Y-135184819D02*
X115051666Y-135899104D01*
X115051666Y-135899104D02*
X115004047Y-136041961D01*
X115004047Y-136041961D02*
X114908809Y-136137200D01*
X114908809Y-136137200D02*
X114765952Y-136184819D01*
X114765952Y-136184819D02*
X114670714Y-136184819D01*
X115432619Y-135184819D02*
X116099285Y-135184819D01*
X116099285Y-135184819D02*
X115670714Y-136184819D01*
X144249819Y-97343333D02*
X144964104Y-97343333D01*
X144964104Y-97343333D02*
X145106961Y-97390952D01*
X145106961Y-97390952D02*
X145202200Y-97486190D01*
X145202200Y-97486190D02*
X145249819Y-97629047D01*
X145249819Y-97629047D02*
X145249819Y-97724285D01*
X144249819Y-96438571D02*
X144249819Y-96629047D01*
X144249819Y-96629047D02*
X144297438Y-96724285D01*
X144297438Y-96724285D02*
X144345057Y-96771904D01*
X144345057Y-96771904D02*
X144487914Y-96867142D01*
X144487914Y-96867142D02*
X144678390Y-96914761D01*
X144678390Y-96914761D02*
X145059342Y-96914761D01*
X145059342Y-96914761D02*
X145154580Y-96867142D01*
X145154580Y-96867142D02*
X145202200Y-96819523D01*
X145202200Y-96819523D02*
X145249819Y-96724285D01*
X145249819Y-96724285D02*
X145249819Y-96533809D01*
X145249819Y-96533809D02*
X145202200Y-96438571D01*
X145202200Y-96438571D02*
X145154580Y-96390952D01*
X145154580Y-96390952D02*
X145059342Y-96343333D01*
X145059342Y-96343333D02*
X144821247Y-96343333D01*
X144821247Y-96343333D02*
X144726009Y-96390952D01*
X144726009Y-96390952D02*
X144678390Y-96438571D01*
X144678390Y-96438571D02*
X144630771Y-96533809D01*
X144630771Y-96533809D02*
X144630771Y-96724285D01*
X144630771Y-96724285D02*
X144678390Y-96819523D01*
X144678390Y-96819523D02*
X144726009Y-96867142D01*
X144726009Y-96867142D02*
X144821247Y-96914761D01*
X102238095Y-75502438D02*
X102142857Y-75454819D01*
X102142857Y-75454819D02*
X102000000Y-75454819D01*
X102000000Y-75454819D02*
X101857143Y-75502438D01*
X101857143Y-75502438D02*
X101761905Y-75597676D01*
X101761905Y-75597676D02*
X101714286Y-75692914D01*
X101714286Y-75692914D02*
X101666667Y-75883390D01*
X101666667Y-75883390D02*
X101666667Y-76026247D01*
X101666667Y-76026247D02*
X101714286Y-76216723D01*
X101714286Y-76216723D02*
X101761905Y-76311961D01*
X101761905Y-76311961D02*
X101857143Y-76407200D01*
X101857143Y-76407200D02*
X102000000Y-76454819D01*
X102000000Y-76454819D02*
X102095238Y-76454819D01*
X102095238Y-76454819D02*
X102238095Y-76407200D01*
X102238095Y-76407200D02*
X102285714Y-76359580D01*
X102285714Y-76359580D02*
X102285714Y-76026247D01*
X102285714Y-76026247D02*
X102095238Y-76026247D01*
X102714286Y-76454819D02*
X102714286Y-75454819D01*
X102714286Y-75454819D02*
X103285714Y-76454819D01*
X103285714Y-76454819D02*
X103285714Y-75454819D01*
X103761905Y-76454819D02*
X103761905Y-75454819D01*
X103761905Y-75454819D02*
X104000000Y-75454819D01*
X104000000Y-75454819D02*
X104142857Y-75502438D01*
X104142857Y-75502438D02*
X104238095Y-75597676D01*
X104238095Y-75597676D02*
X104285714Y-75692914D01*
X104285714Y-75692914D02*
X104333333Y-75883390D01*
X104333333Y-75883390D02*
X104333333Y-76026247D01*
X104333333Y-76026247D02*
X104285714Y-76216723D01*
X104285714Y-76216723D02*
X104238095Y-76311961D01*
X104238095Y-76311961D02*
X104142857Y-76407200D01*
X104142857Y-76407200D02*
X104000000Y-76454819D01*
X104000000Y-76454819D02*
X103761905Y-76454819D01*
X89836666Y-144234819D02*
X89836666Y-144949104D01*
X89836666Y-144949104D02*
X89789047Y-145091961D01*
X89789047Y-145091961D02*
X89693809Y-145187200D01*
X89693809Y-145187200D02*
X89550952Y-145234819D01*
X89550952Y-145234819D02*
X89455714Y-145234819D01*
X90360476Y-145234819D02*
X90550952Y-145234819D01*
X90550952Y-145234819D02*
X90646190Y-145187200D01*
X90646190Y-145187200D02*
X90693809Y-145139580D01*
X90693809Y-145139580D02*
X90789047Y-144996723D01*
X90789047Y-144996723D02*
X90836666Y-144806247D01*
X90836666Y-144806247D02*
X90836666Y-144425295D01*
X90836666Y-144425295D02*
X90789047Y-144330057D01*
X90789047Y-144330057D02*
X90741428Y-144282438D01*
X90741428Y-144282438D02*
X90646190Y-144234819D01*
X90646190Y-144234819D02*
X90455714Y-144234819D01*
X90455714Y-144234819D02*
X90360476Y-144282438D01*
X90360476Y-144282438D02*
X90312857Y-144330057D01*
X90312857Y-144330057D02*
X90265238Y-144425295D01*
X90265238Y-144425295D02*
X90265238Y-144663390D01*
X90265238Y-144663390D02*
X90312857Y-144758628D01*
X90312857Y-144758628D02*
X90360476Y-144806247D01*
X90360476Y-144806247D02*
X90455714Y-144853866D01*
X90455714Y-144853866D02*
X90646190Y-144853866D01*
X90646190Y-144853866D02*
X90741428Y-144806247D01*
X90741428Y-144806247D02*
X90789047Y-144758628D01*
X90789047Y-144758628D02*
X90836666Y-144663390D01*
X64249819Y-97343333D02*
X64964104Y-97343333D01*
X64964104Y-97343333D02*
X65106961Y-97390952D01*
X65106961Y-97390952D02*
X65202200Y-97486190D01*
X65202200Y-97486190D02*
X65249819Y-97629047D01*
X65249819Y-97629047D02*
X65249819Y-97724285D01*
X64583152Y-96438571D02*
X65249819Y-96438571D01*
X64202200Y-96676666D02*
X64916485Y-96914761D01*
X64916485Y-96914761D02*
X64916485Y-96295714D01*
X178190476Y-135954819D02*
X178190476Y-136669104D01*
X178190476Y-136669104D02*
X178142857Y-136811961D01*
X178142857Y-136811961D02*
X178047619Y-136907200D01*
X178047619Y-136907200D02*
X177904762Y-136954819D01*
X177904762Y-136954819D02*
X177809524Y-136954819D01*
X179190476Y-136954819D02*
X178619048Y-136954819D01*
X178904762Y-136954819D02*
X178904762Y-135954819D01*
X178904762Y-135954819D02*
X178809524Y-136097676D01*
X178809524Y-136097676D02*
X178714286Y-136192914D01*
X178714286Y-136192914D02*
X178619048Y-136240533D01*
X179809524Y-135954819D02*
X179904762Y-135954819D01*
X179904762Y-135954819D02*
X180000000Y-136002438D01*
X180000000Y-136002438D02*
X180047619Y-136050057D01*
X180047619Y-136050057D02*
X180095238Y-136145295D01*
X180095238Y-136145295D02*
X180142857Y-136335771D01*
X180142857Y-136335771D02*
X180142857Y-136573866D01*
X180142857Y-136573866D02*
X180095238Y-136764342D01*
X180095238Y-136764342D02*
X180047619Y-136859580D01*
X180047619Y-136859580D02*
X180000000Y-136907200D01*
X180000000Y-136907200D02*
X179904762Y-136954819D01*
X179904762Y-136954819D02*
X179809524Y-136954819D01*
X179809524Y-136954819D02*
X179714286Y-136907200D01*
X179714286Y-136907200D02*
X179666667Y-136859580D01*
X179666667Y-136859580D02*
X179619048Y-136764342D01*
X179619048Y-136764342D02*
X179571429Y-136573866D01*
X179571429Y-136573866D02*
X179571429Y-136335771D01*
X179571429Y-136335771D02*
X179619048Y-136145295D01*
X179619048Y-136145295D02*
X179666667Y-136050057D01*
X179666667Y-136050057D02*
X179714286Y-136002438D01*
X179714286Y-136002438D02*
X179809524Y-135954819D01*
X103999819Y-117343333D02*
X104714104Y-117343333D01*
X104714104Y-117343333D02*
X104856961Y-117390952D01*
X104856961Y-117390952D02*
X104952200Y-117486190D01*
X104952200Y-117486190D02*
X104999819Y-117629047D01*
X104999819Y-117629047D02*
X104999819Y-117724285D01*
X103999819Y-116390952D02*
X103999819Y-116867142D01*
X103999819Y-116867142D02*
X104476009Y-116914761D01*
X104476009Y-116914761D02*
X104428390Y-116867142D01*
X104428390Y-116867142D02*
X104380771Y-116771904D01*
X104380771Y-116771904D02*
X104380771Y-116533809D01*
X104380771Y-116533809D02*
X104428390Y-116438571D01*
X104428390Y-116438571D02*
X104476009Y-116390952D01*
X104476009Y-116390952D02*
X104571247Y-116343333D01*
X104571247Y-116343333D02*
X104809342Y-116343333D01*
X104809342Y-116343333D02*
X104904580Y-116390952D01*
X104904580Y-116390952D02*
X104952200Y-116438571D01*
X104952200Y-116438571D02*
X104999819Y-116533809D01*
X104999819Y-116533809D02*
X104999819Y-116771904D01*
X104999819Y-116771904D02*
X104952200Y-116867142D01*
X104952200Y-116867142D02*
X104904580Y-116914761D01*
X63178571Y-76454819D02*
X63178571Y-75454819D01*
X63178571Y-75454819D02*
X63416666Y-75454819D01*
X63416666Y-75454819D02*
X63559523Y-75502438D01*
X63559523Y-75502438D02*
X63654761Y-75597676D01*
X63654761Y-75597676D02*
X63702380Y-75692914D01*
X63702380Y-75692914D02*
X63749999Y-75883390D01*
X63749999Y-75883390D02*
X63749999Y-76026247D01*
X63749999Y-76026247D02*
X63702380Y-76216723D01*
X63702380Y-76216723D02*
X63654761Y-76311961D01*
X63654761Y-76311961D02*
X63559523Y-76407200D01*
X63559523Y-76407200D02*
X63416666Y-76454819D01*
X63416666Y-76454819D02*
X63178571Y-76454819D01*
X65130952Y-75454819D02*
X65321428Y-75454819D01*
X65321428Y-75454819D02*
X65416666Y-75502438D01*
X65416666Y-75502438D02*
X65511904Y-75597676D01*
X65511904Y-75597676D02*
X65559523Y-75788152D01*
X65559523Y-75788152D02*
X65559523Y-76121485D01*
X65559523Y-76121485D02*
X65511904Y-76311961D01*
X65511904Y-76311961D02*
X65416666Y-76407200D01*
X65416666Y-76407200D02*
X65321428Y-76454819D01*
X65321428Y-76454819D02*
X65130952Y-76454819D01*
X65130952Y-76454819D02*
X65035714Y-76407200D01*
X65035714Y-76407200D02*
X64940476Y-76311961D01*
X64940476Y-76311961D02*
X64892857Y-76121485D01*
X64892857Y-76121485D02*
X64892857Y-75788152D01*
X64892857Y-75788152D02*
X64940476Y-75597676D01*
X64940476Y-75597676D02*
X65035714Y-75502438D01*
X65035714Y-75502438D02*
X65130952Y-75454819D01*
X65988095Y-75454819D02*
X65988095Y-76264342D01*
X65988095Y-76264342D02*
X66035714Y-76359580D01*
X66035714Y-76359580D02*
X66083333Y-76407200D01*
X66083333Y-76407200D02*
X66178571Y-76454819D01*
X66178571Y-76454819D02*
X66369047Y-76454819D01*
X66369047Y-76454819D02*
X66464285Y-76407200D01*
X66464285Y-76407200D02*
X66511904Y-76359580D01*
X66511904Y-76359580D02*
X66559523Y-76264342D01*
X66559523Y-76264342D02*
X66559523Y-75454819D01*
X66892857Y-75454819D02*
X67464285Y-75454819D01*
X67178571Y-76454819D02*
X67178571Y-75454819D01*
X96047619Y-75454819D02*
X96380952Y-76454819D01*
X96380952Y-76454819D02*
X96714285Y-75454819D01*
X97047619Y-76073866D02*
X97809524Y-76073866D01*
X97428571Y-76454819D02*
X97428571Y-75692914D01*
X59238095Y-75502438D02*
X59142857Y-75454819D01*
X59142857Y-75454819D02*
X59000000Y-75454819D01*
X59000000Y-75454819D02*
X58857143Y-75502438D01*
X58857143Y-75502438D02*
X58761905Y-75597676D01*
X58761905Y-75597676D02*
X58714286Y-75692914D01*
X58714286Y-75692914D02*
X58666667Y-75883390D01*
X58666667Y-75883390D02*
X58666667Y-76026247D01*
X58666667Y-76026247D02*
X58714286Y-76216723D01*
X58714286Y-76216723D02*
X58761905Y-76311961D01*
X58761905Y-76311961D02*
X58857143Y-76407200D01*
X58857143Y-76407200D02*
X59000000Y-76454819D01*
X59000000Y-76454819D02*
X59095238Y-76454819D01*
X59095238Y-76454819D02*
X59238095Y-76407200D01*
X59238095Y-76407200D02*
X59285714Y-76359580D01*
X59285714Y-76359580D02*
X59285714Y-76026247D01*
X59285714Y-76026247D02*
X59095238Y-76026247D01*
X59714286Y-76454819D02*
X59714286Y-75454819D01*
X59714286Y-75454819D02*
X60285714Y-76454819D01*
X60285714Y-76454819D02*
X60285714Y-75454819D01*
X60761905Y-76454819D02*
X60761905Y-75454819D01*
X60761905Y-75454819D02*
X61000000Y-75454819D01*
X61000000Y-75454819D02*
X61142857Y-75502438D01*
X61142857Y-75502438D02*
X61238095Y-75597676D01*
X61238095Y-75597676D02*
X61285714Y-75692914D01*
X61285714Y-75692914D02*
X61333333Y-75883390D01*
X61333333Y-75883390D02*
X61333333Y-76026247D01*
X61333333Y-76026247D02*
X61285714Y-76216723D01*
X61285714Y-76216723D02*
X61238095Y-76311961D01*
X61238095Y-76311961D02*
X61142857Y-76407200D01*
X61142857Y-76407200D02*
X61000000Y-76454819D01*
X61000000Y-76454819D02*
X60761905Y-76454819D01*
X139238095Y-75502438D02*
X139142857Y-75454819D01*
X139142857Y-75454819D02*
X139000000Y-75454819D01*
X139000000Y-75454819D02*
X138857143Y-75502438D01*
X138857143Y-75502438D02*
X138761905Y-75597676D01*
X138761905Y-75597676D02*
X138714286Y-75692914D01*
X138714286Y-75692914D02*
X138666667Y-75883390D01*
X138666667Y-75883390D02*
X138666667Y-76026247D01*
X138666667Y-76026247D02*
X138714286Y-76216723D01*
X138714286Y-76216723D02*
X138761905Y-76311961D01*
X138761905Y-76311961D02*
X138857143Y-76407200D01*
X138857143Y-76407200D02*
X139000000Y-76454819D01*
X139000000Y-76454819D02*
X139095238Y-76454819D01*
X139095238Y-76454819D02*
X139238095Y-76407200D01*
X139238095Y-76407200D02*
X139285714Y-76359580D01*
X139285714Y-76359580D02*
X139285714Y-76026247D01*
X139285714Y-76026247D02*
X139095238Y-76026247D01*
X139714286Y-76454819D02*
X139714286Y-75454819D01*
X139714286Y-75454819D02*
X140285714Y-76454819D01*
X140285714Y-76454819D02*
X140285714Y-75454819D01*
X140761905Y-76454819D02*
X140761905Y-75454819D01*
X140761905Y-75454819D02*
X141000000Y-75454819D01*
X141000000Y-75454819D02*
X141142857Y-75502438D01*
X141142857Y-75502438D02*
X141238095Y-75597676D01*
X141238095Y-75597676D02*
X141285714Y-75692914D01*
X141285714Y-75692914D02*
X141333333Y-75883390D01*
X141333333Y-75883390D02*
X141333333Y-76026247D01*
X141333333Y-76026247D02*
X141285714Y-76216723D01*
X141285714Y-76216723D02*
X141238095Y-76311961D01*
X141238095Y-76311961D02*
X141142857Y-76407200D01*
X141142857Y-76407200D02*
X141000000Y-76454819D01*
X141000000Y-76454819D02*
X140761905Y-76454819D01*
X143595238Y-76204819D02*
X143595238Y-75204819D01*
X143595238Y-75204819D02*
X143833333Y-75204819D01*
X143833333Y-75204819D02*
X143976190Y-75252438D01*
X143976190Y-75252438D02*
X144071428Y-75347676D01*
X144071428Y-75347676D02*
X144119047Y-75442914D01*
X144119047Y-75442914D02*
X144166666Y-75633390D01*
X144166666Y-75633390D02*
X144166666Y-75776247D01*
X144166666Y-75776247D02*
X144119047Y-75966723D01*
X144119047Y-75966723D02*
X144071428Y-76061961D01*
X144071428Y-76061961D02*
X143976190Y-76157200D01*
X143976190Y-76157200D02*
X143833333Y-76204819D01*
X143833333Y-76204819D02*
X143595238Y-76204819D01*
X145357143Y-76204819D02*
X145357143Y-75204819D01*
X145833333Y-76204819D02*
X145833333Y-75204819D01*
X145833333Y-75204819D02*
X146404761Y-76204819D01*
X146404761Y-76204819D02*
X146404761Y-75204819D01*
X114676666Y-144659819D02*
X114676666Y-145374104D01*
X114676666Y-145374104D02*
X114629047Y-145516961D01*
X114629047Y-145516961D02*
X114533809Y-145612200D01*
X114533809Y-145612200D02*
X114390952Y-145659819D01*
X114390952Y-145659819D02*
X114295714Y-145659819D01*
X115295714Y-145088390D02*
X115200476Y-145040771D01*
X115200476Y-145040771D02*
X115152857Y-144993152D01*
X115152857Y-144993152D02*
X115105238Y-144897914D01*
X115105238Y-144897914D02*
X115105238Y-144850295D01*
X115105238Y-144850295D02*
X115152857Y-144755057D01*
X115152857Y-144755057D02*
X115200476Y-144707438D01*
X115200476Y-144707438D02*
X115295714Y-144659819D01*
X115295714Y-144659819D02*
X115486190Y-144659819D01*
X115486190Y-144659819D02*
X115581428Y-144707438D01*
X115581428Y-144707438D02*
X115629047Y-144755057D01*
X115629047Y-144755057D02*
X115676666Y-144850295D01*
X115676666Y-144850295D02*
X115676666Y-144897914D01*
X115676666Y-144897914D02*
X115629047Y-144993152D01*
X115629047Y-144993152D02*
X115581428Y-145040771D01*
X115581428Y-145040771D02*
X115486190Y-145088390D01*
X115486190Y-145088390D02*
X115295714Y-145088390D01*
X115295714Y-145088390D02*
X115200476Y-145136009D01*
X115200476Y-145136009D02*
X115152857Y-145183628D01*
X115152857Y-145183628D02*
X115105238Y-145278866D01*
X115105238Y-145278866D02*
X115105238Y-145469342D01*
X115105238Y-145469342D02*
X115152857Y-145564580D01*
X115152857Y-145564580D02*
X115200476Y-145612200D01*
X115200476Y-145612200D02*
X115295714Y-145659819D01*
X115295714Y-145659819D02*
X115486190Y-145659819D01*
X115486190Y-145659819D02*
X115581428Y-145612200D01*
X115581428Y-145612200D02*
X115629047Y-145564580D01*
X115629047Y-145564580D02*
X115676666Y-145469342D01*
X115676666Y-145469342D02*
X115676666Y-145278866D01*
X115676666Y-145278866D02*
X115629047Y-145183628D01*
X115629047Y-145183628D02*
X115581428Y-145136009D01*
X115581428Y-145136009D02*
X115486190Y-145088390D01*
D13*
X53300000Y-71300000D02*
X56700000Y-71300000D01*
X53300000Y-74700000D02*
X53300000Y-71300000D01*
X56700000Y-71300000D02*
X56700000Y-74700000D01*
X56700000Y-74700000D02*
X53300000Y-74700000D01*
X133300000Y-71300000D02*
X136700000Y-71300000D01*
X133300000Y-74700000D02*
X133300000Y-71300000D01*
X136700000Y-71300000D02*
X136700000Y-74700000D01*
X136700000Y-74700000D02*
X133300000Y-74700000D01*
X98442500Y-180800000D02*
X98442500Y-166100000D01*
X107642500Y-180800000D02*
X98442500Y-180800000D01*
X107642500Y-172000000D02*
X107642500Y-180800000D01*
X98242500Y-166950000D02*
X98242500Y-165900000D01*
X98442500Y-166100000D02*
X101042500Y-166100000D01*
X104942500Y-166100000D02*
X107642500Y-166100000D01*
X107642500Y-166100000D02*
X107642500Y-168000000D01*
X99292500Y-165900000D02*
X98242500Y-165900000D01*
X109730000Y-136730000D02*
X111000000Y-136730000D01*
X109730000Y-138000000D02*
X109730000Y-136730000D01*
X112042929Y-140160000D02*
X112440000Y-140160000D01*
X112042929Y-140920000D02*
X112440000Y-140920000D01*
X112110000Y-137620000D02*
X112440000Y-137620000D01*
X112110000Y-138380000D02*
X112440000Y-138380000D01*
X112440000Y-136670000D02*
X112440000Y-141870000D01*
X112440000Y-139270000D02*
X115100000Y-139270000D01*
X112440000Y-141870000D02*
X115100000Y-141870000D01*
X115100000Y-136670000D02*
X112440000Y-136670000D01*
X115100000Y-137620000D02*
X121100000Y-137620000D01*
X115100000Y-137680000D02*
X121100000Y-137680000D01*
X115100000Y-137800000D02*
X121100000Y-137800000D01*
X115100000Y-137920000D02*
X121100000Y-137920000D01*
X115100000Y-138040000D02*
X121100000Y-138040000D01*
X115100000Y-138160000D02*
X121100000Y-138160000D01*
X115100000Y-138280000D02*
X121100000Y-138280000D01*
X115100000Y-140160000D02*
X121100000Y-140160000D01*
X115100000Y-141870000D02*
X115100000Y-136670000D01*
X121100000Y-137620000D02*
X121100000Y-138380000D01*
X121100000Y-138380000D02*
X115100000Y-138380000D01*
X121100000Y-140160000D02*
X121100000Y-140920000D01*
X121100000Y-140920000D02*
X115100000Y-140920000D01*
X143795000Y-91355000D02*
X143795000Y-92625000D01*
X142525000Y-91355000D02*
X143795000Y-91355000D01*
X140365000Y-93667929D02*
X140365000Y-94065000D01*
X139605000Y-93667929D02*
X139605000Y-94065000D01*
X137825000Y-93667929D02*
X137825000Y-94065000D01*
X137065000Y-93667929D02*
X137065000Y-94065000D01*
X142905000Y-93735000D02*
X142905000Y-94065000D01*
X142145000Y-93735000D02*
X142145000Y-94065000D01*
X143855000Y-94065000D02*
X136115000Y-94065000D01*
X141255000Y-94065000D02*
X141255000Y-96725000D01*
X138715000Y-94065000D02*
X138715000Y-96725000D01*
X136115000Y-94065000D02*
X136115000Y-96725000D01*
X143855000Y-96725000D02*
X143855000Y-94065000D01*
X142905000Y-96725000D02*
X142905000Y-102725000D01*
X142845000Y-96725000D02*
X142845000Y-102725000D01*
X142725000Y-96725000D02*
X142725000Y-102725000D01*
X142605000Y-96725000D02*
X142605000Y-102725000D01*
X142485000Y-96725000D02*
X142485000Y-102725000D01*
X142365000Y-96725000D02*
X142365000Y-102725000D01*
X142245000Y-96725000D02*
X142245000Y-102725000D01*
X140365000Y-96725000D02*
X140365000Y-102725000D01*
X137825000Y-96725000D02*
X137825000Y-102725000D01*
X136115000Y-96725000D02*
X143855000Y-96725000D01*
X142905000Y-102725000D02*
X142145000Y-102725000D01*
X142145000Y-102725000D02*
X142145000Y-96725000D01*
X140365000Y-102725000D02*
X139605000Y-102725000D01*
X139605000Y-102725000D02*
X139605000Y-96725000D01*
X137825000Y-102725000D02*
X137065000Y-102725000D01*
X137065000Y-102725000D02*
X137065000Y-96725000D01*
X101300000Y-71300000D02*
X104700000Y-71300000D01*
X101300000Y-74700000D02*
X101300000Y-71300000D01*
X104700000Y-71300000D02*
X104700000Y-74700000D01*
X104700000Y-74700000D02*
X101300000Y-74700000D01*
X91645000Y-153795000D02*
X90375000Y-153795000D01*
X91645000Y-152525000D02*
X91645000Y-153795000D01*
X89332071Y-150365000D02*
X88935000Y-150365000D01*
X89332071Y-149605000D02*
X88935000Y-149605000D01*
X89332071Y-147825000D02*
X88935000Y-147825000D01*
X89332071Y-147065000D02*
X88935000Y-147065000D01*
X89265000Y-152905000D02*
X88935000Y-152905000D01*
X89265000Y-152145000D02*
X88935000Y-152145000D01*
X88935000Y-153855000D02*
X88935000Y-146115000D01*
X88935000Y-151255000D02*
X86275000Y-151255000D01*
X88935000Y-148715000D02*
X86275000Y-148715000D01*
X88935000Y-146115000D02*
X86275000Y-146115000D01*
X86275000Y-153855000D02*
X88935000Y-153855000D01*
X86275000Y-152905000D02*
X80275000Y-152905000D01*
X86275000Y-152845000D02*
X80275000Y-152845000D01*
X86275000Y-152725000D02*
X80275000Y-152725000D01*
X86275000Y-152605000D02*
X80275000Y-152605000D01*
X86275000Y-152485000D02*
X80275000Y-152485000D01*
X86275000Y-152365000D02*
X80275000Y-152365000D01*
X86275000Y-152245000D02*
X80275000Y-152245000D01*
X86275000Y-150365000D02*
X80275000Y-150365000D01*
X86275000Y-147825000D02*
X80275000Y-147825000D01*
X86275000Y-146115000D02*
X86275000Y-153855000D01*
X80275000Y-152905000D02*
X80275000Y-152145000D01*
X80275000Y-152145000D02*
X86275000Y-152145000D01*
X80275000Y-150365000D02*
X80275000Y-149605000D01*
X80275000Y-149605000D02*
X86275000Y-149605000D01*
X80275000Y-147825000D02*
X80275000Y-147065000D01*
X80275000Y-147065000D02*
X86275000Y-147065000D01*
X63795000Y-91355000D02*
X63795000Y-92625000D01*
X62525000Y-91355000D02*
X63795000Y-91355000D01*
X60365000Y-93667929D02*
X60365000Y-94065000D01*
X59605000Y-93667929D02*
X59605000Y-94065000D01*
X57825000Y-93667929D02*
X57825000Y-94065000D01*
X57065000Y-93667929D02*
X57065000Y-94065000D01*
X62905000Y-93735000D02*
X62905000Y-94065000D01*
X62145000Y-93735000D02*
X62145000Y-94065000D01*
X63855000Y-94065000D02*
X56115000Y-94065000D01*
X61255000Y-94065000D02*
X61255000Y-96725000D01*
X58715000Y-94065000D02*
X58715000Y-96725000D01*
X56115000Y-94065000D02*
X56115000Y-96725000D01*
X63855000Y-96725000D02*
X63855000Y-94065000D01*
X62905000Y-96725000D02*
X62905000Y-102725000D01*
X62845000Y-96725000D02*
X62845000Y-102725000D01*
X62725000Y-96725000D02*
X62725000Y-102725000D01*
X62605000Y-96725000D02*
X62605000Y-102725000D01*
X62485000Y-96725000D02*
X62485000Y-102725000D01*
X62365000Y-96725000D02*
X62365000Y-102725000D01*
X62245000Y-96725000D02*
X62245000Y-102725000D01*
X60365000Y-96725000D02*
X60365000Y-102725000D01*
X57825000Y-96725000D02*
X57825000Y-102725000D01*
X56115000Y-96725000D02*
X63855000Y-96725000D01*
X62905000Y-102725000D02*
X62145000Y-102725000D01*
X62145000Y-102725000D02*
X62145000Y-96725000D01*
X60365000Y-102725000D02*
X59605000Y-102725000D01*
X59605000Y-102725000D02*
X59605000Y-96725000D01*
X57825000Y-102725000D02*
X57065000Y-102725000D01*
X57065000Y-102725000D02*
X57065000Y-96725000D01*
X180610000Y-147560000D02*
X177000000Y-147560000D01*
X180610000Y-138440000D02*
X180610000Y-147560000D01*
X180610000Y-138440000D02*
X177000000Y-138440000D01*
X177300000Y-146000000D02*
X172500000Y-146000000D01*
X177300000Y-140000000D02*
X172500000Y-140000000D01*
X177300000Y-138440000D02*
X177300000Y-147560000D01*
X176760000Y-150260000D02*
X176760000Y-148360000D01*
X175420000Y-150260000D02*
X176760000Y-150260000D01*
X174000000Y-147560000D02*
X171000000Y-147560000D01*
X174000000Y-138440000D02*
X171000000Y-138440000D01*
X168000000Y-147560000D02*
X165690000Y-147560000D01*
X168000000Y-138440000D02*
X165690000Y-138440000D01*
X165690000Y-138440000D02*
X165690000Y-147560000D01*
X172500000Y-140000000D02*
G75*
G03*
X172500000Y-146000000I0J-3000000D01*
G01*
X103545000Y-111355000D02*
X103545000Y-112625000D01*
X102275000Y-111355000D02*
X103545000Y-111355000D01*
X100115000Y-113667929D02*
X100115000Y-114065000D01*
X99355000Y-113667929D02*
X99355000Y-114065000D01*
X102655000Y-113735000D02*
X102655000Y-114065000D01*
X101895000Y-113735000D02*
X101895000Y-114065000D01*
X103605000Y-114065000D02*
X98405000Y-114065000D01*
X101005000Y-114065000D02*
X101005000Y-116725000D01*
X98405000Y-114065000D02*
X98405000Y-116725000D01*
X103605000Y-116725000D02*
X103605000Y-114065000D01*
X102655000Y-116725000D02*
X102655000Y-122725000D01*
X102595000Y-116725000D02*
X102595000Y-122725000D01*
X102475000Y-116725000D02*
X102475000Y-122725000D01*
X102355000Y-116725000D02*
X102355000Y-122725000D01*
X102235000Y-116725000D02*
X102235000Y-122725000D01*
X102115000Y-116725000D02*
X102115000Y-122725000D01*
X101995000Y-116725000D02*
X101995000Y-122725000D01*
X100115000Y-116725000D02*
X100115000Y-122725000D01*
X98405000Y-116725000D02*
X103605000Y-116725000D01*
X102655000Y-122725000D02*
X101895000Y-122725000D01*
X101895000Y-122725000D02*
X101895000Y-116725000D01*
X100115000Y-122725000D02*
X99355000Y-122725000D01*
X99355000Y-122725000D02*
X99355000Y-116725000D01*
X63300000Y-71300000D02*
X66700000Y-71300000D01*
X63300000Y-74700000D02*
X63300000Y-71300000D01*
X66700000Y-71300000D02*
X66700000Y-74700000D01*
X66700000Y-74700000D02*
X63300000Y-74700000D01*
X95300000Y-71300000D02*
X98700000Y-71300000D01*
X95300000Y-74700000D02*
X95300000Y-71300000D01*
X98700000Y-71300000D02*
X98700000Y-74700000D01*
X98700000Y-74700000D02*
X95300000Y-74700000D01*
X58300000Y-71300000D02*
X61700000Y-71300000D01*
X58300000Y-74700000D02*
X58300000Y-71300000D01*
X61700000Y-71300000D02*
X61700000Y-74700000D01*
X61700000Y-74700000D02*
X58300000Y-74700000D01*
X138300000Y-71300000D02*
X141700000Y-71300000D01*
X138300000Y-74700000D02*
X138300000Y-71300000D01*
X141700000Y-71300000D02*
X141700000Y-74700000D01*
X141700000Y-74700000D02*
X138300000Y-74700000D01*
X143300000Y-71300000D02*
X146700000Y-71300000D01*
X143300000Y-74700000D02*
X143300000Y-71300000D01*
X146700000Y-71300000D02*
X146700000Y-74700000D01*
X146700000Y-74700000D02*
X143300000Y-74700000D01*
X109355000Y-146205000D02*
X110625000Y-146205000D01*
X109355000Y-147475000D02*
X109355000Y-146205000D01*
X111667929Y-149635000D02*
X112065000Y-149635000D01*
X111667929Y-150395000D02*
X112065000Y-150395000D01*
X111667929Y-152175000D02*
X112065000Y-152175000D01*
X111667929Y-152935000D02*
X112065000Y-152935000D01*
X111735000Y-147095000D02*
X112065000Y-147095000D01*
X111735000Y-147855000D02*
X112065000Y-147855000D01*
X112065000Y-146145000D02*
X112065000Y-153885000D01*
X112065000Y-148745000D02*
X114725000Y-148745000D01*
X112065000Y-151285000D02*
X114725000Y-151285000D01*
X112065000Y-153885000D02*
X114725000Y-153885000D01*
X114725000Y-146145000D02*
X112065000Y-146145000D01*
X114725000Y-147095000D02*
X120725000Y-147095000D01*
X114725000Y-147155000D02*
X120725000Y-147155000D01*
X114725000Y-147275000D02*
X120725000Y-147275000D01*
X114725000Y-147395000D02*
X120725000Y-147395000D01*
X114725000Y-147515000D02*
X120725000Y-147515000D01*
X114725000Y-147635000D02*
X120725000Y-147635000D01*
X114725000Y-147755000D02*
X120725000Y-147755000D01*
X114725000Y-149635000D02*
X120725000Y-149635000D01*
X114725000Y-152175000D02*
X120725000Y-152175000D01*
X114725000Y-153885000D02*
X114725000Y-146145000D01*
X120725000Y-147095000D02*
X120725000Y-147855000D01*
X120725000Y-147855000D02*
X114725000Y-147855000D01*
X120725000Y-149635000D02*
X120725000Y-150395000D01*
X120725000Y-150395000D02*
X114725000Y-150395000D01*
X120725000Y-152175000D02*
X120725000Y-152935000D01*
X120725000Y-152935000D02*
X114725000Y-152935000D01*
%LPC*%
D14*
X127000000Y-172720000D03*
X83820000Y-172720000D03*
X101600000Y-30480000D03*
X30480000Y-100330000D03*
X170180000Y-100330000D03*
D15*
X160000000Y-40000000D03*
D16*
X55000000Y-73000000D03*
X135000000Y-73000000D03*
D17*
X103042500Y-167000000D03*
D18*
X103042500Y-173000000D03*
D19*
X107742500Y-170000000D03*
D20*
X111000000Y-138000000D03*
D21*
X111000000Y-140540000D03*
D20*
X142525000Y-92625000D03*
D21*
X139985000Y-92625000D03*
X137445000Y-92625000D03*
D16*
X103000000Y-73000000D03*
D20*
X90375000Y-152525000D03*
D21*
X90375000Y-149985000D03*
X90375000Y-147445000D03*
D20*
X62525000Y-92625000D03*
D21*
X59985000Y-92625000D03*
X57445000Y-92625000D03*
D15*
X40000000Y-40000000D03*
D14*
X170000000Y-170000000D03*
D22*
X175400000Y-143000000D03*
D23*
X171000000Y-143000000D03*
D24*
X175500000Y-148500000D03*
X169500000Y-148500000D03*
X169500000Y-137500000D03*
X175500000Y-137500000D03*
D20*
X102275000Y-112625000D03*
D21*
X99735000Y-112625000D03*
D14*
X170000000Y-30000000D03*
D25*
X101000000Y-100000000D03*
D16*
X65000000Y-73000000D03*
D15*
X160000000Y-160000000D03*
D16*
X97000000Y-73000000D03*
D14*
X30000000Y-170000000D03*
D16*
X60000000Y-73000000D03*
X140000000Y-73000000D03*
D14*
X30000000Y-30000000D03*
D16*
X145000000Y-73000000D03*
D20*
X110625000Y-147475000D03*
D21*
X110625000Y-150015000D03*
X110625000Y-152555000D03*
D15*
X40000000Y-160000000D03*
%LPD*%
M02*
