M48
; DRILL file {KiCad 7.0.9-1.fc39} date Mon 18 Dec 2023 11:53:07 AM EST
; FORMAT={-:-/ absolute / metric / decimal}
; #@! TF.CreationDate,2023-12-18T11:53:07-05:00
; #@! TF.GenerationSoftware,Kicad,Pcbnew,7.0.9-1.fc39
; #@! TF.FileFunction,Plated,1,2,PTH
FMAT,2
METRIC
; #@! TA.AperFunction,Plated,PTH,ViaDrill
T1C0.400
; #@! TA.AperFunction,Plated,PTH,ComponentDrill
T2C1.000
; #@! TA.AperFunction,Plated,PTH,ComponentDrill
T3C4.300
; #@! TA.AperFunction,Plated,PTH,ComponentDrill
T4C5.300
; #@! TA.AperFunction,Plated,PTH,ComponentDrill
T5C6.400
%
G90
G05
T1
X70.0Y-71.0
X150.0Y-73.0
T2
X57.445Y-92.625
X59.985Y-92.625
X62.525Y-92.625
X90.375Y-147.445
X90.375Y-149.985
X90.375Y-152.525
X99.735Y-112.625
X102.275Y-112.625
X110.625Y-147.475
X110.625Y-150.015
X110.625Y-152.555
X111.0Y-138.0
X111.0Y-140.54
X137.445Y-92.625
X139.985Y-92.625
X142.525Y-92.625
T3
X30.0Y-30.0
X30.0Y-170.0
X170.0Y-30.0
X170.0Y-170.0
T4
X101.0Y-100.0
T5
X40.0Y-40.0
X40.0Y-160.0
X160.0Y-40.0
X160.0Y-160.0
T2
X102.042Y-167.0G85X104.042Y-167.0
G05
X102.042Y-173.0G85X104.042Y-173.0
G05
X107.742Y-171.0G85X107.742Y-169.0
G05
T0
M30
