G04 #@! TF.GenerationSoftware,KiCad,Pcbnew,7.0.10-1.fc39*
G04 #@! TF.CreationDate,2024-01-19T21:35:41-05:00*
G04 #@! TF.ProjectId,SYSMATT-WS2812-MATRIX-CARRIER-32X8,5359534d-4154-4542-9d57-53323831322d,rev?*
G04 #@! TF.SameCoordinates,Original*
G04 #@! TF.FileFunction,Soldermask,Top*
G04 #@! TF.FilePolarity,Negative*
%FSLAX46Y46*%
G04 Gerber Fmt 4.6, Leading zero omitted, Abs format (unit mm)*
G04 Created by KiCad (PCBNEW 7.0.10-1.fc39) date 2024-01-19 21:35:41*
%MOMM*%
%LPD*%
G01*
G04 APERTURE LIST*
G04 Aperture macros list*
%AMRoundRect*
0 Rectangle with rounded corners*
0 $1 Rounding radius*
0 $2 $3 $4 $5 $6 $7 $8 $9 X,Y pos of 4 corners*
0 Add a 4 corners polygon primitive as box body*
4,1,4,$2,$3,$4,$5,$6,$7,$8,$9,$2,$3,0*
0 Add four circle primitives for the rounded corners*
1,1,$1+$1,$2,$3*
1,1,$1+$1,$4,$5*
1,1,$1+$1,$6,$7*
1,1,$1+$1,$8,$9*
0 Add four rect primitives between the rounded corners*
20,1,$1+$1,$2,$3,$4,$5,0*
20,1,$1+$1,$4,$5,$6,$7,0*
20,1,$1+$1,$6,$7,$8,$9,0*
20,1,$1+$1,$8,$9,$2,$3,0*%
%AMFreePoly0*
4,1,6,1.000000,0.000000,0.500000,-0.750000,-0.500000,-0.750000,-0.500000,0.750000,0.500000,0.750000,1.000000,0.000000,1.000000,0.000000,$1*%
%AMFreePoly1*
4,1,6,0.500000,-0.750000,-0.650000,-0.750000,-0.150000,0.000000,-0.650000,0.750000,0.500000,0.750000,0.500000,-0.750000,0.500000,-0.750000,$1*%
G04 Aperture macros list end*
%ADD10C,1.600000*%
%ADD11C,12.800000*%
%ADD12R,3.000000X3.000000*%
%ADD13R,1.700000X1.700000*%
%ADD14O,1.700000X1.700000*%
%ADD15R,1.600000X1.600000*%
%ADD16C,3.000000*%
%ADD17R,3.500000X3.500000*%
%ADD18RoundRect,0.750000X1.000000X-0.750000X1.000000X0.750000X-1.000000X0.750000X-1.000000X-0.750000X0*%
%ADD19RoundRect,0.875000X0.875000X-0.875000X0.875000X0.875000X-0.875000X0.875000X-0.875000X-0.875000X0*%
%ADD20FreePoly0,90.000000*%
%ADD21FreePoly1,90.000000*%
%ADD22R,2.400000X1.600000*%
%ADD23O,2.400000X1.600000*%
%ADD24RoundRect,0.625000X0.625000X-1.125000X0.625000X1.125000X-0.625000X1.125000X-0.625000X-1.125000X0*%
%ADD25O,2.500000X3.500000*%
%ADD26C,10.600000*%
%ADD27RoundRect,0.102000X1.000000X-1.000000X1.000000X1.000000X-1.000000X1.000000X-1.000000X-1.000000X0*%
%ADD28C,2.204000*%
%ADD29RoundRect,0.102000X-0.780000X0.780000X-0.780000X-0.780000X0.780000X-0.780000X0.780000X0.780000X0*%
%ADD30C,1.764000*%
G04 APERTURE END LIST*
D10*
X162017000Y37935000D03*
X159517000Y37935000D03*
D11*
X322500000Y17500000D03*
D12*
X55397400Y50732000D03*
D13*
X310521000Y43553000D03*
D14*
X310521000Y41013000D03*
D13*
X215084001Y72013000D03*
D14*
X215084001Y69473000D03*
X217624001Y72013000D03*
X217624001Y69473000D03*
X220164001Y72013000D03*
X220164001Y69473000D03*
X222704001Y72013000D03*
X222704001Y69473000D03*
X225244001Y72013000D03*
X225244001Y69473000D03*
X227784001Y72013000D03*
X227784001Y69473000D03*
X230324001Y72013000D03*
X230324001Y69473000D03*
X232864001Y72013000D03*
X232864001Y69473000D03*
X235404001Y72013000D03*
X235404001Y69473000D03*
X237944001Y72013000D03*
X237944001Y69473000D03*
X240484001Y72013000D03*
X240484001Y69473000D03*
X243024001Y72013000D03*
X243024001Y69473000D03*
X245564001Y72013000D03*
X245564001Y69473000D03*
X248104001Y72013000D03*
X248104001Y69473000D03*
X250644001Y72013000D03*
X250644001Y69473000D03*
X253184001Y72013000D03*
X253184001Y69473000D03*
X255724001Y72013000D03*
X255724001Y69473000D03*
X258264001Y72013000D03*
X258264001Y69473000D03*
X260804001Y72013000D03*
X260804001Y69473000D03*
X263344001Y72013000D03*
X263344001Y69473000D03*
X265884001Y72013000D03*
X265884001Y69473000D03*
X268424001Y72013000D03*
X268424001Y69473000D03*
D13*
X91151409Y75618000D03*
D14*
X93691409Y75618000D03*
X96231409Y75618000D03*
D13*
X131888000Y35978000D03*
D14*
X134428000Y35978000D03*
X136968000Y35978000D03*
D12*
X295732200Y50012600D03*
D15*
X208226001Y26039000D03*
D10*
X205726001Y26039000D03*
D12*
X78421000Y28358000D03*
D16*
X83501000Y28358000D03*
X88581000Y28358000D03*
D17*
X156982500Y23335000D03*
D18*
X156982500Y17335000D03*
D19*
X161682500Y20335000D03*
D13*
X91181409Y83288000D03*
D14*
X93721409Y83288000D03*
X96261409Y83288000D03*
D13*
X92125000Y13381000D03*
D14*
X92125000Y15921000D03*
D12*
X166039800Y50165000D03*
D20*
X192732001Y35982000D03*
D21*
X192732001Y37432000D03*
D13*
X93612000Y49950000D03*
D14*
X93612000Y52490000D03*
X93612000Y55030000D03*
D22*
X203654001Y61980000D03*
D23*
X203654001Y59440000D03*
X203654001Y56900000D03*
X203654001Y54360000D03*
X203654001Y51820000D03*
X203654001Y49280000D03*
X203654001Y46740000D03*
X211274001Y46740000D03*
X211274001Y49280000D03*
X211274001Y51820000D03*
X211274001Y54360000D03*
X211274001Y56900000D03*
X211274001Y59440000D03*
X211274001Y61980000D03*
D15*
X161977000Y31585000D03*
D10*
X159477000Y31585000D03*
D24*
X170000000Y15000000D03*
X174000000Y15000000D03*
D25*
X170000000Y28500000D03*
X174000000Y28500000D03*
D13*
X97148000Y16053000D03*
D14*
X97148000Y13513000D03*
D13*
X29000000Y41500000D03*
D14*
X29000000Y44040000D03*
D12*
X128713000Y28358000D03*
D16*
X133793000Y28358000D03*
X138873000Y28358000D03*
D11*
X322500000Y81500000D03*
D13*
X98614000Y35851000D03*
D14*
X101154000Y35851000D03*
X103694000Y35851000D03*
D26*
X191243001Y57357000D03*
D12*
X285572200Y49961800D03*
D16*
X218300000Y31920000D03*
X265250000Y31920000D03*
X218300000Y56430000D03*
X265250000Y56430000D03*
D27*
X226260000Y31500000D03*
D28*
X228800000Y31500000D03*
X231340000Y31500000D03*
X233880000Y31500000D03*
X236420000Y31500000D03*
X238960000Y31500000D03*
X241500000Y31500000D03*
X244040000Y31500000D03*
X246580000Y31500000D03*
X249120000Y31500000D03*
X251660000Y31500000D03*
X254200000Y31500000D03*
X256740000Y31500000D03*
X259280000Y31500000D03*
X261820000Y31500000D03*
X261820000Y56900000D03*
X259280000Y56900000D03*
X256740000Y56900000D03*
X254200000Y56900000D03*
X251660000Y56900000D03*
X249120000Y56900000D03*
X246580000Y56900000D03*
X244040000Y56900000D03*
X241500000Y56900000D03*
X238960000Y56900000D03*
X236420000Y56900000D03*
X233880000Y56900000D03*
X231340000Y56900000D03*
X228800000Y56900000D03*
X226260000Y56900000D03*
D12*
X112076000Y28358000D03*
D16*
X117156000Y28358000D03*
X122236000Y28358000D03*
D13*
X81596000Y35851000D03*
D14*
X84136000Y35851000D03*
X86676000Y35851000D03*
D10*
X208266001Y32135000D03*
X205766001Y32135000D03*
D13*
X215084001Y26039000D03*
D14*
X215084001Y23499000D03*
X217624001Y26039000D03*
X217624001Y23499000D03*
X220164001Y26039000D03*
X220164001Y23499000D03*
X222704001Y26039000D03*
X222704001Y23499000D03*
X225244001Y26039000D03*
X225244001Y23499000D03*
X227784001Y26039000D03*
X227784001Y23499000D03*
X230324001Y26039000D03*
X230324001Y23499000D03*
X232864001Y26039000D03*
X232864001Y23499000D03*
X235404001Y26039000D03*
X235404001Y23499000D03*
X237944001Y26039000D03*
X237944001Y23499000D03*
X240484001Y26039000D03*
X240484001Y23499000D03*
X243024001Y26039000D03*
X243024001Y23499000D03*
X245564001Y26039000D03*
X245564001Y23499000D03*
X248104001Y26039000D03*
X248104001Y23499000D03*
X250644001Y26039000D03*
X250644001Y23499000D03*
X253184001Y26039000D03*
X253184001Y23499000D03*
X255724001Y26039000D03*
X255724001Y23499000D03*
X258264001Y26039000D03*
X258264001Y23499000D03*
X260804001Y26039000D03*
X260804001Y23499000D03*
X263344001Y26039000D03*
X263344001Y23499000D03*
X265884001Y26039000D03*
X265884001Y23499000D03*
X268424001Y26039000D03*
X268424001Y23499000D03*
D12*
X173913800Y50190400D03*
D11*
X18500000Y81500000D03*
X18500000Y17500000D03*
D13*
X115251000Y35851000D03*
D14*
X117791000Y35851000D03*
X120331000Y35851000D03*
D12*
X50007000Y50732000D03*
X290594000Y50000000D03*
D29*
X263344000Y62615000D03*
D30*
X260804000Y62615000D03*
X258264000Y62615000D03*
X255724000Y62615000D03*
X253184000Y62615000D03*
X250644000Y62615000D03*
X248104000Y62615000D03*
X245564000Y62615000D03*
X243024000Y62615000D03*
X240484000Y62615000D03*
X237944000Y62615000D03*
X235404000Y62615000D03*
X232864000Y62615000D03*
X230324000Y62615000D03*
X227784000Y62615000D03*
X225244000Y62615000D03*
X222704000Y62615000D03*
X220164000Y62615000D03*
X217624000Y62615000D03*
X263344000Y39755000D03*
X260804000Y39755000D03*
X258264000Y39755000D03*
X255724000Y39755000D03*
X253184000Y39755000D03*
X250644000Y39755000D03*
X248104000Y39755000D03*
X245564000Y39755000D03*
X243024000Y39755000D03*
X240484000Y39755000D03*
X237944000Y39755000D03*
X235404000Y39755000D03*
X232864000Y39755000D03*
X230324000Y39755000D03*
X227784000Y39755000D03*
X225244000Y39755000D03*
X222704000Y39755000D03*
X220164000Y39755000D03*
X217624000Y39755000D03*
D12*
X44780200Y50774600D03*
D13*
X113862000Y55000000D03*
D14*
X113862000Y52460000D03*
X113862000Y49920000D03*
D12*
X95439000Y28358000D03*
D16*
X100519000Y28358000D03*
X105599000Y28358000D03*
M02*
