M48
; DRILL file {KiCad 7.0.10-1.fc39} date Fri 19 Jan 2024 09:35:59 PM EST
; FORMAT={-:-/ absolute / metric / decimal}
; #@! TF.CreationDate,2024-01-19T21:35:59-05:00
; #@! TF.GenerationSoftware,Kicad,Pcbnew,7.0.10-1.fc39
; #@! TF.FileFunction,Plated,1,2,PTH
FMAT,2
METRIC
; #@! TA.AperFunction,Plated,PTH,ViaDrill
T1C0.400
; #@! TA.AperFunction,Plated,PTH,ComponentDrill
T2C0.800
; #@! TA.AperFunction,Plated,PTH,ComponentDrill
T3C1.000
; #@! TA.AperFunction,Plated,PTH,ComponentDrill
T4C1.020
; #@! TA.AperFunction,Plated,PTH,ComponentDrill
T5C1.040
; #@! TA.AperFunction,Plated,PTH,ComponentDrill
T6C1.300
; #@! TA.AperFunction,Plated,PTH,ComponentDrill
T7C1.520
; #@! TA.AperFunction,Plated,PTH,ComponentDrill
T8C5.300
; #@! TA.AperFunction,Plated,PTH,ComponentDrill
T9C6.400
%
G90
G05
T1
X46.38Y53.416
X54.991Y43.815
X63.5Y50.165
X89.154Y58.776
X146.177Y39.243
X175.895Y38.989
X191.516Y40.64
X200.896Y41.545
X206.762Y43.191
X206.951Y44.416
X207.97Y85.203
X208.861Y66.552
X209.82Y85.203
X217.116Y66.171
X221.561Y28.579
X222.069Y46.994
X225.752Y34.548
X225.879Y53.344
X226.768Y45.724
X274.701Y19.304
X283.235Y44.374
X296.545Y24.638
T2
X159.477Y31.585
X159.517Y37.935
X161.977Y31.585
X162.017Y37.935
X203.654Y61.98
X203.654Y59.44
X203.654Y56.9
X203.654Y54.36
X203.654Y51.82
X203.654Y49.28
X203.654Y46.74
X205.726Y26.039
X205.766Y32.135
X208.226Y26.039
X208.266Y32.135
X211.274Y61.98
X211.274Y59.44
X211.274Y56.9
X211.274Y54.36
X211.274Y51.82
X211.274Y49.28
X211.274Y46.74
T3
X29.0Y44.04
X29.0Y41.5
X81.596Y35.851
X84.136Y35.851
X86.676Y35.851
X91.151Y75.618
X91.181Y83.288
X92.125Y15.921
X92.125Y13.381
X93.612Y55.03
X93.612Y52.49
X93.612Y49.95
X93.691Y75.618
X93.721Y83.288
X96.231Y75.618
X96.261Y83.288
X97.148Y16.053
X97.148Y13.513
X98.614Y35.851
X101.154Y35.851
X103.694Y35.851
X113.862Y55.0
X113.862Y52.46
X113.862Y49.92
X115.251Y35.851
X117.791Y35.851
X120.331Y35.851
X131.888Y35.978
X134.428Y35.978
X136.968Y35.978
X215.084Y72.013
X215.084Y69.473
X215.084Y26.039
X215.084Y23.499
X217.624Y72.013
X217.624Y69.473
X217.624Y26.039
X217.624Y23.499
X220.164Y72.013
X220.164Y69.473
X220.164Y26.039
X220.164Y23.499
X222.704Y72.013
X222.704Y69.473
X222.704Y26.039
X222.704Y23.499
X225.244Y72.013
X225.244Y69.473
X225.244Y26.039
X225.244Y23.499
X227.784Y72.013
X227.784Y69.473
X227.784Y26.039
X227.784Y23.499
X230.324Y72.013
X230.324Y69.473
X230.324Y26.039
X230.324Y23.499
X232.864Y72.013
X232.864Y69.473
X232.864Y26.039
X232.864Y23.499
X235.404Y72.013
X235.404Y69.473
X235.404Y26.039
X235.404Y23.499
X237.944Y72.013
X237.944Y69.473
X237.944Y26.039
X237.944Y23.499
X240.484Y72.013
X240.484Y69.473
X240.484Y26.039
X240.484Y23.499
X243.024Y72.013
X243.024Y69.473
X243.024Y26.039
X243.024Y23.499
X245.564Y72.013
X245.564Y69.473
X245.564Y26.039
X245.564Y23.499
X248.104Y72.013
X248.104Y69.473
X248.104Y26.039
X248.104Y23.499
X250.644Y72.013
X250.644Y69.473
X250.644Y26.039
X250.644Y23.499
X253.184Y72.013
X253.184Y69.473
X253.184Y26.039
X253.184Y23.499
X255.724Y72.013
X255.724Y69.473
X255.724Y26.039
X255.724Y23.499
X258.264Y72.013
X258.264Y69.473
X258.264Y26.039
X258.264Y23.499
X260.804Y72.013
X260.804Y69.473
X260.804Y26.039
X260.804Y23.499
X263.344Y72.013
X263.344Y69.473
X263.344Y26.039
X263.344Y23.499
X265.884Y72.013
X265.884Y69.473
X265.884Y26.039
X265.884Y23.499
X268.424Y72.013
X268.424Y69.473
X268.424Y26.039
X268.424Y23.499
X310.521Y43.553
X310.521Y41.013
T4
X226.26Y56.9
X226.26Y31.5
X228.8Y56.9
X228.8Y31.5
X231.34Y56.9
X231.34Y31.5
X233.88Y56.9
X233.88Y31.5
X236.42Y56.9
X236.42Y31.5
X238.96Y56.9
X238.96Y31.5
X241.5Y56.9
X241.5Y31.5
X244.04Y56.9
X244.04Y31.5
X246.58Y56.9
X246.58Y31.5
X249.12Y56.9
X249.12Y31.5
X251.66Y56.9
X251.66Y31.5
X254.2Y56.9
X254.2Y31.5
X256.74Y56.9
X256.74Y31.5
X259.28Y56.9
X259.28Y31.5
X261.82Y56.9
X261.82Y31.5
T5
X217.624Y62.615
X217.624Y39.755
X220.164Y62.615
X220.164Y39.755
X222.704Y62.615
X222.704Y39.755
X225.244Y62.615
X225.244Y39.755
X227.784Y62.615
X227.784Y39.755
X230.324Y62.615
X230.324Y39.755
X232.864Y62.615
X232.864Y39.755
X235.404Y62.615
X235.404Y39.755
X237.944Y62.615
X237.944Y39.755
X240.484Y62.615
X240.484Y39.755
X243.024Y62.615
X243.024Y39.755
X245.564Y62.615
X245.564Y39.755
X248.104Y62.615
X248.104Y39.755
X250.644Y62.615
X250.644Y39.755
X253.184Y62.615
X253.184Y39.755
X255.724Y62.615
X255.724Y39.755
X258.264Y62.615
X258.264Y39.755
X260.804Y62.615
X260.804Y39.755
X263.344Y62.615
X263.344Y39.755
T7
X78.421Y28.358
X83.501Y28.358
X88.581Y28.358
X95.439Y28.358
X100.519Y28.358
X105.599Y28.358
X112.076Y28.358
X117.156Y28.358
X122.236Y28.358
X128.713Y28.358
X133.793Y28.358
X138.873Y28.358
T8
X191.243Y57.357
T9
X18.5Y81.5
X18.5Y17.5
X322.5Y81.5
X322.5Y17.5
T3
X155.982Y23.335G85X157.982Y23.335
G05
X155.982Y17.335G85X157.982Y17.335
G05
X161.683Y19.335G85X161.683Y21.335
G05
T6
X170.0Y27.9G85X170.0Y29.1
G05
X170.0Y14.4G85X170.0Y15.6
G05
X174.0Y27.9G85X174.0Y29.1
G05
X174.0Y14.4G85X174.0Y15.6
G05
M30
