G04 #@! TF.GenerationSoftware,KiCad,Pcbnew,7.0.10-1.fc39*
G04 #@! TF.CreationDate,2024-01-08T15:07:07-05:00*
G04 #@! TF.ProjectId,SYSMATT-WS2812-MATRIX-CARRIER-SPACER-PLATE-V2,5359534d-4154-4542-9d57-53323831322d,rev?*
G04 #@! TF.SameCoordinates,Original*
G04 #@! TF.FileFunction,Copper,L1,Top*
G04 #@! TF.FilePolarity,Positive*
%FSLAX46Y46*%
G04 Gerber Fmt 4.6, Leading zero omitted, Abs format (unit mm)*
G04 Created by KiCad (PCBNEW 7.0.10-1.fc39) date 2024-01-08 15:07:07*
%MOMM*%
%LPD*%
G01*
G04 APERTURE LIST*
G04 #@! TA.AperFunction,EtchedComponent*
%ADD10C,0.010000*%
G04 #@! TD*
G04 #@! TA.AperFunction,ViaPad*
%ADD11C,0.800000*%
G04 #@! TD*
G04 APERTURE END LIST*
D10*
X142149604Y-165270476D02*
X142181174Y-165290141D01*
X142216656Y-165318872D01*
X142216656Y-165746965D01*
X142216543Y-165872189D01*
X142216059Y-165970846D01*
X142214986Y-166046429D01*
X142213108Y-166102432D01*
X142210206Y-166142346D01*
X142206063Y-166169665D01*
X142200462Y-166187880D01*
X142193185Y-166200485D01*
X142188024Y-166206695D01*
X142146168Y-166233979D01*
X142098505Y-166232866D01*
X142056753Y-166209601D01*
X142021271Y-166180870D01*
X142021271Y-165318872D01*
X142056753Y-165290141D01*
X142090998Y-165269241D01*
X142118963Y-165261409D01*
X142149604Y-165270476D01*
G04 #@! TA.AperFunction,EtchedComponent*
G36*
X142149604Y-165270476D02*
G01*
X142181174Y-165290141D01*
X142216656Y-165318872D01*
X142216656Y-165746965D01*
X142216543Y-165872189D01*
X142216059Y-165970846D01*
X142214986Y-166046429D01*
X142213108Y-166102432D01*
X142210206Y-166142346D01*
X142206063Y-166169665D01*
X142200462Y-166187880D01*
X142193185Y-166200485D01*
X142188024Y-166206695D01*
X142146168Y-166233979D01*
X142098505Y-166232866D01*
X142056753Y-166209601D01*
X142021271Y-166180870D01*
X142021271Y-165318872D01*
X142056753Y-165290141D01*
X142090998Y-165269241D01*
X142118963Y-165261409D01*
X142149604Y-165270476D01*
G37*
G04 #@! TD.AperFunction*
X132680383Y-165291469D02*
X132689145Y-165301551D01*
X132696018Y-165314558D01*
X132701231Y-165333974D01*
X132705012Y-165363283D01*
X132707590Y-165405970D01*
X132709193Y-165465518D01*
X132710051Y-165545413D01*
X132710390Y-165649139D01*
X132710443Y-165749871D01*
X132710350Y-165874815D01*
X132709919Y-165973184D01*
X132708923Y-166048464D01*
X132707131Y-166104137D01*
X132704317Y-166143689D01*
X132700250Y-166170604D01*
X132694704Y-166188366D01*
X132687449Y-166200460D01*
X132680383Y-166208273D01*
X132636444Y-166234475D01*
X132589626Y-166232124D01*
X132547737Y-166203547D01*
X132538112Y-166192390D01*
X132530591Y-166179446D01*
X132524912Y-166161135D01*
X132520819Y-166133881D01*
X132518051Y-166094103D01*
X132516350Y-166038225D01*
X132515457Y-165962667D01*
X132515113Y-165863851D01*
X132515058Y-165751977D01*
X132515058Y-165335191D01*
X132551949Y-165298300D01*
X132597421Y-165267263D01*
X132641530Y-165266144D01*
X132680383Y-165291469D01*
G04 #@! TA.AperFunction,EtchedComponent*
G36*
X132680383Y-165291469D02*
G01*
X132689145Y-165301551D01*
X132696018Y-165314558D01*
X132701231Y-165333974D01*
X132705012Y-165363283D01*
X132707590Y-165405970D01*
X132709193Y-165465518D01*
X132710051Y-165545413D01*
X132710390Y-165649139D01*
X132710443Y-165749871D01*
X132710350Y-165874815D01*
X132709919Y-165973184D01*
X132708923Y-166048464D01*
X132707131Y-166104137D01*
X132704317Y-166143689D01*
X132700250Y-166170604D01*
X132694704Y-166188366D01*
X132687449Y-166200460D01*
X132680383Y-166208273D01*
X132636444Y-166234475D01*
X132589626Y-166232124D01*
X132547737Y-166203547D01*
X132538112Y-166192390D01*
X132530591Y-166179446D01*
X132524912Y-166161135D01*
X132520819Y-166133881D01*
X132518051Y-166094103D01*
X132516350Y-166038225D01*
X132515457Y-165962667D01*
X132515113Y-165863851D01*
X132515058Y-165751977D01*
X132515058Y-165335191D01*
X132551949Y-165298300D01*
X132597421Y-165267263D01*
X132641530Y-165266144D01*
X132680383Y-165291469D01*
G37*
G04 #@! TD.AperFunction*
X132795682Y-156738932D02*
X132931929Y-156786171D01*
X133058779Y-156860526D01*
X133172067Y-156961986D01*
X133267628Y-157090542D01*
X133310554Y-157171571D01*
X133347705Y-157284907D01*
X133365712Y-157415750D01*
X133363717Y-157550264D01*
X133341577Y-157672157D01*
X133281064Y-157821106D01*
X133193314Y-157950308D01*
X133082788Y-158057222D01*
X132953946Y-158139305D01*
X132811247Y-158194015D01*
X132659151Y-158218809D01*
X132502119Y-158211146D01*
X132424714Y-158194771D01*
X132273859Y-158136088D01*
X132139875Y-158046542D01*
X132025994Y-157928892D01*
X131935448Y-157785901D01*
X131927788Y-157770285D01*
X131901306Y-157711685D01*
X131884678Y-157662333D01*
X131875650Y-157610269D01*
X131871968Y-157543538D01*
X131871357Y-157470928D01*
X131872367Y-157383690D01*
X131876928Y-157320623D01*
X131887334Y-157269635D01*
X131905879Y-157218632D01*
X131928770Y-157168312D01*
X132014154Y-157025469D01*
X132119301Y-156909809D01*
X132240045Y-156821324D01*
X132372221Y-156760004D01*
X132511663Y-156725838D01*
X132654205Y-156718817D01*
X132795682Y-156738932D01*
G04 #@! TA.AperFunction,EtchedComponent*
G36*
X132795682Y-156738932D02*
G01*
X132931929Y-156786171D01*
X133058779Y-156860526D01*
X133172067Y-156961986D01*
X133267628Y-157090542D01*
X133310554Y-157171571D01*
X133347705Y-157284907D01*
X133365712Y-157415750D01*
X133363717Y-157550264D01*
X133341577Y-157672157D01*
X133281064Y-157821106D01*
X133193314Y-157950308D01*
X133082788Y-158057222D01*
X132953946Y-158139305D01*
X132811247Y-158194015D01*
X132659151Y-158218809D01*
X132502119Y-158211146D01*
X132424714Y-158194771D01*
X132273859Y-158136088D01*
X132139875Y-158046542D01*
X132025994Y-157928892D01*
X131935448Y-157785901D01*
X131927788Y-157770285D01*
X131901306Y-157711685D01*
X131884678Y-157662333D01*
X131875650Y-157610269D01*
X131871968Y-157543538D01*
X131871357Y-157470928D01*
X131872367Y-157383690D01*
X131876928Y-157320623D01*
X131887334Y-157269635D01*
X131905879Y-157218632D01*
X131928770Y-157168312D01*
X132014154Y-157025469D01*
X132119301Y-156909809D01*
X132240045Y-156821324D01*
X132372221Y-156760004D01*
X132511663Y-156725838D01*
X132654205Y-156718817D01*
X132795682Y-156738932D01*
G37*
G04 #@! TD.AperFunction*
X143180677Y-165261538D02*
X143285465Y-165262042D01*
X143366799Y-165263095D01*
X143427980Y-165264875D01*
X143472311Y-165267556D01*
X143503094Y-165271313D01*
X143523631Y-165276324D01*
X143537225Y-165282762D01*
X143543803Y-165287711D01*
X143577944Y-165331028D01*
X143582074Y-165376002D01*
X143560976Y-165416859D01*
X143547179Y-165433185D01*
X143532332Y-165444317D01*
X143510815Y-165451249D01*
X143477008Y-165454976D01*
X143425292Y-165456493D01*
X143350047Y-165456793D01*
X143335269Y-165456794D01*
X143140975Y-165456794D01*
X143140975Y-165817504D01*
X143140847Y-165931200D01*
X143140266Y-166018684D01*
X143138936Y-166083801D01*
X143136560Y-166130397D01*
X143132844Y-166162318D01*
X143127492Y-166183411D01*
X143120207Y-166197522D01*
X143110916Y-166208273D01*
X143067071Y-166234695D01*
X143021300Y-166232613D01*
X142979790Y-166202468D01*
X142976741Y-166198732D01*
X142966812Y-166184609D01*
X142959248Y-166168085D01*
X142953729Y-166145145D01*
X142949933Y-166111772D01*
X142947542Y-166063954D01*
X142946234Y-165997673D01*
X142945691Y-165908917D01*
X142945591Y-165807962D01*
X142945591Y-165456794D01*
X142760050Y-165456794D01*
X142680427Y-165456255D01*
X142625304Y-165454156D01*
X142589132Y-165449770D01*
X142566362Y-165442375D01*
X142551447Y-165431244D01*
X142549636Y-165429309D01*
X142527858Y-165385056D01*
X142529784Y-165335028D01*
X142554821Y-165291469D01*
X142564504Y-165283019D01*
X142576988Y-165276320D01*
X142595603Y-165271168D01*
X142623677Y-165267360D01*
X142664541Y-165264696D01*
X142721522Y-165262971D01*
X142797952Y-165261983D01*
X142897157Y-165261531D01*
X143022469Y-165261411D01*
X143049133Y-165261409D01*
X143180677Y-165261538D01*
G04 #@! TA.AperFunction,EtchedComponent*
G36*
X143180677Y-165261538D02*
G01*
X143285465Y-165262042D01*
X143366799Y-165263095D01*
X143427980Y-165264875D01*
X143472311Y-165267556D01*
X143503094Y-165271313D01*
X143523631Y-165276324D01*
X143537225Y-165282762D01*
X143543803Y-165287711D01*
X143577944Y-165331028D01*
X143582074Y-165376002D01*
X143560976Y-165416859D01*
X143547179Y-165433185D01*
X143532332Y-165444317D01*
X143510815Y-165451249D01*
X143477008Y-165454976D01*
X143425292Y-165456493D01*
X143350047Y-165456793D01*
X143335269Y-165456794D01*
X143140975Y-165456794D01*
X143140975Y-165817504D01*
X143140847Y-165931200D01*
X143140266Y-166018684D01*
X143138936Y-166083801D01*
X143136560Y-166130397D01*
X143132844Y-166162318D01*
X143127492Y-166183411D01*
X143120207Y-166197522D01*
X143110916Y-166208273D01*
X143067071Y-166234695D01*
X143021300Y-166232613D01*
X142979790Y-166202468D01*
X142976741Y-166198732D01*
X142966812Y-166184609D01*
X142959248Y-166168085D01*
X142953729Y-166145145D01*
X142949933Y-166111772D01*
X142947542Y-166063954D01*
X142946234Y-165997673D01*
X142945691Y-165908917D01*
X142945591Y-165807962D01*
X142945591Y-165456794D01*
X142760050Y-165456794D01*
X142680427Y-165456255D01*
X142625304Y-165454156D01*
X142589132Y-165449770D01*
X142566362Y-165442375D01*
X142551447Y-165431244D01*
X142549636Y-165429309D01*
X142527858Y-165385056D01*
X142529784Y-165335028D01*
X142554821Y-165291469D01*
X142564504Y-165283019D01*
X142576988Y-165276320D01*
X142595603Y-165271168D01*
X142623677Y-165267360D01*
X142664541Y-165264696D01*
X142721522Y-165262971D01*
X142797952Y-165261983D01*
X142897157Y-165261531D01*
X143022469Y-165261411D01*
X143049133Y-165261409D01*
X143180677Y-165261538D01*
G37*
G04 #@! TD.AperFunction*
X144865859Y-165268687D02*
X144907635Y-165298300D01*
X144944525Y-165335191D01*
X144944525Y-165747161D01*
X144944429Y-165869485D01*
X144943972Y-165965397D01*
X144942903Y-166038543D01*
X144940971Y-166092569D01*
X144937923Y-166131122D01*
X144933509Y-166157847D01*
X144927476Y-166176393D01*
X144919574Y-166190404D01*
X144913375Y-166198732D01*
X144872461Y-166231448D01*
X144825482Y-166234999D01*
X144782544Y-166214936D01*
X144768356Y-166203091D01*
X144758872Y-166187357D01*
X144753151Y-166162021D01*
X144750253Y-166121369D01*
X144749238Y-166059687D01*
X144749141Y-166012037D01*
X144749141Y-165832534D01*
X144087839Y-165832534D01*
X144087839Y-165995832D01*
X144087155Y-166070504D01*
X144084419Y-166121823D01*
X144078604Y-166156476D01*
X144068684Y-166181154D01*
X144056689Y-166198732D01*
X144015546Y-166231356D01*
X143969017Y-166235219D01*
X143924473Y-166212031D01*
X143912312Y-166199875D01*
X143903723Y-166183760D01*
X143898058Y-166158659D01*
X143894669Y-166119543D01*
X143892908Y-166061385D01*
X143892128Y-165979157D01*
X143892036Y-165960285D01*
X143891392Y-165805356D01*
X143891060Y-165677673D01*
X143891168Y-165574426D01*
X143891845Y-165492802D01*
X143893218Y-165429991D01*
X143895416Y-165383180D01*
X143898566Y-165349558D01*
X143902798Y-165326314D01*
X143908238Y-165310635D01*
X143915015Y-165299710D01*
X143922514Y-165291469D01*
X143964933Y-165265106D01*
X144009172Y-165268687D01*
X144050948Y-165298300D01*
X144067853Y-165317406D01*
X144078629Y-165338510D01*
X144084641Y-165368567D01*
X144087256Y-165414532D01*
X144087839Y-165483359D01*
X144087839Y-165637149D01*
X144749141Y-165637149D01*
X144749141Y-165479338D01*
X144749816Y-165406635D01*
X144752526Y-165357544D01*
X144758301Y-165325635D01*
X144768169Y-165304477D01*
X144779200Y-165291469D01*
X144821619Y-165265106D01*
X144865859Y-165268687D01*
G04 #@! TA.AperFunction,EtchedComponent*
G36*
X144865859Y-165268687D02*
G01*
X144907635Y-165298300D01*
X144944525Y-165335191D01*
X144944525Y-165747161D01*
X144944429Y-165869485D01*
X144943972Y-165965397D01*
X144942903Y-166038543D01*
X144940971Y-166092569D01*
X144937923Y-166131122D01*
X144933509Y-166157847D01*
X144927476Y-166176393D01*
X144919574Y-166190404D01*
X144913375Y-166198732D01*
X144872461Y-166231448D01*
X144825482Y-166234999D01*
X144782544Y-166214936D01*
X144768356Y-166203091D01*
X144758872Y-166187357D01*
X144753151Y-166162021D01*
X144750253Y-166121369D01*
X144749238Y-166059687D01*
X144749141Y-166012037D01*
X144749141Y-165832534D01*
X144087839Y-165832534D01*
X144087839Y-165995832D01*
X144087155Y-166070504D01*
X144084419Y-166121823D01*
X144078604Y-166156476D01*
X144068684Y-166181154D01*
X144056689Y-166198732D01*
X144015546Y-166231356D01*
X143969017Y-166235219D01*
X143924473Y-166212031D01*
X143912312Y-166199875D01*
X143903723Y-166183760D01*
X143898058Y-166158659D01*
X143894669Y-166119543D01*
X143892908Y-166061385D01*
X143892128Y-165979157D01*
X143892036Y-165960285D01*
X143891392Y-165805356D01*
X143891060Y-165677673D01*
X143891168Y-165574426D01*
X143891845Y-165492802D01*
X143893218Y-165429991D01*
X143895416Y-165383180D01*
X143898566Y-165349558D01*
X143902798Y-165326314D01*
X143908238Y-165310635D01*
X143915015Y-165299710D01*
X143922514Y-165291469D01*
X143964933Y-165265106D01*
X144009172Y-165268687D01*
X144050948Y-165298300D01*
X144067853Y-165317406D01*
X144078629Y-165338510D01*
X144084641Y-165368567D01*
X144087256Y-165414532D01*
X144087839Y-165483359D01*
X144087839Y-165637149D01*
X144749141Y-165637149D01*
X144749141Y-165479338D01*
X144749816Y-165406635D01*
X144752526Y-165357544D01*
X144758301Y-165325635D01*
X144768169Y-165304477D01*
X144779200Y-165291469D01*
X144821619Y-165265106D01*
X144865859Y-165268687D01*
G37*
G04 #@! TD.AperFunction*
X137928783Y-165261686D02*
X138100501Y-165267492D01*
X138246555Y-165285100D01*
X138369353Y-165315562D01*
X138471303Y-165359934D01*
X138554814Y-165419270D01*
X138622293Y-165494623D01*
X138676149Y-165587049D01*
X138677208Y-165589303D01*
X138709349Y-165672023D01*
X138720801Y-165745283D01*
X138711520Y-165819011D01*
X138681461Y-165903134D01*
X138675761Y-165915936D01*
X138636885Y-165990861D01*
X138593195Y-166048756D01*
X138536806Y-166097971D01*
X138459838Y-166146856D01*
X138455366Y-166149408D01*
X138388363Y-166181594D01*
X138312631Y-166205631D01*
X138223304Y-166222350D01*
X138115515Y-166232578D01*
X137984398Y-166237145D01*
X137938072Y-166237542D01*
X137717476Y-166238333D01*
X137686326Y-166198732D01*
X137677086Y-166185710D01*
X137669878Y-166170503D01*
X137664450Y-166149465D01*
X137660551Y-166118949D01*
X137657929Y-166075310D01*
X137657074Y-166042948D01*
X137865591Y-166042948D01*
X137990582Y-166042948D01*
X138063723Y-166040809D01*
X138138807Y-166035180D01*
X138200430Y-166027242D01*
X138204149Y-166026574D01*
X138313599Y-165997211D01*
X138398494Y-165953096D01*
X138461518Y-165892182D01*
X138505360Y-165812423D01*
X138512983Y-165791283D01*
X138520456Y-165758361D01*
X138517221Y-165725835D01*
X138501479Y-165682563D01*
X138491990Y-165661306D01*
X138460917Y-165604819D01*
X138423479Y-165565190D01*
X138382287Y-165537593D01*
X138299776Y-165501681D01*
X138194179Y-165475667D01*
X138071164Y-165460687D01*
X137982070Y-165457391D01*
X137865591Y-165456794D01*
X137865591Y-166042948D01*
X137657074Y-166042948D01*
X137656332Y-166014899D01*
X137655510Y-165934071D01*
X137655210Y-165829180D01*
X137655176Y-165747161D01*
X137655176Y-165335191D01*
X137692067Y-165298300D01*
X137708440Y-165283347D01*
X137726143Y-165273107D01*
X137750865Y-165266700D01*
X137788294Y-165263246D01*
X137844119Y-165261866D01*
X137924028Y-165261680D01*
X137928783Y-165261686D01*
G04 #@! TA.AperFunction,EtchedComponent*
G36*
X137928783Y-165261686D02*
G01*
X138100501Y-165267492D01*
X138246555Y-165285100D01*
X138369353Y-165315562D01*
X138471303Y-165359934D01*
X138554814Y-165419270D01*
X138622293Y-165494623D01*
X138676149Y-165587049D01*
X138677208Y-165589303D01*
X138709349Y-165672023D01*
X138720801Y-165745283D01*
X138711520Y-165819011D01*
X138681461Y-165903134D01*
X138675761Y-165915936D01*
X138636885Y-165990861D01*
X138593195Y-166048756D01*
X138536806Y-166097971D01*
X138459838Y-166146856D01*
X138455366Y-166149408D01*
X138388363Y-166181594D01*
X138312631Y-166205631D01*
X138223304Y-166222350D01*
X138115515Y-166232578D01*
X137984398Y-166237145D01*
X137938072Y-166237542D01*
X137717476Y-166238333D01*
X137686326Y-166198732D01*
X137677086Y-166185710D01*
X137669878Y-166170503D01*
X137664450Y-166149465D01*
X137660551Y-166118949D01*
X137657929Y-166075310D01*
X137657074Y-166042948D01*
X137865591Y-166042948D01*
X137990582Y-166042948D01*
X138063723Y-166040809D01*
X138138807Y-166035180D01*
X138200430Y-166027242D01*
X138204149Y-166026574D01*
X138313599Y-165997211D01*
X138398494Y-165953096D01*
X138461518Y-165892182D01*
X138505360Y-165812423D01*
X138512983Y-165791283D01*
X138520456Y-165758361D01*
X138517221Y-165725835D01*
X138501479Y-165682563D01*
X138491990Y-165661306D01*
X138460917Y-165604819D01*
X138423479Y-165565190D01*
X138382287Y-165537593D01*
X138299776Y-165501681D01*
X138194179Y-165475667D01*
X138071164Y-165460687D01*
X137982070Y-165457391D01*
X137865591Y-165456794D01*
X137865591Y-166042948D01*
X137657074Y-166042948D01*
X137656332Y-166014899D01*
X137655510Y-165934071D01*
X137655210Y-165829180D01*
X137655176Y-165747161D01*
X137655176Y-165335191D01*
X137692067Y-165298300D01*
X137708440Y-165283347D01*
X137726143Y-165273107D01*
X137750865Y-165266700D01*
X137788294Y-165263246D01*
X137844119Y-165261866D01*
X137924028Y-165261680D01*
X137928783Y-165261686D01*
G37*
G04 #@! TD.AperFunction*
X128423292Y-165261408D02*
X128475857Y-165261943D01*
X128629881Y-165265659D01*
X128758875Y-165276698D01*
X128867237Y-165296245D01*
X128959362Y-165325482D01*
X129039647Y-165365596D01*
X129112488Y-165417768D01*
X129138505Y-165440432D01*
X129181663Y-165493461D01*
X129220579Y-165565420D01*
X129250573Y-165645183D01*
X129266965Y-165721624D01*
X129268668Y-165749871D01*
X129257995Y-165828173D01*
X129229393Y-165913704D01*
X129187989Y-165994662D01*
X129138905Y-166059245D01*
X129130933Y-166067037D01*
X129063400Y-166121807D01*
X128989448Y-166164562D01*
X128904812Y-166196422D01*
X128805229Y-166218507D01*
X128686434Y-166231937D01*
X128544166Y-166237833D01*
X128479000Y-166238333D01*
X128396145Y-166237934D01*
X128337877Y-166236265D01*
X128298730Y-166232621D01*
X128273237Y-166226292D01*
X128255932Y-166216573D01*
X128246656Y-166208273D01*
X128237894Y-166198191D01*
X128231021Y-166185184D01*
X128225808Y-166165768D01*
X128222027Y-166136459D01*
X128219449Y-166093772D01*
X128217846Y-166034224D01*
X128216989Y-165954329D01*
X128216649Y-165850604D01*
X128216597Y-165749871D01*
X128216266Y-165615518D01*
X128216338Y-165508191D01*
X128217616Y-165456794D01*
X128411981Y-165456794D01*
X128411981Y-166042948D01*
X128535975Y-166042834D01*
X128610585Y-166040695D01*
X128688728Y-166035182D01*
X128753926Y-166027471D01*
X128755910Y-166027154D01*
X128861283Y-166001677D01*
X128943014Y-165961999D01*
X129005184Y-165905537D01*
X129044686Y-165844405D01*
X129069026Y-165776592D01*
X129067139Y-165712918D01*
X129038891Y-165644664D01*
X128983638Y-165574055D01*
X128907073Y-165521734D01*
X128807551Y-165486762D01*
X128741039Y-165474385D01*
X128665539Y-165465693D01*
X128585521Y-165459403D01*
X128517462Y-165456787D01*
X128513431Y-165456775D01*
X128411981Y-165456794D01*
X128217616Y-165456794D01*
X128218410Y-165424880D01*
X128224085Y-165362578D01*
X128234959Y-165318274D01*
X128252632Y-165288959D01*
X128278703Y-165271624D01*
X128314771Y-165263260D01*
X128362434Y-165260858D01*
X128423292Y-165261408D01*
G04 #@! TA.AperFunction,EtchedComponent*
G36*
X128423292Y-165261408D02*
G01*
X128475857Y-165261943D01*
X128629881Y-165265659D01*
X128758875Y-165276698D01*
X128867237Y-165296245D01*
X128959362Y-165325482D01*
X129039647Y-165365596D01*
X129112488Y-165417768D01*
X129138505Y-165440432D01*
X129181663Y-165493461D01*
X129220579Y-165565420D01*
X129250573Y-165645183D01*
X129266965Y-165721624D01*
X129268668Y-165749871D01*
X129257995Y-165828173D01*
X129229393Y-165913704D01*
X129187989Y-165994662D01*
X129138905Y-166059245D01*
X129130933Y-166067037D01*
X129063400Y-166121807D01*
X128989448Y-166164562D01*
X128904812Y-166196422D01*
X128805229Y-166218507D01*
X128686434Y-166231937D01*
X128544166Y-166237833D01*
X128479000Y-166238333D01*
X128396145Y-166237934D01*
X128337877Y-166236265D01*
X128298730Y-166232621D01*
X128273237Y-166226292D01*
X128255932Y-166216573D01*
X128246656Y-166208273D01*
X128237894Y-166198191D01*
X128231021Y-166185184D01*
X128225808Y-166165768D01*
X128222027Y-166136459D01*
X128219449Y-166093772D01*
X128217846Y-166034224D01*
X128216989Y-165954329D01*
X128216649Y-165850604D01*
X128216597Y-165749871D01*
X128216266Y-165615518D01*
X128216338Y-165508191D01*
X128217616Y-165456794D01*
X128411981Y-165456794D01*
X128411981Y-166042948D01*
X128535975Y-166042834D01*
X128610585Y-166040695D01*
X128688728Y-166035182D01*
X128753926Y-166027471D01*
X128755910Y-166027154D01*
X128861283Y-166001677D01*
X128943014Y-165961999D01*
X129005184Y-165905537D01*
X129044686Y-165844405D01*
X129069026Y-165776592D01*
X129067139Y-165712918D01*
X129038891Y-165644664D01*
X128983638Y-165574055D01*
X128907073Y-165521734D01*
X128807551Y-165486762D01*
X128741039Y-165474385D01*
X128665539Y-165465693D01*
X128585521Y-165459403D01*
X128517462Y-165456787D01*
X128513431Y-165456775D01*
X128411981Y-165456794D01*
X128217616Y-165456794D01*
X128218410Y-165424880D01*
X128224085Y-165362578D01*
X128234959Y-165318274D01*
X128252632Y-165288959D01*
X128278703Y-165271624D01*
X128314771Y-165263260D01*
X128362434Y-165260858D01*
X128423292Y-165261408D01*
G37*
G04 #@! TD.AperFunction*
X134842126Y-165267243D02*
X134873501Y-165285648D01*
X134914524Y-165315748D01*
X134967322Y-165358959D01*
X135034021Y-165416701D01*
X135116747Y-165490391D01*
X135217626Y-165581447D01*
X135333105Y-165686137D01*
X135573579Y-165904206D01*
X135581094Y-165611507D01*
X135583807Y-165510753D01*
X135586424Y-165435721D01*
X135589526Y-165382083D01*
X135593690Y-165345509D01*
X135599495Y-165321670D01*
X135607522Y-165306237D01*
X135618349Y-165294881D01*
X135624090Y-165290109D01*
X135670063Y-165264876D01*
X135713809Y-165268565D01*
X135748511Y-165290122D01*
X135783993Y-165318834D01*
X135788406Y-165738149D01*
X135789627Y-165861470D01*
X135790249Y-165958347D01*
X135790056Y-166032393D01*
X135788832Y-166087220D01*
X135786362Y-166126442D01*
X135782432Y-166153672D01*
X135776826Y-166172522D01*
X135769328Y-166186604D01*
X135761013Y-166197898D01*
X135743024Y-166218845D01*
X135725125Y-166232730D01*
X135704834Y-166238059D01*
X135679668Y-166233339D01*
X135647146Y-166217076D01*
X135604783Y-166187776D01*
X135550098Y-166143945D01*
X135480609Y-166084090D01*
X135393831Y-166006717D01*
X135295531Y-165917813D01*
X134942336Y-165597434D01*
X134934821Y-165889176D01*
X134932103Y-165989746D01*
X134929479Y-166064603D01*
X134926367Y-166118083D01*
X134922184Y-166154525D01*
X134916349Y-166178267D01*
X134908280Y-166193645D01*
X134897395Y-166204999D01*
X134891825Y-166209625D01*
X134842590Y-166235041D01*
X134796069Y-166231208D01*
X134755557Y-166198732D01*
X134746290Y-166185666D01*
X134739067Y-166170408D01*
X134733634Y-166149295D01*
X134729738Y-166118668D01*
X134727125Y-166074865D01*
X134725539Y-166014226D01*
X134724728Y-165933090D01*
X134724438Y-165827796D01*
X134724407Y-165749871D01*
X134724505Y-165627987D01*
X134724967Y-165532502D01*
X134726049Y-165459754D01*
X134728003Y-165406082D01*
X134731084Y-165367826D01*
X134735546Y-165341326D01*
X134741643Y-165322919D01*
X134749629Y-165308947D01*
X134755557Y-165301010D01*
X134770584Y-165282211D01*
X134784628Y-165268016D01*
X134799816Y-165259845D01*
X134818273Y-165259115D01*
X134842126Y-165267243D01*
G04 #@! TA.AperFunction,EtchedComponent*
G36*
X134842126Y-165267243D02*
G01*
X134873501Y-165285648D01*
X134914524Y-165315748D01*
X134967322Y-165358959D01*
X135034021Y-165416701D01*
X135116747Y-165490391D01*
X135217626Y-165581447D01*
X135333105Y-165686137D01*
X135573579Y-165904206D01*
X135581094Y-165611507D01*
X135583807Y-165510753D01*
X135586424Y-165435721D01*
X135589526Y-165382083D01*
X135593690Y-165345509D01*
X135599495Y-165321670D01*
X135607522Y-165306237D01*
X135618349Y-165294881D01*
X135624090Y-165290109D01*
X135670063Y-165264876D01*
X135713809Y-165268565D01*
X135748511Y-165290122D01*
X135783993Y-165318834D01*
X135788406Y-165738149D01*
X135789627Y-165861470D01*
X135790249Y-165958347D01*
X135790056Y-166032393D01*
X135788832Y-166087220D01*
X135786362Y-166126442D01*
X135782432Y-166153672D01*
X135776826Y-166172522D01*
X135769328Y-166186604D01*
X135761013Y-166197898D01*
X135743024Y-166218845D01*
X135725125Y-166232730D01*
X135704834Y-166238059D01*
X135679668Y-166233339D01*
X135647146Y-166217076D01*
X135604783Y-166187776D01*
X135550098Y-166143945D01*
X135480609Y-166084090D01*
X135393831Y-166006717D01*
X135295531Y-165917813D01*
X134942336Y-165597434D01*
X134934821Y-165889176D01*
X134932103Y-165989746D01*
X134929479Y-166064603D01*
X134926367Y-166118083D01*
X134922184Y-166154525D01*
X134916349Y-166178267D01*
X134908280Y-166193645D01*
X134897395Y-166204999D01*
X134891825Y-166209625D01*
X134842590Y-166235041D01*
X134796069Y-166231208D01*
X134755557Y-166198732D01*
X134746290Y-166185666D01*
X134739067Y-166170408D01*
X134733634Y-166149295D01*
X134729738Y-166118668D01*
X134727125Y-166074865D01*
X134725539Y-166014226D01*
X134724728Y-165933090D01*
X134724438Y-165827796D01*
X134724407Y-165749871D01*
X134724505Y-165627987D01*
X134724967Y-165532502D01*
X134726049Y-165459754D01*
X134728003Y-165406082D01*
X134731084Y-165367826D01*
X134735546Y-165341326D01*
X134741643Y-165322919D01*
X134749629Y-165308947D01*
X134755557Y-165301010D01*
X134770584Y-165282211D01*
X134784628Y-165268016D01*
X134799816Y-165259845D01*
X134818273Y-165259115D01*
X134842126Y-165267243D01*
G37*
G04 #@! TD.AperFunction*
X133976784Y-165268775D02*
X134068005Y-165284081D01*
X134138064Y-165307874D01*
X134183642Y-165339203D01*
X134196062Y-165357077D01*
X134208692Y-165398648D01*
X134200193Y-165436255D01*
X134173361Y-165471918D01*
X134131670Y-165488602D01*
X134071176Y-165487247D01*
X134024387Y-165478208D01*
X133920418Y-165460986D01*
X133814166Y-165459350D01*
X133695237Y-165473328D01*
X133662386Y-165479251D01*
X133551801Y-165510430D01*
X133465287Y-165556809D01*
X133403793Y-165617598D01*
X133368268Y-165692007D01*
X133360921Y-165730477D01*
X133365730Y-165808526D01*
X133396780Y-165877580D01*
X133451240Y-165936292D01*
X133526282Y-165983316D01*
X133619076Y-166017306D01*
X133726794Y-166036917D01*
X133846605Y-166040804D01*
X133975681Y-166027619D01*
X133982969Y-166026375D01*
X134034308Y-166016813D01*
X134062774Y-166007577D01*
X134075112Y-165993872D01*
X134078068Y-165970905D01*
X134078135Y-165958742D01*
X134078135Y-165907682D01*
X133986969Y-165907682D01*
X133906464Y-165902167D01*
X133851525Y-165884593D01*
X133819560Y-165853416D01*
X133807974Y-165807093D01*
X133807833Y-165801047D01*
X133814611Y-165761452D01*
X133837855Y-165733180D01*
X133881116Y-165714470D01*
X133947945Y-165703563D01*
X134012676Y-165699553D01*
X134106759Y-165697252D01*
X134175002Y-165700763D01*
X134221545Y-165713718D01*
X134250528Y-165739749D01*
X134266091Y-165782490D01*
X134272375Y-165845573D01*
X134273520Y-165928427D01*
X134271644Y-166020909D01*
X134266000Y-166083817D01*
X134256564Y-166117402D01*
X134254733Y-166120032D01*
X134202921Y-166161997D01*
X134126956Y-166195231D01*
X134031654Y-166219022D01*
X133921830Y-166232662D01*
X133802300Y-166235441D01*
X133677880Y-166226648D01*
X133604703Y-166215848D01*
X133489926Y-166183361D01*
X133383250Y-166130249D01*
X133293935Y-166061318D01*
X133280360Y-166047541D01*
X133236254Y-165989621D01*
X133196457Y-165917839D01*
X133165619Y-165842582D01*
X133148389Y-165774240D01*
X133146312Y-165747992D01*
X133155153Y-165693240D01*
X133178651Y-165625118D01*
X133212297Y-165553413D01*
X133251582Y-165487912D01*
X133286291Y-165444161D01*
X133367443Y-165379082D01*
X133472348Y-165327284D01*
X133597246Y-165289937D01*
X133738379Y-165268216D01*
X133867721Y-165262908D01*
X133976784Y-165268775D01*
G04 #@! TA.AperFunction,EtchedComponent*
G36*
X133976784Y-165268775D02*
G01*
X134068005Y-165284081D01*
X134138064Y-165307874D01*
X134183642Y-165339203D01*
X134196062Y-165357077D01*
X134208692Y-165398648D01*
X134200193Y-165436255D01*
X134173361Y-165471918D01*
X134131670Y-165488602D01*
X134071176Y-165487247D01*
X134024387Y-165478208D01*
X133920418Y-165460986D01*
X133814166Y-165459350D01*
X133695237Y-165473328D01*
X133662386Y-165479251D01*
X133551801Y-165510430D01*
X133465287Y-165556809D01*
X133403793Y-165617598D01*
X133368268Y-165692007D01*
X133360921Y-165730477D01*
X133365730Y-165808526D01*
X133396780Y-165877580D01*
X133451240Y-165936292D01*
X133526282Y-165983316D01*
X133619076Y-166017306D01*
X133726794Y-166036917D01*
X133846605Y-166040804D01*
X133975681Y-166027619D01*
X133982969Y-166026375D01*
X134034308Y-166016813D01*
X134062774Y-166007577D01*
X134075112Y-165993872D01*
X134078068Y-165970905D01*
X134078135Y-165958742D01*
X134078135Y-165907682D01*
X133986969Y-165907682D01*
X133906464Y-165902167D01*
X133851525Y-165884593D01*
X133819560Y-165853416D01*
X133807974Y-165807093D01*
X133807833Y-165801047D01*
X133814611Y-165761452D01*
X133837855Y-165733180D01*
X133881116Y-165714470D01*
X133947945Y-165703563D01*
X134012676Y-165699553D01*
X134106759Y-165697252D01*
X134175002Y-165700763D01*
X134221545Y-165713718D01*
X134250528Y-165739749D01*
X134266091Y-165782490D01*
X134272375Y-165845573D01*
X134273520Y-165928427D01*
X134271644Y-166020909D01*
X134266000Y-166083817D01*
X134256564Y-166117402D01*
X134254733Y-166120032D01*
X134202921Y-166161997D01*
X134126956Y-166195231D01*
X134031654Y-166219022D01*
X133921830Y-166232662D01*
X133802300Y-166235441D01*
X133677880Y-166226648D01*
X133604703Y-166215848D01*
X133489926Y-166183361D01*
X133383250Y-166130249D01*
X133293935Y-166061318D01*
X133280360Y-166047541D01*
X133236254Y-165989621D01*
X133196457Y-165917839D01*
X133165619Y-165842582D01*
X133148389Y-165774240D01*
X133146312Y-165747992D01*
X133155153Y-165693240D01*
X133178651Y-165625118D01*
X133212297Y-165553413D01*
X133251582Y-165487912D01*
X133286291Y-165444161D01*
X133367443Y-165379082D01*
X133472348Y-165327284D01*
X133597246Y-165289937D01*
X133738379Y-165268216D01*
X133867721Y-165262908D01*
X133976784Y-165268775D01*
G37*
G04 #@! TD.AperFunction*
X136879716Y-165261666D02*
X136981377Y-165262883D01*
X137059282Y-165265729D01*
X137116581Y-165270873D01*
X137156427Y-165278983D01*
X137181968Y-165290730D01*
X137196357Y-165306781D01*
X137202745Y-165327807D01*
X137204281Y-165354475D01*
X137204289Y-165357625D01*
X137202955Y-165387789D01*
X137196651Y-165411102D01*
X137181922Y-165428505D01*
X137155315Y-165440939D01*
X137113374Y-165449344D01*
X137052646Y-165454664D01*
X136969676Y-165457838D01*
X136861011Y-165459808D01*
X136827705Y-165460244D01*
X136505413Y-165464309D01*
X136500906Y-165550729D01*
X136496398Y-165637149D01*
X136720263Y-165637149D01*
X136807721Y-165637472D01*
X136870169Y-165638836D01*
X136912654Y-165641838D01*
X136940223Y-165647072D01*
X136957922Y-165655134D01*
X136970797Y-165666619D01*
X136970880Y-165666710D01*
X136994230Y-165711470D01*
X136993386Y-165759846D01*
X136968879Y-165801085D01*
X136964029Y-165805324D01*
X136946815Y-165816248D01*
X136923226Y-165823848D01*
X136888007Y-165828696D01*
X136835900Y-165831365D01*
X136761650Y-165832427D01*
X136714162Y-165832534D01*
X136497898Y-165832534D01*
X136497898Y-166042948D01*
X136826220Y-166042948D01*
X136934618Y-166043138D01*
X137016935Y-166043913D01*
X137077149Y-166045583D01*
X137119235Y-166048457D01*
X137147171Y-166052846D01*
X137164934Y-166059058D01*
X137176500Y-166067403D01*
X137179415Y-166070433D01*
X137200936Y-166112433D01*
X137202510Y-166160213D01*
X137184855Y-166201641D01*
X137170885Y-166214936D01*
X137156354Y-166222255D01*
X137133838Y-166227918D01*
X137099776Y-166232122D01*
X137050607Y-166235067D01*
X136982768Y-166236950D01*
X136892698Y-166237969D01*
X136776837Y-166238324D01*
X136750643Y-166238333D01*
X136632839Y-166238255D01*
X136541396Y-166237830D01*
X136472614Y-166236765D01*
X136422796Y-166234768D01*
X136388240Y-166231549D01*
X136365250Y-166226815D01*
X136350126Y-166220276D01*
X136339169Y-166211640D01*
X136333158Y-166205439D01*
X136324110Y-166194456D01*
X136317042Y-166180851D01*
X136311709Y-166161055D01*
X136307868Y-166131501D01*
X136305275Y-166088620D01*
X136303687Y-166028844D01*
X136302861Y-165948606D01*
X136302552Y-165844338D01*
X136302514Y-165756579D01*
X136302608Y-165633607D01*
X136303057Y-165537068D01*
X136304108Y-165463338D01*
X136306010Y-165408789D01*
X136309009Y-165369798D01*
X136313355Y-165342738D01*
X136319294Y-165323983D01*
X136327075Y-165309909D01*
X136333664Y-165301010D01*
X136364814Y-165261409D01*
X136751148Y-165261409D01*
X136879716Y-165261666D01*
G04 #@! TA.AperFunction,EtchedComponent*
G36*
X136879716Y-165261666D02*
G01*
X136981377Y-165262883D01*
X137059282Y-165265729D01*
X137116581Y-165270873D01*
X137156427Y-165278983D01*
X137181968Y-165290730D01*
X137196357Y-165306781D01*
X137202745Y-165327807D01*
X137204281Y-165354475D01*
X137204289Y-165357625D01*
X137202955Y-165387789D01*
X137196651Y-165411102D01*
X137181922Y-165428505D01*
X137155315Y-165440939D01*
X137113374Y-165449344D01*
X137052646Y-165454664D01*
X136969676Y-165457838D01*
X136861011Y-165459808D01*
X136827705Y-165460244D01*
X136505413Y-165464309D01*
X136500906Y-165550729D01*
X136496398Y-165637149D01*
X136720263Y-165637149D01*
X136807721Y-165637472D01*
X136870169Y-165638836D01*
X136912654Y-165641838D01*
X136940223Y-165647072D01*
X136957922Y-165655134D01*
X136970797Y-165666619D01*
X136970880Y-165666710D01*
X136994230Y-165711470D01*
X136993386Y-165759846D01*
X136968879Y-165801085D01*
X136964029Y-165805324D01*
X136946815Y-165816248D01*
X136923226Y-165823848D01*
X136888007Y-165828696D01*
X136835900Y-165831365D01*
X136761650Y-165832427D01*
X136714162Y-165832534D01*
X136497898Y-165832534D01*
X136497898Y-166042948D01*
X136826220Y-166042948D01*
X136934618Y-166043138D01*
X137016935Y-166043913D01*
X137077149Y-166045583D01*
X137119235Y-166048457D01*
X137147171Y-166052846D01*
X137164934Y-166059058D01*
X137176500Y-166067403D01*
X137179415Y-166070433D01*
X137200936Y-166112433D01*
X137202510Y-166160213D01*
X137184855Y-166201641D01*
X137170885Y-166214936D01*
X137156354Y-166222255D01*
X137133838Y-166227918D01*
X137099776Y-166232122D01*
X137050607Y-166235067D01*
X136982768Y-166236950D01*
X136892698Y-166237969D01*
X136776837Y-166238324D01*
X136750643Y-166238333D01*
X136632839Y-166238255D01*
X136541396Y-166237830D01*
X136472614Y-166236765D01*
X136422796Y-166234768D01*
X136388240Y-166231549D01*
X136365250Y-166226815D01*
X136350126Y-166220276D01*
X136339169Y-166211640D01*
X136333158Y-166205439D01*
X136324110Y-166194456D01*
X136317042Y-166180851D01*
X136311709Y-166161055D01*
X136307868Y-166131501D01*
X136305275Y-166088620D01*
X136303687Y-166028844D01*
X136302861Y-165948606D01*
X136302552Y-165844338D01*
X136302514Y-165756579D01*
X136302608Y-165633607D01*
X136303057Y-165537068D01*
X136304108Y-165463338D01*
X136306010Y-165408789D01*
X136309009Y-165369798D01*
X136313355Y-165342738D01*
X136319294Y-165323983D01*
X136327075Y-165309909D01*
X136333664Y-165301010D01*
X136364814Y-165261409D01*
X136751148Y-165261409D01*
X136879716Y-165261666D01*
G37*
G04 #@! TD.AperFunction*
X130298616Y-165261515D02*
X130391024Y-165262011D01*
X130460773Y-165263164D01*
X130511563Y-165265243D01*
X130547095Y-165268514D01*
X130571068Y-165273246D01*
X130587182Y-165279706D01*
X130599137Y-165288162D01*
X130603467Y-165292054D01*
X130629795Y-165333403D01*
X130634535Y-165380915D01*
X130617216Y-165423094D01*
X130609207Y-165431619D01*
X130596254Y-165439884D01*
X130575398Y-165446260D01*
X130542770Y-165451058D01*
X130494504Y-165454587D01*
X130426732Y-165457157D01*
X130335586Y-165459080D01*
X130252255Y-165460250D01*
X129922454Y-165464309D01*
X129913440Y-165637149D01*
X130137304Y-165637149D01*
X130234492Y-165637988D01*
X130305643Y-165641495D01*
X130354755Y-165649158D01*
X130385829Y-165662466D01*
X130402862Y-165682904D01*
X130409854Y-165711962D01*
X130410916Y-165738930D01*
X130407616Y-165772020D01*
X130395163Y-165796403D01*
X130369726Y-165813352D01*
X130327475Y-165824142D01*
X130264580Y-165830047D01*
X130177211Y-165832340D01*
X130129525Y-165832534D01*
X129914940Y-165832534D01*
X129914940Y-166042948D01*
X130245591Y-166042948D01*
X130353976Y-166043099D01*
X130436349Y-166043777D01*
X130496757Y-166045319D01*
X130539247Y-166048062D01*
X130567865Y-166052344D01*
X130586658Y-166058502D01*
X130599672Y-166066872D01*
X130606301Y-166073007D01*
X130629039Y-166108812D01*
X130636360Y-166140640D01*
X130625907Y-166179517D01*
X130606301Y-166208273D01*
X130595841Y-166217326D01*
X130582338Y-166224356D01*
X130562160Y-166229617D01*
X130531675Y-166233364D01*
X130487251Y-166235853D01*
X130425255Y-166237338D01*
X130342055Y-166238074D01*
X130234019Y-166238317D01*
X130177957Y-166238333D01*
X130057902Y-166238226D01*
X129964272Y-166237738D01*
X129893437Y-166236612D01*
X129841765Y-166234594D01*
X129805623Y-166231429D01*
X129781378Y-166226862D01*
X129765399Y-166220639D01*
X129754053Y-166212503D01*
X129749614Y-166208273D01*
X129740829Y-166198159D01*
X129733942Y-166185111D01*
X129728725Y-166165633D01*
X129724947Y-166136227D01*
X129722376Y-166093397D01*
X129720782Y-166033647D01*
X129719935Y-165953480D01*
X129719604Y-165849400D01*
X129719555Y-165752491D01*
X129719600Y-165628386D01*
X129719912Y-165530829D01*
X129720758Y-165456309D01*
X129722404Y-165401314D01*
X129725117Y-165362333D01*
X129729163Y-165335856D01*
X129734809Y-165318369D01*
X129742320Y-165306363D01*
X129751964Y-165296326D01*
X129754340Y-165294089D01*
X129765871Y-165284182D01*
X129779268Y-165276511D01*
X129798250Y-165270789D01*
X129826531Y-165266731D01*
X129867828Y-165264051D01*
X129925858Y-165262465D01*
X130004337Y-165261687D01*
X130106980Y-165261431D01*
X130179850Y-165261409D01*
X130298616Y-165261515D01*
G04 #@! TA.AperFunction,EtchedComponent*
G36*
X130298616Y-165261515D02*
G01*
X130391024Y-165262011D01*
X130460773Y-165263164D01*
X130511563Y-165265243D01*
X130547095Y-165268514D01*
X130571068Y-165273246D01*
X130587182Y-165279706D01*
X130599137Y-165288162D01*
X130603467Y-165292054D01*
X130629795Y-165333403D01*
X130634535Y-165380915D01*
X130617216Y-165423094D01*
X130609207Y-165431619D01*
X130596254Y-165439884D01*
X130575398Y-165446260D01*
X130542770Y-165451058D01*
X130494504Y-165454587D01*
X130426732Y-165457157D01*
X130335586Y-165459080D01*
X130252255Y-165460250D01*
X129922454Y-165464309D01*
X129913440Y-165637149D01*
X130137304Y-165637149D01*
X130234492Y-165637988D01*
X130305643Y-165641495D01*
X130354755Y-165649158D01*
X130385829Y-165662466D01*
X130402862Y-165682904D01*
X130409854Y-165711962D01*
X130410916Y-165738930D01*
X130407616Y-165772020D01*
X130395163Y-165796403D01*
X130369726Y-165813352D01*
X130327475Y-165824142D01*
X130264580Y-165830047D01*
X130177211Y-165832340D01*
X130129525Y-165832534D01*
X129914940Y-165832534D01*
X129914940Y-166042948D01*
X130245591Y-166042948D01*
X130353976Y-166043099D01*
X130436349Y-166043777D01*
X130496757Y-166045319D01*
X130539247Y-166048062D01*
X130567865Y-166052344D01*
X130586658Y-166058502D01*
X130599672Y-166066872D01*
X130606301Y-166073007D01*
X130629039Y-166108812D01*
X130636360Y-166140640D01*
X130625907Y-166179517D01*
X130606301Y-166208273D01*
X130595841Y-166217326D01*
X130582338Y-166224356D01*
X130562160Y-166229617D01*
X130531675Y-166233364D01*
X130487251Y-166235853D01*
X130425255Y-166237338D01*
X130342055Y-166238074D01*
X130234019Y-166238317D01*
X130177957Y-166238333D01*
X130057902Y-166238226D01*
X129964272Y-166237738D01*
X129893437Y-166236612D01*
X129841765Y-166234594D01*
X129805623Y-166231429D01*
X129781378Y-166226862D01*
X129765399Y-166220639D01*
X129754053Y-166212503D01*
X129749614Y-166208273D01*
X129740829Y-166198159D01*
X129733942Y-166185111D01*
X129728725Y-166165633D01*
X129724947Y-166136227D01*
X129722376Y-166093397D01*
X129720782Y-166033647D01*
X129719935Y-165953480D01*
X129719604Y-165849400D01*
X129719555Y-165752491D01*
X129719600Y-165628386D01*
X129719912Y-165530829D01*
X129720758Y-165456309D01*
X129722404Y-165401314D01*
X129725117Y-165362333D01*
X129729163Y-165335856D01*
X129734809Y-165318369D01*
X129742320Y-165306363D01*
X129751964Y-165296326D01*
X129754340Y-165294089D01*
X129765871Y-165284182D01*
X129779268Y-165276511D01*
X129798250Y-165270789D01*
X129826531Y-165266731D01*
X129867828Y-165264051D01*
X129925858Y-165262465D01*
X130004337Y-165261687D01*
X130106980Y-165261431D01*
X130179850Y-165261409D01*
X130298616Y-165261515D01*
G37*
G04 #@! TD.AperFunction*
X141558547Y-165264029D02*
X141584628Y-165273349D01*
X141585634Y-165273805D01*
X141621052Y-165300833D01*
X141640566Y-165328635D01*
X141644384Y-165341671D01*
X141644195Y-165358991D01*
X141638822Y-165383666D01*
X141627088Y-165418763D01*
X141607813Y-165467352D01*
X141579822Y-165532501D01*
X141541936Y-165617280D01*
X141492978Y-165724758D01*
X141466031Y-165783502D01*
X141417370Y-165888372D01*
X141371690Y-165984813D01*
X141330734Y-166069297D01*
X141296246Y-166138299D01*
X141269969Y-166188293D01*
X141253646Y-166215753D01*
X141250416Y-166219546D01*
X141209089Y-166236279D01*
X141162409Y-166234038D01*
X141124970Y-166213686D01*
X141123444Y-166212031D01*
X141108551Y-166189485D01*
X141083569Y-166145570D01*
X141051579Y-166085939D01*
X141015660Y-166016245D01*
X141002752Y-165990562D01*
X140905314Y-165795396D01*
X140799106Y-166007406D01*
X140761197Y-166080660D01*
X140726027Y-166144189D01*
X140696468Y-166193130D01*
X140675394Y-166222621D01*
X140668252Y-166228875D01*
X140612738Y-166237344D01*
X140566929Y-166219546D01*
X140553454Y-166200524D01*
X140530136Y-166158248D01*
X140498877Y-166096879D01*
X140461580Y-166020575D01*
X140420146Y-165933498D01*
X140376478Y-165839806D01*
X140332478Y-165743660D01*
X140290048Y-165649220D01*
X140251090Y-165560644D01*
X140217507Y-165482095D01*
X140191201Y-165417730D01*
X140174074Y-165371710D01*
X140168029Y-165348196D01*
X140168091Y-165347344D01*
X140182800Y-165317755D01*
X140212202Y-165287619D01*
X140213933Y-165286307D01*
X140250070Y-165265881D01*
X140283494Y-165266079D01*
X140296022Y-165269930D01*
X140311287Y-165278252D01*
X140327498Y-165294624D01*
X140346599Y-165322441D01*
X140370535Y-165365099D01*
X140401251Y-165425994D01*
X140440691Y-165508524D01*
X140476258Y-165584706D01*
X140517177Y-165673013D01*
X140553844Y-165752425D01*
X140584354Y-165818795D01*
X140606802Y-165867974D01*
X140619283Y-165895812D01*
X140621103Y-165900167D01*
X140629290Y-165893048D01*
X140648105Y-165863240D01*
X140675046Y-165815095D01*
X140707608Y-165752962D01*
X140720566Y-165727327D01*
X140764460Y-165640764D01*
X140798311Y-165577724D01*
X140824897Y-165534541D01*
X140846995Y-165507551D01*
X140867384Y-165493087D01*
X140888840Y-165487486D01*
X140902823Y-165486853D01*
X140927488Y-165489039D01*
X140949102Y-165498078D01*
X140970578Y-165517696D01*
X140994830Y-165551616D01*
X141024770Y-165603561D01*
X141063313Y-165677257D01*
X141084578Y-165719179D01*
X141119072Y-165785993D01*
X141149156Y-165841400D01*
X141172177Y-165880726D01*
X141185480Y-165899295D01*
X141187289Y-165900068D01*
X141195880Y-165885454D01*
X141215114Y-165847506D01*
X141243065Y-165790195D01*
X141277807Y-165717495D01*
X141317413Y-165633375D01*
X141336896Y-165591593D01*
X141387580Y-165483762D01*
X141428393Y-165400789D01*
X141461454Y-165339965D01*
X141488881Y-165298584D01*
X141512792Y-165273939D01*
X141535308Y-165263323D01*
X141558547Y-165264029D01*
G04 #@! TA.AperFunction,EtchedComponent*
G36*
X141558547Y-165264029D02*
G01*
X141584628Y-165273349D01*
X141585634Y-165273805D01*
X141621052Y-165300833D01*
X141640566Y-165328635D01*
X141644384Y-165341671D01*
X141644195Y-165358991D01*
X141638822Y-165383666D01*
X141627088Y-165418763D01*
X141607813Y-165467352D01*
X141579822Y-165532501D01*
X141541936Y-165617280D01*
X141492978Y-165724758D01*
X141466031Y-165783502D01*
X141417370Y-165888372D01*
X141371690Y-165984813D01*
X141330734Y-166069297D01*
X141296246Y-166138299D01*
X141269969Y-166188293D01*
X141253646Y-166215753D01*
X141250416Y-166219546D01*
X141209089Y-166236279D01*
X141162409Y-166234038D01*
X141124970Y-166213686D01*
X141123444Y-166212031D01*
X141108551Y-166189485D01*
X141083569Y-166145570D01*
X141051579Y-166085939D01*
X141015660Y-166016245D01*
X141002752Y-165990562D01*
X140905314Y-165795396D01*
X140799106Y-166007406D01*
X140761197Y-166080660D01*
X140726027Y-166144189D01*
X140696468Y-166193130D01*
X140675394Y-166222621D01*
X140668252Y-166228875D01*
X140612738Y-166237344D01*
X140566929Y-166219546D01*
X140553454Y-166200524D01*
X140530136Y-166158248D01*
X140498877Y-166096879D01*
X140461580Y-166020575D01*
X140420146Y-165933498D01*
X140376478Y-165839806D01*
X140332478Y-165743660D01*
X140290048Y-165649220D01*
X140251090Y-165560644D01*
X140217507Y-165482095D01*
X140191201Y-165417730D01*
X140174074Y-165371710D01*
X140168029Y-165348196D01*
X140168091Y-165347344D01*
X140182800Y-165317755D01*
X140212202Y-165287619D01*
X140213933Y-165286307D01*
X140250070Y-165265881D01*
X140283494Y-165266079D01*
X140296022Y-165269930D01*
X140311287Y-165278252D01*
X140327498Y-165294624D01*
X140346599Y-165322441D01*
X140370535Y-165365099D01*
X140401251Y-165425994D01*
X140440691Y-165508524D01*
X140476258Y-165584706D01*
X140517177Y-165673013D01*
X140553844Y-165752425D01*
X140584354Y-165818795D01*
X140606802Y-165867974D01*
X140619283Y-165895812D01*
X140621103Y-165900167D01*
X140629290Y-165893048D01*
X140648105Y-165863240D01*
X140675046Y-165815095D01*
X140707608Y-165752962D01*
X140720566Y-165727327D01*
X140764460Y-165640764D01*
X140798311Y-165577724D01*
X140824897Y-165534541D01*
X140846995Y-165507551D01*
X140867384Y-165493087D01*
X140888840Y-165487486D01*
X140902823Y-165486853D01*
X140927488Y-165489039D01*
X140949102Y-165498078D01*
X140970578Y-165517696D01*
X140994830Y-165551616D01*
X141024770Y-165603561D01*
X141063313Y-165677257D01*
X141084578Y-165719179D01*
X141119072Y-165785993D01*
X141149156Y-165841400D01*
X141172177Y-165880726D01*
X141185480Y-165899295D01*
X141187289Y-165900068D01*
X141195880Y-165885454D01*
X141215114Y-165847506D01*
X141243065Y-165790195D01*
X141277807Y-165717495D01*
X141317413Y-165633375D01*
X141336896Y-165591593D01*
X141387580Y-165483762D01*
X141428393Y-165400789D01*
X141461454Y-165339965D01*
X141488881Y-165298584D01*
X141512792Y-165273939D01*
X141535308Y-165263323D01*
X141558547Y-165264029D01*
G37*
G04 #@! TD.AperFunction*
X131658058Y-165263120D02*
X131757663Y-165270083D01*
X131850302Y-165280958D01*
X131930588Y-165295337D01*
X131993138Y-165312809D01*
X132032565Y-165332965D01*
X132038617Y-165338898D01*
X132059662Y-165384938D01*
X132053280Y-165432203D01*
X132020639Y-165472641D01*
X132019082Y-165473800D01*
X131999883Y-165486260D01*
X131979841Y-165492812D01*
X131951886Y-165493607D01*
X131908947Y-165488799D01*
X131843955Y-165478538D01*
X131838727Y-165477674D01*
X131741885Y-165465777D01*
X131637402Y-165459908D01*
X131532611Y-165459851D01*
X131434844Y-165465390D01*
X131351434Y-165476308D01*
X131289713Y-165492388D01*
X131285658Y-165494004D01*
X131240882Y-165519092D01*
X131225150Y-165544481D01*
X131237466Y-165569450D01*
X131276831Y-165593279D01*
X131342248Y-165615245D01*
X131432720Y-165634629D01*
X131493046Y-165643961D01*
X131618446Y-165661912D01*
X131718181Y-165678322D01*
X131796500Y-165694611D01*
X131857653Y-165712201D01*
X131905887Y-165732512D01*
X131945451Y-165756966D01*
X131980594Y-165786983D01*
X132008835Y-165816459D01*
X132042338Y-165857530D01*
X132058827Y-165892845D01*
X132063983Y-165936356D01*
X132064170Y-165952291D01*
X132060298Y-166005168D01*
X132044819Y-166044506D01*
X132018031Y-166079423D01*
X131963587Y-166132797D01*
X131902876Y-166173501D01*
X131831388Y-166202863D01*
X131744610Y-166222210D01*
X131638032Y-166232869D01*
X131507143Y-166236168D01*
X131485531Y-166236112D01*
X131398248Y-166234303D01*
X131311687Y-166230192D01*
X131235284Y-166224369D01*
X131178476Y-166217424D01*
X131173882Y-166216627D01*
X131117401Y-166203247D01*
X131069494Y-166186345D01*
X131042373Y-166170894D01*
X131017135Y-166130129D01*
X131015377Y-166082661D01*
X131037134Y-166040358D01*
X131042002Y-166035575D01*
X131062124Y-166021362D01*
X131087288Y-166015239D01*
X131126233Y-166016281D01*
X131173511Y-166021697D01*
X131226341Y-166026536D01*
X131300398Y-166030618D01*
X131386855Y-166033581D01*
X131476883Y-166035060D01*
X131500561Y-166035157D01*
X131590924Y-166034793D01*
X131657057Y-166033039D01*
X131704779Y-166029286D01*
X131739908Y-166022926D01*
X131768264Y-166013350D01*
X131785305Y-166005374D01*
X131822750Y-165983228D01*
X131846625Y-165963171D01*
X131850114Y-165957486D01*
X131842753Y-165934008D01*
X131807759Y-165911280D01*
X131747558Y-165890333D01*
X131664575Y-165872199D01*
X131640126Y-165868160D01*
X131512424Y-165848102D01*
X131410506Y-165831337D01*
X131330440Y-165816646D01*
X131268292Y-165802811D01*
X131220128Y-165788614D01*
X131182014Y-165772836D01*
X131150016Y-165754259D01*
X131120202Y-165731665D01*
X131088636Y-165703836D01*
X131078014Y-165694079D01*
X131040773Y-165657665D01*
X131021059Y-165628815D01*
X131013347Y-165595801D01*
X131012099Y-165554198D01*
X131025831Y-165472614D01*
X131066868Y-165403297D01*
X131134976Y-165346471D01*
X131229919Y-165302360D01*
X131297662Y-165282575D01*
X131371287Y-165269796D01*
X131459485Y-165262567D01*
X131556870Y-165260478D01*
X131658058Y-165263120D01*
G04 #@! TA.AperFunction,EtchedComponent*
G36*
X131658058Y-165263120D02*
G01*
X131757663Y-165270083D01*
X131850302Y-165280958D01*
X131930588Y-165295337D01*
X131993138Y-165312809D01*
X132032565Y-165332965D01*
X132038617Y-165338898D01*
X132059662Y-165384938D01*
X132053280Y-165432203D01*
X132020639Y-165472641D01*
X132019082Y-165473800D01*
X131999883Y-165486260D01*
X131979841Y-165492812D01*
X131951886Y-165493607D01*
X131908947Y-165488799D01*
X131843955Y-165478538D01*
X131838727Y-165477674D01*
X131741885Y-165465777D01*
X131637402Y-165459908D01*
X131532611Y-165459851D01*
X131434844Y-165465390D01*
X131351434Y-165476308D01*
X131289713Y-165492388D01*
X131285658Y-165494004D01*
X131240882Y-165519092D01*
X131225150Y-165544481D01*
X131237466Y-165569450D01*
X131276831Y-165593279D01*
X131342248Y-165615245D01*
X131432720Y-165634629D01*
X131493046Y-165643961D01*
X131618446Y-165661912D01*
X131718181Y-165678322D01*
X131796500Y-165694611D01*
X131857653Y-165712201D01*
X131905887Y-165732512D01*
X131945451Y-165756966D01*
X131980594Y-165786983D01*
X132008835Y-165816459D01*
X132042338Y-165857530D01*
X132058827Y-165892845D01*
X132063983Y-165936356D01*
X132064170Y-165952291D01*
X132060298Y-166005168D01*
X132044819Y-166044506D01*
X132018031Y-166079423D01*
X131963587Y-166132797D01*
X131902876Y-166173501D01*
X131831388Y-166202863D01*
X131744610Y-166222210D01*
X131638032Y-166232869D01*
X131507143Y-166236168D01*
X131485531Y-166236112D01*
X131398248Y-166234303D01*
X131311687Y-166230192D01*
X131235284Y-166224369D01*
X131178476Y-166217424D01*
X131173882Y-166216627D01*
X131117401Y-166203247D01*
X131069494Y-166186345D01*
X131042373Y-166170894D01*
X131017135Y-166130129D01*
X131015377Y-166082661D01*
X131037134Y-166040358D01*
X131042002Y-166035575D01*
X131062124Y-166021362D01*
X131087288Y-166015239D01*
X131126233Y-166016281D01*
X131173511Y-166021697D01*
X131226341Y-166026536D01*
X131300398Y-166030618D01*
X131386855Y-166033581D01*
X131476883Y-166035060D01*
X131500561Y-166035157D01*
X131590924Y-166034793D01*
X131657057Y-166033039D01*
X131704779Y-166029286D01*
X131739908Y-166022926D01*
X131768264Y-166013350D01*
X131785305Y-166005374D01*
X131822750Y-165983228D01*
X131846625Y-165963171D01*
X131850114Y-165957486D01*
X131842753Y-165934008D01*
X131807759Y-165911280D01*
X131747558Y-165890333D01*
X131664575Y-165872199D01*
X131640126Y-165868160D01*
X131512424Y-165848102D01*
X131410506Y-165831337D01*
X131330440Y-165816646D01*
X131268292Y-165802811D01*
X131220128Y-165788614D01*
X131182014Y-165772836D01*
X131150016Y-165754259D01*
X131120202Y-165731665D01*
X131088636Y-165703836D01*
X131078014Y-165694079D01*
X131040773Y-165657665D01*
X131021059Y-165628815D01*
X131013347Y-165595801D01*
X131012099Y-165554198D01*
X131025831Y-165472614D01*
X131066868Y-165403297D01*
X131134976Y-165346471D01*
X131229919Y-165302360D01*
X131297662Y-165282575D01*
X131371287Y-165269796D01*
X131459485Y-165262567D01*
X131556870Y-165260478D01*
X131658058Y-165263120D01*
G37*
G04 #@! TD.AperFunction*
X136979378Y-158224230D02*
X137175019Y-158245648D01*
X137364562Y-158283984D01*
X137555717Y-158341237D01*
X137756196Y-158419408D01*
X137973708Y-158520495D01*
X138012880Y-158540075D01*
X138102772Y-158584361D01*
X138187553Y-158624238D01*
X138258855Y-158655897D01*
X138308310Y-158675531D01*
X138315908Y-158678003D01*
X138388714Y-158699816D01*
X138062803Y-159173943D01*
X137983123Y-159289822D01*
X137910272Y-159395693D01*
X137846730Y-159487961D01*
X137794972Y-159563032D01*
X137757477Y-159617312D01*
X137736723Y-159647206D01*
X137733351Y-159651940D01*
X137719655Y-159642041D01*
X137685943Y-159612284D01*
X137638244Y-159568072D01*
X137611920Y-159543083D01*
X137462772Y-159424455D01*
X137295268Y-159334312D01*
X137150928Y-159284935D01*
X137064283Y-159269428D01*
X136955796Y-159259978D01*
X136838227Y-159256760D01*
X136724334Y-159259950D01*
X136626879Y-159269723D01*
X136587990Y-159277208D01*
X136412712Y-159337511D01*
X136254765Y-159429589D01*
X136114268Y-159553272D01*
X135991335Y-159708392D01*
X135886085Y-159894780D01*
X135798635Y-160112269D01*
X135729100Y-160360691D01*
X135687775Y-160573356D01*
X135676994Y-160667240D01*
X135669648Y-160788523D01*
X135665667Y-160928492D01*
X135664979Y-161078430D01*
X135667514Y-161229621D01*
X135673200Y-161373350D01*
X135681967Y-161500902D01*
X135693744Y-161603561D01*
X135696293Y-161619400D01*
X135752481Y-161874535D01*
X135829036Y-162100341D01*
X135926426Y-162297830D01*
X136045114Y-162468013D01*
X136129363Y-162560021D01*
X136280770Y-162684942D01*
X136446817Y-162777539D01*
X136624701Y-162837308D01*
X136811622Y-162863745D01*
X137004778Y-162856347D01*
X137201369Y-162814610D01*
X137317597Y-162773770D01*
X137478438Y-162691989D01*
X137644213Y-162574677D01*
X137737073Y-162495344D01*
X137789214Y-162449428D01*
X137830180Y-162415741D01*
X137853498Y-162399509D01*
X137856393Y-162399014D01*
X137866800Y-162415600D01*
X137893767Y-162459431D01*
X137934996Y-162526747D01*
X137988189Y-162613793D01*
X138051050Y-162716809D01*
X138121281Y-162832040D01*
X138160372Y-162896230D01*
X138458964Y-163386676D01*
X138086161Y-163570914D01*
X137951369Y-163637092D01*
X137842175Y-163689277D01*
X137751907Y-163730059D01*
X137673888Y-163762032D01*
X137601444Y-163787786D01*
X137527901Y-163809913D01*
X137446584Y-163831006D01*
X137368643Y-163849529D01*
X137299366Y-163863862D01*
X137226917Y-163874693D01*
X137144042Y-163882625D01*
X137043488Y-163888257D01*
X136918003Y-163892191D01*
X136833428Y-163893890D01*
X136712754Y-163895049D01*
X136597042Y-163894464D01*
X136493951Y-163892303D01*
X136411138Y-163888731D01*
X136356260Y-163883916D01*
X136353008Y-163883436D01*
X136068043Y-163821785D01*
X135800442Y-163728284D01*
X135550297Y-163602992D01*
X135317704Y-163445973D01*
X135102757Y-163257288D01*
X134905550Y-163036999D01*
X134762727Y-162841213D01*
X134610680Y-162584948D01*
X134487773Y-162314316D01*
X134393410Y-162027148D01*
X134326999Y-161721275D01*
X134287944Y-161394527D01*
X134275640Y-161062738D01*
X134285759Y-160741778D01*
X134317561Y-160445645D01*
X134372054Y-160169344D01*
X134450250Y-159907880D01*
X134553159Y-159656257D01*
X134565447Y-159630189D01*
X134700820Y-159386506D01*
X134867089Y-159154617D01*
X135059541Y-158939322D01*
X135273466Y-158745421D01*
X135504155Y-158577714D01*
X135719109Y-158454695D01*
X135936258Y-158358344D01*
X136153868Y-158288550D01*
X136380362Y-158243412D01*
X136624166Y-158221030D01*
X136769928Y-158217730D01*
X136979378Y-158224230D01*
G04 #@! TA.AperFunction,EtchedComponent*
G36*
X136979378Y-158224230D02*
G01*
X137175019Y-158245648D01*
X137364562Y-158283984D01*
X137555717Y-158341237D01*
X137756196Y-158419408D01*
X137973708Y-158520495D01*
X138012880Y-158540075D01*
X138102772Y-158584361D01*
X138187553Y-158624238D01*
X138258855Y-158655897D01*
X138308310Y-158675531D01*
X138315908Y-158678003D01*
X138388714Y-158699816D01*
X138062803Y-159173943D01*
X137983123Y-159289822D01*
X137910272Y-159395693D01*
X137846730Y-159487961D01*
X137794972Y-159563032D01*
X137757477Y-159617312D01*
X137736723Y-159647206D01*
X137733351Y-159651940D01*
X137719655Y-159642041D01*
X137685943Y-159612284D01*
X137638244Y-159568072D01*
X137611920Y-159543083D01*
X137462772Y-159424455D01*
X137295268Y-159334312D01*
X137150928Y-159284935D01*
X137064283Y-159269428D01*
X136955796Y-159259978D01*
X136838227Y-159256760D01*
X136724334Y-159259950D01*
X136626879Y-159269723D01*
X136587990Y-159277208D01*
X136412712Y-159337511D01*
X136254765Y-159429589D01*
X136114268Y-159553272D01*
X135991335Y-159708392D01*
X135886085Y-159894780D01*
X135798635Y-160112269D01*
X135729100Y-160360691D01*
X135687775Y-160573356D01*
X135676994Y-160667240D01*
X135669648Y-160788523D01*
X135665667Y-160928492D01*
X135664979Y-161078430D01*
X135667514Y-161229621D01*
X135673200Y-161373350D01*
X135681967Y-161500902D01*
X135693744Y-161603561D01*
X135696293Y-161619400D01*
X135752481Y-161874535D01*
X135829036Y-162100341D01*
X135926426Y-162297830D01*
X136045114Y-162468013D01*
X136129363Y-162560021D01*
X136280770Y-162684942D01*
X136446817Y-162777539D01*
X136624701Y-162837308D01*
X136811622Y-162863745D01*
X137004778Y-162856347D01*
X137201369Y-162814610D01*
X137317597Y-162773770D01*
X137478438Y-162691989D01*
X137644213Y-162574677D01*
X137737073Y-162495344D01*
X137789214Y-162449428D01*
X137830180Y-162415741D01*
X137853498Y-162399509D01*
X137856393Y-162399014D01*
X137866800Y-162415600D01*
X137893767Y-162459431D01*
X137934996Y-162526747D01*
X137988189Y-162613793D01*
X138051050Y-162716809D01*
X138121281Y-162832040D01*
X138160372Y-162896230D01*
X138458964Y-163386676D01*
X138086161Y-163570914D01*
X137951369Y-163637092D01*
X137842175Y-163689277D01*
X137751907Y-163730059D01*
X137673888Y-163762032D01*
X137601444Y-163787786D01*
X137527901Y-163809913D01*
X137446584Y-163831006D01*
X137368643Y-163849529D01*
X137299366Y-163863862D01*
X137226917Y-163874693D01*
X137144042Y-163882625D01*
X137043488Y-163888257D01*
X136918003Y-163892191D01*
X136833428Y-163893890D01*
X136712754Y-163895049D01*
X136597042Y-163894464D01*
X136493951Y-163892303D01*
X136411138Y-163888731D01*
X136356260Y-163883916D01*
X136353008Y-163883436D01*
X136068043Y-163821785D01*
X135800442Y-163728284D01*
X135550297Y-163602992D01*
X135317704Y-163445973D01*
X135102757Y-163257288D01*
X134905550Y-163036999D01*
X134762727Y-162841213D01*
X134610680Y-162584948D01*
X134487773Y-162314316D01*
X134393410Y-162027148D01*
X134326999Y-161721275D01*
X134287944Y-161394527D01*
X134275640Y-161062738D01*
X134285759Y-160741778D01*
X134317561Y-160445645D01*
X134372054Y-160169344D01*
X134450250Y-159907880D01*
X134553159Y-159656257D01*
X134565447Y-159630189D01*
X134700820Y-159386506D01*
X134867089Y-159154617D01*
X135059541Y-158939322D01*
X135273466Y-158745421D01*
X135504155Y-158577714D01*
X135719109Y-158454695D01*
X135936258Y-158358344D01*
X136153868Y-158288550D01*
X136380362Y-158243412D01*
X136624166Y-158221030D01*
X136769928Y-158217730D01*
X136979378Y-158224230D01*
G37*
G04 #@! TD.AperFunction*
X145439571Y-157955088D02*
X145593876Y-157955722D01*
X145646321Y-157956041D01*
X146367500Y-157960785D01*
X146376571Y-160727571D01*
X146377769Y-161102755D01*
X146378832Y-161443416D01*
X146379827Y-161751317D01*
X146380823Y-162028220D01*
X146381888Y-162275887D01*
X146383091Y-162496080D01*
X146384499Y-162690561D01*
X146386182Y-162861093D01*
X146388206Y-163009439D01*
X146390641Y-163137360D01*
X146393554Y-163246619D01*
X146397015Y-163338978D01*
X146401090Y-163416199D01*
X146405849Y-163480045D01*
X146411360Y-163532277D01*
X146417691Y-163574659D01*
X146424910Y-163608952D01*
X146433085Y-163636919D01*
X146442285Y-163660323D01*
X146452577Y-163680924D01*
X146464031Y-163700486D01*
X146476715Y-163720771D01*
X146490695Y-163743542D01*
X146493561Y-163748392D01*
X146541640Y-163830432D01*
X145151928Y-163820928D01*
X145142857Y-163668294D01*
X145137918Y-163595044D01*
X145132771Y-163552695D01*
X145125786Y-163535891D01*
X145115337Y-163539276D01*
X145106571Y-163548959D01*
X145068388Y-163584228D01*
X145006155Y-163629562D01*
X144928641Y-163679545D01*
X144844613Y-163728760D01*
X144762839Y-163771790D01*
X144700052Y-163800100D01*
X144552954Y-163846623D01*
X144384180Y-163879578D01*
X144206191Y-163897706D01*
X144031447Y-163899749D01*
X143872407Y-163884446D01*
X143869788Y-163884008D01*
X143652168Y-163829401D01*
X143448455Y-163742400D01*
X143260613Y-163624875D01*
X143090607Y-163478696D01*
X142940402Y-163305733D01*
X142811964Y-163107856D01*
X142707257Y-162886935D01*
X142650246Y-162723285D01*
X142612651Y-162586374D01*
X142584771Y-162453797D01*
X142565753Y-162317501D01*
X142554745Y-162169432D01*
X142550895Y-162001536D01*
X142552600Y-161864439D01*
X143891359Y-161864439D01*
X143897694Y-162094328D01*
X143917679Y-162292110D01*
X143951927Y-162459538D01*
X144001055Y-162598368D01*
X144065676Y-162710357D01*
X144146405Y-162797258D01*
X144239591Y-162858691D01*
X144288080Y-162881625D01*
X144330134Y-162895374D01*
X144377020Y-162901665D01*
X144440004Y-162902221D01*
X144507857Y-162899772D01*
X144641295Y-162888003D01*
X144746832Y-162864954D01*
X144780000Y-162853409D01*
X144855735Y-162819310D01*
X144935614Y-162776490D01*
X144970500Y-162755056D01*
X145061214Y-162695555D01*
X145061214Y-160809583D01*
X144961428Y-160749770D01*
X144822267Y-160682184D01*
X144680087Y-160642213D01*
X144540090Y-160629621D01*
X144407474Y-160644172D01*
X144287440Y-160685631D01*
X144185188Y-160753762D01*
X144152195Y-160786465D01*
X144072667Y-160893618D01*
X144008299Y-161023326D01*
X143958553Y-161177813D01*
X143922891Y-161359301D01*
X143900775Y-161570014D01*
X143891667Y-161812174D01*
X143891359Y-161864439D01*
X142552600Y-161864439D01*
X142553310Y-161807373D01*
X142568605Y-161508712D01*
X142599358Y-161239324D01*
X142646381Y-160995284D01*
X142710482Y-160772669D01*
X142792472Y-160567555D01*
X142821730Y-160506745D01*
X142939581Y-160308439D01*
X143081996Y-160132211D01*
X143245629Y-159980907D01*
X143427131Y-159857370D01*
X143623153Y-159764446D01*
X143740655Y-159726114D01*
X143856054Y-159703358D01*
X143994907Y-159689819D01*
X144145574Y-159685491D01*
X144296413Y-159690367D01*
X144435785Y-159704443D01*
X144547691Y-159726524D01*
X144680884Y-159769827D01*
X144809979Y-159825510D01*
X144922928Y-159887935D01*
X144983043Y-159930302D01*
X145024510Y-159961806D01*
X145053545Y-159980989D01*
X145060150Y-159983713D01*
X145062198Y-159966162D01*
X145064107Y-159915874D01*
X145065836Y-159836399D01*
X145067341Y-159731285D01*
X145068581Y-159604082D01*
X145069513Y-159458338D01*
X145070095Y-159297602D01*
X145070286Y-159133883D01*
X145070179Y-158924187D01*
X145069658Y-158747395D01*
X145068416Y-158600125D01*
X145066148Y-158478996D01*
X145062550Y-158380626D01*
X145057317Y-158301633D01*
X145050144Y-158238637D01*
X145040726Y-158188254D01*
X145028758Y-158147104D01*
X145013935Y-158111805D01*
X144995952Y-158078976D01*
X144974505Y-158045234D01*
X144971745Y-158041056D01*
X144944083Y-157997355D01*
X144927382Y-157967304D01*
X144925143Y-157960966D01*
X144942643Y-157958966D01*
X144992574Y-157957339D01*
X145071085Y-157956111D01*
X145174323Y-157955310D01*
X145298436Y-157954960D01*
X145439571Y-157955088D01*
G04 #@! TA.AperFunction,EtchedComponent*
G36*
X145439571Y-157955088D02*
G01*
X145593876Y-157955722D01*
X145646321Y-157956041D01*
X146367500Y-157960785D01*
X146376571Y-160727571D01*
X146377769Y-161102755D01*
X146378832Y-161443416D01*
X146379827Y-161751317D01*
X146380823Y-162028220D01*
X146381888Y-162275887D01*
X146383091Y-162496080D01*
X146384499Y-162690561D01*
X146386182Y-162861093D01*
X146388206Y-163009439D01*
X146390641Y-163137360D01*
X146393554Y-163246619D01*
X146397015Y-163338978D01*
X146401090Y-163416199D01*
X146405849Y-163480045D01*
X146411360Y-163532277D01*
X146417691Y-163574659D01*
X146424910Y-163608952D01*
X146433085Y-163636919D01*
X146442285Y-163660323D01*
X146452577Y-163680924D01*
X146464031Y-163700486D01*
X146476715Y-163720771D01*
X146490695Y-163743542D01*
X146493561Y-163748392D01*
X146541640Y-163830432D01*
X145151928Y-163820928D01*
X145142857Y-163668294D01*
X145137918Y-163595044D01*
X145132771Y-163552695D01*
X145125786Y-163535891D01*
X145115337Y-163539276D01*
X145106571Y-163548959D01*
X145068388Y-163584228D01*
X145006155Y-163629562D01*
X144928641Y-163679545D01*
X144844613Y-163728760D01*
X144762839Y-163771790D01*
X144700052Y-163800100D01*
X144552954Y-163846623D01*
X144384180Y-163879578D01*
X144206191Y-163897706D01*
X144031447Y-163899749D01*
X143872407Y-163884446D01*
X143869788Y-163884008D01*
X143652168Y-163829401D01*
X143448455Y-163742400D01*
X143260613Y-163624875D01*
X143090607Y-163478696D01*
X142940402Y-163305733D01*
X142811964Y-163107856D01*
X142707257Y-162886935D01*
X142650246Y-162723285D01*
X142612651Y-162586374D01*
X142584771Y-162453797D01*
X142565753Y-162317501D01*
X142554745Y-162169432D01*
X142550895Y-162001536D01*
X142552600Y-161864439D01*
X143891359Y-161864439D01*
X143897694Y-162094328D01*
X143917679Y-162292110D01*
X143951927Y-162459538D01*
X144001055Y-162598368D01*
X144065676Y-162710357D01*
X144146405Y-162797258D01*
X144239591Y-162858691D01*
X144288080Y-162881625D01*
X144330134Y-162895374D01*
X144377020Y-162901665D01*
X144440004Y-162902221D01*
X144507857Y-162899772D01*
X144641295Y-162888003D01*
X144746832Y-162864954D01*
X144780000Y-162853409D01*
X144855735Y-162819310D01*
X144935614Y-162776490D01*
X144970500Y-162755056D01*
X145061214Y-162695555D01*
X145061214Y-160809583D01*
X144961428Y-160749770D01*
X144822267Y-160682184D01*
X144680087Y-160642213D01*
X144540090Y-160629621D01*
X144407474Y-160644172D01*
X144287440Y-160685631D01*
X144185188Y-160753762D01*
X144152195Y-160786465D01*
X144072667Y-160893618D01*
X144008299Y-161023326D01*
X143958553Y-161177813D01*
X143922891Y-161359301D01*
X143900775Y-161570014D01*
X143891667Y-161812174D01*
X143891359Y-161864439D01*
X142552600Y-161864439D01*
X142553310Y-161807373D01*
X142568605Y-161508712D01*
X142599358Y-161239324D01*
X142646381Y-160995284D01*
X142710482Y-160772669D01*
X142792472Y-160567555D01*
X142821730Y-160506745D01*
X142939581Y-160308439D01*
X143081996Y-160132211D01*
X143245629Y-159980907D01*
X143427131Y-159857370D01*
X143623153Y-159764446D01*
X143740655Y-159726114D01*
X143856054Y-159703358D01*
X143994907Y-159689819D01*
X144145574Y-159685491D01*
X144296413Y-159690367D01*
X144435785Y-159704443D01*
X144547691Y-159726524D01*
X144680884Y-159769827D01*
X144809979Y-159825510D01*
X144922928Y-159887935D01*
X144983043Y-159930302D01*
X145024510Y-159961806D01*
X145053545Y-159980989D01*
X145060150Y-159983713D01*
X145062198Y-159966162D01*
X145064107Y-159915874D01*
X145065836Y-159836399D01*
X145067341Y-159731285D01*
X145068581Y-159604082D01*
X145069513Y-159458338D01*
X145070095Y-159297602D01*
X145070286Y-159133883D01*
X145070179Y-158924187D01*
X145069658Y-158747395D01*
X145068416Y-158600125D01*
X145066148Y-158478996D01*
X145062550Y-158380626D01*
X145057317Y-158301633D01*
X145050144Y-158238637D01*
X145040726Y-158188254D01*
X145028758Y-158147104D01*
X145013935Y-158111805D01*
X144995952Y-158078976D01*
X144974505Y-158045234D01*
X144971745Y-158041056D01*
X144944083Y-157997355D01*
X144927382Y-157967304D01*
X144925143Y-157960966D01*
X144942643Y-157958966D01*
X144992574Y-157957339D01*
X145071085Y-157956111D01*
X145174323Y-157955310D01*
X145298436Y-157954960D01*
X145439571Y-157955088D01*
G37*
G04 #@! TD.AperFunction*
X140583632Y-159682729D02*
X140673523Y-159689534D01*
X140930715Y-159723752D01*
X141158485Y-159778330D01*
X141357943Y-159854019D01*
X141530197Y-159951569D01*
X141676359Y-160071731D01*
X141797536Y-160215257D01*
X141894839Y-160382897D01*
X141965891Y-160564285D01*
X141983927Y-160622145D01*
X141999632Y-160676328D01*
X142013192Y-160729751D01*
X142024792Y-160785332D01*
X142034617Y-160845987D01*
X142042853Y-160914634D01*
X142049684Y-160994189D01*
X142055295Y-161087571D01*
X142059872Y-161197695D01*
X142063600Y-161327480D01*
X142066665Y-161479841D01*
X142069250Y-161657697D01*
X142071542Y-161863964D01*
X142073725Y-162101560D01*
X142075286Y-162287856D01*
X142085785Y-163566928D01*
X142153821Y-163690017D01*
X142186038Y-163749316D01*
X142210012Y-163795376D01*
X142221450Y-163819892D01*
X142221857Y-163821552D01*
X142204375Y-163823453D01*
X142154574Y-163825204D01*
X142076421Y-163826757D01*
X141973882Y-163828061D01*
X141850922Y-163829069D01*
X141711510Y-163829730D01*
X141559611Y-163829996D01*
X141541500Y-163829999D01*
X140861143Y-163829999D01*
X140861143Y-163675785D01*
X140859982Y-163606093D01*
X140856887Y-163552793D01*
X140852432Y-163524216D01*
X140850463Y-163521571D01*
X140832455Y-163532652D01*
X140795393Y-163561735D01*
X140747222Y-163602578D01*
X140746141Y-163603523D01*
X140658235Y-163668970D01*
X140547217Y-163734687D01*
X140425631Y-163794218D01*
X140306021Y-163841108D01*
X140253357Y-163857132D01*
X140148551Y-163877484D01*
X140019950Y-163890471D01*
X139879325Y-163895908D01*
X139738448Y-163893610D01*
X139609093Y-163883391D01*
X139518571Y-163868688D01*
X139296580Y-163803498D01*
X139096729Y-163710593D01*
X138920319Y-163591125D01*
X138768650Y-163446246D01*
X138643024Y-163277109D01*
X138544741Y-163084866D01*
X138502341Y-162968213D01*
X138475768Y-162854832D01*
X138458158Y-162718721D01*
X138450010Y-162572436D01*
X138450278Y-162551150D01*
X139677321Y-162551150D01*
X139687496Y-162659849D01*
X139721378Y-162750184D01*
X139784000Y-162833994D01*
X139808052Y-162858570D01*
X139893551Y-162925010D01*
X139992373Y-162967573D01*
X140110768Y-162988176D01*
X140235445Y-162989693D01*
X140353698Y-162979676D01*
X140444239Y-162960084D01*
X140483560Y-162945369D01*
X140554432Y-162905264D01*
X140629525Y-162848862D01*
X140698038Y-162785560D01*
X140749172Y-162724754D01*
X140762750Y-162702448D01*
X140773305Y-162671211D01*
X140780810Y-162621506D01*
X140785613Y-162548586D01*
X140788065Y-162447702D01*
X140788571Y-162351688D01*
X140788228Y-162239749D01*
X140786843Y-162158808D01*
X140783881Y-162103584D01*
X140778808Y-162068793D01*
X140771090Y-162049153D01*
X140760192Y-162039379D01*
X140756821Y-162037823D01*
X140727529Y-162033028D01*
X140669756Y-162029107D01*
X140591304Y-162026413D01*
X140499974Y-162025298D01*
X140480143Y-162025297D01*
X140358063Y-162027245D01*
X140263749Y-162033040D01*
X140188807Y-162043474D01*
X140126903Y-162058713D01*
X139973349Y-162116783D01*
X139852932Y-162188178D01*
X139764610Y-162274038D01*
X139707339Y-162375506D01*
X139680078Y-162493724D01*
X139677321Y-162551150D01*
X138450278Y-162551150D01*
X138451823Y-162428532D01*
X138464096Y-162299564D01*
X138473670Y-162247459D01*
X138534801Y-162053996D01*
X138627757Y-161875992D01*
X138750783Y-161715154D01*
X138902124Y-161573189D01*
X139080025Y-161451805D01*
X139282732Y-161352708D01*
X139455071Y-161292532D01*
X139570253Y-161260918D01*
X139680423Y-161236353D01*
X139792719Y-161218038D01*
X139914275Y-161205177D01*
X140052229Y-161196971D01*
X140213715Y-161192623D01*
X140359715Y-161191399D01*
X140792645Y-161190214D01*
X140784351Y-161060079D01*
X140760801Y-160918882D01*
X140710703Y-160797517D01*
X140636191Y-160699016D01*
X140539399Y-160626408D01*
X140454171Y-160590978D01*
X140332056Y-160568649D01*
X140186683Y-160565442D01*
X140024867Y-160580176D01*
X139853422Y-160611669D01*
X139679163Y-160658739D01*
X139508904Y-160720202D01*
X139385176Y-160776416D01*
X139325647Y-160805282D01*
X139280242Y-160825442D01*
X139257150Y-160833309D01*
X139255897Y-160833057D01*
X139247929Y-160815436D01*
X139228031Y-160768732D01*
X139198077Y-160697417D01*
X139159939Y-160605968D01*
X139115488Y-160498858D01*
X139070305Y-160389548D01*
X138889667Y-159951739D01*
X139018155Y-159930635D01*
X139073846Y-159920046D01*
X139157564Y-159902262D01*
X139262139Y-159878897D01*
X139380399Y-159851564D01*
X139505172Y-159821880D01*
X139554857Y-159809817D01*
X139769807Y-159759961D01*
X139957995Y-159722583D01*
X140126446Y-159696926D01*
X140282186Y-159682234D01*
X140432240Y-159677754D01*
X140583632Y-159682729D01*
G04 #@! TA.AperFunction,EtchedComponent*
G36*
X140583632Y-159682729D02*
G01*
X140673523Y-159689534D01*
X140930715Y-159723752D01*
X141158485Y-159778330D01*
X141357943Y-159854019D01*
X141530197Y-159951569D01*
X141676359Y-160071731D01*
X141797536Y-160215257D01*
X141894839Y-160382897D01*
X141965891Y-160564285D01*
X141983927Y-160622145D01*
X141999632Y-160676328D01*
X142013192Y-160729751D01*
X142024792Y-160785332D01*
X142034617Y-160845987D01*
X142042853Y-160914634D01*
X142049684Y-160994189D01*
X142055295Y-161087571D01*
X142059872Y-161197695D01*
X142063600Y-161327480D01*
X142066665Y-161479841D01*
X142069250Y-161657697D01*
X142071542Y-161863964D01*
X142073725Y-162101560D01*
X142075286Y-162287856D01*
X142085785Y-163566928D01*
X142153821Y-163690017D01*
X142186038Y-163749316D01*
X142210012Y-163795376D01*
X142221450Y-163819892D01*
X142221857Y-163821552D01*
X142204375Y-163823453D01*
X142154574Y-163825204D01*
X142076421Y-163826757D01*
X141973882Y-163828061D01*
X141850922Y-163829069D01*
X141711510Y-163829730D01*
X141559611Y-163829996D01*
X141541500Y-163829999D01*
X140861143Y-163829999D01*
X140861143Y-163675785D01*
X140859982Y-163606093D01*
X140856887Y-163552793D01*
X140852432Y-163524216D01*
X140850463Y-163521571D01*
X140832455Y-163532652D01*
X140795393Y-163561735D01*
X140747222Y-163602578D01*
X140746141Y-163603523D01*
X140658235Y-163668970D01*
X140547217Y-163734687D01*
X140425631Y-163794218D01*
X140306021Y-163841108D01*
X140253357Y-163857132D01*
X140148551Y-163877484D01*
X140019950Y-163890471D01*
X139879325Y-163895908D01*
X139738448Y-163893610D01*
X139609093Y-163883391D01*
X139518571Y-163868688D01*
X139296580Y-163803498D01*
X139096729Y-163710593D01*
X138920319Y-163591125D01*
X138768650Y-163446246D01*
X138643024Y-163277109D01*
X138544741Y-163084866D01*
X138502341Y-162968213D01*
X138475768Y-162854832D01*
X138458158Y-162718721D01*
X138450010Y-162572436D01*
X138450278Y-162551150D01*
X139677321Y-162551150D01*
X139687496Y-162659849D01*
X139721378Y-162750184D01*
X139784000Y-162833994D01*
X139808052Y-162858570D01*
X139893551Y-162925010D01*
X139992373Y-162967573D01*
X140110768Y-162988176D01*
X140235445Y-162989693D01*
X140353698Y-162979676D01*
X140444239Y-162960084D01*
X140483560Y-162945369D01*
X140554432Y-162905264D01*
X140629525Y-162848862D01*
X140698038Y-162785560D01*
X140749172Y-162724754D01*
X140762750Y-162702448D01*
X140773305Y-162671211D01*
X140780810Y-162621506D01*
X140785613Y-162548586D01*
X140788065Y-162447702D01*
X140788571Y-162351688D01*
X140788228Y-162239749D01*
X140786843Y-162158808D01*
X140783881Y-162103584D01*
X140778808Y-162068793D01*
X140771090Y-162049153D01*
X140760192Y-162039379D01*
X140756821Y-162037823D01*
X140727529Y-162033028D01*
X140669756Y-162029107D01*
X140591304Y-162026413D01*
X140499974Y-162025298D01*
X140480143Y-162025297D01*
X140358063Y-162027245D01*
X140263749Y-162033040D01*
X140188807Y-162043474D01*
X140126903Y-162058713D01*
X139973349Y-162116783D01*
X139852932Y-162188178D01*
X139764610Y-162274038D01*
X139707339Y-162375506D01*
X139680078Y-162493724D01*
X139677321Y-162551150D01*
X138450278Y-162551150D01*
X138451823Y-162428532D01*
X138464096Y-162299564D01*
X138473670Y-162247459D01*
X138534801Y-162053996D01*
X138627757Y-161875992D01*
X138750783Y-161715154D01*
X138902124Y-161573189D01*
X139080025Y-161451805D01*
X139282732Y-161352708D01*
X139455071Y-161292532D01*
X139570253Y-161260918D01*
X139680423Y-161236353D01*
X139792719Y-161218038D01*
X139914275Y-161205177D01*
X140052229Y-161196971D01*
X140213715Y-161192623D01*
X140359715Y-161191399D01*
X140792645Y-161190214D01*
X140784351Y-161060079D01*
X140760801Y-160918882D01*
X140710703Y-160797517D01*
X140636191Y-160699016D01*
X140539399Y-160626408D01*
X140454171Y-160590978D01*
X140332056Y-160568649D01*
X140186683Y-160565442D01*
X140024867Y-160580176D01*
X139853422Y-160611669D01*
X139679163Y-160658739D01*
X139508904Y-160720202D01*
X139385176Y-160776416D01*
X139325647Y-160805282D01*
X139280242Y-160825442D01*
X139257150Y-160833309D01*
X139255897Y-160833057D01*
X139247929Y-160815436D01*
X139228031Y-160768732D01*
X139198077Y-160697417D01*
X139159939Y-160605968D01*
X139115488Y-160498858D01*
X139070305Y-160389548D01*
X138889667Y-159951739D01*
X139018155Y-159930635D01*
X139073846Y-159920046D01*
X139157564Y-159902262D01*
X139262139Y-159878897D01*
X139380399Y-159851564D01*
X139505172Y-159821880D01*
X139554857Y-159809817D01*
X139769807Y-159759961D01*
X139957995Y-159722583D01*
X140126446Y-159696926D01*
X140282186Y-159682234D01*
X140432240Y-159677754D01*
X140583632Y-159682729D01*
G37*
G04 #@! TD.AperFunction*
X128527911Y-157316659D02*
X128877460Y-157316706D01*
X129040170Y-157316713D01*
X131644571Y-157316714D01*
X131644571Y-157470237D01*
X131660957Y-157657062D01*
X131710412Y-157829366D01*
X131793380Y-157988174D01*
X131910305Y-158134509D01*
X131949864Y-158174031D01*
X132092170Y-158286137D01*
X132249078Y-158367898D01*
X132415928Y-158419352D01*
X132588061Y-158440536D01*
X132760815Y-158431486D01*
X132929530Y-158392241D01*
X133089546Y-158322837D01*
X133236202Y-158223310D01*
X133302068Y-158163264D01*
X133424808Y-158016042D01*
X133514812Y-157854146D01*
X133571294Y-157679426D01*
X133593471Y-157493734D01*
X133593766Y-157475466D01*
X133594928Y-157316719D01*
X133664700Y-157316716D01*
X133726595Y-157325117D01*
X133783135Y-157345555D01*
X133786872Y-157347666D01*
X133799642Y-157354292D01*
X133811368Y-157359453D01*
X133822094Y-157364650D01*
X133831861Y-157371389D01*
X133840712Y-157381170D01*
X133848689Y-157395499D01*
X133855835Y-157415877D01*
X133862192Y-157443807D01*
X133867802Y-157480794D01*
X133872707Y-157528339D01*
X133876951Y-157587946D01*
X133880576Y-157661118D01*
X133883623Y-157749358D01*
X133886136Y-157854169D01*
X133888156Y-157977054D01*
X133889726Y-158119516D01*
X133890888Y-158283059D01*
X133891686Y-158469185D01*
X133892160Y-158679397D01*
X133892354Y-158915199D01*
X133892310Y-159178093D01*
X133892070Y-159469583D01*
X133891677Y-159791171D01*
X133891173Y-160144361D01*
X133890600Y-160530656D01*
X133890001Y-160951559D01*
X133889932Y-161002839D01*
X133889395Y-161426425D01*
X133888939Y-161815229D01*
X133888516Y-162170752D01*
X133888079Y-162494497D01*
X133887578Y-162787965D01*
X133886965Y-163052660D01*
X133886192Y-163290084D01*
X133885211Y-163501739D01*
X133883974Y-163689128D01*
X133882432Y-163853753D01*
X133880537Y-163997116D01*
X133878241Y-164120719D01*
X133875496Y-164226066D01*
X133872253Y-164314658D01*
X133868464Y-164387999D01*
X133864081Y-164447589D01*
X133859055Y-164494932D01*
X133853339Y-164531530D01*
X133846884Y-164558885D01*
X133839641Y-164578501D01*
X133831563Y-164591878D01*
X133822602Y-164600520D01*
X133812708Y-164605929D01*
X133801835Y-164609607D01*
X133789933Y-164613057D01*
X133776954Y-164617781D01*
X133773783Y-164619219D01*
X133763819Y-164622450D01*
X133747141Y-164625419D01*
X133722293Y-164628136D01*
X133687820Y-164630612D01*
X133642264Y-164632857D01*
X133584170Y-164634882D01*
X133512081Y-164636697D01*
X133424542Y-164638314D01*
X133320095Y-164639742D01*
X133197285Y-164640992D01*
X133054655Y-164642075D01*
X132890749Y-164643001D01*
X132704110Y-164643781D01*
X132493284Y-164644425D01*
X132256812Y-164644945D01*
X131993239Y-164645350D01*
X131701110Y-164645651D01*
X131378966Y-164645859D01*
X131025353Y-164645984D01*
X130638814Y-164646037D01*
X130217892Y-164646028D01*
X130081544Y-164646015D01*
X129651284Y-164645946D01*
X129255836Y-164645833D01*
X128893727Y-164645664D01*
X128563483Y-164645429D01*
X128263629Y-164645115D01*
X127992692Y-164644712D01*
X127749200Y-164644206D01*
X127531677Y-164643588D01*
X127338650Y-164642845D01*
X127168646Y-164641967D01*
X127020190Y-164640940D01*
X126891810Y-164639755D01*
X126782031Y-164638399D01*
X126689380Y-164636861D01*
X126612383Y-164635129D01*
X126549566Y-164633193D01*
X126499456Y-164631039D01*
X126460579Y-164628658D01*
X126431462Y-164626036D01*
X126410629Y-164623164D01*
X126396609Y-164620029D01*
X126388966Y-164617158D01*
X126375382Y-164611429D01*
X126362910Y-164607205D01*
X126351502Y-164602984D01*
X126341111Y-164597267D01*
X126331691Y-164588554D01*
X126323192Y-164575344D01*
X126315570Y-164556136D01*
X126308775Y-164529432D01*
X126302762Y-164493729D01*
X126297483Y-164447529D01*
X126292890Y-164389331D01*
X126288936Y-164317634D01*
X126285575Y-164230939D01*
X126282759Y-164127745D01*
X126280440Y-164006552D01*
X126278572Y-163865859D01*
X126278084Y-163811856D01*
X126762296Y-163811856D01*
X128473744Y-163811856D01*
X128440813Y-163761963D01*
X128408053Y-163710692D01*
X128380311Y-163661868D01*
X128357193Y-163612075D01*
X128338303Y-163557897D01*
X128323249Y-163495915D01*
X128311633Y-163422714D01*
X128303064Y-163334877D01*
X128297144Y-163228987D01*
X128293481Y-163101627D01*
X128291679Y-162949380D01*
X128291344Y-162768831D01*
X128292081Y-162556561D01*
X128292499Y-162477754D01*
X128297214Y-161632910D01*
X128832428Y-162361556D01*
X128984054Y-162568264D01*
X129115419Y-162748259D01*
X129227943Y-162903924D01*
X129323043Y-163037646D01*
X129402138Y-163151808D01*
X129466647Y-163248796D01*
X129517988Y-163330993D01*
X129557580Y-163400785D01*
X129586840Y-163460557D01*
X129607188Y-163512692D01*
X129620042Y-163559575D01*
X129626819Y-163603592D01*
X129628940Y-163647126D01*
X129627821Y-163692563D01*
X129627536Y-163698274D01*
X129621643Y-163811932D01*
X131497229Y-163811856D01*
X131357722Y-163671188D01*
X131319865Y-163632714D01*
X131283953Y-163595278D01*
X131248407Y-163556813D01*
X131211653Y-163515257D01*
X131172114Y-163468544D01*
X131128214Y-163414609D01*
X131078377Y-163351389D01*
X131021028Y-163276817D01*
X130954589Y-163188831D01*
X130877485Y-163085364D01*
X130788139Y-162964353D01*
X130684976Y-162823733D01*
X130566420Y-162661439D01*
X130430895Y-162475406D01*
X130276823Y-162263570D01*
X130150538Y-162089803D01*
X129992046Y-161871500D01*
X129853784Y-161680628D01*
X129734501Y-161515373D01*
X129632943Y-161373925D01*
X129547859Y-161254470D01*
X129477995Y-161155197D01*
X129422100Y-161074294D01*
X129378920Y-161009948D01*
X129347203Y-160960346D01*
X129325698Y-160923678D01*
X129313150Y-160898131D01*
X129308308Y-160881892D01*
X129309763Y-160873354D01*
X129327401Y-160850634D01*
X129365534Y-160802542D01*
X129421862Y-160731937D01*
X129494084Y-160641677D01*
X129579899Y-160534620D01*
X129677006Y-160413626D01*
X129783104Y-160281553D01*
X129895891Y-160141259D01*
X130013068Y-159995602D01*
X130132333Y-159847443D01*
X130197933Y-159765999D01*
X131826686Y-159765999D01*
X131894379Y-159888464D01*
X131962071Y-160010928D01*
X131962071Y-163566928D01*
X131894379Y-163689392D01*
X131826686Y-163811856D01*
X132627441Y-163811856D01*
X132818602Y-163811801D01*
X132976499Y-163811550D01*
X133104152Y-163810978D01*
X133204581Y-163809958D01*
X133280807Y-163808364D01*
X133335852Y-163806069D01*
X133372736Y-163802949D01*
X133394479Y-163798876D01*
X133404102Y-163793724D01*
X133404627Y-163787366D01*
X133399074Y-163779678D01*
X133399016Y-163779614D01*
X133376140Y-163746523D01*
X133345849Y-163692718D01*
X133319097Y-163639007D01*
X133268357Y-163530642D01*
X133263182Y-161648321D01*
X133258007Y-159765999D01*
X131826686Y-159765999D01*
X130197933Y-159765999D01*
X130251385Y-159699638D01*
X130367923Y-159555046D01*
X130479646Y-159416527D01*
X130584254Y-159286938D01*
X130679444Y-159169139D01*
X130762917Y-159065987D01*
X130832371Y-158980342D01*
X130885506Y-158915061D01*
X130916715Y-158876999D01*
X131037903Y-158734669D01*
X131154493Y-158606229D01*
X131262397Y-158495885D01*
X131357530Y-158407840D01*
X131425043Y-158353861D01*
X131504873Y-158296428D01*
X129668892Y-158296428D01*
X129669408Y-158404164D01*
X129664276Y-158483371D01*
X129644985Y-158556804D01*
X129615123Y-158626414D01*
X129595712Y-158665740D01*
X129574841Y-158704706D01*
X129550604Y-158745900D01*
X129521094Y-158791907D01*
X129484406Y-158845316D01*
X129438632Y-158908713D01*
X129381865Y-158984684D01*
X129312200Y-159075816D01*
X129227730Y-159184697D01*
X129126547Y-159313913D01*
X129006747Y-159466051D01*
X128866421Y-159643697D01*
X128850571Y-159663741D01*
X128297214Y-160363507D01*
X128291857Y-159588503D01*
X128290779Y-159356367D01*
X128291008Y-159159845D01*
X128292557Y-158998291D01*
X128295437Y-158871055D01*
X128299659Y-158777491D01*
X128305234Y-158716951D01*
X128307107Y-158705467D01*
X128336505Y-158584498D01*
X128375022Y-158475445D01*
X128418974Y-158387762D01*
X128445379Y-158350573D01*
X128490940Y-158296428D01*
X127626470Y-158296428D01*
X127420255Y-158296604D01*
X127247812Y-158297178D01*
X127106627Y-158298216D01*
X126994188Y-158299786D01*
X126907983Y-158301953D01*
X126845498Y-158304787D01*
X126804221Y-158308352D01*
X126781640Y-158312717D01*
X126775241Y-158317948D01*
X126775683Y-158319106D01*
X126794009Y-158346768D01*
X126824604Y-158390614D01*
X126840433Y-158412790D01*
X126856798Y-158434919D01*
X126871508Y-158454708D01*
X126884656Y-158474105D01*
X126896333Y-158495057D01*
X126906632Y-158519511D01*
X126915646Y-158549415D01*
X126923468Y-158586716D01*
X126930191Y-158633362D01*
X126935906Y-158691300D01*
X126940707Y-158762478D01*
X126944685Y-158848843D01*
X126947935Y-158952343D01*
X126950548Y-159074924D01*
X126952617Y-159218536D01*
X126954234Y-159385124D01*
X126955493Y-159576636D01*
X126956485Y-159795021D01*
X126957304Y-160042225D01*
X126958042Y-160320195D01*
X126958791Y-160630880D01*
X126959492Y-160916299D01*
X126960153Y-161234491D01*
X126960497Y-161538076D01*
X126960532Y-161825114D01*
X126960268Y-162093668D01*
X126959715Y-162341797D01*
X126958880Y-162567562D01*
X126957773Y-162769025D01*
X126956404Y-162944245D01*
X126954781Y-163091285D01*
X126952913Y-163208205D01*
X126950811Y-163293066D01*
X126948482Y-163343928D01*
X126948041Y-163349303D01*
X126931992Y-163472612D01*
X126906936Y-163571643D01*
X126868779Y-163658069D01*
X126813428Y-163743564D01*
X126806504Y-163752892D01*
X126762296Y-163811856D01*
X126278084Y-163811856D01*
X126277108Y-163704167D01*
X126275999Y-163519975D01*
X126275199Y-163311783D01*
X126274661Y-163078090D01*
X126274338Y-162817397D01*
X126274183Y-162528203D01*
X126274146Y-162209008D01*
X126274183Y-161858312D01*
X126274245Y-161474613D01*
X126274285Y-161056413D01*
X126274286Y-160973392D01*
X126274309Y-160550788D01*
X126274388Y-160162980D01*
X126274533Y-159808479D01*
X126274756Y-159485796D01*
X126275069Y-159193441D01*
X126275483Y-158929926D01*
X126276009Y-158693761D01*
X126276660Y-158483457D01*
X126277447Y-158297525D01*
X126278381Y-158134474D01*
X126279474Y-157992817D01*
X126280737Y-157871063D01*
X126282183Y-157767724D01*
X126283821Y-157681310D01*
X126285666Y-157610332D01*
X126287726Y-157553300D01*
X126290015Y-157508726D01*
X126292544Y-157475120D01*
X126295324Y-157450992D01*
X126298367Y-157434855D01*
X126301684Y-157425217D01*
X126301807Y-157424977D01*
X126308640Y-157410254D01*
X126314330Y-157396925D01*
X126320626Y-157384921D01*
X126329272Y-157374172D01*
X126342014Y-157364610D01*
X126360600Y-157356166D01*
X126386774Y-157348770D01*
X126422284Y-157342353D01*
X126468875Y-157336847D01*
X126528293Y-157332182D01*
X126602285Y-157328290D01*
X126692597Y-157325101D01*
X126800975Y-157322546D01*
X126929165Y-157320557D01*
X127078913Y-157319064D01*
X127251966Y-157317997D01*
X127450069Y-157317290D01*
X127674969Y-157316871D01*
X127928412Y-157316672D01*
X128212144Y-157316625D01*
X128527911Y-157316659D01*
G04 #@! TA.AperFunction,EtchedComponent*
G36*
X128527911Y-157316659D02*
G01*
X128877460Y-157316706D01*
X129040170Y-157316713D01*
X131644571Y-157316714D01*
X131644571Y-157470237D01*
X131660957Y-157657062D01*
X131710412Y-157829366D01*
X131793380Y-157988174D01*
X131910305Y-158134509D01*
X131949864Y-158174031D01*
X132092170Y-158286137D01*
X132249078Y-158367898D01*
X132415928Y-158419352D01*
X132588061Y-158440536D01*
X132760815Y-158431486D01*
X132929530Y-158392241D01*
X133089546Y-158322837D01*
X133236202Y-158223310D01*
X133302068Y-158163264D01*
X133424808Y-158016042D01*
X133514812Y-157854146D01*
X133571294Y-157679426D01*
X133593471Y-157493734D01*
X133593766Y-157475466D01*
X133594928Y-157316719D01*
X133664700Y-157316716D01*
X133726595Y-157325117D01*
X133783135Y-157345555D01*
X133786872Y-157347666D01*
X133799642Y-157354292D01*
X133811368Y-157359453D01*
X133822094Y-157364650D01*
X133831861Y-157371389D01*
X133840712Y-157381170D01*
X133848689Y-157395499D01*
X133855835Y-157415877D01*
X133862192Y-157443807D01*
X133867802Y-157480794D01*
X133872707Y-157528339D01*
X133876951Y-157587946D01*
X133880576Y-157661118D01*
X133883623Y-157749358D01*
X133886136Y-157854169D01*
X133888156Y-157977054D01*
X133889726Y-158119516D01*
X133890888Y-158283059D01*
X133891686Y-158469185D01*
X133892160Y-158679397D01*
X133892354Y-158915199D01*
X133892310Y-159178093D01*
X133892070Y-159469583D01*
X133891677Y-159791171D01*
X133891173Y-160144361D01*
X133890600Y-160530656D01*
X133890001Y-160951559D01*
X133889932Y-161002839D01*
X133889395Y-161426425D01*
X133888939Y-161815229D01*
X133888516Y-162170752D01*
X133888079Y-162494497D01*
X133887578Y-162787965D01*
X133886965Y-163052660D01*
X133886192Y-163290084D01*
X133885211Y-163501739D01*
X133883974Y-163689128D01*
X133882432Y-163853753D01*
X133880537Y-163997116D01*
X133878241Y-164120719D01*
X133875496Y-164226066D01*
X133872253Y-164314658D01*
X133868464Y-164387999D01*
X133864081Y-164447589D01*
X133859055Y-164494932D01*
X133853339Y-164531530D01*
X133846884Y-164558885D01*
X133839641Y-164578501D01*
X133831563Y-164591878D01*
X133822602Y-164600520D01*
X133812708Y-164605929D01*
X133801835Y-164609607D01*
X133789933Y-164613057D01*
X133776954Y-164617781D01*
X133773783Y-164619219D01*
X133763819Y-164622450D01*
X133747141Y-164625419D01*
X133722293Y-164628136D01*
X133687820Y-164630612D01*
X133642264Y-164632857D01*
X133584170Y-164634882D01*
X133512081Y-164636697D01*
X133424542Y-164638314D01*
X133320095Y-164639742D01*
X133197285Y-164640992D01*
X133054655Y-164642075D01*
X132890749Y-164643001D01*
X132704110Y-164643781D01*
X132493284Y-164644425D01*
X132256812Y-164644945D01*
X131993239Y-164645350D01*
X131701110Y-164645651D01*
X131378966Y-164645859D01*
X131025353Y-164645984D01*
X130638814Y-164646037D01*
X130217892Y-164646028D01*
X130081544Y-164646015D01*
X129651284Y-164645946D01*
X129255836Y-164645833D01*
X128893727Y-164645664D01*
X128563483Y-164645429D01*
X128263629Y-164645115D01*
X127992692Y-164644712D01*
X127749200Y-164644206D01*
X127531677Y-164643588D01*
X127338650Y-164642845D01*
X127168646Y-164641967D01*
X127020190Y-164640940D01*
X126891810Y-164639755D01*
X126782031Y-164638399D01*
X126689380Y-164636861D01*
X126612383Y-164635129D01*
X126549566Y-164633193D01*
X126499456Y-164631039D01*
X126460579Y-164628658D01*
X126431462Y-164626036D01*
X126410629Y-164623164D01*
X126396609Y-164620029D01*
X126388966Y-164617158D01*
X126375382Y-164611429D01*
X126362910Y-164607205D01*
X126351502Y-164602984D01*
X126341111Y-164597267D01*
X126331691Y-164588554D01*
X126323192Y-164575344D01*
X126315570Y-164556136D01*
X126308775Y-164529432D01*
X126302762Y-164493729D01*
X126297483Y-164447529D01*
X126292890Y-164389331D01*
X126288936Y-164317634D01*
X126285575Y-164230939D01*
X126282759Y-164127745D01*
X126280440Y-164006552D01*
X126278572Y-163865859D01*
X126278084Y-163811856D01*
X126762296Y-163811856D01*
X128473744Y-163811856D01*
X128440813Y-163761963D01*
X128408053Y-163710692D01*
X128380311Y-163661868D01*
X128357193Y-163612075D01*
X128338303Y-163557897D01*
X128323249Y-163495915D01*
X128311633Y-163422714D01*
X128303064Y-163334877D01*
X128297144Y-163228987D01*
X128293481Y-163101627D01*
X128291679Y-162949380D01*
X128291344Y-162768831D01*
X128292081Y-162556561D01*
X128292499Y-162477754D01*
X128297214Y-161632910D01*
X128832428Y-162361556D01*
X128984054Y-162568264D01*
X129115419Y-162748259D01*
X129227943Y-162903924D01*
X129323043Y-163037646D01*
X129402138Y-163151808D01*
X129466647Y-163248796D01*
X129517988Y-163330993D01*
X129557580Y-163400785D01*
X129586840Y-163460557D01*
X129607188Y-163512692D01*
X129620042Y-163559575D01*
X129626819Y-163603592D01*
X129628940Y-163647126D01*
X129627821Y-163692563D01*
X129627536Y-163698274D01*
X129621643Y-163811932D01*
X131497229Y-163811856D01*
X131357722Y-163671188D01*
X131319865Y-163632714D01*
X131283953Y-163595278D01*
X131248407Y-163556813D01*
X131211653Y-163515257D01*
X131172114Y-163468544D01*
X131128214Y-163414609D01*
X131078377Y-163351389D01*
X131021028Y-163276817D01*
X130954589Y-163188831D01*
X130877485Y-163085364D01*
X130788139Y-162964353D01*
X130684976Y-162823733D01*
X130566420Y-162661439D01*
X130430895Y-162475406D01*
X130276823Y-162263570D01*
X130150538Y-162089803D01*
X129992046Y-161871500D01*
X129853784Y-161680628D01*
X129734501Y-161515373D01*
X129632943Y-161373925D01*
X129547859Y-161254470D01*
X129477995Y-161155197D01*
X129422100Y-161074294D01*
X129378920Y-161009948D01*
X129347203Y-160960346D01*
X129325698Y-160923678D01*
X129313150Y-160898131D01*
X129308308Y-160881892D01*
X129309763Y-160873354D01*
X129327401Y-160850634D01*
X129365534Y-160802542D01*
X129421862Y-160731937D01*
X129494084Y-160641677D01*
X129579899Y-160534620D01*
X129677006Y-160413626D01*
X129783104Y-160281553D01*
X129895891Y-160141259D01*
X130013068Y-159995602D01*
X130132333Y-159847443D01*
X130197933Y-159765999D01*
X131826686Y-159765999D01*
X131894379Y-159888464D01*
X131962071Y-160010928D01*
X131962071Y-163566928D01*
X131894379Y-163689392D01*
X131826686Y-163811856D01*
X132627441Y-163811856D01*
X132818602Y-163811801D01*
X132976499Y-163811550D01*
X133104152Y-163810978D01*
X133204581Y-163809958D01*
X133280807Y-163808364D01*
X133335852Y-163806069D01*
X133372736Y-163802949D01*
X133394479Y-163798876D01*
X133404102Y-163793724D01*
X133404627Y-163787366D01*
X133399074Y-163779678D01*
X133399016Y-163779614D01*
X133376140Y-163746523D01*
X133345849Y-163692718D01*
X133319097Y-163639007D01*
X133268357Y-163530642D01*
X133263182Y-161648321D01*
X133258007Y-159765999D01*
X131826686Y-159765999D01*
X130197933Y-159765999D01*
X130251385Y-159699638D01*
X130367923Y-159555046D01*
X130479646Y-159416527D01*
X130584254Y-159286938D01*
X130679444Y-159169139D01*
X130762917Y-159065987D01*
X130832371Y-158980342D01*
X130885506Y-158915061D01*
X130916715Y-158876999D01*
X131037903Y-158734669D01*
X131154493Y-158606229D01*
X131262397Y-158495885D01*
X131357530Y-158407840D01*
X131425043Y-158353861D01*
X131504873Y-158296428D01*
X129668892Y-158296428D01*
X129669408Y-158404164D01*
X129664276Y-158483371D01*
X129644985Y-158556804D01*
X129615123Y-158626414D01*
X129595712Y-158665740D01*
X129574841Y-158704706D01*
X129550604Y-158745900D01*
X129521094Y-158791907D01*
X129484406Y-158845316D01*
X129438632Y-158908713D01*
X129381865Y-158984684D01*
X129312200Y-159075816D01*
X129227730Y-159184697D01*
X129126547Y-159313913D01*
X129006747Y-159466051D01*
X128866421Y-159643697D01*
X128850571Y-159663741D01*
X128297214Y-160363507D01*
X128291857Y-159588503D01*
X128290779Y-159356367D01*
X128291008Y-159159845D01*
X128292557Y-158998291D01*
X128295437Y-158871055D01*
X128299659Y-158777491D01*
X128305234Y-158716951D01*
X128307107Y-158705467D01*
X128336505Y-158584498D01*
X128375022Y-158475445D01*
X128418974Y-158387762D01*
X128445379Y-158350573D01*
X128490940Y-158296428D01*
X127626470Y-158296428D01*
X127420255Y-158296604D01*
X127247812Y-158297178D01*
X127106627Y-158298216D01*
X126994188Y-158299786D01*
X126907983Y-158301953D01*
X126845498Y-158304787D01*
X126804221Y-158308352D01*
X126781640Y-158312717D01*
X126775241Y-158317948D01*
X126775683Y-158319106D01*
X126794009Y-158346768D01*
X126824604Y-158390614D01*
X126840433Y-158412790D01*
X126856798Y-158434919D01*
X126871508Y-158454708D01*
X126884656Y-158474105D01*
X126896333Y-158495057D01*
X126906632Y-158519511D01*
X126915646Y-158549415D01*
X126923468Y-158586716D01*
X126930191Y-158633362D01*
X126935906Y-158691300D01*
X126940707Y-158762478D01*
X126944685Y-158848843D01*
X126947935Y-158952343D01*
X126950548Y-159074924D01*
X126952617Y-159218536D01*
X126954234Y-159385124D01*
X126955493Y-159576636D01*
X126956485Y-159795021D01*
X126957304Y-160042225D01*
X126958042Y-160320195D01*
X126958791Y-160630880D01*
X126959492Y-160916299D01*
X126960153Y-161234491D01*
X126960497Y-161538076D01*
X126960532Y-161825114D01*
X126960268Y-162093668D01*
X126959715Y-162341797D01*
X126958880Y-162567562D01*
X126957773Y-162769025D01*
X126956404Y-162944245D01*
X126954781Y-163091285D01*
X126952913Y-163208205D01*
X126950811Y-163293066D01*
X126948482Y-163343928D01*
X126948041Y-163349303D01*
X126931992Y-163472612D01*
X126906936Y-163571643D01*
X126868779Y-163658069D01*
X126813428Y-163743564D01*
X126806504Y-163752892D01*
X126762296Y-163811856D01*
X126278084Y-163811856D01*
X126277108Y-163704167D01*
X126275999Y-163519975D01*
X126275199Y-163311783D01*
X126274661Y-163078090D01*
X126274338Y-162817397D01*
X126274183Y-162528203D01*
X126274146Y-162209008D01*
X126274183Y-161858312D01*
X126274245Y-161474613D01*
X126274285Y-161056413D01*
X126274286Y-160973392D01*
X126274309Y-160550788D01*
X126274388Y-160162980D01*
X126274533Y-159808479D01*
X126274756Y-159485796D01*
X126275069Y-159193441D01*
X126275483Y-158929926D01*
X126276009Y-158693761D01*
X126276660Y-158483457D01*
X126277447Y-158297525D01*
X126278381Y-158134474D01*
X126279474Y-157992817D01*
X126280737Y-157871063D01*
X126282183Y-157767724D01*
X126283821Y-157681310D01*
X126285666Y-157610332D01*
X126287726Y-157553300D01*
X126290015Y-157508726D01*
X126292544Y-157475120D01*
X126295324Y-157450992D01*
X126298367Y-157434855D01*
X126301684Y-157425217D01*
X126301807Y-157424977D01*
X126308640Y-157410254D01*
X126314330Y-157396925D01*
X126320626Y-157384921D01*
X126329272Y-157374172D01*
X126342014Y-157364610D01*
X126360600Y-157356166D01*
X126386774Y-157348770D01*
X126422284Y-157342353D01*
X126468875Y-157336847D01*
X126528293Y-157332182D01*
X126602285Y-157328290D01*
X126692597Y-157325101D01*
X126800975Y-157322546D01*
X126929165Y-157320557D01*
X127078913Y-157319064D01*
X127251966Y-157317997D01*
X127450069Y-157317290D01*
X127674969Y-157316871D01*
X127928412Y-157316672D01*
X128212144Y-157316625D01*
X128527911Y-157316659D01*
G37*
G04 #@! TD.AperFunction*
D11*
X120523000Y-32766000D03*
G04 #@! TA.AperFunction,Conductor*
G36*
X179943039Y-20019685D02*
G01*
X179988794Y-20072489D01*
X180000000Y-20124000D01*
X180000000Y-80561607D01*
X179980315Y-80628646D01*
X179966763Y-80646094D01*
X178014763Y-82743100D01*
X177954678Y-82778758D01*
X177884852Y-82776271D01*
X177827456Y-82736429D01*
X177800712Y-82671880D01*
X177800000Y-82658613D01*
X177800000Y-21590000D01*
X21590000Y-21590000D01*
X21590000Y-177800000D01*
X111687479Y-177800000D01*
X111754518Y-177819685D01*
X111795554Y-177863208D01*
X112893554Y-179815208D01*
X112909265Y-179883288D01*
X112885674Y-179949055D01*
X112830272Y-179991627D01*
X112785479Y-180000000D01*
X20124000Y-180000000D01*
X20056961Y-179980315D01*
X20011206Y-179927511D01*
X20000000Y-179876000D01*
X20000000Y-20124000D01*
X20019685Y-20056961D01*
X20072489Y-20011206D01*
X20124000Y-20000000D01*
X179876000Y-20000000D01*
X179943039Y-20019685D01*
G37*
G04 #@! TD.AperFunction*
G04 #@! TA.AperFunction,Conductor*
G36*
X177994519Y-135967890D02*
G01*
X179946521Y-137317560D01*
X179990468Y-137371878D01*
X180000000Y-137419554D01*
X180000000Y-179876000D01*
X179980315Y-179943039D01*
X179927511Y-179988794D01*
X179876000Y-180000000D01*
X120917256Y-180000000D01*
X120850217Y-179980315D01*
X120804462Y-179927511D01*
X120794518Y-179858353D01*
X120823543Y-179794797D01*
X120837383Y-179781151D01*
X123155383Y-177829151D01*
X123219342Y-177801025D01*
X123235256Y-177800000D01*
X177800000Y-177800000D01*
X177800000Y-136069885D01*
X177819685Y-136002846D01*
X177872489Y-135957091D01*
X177941647Y-135947147D01*
X177994519Y-135967890D01*
G37*
G04 #@! TD.AperFunction*
M02*
