G04 #@! TF.GenerationSoftware,KiCad,Pcbnew,7.0.10-1.fc39*
G04 #@! TF.CreationDate,2024-01-08T15:07:07-05:00*
G04 #@! TF.ProjectId,SYSMATT-WS2812-MATRIX-CARRIER-SPACER-PLATE-V2,5359534d-4154-4542-9d57-53323831322d,rev?*
G04 #@! TF.SameCoordinates,Original*
G04 #@! TF.FileFunction,Legend,Bot*
G04 #@! TF.FilePolarity,Positive*
%FSLAX46Y46*%
G04 Gerber Fmt 4.6, Leading zero omitted, Abs format (unit mm)*
G04 Created by KiCad (PCBNEW 7.0.10-1.fc39) date 2024-01-08 15:07:07*
%MOMM*%
%LPD*%
G01*
G04 APERTURE LIST*
%ADD10C,1.000000*%
%ADD11C,0.150000*%
G04 APERTURE END LIST*
D10*
G36*
X82668702Y-27168328D02*
G01*
X82727398Y-27169595D01*
X82785738Y-27171706D01*
X82843723Y-27174661D01*
X82901353Y-27178460D01*
X82958627Y-27183104D01*
X83015546Y-27188593D01*
X83072109Y-27194925D01*
X83128317Y-27202102D01*
X83184170Y-27210124D01*
X83239667Y-27218989D01*
X83294809Y-27228700D01*
X83349595Y-27239254D01*
X83404027Y-27250653D01*
X83458102Y-27262896D01*
X83511823Y-27275983D01*
X83565188Y-27289915D01*
X83618197Y-27304692D01*
X83670851Y-27320312D01*
X83723150Y-27336777D01*
X83775093Y-27354086D01*
X83826681Y-27372240D01*
X83877914Y-27391238D01*
X83928791Y-27411080D01*
X83979313Y-27431767D01*
X84029479Y-27453298D01*
X84079290Y-27475673D01*
X84128746Y-27498893D01*
X84177846Y-27522957D01*
X84226591Y-27547866D01*
X84274980Y-27573619D01*
X84323014Y-27600216D01*
X84370547Y-27627580D01*
X84417434Y-27655633D01*
X84463674Y-27684376D01*
X84509268Y-27713808D01*
X84554216Y-27743929D01*
X84598517Y-27774740D01*
X84642172Y-27806240D01*
X84685181Y-27838429D01*
X84727543Y-27871308D01*
X84769258Y-27904875D01*
X84810328Y-27939133D01*
X84850750Y-27974079D01*
X84890527Y-28009715D01*
X84929657Y-28046040D01*
X84968141Y-28083055D01*
X85005978Y-28120758D01*
X85043169Y-28159152D01*
X85079714Y-28198234D01*
X85115612Y-28238006D01*
X85150864Y-28278467D01*
X85185469Y-28319617D01*
X85219428Y-28361457D01*
X85252741Y-28403986D01*
X85285407Y-28447204D01*
X85317427Y-28491112D01*
X85348801Y-28535709D01*
X85379528Y-28580995D01*
X85409609Y-28626971D01*
X85439043Y-28673636D01*
X85467831Y-28720990D01*
X85495973Y-28769034D01*
X85523468Y-28817766D01*
X85550215Y-28866950D01*
X85576114Y-28916499D01*
X85601163Y-28966412D01*
X85625363Y-29016691D01*
X85648714Y-29067334D01*
X85671216Y-29118343D01*
X85692868Y-29169716D01*
X85713672Y-29221454D01*
X85733626Y-29273557D01*
X85752732Y-29326025D01*
X85770988Y-29378858D01*
X85788395Y-29432056D01*
X85804953Y-29485619D01*
X85820662Y-29539547D01*
X85835521Y-29593840D01*
X85849532Y-29648497D01*
X85862693Y-29703520D01*
X85875006Y-29758908D01*
X85886469Y-29814660D01*
X85897083Y-29870777D01*
X85906848Y-29927260D01*
X85915764Y-29984107D01*
X85923830Y-30041319D01*
X85931048Y-30098896D01*
X85937416Y-30156839D01*
X85942936Y-30215146D01*
X85947606Y-30273818D01*
X85951427Y-30332854D01*
X85954399Y-30392256D01*
X85956522Y-30452023D01*
X85957795Y-30512155D01*
X85958220Y-30572651D01*
X85957884Y-30622393D01*
X85956875Y-30671784D01*
X85952839Y-30769515D01*
X85946113Y-30865843D01*
X85936696Y-30960768D01*
X85924589Y-31054291D01*
X85909791Y-31146412D01*
X85892303Y-31237130D01*
X85872124Y-31326446D01*
X85849255Y-31414359D01*
X85823696Y-31500870D01*
X85795446Y-31585978D01*
X85764505Y-31669683D01*
X85730874Y-31751986D01*
X85694552Y-31832887D01*
X85655540Y-31912385D01*
X85613838Y-31990481D01*
X85569578Y-32066735D01*
X85523201Y-32140709D01*
X85474705Y-32212403D01*
X85424091Y-32281817D01*
X85371360Y-32348950D01*
X85316510Y-32413803D01*
X85259542Y-32476376D01*
X85200457Y-32536669D01*
X85139253Y-32594682D01*
X85075931Y-32650414D01*
X85010491Y-32703866D01*
X84942933Y-32755037D01*
X84873257Y-32803929D01*
X84801463Y-32850540D01*
X84727551Y-32894871D01*
X84651521Y-32936922D01*
X84612787Y-32957058D01*
X84534180Y-32995412D01*
X84454057Y-33031208D01*
X84372417Y-33064448D01*
X84289260Y-33095131D01*
X84204586Y-33123257D01*
X84118395Y-33148827D01*
X84030687Y-33171839D01*
X83941462Y-33192294D01*
X83850720Y-33210193D01*
X83758461Y-33225534D01*
X83664685Y-33238319D01*
X83569393Y-33248546D01*
X83472583Y-33256217D01*
X83423609Y-33259094D01*
X83374256Y-33261331D01*
X83324524Y-33262929D01*
X83274412Y-33263888D01*
X83223921Y-33264207D01*
X83151526Y-33263664D01*
X83079360Y-33262032D01*
X83007423Y-33259313D01*
X82935715Y-33255506D01*
X82864236Y-33250612D01*
X82792985Y-33244630D01*
X82721964Y-33237560D01*
X82651172Y-33229403D01*
X82580609Y-33220158D01*
X82510274Y-33209825D01*
X82440169Y-33198405D01*
X82370293Y-33185897D01*
X82300645Y-33172302D01*
X82231227Y-33157618D01*
X82162037Y-33141848D01*
X82093077Y-33124989D01*
X82023983Y-33106866D01*
X81954698Y-33087303D01*
X81885222Y-33066299D01*
X81815556Y-33043855D01*
X81745699Y-33019969D01*
X81675651Y-32994643D01*
X81605412Y-32967877D01*
X81534982Y-32939670D01*
X81464362Y-32910022D01*
X81393550Y-32878933D01*
X81322548Y-32846404D01*
X81251355Y-32812435D01*
X81179971Y-32777024D01*
X81108397Y-32740173D01*
X81036631Y-32701881D01*
X80964675Y-32662149D01*
X81177166Y-32248157D01*
X81240513Y-32280239D01*
X81303853Y-32311303D01*
X81367186Y-32341348D01*
X81430511Y-32370374D01*
X81493829Y-32398382D01*
X81557140Y-32425372D01*
X81620444Y-32451343D01*
X81683741Y-32476295D01*
X81747031Y-32500229D01*
X81810313Y-32523145D01*
X81873589Y-32545042D01*
X81936857Y-32565921D01*
X82000118Y-32585781D01*
X82063372Y-32604623D01*
X82126619Y-32622446D01*
X82189858Y-32639251D01*
X82253091Y-32655037D01*
X82316316Y-32669805D01*
X82379534Y-32683555D01*
X82442745Y-32696286D01*
X82505949Y-32707998D01*
X82569145Y-32718692D01*
X82632335Y-32728368D01*
X82695517Y-32737025D01*
X82758692Y-32744663D01*
X82821860Y-32751283D01*
X82885021Y-32756885D01*
X82948175Y-32761468D01*
X83011322Y-32765033D01*
X83074461Y-32767579D01*
X83137593Y-32769106D01*
X83200718Y-32769616D01*
X83283246Y-32768604D01*
X83364437Y-32765570D01*
X83444293Y-32760514D01*
X83522814Y-32753435D01*
X83599998Y-32744333D01*
X83675847Y-32733208D01*
X83750360Y-32720061D01*
X83823538Y-32704891D01*
X83895379Y-32687699D01*
X83965885Y-32668484D01*
X84035056Y-32647246D01*
X84102890Y-32623986D01*
X84169389Y-32598703D01*
X84234552Y-32571397D01*
X84298380Y-32542069D01*
X84360872Y-32510718D01*
X84421832Y-32477392D01*
X84481066Y-32442139D01*
X84538573Y-32404959D01*
X84594353Y-32365852D01*
X84648406Y-32324817D01*
X84700732Y-32281855D01*
X84751331Y-32236966D01*
X84800204Y-32190150D01*
X84847349Y-32141406D01*
X84892768Y-32090735D01*
X84936460Y-32038137D01*
X84978425Y-31983612D01*
X85018663Y-31927159D01*
X85057174Y-31868779D01*
X85093958Y-31808472D01*
X85129016Y-31746238D01*
X85161993Y-31682406D01*
X85192843Y-31617305D01*
X85221565Y-31550935D01*
X85248160Y-31483295D01*
X85272627Y-31414388D01*
X85294967Y-31344211D01*
X85315179Y-31272765D01*
X85333264Y-31200050D01*
X85349221Y-31126066D01*
X85363050Y-31050814D01*
X85374752Y-30974292D01*
X85384326Y-30896502D01*
X85391772Y-30817443D01*
X85397091Y-30737114D01*
X85400283Y-30655517D01*
X85401346Y-30572651D01*
X85400996Y-30520146D01*
X85399944Y-30467961D01*
X85398191Y-30416095D01*
X85395736Y-30364549D01*
X85392581Y-30313322D01*
X85388724Y-30262415D01*
X85384166Y-30211828D01*
X85378907Y-30161560D01*
X85372946Y-30111612D01*
X85366284Y-30061983D01*
X85358921Y-30012674D01*
X85350857Y-29963685D01*
X85342091Y-29915015D01*
X85332624Y-29866665D01*
X85322456Y-29818635D01*
X85311587Y-29770924D01*
X85287745Y-29676461D01*
X85261098Y-29583277D01*
X85231645Y-29491371D01*
X85199388Y-29400744D01*
X85164326Y-29311395D01*
X85126459Y-29223324D01*
X85085786Y-29136532D01*
X85042309Y-29051018D01*
X84996380Y-28967394D01*
X84948352Y-28886269D01*
X84898225Y-28807644D01*
X84845999Y-28731518D01*
X84791674Y-28657892D01*
X84735250Y-28586766D01*
X84676727Y-28518140D01*
X84616106Y-28452013D01*
X84553385Y-28388386D01*
X84488565Y-28327258D01*
X84421646Y-28268630D01*
X84352629Y-28212502D01*
X84281512Y-28158874D01*
X84208296Y-28107745D01*
X84132982Y-28059116D01*
X84055568Y-28012986D01*
X83976189Y-27969361D01*
X83895284Y-27928551D01*
X83812852Y-27890555D01*
X83728893Y-27855373D01*
X83643408Y-27823006D01*
X83556397Y-27793454D01*
X83467859Y-27766716D01*
X83377794Y-27742793D01*
X83286203Y-27721684D01*
X83193086Y-27703389D01*
X83098442Y-27687910D01*
X83002271Y-27675244D01*
X82953613Y-27669967D01*
X82904574Y-27665393D01*
X82855153Y-27661523D01*
X82805350Y-27658357D01*
X82755166Y-27655894D01*
X82704600Y-27654135D01*
X82653652Y-27653080D01*
X82602323Y-27652728D01*
X82520979Y-27653716D01*
X82440894Y-27656678D01*
X82362068Y-27661615D01*
X82284502Y-27668528D01*
X82208195Y-27677415D01*
X82133148Y-27688277D01*
X82059360Y-27701114D01*
X81986831Y-27715926D01*
X81915562Y-27732713D01*
X81845552Y-27751475D01*
X81776802Y-27772211D01*
X81709310Y-27794923D01*
X81643079Y-27819610D01*
X81578106Y-27846271D01*
X81514393Y-27874908D01*
X81451939Y-27905519D01*
X81391022Y-27937948D01*
X81331917Y-27972037D01*
X81274625Y-28007787D01*
X81219146Y-28045196D01*
X81165479Y-28084265D01*
X81113625Y-28124994D01*
X81063584Y-28167384D01*
X81015355Y-28211434D01*
X80968940Y-28257143D01*
X80924337Y-28304513D01*
X80881547Y-28353543D01*
X80840569Y-28404233D01*
X80801404Y-28456583D01*
X80764052Y-28510593D01*
X80728513Y-28566263D01*
X80694787Y-28623593D01*
X80662992Y-28682298D01*
X80633249Y-28742089D01*
X80605557Y-28802969D01*
X80579916Y-28864936D01*
X80556327Y-28927991D01*
X80534789Y-28992133D01*
X80515302Y-29057363D01*
X80497866Y-29123681D01*
X80482481Y-29191086D01*
X80469148Y-29259579D01*
X80457866Y-29329159D01*
X80448636Y-29399828D01*
X80441456Y-29471584D01*
X80436328Y-29544427D01*
X80433251Y-29618358D01*
X80432226Y-29693377D01*
X80432798Y-29753660D01*
X80434515Y-29813304D01*
X80437378Y-29872309D01*
X80441385Y-29930674D01*
X80446537Y-29988400D01*
X80452834Y-30045487D01*
X80460275Y-30101935D01*
X80468862Y-30157744D01*
X80478594Y-30212913D01*
X80489470Y-30267443D01*
X80501491Y-30321334D01*
X80514658Y-30374586D01*
X80528969Y-30427198D01*
X80544425Y-30479171D01*
X80561026Y-30530505D01*
X80578771Y-30581200D01*
X80587958Y-30606229D01*
X80606953Y-30655335D01*
X80626779Y-30703172D01*
X80647435Y-30749740D01*
X80668921Y-30795040D01*
X80691236Y-30839070D01*
X80726266Y-30902737D01*
X80763164Y-30963548D01*
X80801929Y-31021505D01*
X80842562Y-31076606D01*
X80885062Y-31128852D01*
X80929430Y-31178244D01*
X80975666Y-31224780D01*
X81007055Y-31253912D01*
X81054496Y-31294087D01*
X81102367Y-31330033D01*
X81150667Y-31361750D01*
X81199396Y-31389238D01*
X81248555Y-31412497D01*
X81298143Y-31431527D01*
X81348160Y-31446329D01*
X81398607Y-31456901D01*
X81449483Y-31463244D01*
X81500788Y-31465359D01*
X81552308Y-31460856D01*
X81600622Y-31447346D01*
X81645731Y-31424830D01*
X81687634Y-31393307D01*
X81722896Y-31350488D01*
X81745486Y-31302879D01*
X81758710Y-31254536D01*
X81766266Y-31199238D01*
X81768234Y-31147843D01*
X81767738Y-31117132D01*
X81765133Y-31065805D01*
X81760296Y-31008167D01*
X81753226Y-30944218D01*
X81743924Y-30873957D01*
X81736482Y-30823611D01*
X81728048Y-30770459D01*
X81718622Y-30714503D01*
X81708204Y-30655742D01*
X81696793Y-30594175D01*
X81684390Y-30529804D01*
X81670995Y-30462628D01*
X81656607Y-30392646D01*
X81641228Y-30319860D01*
X81499241Y-29703147D01*
X82132156Y-29703147D01*
X82132961Y-29743329D01*
X82136539Y-29800812D01*
X82142979Y-29862760D01*
X82149687Y-29912151D01*
X82158005Y-29964054D01*
X82167934Y-30018468D01*
X82179472Y-30075394D01*
X82192620Y-30134832D01*
X82207379Y-30196781D01*
X82223747Y-30261242D01*
X82235348Y-30304757D01*
X82253896Y-30368921D01*
X82273817Y-30431754D01*
X82295112Y-30493256D01*
X82317780Y-30553427D01*
X82341823Y-30612267D01*
X82367240Y-30669776D01*
X82394030Y-30725954D01*
X82422194Y-30780802D01*
X82451732Y-30834318D01*
X82482644Y-30886503D01*
X82503892Y-30920196D01*
X82536442Y-30968858D01*
X82569808Y-31015265D01*
X82603991Y-31059418D01*
X82638988Y-31101318D01*
X82674802Y-31140963D01*
X82711431Y-31178354D01*
X82748876Y-31213492D01*
X82787137Y-31246375D01*
X82826213Y-31277004D01*
X82866106Y-31305380D01*
X82919744Y-31339440D01*
X82973801Y-31368959D01*
X83028279Y-31393937D01*
X83083176Y-31414373D01*
X83138494Y-31430268D01*
X83194231Y-31441622D01*
X83250387Y-31448434D01*
X83306964Y-31450704D01*
X83349172Y-31449817D01*
X83409908Y-31445159D01*
X83467554Y-31436508D01*
X83522108Y-31423864D01*
X83573570Y-31407227D01*
X83621942Y-31386598D01*
X83667222Y-31361975D01*
X83709411Y-31333360D01*
X83748509Y-31300753D01*
X83784516Y-31264152D01*
X83817431Y-31223558D01*
X83837543Y-31194364D01*
X83865278Y-31148139D01*
X83890094Y-31098995D01*
X83911990Y-31046931D01*
X83930966Y-30991948D01*
X83947023Y-30934045D01*
X83960161Y-30873223D01*
X83970379Y-30809481D01*
X83977678Y-30742820D01*
X83982057Y-30673239D01*
X83983517Y-30600739D01*
X83982963Y-30548623D01*
X83981303Y-30496688D01*
X83978536Y-30444934D01*
X83974663Y-30393362D01*
X83969683Y-30341971D01*
X83963596Y-30290761D01*
X83956402Y-30239732D01*
X83948101Y-30188885D01*
X83938694Y-30138219D01*
X83928180Y-30087734D01*
X83916560Y-30037430D01*
X83903832Y-29987308D01*
X83889998Y-29937367D01*
X83875058Y-29887607D01*
X83859010Y-29838029D01*
X83841856Y-29788632D01*
X83823552Y-29739874D01*
X83804361Y-29692518D01*
X83784282Y-29646565D01*
X83763316Y-29602015D01*
X83730204Y-29537819D01*
X83695095Y-29476778D01*
X83657990Y-29418894D01*
X83618889Y-29364164D01*
X83577791Y-29312591D01*
X83534697Y-29264173D01*
X83489606Y-29218910D01*
X83442519Y-29176803D01*
X83410204Y-29150628D01*
X83360767Y-29114532D01*
X83310170Y-29082236D01*
X83258413Y-29053739D01*
X83205498Y-29029041D01*
X83151424Y-29008143D01*
X83096190Y-28991045D01*
X83039797Y-28977747D01*
X82982245Y-28968248D01*
X82923534Y-28962548D01*
X82863663Y-28960648D01*
X82823826Y-28961459D01*
X82765805Y-28965717D01*
X82709866Y-28973624D01*
X82656010Y-28985180D01*
X82604236Y-29000386D01*
X82554544Y-29019241D01*
X82506935Y-29041745D01*
X82461408Y-29067898D01*
X82417963Y-29097701D01*
X82376600Y-29131153D01*
X82337320Y-29168255D01*
X82312476Y-29194530D01*
X82278215Y-29235732D01*
X82247561Y-29279080D01*
X82220513Y-29324575D01*
X82197071Y-29372217D01*
X82177236Y-29422005D01*
X82161007Y-29473940D01*
X82148385Y-29528022D01*
X82139369Y-29584250D01*
X82133959Y-29642625D01*
X82132156Y-29703147D01*
X81499241Y-29703147D01*
X81239448Y-28574745D01*
X81775561Y-28574745D01*
X81908674Y-29093761D01*
X81929434Y-29093761D01*
X81960742Y-29021447D01*
X81995437Y-28953798D01*
X82033519Y-28890815D01*
X82074988Y-28832497D01*
X82119843Y-28778845D01*
X82168086Y-28729858D01*
X82219716Y-28685537D01*
X82274733Y-28645881D01*
X82333136Y-28610890D01*
X82394927Y-28580565D01*
X82460104Y-28554905D01*
X82528669Y-28533910D01*
X82600620Y-28517581D01*
X82675959Y-28505918D01*
X82754684Y-28498920D01*
X82836796Y-28496587D01*
X82897337Y-28497684D01*
X82957143Y-28500976D01*
X83016215Y-28506462D01*
X83074552Y-28514142D01*
X83132154Y-28524017D01*
X83189021Y-28536086D01*
X83245154Y-28550349D01*
X83300553Y-28566807D01*
X83355216Y-28585459D01*
X83409145Y-28606306D01*
X83462340Y-28629346D01*
X83514799Y-28654582D01*
X83566524Y-28682011D01*
X83617515Y-28711635D01*
X83667771Y-28743454D01*
X83717292Y-28777466D01*
X83765778Y-28813406D01*
X83812928Y-28851006D01*
X83858743Y-28890266D01*
X83903222Y-28931187D01*
X83946365Y-28973767D01*
X83988172Y-29018007D01*
X84028644Y-29063908D01*
X84067780Y-29111468D01*
X84105581Y-29160689D01*
X84142045Y-29211570D01*
X84177174Y-29264111D01*
X84210968Y-29318312D01*
X84243425Y-29374173D01*
X84274547Y-29431694D01*
X84304333Y-29490875D01*
X84332784Y-29551716D01*
X84359550Y-29613659D01*
X84384590Y-29676146D01*
X84407903Y-29739177D01*
X84429489Y-29802752D01*
X84449348Y-29866871D01*
X84467480Y-29931533D01*
X84483885Y-29996739D01*
X84498564Y-30062489D01*
X84511515Y-30128783D01*
X84522740Y-30195620D01*
X84532238Y-30263002D01*
X84540009Y-30330927D01*
X84546053Y-30399396D01*
X84550370Y-30468409D01*
X84552960Y-30537966D01*
X84553824Y-30608066D01*
X84552664Y-30685447D01*
X84549187Y-30760661D01*
X84543391Y-30833710D01*
X84535276Y-30904593D01*
X84524844Y-30973310D01*
X84512092Y-31039861D01*
X84497023Y-31104247D01*
X84479635Y-31166467D01*
X84459928Y-31226521D01*
X84437904Y-31284409D01*
X84413561Y-31340132D01*
X84386899Y-31393689D01*
X84357919Y-31445080D01*
X84326621Y-31494305D01*
X84293004Y-31541365D01*
X84257069Y-31586259D01*
X84218882Y-31628553D01*
X84178815Y-31668119D01*
X84136870Y-31704955D01*
X84093044Y-31739064D01*
X84047339Y-31770443D01*
X83999755Y-31799094D01*
X83950291Y-31825016D01*
X83898948Y-31848210D01*
X83845725Y-31868674D01*
X83790622Y-31886411D01*
X83733640Y-31901418D01*
X83674778Y-31913697D01*
X83614037Y-31923247D01*
X83551417Y-31930069D01*
X83486917Y-31934162D01*
X83420537Y-31935526D01*
X83376330Y-31934630D01*
X83310252Y-31929921D01*
X83244453Y-31921177D01*
X83178933Y-31908397D01*
X83113692Y-31891582D01*
X83048731Y-31870730D01*
X82984048Y-31845843D01*
X82919645Y-31816921D01*
X82855520Y-31783962D01*
X82812926Y-31759748D01*
X82770455Y-31733740D01*
X82728108Y-31705938D01*
X82686473Y-31676581D01*
X82646134Y-31646213D01*
X82607094Y-31614834D01*
X82569351Y-31582443D01*
X82532905Y-31549041D01*
X82497757Y-31514627D01*
X82463906Y-31479202D01*
X82431353Y-31442766D01*
X82384957Y-31386216D01*
X82341480Y-31327390D01*
X82314117Y-31286909D01*
X82288051Y-31245416D01*
X82263284Y-31202912D01*
X82239813Y-31159397D01*
X82217641Y-31114870D01*
X82196880Y-31114870D01*
X82200590Y-31134319D01*
X82208700Y-31188282D01*
X82213667Y-31238003D01*
X82216647Y-31290062D01*
X82217641Y-31344459D01*
X82217475Y-31361742D01*
X82214988Y-31412160D01*
X82207032Y-31476045D01*
X82193770Y-31536113D01*
X82175204Y-31592365D01*
X82151333Y-31644801D01*
X82122157Y-31693421D01*
X82087677Y-31738224D01*
X82047892Y-31779211D01*
X82037140Y-31788828D01*
X81991268Y-31824243D01*
X81940816Y-31854774D01*
X81885785Y-31880419D01*
X81826175Y-31901180D01*
X81778462Y-31913545D01*
X81728172Y-31923162D01*
X81675307Y-31930031D01*
X81619866Y-31934153D01*
X81561849Y-31935526D01*
X81506222Y-31934386D01*
X81451081Y-31930966D01*
X81396427Y-31925265D01*
X81342259Y-31917284D01*
X81288578Y-31907023D01*
X81235384Y-31894482D01*
X81182676Y-31879661D01*
X81130455Y-31862559D01*
X81078720Y-31843177D01*
X81027472Y-31821515D01*
X80976711Y-31797572D01*
X80926436Y-31771349D01*
X80876647Y-31742846D01*
X80827346Y-31712063D01*
X80778530Y-31679000D01*
X80730202Y-31643656D01*
X80682770Y-31606290D01*
X80636645Y-31567159D01*
X80591828Y-31526262D01*
X80548317Y-31483601D01*
X80506114Y-31439174D01*
X80465217Y-31392983D01*
X80425628Y-31345026D01*
X80387346Y-31295305D01*
X80350371Y-31243818D01*
X80314703Y-31190567D01*
X80280342Y-31135550D01*
X80247288Y-31078768D01*
X80215541Y-31020222D01*
X80185101Y-30959910D01*
X80155969Y-30897833D01*
X80128143Y-30833991D01*
X80101672Y-30768685D01*
X80076910Y-30702520D01*
X80053854Y-30635496D01*
X80032507Y-30567614D01*
X80012867Y-30498873D01*
X79994935Y-30429273D01*
X79978711Y-30358815D01*
X79964195Y-30287498D01*
X79951387Y-30215322D01*
X79940286Y-30142288D01*
X79930893Y-30068395D01*
X79923208Y-29993643D01*
X79917231Y-29918033D01*
X79912961Y-29841564D01*
X79910400Y-29764236D01*
X79909546Y-29686050D01*
X79910801Y-29592727D01*
X79914564Y-29500826D01*
X79920837Y-29410346D01*
X79929620Y-29321288D01*
X79940911Y-29233652D01*
X79954712Y-29147437D01*
X79971022Y-29062644D01*
X79989841Y-28979272D01*
X80011169Y-28897322D01*
X80035007Y-28816793D01*
X80061353Y-28737686D01*
X80090209Y-28660001D01*
X80121574Y-28583737D01*
X80155449Y-28508895D01*
X80191832Y-28435474D01*
X80230725Y-28363475D01*
X80272008Y-28293193D01*
X80315561Y-28224924D01*
X80361386Y-28158669D01*
X80409480Y-28094426D01*
X80459846Y-28032197D01*
X80512482Y-27971980D01*
X80567389Y-27913777D01*
X80624567Y-27857587D01*
X80684015Y-27803410D01*
X80745734Y-27751246D01*
X80809724Y-27701095D01*
X80875984Y-27652957D01*
X80944515Y-27606832D01*
X81015317Y-27562721D01*
X81088390Y-27520622D01*
X81163733Y-27480537D01*
X81240937Y-27442679D01*
X81319896Y-27407264D01*
X81400610Y-27374291D01*
X81483080Y-27343761D01*
X81567306Y-27315673D01*
X81653287Y-27290027D01*
X81741024Y-27266824D01*
X81830516Y-27246064D01*
X81921764Y-27227745D01*
X82014767Y-27211870D01*
X82109525Y-27198436D01*
X82206039Y-27187445D01*
X82254955Y-27182866D01*
X82304309Y-27178897D01*
X82354102Y-27175539D01*
X82404334Y-27172791D01*
X82455005Y-27170654D01*
X82506115Y-27169127D01*
X82557663Y-27168211D01*
X82609651Y-27167906D01*
X82668702Y-27168328D01*
G37*
G36*
X75118722Y-30779036D02*
G01*
X75120783Y-30866878D01*
X75126966Y-30952105D01*
X75137270Y-31034719D01*
X75151695Y-31114718D01*
X75170242Y-31192103D01*
X75192911Y-31266873D01*
X75219702Y-31339030D01*
X75250614Y-31408572D01*
X75285647Y-31475501D01*
X75324802Y-31539815D01*
X75368079Y-31601515D01*
X75415478Y-31660601D01*
X75466997Y-31717072D01*
X75522639Y-31770930D01*
X75582402Y-31822173D01*
X75646287Y-31870802D01*
X75714012Y-31916497D01*
X75785601Y-31959245D01*
X75861054Y-31999044D01*
X75940371Y-32035895D01*
X76023552Y-32069798D01*
X76110596Y-32100753D01*
X76201505Y-32128760D01*
X76296278Y-32153818D01*
X76345114Y-32165242D01*
X76394915Y-32175929D01*
X76445683Y-32185879D01*
X76497416Y-32195092D01*
X76550116Y-32203567D01*
X76603781Y-32211306D01*
X76658412Y-32218308D01*
X76714010Y-32224573D01*
X76770573Y-32230100D01*
X76828103Y-32234891D01*
X76886598Y-32238944D01*
X76946060Y-32242261D01*
X77006487Y-32244841D01*
X77067881Y-32246683D01*
X77130240Y-32247789D01*
X77193565Y-32248157D01*
X77251333Y-32247836D01*
X77308317Y-32246874D01*
X77364515Y-32245270D01*
X77419929Y-32243024D01*
X77474558Y-32240137D01*
X77528402Y-32236608D01*
X77581462Y-32232438D01*
X77633737Y-32227626D01*
X77685227Y-32222172D01*
X77735932Y-32216076D01*
X77785853Y-32209340D01*
X77834989Y-32201961D01*
X77883340Y-32193941D01*
X77977689Y-32175976D01*
X78068898Y-32155444D01*
X78156969Y-32132346D01*
X78241900Y-32106681D01*
X78323693Y-32078450D01*
X78402347Y-32047653D01*
X78477862Y-32014289D01*
X78550238Y-31978358D01*
X78619475Y-31939861D01*
X78652916Y-31919651D01*
X78717541Y-31877266D01*
X78779217Y-31832238D01*
X78837945Y-31784568D01*
X78893725Y-31734255D01*
X78946556Y-31681299D01*
X78996440Y-31625700D01*
X79043376Y-31567459D01*
X79087363Y-31506575D01*
X79128403Y-31443048D01*
X79166494Y-31376878D01*
X79201638Y-31308066D01*
X79233833Y-31236610D01*
X79263080Y-31162512D01*
X79289379Y-31085771D01*
X79312730Y-31006387D01*
X79333133Y-30924361D01*
X78353719Y-30763161D01*
X78333290Y-30832766D01*
X78309555Y-30898701D01*
X78282514Y-30960965D01*
X78252167Y-31019558D01*
X78218515Y-31074481D01*
X78181556Y-31125733D01*
X78141292Y-31173313D01*
X78097722Y-31217223D01*
X78050846Y-31257463D01*
X78000664Y-31294031D01*
X77965373Y-31316371D01*
X77909370Y-31347143D01*
X77849439Y-31374889D01*
X77785579Y-31399608D01*
X77717791Y-31421300D01*
X77670416Y-31434080D01*
X77621296Y-31445514D01*
X77570429Y-31455603D01*
X77517817Y-31464348D01*
X77463459Y-31471746D01*
X77407354Y-31477800D01*
X77349504Y-31482508D01*
X77289908Y-31485871D01*
X77228566Y-31487889D01*
X77165478Y-31488562D01*
X77100187Y-31487926D01*
X77036969Y-31486019D01*
X76975823Y-31482841D01*
X76916751Y-31478392D01*
X76859751Y-31472671D01*
X76804823Y-31465679D01*
X76751969Y-31457415D01*
X76701187Y-31447880D01*
X76652478Y-31437074D01*
X76561278Y-31411648D01*
X76478369Y-31381137D01*
X76403751Y-31345540D01*
X76337424Y-31304859D01*
X76279388Y-31259092D01*
X76229642Y-31208240D01*
X76188188Y-31152302D01*
X76155024Y-31091280D01*
X76130151Y-31025172D01*
X76113570Y-30953979D01*
X76105279Y-30877701D01*
X76104242Y-30837655D01*
X76106150Y-30786898D01*
X76113902Y-30726672D01*
X76127617Y-30670024D01*
X76147295Y-30616954D01*
X76172936Y-30567461D01*
X76204539Y-30521546D01*
X76226364Y-30495715D01*
X76266942Y-30454839D01*
X76312350Y-30416169D01*
X76352154Y-30386822D01*
X76395049Y-30358886D01*
X76441035Y-30332363D01*
X76490113Y-30307252D01*
X76542281Y-30283553D01*
X76569525Y-30272233D01*
X76631158Y-30249068D01*
X76685748Y-30230943D01*
X76747507Y-30212174D01*
X76816437Y-30192761D01*
X76866373Y-30179461D01*
X76919496Y-30165875D01*
X76975805Y-30152003D01*
X77035301Y-30137844D01*
X77097984Y-30123399D01*
X77163853Y-30108669D01*
X77232909Y-30093651D01*
X77305152Y-30078348D01*
X77380581Y-30062759D01*
X77419490Y-30054856D01*
X77485984Y-30039028D01*
X77549912Y-30023601D01*
X77611273Y-30008574D01*
X77670068Y-29993948D01*
X77726296Y-29979723D01*
X77779958Y-29965899D01*
X77831054Y-29952475D01*
X77879583Y-29939452D01*
X77947564Y-29920668D01*
X78009771Y-29902787D01*
X78066203Y-29885807D01*
X78116861Y-29869728D01*
X78175422Y-29849692D01*
X78227915Y-29829733D01*
X78279149Y-29808934D01*
X78329123Y-29787296D01*
X78377838Y-29764818D01*
X78425294Y-29741501D01*
X78471490Y-29717343D01*
X78516427Y-29692347D01*
X78560104Y-29666510D01*
X78602064Y-29639586D01*
X78642460Y-29611327D01*
X78690754Y-29574124D01*
X78736603Y-29534834D01*
X78780007Y-29493457D01*
X78820967Y-29449993D01*
X78851974Y-29413719D01*
X78888092Y-29365908D01*
X78921646Y-29315592D01*
X78946642Y-29273537D01*
X78969998Y-29229879D01*
X78991713Y-29184617D01*
X79011786Y-29137753D01*
X79030219Y-29089286D01*
X79038820Y-29064452D01*
X79054562Y-29013466D01*
X79068206Y-28960648D01*
X79079750Y-28905999D01*
X79089195Y-28849518D01*
X79096542Y-28791205D01*
X79101789Y-28731060D01*
X79104937Y-28669084D01*
X79105987Y-28605275D01*
X79104064Y-28524198D01*
X79098297Y-28445525D01*
X79088685Y-28369256D01*
X79075228Y-28295392D01*
X79057925Y-28223932D01*
X79036778Y-28154876D01*
X79011786Y-28088224D01*
X78982950Y-28023977D01*
X78950268Y-27962134D01*
X78913741Y-27902695D01*
X78873369Y-27845661D01*
X78829153Y-27791031D01*
X78781091Y-27738805D01*
X78729185Y-27688983D01*
X78673434Y-27641565D01*
X78613838Y-27596552D01*
X78550416Y-27554110D01*
X78483492Y-27514406D01*
X78413067Y-27477441D01*
X78339141Y-27443213D01*
X78261713Y-27411724D01*
X78180784Y-27382973D01*
X78096353Y-27356960D01*
X78008421Y-27333686D01*
X77916987Y-27313149D01*
X77822052Y-27295351D01*
X77773271Y-27287479D01*
X77723615Y-27280291D01*
X77673084Y-27273788D01*
X77621677Y-27267969D01*
X77569395Y-27262835D01*
X77516238Y-27258386D01*
X77462205Y-27254621D01*
X77407297Y-27251540D01*
X77351514Y-27249144D01*
X77294855Y-27247433D01*
X77237320Y-27246406D01*
X77178911Y-27246064D01*
X77123172Y-27246336D01*
X77068305Y-27247151D01*
X77014312Y-27248511D01*
X76961191Y-27250414D01*
X76908944Y-27252861D01*
X76857569Y-27255852D01*
X76807068Y-27259387D01*
X76757439Y-27263466D01*
X76708684Y-27268088D01*
X76613792Y-27278965D01*
X76522391Y-27292017D01*
X76434483Y-27307244D01*
X76350067Y-27324646D01*
X76269142Y-27344224D01*
X76191709Y-27365976D01*
X76117769Y-27389905D01*
X76047320Y-27416008D01*
X75980363Y-27444287D01*
X75916898Y-27474741D01*
X75856925Y-27507370D01*
X75828248Y-27524501D01*
X75773021Y-27560574D01*
X75720304Y-27599491D01*
X75670096Y-27641251D01*
X75622397Y-27685853D01*
X75577207Y-27733300D01*
X75534527Y-27783589D01*
X75494356Y-27836721D01*
X75456693Y-27892697D01*
X75421541Y-27951515D01*
X75388897Y-28013177D01*
X75358763Y-28077682D01*
X75331137Y-28145030D01*
X75306021Y-28215221D01*
X75283415Y-28288256D01*
X75263317Y-28364133D01*
X75245729Y-28442854D01*
X76228806Y-28574745D01*
X76244377Y-28519060D01*
X76262695Y-28466038D01*
X76283761Y-28415677D01*
X76307575Y-28367978D01*
X76334136Y-28322941D01*
X76363445Y-28280566D01*
X76395502Y-28240852D01*
X76430307Y-28203801D01*
X76467859Y-28169411D01*
X76508159Y-28137684D01*
X76536552Y-28118011D01*
X76581611Y-28090512D01*
X76630233Y-28065718D01*
X76682418Y-28043629D01*
X76738167Y-28024244D01*
X76797479Y-28007565D01*
X76860355Y-27993590D01*
X76926795Y-27982320D01*
X76996797Y-27973755D01*
X77070364Y-27967894D01*
X77121387Y-27965490D01*
X77173995Y-27964288D01*
X77200893Y-27964138D01*
X77257468Y-27964707D01*
X77312247Y-27966413D01*
X77365231Y-27969257D01*
X77416418Y-27973240D01*
X77465809Y-27978359D01*
X77559203Y-27992012D01*
X77645414Y-28010216D01*
X77724439Y-28032971D01*
X77796281Y-28060276D01*
X77860939Y-28092133D01*
X77918412Y-28128540D01*
X77968701Y-28169498D01*
X78011806Y-28215008D01*
X78047727Y-28265068D01*
X78076464Y-28319679D01*
X78098017Y-28378841D01*
X78112385Y-28442554D01*
X78119569Y-28510818D01*
X78120467Y-28546657D01*
X78118082Y-28604140D01*
X78110926Y-28658283D01*
X78099000Y-28709088D01*
X78082304Y-28756553D01*
X78060837Y-28800679D01*
X78028781Y-28849222D01*
X78022770Y-28856845D01*
X77989944Y-28893762D01*
X77952526Y-28928949D01*
X77910517Y-28962408D01*
X77863917Y-28994136D01*
X77812725Y-29024136D01*
X77768465Y-29046891D01*
X77733342Y-29063230D01*
X77678941Y-29084964D01*
X77630051Y-29102141D01*
X77574227Y-29120069D01*
X77511469Y-29138749D01*
X77441777Y-29158180D01*
X77391464Y-29171551D01*
X77338069Y-29185257D01*
X77281593Y-29199296D01*
X77222035Y-29213669D01*
X77159395Y-29228376D01*
X77093674Y-29243417D01*
X77024871Y-29258792D01*
X76952986Y-29274501D01*
X76867372Y-29293033D01*
X76784859Y-29311385D01*
X76705447Y-29329555D01*
X76629135Y-29347544D01*
X76555925Y-29365352D01*
X76485815Y-29382979D01*
X76418805Y-29400424D01*
X76354897Y-29417688D01*
X76294089Y-29434771D01*
X76236382Y-29451672D01*
X76181775Y-29468392D01*
X76130269Y-29484931D01*
X76081865Y-29501289D01*
X76015071Y-29525485D01*
X75955254Y-29549274D01*
X75900031Y-29573223D01*
X75847019Y-29597903D01*
X75796218Y-29623312D01*
X75747629Y-29649451D01*
X75701250Y-29676321D01*
X75657082Y-29703920D01*
X75615126Y-29732248D01*
X75575380Y-29761307D01*
X75525826Y-29801187D01*
X75480202Y-29842365D01*
X75437536Y-29885222D01*
X75397465Y-29930140D01*
X75359989Y-29977119D01*
X75325108Y-30026158D01*
X75292822Y-30077258D01*
X75263131Y-30130419D01*
X75236035Y-30185641D01*
X75211535Y-30242923D01*
X75189782Y-30302057D01*
X75170929Y-30363442D01*
X75158693Y-30410958D01*
X75148089Y-30459741D01*
X75139116Y-30509791D01*
X75131774Y-30561107D01*
X75126064Y-30613690D01*
X75121985Y-30667539D01*
X75119538Y-30722654D01*
X75118722Y-30779036D01*
G37*
G36*
X72016838Y-30137899D02*
G01*
X72016838Y-32170000D01*
X73026782Y-32170000D01*
X73026782Y-30137899D01*
X74751137Y-27246064D01*
X73688681Y-27246064D01*
X72528527Y-29356322D01*
X71353719Y-27246064D01*
X70292484Y-27246064D01*
X72016838Y-30137899D01*
G37*
G36*
X65788646Y-30779036D02*
G01*
X65790706Y-30866878D01*
X65796889Y-30952105D01*
X65807193Y-31034719D01*
X65821618Y-31114718D01*
X65840166Y-31192103D01*
X65862834Y-31266873D01*
X65889625Y-31339030D01*
X65920537Y-31408572D01*
X65955570Y-31475501D01*
X65994726Y-31539815D01*
X66038002Y-31601515D01*
X66085401Y-31660601D01*
X66136921Y-31717072D01*
X66192562Y-31770930D01*
X66252325Y-31822173D01*
X66316210Y-31870802D01*
X66383935Y-31916497D01*
X66455524Y-31959245D01*
X66530977Y-31999044D01*
X66610294Y-32035895D01*
X66693475Y-32069798D01*
X66780520Y-32100753D01*
X66871429Y-32128760D01*
X66966202Y-32153818D01*
X67015037Y-32165242D01*
X67064838Y-32175929D01*
X67115606Y-32185879D01*
X67167339Y-32195092D01*
X67220039Y-32203567D01*
X67273704Y-32211306D01*
X67328336Y-32218308D01*
X67383933Y-32224573D01*
X67440497Y-32230100D01*
X67498026Y-32234891D01*
X67556521Y-32238944D01*
X67615983Y-32242261D01*
X67676410Y-32244841D01*
X67737804Y-32246683D01*
X67800163Y-32247789D01*
X67863489Y-32248157D01*
X67921257Y-32247836D01*
X67978240Y-32246874D01*
X68034438Y-32245270D01*
X68089852Y-32243024D01*
X68144481Y-32240137D01*
X68198326Y-32236608D01*
X68251385Y-32232438D01*
X68303660Y-32227626D01*
X68355150Y-32222172D01*
X68405856Y-32216076D01*
X68455776Y-32209340D01*
X68504912Y-32201961D01*
X68553264Y-32193941D01*
X68647612Y-32175976D01*
X68738821Y-32155444D01*
X68826892Y-32132346D01*
X68911824Y-32106681D01*
X68993616Y-32078450D01*
X69072270Y-32047653D01*
X69147785Y-32014289D01*
X69220161Y-31978358D01*
X69289398Y-31939861D01*
X69322840Y-31919651D01*
X69387464Y-31877266D01*
X69449140Y-31832238D01*
X69507868Y-31784568D01*
X69563648Y-31734255D01*
X69616480Y-31681299D01*
X69666363Y-31625700D01*
X69713299Y-31567459D01*
X69757287Y-31506575D01*
X69798326Y-31443048D01*
X69836418Y-31376878D01*
X69871561Y-31308066D01*
X69903756Y-31236610D01*
X69933003Y-31162512D01*
X69959302Y-31085771D01*
X69982653Y-31006387D01*
X70003056Y-30924361D01*
X69023642Y-30763161D01*
X69003213Y-30832766D01*
X68979478Y-30898701D01*
X68952437Y-30960965D01*
X68922091Y-31019558D01*
X68888438Y-31074481D01*
X68851480Y-31125733D01*
X68811215Y-31173313D01*
X68767645Y-31217223D01*
X68720769Y-31257463D01*
X68670587Y-31294031D01*
X68635296Y-31316371D01*
X68579293Y-31347143D01*
X68519362Y-31374889D01*
X68455502Y-31399608D01*
X68387714Y-31421300D01*
X68340339Y-31434080D01*
X68291219Y-31445514D01*
X68240353Y-31455603D01*
X68187740Y-31464348D01*
X68133382Y-31471746D01*
X68077278Y-31477800D01*
X68019427Y-31482508D01*
X67959831Y-31485871D01*
X67898489Y-31487889D01*
X67835401Y-31488562D01*
X67770110Y-31487926D01*
X67706892Y-31486019D01*
X67645746Y-31482841D01*
X67586674Y-31478392D01*
X67529674Y-31472671D01*
X67474747Y-31465679D01*
X67421892Y-31457415D01*
X67371110Y-31447880D01*
X67322401Y-31437074D01*
X67231201Y-31411648D01*
X67148292Y-31381137D01*
X67073674Y-31345540D01*
X67007347Y-31304859D01*
X66949311Y-31259092D01*
X66899565Y-31208240D01*
X66858111Y-31152302D01*
X66824947Y-31091280D01*
X66800075Y-31025172D01*
X66783493Y-30953979D01*
X66775202Y-30877701D01*
X66774166Y-30837655D01*
X66776074Y-30786898D01*
X66783826Y-30726672D01*
X66797540Y-30670024D01*
X66817218Y-30616954D01*
X66842859Y-30567461D01*
X66874463Y-30521546D01*
X66896287Y-30495715D01*
X66936865Y-30454839D01*
X66982273Y-30416169D01*
X67022077Y-30386822D01*
X67064972Y-30358886D01*
X67110958Y-30332363D01*
X67160036Y-30307252D01*
X67212205Y-30283553D01*
X67239448Y-30272233D01*
X67301081Y-30249068D01*
X67355671Y-30230943D01*
X67417431Y-30212174D01*
X67486360Y-30192761D01*
X67536296Y-30179461D01*
X67589419Y-30165875D01*
X67645729Y-30152003D01*
X67705225Y-30137844D01*
X67767907Y-30123399D01*
X67833776Y-30108669D01*
X67902832Y-30093651D01*
X67975075Y-30078348D01*
X68050504Y-30062759D01*
X68089413Y-30054856D01*
X68155907Y-30039028D01*
X68219835Y-30023601D01*
X68281196Y-30008574D01*
X68339991Y-29993948D01*
X68396220Y-29979723D01*
X68449881Y-29965899D01*
X68500977Y-29952475D01*
X68549506Y-29939452D01*
X68617487Y-29920668D01*
X68679694Y-29902787D01*
X68736126Y-29885807D01*
X68786784Y-29869728D01*
X68845345Y-29849692D01*
X68897838Y-29829733D01*
X68949072Y-29808934D01*
X68999046Y-29787296D01*
X69047761Y-29764818D01*
X69095217Y-29741501D01*
X69141413Y-29717343D01*
X69186350Y-29692347D01*
X69230027Y-29666510D01*
X69271988Y-29639586D01*
X69312383Y-29611327D01*
X69360677Y-29574124D01*
X69406526Y-29534834D01*
X69449931Y-29493457D01*
X69490890Y-29449993D01*
X69521898Y-29413719D01*
X69558015Y-29365908D01*
X69591569Y-29315592D01*
X69616566Y-29273537D01*
X69639921Y-29229879D01*
X69661636Y-29184617D01*
X69681710Y-29137753D01*
X69700142Y-29089286D01*
X69708743Y-29064452D01*
X69724486Y-29013466D01*
X69738129Y-28960648D01*
X69749673Y-28905999D01*
X69759118Y-28849518D01*
X69766465Y-28791205D01*
X69771712Y-28731060D01*
X69774861Y-28669084D01*
X69775910Y-28605275D01*
X69773988Y-28524198D01*
X69768220Y-28445525D01*
X69758608Y-28369256D01*
X69745151Y-28295392D01*
X69727849Y-28223932D01*
X69706702Y-28154876D01*
X69681710Y-28088224D01*
X69652873Y-28023977D01*
X69620191Y-27962134D01*
X69583664Y-27902695D01*
X69543293Y-27845661D01*
X69499076Y-27791031D01*
X69451015Y-27738805D01*
X69399108Y-27688983D01*
X69343357Y-27641565D01*
X69283761Y-27596552D01*
X69220339Y-27554110D01*
X69153415Y-27514406D01*
X69082990Y-27477441D01*
X69009064Y-27443213D01*
X68931636Y-27411724D01*
X68850707Y-27382973D01*
X68766276Y-27356960D01*
X68678344Y-27333686D01*
X68586910Y-27313149D01*
X68491975Y-27295351D01*
X68443195Y-27287479D01*
X68393539Y-27280291D01*
X68343007Y-27273788D01*
X68291601Y-27267969D01*
X68239319Y-27262835D01*
X68186161Y-27258386D01*
X68132128Y-27254621D01*
X68077220Y-27251540D01*
X68021437Y-27249144D01*
X67964778Y-27247433D01*
X67907244Y-27246406D01*
X67848834Y-27246064D01*
X67793095Y-27246336D01*
X67738228Y-27247151D01*
X67684235Y-27248511D01*
X67631115Y-27250414D01*
X67578867Y-27252861D01*
X67527493Y-27255852D01*
X67476991Y-27259387D01*
X67427363Y-27263466D01*
X67378607Y-27268088D01*
X67283715Y-27278965D01*
X67192315Y-27292017D01*
X67104406Y-27307244D01*
X67019990Y-27324646D01*
X66939065Y-27344224D01*
X66861633Y-27365976D01*
X66787692Y-27389905D01*
X66717243Y-27416008D01*
X66650286Y-27444287D01*
X66586821Y-27474741D01*
X66526848Y-27507370D01*
X66498171Y-27524501D01*
X66442945Y-27560574D01*
X66390227Y-27599491D01*
X66340019Y-27641251D01*
X66292320Y-27685853D01*
X66247131Y-27733300D01*
X66204450Y-27783589D01*
X66164279Y-27836721D01*
X66126617Y-27892697D01*
X66091464Y-27951515D01*
X66058820Y-28013177D01*
X66028686Y-28077682D01*
X66001061Y-28145030D01*
X65975945Y-28215221D01*
X65953338Y-28288256D01*
X65933240Y-28364133D01*
X65915652Y-28442854D01*
X66898729Y-28574745D01*
X66914300Y-28519060D01*
X66932618Y-28466038D01*
X66953684Y-28415677D01*
X66977498Y-28367978D01*
X67004059Y-28322941D01*
X67033368Y-28280566D01*
X67065425Y-28240852D01*
X67100230Y-28203801D01*
X67137782Y-28169411D01*
X67178082Y-28137684D01*
X67206475Y-28118011D01*
X67251534Y-28090512D01*
X67300156Y-28065718D01*
X67352341Y-28043629D01*
X67408090Y-28024244D01*
X67467403Y-28007565D01*
X67530278Y-27993590D01*
X67596718Y-27982320D01*
X67666721Y-27973755D01*
X67740287Y-27967894D01*
X67791311Y-27965490D01*
X67843918Y-27964288D01*
X67870816Y-27964138D01*
X67927391Y-27964707D01*
X67982171Y-27966413D01*
X68035154Y-27969257D01*
X68086341Y-27973240D01*
X68135732Y-27978359D01*
X68229127Y-27992012D01*
X68315337Y-28010216D01*
X68394363Y-28032971D01*
X68466204Y-28060276D01*
X68530862Y-28092133D01*
X68588335Y-28128540D01*
X68638625Y-28169498D01*
X68681730Y-28215008D01*
X68717651Y-28265068D01*
X68746387Y-28319679D01*
X68767940Y-28378841D01*
X68782308Y-28442554D01*
X68789492Y-28510818D01*
X68790390Y-28546657D01*
X68788005Y-28604140D01*
X68780850Y-28658283D01*
X68768924Y-28709088D01*
X68752227Y-28756553D01*
X68730761Y-28800679D01*
X68698704Y-28849222D01*
X68692693Y-28856845D01*
X68659867Y-28893762D01*
X68622449Y-28928949D01*
X68580440Y-28962408D01*
X68533840Y-28994136D01*
X68482648Y-29024136D01*
X68438388Y-29046891D01*
X68403265Y-29063230D01*
X68348864Y-29084964D01*
X68299974Y-29102141D01*
X68244150Y-29120069D01*
X68181392Y-29138749D01*
X68111700Y-29158180D01*
X68061387Y-29171551D01*
X68007993Y-29185257D01*
X67951516Y-29199296D01*
X67891958Y-29213669D01*
X67829319Y-29228376D01*
X67763597Y-29243417D01*
X67694794Y-29258792D01*
X67622909Y-29274501D01*
X67537296Y-29293033D01*
X67454783Y-29311385D01*
X67375370Y-29329555D01*
X67299059Y-29347544D01*
X67225848Y-29365352D01*
X67155738Y-29382979D01*
X67088728Y-29400424D01*
X67024820Y-29417688D01*
X66964012Y-29434771D01*
X66906305Y-29451672D01*
X66851698Y-29468392D01*
X66800193Y-29484931D01*
X66751788Y-29501289D01*
X66684994Y-29525485D01*
X66625177Y-29549274D01*
X66569954Y-29573223D01*
X66516943Y-29597903D01*
X66466142Y-29623312D01*
X66417552Y-29649451D01*
X66371173Y-29676321D01*
X66327006Y-29703920D01*
X66285049Y-29732248D01*
X66245303Y-29761307D01*
X66195749Y-29801187D01*
X66150125Y-29842365D01*
X66107459Y-29885222D01*
X66067388Y-29930140D01*
X66029912Y-29977119D01*
X65995031Y-30026158D01*
X65962745Y-30077258D01*
X65933054Y-30130419D01*
X65905959Y-30185641D01*
X65881458Y-30242923D01*
X65859705Y-30302057D01*
X65840853Y-30363442D01*
X65828617Y-30410958D01*
X65818012Y-30459741D01*
X65809039Y-30509791D01*
X65801697Y-30561107D01*
X65795987Y-30613690D01*
X65791909Y-30667539D01*
X65789461Y-30722654D01*
X65788646Y-30779036D01*
G37*
G36*
X61051556Y-32170000D02*
G01*
X61051556Y-29232979D01*
X61051479Y-29182986D01*
X61051250Y-29133145D01*
X61050869Y-29083457D01*
X61050334Y-29033921D01*
X61048431Y-28973271D01*
X61046065Y-28907173D01*
X61043714Y-28844125D01*
X61040870Y-28769528D01*
X61038700Y-28713381D01*
X61036310Y-28652101D01*
X61033700Y-28585688D01*
X61030871Y-28514142D01*
X61027823Y-28437463D01*
X61024555Y-28355651D01*
X61021068Y-28268707D01*
X61017362Y-28176629D01*
X61032502Y-28233935D01*
X61047391Y-28290145D01*
X61062030Y-28345257D01*
X61076419Y-28399272D01*
X61090557Y-28452189D01*
X61104445Y-28504010D01*
X61118082Y-28554733D01*
X61131469Y-28604359D01*
X61144605Y-28652888D01*
X61157491Y-28700320D01*
X61182512Y-28791892D01*
X61206531Y-28879075D01*
X61229548Y-28961870D01*
X61251563Y-29040275D01*
X61272576Y-29114293D01*
X61292588Y-29183921D01*
X61311598Y-29249160D01*
X61329606Y-29310011D01*
X61346612Y-29366473D01*
X61362617Y-29418547D01*
X61377620Y-29466231D01*
X62250788Y-32170000D01*
X62971304Y-32170000D01*
X63844473Y-29466231D01*
X64212058Y-28176629D01*
X64209504Y-28225944D01*
X64204638Y-28321418D01*
X64200096Y-28412685D01*
X64195879Y-28499744D01*
X64191987Y-28582596D01*
X64188419Y-28661240D01*
X64185175Y-28735677D01*
X64182255Y-28805906D01*
X64179660Y-28871928D01*
X64177389Y-28933742D01*
X64175443Y-28991349D01*
X64173821Y-29044749D01*
X64172524Y-29093941D01*
X64171186Y-29159840D01*
X64170577Y-29216272D01*
X64170537Y-29232979D01*
X64170537Y-32170000D01*
X65070572Y-32170000D01*
X65070572Y-27324221D01*
X63713803Y-27324221D01*
X62847962Y-30034096D01*
X62772247Y-30295436D01*
X62607383Y-30945122D01*
X62391228Y-30168429D01*
X61500963Y-27324221D01*
X60151521Y-27324221D01*
X60151521Y-32170000D01*
X61051556Y-32170000D01*
G37*
G36*
X59538471Y-32170000D02*
G01*
X58524863Y-32170000D01*
X58094996Y-30899937D01*
X56250963Y-30899937D01*
X55821095Y-32170000D01*
X54818478Y-32170000D01*
X55555934Y-30137899D01*
X56478108Y-30137899D01*
X57869071Y-30137899D01*
X57835666Y-30041501D01*
X57803226Y-29947852D01*
X57771752Y-29856954D01*
X57741245Y-29768806D01*
X57711703Y-29683408D01*
X57683127Y-29600760D01*
X57655518Y-29520863D01*
X57628874Y-29443715D01*
X57603196Y-29369318D01*
X57578484Y-29297670D01*
X57554739Y-29228773D01*
X57531959Y-29162626D01*
X57510145Y-29099229D01*
X57489298Y-29038582D01*
X57469416Y-28980685D01*
X57450500Y-28925539D01*
X57432550Y-28873142D01*
X57415567Y-28823496D01*
X57384497Y-28732453D01*
X57357292Y-28652411D01*
X57333951Y-28583370D01*
X57314473Y-28525329D01*
X57298860Y-28478288D01*
X57279225Y-28417208D01*
X57270195Y-28388189D01*
X57255717Y-28341111D01*
X57239287Y-28286743D01*
X57223889Y-28234694D01*
X57209520Y-28184963D01*
X57196182Y-28137550D01*
X57175422Y-28063056D01*
X57103370Y-28297529D01*
X56955603Y-28760369D01*
X56478108Y-30137899D01*
X55555934Y-30137899D01*
X56577027Y-27324221D01*
X57772595Y-27324221D01*
X59538471Y-32170000D01*
G37*
G36*
X52525038Y-28107020D02*
G01*
X52525038Y-32170000D01*
X53538646Y-32170000D01*
X53538646Y-28107020D01*
X55100579Y-28107020D01*
X55100579Y-27324221D01*
X50958220Y-27324221D01*
X50958220Y-28107020D01*
X52525038Y-28107020D01*
G37*
G36*
X48250788Y-28107020D02*
G01*
X48250788Y-32170000D01*
X49264396Y-32170000D01*
X49264396Y-28107020D01*
X50826329Y-28107020D01*
X50826329Y-27324221D01*
X46683970Y-27324221D01*
X46683970Y-28107020D01*
X48250788Y-28107020D01*
G37*
D11*
X32305048Y-178397819D02*
X32305048Y-179112104D01*
X32305048Y-179112104D02*
X32352667Y-179254961D01*
X32352667Y-179254961D02*
X32447905Y-179350200D01*
X32447905Y-179350200D02*
X32590762Y-179397819D01*
X32590762Y-179397819D02*
X32686000Y-179397819D01*
X31352667Y-179397819D02*
X31828857Y-179397819D01*
X31828857Y-179397819D02*
X31828857Y-178397819D01*
X30447905Y-179302580D02*
X30495524Y-179350200D01*
X30495524Y-179350200D02*
X30638381Y-179397819D01*
X30638381Y-179397819D02*
X30733619Y-179397819D01*
X30733619Y-179397819D02*
X30876476Y-179350200D01*
X30876476Y-179350200D02*
X30971714Y-179254961D01*
X30971714Y-179254961D02*
X31019333Y-179159723D01*
X31019333Y-179159723D02*
X31066952Y-178969247D01*
X31066952Y-178969247D02*
X31066952Y-178826390D01*
X31066952Y-178826390D02*
X31019333Y-178635914D01*
X31019333Y-178635914D02*
X30971714Y-178540676D01*
X30971714Y-178540676D02*
X30876476Y-178445438D01*
X30876476Y-178445438D02*
X30733619Y-178397819D01*
X30733619Y-178397819D02*
X30638381Y-178397819D01*
X30638381Y-178397819D02*
X30495524Y-178445438D01*
X30495524Y-178445438D02*
X30447905Y-178493057D01*
X29733619Y-178397819D02*
X29733619Y-179112104D01*
X29733619Y-179112104D02*
X29781238Y-179254961D01*
X29781238Y-179254961D02*
X29876476Y-179350200D01*
X29876476Y-179350200D02*
X30019333Y-179397819D01*
X30019333Y-179397819D02*
X30114571Y-179397819D01*
X28781238Y-179397819D02*
X29257428Y-179397819D01*
X29257428Y-179397819D02*
X29257428Y-178397819D01*
X27876476Y-179302580D02*
X27924095Y-179350200D01*
X27924095Y-179350200D02*
X28066952Y-179397819D01*
X28066952Y-179397819D02*
X28162190Y-179397819D01*
X28162190Y-179397819D02*
X28305047Y-179350200D01*
X28305047Y-179350200D02*
X28400285Y-179254961D01*
X28400285Y-179254961D02*
X28447904Y-179159723D01*
X28447904Y-179159723D02*
X28495523Y-178969247D01*
X28495523Y-178969247D02*
X28495523Y-178826390D01*
X28495523Y-178826390D02*
X28447904Y-178635914D01*
X28447904Y-178635914D02*
X28400285Y-178540676D01*
X28400285Y-178540676D02*
X28305047Y-178445438D01*
X28305047Y-178445438D02*
X28162190Y-178397819D01*
X28162190Y-178397819D02*
X28066952Y-178397819D01*
X28066952Y-178397819D02*
X27924095Y-178445438D01*
X27924095Y-178445438D02*
X27876476Y-178493057D01*
X27162190Y-178397819D02*
X27162190Y-179112104D01*
X27162190Y-179112104D02*
X27209809Y-179254961D01*
X27209809Y-179254961D02*
X27305047Y-179350200D01*
X27305047Y-179350200D02*
X27447904Y-179397819D01*
X27447904Y-179397819D02*
X27543142Y-179397819D01*
X26209809Y-179397819D02*
X26685999Y-179397819D01*
X26685999Y-179397819D02*
X26685999Y-178397819D01*
X25305047Y-179302580D02*
X25352666Y-179350200D01*
X25352666Y-179350200D02*
X25495523Y-179397819D01*
X25495523Y-179397819D02*
X25590761Y-179397819D01*
X25590761Y-179397819D02*
X25733618Y-179350200D01*
X25733618Y-179350200D02*
X25828856Y-179254961D01*
X25828856Y-179254961D02*
X25876475Y-179159723D01*
X25876475Y-179159723D02*
X25924094Y-178969247D01*
X25924094Y-178969247D02*
X25924094Y-178826390D01*
X25924094Y-178826390D02*
X25876475Y-178635914D01*
X25876475Y-178635914D02*
X25828856Y-178540676D01*
X25828856Y-178540676D02*
X25733618Y-178445438D01*
X25733618Y-178445438D02*
X25590761Y-178397819D01*
X25590761Y-178397819D02*
X25495523Y-178397819D01*
X25495523Y-178397819D02*
X25352666Y-178445438D01*
X25352666Y-178445438D02*
X25305047Y-178493057D01*
X24590761Y-178397819D02*
X24590761Y-179112104D01*
X24590761Y-179112104D02*
X24638380Y-179254961D01*
X24638380Y-179254961D02*
X24733618Y-179350200D01*
X24733618Y-179350200D02*
X24876475Y-179397819D01*
X24876475Y-179397819D02*
X24971713Y-179397819D01*
X23638380Y-179397819D02*
X24114570Y-179397819D01*
X24114570Y-179397819D02*
X24114570Y-178397819D01*
X22733618Y-179302580D02*
X22781237Y-179350200D01*
X22781237Y-179350200D02*
X22924094Y-179397819D01*
X22924094Y-179397819D02*
X23019332Y-179397819D01*
X23019332Y-179397819D02*
X23162189Y-179350200D01*
X23162189Y-179350200D02*
X23257427Y-179254961D01*
X23257427Y-179254961D02*
X23305046Y-179159723D01*
X23305046Y-179159723D02*
X23352665Y-178969247D01*
X23352665Y-178969247D02*
X23352665Y-178826390D01*
X23352665Y-178826390D02*
X23305046Y-178635914D01*
X23305046Y-178635914D02*
X23257427Y-178540676D01*
X23257427Y-178540676D02*
X23162189Y-178445438D01*
X23162189Y-178445438D02*
X23019332Y-178397819D01*
X23019332Y-178397819D02*
X22924094Y-178397819D01*
X22924094Y-178397819D02*
X22781237Y-178445438D01*
X22781237Y-178445438D02*
X22733618Y-178493057D01*
%LPC*%
%LPD*%
M02*
