G04 #@! TF.GenerationSoftware,KiCad,Pcbnew,7.0.9-1.fc39*
G04 #@! TF.CreationDate,2023-12-18T11:41:48-05:00*
G04 #@! TF.ProjectId,SYSMATT-WS2812-MATRIX-CARRIER,5359534d-4154-4542-9d57-53323831322d,rev?*
G04 #@! TF.SameCoordinates,Original*
G04 #@! TF.FileFunction,Legend,Top*
G04 #@! TF.FilePolarity,Positive*
%FSLAX46Y46*%
G04 Gerber Fmt 4.6, Leading zero omitted, Abs format (unit mm)*
G04 Created by KiCad (PCBNEW 7.0.9-1.fc39) date 2023-12-18 11:41:48*
%MOMM*%
%LPD*%
G01*
G04 APERTURE LIST*
G04 Aperture macros list*
%AMRoundRect*
0 Rectangle with rounded corners*
0 $1 Rounding radius*
0 $2 $3 $4 $5 $6 $7 $8 $9 X,Y pos of 4 corners*
0 Add a 4 corners polygon primitive as box body*
4,1,4,$2,$3,$4,$5,$6,$7,$8,$9,$2,$3,0*
0 Add four circle primitives for the rounded corners*
1,1,$1+$1,$2,$3*
1,1,$1+$1,$4,$5*
1,1,$1+$1,$6,$7*
1,1,$1+$1,$8,$9*
0 Add four rect primitives between the rounded corners*
20,1,$1+$1,$2,$3,$4,$5,0*
20,1,$1+$1,$4,$5,$6,$7,0*
20,1,$1+$1,$6,$7,$8,$9,0*
20,1,$1+$1,$8,$9,$2,$3,0*%
G04 Aperture macros list end*
%ADD10C,0.150000*%
%ADD11C,0.120000*%
%ADD12R,3.500000X3.500000*%
%ADD13RoundRect,0.750000X1.000000X-0.750000X1.000000X0.750000X-1.000000X0.750000X-1.000000X-0.750000X0*%
%ADD14RoundRect,0.875000X0.875000X-0.875000X0.875000X0.875000X-0.875000X0.875000X-0.875000X-0.875000X0*%
%ADD15C,2.000000*%
%ADD16O,1.500000X2.000000*%
%ADD17R,2.000000X3.000000*%
%ADD18R,1.700000X1.700000*%
%ADD19O,1.700000X1.700000*%
%ADD20C,12.800000*%
%ADD21R,3.000000X3.000000*%
%ADD22C,8.600000*%
%ADD23C,10.600000*%
G04 APERTURE END LIST*
D10*
X63574874Y-99985533D02*
X65098684Y-99985533D01*
X64336779Y-100747438D02*
X64336779Y-99223628D01*
X102074874Y-163485533D02*
X103598684Y-163485533D01*
X102836779Y-164247438D02*
X102836779Y-162723628D01*
X162824874Y-150985533D02*
X164348684Y-150985533D01*
X163586779Y-151747438D02*
X163586779Y-150223628D01*
X172824874Y-150985533D02*
X174348684Y-150985533D01*
X173586779Y-151747438D02*
X173586779Y-150223628D01*
X82324874Y-154235533D02*
X83848684Y-154235533D01*
X83086779Y-154997438D02*
X83086779Y-153473628D01*
X117074874Y-145485533D02*
X118598684Y-145485533D01*
X117836779Y-146247438D02*
X117836779Y-144723628D01*
X117074874Y-135735533D02*
X118598684Y-135735533D01*
X117836779Y-136497438D02*
X117836779Y-134973628D01*
X103324874Y-120235533D02*
X104848684Y-120235533D01*
X104086779Y-120997438D02*
X104086779Y-119473628D01*
X143574874Y-100235533D02*
X145098684Y-100235533D01*
X144336779Y-100997438D02*
X144336779Y-99473628D01*
X129086779Y-72509819D02*
X129086779Y-71509819D01*
X129086779Y-71509819D02*
X129324874Y-71509819D01*
X129324874Y-71509819D02*
X129467731Y-71557438D01*
X129467731Y-71557438D02*
X129562969Y-71652676D01*
X129562969Y-71652676D02*
X129610588Y-71747914D01*
X129610588Y-71747914D02*
X129658207Y-71938390D01*
X129658207Y-71938390D02*
X129658207Y-72081247D01*
X129658207Y-72081247D02*
X129610588Y-72271723D01*
X129610588Y-72271723D02*
X129562969Y-72366961D01*
X129562969Y-72366961D02*
X129467731Y-72462200D01*
X129467731Y-72462200D02*
X129324874Y-72509819D01*
X129324874Y-72509819D02*
X129086779Y-72509819D01*
X130039160Y-72224104D02*
X130515350Y-72224104D01*
X129943922Y-72509819D02*
X130277255Y-71509819D01*
X130277255Y-71509819D02*
X130610588Y-72509819D01*
X130801065Y-71509819D02*
X131372493Y-71509819D01*
X131086779Y-72509819D02*
X131086779Y-71509819D01*
X131658208Y-72224104D02*
X132134398Y-72224104D01*
X131562970Y-72509819D02*
X131896303Y-71509819D01*
X131896303Y-71509819D02*
X132229636Y-72509819D01*
X129086779Y-74119819D02*
X129086779Y-73119819D01*
X129562969Y-74119819D02*
X129562969Y-73119819D01*
X129562969Y-73119819D02*
X130134397Y-74119819D01*
X130134397Y-74119819D02*
X130134397Y-73119819D01*
X49336779Y-72509819D02*
X49336779Y-71509819D01*
X49336779Y-71509819D02*
X49574874Y-71509819D01*
X49574874Y-71509819D02*
X49717731Y-71557438D01*
X49717731Y-71557438D02*
X49812969Y-71652676D01*
X49812969Y-71652676D02*
X49860588Y-71747914D01*
X49860588Y-71747914D02*
X49908207Y-71938390D01*
X49908207Y-71938390D02*
X49908207Y-72081247D01*
X49908207Y-72081247D02*
X49860588Y-72271723D01*
X49860588Y-72271723D02*
X49812969Y-72366961D01*
X49812969Y-72366961D02*
X49717731Y-72462200D01*
X49717731Y-72462200D02*
X49574874Y-72509819D01*
X49574874Y-72509819D02*
X49336779Y-72509819D01*
X50289160Y-72224104D02*
X50765350Y-72224104D01*
X50193922Y-72509819D02*
X50527255Y-71509819D01*
X50527255Y-71509819D02*
X50860588Y-72509819D01*
X51051065Y-71509819D02*
X51622493Y-71509819D01*
X51336779Y-72509819D02*
X51336779Y-71509819D01*
X51908208Y-72224104D02*
X52384398Y-72224104D01*
X51812970Y-72509819D02*
X52146303Y-71509819D01*
X52146303Y-71509819D02*
X52479636Y-72509819D01*
X49527255Y-73119819D02*
X49717731Y-73119819D01*
X49717731Y-73119819D02*
X49812969Y-73167438D01*
X49812969Y-73167438D02*
X49908207Y-73262676D01*
X49908207Y-73262676D02*
X49955826Y-73453152D01*
X49955826Y-73453152D02*
X49955826Y-73786485D01*
X49955826Y-73786485D02*
X49908207Y-73976961D01*
X49908207Y-73976961D02*
X49812969Y-74072200D01*
X49812969Y-74072200D02*
X49717731Y-74119819D01*
X49717731Y-74119819D02*
X49527255Y-74119819D01*
X49527255Y-74119819D02*
X49432017Y-74072200D01*
X49432017Y-74072200D02*
X49336779Y-73976961D01*
X49336779Y-73976961D02*
X49289160Y-73786485D01*
X49289160Y-73786485D02*
X49289160Y-73453152D01*
X49289160Y-73453152D02*
X49336779Y-73262676D01*
X49336779Y-73262676D02*
X49432017Y-73167438D01*
X49432017Y-73167438D02*
X49527255Y-73119819D01*
X50384398Y-73119819D02*
X50384398Y-73929342D01*
X50384398Y-73929342D02*
X50432017Y-74024580D01*
X50432017Y-74024580D02*
X50479636Y-74072200D01*
X50479636Y-74072200D02*
X50574874Y-74119819D01*
X50574874Y-74119819D02*
X50765350Y-74119819D01*
X50765350Y-74119819D02*
X50860588Y-74072200D01*
X50860588Y-74072200D02*
X50908207Y-74024580D01*
X50908207Y-74024580D02*
X50955826Y-73929342D01*
X50955826Y-73929342D02*
X50955826Y-73119819D01*
X51289160Y-73119819D02*
X51860588Y-73119819D01*
X51574874Y-74119819D02*
X51574874Y-73119819D01*
X108247319Y-176259523D02*
X108961604Y-176259523D01*
X108961604Y-176259523D02*
X109104461Y-176307142D01*
X109104461Y-176307142D02*
X109199700Y-176402380D01*
X109199700Y-176402380D02*
X109247319Y-176545237D01*
X109247319Y-176545237D02*
X109247319Y-176640475D01*
X109247319Y-175259523D02*
X109247319Y-175830951D01*
X109247319Y-175545237D02*
X108247319Y-175545237D01*
X108247319Y-175545237D02*
X108390176Y-175640475D01*
X108390176Y-175640475D02*
X108485414Y-175735713D01*
X108485414Y-175735713D02*
X108533033Y-175830951D01*
X109247319Y-174307142D02*
X109247319Y-174878570D01*
X109247319Y-174592856D02*
X108247319Y-174592856D01*
X108247319Y-174592856D02*
X108390176Y-174688094D01*
X108390176Y-174688094D02*
X108485414Y-174783332D01*
X108485414Y-174783332D02*
X108533033Y-174878570D01*
X178190476Y-135954819D02*
X178190476Y-136669104D01*
X178190476Y-136669104D02*
X178142857Y-136811961D01*
X178142857Y-136811961D02*
X178047619Y-136907200D01*
X178047619Y-136907200D02*
X177904762Y-136954819D01*
X177904762Y-136954819D02*
X177809524Y-136954819D01*
X179190476Y-136954819D02*
X178619048Y-136954819D01*
X178904762Y-136954819D02*
X178904762Y-135954819D01*
X178904762Y-135954819D02*
X178809524Y-136097676D01*
X178809524Y-136097676D02*
X178714286Y-136192914D01*
X178714286Y-136192914D02*
X178619048Y-136240533D01*
X179809524Y-135954819D02*
X179904762Y-135954819D01*
X179904762Y-135954819D02*
X180000000Y-136002438D01*
X180000000Y-136002438D02*
X180047619Y-136050057D01*
X180047619Y-136050057D02*
X180095238Y-136145295D01*
X180095238Y-136145295D02*
X180142857Y-136335771D01*
X180142857Y-136335771D02*
X180142857Y-136573866D01*
X180142857Y-136573866D02*
X180095238Y-136764342D01*
X180095238Y-136764342D02*
X180047619Y-136859580D01*
X180047619Y-136859580D02*
X180000000Y-136907200D01*
X180000000Y-136907200D02*
X179904762Y-136954819D01*
X179904762Y-136954819D02*
X179809524Y-136954819D01*
X179809524Y-136954819D02*
X179714286Y-136907200D01*
X179714286Y-136907200D02*
X179666667Y-136859580D01*
X179666667Y-136859580D02*
X179619048Y-136764342D01*
X179619048Y-136764342D02*
X179571429Y-136573866D01*
X179571429Y-136573866D02*
X179571429Y-136335771D01*
X179571429Y-136335771D02*
X179619048Y-136145295D01*
X179619048Y-136145295D02*
X179666667Y-136050057D01*
X179666667Y-136050057D02*
X179714286Y-136002438D01*
X179714286Y-136002438D02*
X179809524Y-135954819D01*
X85656666Y-154249819D02*
X85656666Y-154964104D01*
X85656666Y-154964104D02*
X85609047Y-155106961D01*
X85609047Y-155106961D02*
X85513809Y-155202200D01*
X85513809Y-155202200D02*
X85370952Y-155249819D01*
X85370952Y-155249819D02*
X85275714Y-155249819D01*
X86180476Y-155249819D02*
X86370952Y-155249819D01*
X86370952Y-155249819D02*
X86466190Y-155202200D01*
X86466190Y-155202200D02*
X86513809Y-155154580D01*
X86513809Y-155154580D02*
X86609047Y-155011723D01*
X86609047Y-155011723D02*
X86656666Y-154821247D01*
X86656666Y-154821247D02*
X86656666Y-154440295D01*
X86656666Y-154440295D02*
X86609047Y-154345057D01*
X86609047Y-154345057D02*
X86561428Y-154297438D01*
X86561428Y-154297438D02*
X86466190Y-154249819D01*
X86466190Y-154249819D02*
X86275714Y-154249819D01*
X86275714Y-154249819D02*
X86180476Y-154297438D01*
X86180476Y-154297438D02*
X86132857Y-154345057D01*
X86132857Y-154345057D02*
X86085238Y-154440295D01*
X86085238Y-154440295D02*
X86085238Y-154678390D01*
X86085238Y-154678390D02*
X86132857Y-154773628D01*
X86132857Y-154773628D02*
X86180476Y-154821247D01*
X86180476Y-154821247D02*
X86275714Y-154868866D01*
X86275714Y-154868866D02*
X86466190Y-154868866D01*
X86466190Y-154868866D02*
X86561428Y-154821247D01*
X86561428Y-154821247D02*
X86609047Y-154773628D01*
X86609047Y-154773628D02*
X86656666Y-154678390D01*
X114676666Y-144659819D02*
X114676666Y-145374104D01*
X114676666Y-145374104D02*
X114629047Y-145516961D01*
X114629047Y-145516961D02*
X114533809Y-145612200D01*
X114533809Y-145612200D02*
X114390952Y-145659819D01*
X114390952Y-145659819D02*
X114295714Y-145659819D01*
X115295714Y-145088390D02*
X115200476Y-145040771D01*
X115200476Y-145040771D02*
X115152857Y-144993152D01*
X115152857Y-144993152D02*
X115105238Y-144897914D01*
X115105238Y-144897914D02*
X115105238Y-144850295D01*
X115105238Y-144850295D02*
X115152857Y-144755057D01*
X115152857Y-144755057D02*
X115200476Y-144707438D01*
X115200476Y-144707438D02*
X115295714Y-144659819D01*
X115295714Y-144659819D02*
X115486190Y-144659819D01*
X115486190Y-144659819D02*
X115581428Y-144707438D01*
X115581428Y-144707438D02*
X115629047Y-144755057D01*
X115629047Y-144755057D02*
X115676666Y-144850295D01*
X115676666Y-144850295D02*
X115676666Y-144897914D01*
X115676666Y-144897914D02*
X115629047Y-144993152D01*
X115629047Y-144993152D02*
X115581428Y-145040771D01*
X115581428Y-145040771D02*
X115486190Y-145088390D01*
X115486190Y-145088390D02*
X115295714Y-145088390D01*
X115295714Y-145088390D02*
X115200476Y-145136009D01*
X115200476Y-145136009D02*
X115152857Y-145183628D01*
X115152857Y-145183628D02*
X115105238Y-145278866D01*
X115105238Y-145278866D02*
X115105238Y-145469342D01*
X115105238Y-145469342D02*
X115152857Y-145564580D01*
X115152857Y-145564580D02*
X115200476Y-145612200D01*
X115200476Y-145612200D02*
X115295714Y-145659819D01*
X115295714Y-145659819D02*
X115486190Y-145659819D01*
X115486190Y-145659819D02*
X115581428Y-145612200D01*
X115581428Y-145612200D02*
X115629047Y-145564580D01*
X115629047Y-145564580D02*
X115676666Y-145469342D01*
X115676666Y-145469342D02*
X115676666Y-145278866D01*
X115676666Y-145278866D02*
X115629047Y-145183628D01*
X115629047Y-145183628D02*
X115581428Y-145136009D01*
X115581428Y-145136009D02*
X115486190Y-145088390D01*
X115051666Y-135184819D02*
X115051666Y-135899104D01*
X115051666Y-135899104D02*
X115004047Y-136041961D01*
X115004047Y-136041961D02*
X114908809Y-136137200D01*
X114908809Y-136137200D02*
X114765952Y-136184819D01*
X114765952Y-136184819D02*
X114670714Y-136184819D01*
X115432619Y-135184819D02*
X116099285Y-135184819D01*
X116099285Y-135184819D02*
X115670714Y-136184819D01*
X144249819Y-97343333D02*
X144964104Y-97343333D01*
X144964104Y-97343333D02*
X145106961Y-97390952D01*
X145106961Y-97390952D02*
X145202200Y-97486190D01*
X145202200Y-97486190D02*
X145249819Y-97629047D01*
X145249819Y-97629047D02*
X145249819Y-97724285D01*
X144249819Y-96438571D02*
X144249819Y-96629047D01*
X144249819Y-96629047D02*
X144297438Y-96724285D01*
X144297438Y-96724285D02*
X144345057Y-96771904D01*
X144345057Y-96771904D02*
X144487914Y-96867142D01*
X144487914Y-96867142D02*
X144678390Y-96914761D01*
X144678390Y-96914761D02*
X145059342Y-96914761D01*
X145059342Y-96914761D02*
X145154580Y-96867142D01*
X145154580Y-96867142D02*
X145202200Y-96819523D01*
X145202200Y-96819523D02*
X145249819Y-96724285D01*
X145249819Y-96724285D02*
X145249819Y-96533809D01*
X145249819Y-96533809D02*
X145202200Y-96438571D01*
X145202200Y-96438571D02*
X145154580Y-96390952D01*
X145154580Y-96390952D02*
X145059342Y-96343333D01*
X145059342Y-96343333D02*
X144821247Y-96343333D01*
X144821247Y-96343333D02*
X144726009Y-96390952D01*
X144726009Y-96390952D02*
X144678390Y-96438571D01*
X144678390Y-96438571D02*
X144630771Y-96533809D01*
X144630771Y-96533809D02*
X144630771Y-96724285D01*
X144630771Y-96724285D02*
X144678390Y-96819523D01*
X144678390Y-96819523D02*
X144726009Y-96867142D01*
X144726009Y-96867142D02*
X144821247Y-96914761D01*
X103999819Y-117343333D02*
X104714104Y-117343333D01*
X104714104Y-117343333D02*
X104856961Y-117390952D01*
X104856961Y-117390952D02*
X104952200Y-117486190D01*
X104952200Y-117486190D02*
X104999819Y-117629047D01*
X104999819Y-117629047D02*
X104999819Y-117724285D01*
X103999819Y-116390952D02*
X103999819Y-116867142D01*
X103999819Y-116867142D02*
X104476009Y-116914761D01*
X104476009Y-116914761D02*
X104428390Y-116867142D01*
X104428390Y-116867142D02*
X104380771Y-116771904D01*
X104380771Y-116771904D02*
X104380771Y-116533809D01*
X104380771Y-116533809D02*
X104428390Y-116438571D01*
X104428390Y-116438571D02*
X104476009Y-116390952D01*
X104476009Y-116390952D02*
X104571247Y-116343333D01*
X104571247Y-116343333D02*
X104809342Y-116343333D01*
X104809342Y-116343333D02*
X104904580Y-116390952D01*
X104904580Y-116390952D02*
X104952200Y-116438571D01*
X104952200Y-116438571D02*
X104999819Y-116533809D01*
X104999819Y-116533809D02*
X104999819Y-116771904D01*
X104999819Y-116771904D02*
X104952200Y-116867142D01*
X104952200Y-116867142D02*
X104904580Y-116914761D01*
X64249819Y-97343333D02*
X64964104Y-97343333D01*
X64964104Y-97343333D02*
X65106961Y-97390952D01*
X65106961Y-97390952D02*
X65202200Y-97486190D01*
X65202200Y-97486190D02*
X65249819Y-97629047D01*
X65249819Y-97629047D02*
X65249819Y-97724285D01*
X64583152Y-96438571D02*
X65249819Y-96438571D01*
X64202200Y-96676666D02*
X64916485Y-96914761D01*
X64916485Y-96914761D02*
X64916485Y-96295714D01*
X158666666Y-33054819D02*
X158333333Y-32578628D01*
X158095238Y-33054819D02*
X158095238Y-32054819D01*
X158095238Y-32054819D02*
X158476190Y-32054819D01*
X158476190Y-32054819D02*
X158571428Y-32102438D01*
X158571428Y-32102438D02*
X158619047Y-32150057D01*
X158619047Y-32150057D02*
X158666666Y-32245295D01*
X158666666Y-32245295D02*
X158666666Y-32388152D01*
X158666666Y-32388152D02*
X158619047Y-32483390D01*
X158619047Y-32483390D02*
X158571428Y-32531009D01*
X158571428Y-32531009D02*
X158476190Y-32578628D01*
X158476190Y-32578628D02*
X158095238Y-32578628D01*
X159095238Y-32531009D02*
X159428571Y-32531009D01*
X159571428Y-33054819D02*
X159095238Y-33054819D01*
X159095238Y-33054819D02*
X159095238Y-32054819D01*
X159095238Y-32054819D02*
X159571428Y-32054819D01*
X160333333Y-32531009D02*
X160000000Y-32531009D01*
X160000000Y-33054819D02*
X160000000Y-32054819D01*
X160000000Y-32054819D02*
X160476190Y-32054819D01*
X161000000Y-32054819D02*
X161000000Y-32292914D01*
X160761905Y-32197676D02*
X161000000Y-32292914D01*
X161000000Y-32292914D02*
X161238095Y-32197676D01*
X160857143Y-32483390D02*
X161000000Y-32292914D01*
X161000000Y-32292914D02*
X161142857Y-32483390D01*
X161761905Y-32054819D02*
X161761905Y-32292914D01*
X161523810Y-32197676D02*
X161761905Y-32292914D01*
X161761905Y-32292914D02*
X162000000Y-32197676D01*
X161619048Y-32483390D02*
X161761905Y-32292914D01*
X161761905Y-32292914D02*
X161904762Y-32483390D01*
X54297619Y-75454819D02*
X54630952Y-76454819D01*
X54630952Y-76454819D02*
X54964285Y-75454819D01*
X55297619Y-76073866D02*
X56059524Y-76073866D01*
X55678571Y-76454819D02*
X55678571Y-75692914D01*
X134297619Y-75454819D02*
X134630952Y-76454819D01*
X134630952Y-76454819D02*
X134964285Y-75454819D01*
X135297619Y-76073866D02*
X136059524Y-76073866D01*
X135678571Y-76454819D02*
X135678571Y-75692914D01*
X102238095Y-75502438D02*
X102142857Y-75454819D01*
X102142857Y-75454819D02*
X102000000Y-75454819D01*
X102000000Y-75454819D02*
X101857143Y-75502438D01*
X101857143Y-75502438D02*
X101761905Y-75597676D01*
X101761905Y-75597676D02*
X101714286Y-75692914D01*
X101714286Y-75692914D02*
X101666667Y-75883390D01*
X101666667Y-75883390D02*
X101666667Y-76026247D01*
X101666667Y-76026247D02*
X101714286Y-76216723D01*
X101714286Y-76216723D02*
X101761905Y-76311961D01*
X101761905Y-76311961D02*
X101857143Y-76407200D01*
X101857143Y-76407200D02*
X102000000Y-76454819D01*
X102000000Y-76454819D02*
X102095238Y-76454819D01*
X102095238Y-76454819D02*
X102238095Y-76407200D01*
X102238095Y-76407200D02*
X102285714Y-76359580D01*
X102285714Y-76359580D02*
X102285714Y-76026247D01*
X102285714Y-76026247D02*
X102095238Y-76026247D01*
X102714286Y-76454819D02*
X102714286Y-75454819D01*
X102714286Y-75454819D02*
X103285714Y-76454819D01*
X103285714Y-76454819D02*
X103285714Y-75454819D01*
X103761905Y-76454819D02*
X103761905Y-75454819D01*
X103761905Y-75454819D02*
X104000000Y-75454819D01*
X104000000Y-75454819D02*
X104142857Y-75502438D01*
X104142857Y-75502438D02*
X104238095Y-75597676D01*
X104238095Y-75597676D02*
X104285714Y-75692914D01*
X104285714Y-75692914D02*
X104333333Y-75883390D01*
X104333333Y-75883390D02*
X104333333Y-76026247D01*
X104333333Y-76026247D02*
X104285714Y-76216723D01*
X104285714Y-76216723D02*
X104238095Y-76311961D01*
X104238095Y-76311961D02*
X104142857Y-76407200D01*
X104142857Y-76407200D02*
X104000000Y-76454819D01*
X104000000Y-76454819D02*
X103761905Y-76454819D01*
X38666666Y-33054819D02*
X38333333Y-32578628D01*
X38095238Y-33054819D02*
X38095238Y-32054819D01*
X38095238Y-32054819D02*
X38476190Y-32054819D01*
X38476190Y-32054819D02*
X38571428Y-32102438D01*
X38571428Y-32102438D02*
X38619047Y-32150057D01*
X38619047Y-32150057D02*
X38666666Y-32245295D01*
X38666666Y-32245295D02*
X38666666Y-32388152D01*
X38666666Y-32388152D02*
X38619047Y-32483390D01*
X38619047Y-32483390D02*
X38571428Y-32531009D01*
X38571428Y-32531009D02*
X38476190Y-32578628D01*
X38476190Y-32578628D02*
X38095238Y-32578628D01*
X39095238Y-32531009D02*
X39428571Y-32531009D01*
X39571428Y-33054819D02*
X39095238Y-33054819D01*
X39095238Y-33054819D02*
X39095238Y-32054819D01*
X39095238Y-32054819D02*
X39571428Y-32054819D01*
X40333333Y-32531009D02*
X40000000Y-32531009D01*
X40000000Y-33054819D02*
X40000000Y-32054819D01*
X40000000Y-32054819D02*
X40476190Y-32054819D01*
X41000000Y-32054819D02*
X41000000Y-32292914D01*
X40761905Y-32197676D02*
X41000000Y-32292914D01*
X41000000Y-32292914D02*
X41238095Y-32197676D01*
X40857143Y-32483390D02*
X41000000Y-32292914D01*
X41000000Y-32292914D02*
X41142857Y-32483390D01*
X41761905Y-32054819D02*
X41761905Y-32292914D01*
X41523810Y-32197676D02*
X41761905Y-32292914D01*
X41761905Y-32292914D02*
X42000000Y-32197676D01*
X41619048Y-32483390D02*
X41761905Y-32292914D01*
X41761905Y-32292914D02*
X41904762Y-32483390D01*
X168666666Y-165154819D02*
X168333333Y-164678628D01*
X168095238Y-165154819D02*
X168095238Y-164154819D01*
X168095238Y-164154819D02*
X168476190Y-164154819D01*
X168476190Y-164154819D02*
X168571428Y-164202438D01*
X168571428Y-164202438D02*
X168619047Y-164250057D01*
X168619047Y-164250057D02*
X168666666Y-164345295D01*
X168666666Y-164345295D02*
X168666666Y-164488152D01*
X168666666Y-164488152D02*
X168619047Y-164583390D01*
X168619047Y-164583390D02*
X168571428Y-164631009D01*
X168571428Y-164631009D02*
X168476190Y-164678628D01*
X168476190Y-164678628D02*
X168095238Y-164678628D01*
X169095238Y-164631009D02*
X169428571Y-164631009D01*
X169571428Y-165154819D02*
X169095238Y-165154819D01*
X169095238Y-165154819D02*
X169095238Y-164154819D01*
X169095238Y-164154819D02*
X169571428Y-164154819D01*
X170333333Y-164631009D02*
X170000000Y-164631009D01*
X170000000Y-165154819D02*
X170000000Y-164154819D01*
X170000000Y-164154819D02*
X170476190Y-164154819D01*
X171000000Y-164154819D02*
X171000000Y-164392914D01*
X170761905Y-164297676D02*
X171000000Y-164392914D01*
X171000000Y-164392914D02*
X171238095Y-164297676D01*
X170857143Y-164583390D02*
X171000000Y-164392914D01*
X171000000Y-164392914D02*
X171142857Y-164583390D01*
X171761905Y-164154819D02*
X171761905Y-164392914D01*
X171523810Y-164297676D02*
X171761905Y-164392914D01*
X171761905Y-164392914D02*
X172000000Y-164297676D01*
X171619048Y-164583390D02*
X171761905Y-164392914D01*
X171761905Y-164392914D02*
X171904762Y-164583390D01*
X168666666Y-25154819D02*
X168333333Y-24678628D01*
X168095238Y-25154819D02*
X168095238Y-24154819D01*
X168095238Y-24154819D02*
X168476190Y-24154819D01*
X168476190Y-24154819D02*
X168571428Y-24202438D01*
X168571428Y-24202438D02*
X168619047Y-24250057D01*
X168619047Y-24250057D02*
X168666666Y-24345295D01*
X168666666Y-24345295D02*
X168666666Y-24488152D01*
X168666666Y-24488152D02*
X168619047Y-24583390D01*
X168619047Y-24583390D02*
X168571428Y-24631009D01*
X168571428Y-24631009D02*
X168476190Y-24678628D01*
X168476190Y-24678628D02*
X168095238Y-24678628D01*
X169095238Y-24631009D02*
X169428571Y-24631009D01*
X169571428Y-25154819D02*
X169095238Y-25154819D01*
X169095238Y-25154819D02*
X169095238Y-24154819D01*
X169095238Y-24154819D02*
X169571428Y-24154819D01*
X170333333Y-24631009D02*
X170000000Y-24631009D01*
X170000000Y-25154819D02*
X170000000Y-24154819D01*
X170000000Y-24154819D02*
X170476190Y-24154819D01*
X171000000Y-24154819D02*
X171000000Y-24392914D01*
X170761905Y-24297676D02*
X171000000Y-24392914D01*
X171000000Y-24392914D02*
X171238095Y-24297676D01*
X170857143Y-24583390D02*
X171000000Y-24392914D01*
X171000000Y-24392914D02*
X171142857Y-24583390D01*
X171761905Y-24154819D02*
X171761905Y-24392914D01*
X171523810Y-24297676D02*
X171761905Y-24392914D01*
X171761905Y-24392914D02*
X172000000Y-24297676D01*
X171619048Y-24583390D02*
X171761905Y-24392914D01*
X171761905Y-24392914D02*
X171904762Y-24583390D01*
X99666666Y-94154819D02*
X99333333Y-93678628D01*
X99095238Y-94154819D02*
X99095238Y-93154819D01*
X99095238Y-93154819D02*
X99476190Y-93154819D01*
X99476190Y-93154819D02*
X99571428Y-93202438D01*
X99571428Y-93202438D02*
X99619047Y-93250057D01*
X99619047Y-93250057D02*
X99666666Y-93345295D01*
X99666666Y-93345295D02*
X99666666Y-93488152D01*
X99666666Y-93488152D02*
X99619047Y-93583390D01*
X99619047Y-93583390D02*
X99571428Y-93631009D01*
X99571428Y-93631009D02*
X99476190Y-93678628D01*
X99476190Y-93678628D02*
X99095238Y-93678628D01*
X100095238Y-93631009D02*
X100428571Y-93631009D01*
X100571428Y-94154819D02*
X100095238Y-94154819D01*
X100095238Y-94154819D02*
X100095238Y-93154819D01*
X100095238Y-93154819D02*
X100571428Y-93154819D01*
X101333333Y-93631009D02*
X101000000Y-93631009D01*
X101000000Y-94154819D02*
X101000000Y-93154819D01*
X101000000Y-93154819D02*
X101476190Y-93154819D01*
X102000000Y-93154819D02*
X102000000Y-93392914D01*
X101761905Y-93297676D02*
X102000000Y-93392914D01*
X102000000Y-93392914D02*
X102238095Y-93297676D01*
X101857143Y-93583390D02*
X102000000Y-93392914D01*
X102000000Y-93392914D02*
X102142857Y-93583390D01*
X102761905Y-93154819D02*
X102761905Y-93392914D01*
X102523810Y-93297676D02*
X102761905Y-93392914D01*
X102761905Y-93392914D02*
X103000000Y-93297676D01*
X102619048Y-93583390D02*
X102761905Y-93392914D01*
X102761905Y-93392914D02*
X102904762Y-93583390D01*
X63178571Y-76454819D02*
X63178571Y-75454819D01*
X63178571Y-75454819D02*
X63416666Y-75454819D01*
X63416666Y-75454819D02*
X63559523Y-75502438D01*
X63559523Y-75502438D02*
X63654761Y-75597676D01*
X63654761Y-75597676D02*
X63702380Y-75692914D01*
X63702380Y-75692914D02*
X63749999Y-75883390D01*
X63749999Y-75883390D02*
X63749999Y-76026247D01*
X63749999Y-76026247D02*
X63702380Y-76216723D01*
X63702380Y-76216723D02*
X63654761Y-76311961D01*
X63654761Y-76311961D02*
X63559523Y-76407200D01*
X63559523Y-76407200D02*
X63416666Y-76454819D01*
X63416666Y-76454819D02*
X63178571Y-76454819D01*
X65130952Y-75454819D02*
X65321428Y-75454819D01*
X65321428Y-75454819D02*
X65416666Y-75502438D01*
X65416666Y-75502438D02*
X65511904Y-75597676D01*
X65511904Y-75597676D02*
X65559523Y-75788152D01*
X65559523Y-75788152D02*
X65559523Y-76121485D01*
X65559523Y-76121485D02*
X65511904Y-76311961D01*
X65511904Y-76311961D02*
X65416666Y-76407200D01*
X65416666Y-76407200D02*
X65321428Y-76454819D01*
X65321428Y-76454819D02*
X65130952Y-76454819D01*
X65130952Y-76454819D02*
X65035714Y-76407200D01*
X65035714Y-76407200D02*
X64940476Y-76311961D01*
X64940476Y-76311961D02*
X64892857Y-76121485D01*
X64892857Y-76121485D02*
X64892857Y-75788152D01*
X64892857Y-75788152D02*
X64940476Y-75597676D01*
X64940476Y-75597676D02*
X65035714Y-75502438D01*
X65035714Y-75502438D02*
X65130952Y-75454819D01*
X65988095Y-75454819D02*
X65988095Y-76264342D01*
X65988095Y-76264342D02*
X66035714Y-76359580D01*
X66035714Y-76359580D02*
X66083333Y-76407200D01*
X66083333Y-76407200D02*
X66178571Y-76454819D01*
X66178571Y-76454819D02*
X66369047Y-76454819D01*
X66369047Y-76454819D02*
X66464285Y-76407200D01*
X66464285Y-76407200D02*
X66511904Y-76359580D01*
X66511904Y-76359580D02*
X66559523Y-76264342D01*
X66559523Y-76264342D02*
X66559523Y-75454819D01*
X66892857Y-75454819D02*
X67464285Y-75454819D01*
X67178571Y-76454819D02*
X67178571Y-75454819D01*
X158666666Y-153054819D02*
X158333333Y-152578628D01*
X158095238Y-153054819D02*
X158095238Y-152054819D01*
X158095238Y-152054819D02*
X158476190Y-152054819D01*
X158476190Y-152054819D02*
X158571428Y-152102438D01*
X158571428Y-152102438D02*
X158619047Y-152150057D01*
X158619047Y-152150057D02*
X158666666Y-152245295D01*
X158666666Y-152245295D02*
X158666666Y-152388152D01*
X158666666Y-152388152D02*
X158619047Y-152483390D01*
X158619047Y-152483390D02*
X158571428Y-152531009D01*
X158571428Y-152531009D02*
X158476190Y-152578628D01*
X158476190Y-152578628D02*
X158095238Y-152578628D01*
X159095238Y-152531009D02*
X159428571Y-152531009D01*
X159571428Y-153054819D02*
X159095238Y-153054819D01*
X159095238Y-153054819D02*
X159095238Y-152054819D01*
X159095238Y-152054819D02*
X159571428Y-152054819D01*
X160333333Y-152531009D02*
X160000000Y-152531009D01*
X160000000Y-153054819D02*
X160000000Y-152054819D01*
X160000000Y-152054819D02*
X160476190Y-152054819D01*
X161000000Y-152054819D02*
X161000000Y-152292914D01*
X160761905Y-152197676D02*
X161000000Y-152292914D01*
X161000000Y-152292914D02*
X161238095Y-152197676D01*
X160857143Y-152483390D02*
X161000000Y-152292914D01*
X161000000Y-152292914D02*
X161142857Y-152483390D01*
X161761905Y-152054819D02*
X161761905Y-152292914D01*
X161523810Y-152197676D02*
X161761905Y-152292914D01*
X161761905Y-152292914D02*
X162000000Y-152197676D01*
X161619048Y-152483390D02*
X161761905Y-152292914D01*
X161761905Y-152292914D02*
X161904762Y-152483390D01*
X96047619Y-75454819D02*
X96380952Y-76454819D01*
X96380952Y-76454819D02*
X96714285Y-75454819D01*
X97047619Y-76073866D02*
X97809524Y-76073866D01*
X97428571Y-76454819D02*
X97428571Y-75692914D01*
X28666666Y-165154819D02*
X28333333Y-164678628D01*
X28095238Y-165154819D02*
X28095238Y-164154819D01*
X28095238Y-164154819D02*
X28476190Y-164154819D01*
X28476190Y-164154819D02*
X28571428Y-164202438D01*
X28571428Y-164202438D02*
X28619047Y-164250057D01*
X28619047Y-164250057D02*
X28666666Y-164345295D01*
X28666666Y-164345295D02*
X28666666Y-164488152D01*
X28666666Y-164488152D02*
X28619047Y-164583390D01*
X28619047Y-164583390D02*
X28571428Y-164631009D01*
X28571428Y-164631009D02*
X28476190Y-164678628D01*
X28476190Y-164678628D02*
X28095238Y-164678628D01*
X29095238Y-164631009D02*
X29428571Y-164631009D01*
X29571428Y-165154819D02*
X29095238Y-165154819D01*
X29095238Y-165154819D02*
X29095238Y-164154819D01*
X29095238Y-164154819D02*
X29571428Y-164154819D01*
X30333333Y-164631009D02*
X30000000Y-164631009D01*
X30000000Y-165154819D02*
X30000000Y-164154819D01*
X30000000Y-164154819D02*
X30476190Y-164154819D01*
X31000000Y-164154819D02*
X31000000Y-164392914D01*
X30761905Y-164297676D02*
X31000000Y-164392914D01*
X31000000Y-164392914D02*
X31238095Y-164297676D01*
X30857143Y-164583390D02*
X31000000Y-164392914D01*
X31000000Y-164392914D02*
X31142857Y-164583390D01*
X31761905Y-164154819D02*
X31761905Y-164392914D01*
X31523810Y-164297676D02*
X31761905Y-164392914D01*
X31761905Y-164392914D02*
X32000000Y-164297676D01*
X31619048Y-164583390D02*
X31761905Y-164392914D01*
X31761905Y-164392914D02*
X31904762Y-164583390D01*
X59238095Y-75502438D02*
X59142857Y-75454819D01*
X59142857Y-75454819D02*
X59000000Y-75454819D01*
X59000000Y-75454819D02*
X58857143Y-75502438D01*
X58857143Y-75502438D02*
X58761905Y-75597676D01*
X58761905Y-75597676D02*
X58714286Y-75692914D01*
X58714286Y-75692914D02*
X58666667Y-75883390D01*
X58666667Y-75883390D02*
X58666667Y-76026247D01*
X58666667Y-76026247D02*
X58714286Y-76216723D01*
X58714286Y-76216723D02*
X58761905Y-76311961D01*
X58761905Y-76311961D02*
X58857143Y-76407200D01*
X58857143Y-76407200D02*
X59000000Y-76454819D01*
X59000000Y-76454819D02*
X59095238Y-76454819D01*
X59095238Y-76454819D02*
X59238095Y-76407200D01*
X59238095Y-76407200D02*
X59285714Y-76359580D01*
X59285714Y-76359580D02*
X59285714Y-76026247D01*
X59285714Y-76026247D02*
X59095238Y-76026247D01*
X59714286Y-76454819D02*
X59714286Y-75454819D01*
X59714286Y-75454819D02*
X60285714Y-76454819D01*
X60285714Y-76454819D02*
X60285714Y-75454819D01*
X60761905Y-76454819D02*
X60761905Y-75454819D01*
X60761905Y-75454819D02*
X61000000Y-75454819D01*
X61000000Y-75454819D02*
X61142857Y-75502438D01*
X61142857Y-75502438D02*
X61238095Y-75597676D01*
X61238095Y-75597676D02*
X61285714Y-75692914D01*
X61285714Y-75692914D02*
X61333333Y-75883390D01*
X61333333Y-75883390D02*
X61333333Y-76026247D01*
X61333333Y-76026247D02*
X61285714Y-76216723D01*
X61285714Y-76216723D02*
X61238095Y-76311961D01*
X61238095Y-76311961D02*
X61142857Y-76407200D01*
X61142857Y-76407200D02*
X61000000Y-76454819D01*
X61000000Y-76454819D02*
X60761905Y-76454819D01*
X139238095Y-75502438D02*
X139142857Y-75454819D01*
X139142857Y-75454819D02*
X139000000Y-75454819D01*
X139000000Y-75454819D02*
X138857143Y-75502438D01*
X138857143Y-75502438D02*
X138761905Y-75597676D01*
X138761905Y-75597676D02*
X138714286Y-75692914D01*
X138714286Y-75692914D02*
X138666667Y-75883390D01*
X138666667Y-75883390D02*
X138666667Y-76026247D01*
X138666667Y-76026247D02*
X138714286Y-76216723D01*
X138714286Y-76216723D02*
X138761905Y-76311961D01*
X138761905Y-76311961D02*
X138857143Y-76407200D01*
X138857143Y-76407200D02*
X139000000Y-76454819D01*
X139000000Y-76454819D02*
X139095238Y-76454819D01*
X139095238Y-76454819D02*
X139238095Y-76407200D01*
X139238095Y-76407200D02*
X139285714Y-76359580D01*
X139285714Y-76359580D02*
X139285714Y-76026247D01*
X139285714Y-76026247D02*
X139095238Y-76026247D01*
X139714286Y-76454819D02*
X139714286Y-75454819D01*
X139714286Y-75454819D02*
X140285714Y-76454819D01*
X140285714Y-76454819D02*
X140285714Y-75454819D01*
X140761905Y-76454819D02*
X140761905Y-75454819D01*
X140761905Y-75454819D02*
X141000000Y-75454819D01*
X141000000Y-75454819D02*
X141142857Y-75502438D01*
X141142857Y-75502438D02*
X141238095Y-75597676D01*
X141238095Y-75597676D02*
X141285714Y-75692914D01*
X141285714Y-75692914D02*
X141333333Y-75883390D01*
X141333333Y-75883390D02*
X141333333Y-76026247D01*
X141333333Y-76026247D02*
X141285714Y-76216723D01*
X141285714Y-76216723D02*
X141238095Y-76311961D01*
X141238095Y-76311961D02*
X141142857Y-76407200D01*
X141142857Y-76407200D02*
X141000000Y-76454819D01*
X141000000Y-76454819D02*
X140761905Y-76454819D01*
X28666666Y-25154819D02*
X28333333Y-24678628D01*
X28095238Y-25154819D02*
X28095238Y-24154819D01*
X28095238Y-24154819D02*
X28476190Y-24154819D01*
X28476190Y-24154819D02*
X28571428Y-24202438D01*
X28571428Y-24202438D02*
X28619047Y-24250057D01*
X28619047Y-24250057D02*
X28666666Y-24345295D01*
X28666666Y-24345295D02*
X28666666Y-24488152D01*
X28666666Y-24488152D02*
X28619047Y-24583390D01*
X28619047Y-24583390D02*
X28571428Y-24631009D01*
X28571428Y-24631009D02*
X28476190Y-24678628D01*
X28476190Y-24678628D02*
X28095238Y-24678628D01*
X29095238Y-24631009D02*
X29428571Y-24631009D01*
X29571428Y-25154819D02*
X29095238Y-25154819D01*
X29095238Y-25154819D02*
X29095238Y-24154819D01*
X29095238Y-24154819D02*
X29571428Y-24154819D01*
X30333333Y-24631009D02*
X30000000Y-24631009D01*
X30000000Y-25154819D02*
X30000000Y-24154819D01*
X30000000Y-24154819D02*
X30476190Y-24154819D01*
X31000000Y-24154819D02*
X31000000Y-24392914D01*
X30761905Y-24297676D02*
X31000000Y-24392914D01*
X31000000Y-24392914D02*
X31238095Y-24297676D01*
X30857143Y-24583390D02*
X31000000Y-24392914D01*
X31000000Y-24392914D02*
X31142857Y-24583390D01*
X31761905Y-24154819D02*
X31761905Y-24392914D01*
X31523810Y-24297676D02*
X31761905Y-24392914D01*
X31761905Y-24392914D02*
X32000000Y-24297676D01*
X31619048Y-24583390D02*
X31761905Y-24392914D01*
X31761905Y-24392914D02*
X31904762Y-24583390D01*
X143595238Y-76204819D02*
X143595238Y-75204819D01*
X143595238Y-75204819D02*
X143833333Y-75204819D01*
X143833333Y-75204819D02*
X143976190Y-75252438D01*
X143976190Y-75252438D02*
X144071428Y-75347676D01*
X144071428Y-75347676D02*
X144119047Y-75442914D01*
X144119047Y-75442914D02*
X144166666Y-75633390D01*
X144166666Y-75633390D02*
X144166666Y-75776247D01*
X144166666Y-75776247D02*
X144119047Y-75966723D01*
X144119047Y-75966723D02*
X144071428Y-76061961D01*
X144071428Y-76061961D02*
X143976190Y-76157200D01*
X143976190Y-76157200D02*
X143833333Y-76204819D01*
X143833333Y-76204819D02*
X143595238Y-76204819D01*
X145357143Y-76204819D02*
X145357143Y-75204819D01*
X145833333Y-76204819D02*
X145833333Y-75204819D01*
X145833333Y-75204819D02*
X146404761Y-76204819D01*
X146404761Y-76204819D02*
X146404761Y-75204819D01*
X38666666Y-153054819D02*
X38333333Y-152578628D01*
X38095238Y-153054819D02*
X38095238Y-152054819D01*
X38095238Y-152054819D02*
X38476190Y-152054819D01*
X38476190Y-152054819D02*
X38571428Y-152102438D01*
X38571428Y-152102438D02*
X38619047Y-152150057D01*
X38619047Y-152150057D02*
X38666666Y-152245295D01*
X38666666Y-152245295D02*
X38666666Y-152388152D01*
X38666666Y-152388152D02*
X38619047Y-152483390D01*
X38619047Y-152483390D02*
X38571428Y-152531009D01*
X38571428Y-152531009D02*
X38476190Y-152578628D01*
X38476190Y-152578628D02*
X38095238Y-152578628D01*
X39095238Y-152531009D02*
X39428571Y-152531009D01*
X39571428Y-153054819D02*
X39095238Y-153054819D01*
X39095238Y-153054819D02*
X39095238Y-152054819D01*
X39095238Y-152054819D02*
X39571428Y-152054819D01*
X40333333Y-152531009D02*
X40000000Y-152531009D01*
X40000000Y-153054819D02*
X40000000Y-152054819D01*
X40000000Y-152054819D02*
X40476190Y-152054819D01*
X41000000Y-152054819D02*
X41000000Y-152292914D01*
X40761905Y-152197676D02*
X41000000Y-152292914D01*
X41000000Y-152292914D02*
X41238095Y-152197676D01*
X40857143Y-152483390D02*
X41000000Y-152292914D01*
X41000000Y-152292914D02*
X41142857Y-152483390D01*
X41761905Y-152054819D02*
X41761905Y-152292914D01*
X41523810Y-152197676D02*
X41761905Y-152292914D01*
X41761905Y-152292914D02*
X42000000Y-152197676D01*
X41619048Y-152483390D02*
X41761905Y-152292914D01*
X41761905Y-152292914D02*
X41904762Y-152483390D01*
D11*
X98442500Y-180800000D02*
X98442500Y-166100000D01*
X107642500Y-180800000D02*
X98442500Y-180800000D01*
X107642500Y-166100000D02*
X107642500Y-168000000D01*
X104942500Y-166100000D02*
X107642500Y-166100000D01*
X98442500Y-166100000D02*
X101042500Y-166100000D01*
X107642500Y-172000000D02*
X107642500Y-180800000D01*
X99292500Y-165900000D02*
X98242500Y-165900000D01*
X98242500Y-166950000D02*
X98242500Y-165900000D01*
X177300000Y-138440000D02*
X177300000Y-147560000D01*
X176760000Y-150260000D02*
X176760000Y-148360000D01*
X168000000Y-138440000D02*
X165690000Y-138440000D01*
X174000000Y-147560000D02*
X171000000Y-147560000D01*
X180610000Y-138440000D02*
X180610000Y-147560000D01*
X177300000Y-146000000D02*
X172500000Y-146000000D01*
X168000000Y-147560000D02*
X165690000Y-147560000D01*
X177300000Y-140000000D02*
X172500000Y-140000000D01*
X180610000Y-147560000D02*
X177000000Y-147560000D01*
X165690000Y-138440000D02*
X165690000Y-147560000D01*
X174000000Y-138440000D02*
X171000000Y-138440000D01*
X175420000Y-150260000D02*
X176760000Y-150260000D01*
X180610000Y-138440000D02*
X177000000Y-138440000D01*
X172500000Y-140000000D02*
G75*
G03*
X172500000Y-146000000I0J-3000000D01*
G01*
X86275000Y-152725000D02*
X80275000Y-152725000D01*
X89265000Y-152905000D02*
X88935000Y-152905000D01*
X80275000Y-149605000D02*
X86275000Y-149605000D01*
X89332071Y-147825000D02*
X88935000Y-147825000D01*
X86275000Y-152485000D02*
X80275000Y-152485000D01*
X86275000Y-152905000D02*
X80275000Y-152905000D01*
X86275000Y-146115000D02*
X86275000Y-153855000D01*
X80275000Y-150365000D02*
X80275000Y-149605000D01*
X89265000Y-152145000D02*
X88935000Y-152145000D01*
X86275000Y-150365000D02*
X80275000Y-150365000D01*
X86275000Y-147825000D02*
X80275000Y-147825000D01*
X80275000Y-152905000D02*
X80275000Y-152145000D01*
X86275000Y-153855000D02*
X88935000Y-153855000D01*
X80275000Y-147825000D02*
X80275000Y-147065000D01*
X89332071Y-150365000D02*
X88935000Y-150365000D01*
X86275000Y-152245000D02*
X80275000Y-152245000D01*
X91645000Y-152525000D02*
X91645000Y-153795000D01*
X89332071Y-147065000D02*
X88935000Y-147065000D01*
X88935000Y-153855000D02*
X88935000Y-146115000D01*
X86275000Y-152605000D02*
X80275000Y-152605000D01*
X88935000Y-148715000D02*
X86275000Y-148715000D01*
X86275000Y-152845000D02*
X80275000Y-152845000D01*
X80275000Y-147065000D02*
X86275000Y-147065000D01*
X91645000Y-153795000D02*
X90375000Y-153795000D01*
X80275000Y-152145000D02*
X86275000Y-152145000D01*
X88935000Y-151255000D02*
X86275000Y-151255000D01*
X86275000Y-152365000D02*
X80275000Y-152365000D01*
X89332071Y-149605000D02*
X88935000Y-149605000D01*
X88935000Y-146115000D02*
X86275000Y-146115000D01*
X112065000Y-153885000D02*
X114725000Y-153885000D01*
X111667929Y-150395000D02*
X112065000Y-150395000D01*
X114725000Y-147635000D02*
X120725000Y-147635000D01*
X112065000Y-148745000D02*
X114725000Y-148745000D01*
X120725000Y-147855000D02*
X114725000Y-147855000D01*
X109355000Y-146205000D02*
X110625000Y-146205000D01*
X120725000Y-152935000D02*
X114725000Y-152935000D01*
X114725000Y-147155000D02*
X120725000Y-147155000D01*
X112065000Y-151285000D02*
X114725000Y-151285000D01*
X114725000Y-147395000D02*
X120725000Y-147395000D01*
X112065000Y-146145000D02*
X112065000Y-153885000D01*
X111667929Y-152935000D02*
X112065000Y-152935000D01*
X109355000Y-147475000D02*
X109355000Y-146205000D01*
X114725000Y-147755000D02*
X120725000Y-147755000D01*
X111667929Y-149635000D02*
X112065000Y-149635000D01*
X120725000Y-152175000D02*
X120725000Y-152935000D01*
X114725000Y-146145000D02*
X112065000Y-146145000D01*
X120725000Y-147095000D02*
X120725000Y-147855000D01*
X114725000Y-152175000D02*
X120725000Y-152175000D01*
X114725000Y-149635000D02*
X120725000Y-149635000D01*
X111735000Y-147855000D02*
X112065000Y-147855000D01*
X120725000Y-149635000D02*
X120725000Y-150395000D01*
X114725000Y-153885000D02*
X114725000Y-146145000D01*
X114725000Y-147095000D02*
X120725000Y-147095000D01*
X114725000Y-147515000D02*
X120725000Y-147515000D01*
X111667929Y-152175000D02*
X112065000Y-152175000D01*
X120725000Y-150395000D02*
X114725000Y-150395000D01*
X111735000Y-147095000D02*
X112065000Y-147095000D01*
X114725000Y-147275000D02*
X120725000Y-147275000D01*
X112042929Y-140160000D02*
X112440000Y-140160000D01*
X121100000Y-140160000D02*
X121100000Y-140920000D01*
X112110000Y-137620000D02*
X112440000Y-137620000D01*
X112042929Y-140920000D02*
X112440000Y-140920000D01*
X115100000Y-140160000D02*
X121100000Y-140160000D01*
X115100000Y-141870000D02*
X115100000Y-136670000D01*
X112110000Y-138380000D02*
X112440000Y-138380000D01*
X112440000Y-141870000D02*
X115100000Y-141870000D01*
X115100000Y-138040000D02*
X121100000Y-138040000D01*
X112440000Y-139270000D02*
X115100000Y-139270000D01*
X109730000Y-138000000D02*
X109730000Y-136730000D01*
X115100000Y-137680000D02*
X121100000Y-137680000D01*
X115100000Y-138280000D02*
X121100000Y-138280000D01*
X121100000Y-137620000D02*
X121100000Y-138380000D01*
X115100000Y-137800000D02*
X121100000Y-137800000D01*
X112440000Y-136670000D02*
X112440000Y-141870000D01*
X115100000Y-136670000D02*
X112440000Y-136670000D01*
X121100000Y-138380000D02*
X115100000Y-138380000D01*
X115100000Y-137620000D02*
X121100000Y-137620000D01*
X115100000Y-137920000D02*
X121100000Y-137920000D01*
X109730000Y-136730000D02*
X111000000Y-136730000D01*
X121100000Y-140920000D02*
X115100000Y-140920000D01*
X115100000Y-138160000D02*
X121100000Y-138160000D01*
X142725000Y-96725000D02*
X142725000Y-102725000D01*
X142905000Y-93735000D02*
X142905000Y-94065000D01*
X139605000Y-102725000D02*
X139605000Y-96725000D01*
X137825000Y-93667929D02*
X137825000Y-94065000D01*
X142485000Y-96725000D02*
X142485000Y-102725000D01*
X142905000Y-96725000D02*
X142905000Y-102725000D01*
X136115000Y-96725000D02*
X143855000Y-96725000D01*
X140365000Y-102725000D02*
X139605000Y-102725000D01*
X142145000Y-93735000D02*
X142145000Y-94065000D01*
X140365000Y-96725000D02*
X140365000Y-102725000D01*
X137825000Y-96725000D02*
X137825000Y-102725000D01*
X142905000Y-102725000D02*
X142145000Y-102725000D01*
X143855000Y-96725000D02*
X143855000Y-94065000D01*
X137825000Y-102725000D02*
X137065000Y-102725000D01*
X140365000Y-93667929D02*
X140365000Y-94065000D01*
X142245000Y-96725000D02*
X142245000Y-102725000D01*
X142525000Y-91355000D02*
X143795000Y-91355000D01*
X137065000Y-93667929D02*
X137065000Y-94065000D01*
X143855000Y-94065000D02*
X136115000Y-94065000D01*
X142605000Y-96725000D02*
X142605000Y-102725000D01*
X138715000Y-94065000D02*
X138715000Y-96725000D01*
X142845000Y-96725000D02*
X142845000Y-102725000D01*
X137065000Y-102725000D02*
X137065000Y-96725000D01*
X143795000Y-91355000D02*
X143795000Y-92625000D01*
X142145000Y-102725000D02*
X142145000Y-96725000D01*
X141255000Y-94065000D02*
X141255000Y-96725000D01*
X142365000Y-96725000D02*
X142365000Y-102725000D01*
X139605000Y-93667929D02*
X139605000Y-94065000D01*
X136115000Y-94065000D02*
X136115000Y-96725000D01*
X102115000Y-116725000D02*
X102115000Y-122725000D01*
X99355000Y-122725000D02*
X99355000Y-116725000D01*
X103545000Y-111355000D02*
X103545000Y-112625000D01*
X102355000Y-116725000D02*
X102355000Y-122725000D01*
X102655000Y-116725000D02*
X102655000Y-122725000D01*
X101895000Y-122725000D02*
X101895000Y-116725000D01*
X103605000Y-116725000D02*
X103605000Y-114065000D01*
X103605000Y-114065000D02*
X98405000Y-114065000D01*
X102475000Y-116725000D02*
X102475000Y-122725000D01*
X102655000Y-122725000D02*
X101895000Y-122725000D01*
X101995000Y-116725000D02*
X101995000Y-122725000D01*
X102595000Y-116725000D02*
X102595000Y-122725000D01*
X102275000Y-111355000D02*
X103545000Y-111355000D01*
X101005000Y-114065000D02*
X101005000Y-116725000D01*
X102235000Y-116725000D02*
X102235000Y-122725000D01*
X98405000Y-114065000D02*
X98405000Y-116725000D01*
X101895000Y-113735000D02*
X101895000Y-114065000D01*
X98405000Y-116725000D02*
X103605000Y-116725000D01*
X100115000Y-116725000D02*
X100115000Y-122725000D01*
X99355000Y-113667929D02*
X99355000Y-114065000D01*
X102655000Y-113735000D02*
X102655000Y-114065000D01*
X100115000Y-122725000D02*
X99355000Y-122725000D01*
X100115000Y-113667929D02*
X100115000Y-114065000D01*
X62725000Y-96725000D02*
X62725000Y-102725000D01*
X62905000Y-93735000D02*
X62905000Y-94065000D01*
X59605000Y-102725000D02*
X59605000Y-96725000D01*
X57825000Y-93667929D02*
X57825000Y-94065000D01*
X62485000Y-96725000D02*
X62485000Y-102725000D01*
X62905000Y-96725000D02*
X62905000Y-102725000D01*
X56115000Y-96725000D02*
X63855000Y-96725000D01*
X60365000Y-102725000D02*
X59605000Y-102725000D01*
X62145000Y-93735000D02*
X62145000Y-94065000D01*
X60365000Y-96725000D02*
X60365000Y-102725000D01*
X57825000Y-96725000D02*
X57825000Y-102725000D01*
X62905000Y-102725000D02*
X62145000Y-102725000D01*
X63855000Y-96725000D02*
X63855000Y-94065000D01*
X57825000Y-102725000D02*
X57065000Y-102725000D01*
X60365000Y-93667929D02*
X60365000Y-94065000D01*
X62245000Y-96725000D02*
X62245000Y-102725000D01*
X62525000Y-91355000D02*
X63795000Y-91355000D01*
X57065000Y-93667929D02*
X57065000Y-94065000D01*
X63855000Y-94065000D02*
X56115000Y-94065000D01*
X62605000Y-96725000D02*
X62605000Y-102725000D01*
X58715000Y-94065000D02*
X58715000Y-96725000D01*
X62845000Y-96725000D02*
X62845000Y-102725000D01*
X57065000Y-102725000D02*
X57065000Y-96725000D01*
X63795000Y-91355000D02*
X63795000Y-92625000D01*
X62145000Y-102725000D02*
X62145000Y-96725000D01*
X61255000Y-94065000D02*
X61255000Y-96725000D01*
X62365000Y-96725000D02*
X62365000Y-102725000D01*
X59605000Y-93667929D02*
X59605000Y-94065000D01*
X56115000Y-94065000D02*
X56115000Y-96725000D01*
X53300000Y-71300000D02*
X56700000Y-71300000D01*
X53300000Y-74700000D02*
X53300000Y-71300000D01*
X56700000Y-71300000D02*
X56700000Y-74700000D01*
X56700000Y-74700000D02*
X53300000Y-74700000D01*
X133300000Y-71300000D02*
X136700000Y-71300000D01*
X133300000Y-74700000D02*
X133300000Y-71300000D01*
X136700000Y-71300000D02*
X136700000Y-74700000D01*
X136700000Y-74700000D02*
X133300000Y-74700000D01*
X101300000Y-71300000D02*
X104700000Y-71300000D01*
X101300000Y-74700000D02*
X101300000Y-71300000D01*
X104700000Y-71300000D02*
X104700000Y-74700000D01*
X104700000Y-74700000D02*
X101300000Y-74700000D01*
X66700000Y-74700000D02*
X63300000Y-74700000D01*
X66700000Y-71300000D02*
X66700000Y-74700000D01*
X63300000Y-74700000D02*
X63300000Y-71300000D01*
X63300000Y-71300000D02*
X66700000Y-71300000D01*
X95300000Y-71300000D02*
X98700000Y-71300000D01*
X95300000Y-74700000D02*
X95300000Y-71300000D01*
X98700000Y-71300000D02*
X98700000Y-74700000D01*
X98700000Y-74700000D02*
X95300000Y-74700000D01*
X58300000Y-71300000D02*
X61700000Y-71300000D01*
X58300000Y-74700000D02*
X58300000Y-71300000D01*
X61700000Y-71300000D02*
X61700000Y-74700000D01*
X61700000Y-74700000D02*
X58300000Y-74700000D01*
X138300000Y-71300000D02*
X141700000Y-71300000D01*
X138300000Y-74700000D02*
X138300000Y-71300000D01*
X141700000Y-71300000D02*
X141700000Y-74700000D01*
X141700000Y-74700000D02*
X138300000Y-74700000D01*
X143300000Y-71300000D02*
X146700000Y-71300000D01*
X143300000Y-74700000D02*
X143300000Y-71300000D01*
X146700000Y-71300000D02*
X146700000Y-74700000D01*
X146700000Y-74700000D02*
X143300000Y-74700000D01*
%LPC*%
D12*
X103042500Y-167000000D03*
D13*
X103042500Y-173000000D03*
D14*
X107742500Y-170000000D03*
D15*
X171000000Y-143000000D03*
D16*
X175400000Y-143000000D03*
D17*
X175500000Y-148500000D03*
X169500000Y-148500000D03*
X169500000Y-137500000D03*
X175500000Y-137500000D03*
D18*
X90375000Y-152525000D03*
D19*
X90375000Y-149985000D03*
X90375000Y-147445000D03*
X110625000Y-152555000D03*
X110625000Y-150015000D03*
D18*
X110625000Y-147475000D03*
D19*
X111000000Y-140540000D03*
D18*
X111000000Y-138000000D03*
X142525000Y-92625000D03*
D19*
X139985000Y-92625000D03*
X137445000Y-92625000D03*
D18*
X102275000Y-112625000D03*
D19*
X99735000Y-112625000D03*
D18*
X62525000Y-92625000D03*
D19*
X59985000Y-92625000D03*
X57445000Y-92625000D03*
D20*
X160000000Y-40000000D03*
D21*
X55000000Y-73000000D03*
X135000000Y-73000000D03*
X103000000Y-73000000D03*
D20*
X40000000Y-40000000D03*
D22*
X170000000Y-170000000D03*
X170000000Y-30000000D03*
D23*
X101000000Y-100000000D03*
D21*
X65000000Y-73000000D03*
D20*
X160000000Y-160000000D03*
D21*
X97000000Y-73000000D03*
D22*
X30000000Y-170000000D03*
D21*
X60000000Y-73000000D03*
X140000000Y-73000000D03*
D22*
X30000000Y-30000000D03*
D21*
X145000000Y-73000000D03*
D20*
X40000000Y-160000000D03*
%LPD*%
M02*
